<svg xmlns="http://www.w3.org/2000/svg" width="25" height="24" fill="none"><path fill="#141B34" fill-rule="evenodd" d="M11.307 4.092c.37-.585.603-.948.802-1.176a.8.8 0 0 1 .172-.162.8.8 0 0 1 .173.162c.2.228.432.59.803 1.176l.513.81c.366.578.59.936.704 1.198l.029.072q-.062.016-.177.033c-.327.043-.799.045-1.532.045H11.77c-.733 0-1.205-.002-1.532-.045a2 2 0 0 1-.177-.033l.03-.072c.113-.262.337-.62.704-1.199zm3.224 2.175v.01-.01m-4.499 0v.01zm2.25-5.017c-.586 0-.998.33-1.304.68-.284.325-.577.789-.908 1.311l-.03.048-.513.81-.032.05c-.325.512-.616.971-.782 1.356-.176.406-.312.957.027 1.485.32.498.857.642 1.298.701.397.054.906.059 1.492.059v5.895l-4.733 3.872a10 10 0 0 0-.607-.982c-.262-.353-.654-.762-1.256-.784-.631-.023-1.035.387-1.292.74-.248.344-.5.834-.785 1.385l-.027.052-.448.87-.025.048c-.29.563-.545 1.058-.687 1.471-.15.44-.234.961.046 1.47.286.519.779.714 1.235.8.42.08.962.096 1.568.114l.058.002.942.028.06.002c.595.018 1.132.034 1.545-.02.445-.06.975-.23 1.256-.784.263-.52.136-1.05-.027-1.47-.16-.414-.438-.916-.758-1.498l-.025-.046-.036-.063 4.746-3.883 4.747 3.885-.034.061-.025.046c-.32.582-.597 1.084-.758 1.497-.164.42-.29.95-.027 1.47.281.555.81.726 1.255.784.414.055.95.039 1.545.021l.06-.002.943-.028.058-.002c.606-.018 1.148-.034 1.567-.113.457-.087.95-.282 1.236-.801.28-.509.196-1.03.045-1.47-.141-.413-.396-.908-.686-1.47l-.026-.05-.447-.869-.027-.052c-.285-.552-.537-1.041-.786-1.384-.256-.354-.66-.764-1.29-.741-.603.022-.995.43-1.258.784-.19.258-.39.595-.608.983l-4.734-3.873V7.75c.587 0 1.097-.005 1.495-.059.441-.059.977-.203 1.298-.701.34-.528.203-1.079.027-1.485-.166-.385-.457-.844-.781-1.356l-.033-.05-.512-.81-.03-.048c-.332-.522-.625-.986-.91-1.311-.304-.35-.717-.68-1.303-.68m7.383 16.068.04.054c.174.239.375.624.694 1.244l.448.869c.323.626.525 1.021.626 1.318a.9.9 0 0 1 .058.25v.003a.8.8 0 0 1-.2.058c-.287.055-.707.07-1.39.09l-.942.028c-.675.02-1.087.03-1.364-.007l-.094-.015q.013-.066.067-.208c.12-.309.346-.722.699-1.363l.494-.896c.354-.641.582-1.052.776-1.314q.052-.07.088-.11m-.088-.094q0-.001.006.005zm-2.116 3.962q0-.001.009.004zm.07.094.001.004v.003zm2.22-4.045.003-.002h.001-.001zm-15.588 1.38c.32-.62.52-1.004.694-1.243l.04-.054q.037.041.088.11c.195.263.423.674.777 1.315l.494.896c.353.64.579 1.054.699 1.363q.054.142.066.208l-.094.015c-.277.037-.688.027-1.363.007l-.942-.028c-.683-.02-1.103-.035-1.39-.09a.8.8 0 0 1-.2-.058v-.003c0-.035.01-.11.058-.25.1-.297.303-.692.626-1.319zm.823-1.391-.007.005zm-.174.011-.005-.002zm2.219 4.052v-.007zm.062-.097.009-.004q0 0-.009.004" clip-rule="evenodd"/></svg>