<svg xmlns="http://www.w3.org/2000/svg" width="25" height="24" fill="none"><path fill="#141B34" fill-rule="evenodd" d="M9.998 3.034c-3.903.99-6.817 4.464-6.961 8.64 1.318 1.153 2.907 1.97 4.636 2.471a18 18 0 0 1-.15-2.332c.005-3.187.856-6.386 2.475-8.78m2.136-.283c-1.964 2.094-3.105 5.513-3.11 9.064-.002.906.07 1.81.219 2.693a16.6 16.6 0 0 0 2.904.244c3.385-.01 6.793-1.006 9.384-2.783a9.25 9.25 0 0 0-9.397-9.218M7.967 15.775c-1.714-.412-3.345-1.1-4.784-2.09a9.26 9.26 0 0 0 7.207 7.372c-1.183-1.543-1.976-3.367-2.423-5.282m4.595 5.47c-1.426-1.376-2.407-3.18-2.968-5.164.845.118 1.701.173 2.556.171 3.227-.01 6.499-.846 9.194-2.396-.841 4.13-4.435 7.26-8.782 7.39M1.531 12c0-5.937 4.813-10.75 10.75-10.75S23.031 6.063 23.031 12s-4.813 10.75-10.75 10.75S1.531 17.937 1.531 12" clip-rule="evenodd"/></svg>