<svg xmlns="http://www.w3.org/2000/svg" width="25" height="24" fill="none"><path fill="#141B34" fill-rule="evenodd" d="M11.597 3.096c.27-.156.428-.245.55-.301a1 1 0 0 1 .109-.04l.025-.005q.003-.001.026.004a1 1 0 0 1 .108.041c.123.056.28.145.55.3l.634.365c.27.156.427.246.537.325a.7.7 0 0 1 .105.091q.001.001.008.023a1 1 0 0 1 .018.112c.013.133.014.313.014.625v.728c0 .312 0 .492-.014.625a1 1 0 0 1-.018.112q-.006.022-.008.023l-.016.019a1 1 0 0 1-.09.072c-.11.079-.265.17-.536.325l-.633.364c-.271.156-.428.245-.551.301a1 1 0 0 1-.108.04l-.026.005q-.003.001-.025-.004a1 1 0 0 1-.108-.041 7 7 0 0 1-.551-.3l-.633-.365a7 7 0 0 1-.537-.325.7.7 0 0 1-.105-.091q-.002-.001-.008-.023a1 1 0 0 1-.019-.112 7 7 0 0 1-.014-.625v-.728c0-.312.001-.492.014-.625a1 1 0 0 1 .018-.112c.005-.016.008-.021.009-.023l.016-.019a1 1 0 0 1 .089-.072c.11-.079.266-.17.537-.325zm.684-1.846c-.285 0-.53.078-.75.178-.199.09-.42.217-.656.353l-.026.014-.633.365-.026.014a8 8 0 0 0-.635.39c-.197.14-.388.313-.53.56a1.8 1.8 0 0 0-.222.739 8 8 0 0 0-.022.743v.788c0 .271 0 .526.022.743.023.241.078.492.221.74.143.246.334.418.531.559.177.126.399.254.635.39l.659.379.026.014c.236.136.457.264.656.353l.002.001v4.093l-4.1 3.69q-.148-.09-.31-.182l-.026-.014-.633-.364-.026-.015a8 8 0 0 0-.656-.353 1.8 1.8 0 0 0-.75-.178c-.286 0-.53.078-.751.178-.199.09-.42.217-.656.353l-.026.014-.633.365-.026.014c-.236.136-.458.264-.635.39-.197.14-.388.313-.53.56a1.8 1.8 0 0 0-.222.739 8 8 0 0 0-.022.743v.788c0 .271 0 .526.022.743.023.241.078.492.221.74.143.246.334.418.531.559.177.127.399.254.635.39l.659.378.026.015c.236.136.457.264.656.353.22.1.465.178.75.178s.53-.078.75-.178c.2-.09.42-.217.657-.353l.026-.015.633-.364.026-.014c.236-.136.457-.264.634-.39.198-.14.388-.313.531-.56a1.8 1.8 0 0 0 .222-.739 8 8 0 0 0 .021-.743v-.788c0-.271 0-.526-.021-.743a2 2 0 0 0-.073-.392l3.846-3.462 3.844 3.46c-.04.132-.062.265-.074.394a8 8 0 0 0-.022.743v.788c0 .271 0 .526.022.743.023.241.078.492.221.74.143.246.334.418.531.559.177.127.399.254.635.39l.659.378.026.015c.236.136.457.264.656.353.22.1.465.178.75.178s.53-.078.75-.178c.2-.09.42-.217.657-.353l.026-.015.633-.364.026-.014c.236-.136.457-.264.634-.39.198-.14.388-.313.531-.56s.198-.498.222-.739c.021-.217.021-.472.021-.743v-.788c0-.271 0-.526-.021-.743a1.8 1.8 0 0 0-.222-.74 1.8 1.8 0 0 0-.53-.559 8 8 0 0 0-.635-.39l-.026-.014-.633-.364-.026-.015a8 8 0 0 0-.656-.353 1.8 1.8 0 0 0-.75-.178c-.286 0-.53.078-.751.178-.199.09-.42.217-.656.353l-.026.014-.633.365-.026.014-.309.18-4.098-3.688V8.572c.198-.09.42-.217.655-.353l.026-.014.633-.365.026-.014c.236-.136.457-.264.634-.39.198-.14.388-.313.531-.56s.198-.498.222-.739c.021-.217.021-.472.021-.743v-.788c0-.271 0-.526-.021-.743a1.8 1.8 0 0 0-.222-.74 1.8 1.8 0 0 0-.53-.559 8 8 0 0 0-.635-.39l-.026-.014-.633-.365-.026-.014c-.236-.136-.458-.264-.656-.353-.221-.1-.466-.178-.75-.178m6.566 15.846c.27-.156.428-.245.55-.301a1 1 0 0 1 .109-.04q.023-.006.025-.005.003-.001.026.004a1 1 0 0 1 .108.041c.123.056.28.145.55.3l.634.365c.27.156.427.246.537.325a.7.7 0 0 1 .105.091q.001.001.008.022a1 1 0 0 1 .018.113c.013.134.014.313.014.625v.728c0 .312 0 .491-.014.625a1 1 0 0 1-.018.113q-.006.02-.008.022l-.016.019a1 1 0 0 1-.09.072c-.11.079-.265.17-.536.325l-.633.364c-.271.156-.428.245-.551.301a1 1 0 0 1-.108.04q-.023.006-.026.005-.002.001-.025-.004a1 1 0 0 1-.108-.041 7 7 0 0 1-.551-.3l-.633-.365a7 7 0 0 1-.537-.325.7.7 0 0 1-.105-.091q-.002-.001-.008-.022a1 1 0 0 1-.019-.113 7 7 0 0 1-.014-.625v-.728c0-.312.001-.491.014-.625a1 1 0 0 1 .018-.113q.007-.02.009-.022l.016-.019a1 1 0 0 1 .089-.072c.11-.079.266-.17.537-.325zm-13.95-.301a7 7 0 0 0-.55.3l-.633.365c-.271.156-.427.246-.537.325a1 1 0 0 0-.09.072l-.015.019-.008.022a1 1 0 0 0-.019.113 7 7 0 0 0-.014.625v.728c0 .312.001.491.014.625a.7.7 0 0 0 .027.135l.016.019c.013.013.039.037.089.072.11.079.266.17.537.325l.633.364c.27.156.428.245.55.301a1 1 0 0 0 .109.04l.025.005q.003.001.026-.004a1 1 0 0 0 .108-.041 7 7 0 0 0 .55-.3l.634-.365c.27-.156.427-.246.537-.325a1 1 0 0 0 .089-.072l.016-.019.008-.022a1 1 0 0 0 .018-.113c.013-.134.014-.313.014-.625v-.728c0-.312 0-.491-.014-.625a.7.7 0 0 0-.026-.135l-.016-.019a1 1 0 0 0-.09-.072 7 7 0 0 0-.536-.325l-.633-.364a7 7 0 0 0-.551-.301 1 1 0 0 0-.108-.04q-.023-.006-.026-.005-.003-.001-.025.004a1 1 0 0 0-.108.041" clip-rule="evenodd"/></svg>