<svg xmlns="http://www.w3.org/2000/svg" width="25" height="24" fill="none"><path fill="#141B34" fill-rule="evenodd" d="M9.88 2.12a.75.75 0 0 0-1.017-.272L5.4 3.815a.75.75 0 0 0-.276 1.032C6.26 6.786 4.806 9.283 2.5 9.283a.75.75 0 0 0-.75.75v3.934c0 .414.336.75.75.75 2.305 0 3.76 2.497 2.621 4.437a.75.75 0 0 0 .277 1.032l3.464 1.966a.75.75 0 0 0 1.017-.272c1.175-2.002 4.069-2.002 5.244 0a.75.75 0 0 0 1.017.272l3.464-1.967a.75.75 0 0 0 .276-1.031c-1.138-1.94.315-4.437 2.62-4.437a.75.75 0 0 0 .75-.75v-3.934a.75.75 0 0 0-.75-.75c-2.305 0-3.76-2.497-2.621-4.436a.75.75 0 0 0-.277-1.032l-3.464-1.967a.75.75 0 0 0-1.017.272c-1.174 2-4.066 2-5.24 0m-6.63 8.602c2.733-.453 4.484-3.34 3.496-5.947l2.266-1.286c1.794 2.176 5.183 2.176 6.978 0l2.265 1.286c-.988 2.608.762 5.494 3.495 5.947v2.556c-2.733.454-4.481 3.34-3.493 5.947l-2.266 1.287c-1.795-2.178-5.186-2.178-6.98 0l-2.266-1.287c.988-2.607-.762-5.493-3.495-5.947zm8-.722a1.25 1.25 0 1 1 2.5 0 1.25 1.25 0 0 1-2.5 0m1.25-2.75a2.75 2.75 0 1 0 0 5.5 2.75 2.75 0 0 0 0-5.5m-2.85 9.625a3.29 3.29 0 0 1 2.85-1.645c1.217 0 2.28.66 2.85 1.645a.75.75 0 1 0 1.3-.75 4.79 4.79 0 0 0-4.15-2.395 4.79 4.79 0 0 0-4.15 2.394.75.75 0 1 0 1.3.752" clip-rule="evenodd"/></svg>