<svg xmlns="http://www.w3.org/2000/svg" width="24" height="24" fill="none"><path fill="#141B34" fill-rule="evenodd" d="M20.846 16.751H22a.75.75 0 0 0 0-1.5h-1.158c-1.304 0-1.849-.008-2.256-.223-.438-.23-.835-.768-1.626-1.837l-.001-.002-2.32-3.133-.002-.002c-.289-.39-.961-1.3-2.085-.936-.504.163-.928.523-1.301.84l-.027.023c-.115.098-.224.19-.322.263-.287.215-.648.171-.898-.111-.34-.383-.34-1.03 0-1.413l1.466-1.65c.501-.564.933-1.05 1.513-1.21.569-.156 1.319-.111 1.981-.07l.1.006c.479.029.942.247 1.305.615.81.817 1.748 1.573 3.116 1.573h2.517a.75.75 0 0 0 0-1.5h-2.517c-.775 0-1.359-.432-2.049-1.128a3.5 3.5 0 0 0-2.279-1.058l-.099-.006h-.005c-.777-.047-1.658-.1-2.465.121a3.4 3.4 0 0 0-1.256.668l-.041-.019-1.393-.579c-1.292-.537-2.735-.125-3.676 1.048-.372.464-.853.72-1.353.72H2.004a.75.75 0 0 0 0 1.5h2.865c.95 0 1.869-.467 2.523-1.28.52-.65 1.26-.88 1.93-.603l.885.367-1.321 1.488c-.848.954-.848 2.45 0 3.405.775.872 2.003 1.003 2.92.314a9 9 0 0 0 .419-.342c.267-.227.57-.484.792-.556q.037-.01.037-.009c.046.014.149.096.382.412l2.321 3.134.008.01q.248.336.46.619l-1.331 1.288c-1.478 1.43-2.221 2.146-2.998 2.24l-.104.009h-.001c-.78.056-1.655-.508-3.403-1.635l-.003-.002-.006-.004c-.983-.633-1.526-.983-2.174-1.179l-.09-.027c-.647-.182-1.263-.182-2.49-.182H2.004a.75.75 0 0 0 0 1.5h1.62c1.085 0 1.63 0 2.079.124l.072.022c.442.134.894.425 1.797 1.006l.006.004.003.002c1.844 1.189 2.908 1.875 4.093 1.875q.112 0 .224-.009h.017l.163-.016c1.274-.152 2.192-1.039 3.864-2.655l1.258-1.217c.219.205.44.368.69.5.752.397 1.535.397 2.956.397" clip-rule="evenodd"/></svg>