<svg xmlns="http://www.w3.org/2000/svg" width="24" height="24" fill="none"><path fill="#141B34" fill-rule="evenodd" d="M10.324 14.253c-.788 0-1.571-.3-2.166-.885a2.98 2.98 0 0 1-.903-2.218 2.99 2.99 0 0 1 1.01-2.176L10.53 6.95c-1.024-.33-2.587-.645-4.512-.693a2.86 2.86 0 0 1-1.347-.37L1.633 4.152a.749.749 0 1 1 .744-1.302l3.039 1.736c.187.107.408.166.64.172 2.616.066 4.806.617 5.956 1.165a4.97 4.97 0 0 1 2.6-.418l1.305.143a3.47 3.47 0 0 0 2.268-.542l3.41-2.233a.75.75 0 1 1 .82 1.255l-3.41 2.233a4.97 4.97 0 0 1-3.251.778l-1.304-.143a3.47 3.47 0 0 0-2.67.849l-2.516 2.248a1.5 1.5 0 0 0-.054 2.204 1.596 1.596 0 0 0 2.035.164l1.664-1.168c.4-.28.904-.386 1.382-.292l.335.066a3.46 3.46 0 0 0 2.713-.604l.59-.435a.75.75 0 1 1 .89 1.208l-.59.435a4.96 4.96 0 0 1-2.874.96c.542 1.267 1.344 2.962 2.804 4.06.667-.177 2.285-.691 3.315-1.72a.75.75 0 1 1 1.06 1.06c-1.371 1.373-3.433 1.976-4.139 2.15-1.482 1.521-4.826 3.07-8.391 3.07-2.022 0-4.16-.928-6.18-2.684A16.2 16.2 0 0 1 1.39 15.93a.75.75 0 1 1 1.229-.86c.032.046 3.336 4.68 7.386 4.68 1.816 0 5.02-.698 6.85-2.185-1.642-1.42-2.461-3.355-3.025-4.69l-.01-.023q-.062-.148-.12-.282l-1.593 1.118a3.1 3.1 0 0 1-1.781.563z" clip-rule="evenodd"/></svg>