<svg xmlns="http://www.w3.org/2000/svg" width="24" height="24" fill="none"><path fill="#141B34" fill-rule="evenodd" d="M11.443 1.25h.114c2.19 0 3.912 0 5.255.18 1.377.186 2.469.573 3.327 1.43.858.86 1.245 1.951 1.43 3.328.181 1.343.181 3.064.181 5.255v.058q0 .794-.002 1.503a.75.75 0 0 1-1.5-.008q.002-.7.002-1.496.001-.946-.004-1.75H2.754a254 254 0 0 0-.004 1.75c0 2.26.002 3.88.167 5.112.163 1.21.472 1.933 1.005 2.466s1.256.842 2.466 1.005c1.232.165 2.852.167 5.112.167q.795 0 1.496-.002a.75.75 0 0 1 .008 1.5q-.708.003-1.503.002h-.058c-2.19 0-3.912 0-5.255-.18-1.377-.186-2.469-.573-3.327-1.43-.858-.86-1.245-1.951-1.43-3.328-.181-1.343-.181-3.064-.181-5.255v-.114c0-2.19 0-3.912.18-5.255.186-1.377.573-2.469 1.43-3.327.86-.858 1.951-1.245 3.328-1.43 1.343-.181 3.064-.181 5.255-.181m-8.663 7h17.44a19 19 0 0 0-.137-1.862c-.163-1.21-.471-1.933-1.005-2.466s-1.256-.842-2.466-1.005C15.38 2.752 13.76 2.75 11.5 2.75s-3.88.002-5.112.167c-1.21.163-1.933.472-2.466 1.005S3.08 5.178 2.917 6.388c-.072.54-.113 1.153-.137 1.862m15.72 6a.75.75 0 0 1 .703.49l.258.697c.362.978.478 1.244.668 1.434s.456.306 1.434.668l.697.258a.75.75 0 0 1 0 1.406l-.697.258c-.978.362-1.244.478-1.434.668s-.306.456-.668 1.434l-.258.697a.75.75 0 0 1-1.406 0l-.258-.697c-.362-.978-.478-1.244-.668-1.434s-.456-.306-1.434-.668l-.697-.258a.75.75 0 0 1 0-1.406l.697-.258c.978-.362 1.244-.478 1.434-.668s.306-.456.668-1.434l.258-.697a.75.75 0 0 1 .703-.49m0 2.833c-.155.329-.33.61-.568.849-.239.238-.52.413-.849.568.329.155.61.33.849.568.238.239.413.52.568.849.155-.329.33-.61.568-.849.239-.238.52-.413.849-.568a2.9 2.9 0 0 1-.849-.568 2.9 2.9 0 0 1-.568-.849M5.5 5.5a1 1 0 0 1 1-1h.009a1 1 0 1 1 0 2H6.5a1 1 0 0 1-1-1m5-1a1 1 0 1 0 0 2h.009a1 1 0 1 0 0-2z" clip-rule="evenodd"/></svg>