<svg xmlns="http://www.w3.org/2000/svg" width="24" height="24" fill="none"><path fill="#141B34" fill-rule="evenodd" d="M6.323 3.81A3.251 3.251 0 0 1 12 2.424a3.251 3.251 0 0 1 5.677 1.388 3.75 3.75 0 0 1 2.909 4.79 3.75 3.75 0 0 1 0 6.798q.162.525.164 1.101c0 1.84-1.325 3.37-3.073 3.69A3.251 3.251 0 0 1 12 21.576a3.251 3.251 0 0 1-5.677-1.388 3.75 3.75 0 0 1-2.909-4.79 3.75 3.75 0 0 1 0-6.798 3.751 3.751 0 0 1 2.909-4.79M12 5.25a.75.75 0 0 0 .75-.75 1.75 1.75 0 0 1 3.5 0c0 .414.336.75.75.75a2.25 2.25 0 0 1 1.926 3.415.75.75 0 0 0 .5 1.125 2.251 2.251 0 0 1 0 4.42.75.75 0 0 0-.5 1.125A2.25 2.25 0 0 1 17 18.75a.75.75 0 0 0-.75.75 1.75 1.75 0 1 1-3.5 0 .75.75 0 0 0-1.5 0 1.75 1.75 0 1 1-3.5 0 .75.75 0 0 0-.75-.75 2.25 2.25 0 0 1-1.926-3.415.75.75 0 0 0-.5-1.125 2.251 2.251 0 0 1 0-4.42.75.75 0 0 0 .5-1.125A2.25 2.25 0 0 1 7 5.25a.75.75 0 0 0 .75-.75 1.75 1.75 0 1 1 3.5 0c0 .414.336.75.75.75M11.237 7a.75.75 0 0 0-1.5 0v1.257a1.75 1.75 0 0 0-1.42 1.493H7a.75.75 0 0 0 0 1.5h1.302v1.474H7a.75.75 0 0 0 0 1.5h1.32a1.75 1.75 0 0 0 1.417 1.465V17a.75.75 0 1 0 1.5 0v-1.281h1.525v1.28a.75.75 0 1 0 1.5 0v-1.297c.77-.105 1.38-.71 1.492-1.477h1.321a.75.75 0 1 0 0-1.5h-1.302V11.25h1.302a.75.75 0 1 0 0-1.5h-1.317a1.75 1.75 0 0 0-1.506-1.506V7a.75.75 0 1 0-1.5 0v1.229h-1.515zM9.802 9.979a.25.25 0 0 1 .25-.25h3.971a.25.25 0 0 1 .25.25v3.989a.25.25 0 0 1-.25.25h-3.971a.25.25 0 0 1-.25-.25z" clip-rule="evenodd"/></svg>