<svg xmlns="http://www.w3.org/2000/svg" width="24" height="24" fill="none"><path fill="#141B34" fill-rule="evenodd" d="M10 2.75A1.75 1.75 0 0 0 8.95 5.9a.75.75 0 0 1-.9 1.2 3.26 3.26 0 0 1-1.19-1.758 2.25 2.25 0 0 0-1.286 3.323.75.75 0 0 1-.5 1.125 2.251 2.251 0 0 0-.437 4.289c.424-.502.98-.891 1.613-1.115a.75.75 0 1 1 .5 1.414 2.26 2.26 0 0 0-1.176.957A2.25 2.25 0 0 0 7.5 18.75a.75.75 0 0 1 .75.75 1.75 1.75 0 1 0 3.5 0V18a.75.75 0 0 1 1.5 0v1.5a3.25 3.25 0 0 1-6.427.69 3.75 3.75 0 0 1-2.909-4.791 3.75 3.75 0 0 1 0-6.798 3.751 3.751 0 0 1 2.909-4.79 3.251 3.251 0 0 1 6.427.689V6a.75.75 0 0 1-1.5 0V4.5A1.75 1.75 0 0 0 10 2.75m5.75 5.5V7a.75.75 0 0 0-1.5 0v1.3c-.34.053-.694.169-.987.462s-.41.648-.462.988H11.5a.75.75 0 0 0 0 1.5h1.25v1.5H11.5a.75.75 0 0 0 0 1.5h1.3c.053.34.169.694.463.987.293.294.647.41.987.462v1.3a.75.75 0 0 0 1.5 0v-1.25h1.5V17a.75.75 0 0 0 1.5 0v-1.3c.34-.052.694-.168.987-.462.294-.293.41-.648.462-.987H21.5a.75.75 0 0 0 0-1.5h-1.25v-1.5h1.25a.75.75 0 0 0 0-1.5h-1.3c-.053-.34-.169-.694-.463-.988-.293-.293-.647-.41-.987-.461V7a.75.75 0 0 0-1.5 0v1.25zm-1.427 1.573.003-.001.003-.002.007-.003a.7.7 0 0 1 .167-.037c.21-.029.504-.03.997-.03h2c.493 0 .787.001.997.03a.7.7 0 0 1 .167.037l.007.003.003.002.003.001.001.003.005.01c.009.022.024.07.037.166.028.211.03.505.03.998v2c0 .492-.002.787-.03.997a.7.7 0 0 1-.042.177l-.001.003-.003.001-.01.005a.7.7 0 0 1-.167.037c-.21.028-.504.03-.997.03h-2c-.493 0-.787-.002-.997-.03a.7.7 0 0 1-.177-.042l-.003-.001-.001-.003-.005-.01a.7.7 0 0 1-.037-.167c-.028-.21-.03-.505-.03-.997v-2c0-.493.002-.787.03-.998a.7.7 0 0 1 .042-.176z" clip-rule="evenodd"/></svg>