<svg xmlns="http://www.w3.org/2000/svg" width="24" height="24" fill="none"><path fill="#141B34" fill-rule="evenodd" d="M16.107 6.94a1.82 1.82 0 0 0-1.62 0c-.273.135-.505.368-.736.6l-.059.059L3.1 18.192l-.06.06c-.23.23-.464.462-.6.735a1.82 1.82 0 0 0 0 1.62c.136.272.37.505.6.735l.06.06.06.058c.23.232.462.465.734.6.51.253 1.11.253 1.62 0 .273-.135.505-.368.736-.6l.059-.059L16.9 10.808l.06-.06c.23-.23.464-.462.6-.735.252-.51.252-1.11 0-1.62-.136-.272-.37-.505-.6-.735l-.06-.06-.06-.059c-.23-.23-.462-.464-.734-.6m-4.255 4.62 1.087 1.088-7.692 7.692a9 9 0 0 1-.318.31 1 1 0 0 1-.082.067.32.32 0 0 1-.287 0 1 1 0 0 1-.082-.066 9 9 0 0 1-.318-.31 9 9 0 0 1-.31-.319 1 1 0 0 1-.067-.082.32.32 0 0 1 0-.287 1 1 0 0 1 .066-.082c.066-.073.158-.166.31-.318zm3.588-3.277a1 1 0 0 1 .082.066c.073.066.166.158.318.31.153.153.245.245.31.319a1 1 0 0 1 .067.082.33.33 0 0 1 0 .287 1 1 0 0 1-.066.082 9 9 0 0 1-.31.318L14 11.587 12.912 10.5l1.84-1.84a9 9 0 0 1 .32-.31 1 1 0 0 1 .081-.067.32.32 0 0 1 .287 0m3.357 3.957a.75.75 0 0 1 1.406 0l.11.298c.078.208.12.32.158.402q.023.048.03.058a1 1 0 0 0 .06.031c.08.038.193.08.4.157l.3.11a.75.75 0 0 1 0 1.407l-.3.11a6 6 0 0 0-.4.158 1 1 0 0 0-.06.03 1 1 0 0 0-.03.06 6 6 0 0 0-.157.4l-.11.3a.75.75 0 0 1-1.407 0l-.11-.3a6 6 0 0 0-.158-.4 1 1 0 0 0-.03-.06 1 1 0 0 0-.06-.03 6 6 0 0 0-.4-.157l-.3-.11a.75.75 0 0 1 0-1.407l.3-.11c.207-.078.32-.12.4-.158a1 1 0 0 0 .06-.03 1 1 0 0 0 .03-.06 6 6 0 0 0 .157-.4zm1.709.764-.002-.002zm-.008-.008-.002-.002zm0 2.008-.002.002zm.006-.006.002-.002zm-2.008 0-.002-.002zm.006.006.002.002zm.002-2.01-.002.002zm-.008.008-.002.002zm.3-10.762a.75.75 0 0 1 1.407 0l.11.298c.078.208.12.32.158.402q.023.048.03.058a1 1 0 0 0 .06.031c.08.038.193.08.4.157l.3.11a.75.75 0 0 1 0 1.407l-.3.11c-.207.078-.32.12-.4.158a1 1 0 0 0-.06.03 1 1 0 0 0-.03.06c-.038.08-.08.193-.157.4l-.11.3a.75.75 0 0 1-1.407 0l-.11-.3a6 6 0 0 0-.158-.4 1 1 0 0 0-.03-.06 1 1 0 0 0-.06-.03 6 6 0 0 0-.4-.157l-.3-.11a.75.75 0 0 1 0-1.407l.3-.11c.207-.078.32-.12.4-.158a1 1 0 0 0 .06-.03 1 1 0 0 0 .03-.06c.038-.08.08-.193.157-.4zm1.71.764-.002-.002zm-.008-.008-.002-.002zm-.002 2.01.002-.002zm.008-.008.002-.002zm-2.01-.002.002.002zm.008.008.002.002zm.002-2.01-.002.002zm-.008.008-.002.002zM10.5 1.75a.75.75 0 0 0-.703.49l-.11.298c-.078.208-.12.32-.158.402a1 1 0 0 1-.03.058 1 1 0 0 1-.06.031c-.08.038-.193.08-.4.157l-.3.11a.75.75 0 0 0 0 1.407l.3.11c.207.078.32.12.4.158.034.015.051.026.06.03a1 1 0 0 1 .03.06c.038.08.08.193.157.4l.11.3a.75.75 0 0 0 1.407 0l.11-.3c.078-.207.12-.32.158-.4a1 1 0 0 1 .03-.06 1 1 0 0 1 .06-.03c.08-.038.193-.08.4-.157l.3-.11a.75.75 0 0 0 0-1.407l-.3-.11a6 6 0 0 1-.4-.158 1 1 0 0 1-.06-.03 1 1 0 0 1-.03-.06 6 6 0 0 1-.157-.4l-.11-.3a.75.75 0 0 0-.704-.489m1.006 1.254-.002-.002zm-.008-.008-.002-.002zm-.002 2.01.002-.002zm.008-.008.002-.002zm-2.01-.002.002.002zm.008.008.002.002zm.002-2.01-.002.002zm-.008.008-.002.002z" clip-rule="evenodd"/></svg>