<svg xmlns="http://www.w3.org/2000/svg" width="24" height="24" fill="none"><path fill="#141B34" fill-rule="evenodd" d="M7.75 4.5a1.75 1.75 0 1 1 3.5 0v15a1.75 1.75 0 1 1-3.5 0 .75.75 0 0 0-.75-.75 2.25 2.25 0 0 1-.75-4.372.75.75 0 1 0-.5-1.414 3.75 3.75 0 0 0-1.614 1.115 2.252 2.252 0 0 1 .438-4.289.75.75 0 0 0 .5-1.125A2.251 2.251 0 0 1 6.36 5.343c.191.712.618 1.327 1.19 1.757a.75.75 0 1 0 .9-1.2c-.426-.32-.7-.828-.7-1.4M12 21.577a3.251 3.251 0 0 1-5.677-1.388 3.75 3.75 0 0 1-2.909-4.79 3.75 3.75 0 0 1 0-6.798 3.751 3.751 0 0 1 2.909-4.79A3.251 3.251 0 0 1 12 2.423a3.251 3.251 0 0 1 5.677 1.388 3.75 3.75 0 0 1 2.909 4.79 3.75 3.75 0 0 1 0 6.798q.162.525.164 1.101c0 1.84-1.325 3.37-3.073 3.69A3.251 3.251 0 0 1 12 21.576m.75-2.077a1.75 1.75 0 1 0 2.8-1.4.75.75 0 0 1 .9-1.2c.572.43.999 1.046 1.19 1.758a2.25 2.25 0 0 0 1.286-3.323.75.75 0 0 1 .5-1.125 2.251 2.251 0 0 0 .438-4.289c-.425.502-.98.891-1.614 1.115a.75.75 0 1 1-.5-1.414 2.26 2.26 0 0 0 1.176-.957A2.25 2.25 0 0 0 17 5.25a.75.75 0 0 1-.75-.75 1.75 1.75 0 1 0-3.5 0z" clip-rule="evenodd"/></svg>