<svg xmlns="http://www.w3.org/2000/svg" width="24" height="24" fill="none"><path fill="#141B34" fill-rule="evenodd" d="M1.25 13a5.75 5.75 0 0 1 4.603-5.635 6.252 6.252 0 0 1 12.394.938 5.251 5.251 0 0 1 1.661 9.863.75.75 0 1 1-.689-1.332A3.75 3.75 0 0 0 18.114 9.8a6.2 6.2 0 0 1-1.293 2.678.75.75 0 1 1-1.156-.956A4.72 4.72 0 0 0 16.75 8.5a4.75 4.75 0 0 0-9.338-1.235c1.135.08 2.18.49 3.039 1.135a.75.75 0 1 1-.901 1.2 4.23 4.23 0 0 0-2.959-.83 4.25 4.25 0 0 0-1.445 8.055.75.75 0 1 1-.656 1.35A5.75 5.75 0 0 1 1.25 13m11.453.74a.75.75 0 0 0-1.406 0l-.258.697c-.362.978-.478 1.244-.668 1.434s-.456.306-1.434.668l-.697.258a.75.75 0 0 0 0 1.406l.697.258c.978.362 1.244.478 1.434.668s.306.456.668 1.434l.258.697a.75.75 0 0 0 1.406 0l.258-.697c.362-.978.478-1.244.668-1.434s.456-.306 1.434-.668l.697-.258a.75.75 0 0 0 0-1.406l-.697-.258c-.978-.362-1.244-.478-1.434-.668s-.306-.456-.668-1.434zm-1.271 4.328a2.9 2.9 0 0 0-.849-.568c.329-.155.61-.33.849-.568.238-.239.413-.52.568-.849.155.329.33.61.568.849.239.238.52.413.849.568-.328.155-.61.33-.849.568-.238.239-.413.52-.568.849a2.9 2.9 0 0 0-.568-.849" clip-rule="evenodd"/></svg>