<svg xmlns="http://www.w3.org/2000/svg" width="24" height="24" fill="none"><path fill="#141B34" fill-rule="evenodd" d="M15.163 12.002a.75.75 0 1 0-1.5 0v1.257a1.75 1.75 0 0 0-1.42 1.493h-1.317a.75.75 0 0 0 0 1.5h1.302v1.473h-1.302a.75.75 0 1 0 0 1.5h1.32a1.75 1.75 0 0 0 1.417 1.466V22a.75.75 0 0 0 1.5 0v-1.28h1.525V22a.75.75 0 1 0 1.5 0v-1.297c.77-.105 1.38-.71 1.492-1.478H21a.75.75 0 0 0 0-1.5H19.7v-1.473H21a.75.75 0 0 0 0-1.5h-1.317a1.75 1.75 0 0 0-1.507-1.506v-1.244a.75.75 0 1 0-1.5 0v1.229h-1.514zm-1.435 2.979a.25.25 0 0 1 .25-.25h3.97a.25.25 0 0 1 .25.25v3.988a.25.25 0 0 1-.25.25h-3.97a.25.25 0 0 1-.25-.25zM3.75 2a.75.75 0 0 0-1.5 0v.004c0 .358 0 .869.42 1.483.376.553 1.06 1.146 2.236 1.891l.028.017 1.038.597c-1.545.912-2.449 1.656-2.977 2.269-.331.382-.527.727-.634 1.042-.11.324-.11.572-.11.698 0 .125 0 .374.11.697.107.315.303.66.634 1.043.526.61 1.423 1.35 2.955 2.255-1.512.867-2.409 1.53-2.936 2.092-.34.363-.548.708-.66 1.064a2.7 2.7 0 0 0-.104.828v.02a.75.75 0 0 0 1.5 0c0-.205.004-.298.036-.4.03-.095.101-.25.323-.487.47-.502 1.497-1.254 3.736-2.45 2.276-1.217 3.492-2.17 4.142-2.922.33-.383.526-.727.633-1.042.11-.324.11-.573.11-.698 0-.126 0-.374-.11-.698-.107-.315-.302-.66-.633-1.042-.526-.61-1.424-1.35-2.954-2.255 1.511-.868 2.408-1.53 2.935-2.093.34-.363.548-.708.66-1.064a2.7 2.7 0 0 0 .103-.828v-.02a.75.75 0 0 0-1.5 0c0 .206-.004.299-.036.401-.03.095-.1.25-.323.486-.444.475-1.382 1.171-3.37 2.254L5.697 4.104c-1.122-.712-1.589-1.17-1.788-1.46-.157-.231-.158-.36-.158-.642m7.102 8.761c-.447.518-1.39 1.303-3.36 2.387-1.972-1.084-2.915-1.87-3.362-2.387-.23-.268-.316-.448-.349-.546a.6.6 0 0 1-.03-.214c0-.075 0-.126.03-.215.033-.098.118-.278.349-.545.447-.518 1.39-1.304 3.361-2.387 1.97 1.083 2.914 1.87 3.36 2.387.231.267.316.447.35.545.03.089.03.14.03.215s0 .126-.03.215c-.034.098-.119.278-.35.545" clip-rule="evenodd"/></svg>