<svg xmlns="http://www.w3.org/2000/svg" width="24" height="24" fill="none"><path fill="#141B34" fill-rule="evenodd" d="M12.701 2.24a.75.75 0 0 0-1.406 0l-.258.697c-.362.978-.478 1.244-.668 1.434s-.456.306-1.434.668l-.697.258a.75.75 0 0 0 0 1.406l.697.258c.978.362 1.244.478 1.434.668s.306.456.668 1.434l.258.697a.75.75 0 0 0 1.406 0l.258-.697c.362-.978.478-1.244.668-1.434s.456-.306 1.434-.668l.697-.258a.75.75 0 0 0 0-1.406l-.697-.258c-.978-.362-1.244-.478-1.434-.668s-.306-.456-.668-1.434zM11.43 6.568A2.9 2.9 0 0 0 10.58 6c.329-.155.61-.33.849-.568.238-.239.413-.52.568-.849.155.329.33.61.568.849.239.238.52.413.849.568-.328.155-.61.33-.849.568-.238.239-.413.52-.568.849a2.9 2.9 0 0 0-.568-.849M6.122 8.24a.75.75 0 0 0-.24-1.48c-.966.157-1.766.462-2.431 1.076-.73.672-1.105 1.54-1.346 2.622-.233 1.051-.357 2.4-.512 4.1L1.26 18.18l-.001.016c-.154 2.181 1.554 4.055 3.739 4.055h.747a3.75 3.75 0 0 0 3.482-2.383l.742-1.88a7 7 0 0 1 .272-.64 1 1 0 0 1 .063-.104l.01-.01.002-.001.011-.005a.6.6 0 0 1 .115-.02c.145-.017.342-.018.687-.018h1.74c.345 0 .543.002.687.018a.6.6 0 0 1 .124.023l.003.002.002.001.009.01a.7.7 0 0 1 .063.104c.07.13.144.317.272.64l.742 1.88a3.75 3.75 0 0 0 3.482 2.383h.747c2.185 0 3.893-1.874 3.74-4.055l-.002-.015-.328-3.615c-.155-1.702-.278-3.051-.51-4.104-.24-1.083-.616-1.951-1.345-2.624-.666-.615-1.466-.92-2.433-1.077a.75.75 0 0 0-.241 1.48c.786.128 1.276.348 1.656.699.416.384.692.918.898 1.846.21.948.325 2.202.486 3.969l.323 3.553c.09 1.33-.95 2.443-2.244 2.443h-.747a2.25 2.25 0 0 1-2.087-1.434l-.754-1.91c-.111-.282-.216-.546-.328-.759a1.74 1.74 0 0 0-.553-.652 1.7 1.7 0 0 0-.809-.28c-.238-.026-.52-.026-.819-.026h-1.808c-.3 0-.581 0-.819.027-.266.03-.545.098-.81.279a1.74 1.74 0 0 0-.552.652c-.112.213-.217.477-.328.758l-.755 1.91a2.25 2.25 0 0 1-2.086 1.435h-.747c-1.293 0-2.333-1.112-2.244-2.443l.326-3.559c.162-1.765.278-3.018.489-3.965.205-.927.482-1.461.898-1.845.38-.35.87-.57 1.654-.698M17 11.5a1 1 0 1 0 0 2h.009a1 1 0 1 0 0-2zm-11 1a1 1 0 0 1 1-1h.009a1 1 0 1 1 0 2H7a1 1 0 0 1-1-1" clip-rule="evenodd"/></svg>