<svg xmlns="http://www.w3.org/2000/svg" width="24" height="24" fill="none"><path fill="#141B34" fill-rule="evenodd" d="M18.703 1.74a.75.75 0 0 0-1.406 0l-.295.796c-.41 1.11-.55 1.44-.788 1.678s-.569.378-1.678.788l-.796.295a.75.75 0 0 0 0 1.406l.796.295c1.11.41 1.44.55 1.678.788s.378.569.788 1.678l.295.796a.75.75 0 0 0 1.406 0l.295-.796c.41-1.11.55-1.44.788-1.678s.569-.378 1.678-.788l.796-.295a.75.75 0 0 0 0-1.406l-.796-.295c-1.11-.41-1.44-.55-1.678-.788s-.378-.569-.788-1.678zm-1.428 4.985c-.313-.312-.693-.526-1.156-.725.463-.199.843-.413 1.156-.725.312-.313.526-.693.725-1.156.199.463.413.843.725 1.156.313.312.693.526 1.156.725-.463.199-.843.413-1.156.725-.312.313-.526.693-.725 1.156-.199-.463-.413-.843-.725-1.156M10 5.25h-.056c-1.838 0-3.294 0-4.433.153-1.172.158-2.121.49-2.87 1.238-.748.749-1.08 1.698-1.238 2.87-.153 1.14-.153 2.595-.153 4.433v.112c0 1.838 0 3.294.153 4.433.158 1.172.49 2.121 1.238 2.87.749.748 1.698 1.08 2.87 1.238 1.14.153 2.595.153 4.433.153h4.112c1.838 0 3.294 0 4.433-.153 1.172-.158 2.121-.49 2.87-1.238.748-.749 1.08-1.698 1.238-2.87.153-1.14.153-2.595.153-4.433v-.07c0-1.159 0-2.16-.036-3.017a.75.75 0 0 0-1.498.062c.034.823.034 1.794.034 2.969 0 1.907-.002 3.262-.14 4.29-.135 1.005-.389 1.585-.812 2.008s-1.003.677-2.009.812c-1.027.138-2.382.14-4.289.14h-4c-1.907 0-3.261-.002-4.29-.14-1.005-.135-1.585-.389-2.008-.812s-.677-1.003-.812-2.009c-.138-1.027-.14-2.382-.14-4.289s.002-3.261.14-4.29c.135-1.005.389-1.585.812-2.008s1.003-.677 2.009-.812c1.028-.138 2.382-.14 4.289-.14a.75.75 0 0 0 0-1.5" clip-rule="evenodd"/></svg>