<svg xmlns="http://www.w3.org/2000/svg" width="24" height="24" fill="none"><path fill="#141B34" fill-rule="evenodd" d="M11.5 2.75c-3.717 0-6.75 3.065-6.75 6.87 0 2.314 1.056 4.074 2.777 5.25.21.144.413.283.558.397.15.116.313.26.437.454.117.183.179.371.221.547.04.162.071.355.106.562l.062.376c.07.418.112.662.164.836a.7.7 0 0 0 .053.136l.012.005c.027.012.083.035.152.043.18.023.429.024.852.024h2.612c.424 0 .672-.001.852-.024.082-.01.165-.047.165-.047s.029-.058.052-.137c.052-.174.094-.418.164-.837l.063-.375c.034-.208.066-.402.106-.564.043-.177.105-.366.223-.55.125-.194.288-.338.438-.454.146-.112.331-.238.54-.38l.02-.012c1.753-1.186 2.871-2.951 2.871-5.25a.75.75 0 0 1 1.5 0c0 2.861-1.422 5.066-3.532 6.493a11 11 0 0 0-.481.336 1 1 0 0 0-.095.08 1 1 0 0 0-.026.09 8 8 0 0 0-.089.48l-.065.392c-.06.366-.117.705-.2.98-.09.304-.235.616-.528.864a1.5 1.5 0 0 1-.484.276v.434c0 .433 0 .83-.043 1.152-.048.356-.16.731-.47 1.04s-.684.422-1.04.47c-.323.043-.72.043-1.152.043h-.09c-.433 0-.83 0-1.152-.043-.356-.048-.731-.16-1.04-.47s-.422-.684-.47-1.04c-.043-.323-.043-.72-.043-1.152v-.402a1.6 1.6 0 0 1-.584-.308c-.293-.248-.438-.56-.529-.865-.081-.274-.138-.613-.199-.979l-.065-.392a8 8 0 0 0-.088-.478 1 1 0 0 0-.026-.09 1 1 0 0 0-.096-.081 11 11 0 0 0-.483-.341c-2.102-1.437-3.43-3.646-3.43-6.488 0-4.612 3.682-8.371 8.25-8.371a8 8 0 0 1 1.652.168.75.75 0 1 1-.303 1.469A6.7 6.7 0 0 0 11.5 2.75m-1.25 17V20c0 .493.002.787.03.997a.7.7 0 0 0 .037.167l.01.005c.03.012.092.04.176.051.21.028.504.03.997.03s.787-.002.997-.03c.084-.011.146-.038.175-.051l.01-.005a.7.7 0 0 0 .038-.167c.028-.21.03-.504.03-.997v-.25zm6.25-18.5a.75.75 0 0 1 .703.49l.258.697c.362.978.478 1.244.668 1.434s.456.306 1.434.668l.697.258a.75.75 0 0 1 0 1.406l-.697.258c-.978.362-1.244.478-1.434.668s-.306.456-.668 1.434l-.258.697a.75.75 0 0 1-1.406 0l-.258-.697c-.362-.978-.478-1.244-.668-1.434s-.456-.306-1.434-.668l-.697-.258a.75.75 0 0 1 0-1.406l.697-.258c.978-.362 1.244-.478 1.434-.668s.306-.456.668-1.434l.258-.697a.75.75 0 0 1 .703-.49m0 2.833c-.155.329-.33.61-.568.849-.239.238-.52.413-.849.568.329.155.61.33.849.568.238.239.413.52.568.849.155-.329.33-.61.568-.849.239-.238.52-.413.849-.568a2.9 2.9 0 0 1-.849-.568 2.9 2.9 0 0 1-.568-.849" clip-rule="evenodd"/></svg>