<svg xmlns="http://www.w3.org/2000/svg" width="24" height="24" fill="none"><path fill="#141B34" fill-rule="evenodd" d="M18.5 1.25a.75.75 0 0 1 .703.49l.258.697c.362.978.478 1.244.668 1.434s.456.306 1.434.668l.697.258a.75.75 0 0 1 0 1.406l-.697.258c-.978.362-1.244.478-1.434.668s-.306.456-.668 1.434l-.258.697a.75.75 0 0 1-1.406 0l-.258-.697c-.362-.978-.478-1.244-.668-1.434s-.456-.306-1.434-.668l-.697-.258a.75.75 0 0 1 0-1.406l.697-.258c.978-.362 1.244-.478 1.434-.668s.306-.456.668-1.434l.258-.697a.75.75 0 0 1 .703-.49m0 2.833c-.155.329-.33.61-.568.849-.239.238-.52.413-.849.568.329.155.61.33.849.568.238.239.413.52.568.849.155-.329.33-.61.568-.849.239-.238.52-.413.849-.568a2.9 2.9 0 0 1-.849-.568 2.9 2.9 0 0 1-.568-.849M11.501 2.25h-.058c-2.19 0-3.912 0-5.255.18-1.377.186-2.469.573-3.327 1.43-.858.86-1.245 1.951-1.43 3.328-.181 1.343-.181 3.064-.181 5.255v.114c0 2.19 0 3.912.18 5.255.186 1.377.573 2.469 1.43 3.327.86.858 1.951 1.245 3.328 1.43 1.343.181 3.064.181 5.255.181h.114c2.19 0 3.912 0 5.255-.18 1.377-.186 2.469-.573 3.327-1.43.858-.86 1.245-1.951 1.43-3.328.181-1.343.181-3.064.181-5.255V12.5q0-.794-.002-1.503a.75.75 0 0 0-1.5.008q.002.7.002 1.496v.249c-1.492-.75-2.923-1.055-4.297-.99-1.718.08-3.275.734-4.69 1.683-2.418 1.621-4.548 4.201-6.468 6.528l-.402.487a2.8 2.8 0 0 1-.471-.379c-.533-.533-.842-1.256-1.005-2.466-.165-1.232-.167-2.852-.167-5.112s.002-3.88.167-5.112c.163-1.21.472-1.933 1.005-2.466s1.256-.842 2.466-1.005C7.62 3.752 9.24 3.75 11.5 3.75q.795 0 1.496.002a.75.75 0 1 0 .008-1.5q-.708-.002-1.503-.002M5.89 21.002q.235.045.499.08c1.232.166 2.852.168 5.112.168s3.88-.002 5.112-.167c1.21-.163 1.933-.471 2.466-1.005s.842-1.256 1.005-2.466c.113-.843.15-1.868.161-3.155-1.557-.93-2.952-1.26-4.22-1.2-1.37.064-2.666.586-3.926 1.43-2.22 1.489-4.19 3.874-6.128 6.218zM6.25 8a.75.75 0 1 1 1.5 0 .75.75 0 0 1-1.5 0M7 5.75a2.25 2.25 0 1 0 0 4.5 2.25 2.25 0 0 0 0-4.5" clip-rule="evenodd"/></svg>