<svg xmlns="http://www.w3.org/2000/svg" width="24" height="24" fill="none"><path fill="#141B34" fill-rule="evenodd" d="M14.882 3.786a114 114 0 0 0-5.764 0c-1.597.04-2.713.07-3.574.22-.827.144-1.343.388-1.768.814-.173.174-.315.36-.433.575l5.94 3.366c1.256.711 2.017.985 2.718.985.7 0 1.462-.274 2.717-.985l5.939-3.365a2.5 2.5 0 0 0-.433-.576c-.425-.426-.94-.67-1.768-.814-.861-.15-1.977-.18-3.574-.22M2.766 10.04c.029-1.366.052-2.367.155-3.16l5.623 3.186c1.293.733 2.344 1.18 3.457 1.18s2.163-.447 3.456-1.18L21.08 6.88c.103.792.126 1.794.155 3.16.021.974.021 1.944 0 2.919a.75.75 0 1 0 1.5.032c.021-.997.021-1.987 0-2.984l-.001-.058c-.032-1.483-.057-2.68-.225-3.645-.176-1.012-.518-1.837-1.222-2.544-.707-.71-1.543-1.053-2.573-1.232-.983-.172-2.21-.202-3.735-.24l-.058-.002c-1.953-.05-3.887-.05-5.84 0l-.058.001c-1.525.039-2.752.07-3.735.24-1.03.18-1.867.524-2.573 1.233-.704.707-1.046 1.532-1.222 2.544-.168.965-.193 2.162-.225 3.645l-.001.058a70 70 0 0 0 0 2.984l.001.058c.032 1.483.057 2.68.225 3.645.176 1.012.518 1.837 1.222 2.544.706.71 1.543 1.053 2.573 1.232.983.172 2.21.203 3.735.24l.058.002c1.313.033 2.618.044 3.927.033a.75.75 0 0 0-.014-1.5c-1.29.01-2.579 0-3.875-.032-1.597-.04-2.713-.07-3.574-.22-.827-.145-1.343-.388-1.768-.814-.427-.429-.667-.938-.806-1.742-.146-.84-.171-1.923-.204-3.478-.021-.975-.021-1.945 0-2.92m16.437 3.7a.75.75 0 0 0-1.406 0l-.258.697c-.362.978-.478 1.244-.668 1.434s-.456.306-1.434.668l-.697.258a.75.75 0 0 0 0 1.406l.697.258c.978.362 1.244.478 1.434.668s.306.456.668 1.434l.258.697a.75.75 0 0 0 1.406 0l.258-.697c.362-.978.478-1.244.668-1.434s.456-.306 1.434-.668l.697-.258a.75.75 0 0 0 0-1.406l-.697-.258c-.978-.362-1.244-.478-1.434-.668s-.306-.456-.668-1.434zm-1.271 3.192c.238-.239.413-.52.568-.849.155.329.33.61.568.849.239.238.52.413.849.568-.329.155-.61.33-.849.568-.238.239-.413.52-.568.849a2.9 2.9 0 0 0-.568-.849 2.9 2.9 0 0 0-.849-.568c.329-.155.61-.33.849-.568" clip-rule="evenodd"/></svg>