<svg xmlns="http://www.w3.org/2000/svg" width="24" height="24" fill="none"><path fill="#141B34" fill-rule="evenodd" d="M10.703 6.74a.75.75 0 0 0-1.406 0L8.78 8.134c-.7 1.892-.985 2.615-1.509 3.139s-1.246.808-3.138 1.508l-1.394.516a.75.75 0 0 0 0 1.406l1.394.516c1.892.7 2.615.985 3.138 1.508.524.524.809 1.247 1.509 3.14l.516 1.393a.75.75 0 0 0 1.406 0l.516-1.394c.7-1.892.985-2.615 1.508-3.139.524-.523 1.247-.808 3.14-1.508l1.393-.516a.75.75 0 0 0 0-1.406l-1.394-.516c-1.892-.7-2.615-.985-3.139-1.508-.523-.524-.808-1.247-1.508-3.14zm-2.37 5.593c.73-.73 1.12-1.698 1.667-3.172.547 1.474.937 2.443 1.667 3.172s1.698 1.12 3.172 1.667c-1.474.547-2.443.937-3.172 1.667s-1.12 1.698-1.667 3.172c-.547-1.474-.937-2.443-1.667-3.172S6.635 14.547 5.161 14c1.474-.547 2.443-.937 3.172-1.667m10.37-9.593a.75.75 0 0 0-1.406 0l-.221.597c-.314.848-.405 1.048-.548 1.191-.142.143-.343.234-1.19.548l-.598.22a.75.75 0 0 0 0 1.407l.597.221c.848.314 1.049.405 1.191.548s.234.343.548 1.19l.22.598a.75.75 0 0 0 1.407 0l.221-.597c.314-.848.406-1.048.548-1.191s.343-.234 1.19-.548l.598-.22a.75.75 0 0 0 0-1.407l-.597-.221c-.848-.314-1.049-.405-1.191-.548s-.234-.343-.548-1.19zM17.59 5.589c.166-.166.297-.355.411-.566.114.211.245.4.411.566s.355.297.566.411c-.211.114-.4.246-.566.411a2.4 2.4 0 0 0-.411.566c-.114-.211-.245-.4-.411-.566A2.4 2.4 0 0 0 17.023 6c.211-.114.4-.246.566-.411" clip-rule="evenodd"/></svg>