<svg xmlns="http://www.w3.org/2000/svg" width="24" height="24" fill="none"><path fill="#141B34" fill-rule="evenodd" d="M14.882 3.786a114 114 0 0 0-5.764 0c-1.597.04-2.713.07-3.574.22-.827.144-1.343.388-1.768.814-.427.429-.667.938-.806 1.742-.146.84-.171 1.923-.204 3.478-.021.975-.021 1.945 0 2.92.033 1.555.058 2.638.204 3.478.14.804.38 1.313.806 1.742.425.426.94.67 1.768.814.861.15 1.977.18 3.574.22q1.942.048 3.875.032a.75.75 0 1 1 .014 1.5c-1.309.011-2.613 0-3.927-.033l-.058-.001c-1.525-.038-2.752-.07-3.735-.24-1.03-.18-1.867-.524-2.573-1.233-.704-.707-1.046-1.532-1.222-2.544-.168-.965-.193-2.162-.225-3.645l-.001-.058a70 70 0 0 1 0-2.984l.001-.058c.032-1.483.057-2.68.225-3.645.176-1.012.518-1.837 1.222-2.544.706-.71 1.543-1.053 2.573-1.232.983-.172 2.21-.202 3.735-.24l.058-.002c1.953-.05 3.887-.05 5.84 0l.058.001c1.525.039 2.752.07 3.735.24 1.03.18 1.866.524 2.573 1.233.704.707 1.046 1.532 1.222 2.544.168.965.193 2.162.225 3.645l.001.058c.021.997.021 1.987 0 2.984a.75.75 0 0 1-1.5-.032c.021-.975.021-1.945 0-2.92-.033-1.555-.058-2.638-.204-3.478-.14-.804-.38-1.313-.806-1.742-.425-.426-.94-.67-1.768-.814-.861-.15-1.977-.18-3.574-.22M6.355 7.618a.75.75 0 0 1 1.027-.263l2.942 1.739c.844.5 1.293.656 1.676.656s.832-.157 1.676-.656l2.942-1.74a.75.75 0 1 1 .764 1.292l-2.942 1.74c-.871.514-1.622.864-2.44.864s-1.569-.35-2.44-.865l-2.942-1.74a.75.75 0 0 1-.263-1.027m12.848 6.122a.75.75 0 0 0-1.406 0l-.258.697c-.362.978-.478 1.244-.668 1.434s-.456.306-1.434.668l-.697.258a.75.75 0 0 0 0 1.406l.697.258c.978.362 1.244.478 1.434.668s.306.456.668 1.434l.258.697a.75.75 0 0 0 1.406 0l.258-.697c.362-.978.478-1.244.668-1.434s.456-.306 1.434-.668l.697-.258a.75.75 0 0 0 0-1.406l-.697-.258c-.978-.362-1.244-.478-1.434-.668s-.306-.456-.668-1.434zm-1.271 3.192c.238-.239.413-.52.568-.849.155.329.33.61.568.849.239.238.52.413.849.568-.329.155-.61.33-.849.568-.238.239-.413.52-.568.849a2.9 2.9 0 0 0-.568-.849 2.9 2.9 0 0 0-.849-.568c.329-.155.61-.33.849-.568" clip-rule="evenodd"/></svg>