<svg xmlns="http://www.w3.org/2000/svg" width="24" height="24" fill="none"><path fill="#141B34" fill-rule="evenodd" d="M18.5 1.25a.75.75 0 0 1 .703.49l.258.697c.362.978.478 1.244.668 1.434s.456.306 1.434.668l.697.258a.75.75 0 0 1 0 1.406l-.697.258c-.978.362-1.244.478-1.434.668s-.306.456-.668 1.434l-.258.697a.75.75 0 0 1-1.406 0l-.258-.697c-.362-.978-.478-1.244-.668-1.434s-.456-.306-1.434-.668l-.697-.258a.75.75 0 0 1 0-1.406l.697-.258c.978-.362 1.244-.478 1.434-.668s.306-.456.668-1.434l.258-.697a.75.75 0 0 1 .703-.49m0 2.833c-.155.329-.33.61-.568.849-.239.238-.52.413-.849.568.329.155.61.33.849.568.238.239.413.52.568.849.155-.329.33-.61.568-.849.239-.238.52-.413.849-.568a2.9 2.9 0 0 1-.849-.568 2.9 2.9 0 0 1-.568-.849M11.451 5.25h.049a.75.75 0 0 1 0 1.5c-2.257 0-3.886.001-5.128.142-1.23.14-1.966.406-2.498.853-.512.432-.803 1.004-.96 1.984-.162 1.017-.164 2.36-.164 4.271 0 1.91.002 3.254.165 4.27.156.98.447 1.553.96 1.985.53.447 1.266.714 2.497.853 1.242.14 2.87.142 5.128.142s3.886-.001 5.128-.142c1.23-.14 1.966-.406 2.498-.853.512-.432.803-1.004.96-1.984.162-1.017.164-2.36.164-4.271 0-1.176 0-2.144-.04-2.963a.75.75 0 1 1 1.498-.074c.042.86.042 1.864.042 3.021v.082c0 1.83 0 3.293-.183 4.441-.192 1.199-.597 2.155-1.475 2.895-.86.724-1.94 1.043-3.296 1.197-1.335.151-3.05.151-5.247.151h-.098c-2.198 0-3.912 0-5.247-.151-1.356-.154-2.436-.473-3.296-1.197-.878-.74-1.283-1.696-1.475-2.895-.183-1.148-.183-2.612-.183-4.442v-.13c0-1.83 0-3.294.183-4.442.192-1.199.597-2.155 1.475-2.895.86-.724 1.94-1.043 3.296-1.197 1.335-.151 3.05-.151 5.247-.151m3.56 7.318a.75.75 0 0 1 .979-1.136l1.226 1.057.032.027c.23.199.457.394.62.579.18.204.382.5.382.905s-.201.701-.382.905c-.163.185-.39.38-.62.579l-.032.027-1.226 1.057a.75.75 0 0 1-.98-1.136l1.227-1.057c.2-.172.332-.287.422-.375-.09-.088-.222-.203-.422-.375zM8.067 11.51a.75.75 0 0 1-.078 1.058l-1.227 1.057a11 11 0 0 0-.422.375c.09.088.222.203.422.375l1.227 1.057a.75.75 0 0 1-.98 1.136l-1.226-1.057-.032-.027c-.23-.199-.457-.394-.62-.579-.18-.203-.382-.5-.382-.905s.201-.701.382-.905c.163-.185.39-.38.62-.579l.032-.027 1.226-1.057a.75.75 0 0 1 1.058.078m5.144-.273a.75.75 0 0 0-1.423-.474l-2 6a.75.75 0 0 0 1.423.474z" clip-rule="evenodd"/></svg>