<svg xmlns="http://www.w3.org/2000/svg" width="24" height="24" fill="none"><path fill="#141B34" fill-rule="evenodd" d="M8.363 1.348a.75.75 0 0 1 1.017.272c1.175 2 4.067 2 5.241 0a.75.75 0 0 1 1.017-.272l3.464 1.967a.75.75 0 0 1 .277 1.032c-1.139 1.94.316 4.436 2.621 4.436a.75.75 0 0 1 .75.75v3.934a.75.75 0 0 1-.75.75q-.425.001-.802.106a.75.75 0 1 1-.396-1.447q.22-.06.448-.098v-2.556c-2.733-.453-4.483-3.34-3.495-5.947L15.49 2.989c-1.795 2.176-5.184 2.176-6.978 0L6.246 4.275c.988 2.608-.763 5.494-3.496 5.947v2.556c2.733.454 4.483 3.34 3.495 5.948l2.265 1.286A4.5 4.5 0 0 1 12 18.379a.75.75 0 0 1 0 1.5c-1.022 0-2.033.5-2.621 1.5a.75.75 0 0 1-1.017.273l-3.464-1.966a.75.75 0 0 1-.277-1.032c1.139-1.94-.316-4.437-2.621-4.437a.75.75 0 0 1-.75-.75V9.533a.75.75 0 0 1 .75-.75c2.306 0 3.761-2.497 2.623-4.436a.75.75 0 0 1 .276-1.032zM12 8.75a2.75 2.75 0 1 0 0 5.5 2.75 2.75 0 0 0 0-5.5M7.75 11.5a4.25 4.25 0 1 1 8.5 0 4.25 4.25 0 0 1-8.5 0m11.453 3.24a.75.75 0 0 0-1.406 0l-.258.697c-.362.978-.478 1.244-.668 1.434s-.456.306-1.434.668l-.697.258a.75.75 0 0 0 0 1.406l.697.258c.978.362 1.244.478 1.434.668s.306.456.668 1.434l.258.697a.75.75 0 0 0 1.406 0l.258-.697c.362-.978.478-1.244.668-1.434s.456-.306 1.434-.668l.697-.258a.75.75 0 0 0 0-1.406l-.697-.258c-.978-.362-1.244-.478-1.434-.668s-.306-.456-.668-1.434zm-1.271 3.192c.238-.239.413-.52.568-.849.155.329.33.61.568.849.239.238.52.413.849.568-.329.155-.61.33-.849.568-.238.239-.413.52-.568.849a2.9 2.9 0 0 0-.568-.849 2.9 2.9 0 0 0-.849-.568c.329-.155.61-.33.849-.568" clip-rule="evenodd"/></svg>