<svg xmlns="http://www.w3.org/2000/svg" width="24" height="24" fill="none"><path fill="#141B34" fill-rule="evenodd" d="M18.5 1.25a.75.75 0 0 1 .703.49l.258.697c.362.978.478 1.244.668 1.434s.456.306 1.434.668l.697.258a.75.75 0 0 1 0 1.406l-.697.258c-.978.362-1.244.478-1.434.668s-.306.456-.668 1.434l-.258.697a.75.75 0 0 1-1.406 0l-.258-.697c-.362-.978-.478-1.244-.668-1.434s-.456-.306-1.434-.668l-.697-.258a.75.75 0 0 1 0-1.406l.697-.258c.978-.362 1.244-.478 1.434-.668s.306-.456.668-1.434l.258-.697a.75.75 0 0 1 .703-.49m0 2.833c-.155.329-.33.61-.568.849-.239.238-.52.413-.849.568.329.155.61.33.849.568.238.239.413.52.568.849.155-.329.33-.61.568-.849.239-.238.52-.413.849-.568a2.9 2.9 0 0 1-.849-.568 2.9 2.9 0 0 1-.568-.849M11.443 2.25h.058q.794 0 1.503.002a.75.75 0 0 1-.008 1.5q-.7-.002-1.496-.002c-2.26 0-3.88.002-5.112.167-1.21.163-1.933.472-2.466 1.005S3.08 6.178 2.917 7.388C2.752 8.62 2.75 10.24 2.75 12.5s.002 3.88.167 5.112c.163 1.21.472 1.933 1.005 2.466s1.256.842 2.466 1.005c1.232.165 2.852.167 5.112.167s3.88-.002 5.112-.167c1.21-.163 1.933-.471 2.466-1.005s.842-1.256 1.005-2.466c.165-1.232.167-2.852.167-5.112q0-.795-.002-1.496a.75.75 0 0 1 1.5-.008q.003.708.002 1.503v.058c0 2.19 0 3.912-.18 5.255-.186 1.377-.573 2.469-1.43 3.327-.86.858-1.951 1.245-3.328 1.43-1.343.181-3.064.181-5.255.181h-.114c-2.19 0-3.912 0-5.255-.18-1.377-.186-2.469-.573-3.327-1.43-.858-.86-1.245-1.951-1.43-3.328-.181-1.343-.181-3.064-.181-5.255v-.114c0-2.19 0-3.912.18-5.255.186-1.377.573-2.469 1.43-3.327.86-.858 1.951-1.245 3.328-1.43 1.343-.181 3.064-.181 5.255-.181M9.738 10c0-.965.784-1.75 1.754-1.75.969 0 1.753.785 1.753 1.75 0 .966-.784 1.75-1.753 1.75-.97 0-1.754-.784-1.754-1.75m1.754-3.25A3.25 3.25 0 0 0 8.238 10a3.25 3.25 0 0 0 3.254 3.25A3.25 3.25 0 0 0 14.745 10a3.25 3.25 0 0 0-3.253-3.25m-3.95 11.268c2.05-2.148 5.86-2.23 7.906-.01a.75.75 0 0 0 1.104-1.016c-2.668-2.895-7.481-2.747-10.094-.01a.75.75 0 1 0 1.084 1.036" clip-rule="evenodd"/></svg>