<svg xmlns="http://www.w3.org/2000/svg" width="24" height="24" fill="none"><path fill="#141B34" fill-rule="evenodd" d="M19.203 1.74a.75.75 0 0 0-1.406 0l-.258.697c-.362.978-.478 1.244-.668 1.434s-.456.306-1.434.668l-.697.258a.75.75 0 0 0 0 1.406l.697.258c.978.362 1.244.478 1.434.668s.306.456.668 1.434l.258.697a.75.75 0 0 0 1.406 0l.258-.697c.362-.978.478-1.244.668-1.434s.456-.306 1.434-.668l.697-.258a.75.75 0 0 0 0-1.406l-.697-.258c-.978-.362-1.244-.478-1.434-.668s-.306-.456-.668-1.434zm-1.271 3.192c.238-.239.413-.52.568-.849.155.329.33.61.568.849.239.238.52.413.849.568-.329.155-.61.33-.849.568-.238.239-.413.52-.568.849a2.9 2.9 0 0 0-.568-.849 2.9 2.9 0 0 0-.849-.568c.329-.155.61-.33.849-.568m-6.49-2.682h.06q.794 0 1.502.002a.75.75 0 0 1-.008 1.5q-.7-.002-1.496-.002c-2.26 0-3.88.002-5.112.167-1.21.163-1.933.472-2.466 1.005S3.08 6.178 2.917 7.388C2.752 8.62 2.75 10.24 2.75 12.5s.002 3.88.167 5.112c.163 1.21.472 1.933 1.005 2.466s1.256.842 2.466 1.005c1.232.165 2.852.167 5.112.167s3.88-.002 5.112-.167c1.21-.163 1.933-.471 2.466-1.005s.842-1.256 1.005-2.466c.165-1.232.167-2.852.167-5.112q0-.795-.002-1.496a.75.75 0 0 1 1.5-.008q.003.708.002 1.503v.058c0 2.19 0 3.912-.18 5.255-.186 1.377-.573 2.469-1.43 3.327-.86.858-1.951 1.245-3.328 1.43-1.343.181-3.064.181-5.255.181h-.114c-2.19 0-3.912 0-5.255-.18-1.377-.186-2.469-.573-3.327-1.43-.858-.86-1.245-1.951-1.43-3.328-.181-1.343-.181-3.064-.181-5.255v-.114c0-2.19 0-3.912.18-5.255.186-1.377.573-2.469 1.43-3.327.86-.858 1.951-1.245 3.328-1.43 1.343-.181 3.064-.181 5.255-.181m1.065 7.236.082.051c.681.422 1.25.773 1.662 1.1.424.338.797.737.931 1.292.09.375.09.768 0 1.142-.134.556-.508.954-.931 1.291-.412.328-.98.68-1.662 1.101l-.082.05c-.657.407-1.208.748-1.665.96-.463.214-.992.376-1.543.206a2.1 2.1 0 0 1-.944-.604c-.372-.409-.494-.942-.55-1.476-.055-.532-.055-1.22-.055-2.056v-.086c0-.837 0-1.524.055-2.056.056-.533.178-1.067.55-1.476.256-.28.58-.492.944-.604.551-.17 1.08-.008 1.543.207.457.211 1.008.552 1.665.958m-2.766.268a.6.6 0 0 0-.277.18c-.037.043-.12.17-.167.623C9.251 11 9.25 11.61 9.25 12.5s.001 1.499.047 1.944c.047.452.13.58.167.621.084.092.18.151.277.18.009.004.107.035.47-.133.366-.17.84-.46 1.548-.9.733-.453 1.224-.758 1.558-1.024.33-.262.39-.398.407-.47a.94.94 0 0 0 0-.437c-.017-.07-.077-.207-.407-.47-.334-.265-.825-.57-1.558-1.023-.709-.439-1.182-.73-1.547-.9-.364-.168-.462-.136-.47-.134" clip-rule="evenodd"/></svg>