<svg xmlns="http://www.w3.org/2000/svg" width="24" height="24" fill="none"><path fill="#141B34" fill-rule="evenodd" d="M2.75 6.129c0-.798.295-1.369.75-1.75.468-.394 1.17-.638 2.048-.629.952.01 2.025.388 2.85 1.064.816.667 1.352 1.588 1.352 2.693v11.91c0 .284 0 .453-.01.579a.6.6 0 0 1-.017.118.16.16 0 0 1-.046.06.3.3 0 0 1-.098.04c-.143.036-.316.036-.612.036h-.101c-.296 0-.469 0-.611-.036a.3.3 0 0 1-.099-.04.2.2 0 0 1-.045-.06.6.6 0 0 1-.017-.118 8 8 0 0 1-.01-.58v-8.311q0-.103-.003-.204a.8.8 0 0 0-.004-.155c-.023-.598-.113-1.27-.368-1.824C7.426 8.31 6.884 7.75 6 7.75a.75.75 0 0 0 0 1.5c.116 0 .222.03.347.3.09.198.155.463.194.775a3.7 3.7 0 0 1-1.72.053c-.679-.142-1.192-.427-1.531-.801-.332-.366-.54-.862-.54-1.521zm3.849 13.986a1.658 1.658 0 0 0 1.29 1.555c.337.083.702.082.948.08h.16c.246.002.61.003.947-.08a1.66 1.66 0 0 0 1.29-1.555c.016-.193.016-.423.016-.673V7.507c0-1.639-.809-2.96-1.902-3.854-1.082-.886-2.482-1.39-3.785-1.403-1.151-.011-2.227.306-3.029.98-.816.686-1.284 1.689-1.284 2.899v1.927c0 1.002.327 1.866.93 2.53.594.655 1.415 1.067 2.333 1.26a5.2 5.2 0 0 0 2.07.008v7.588c0 .25 0 .48.016.673M22.75 6.129c0-1.223-.5-2.223-1.321-2.902-.807-.667-1.878-.988-2.992-.977-1.303.013-2.703.517-3.785 1.403-1.093.894-1.902 2.215-1.902 3.854v11.935c0 .25 0 .48.015.673.017.207.054.434.165.659.263.531.697.787 1.126.895.336.084.701.083.948.081h.159c.246.002.611.003.948-.08a1.66 1.66 0 0 0 1.29-1.555c.016-.193.016-.422.016-.673v-7.587a5.2 5.2 0 0 0 2.07-.009c.919-.193 1.739-.605 2.334-1.26.602-.664.929-1.528.929-2.53zm-3.57 4.249c-.568.12-1.16.097-1.72-.053.038-.311.103-.577.194-.774.124-.27.23-.301.346-.301a.75.75 0 0 0 0-1.5c-.884 0-1.426.56-1.709 1.172-.255.554-.345 1.226-.368 1.824a.8.8 0 0 0-.004.155l-.002.204v8.312c0 .284 0 .453-.01.579a.6.6 0 0 1-.018.118.16.16 0 0 1-.045.06.3.3 0 0 1-.098.04c-.143.036-.316.036-.612.036h-.101c-.296 0-.469 0-.612-.036a.3.3 0 0 1-.098-.04.16.16 0 0 1-.046-.06.6.6 0 0 1-.016-.118 8 8 0 0 1-.011-.58V7.507c0-1.104.536-2.025 1.352-2.692.825-.676 1.898-1.054 2.85-1.064.829-.008 1.536.232 2.021.633.47.39.777.963.777 1.746v1.927c0 .66-.208 1.155-.54 1.521-.34.374-.852.659-1.53.801" clip-rule="evenodd"/></svg>