<svg xmlns="http://www.w3.org/2000/svg" width="25" height="24" fill="none"><path fill="#141B34" fill-rule="evenodd" d="M10.556 1.25h-.112c-1.838 0-3.294 0-4.433.153-1.172.158-2.121.49-2.87 1.238-.748.749-1.08 1.698-1.238 2.87-.153 1.14-.153 2.595-.153 4.433v.112c0 1.838 0 3.294.153 4.433.158 1.172.49 2.121 1.238 2.87.707.706 1.592 1.042 2.676 1.21.164 1.132.5 2.052 1.23 2.782.752.752 1.706 1.086 2.885 1.245 1.146.154 2.611.154 4.46.154h.114c1.85 0 3.314 0 4.46-.154 1.18-.159 2.133-.493 2.886-1.245.752-.752 1.086-1.706 1.244-2.885.154-1.146.154-2.61.154-4.46v-.114c0-1.85 0-3.314-.154-4.46-.158-1.18-.492-2.133-1.244-2.885-.73-.73-1.651-1.067-2.783-1.23-.168-1.084-.504-1.97-1.21-2.676-.749-.748-1.698-1.08-2.87-1.238-1.14-.153-2.595-.153-4.433-.153m8.654 5.611c.04.882.04 1.904.04 3.083v.112c0 1.838 0 3.294-.153 4.433-.158 1.172-.49 2.121-1.238 2.87-.749.748-1.698 1.08-2.87 1.238-1.14.153-2.595.153-4.433.153h-.112c-1.18 0-2.2 0-3.083-.04.148.748.386 1.22.747 1.58.426.428 1.011.683 2.024.82 1.035.139 2.398.14 4.317.14s3.283-.002 4.317-.14c1.013-.137 1.598-.392 2.025-.82.427-.426.682-1.01.819-2.024.139-1.034.14-2.398.14-4.317s-.001-3.283-.14-4.317c-.137-1.013-.392-1.598-.82-2.025-.36-.36-.832-.598-1.58-.746M4.202 3.701c.423-.422 1.003-.676 2.009-.811 1.028-.138 2.382-.14 4.289-.14s3.262.002 4.29.14c1.005.135 1.585.389 2.008.812s.677 1.003.812 2.009c.138 1.028.14 2.382.14 4.289s-.002 3.262-.14 4.29c-.135 1.005-.389 1.585-.812 2.008a2.4 2.4 0 0 1-.91.562c-.743-1.752-2.063-3.29-3.802-4.443-2.194-1.455-4.93-2.215-7.72-2.165q-.559 0-1.116.039V10c0-1.907.002-3.261.14-4.29.135-1.005.389-1.585.812-2.008m7.055 9.967c1.42.94 2.483 2.15 3.12 3.489-.973.092-2.215.093-3.877.093-1.907 0-3.261-.002-4.29-.14-1.005-.135-1.585-.389-2.008-.812s-.677-1.003-.812-2.009c-.09-.671-.122-1.482-.134-2.494q.555-.044 1.115-.043h.015c2.512-.046 4.947.64 6.871 1.915M13.5 6a1 1 0 1 0 0 2h.009a1 1 0 1 0 0-2z" clip-rule="evenodd"/></svg>