<svg xmlns="http://www.w3.org/2000/svg" width="25" height="24" fill="none"><path fill="#141B34" fill-rule="evenodd" d="M10.444 1.25h.112c1.838 0 3.294 0 4.433.153 1.172.158 2.121.49 2.87 1.238.706.707 1.042 1.592 1.21 2.675 1.132.164 2.052.5 2.783 1.23.752.753 1.086 1.707 1.244 2.886.154 1.146.154 2.61.154 4.46v.113c0 1.85 0 3.315-.154 4.461-.158 1.18-.492 2.133-1.244 2.885-.753.752-1.706 1.086-2.886 1.245-1.146.154-2.61.154-4.46.154h-.113c-1.85 0-3.315 0-4.46-.154-1.18-.159-2.134-.493-2.886-1.245-.73-.73-1.066-1.65-1.23-2.782-1.084-.168-1.97-.504-2.676-1.21-.748-.749-1.08-1.698-1.238-2.87-.153-1.14-.153-2.595-.153-4.433v-.112c0-1.838 0-3.294.153-4.433.158-1.172.49-2.121 1.238-2.87.749-.748 1.698-1.08 2.87-1.238 1.14-.153 2.595-.153 4.433-.153m8.806 8.694c0-1.18 0-2.201-.04-3.083.748.148 1.22.386 1.58.746.428.427.683 1.012.82 2.025.139 1.034.14 2.398.14 4.317s-.001 3.283-.14 4.317c-.137 1.013-.392 1.598-.82 2.025-.426.427-1.01.682-2.024.818-1.034.14-2.398.141-4.317.141s-3.282-.002-4.317-.14c-1.013-.137-1.598-.392-2.024-.82-.36-.36-.599-.832-.747-1.58.882.04 1.904.04 3.083.04h.112c1.838 0 3.294 0 4.433-.153 1.172-.158 2.121-.49 2.87-1.238.748-.749 1.08-1.698 1.238-2.87.153-1.14.153-2.595.153-4.433zM6.21 2.89c-1.005.135-1.585.389-2.008.812S3.525 4.705 3.39 5.71C3.252 6.739 3.25 8.093 3.25 10s.002 3.262.14 4.29c.135 1.005.389 1.585.812 2.008.282.283.635.49 1.137.636l.215-.303c1.504-2.118 3.194-4.499 5.127-5.948 1.135-.851 2.415-1.433 3.848-1.433 1.051 0 2.123.311 3.221.97V10c0-1.907-.002-3.261-.14-4.29-.135-1.005-.389-1.585-.812-2.008s-1.003-.677-2.009-.812c-1.027-.138-2.382-.14-4.289-.14s-3.261.002-4.29.14m11.53 9.138c-1.218-.933-2.28-1.278-3.21-1.278-1.008 0-1.978.405-2.949 1.133-1.65 1.237-3.124 3.26-4.58 5.304.911.062 2.045.063 3.499.063 1.907 0 3.262-.002 4.29-.14 1.005-.135 1.585-.389 2.008-.812s.677-1.003.812-2.009c.083-.619.117-1.356.13-2.26" clip-rule="evenodd"/></svg>