<svg xmlns="http://www.w3.org/2000/svg" width="24" height="24" fill="none"><path fill="#141B34" fill-rule="evenodd" d="M3.375 1.263a.75.75 0 0 1 .874.6c.064.345.269.918.663 1.417.383.485.922.878 1.682.97a7.6 7.6 0 0 1 1.918-1.233c1.017-.528 3.675-1.37 6.542-.202.936.382 1.71.89 2.34 1.437l.014-.001c.762-.092 1.303-.485 1.686-.97.395-.5.6-1.073.663-1.418a.75.75 0 1 1 1.475.274 5 5 0 0 1-.96 2.072c-.41.52-.972 1.001-1.709 1.289.559.732.896 1.425 1.05 1.89.108.275.283.753.42 1.303.075.307.144.652.18 1.009.273.006.573.037.867.116.341.091.711.255 1.021.552.32.305.535.713.611 1.216.119.77-.056 1.573-.719 2.115-.451.368-1.045.544-1.73.566v5.69c0 .3-.023.855-.276 1.34a1.64 1.64 0 0 1-.667.696c-.323.177-.695.233-1.089.19-.924-.101-1.472-.483-1.878-.766l-.006-.004c-.384-.268-.57-.386-.923-.386-.062 0-.182.026-.396.15a8 8 0 0 0-.68.479l-.051.038-.02.015c-.52.39-1.274.958-2.183 1.033-.486.04-.931-.116-1.29-.298a7 7 0 0 1-1.001-.65l-.21-.156c-.221-.166-.41-.308-.595-.426a2 2 0 0 0-.282-.156 1 1 0 0 0-.084-.03l-.029-.006c-.101-.007-.247.022-.48.138-.176.087-.341.19-.54.314l-.26.16c-.558.338-1.466.853-2.493.398-.542-.24-.8-.699-.92-1.093-.115-.376-.131-.775-.14-1.036v-5.638a3.4 3.4 0 0 1-1.217-.264 2.2 2.2 0 0 1-.935-.757c-.25-.366-.375-.807-.368-1.302.007-.482.13-.913.381-1.269.25-.354.585-.58.929-.723.392-.162.826-.227 1.236-.244.092-.943.403-2.056.972-3.124.195-.365.42-.727.68-1.078a4.06 4.06 0 0 1-1.714-1.29 5 5 0 0 1-.96-2.073.75.75 0 0 1 .6-.874m8.628 6.48a2.246 2.246 0 1 0 2.247 2.244 2.246 2.246 0 0 0-2.247-2.245M8.256 9.986a3.746 3.746 0 0 1 3.747-3.745 3.746 3.746 0 1 1-3.747 3.745m2.737 6.99a1 1 0 0 1 1-1h.01a1 1 0 0 1 0 2h-.01a1 1 0 0 1-1-1M9.19 4.354c.747-.393 2.947-1.11 5.299-.15 2.373.966 3.463 2.92 3.707 3.67l.015.042c.094.24.248.66.367 1.136.12.486.19.975.151 1.368a.75.75 0 0 0 .848.816c.3-.04.75-.07 1.117.028a.84.84 0 0 1 .371.186c.067.065.136.166.166.36.062.408-.047.613-.186.726-.174.142-.588.303-1.438.197a.75.75 0 0 0-.842.745v6.476c0 .117-.006.245-.026.367a1 1 0 0 1-.081.281c-.03.056-.05.069-.056.072s-.057.03-.207.014c-.533-.058-.821-.252-1.19-.509l-.027-.02c-.389-.27-.911-.635-1.752-.635-.45 0-.843.175-1.152.355a9 9 0 0 0-.81.562l-.067.05c-.586.44-1.008.719-1.426.753-.092.008-.245-.018-.486-.14a6 6 0 0 1-.787-.517l-.175-.13c-.229-.172-.48-.36-.716-.512-.286-.182-.674-.396-1.102-.425-.483-.032-.91.124-1.246.29a9 9 0 0 0-.723.419q-.101.064-.19.117c-.59.359-.858.42-1.107.31l-.001-.001c-.01-.004-.05-.02-.092-.16-.05-.161-.066-.37-.075-.634v-6.395a.75.75 0 0 0-.871-.74c-.442.072-.917.041-1.24-.102a.7.7 0 0 1-.304-.232c-.055-.08-.108-.21-.105-.433.004-.235.06-.36.108-.428a.6.6 0 0 1 .275-.2c.317-.13.793-.157 1.335-.12a.75.75 0 0 0 .8-.78c-.031-.773.198-1.972.824-3.149.62-1.165 1.606-2.262 3.052-2.906z" clip-rule="evenodd"/></svg>