<svg xmlns="http://www.w3.org/2000/svg" width="25" height="24" fill="none"><path fill="#141B34" fill-rule="evenodd" d="M17.367 3.254a.75.75 0 0 1 .83.666c.21 1.951-.049 6.21-1.265 9.6q-.08.24-.163.47.057.345.12.696c.26 1.448.593 2.801 1.099 3.644.676 1.05 1.646.969 1.926.863a.6.6 0 0 0 .233-.206c.07-.108.166-.329.166-.767a.751.751 0 0 1 1.505 0c0 .662-.148 1.181-.408 1.582a2.1 2.1 0 0 1-.845.744l-.02.01-.02.008c-.797.341-2.65.382-3.811-1.436l-.006-.008-.005-.008c-.45-.746-.764-1.722-1-2.719-1.33 2.439-2.962 3.726-4.472 4.131-3.745 1.004-6.778-1.572-8.017-4.233-1.593-3.42-1.167-7.396 1.064-10.275 1.126-1.452 2.783-2.535 4.613-2.733 1.869-.203 3.803.532 5.386 2.497l.023.028.02.03c1.084 1.649 1.595 3.397 1.854 4.84.564-2.594.67-5.263.526-6.597a.75.75 0 0 1 .667-.827m-2.146 10.587-.155-.965c-.104-.635-.196-1.145-.296-1.498l-.012-.043-.007-.045c-.215-1.38-.661-3.053-1.67-4.598-1.29-1.587-2.73-2.059-4.028-1.918-1.345.145-2.656.962-3.584 2.16-1.877 2.42-2.254 5.796-.89 8.725 1.065 2.289 3.493 4.16 6.261 3.417 1.245-.334 3.04-1.726 4.38-5.235" clip-rule="evenodd"/></svg>