<svg xmlns="http://www.w3.org/2000/svg" width="24" height="24" fill="none"><path fill="#141B34" fill-rule="evenodd" d="M11.343 2.335a.75.75 0 0 0-.694 1.33c.16.083.497.363.843.838.164.224.318.476.448.747H7.034c-1.158-.074-1.97.312-2.415 1.025-.398.638-.393 1.377-.35 1.801a.75.75 0 1 0 1.493-.152c-.032-.316-.002-.645.13-.856.081-.13.294-.374 1.065-.32l.052.002H17.45c.2.015.432.092.582.233.117.11.279.341.195.908a.75.75 0 0 0 1.484.219c.144-.974-.123-1.724-.651-2.22-.49-.46-1.11-.614-1.542-.639h-3.96a6.2 6.2 0 0 0-.854-1.633c-.42-.575-.92-1.053-1.361-1.283m2.986 7.4H8.5a.75.75 0 0 1 0-1.5h6.275c.195 0 .424 0 .61.03.204.033.638.15.809.627.112.313.032.602-.025.758a2.4 2.4 0 0 1-.258.487 7.6 7.6 0 0 1-.717.882c-.262.284-.537.56-.76.78l-.11.11a9 9 0 0 0-.324.328c-.523.604-.651.77-.722.967l-.015.046h4.76a.75.75 0 1 1 0 1.5h-4.83v3.322c0 .97-.277 1.883-.847 2.568-.582.7-1.429 1.11-2.438 1.11a.75.75 0 0 1 0-1.5c.574 0 .994-.22 1.285-.57.301-.362.5-.913.5-1.608V14.75h-4.67a.75.75 0 0 1 0-1.5h4.714q.036-.288.129-.552c.177-.493.51-.877.93-1.363l.07-.08c.084-.096.246-.257.415-.424l.097-.096c.22-.218.475-.474.712-.732q.128-.14.24-.269" clip-rule="evenodd"/></svg>