<svg xmlns="http://www.w3.org/2000/svg" width="24" height="24" fill="none"><path fill="#141B34" fill-rule="evenodd" d="M22.246 4.709a.75.75 0 1 0-.491-1.417c-2.284.79-4.104.404-5.547-.012a.75.75 0 1 0-.416 1.44c.697.202 1.52.41 2.458.492v4.693c-.212.789-.519 1.307-.846 1.647a2.2 2.2 0 0 1-1.15.634c-.828.176-1.792-.05-2.583-.404a4.6 4.6 0 0 0-1.121-.814 6 6 0 0 0-.663-.298c.808-.542 1.441-1.253 1.803-2.058.35-.78.445-1.654.168-2.513-.277-.858-.9-1.625-1.85-2.243-1.154-.75-2.604-.707-3.822-.39-1.228.32-2.401.962-3.11 1.654a.75.75 0 1 0 1.048 1.073c.49-.48 1.418-1.009 2.44-1.275 1.032-.269 1.981-.224 2.627.196.724.471 1.09.982 1.24 1.445.148.462.109.953-.11 1.438-.446.994-1.642 1.931-3.241 2.191a.75.75 0 0 0 .12 1.49c.718 0 1.789.163 2.65.617.832.438 1.4 1.099 1.4 2.148 0 3.706-4.134 5.864-7.318 4.293-1.637-.807-2.403-1.83-2.783-2.81-.393-1.013-.399-2.039-.399-2.926a.75.75 0 0 0-1.5 0v.031c0 .87 0 2.146.5 3.438.52 1.341 1.555 2.645 3.518 3.613 4.016 1.98 9.482-.643 9.482-5.639q-.001-.417-.074-.785c.607.109 1.255.13 1.89-.005a3.7 3.7 0 0 0 1.684-.837V20a.75.75 0 0 0 1.5 0V5.227a9.7 9.7 0 0 0 2.496-.518" clip-rule="evenodd"/></svg>