<svg xmlns="http://www.w3.org/2000/svg" width="24" height="24" fill="none"><path fill="#141B34" fill-rule="evenodd" d="M17.76 8.74c-.001.098-.007.238-.01.293v3.475c0 .37.16.719.363 1.005a2.7 2.7 0 0 0 .369.42.75.75 0 0 1-.014 1.16l-2.5 2a.75.75 0 0 1-1.092-.17l-.483-.723c-.149.132-.32.273-.514.414-.77.56-1.922 1.144-3.379 1.144-1.74 0-2.957-.739-3.72-1.73a5.1 5.1 0 0 1-1.03-3.02c0-.912.306-2.263 1.566-3.375 1.157-1.02 3.026-1.759 5.958-1.863-.02-.488-.118-.946-.288-1.302-.232-.484-.55-.71-.986-.71-.705 0-1.127.336-1.4.7a2.5 2.5 0 0 0-.372.732l-.002.005a.75.75 0 0 1-1.005.51l-2.5-1a.75.75 0 0 1-.46-.825l.002-.01c.01-.046.032-.148.046-.202.03-.119.08-.282.153-.474.146-.383.393-.893.802-1.405C8.104 2.74 9.567 1.758 12 1.758c1.535 0 2.71.458 3.584 1.19.861.723 1.377 1.668 1.687 2.564s.428 1.781.47 2.432c.02.328.023.602.02.797M7.928 5.572l1.166.466c.082-.151.184-.315.307-.48.477-.636 1.305-1.3 2.6-1.3 1.163 0 1.93.708 2.339 1.564.396.828.5 1.85.407 2.763a.75.75 0 0 1-.746.674c-3.146 0-4.815.727-5.691 1.5-.865.763-1.059 1.662-1.059 2.25 0 .608.209 1.441.72 2.105.487.633 1.27 1.145 2.53 1.145 1.043 0 1.892-.417 2.496-.857.301-.219.534-.437.69-.6.076-.08.178-.201.215-.244a.75.75 0 0 1 1.223.035l.546.82 1.244-.996-.027-.038c-.298-.423-.637-1.073-.637-1.87v-3.5a8.441 8.441 0 0 0-.006-.968 8 8 0 0 0-.39-2.037c-.252-.729-.643-1.409-1.234-1.905-.58-.486-1.405-.84-2.62-.84-1.967 0-3.004.767-3.564 1.468-.238.298-.4.597-.509.845m3.274 8.042c-.218 0-.322-.087-.379-.182-.068-.115-.11-.32-.023-.578.132-.392.621-.989 1.855-1.18a4 4 0 0 1-.434 1.124c-.348.595-.723.816-1.019.816m2.299-3.5c-2.272 0-3.692.981-4.123 2.261-.207.616-.166 1.286.159 1.828.336.561.936.911 1.665.911 1.084 0 1.858-.778 2.314-1.558.47-.803.735-1.81.735-2.692a.75.75 0 0 0-.75-.75M1.414 17.04a.75.75 0 0 1 1.02-.142l.004.002.014.01.065.044q.088.061.266.173c.236.15.587.362 1.036.605a21.4 21.4 0 0 0 3.72 1.583c3.082.974 7.12 1.434 11.138-.483a.75.75 0 0 1 .735 1.303v.001l-.003.002-.008.004-.024.016-.084.052a9 9 0 0 1-.31.18 14 14 0 0 1-1.143.563 15.7 15.7 0 0 1-4.047 1.15c-3.375.478-7.856-.065-12.293-4.035a.75.75 0 0 1-.086-1.028m20.165-.676c-1.138-.24-2.14-.03-2.846.228a5.6 5.6 0 0 0-1.076.532l-.068.046-.021.015-.007.005-.003.002-.001.001-.001.001a.75.75 0 0 0 .721 1.301l.007-.003.046-.016q.064-.023.193-.062c.17-.05.415-.113.703-.157.452-.07.972-.09 1.473.017a4.8 4.8 0 0 1-.298 1.471 6 6 0 0 1-.371.824l-.015.025q-.005.01-.009.015l-.004.007v.001a.75.75 0 0 0 1.23.855l.002-.003.004-.006.016-.02a7 7 0 0 0 .236-.327c.148-.215.345-.519.539-.872.363-.664.806-1.666.707-2.61a1.46 1.46 0 0 0-1.157-1.27" clip-rule="evenodd"/></svg>