<svg xmlns="http://www.w3.org/2000/svg" width="24" height="24" fill="none"><path fill="#141B34" fill-rule="evenodd" d="M2.25 8.5A6.25 6.25 0 0 1 12 3.321 6.25 6.25 0 0 1 20.679 12 6.25 6.25 0 0 1 12 20.679 6.25 6.25 0 0 1 3.321 12 6.22 6.22 0 0 1 2.25 8.5M8.5 3.75a4.75 4.75 0 0 0-3.665 7.772.75.75 0 0 1 0 .956 4.75 4.75 0 0 0 6.687 6.687.75.75 0 0 1 .956 0 4.75 4.75 0 0 0 6.687-6.687.75.75 0 0 1 0-.956 4.75 4.75 0 0 0-6.687-6.687.75.75 0 0 1-.956 0A4.73 4.73 0 0 0 8.5 3.75M9.75 9.5a2.25 2.25 0 0 1 4.5 0v5a2.25 2.25 0 0 1-4.5 0zM12 8.75a.75.75 0 0 0-.75.75v5a.75.75 0 0 0 1.5 0v-5a.75.75 0 0 0-.75-.75" clip-rule="evenodd"/></svg>