<svg xmlns="http://www.w3.org/2000/svg" width="25" height="24" fill="none"><path fill="#141B34" fill-rule="evenodd" d="M12.557 1.75h-.114c-2.19 0-3.912 0-5.255.18-1.377.186-2.469.573-3.327 1.43-.858.86-1.245 1.951-1.43 3.328-.181 1.343-.181 3.064-.181 5.255v.114c0 2.19 0 3.912.18 5.255.186 1.377.573 2.469 1.43 3.327.86.858 1.951 1.245 3.328 1.43 1.343.181 3.064.181 5.255.181h.114c2.19 0 3.912 0 5.255-.18 1.377-.186 2.469-.573 3.327-1.43.858-.86 1.245-1.951 1.43-3.328.181-1.343.181-3.064.181-5.255v-.114c0-2.19 0-3.912-.18-5.255-.186-1.377-.573-2.469-1.43-3.327-.86-.858-1.951-1.245-3.328-1.43-1.343-.181-3.064-.181-5.255-.181M4.922 4.422c.533-.533 1.256-.842 2.466-1.005C8.62 3.252 10.24 3.25 12.5 3.25s3.88.002 5.112.167c1.21.163 1.933.472 2.466 1.005s.842 1.256 1.005 2.466c.165 1.232.167 2.852.167 5.112s-.002 3.88-.167 5.112c-.163 1.21-.471 1.933-1.005 2.466s-1.256.842-2.466 1.005c-1.232.165-2.852.167-5.112.167s-3.88-.002-5.112-.167c-1.21-.163-1.933-.471-2.466-1.005s-.842-1.256-1.005-2.466C3.752 15.88 3.75 14.26 3.75 12s.002-3.88.167-5.112c.163-1.21.472-1.933 1.005-2.466m1.054 2.042a.75.75 0 0 1 1.06.012c2.75 2.81 6.138 3.677 9.51 3.007l-.688-.338a.75.75 0 0 1 .66-1.347l2.074 1.017c.311.153.545.429.627.773.082.343-.002.692-.204.967l-1.383 1.888a.75.75 0 1 1-1.21-.886l.446-.609c-3.847.772-7.768-.217-10.904-3.424a.75.75 0 0 1 .012-1.06M8.25 13a.75.75 0 0 0-1.5 0v5a.75.75 0 0 0 1.5 0zm4.25 1.25a.75.75 0 0 1 .75.75v3a.75.75 0 0 1-1.5 0v-3a.75.75 0 0 1 .75-.75m5 1a.75.75 0 0 1 .75.75v2a.75.75 0 0 1-1.5 0v-2a.75.75 0 0 1 .75-.75" clip-rule="evenodd"/></svg>