<svg xmlns="http://www.w3.org/2000/svg" width="25" height="24" fill="none"><path fill="#141B34" fill-rule="evenodd" d="M4.25 3a.75.75 0 0 0-1.5 0v11.056c0 1.602 0 2.881.135 3.884.14 1.037.435 1.89 1.11 2.565s1.528.97 2.565 1.11c1.003.135 2.282.135 3.884.135H21.5a.75.75 0 0 0 0-1.5h-11c-1.671 0-2.849-.002-3.74-.122a6 6 0 0 1-.442-.074c.201-.402.412-.879.628-1.37l.13-.293c.33-.744.685-1.527 1.089-2.244.406-.722.836-1.334 1.297-1.76.455-.42.894-.618 1.344-.618.604 0 1 .355 1.633 1.001l.062.064c.558.572 1.355 1.388 2.613 1.388 1.064 0 1.833-.466 2.412-1.1.508-.556.894-1.273 1.23-1.898l.072-.132c.771-1.426 1.366-2.342 2.672-2.342a.75.75 0 0 0 0-1.5c-2.3 0-3.278 1.81-3.985 3.117l-.006.012-.04.073c-.368.681-.672 1.244-1.051 1.659-.358.392-.747.61-1.304.61-.58 0-.964-.347-1.604-1l-.047-.049c-.566-.579-1.372-1.403-2.657-1.403-.941 0-1.727.43-2.361 1.016-.628.579-1.149 1.346-1.588 2.127-.441.785-.823 1.626-1.153 2.372l-.133.3c-.22.498-.411.932-.587 1.285-.308-.344-.504-.82-.613-1.628-.12-.892-.121-2.07-.121-3.741zM8.5 4.75a.75.75 0 0 0 0-1.5h-1a.75.75 0 0 0 0 1.5zM12.25 7a.75.75 0 0 1-.75.75h-4a.75.75 0 0 1 0-1.5h4a.75.75 0 0 1 .75.75" clip-rule="evenodd"/></svg>