<svg xmlns="http://www.w3.org/2000/svg" width="24" height="24" fill="none"><path fill="#141B34" fill-rule="evenodd" d="M18.448 4.537a.75.75 0 1 0-1.047-1.074L4.455 16.093c-.707.689-1.296 1.264-1.668 1.747-.36.466-.731 1.117-.426 1.836.301.709 1.019.909 1.607.99.611.084 1.443.084 2.444.084H21a.75.75 0 0 0 0-1.5h-9.28c-.187-2.267-1.206-4.277-2.736-5.48zM7.898 14.83l-2.35 2.293c-.764.744-1.274 1.245-1.573 1.633-.13.168-.186.27-.209.328.058.026.177.064.407.096.496.068 1.222.07 2.3.07h3.74c-.19-1.947-1.105-3.552-2.316-4.42m-4.18 4.225.007.007zm.034.072-.001.014z" clip-rule="evenodd"/></svg>