<svg xmlns="http://www.w3.org/2000/svg" width="24" height="24" fill="none"><path fill="#141B34" fill-rule="evenodd" d="M6.799 4.83c.137-.882 1.082-1.336 1.829-.923l.615.34c1.718.95 3.796.95 5.514 0l.615-.34c.747-.413 1.692.04 1.83.922l.945 6.068c-1.864-.416-3.952-.646-6.147-.646s-4.283.23-6.147.646zM4.27 11.31l1.046-6.713c.294-1.886 2.356-2.933 4.037-2.004l.615.34c1.266.7 2.796.7 4.063 0l.614-.34c1.681-.929 3.744.118 4.038 2.004l1.046 6.713c.954.29 1.83.631 2.605 1.02a.75.75 0 0 1-.67 1.34c-2.327-1.162-5.775-1.92-9.665-1.92s-7.338.758-9.665 1.92a.75.75 0 0 1-.67-1.34c.776-.389 1.651-.73 2.606-1.02M7 15.751a2.25 2.25 0 1 0 0 4.5 2.25 2.25 0 0 0 0-4.5m-3.75 2.25a3.75 3.75 0 0 1 7.068-1.749h3.364a3.75 3.75 0 0 1 7.068 1.749 3.75 3.75 0 1 1-7.492-.249h-2.516q.008.123.008.249a3.75 3.75 0 0 1-7.5 0M17 15.751a2.25 2.25 0 1 0 0 4.5 2.25 2.25 0 0 0 0-4.5" clip-rule="evenodd"/></svg>