<svg xmlns="http://www.w3.org/2000/svg" width="24" height="24" fill="none"><path fill="#141B34" fill-rule="evenodd" d="M7.853 3.338c-.18-.075-.389-.088-1.227-.088H4.4c-.469 0-.745.002-.942.028a.7.7 0 0 0-.148.032.7.7 0 0 0-.032.148c-.026.197-.028.473-.028.942v2.226c0 .838.013 1.048.088 1.227.074.18.213.337.805.93l11.075 11.074c.592.592.75.731.93.806.178.074.388.087 1.226.087H19.6c.47 0 .745-.001.943-.028a.7.7 0 0 0 .147-.032.7.7 0 0 0 .032-.147c.027-.197.028-.474.028-.943v-2.226c0-.838-.013-1.048-.087-1.227-.075-.18-.214-.337-.806-.93L8.783 4.143c-.593-.592-.75-.731-.93-.805m12.83 17.365.004-.006q-.003.007-.004.006m.014-.016.006-.004zM3.317 3.297q.001 0-.004.007zm-.013.016-.007.004zm3.44-1.563c.66 0 1.193-.001 1.683.202s.867.58 1.333 1.047l.083.084 11.075 11.074.083.083c.467.467.844.843 1.047 1.333.204.49.203 1.023.202 1.683v2.388c0 .41 0 .79-.041 1.099-.046.341-.155.708-.457 1.01-.301.3-.668.41-1.01.456-.309.041-.688.041-1.098.041h-2.388c-.66 0-1.193.002-1.683-.202-.49-.203-.866-.58-1.333-1.047l-.083-.084L3.083 9.844l-.084-.083c-.467-.466-.844-.843-1.047-1.333s-.203-1.023-.202-1.683V4.356c0-.41 0-.789.042-1.098.046-.342.154-.708.456-1.01s.668-.41 1.01-.456c.309-.042.688-.042 1.098-.042h2.388M3.973 14.338l.02.03c1.336 2.028 3.61 4.304 5.64 5.64l.03.02c.28.184.53.35.705.487.087.069.202.168.295.29a.88.88 0 0 1 .152.78.87.87 0 0 1-.547.563 1.6 1.6 0 0 1-.404.083c-.217.02-.51.02-.834.02H4.297c-.396 0-.765 0-1.066-.041-.334-.045-.695-.152-.992-.45-.298-.297-.405-.657-.45-.991-.04-.301-.04-.67-.04-1.067v-4.731c0-.324 0-.618.02-.834.01-.109.028-.26.082-.405a.87.87 0 0 1 .564-.547.88.88 0 0 1 .778.153c.124.092.222.208.291.295.138.174.304.425.488.705m-.723 1.585v3.735c0 .456.002.722.027.911.01.069.02.108.026.128.02.007.06.017.128.026.19.026.456.027.91.027h3.736a24.1 24.1 0 0 1-4.827-4.827m.035 4.766.006.003zm.023.02.004.007zm16.7-11.076.02.03c.184.28.35.53.488.705.068.086.167.202.29.295a.87.87 0 0 0 .779.152.87.87 0 0 0 .563-.547c.054-.146.073-.296.083-.405.02-.216.02-.51.02-.834V4.298c0-.396 0-.765-.04-1.067-.046-.334-.152-.694-.45-.992-.297-.297-.658-.404-.992-.449-.301-.04-.67-.04-1.066-.04H14.97c-.323 0-.617 0-.834.02-.108.01-.259.028-.404.082a.87.87 0 0 0-.548.564.88.88 0 0 0 .153.778c.092.124.208.222.295.291.174.138.426.303.705.488l.03.02c2.029 1.336 4.304 3.61 5.64 5.64m.743-5.291v3.735a24.2 24.2 0 0 0-4.827-4.827h3.735c.455 0 .721.002.91.027.069.01.108.02.128.026.007.02.017.06.027.128.025.19.027.455.027.91m-.035-1.03-.006-.004zm-.024-.022-.003-.006z" clip-rule="evenodd"/></svg>