<svg xmlns="http://www.w3.org/2000/svg" width="24" height="24" fill="none"><path fill="#141B34" fill-rule="evenodd" d="M4.75 14.058c0-1.823.485-3.156 1.19-4.018.697-.853 1.644-1.29 2.7-1.29.606 0 1.202.245 1.732.59 1.202.783 2.554.783 3.755 0 .53-.345 1.127-.59 1.732-.59 1.04 0 1.985.424 2.687 1.272a4.26 4.26 0 0 0-1.89 3.531c0 1.676.975 3.116 2.385 3.821a9.7 9.7 0 0 1-1.29 2.25c-.638.818-1.318 1.359-1.924 1.576-.389.14-.898-.024-1.539-.483a6 6 0 0 0-.92-.555c-.32-.152-.713-.29-1.118-.29s-.798.138-1.118.29c-.331.157-.649.36-.921.555-.64.46-1.15.622-1.54.483-.866-.31-1.855-1.273-2.643-2.657-.776-1.362-1.278-2.998-1.278-4.485M8.64 7.25c-1.506 0-2.88.64-3.861 1.84-.975 1.192-1.529 2.889-1.529 4.97 0 1.794.596 3.684 1.474 5.226.866 1.52 2.087 2.841 3.442 3.327 1.152.413 2.235-.186 2.919-.676.23-.165.467-.314.69-.419.231-.11.389-.144.475-.144s.243.034.475.144c.222.105.46.254.69.42.683.489 1.767 1.088 2.919.675.973-.349 1.866-1.125 2.6-2.064.74-.95 1.365-2.125 1.778-3.365a.75.75 0 0 0-.506-.958c-1.195-.342-2.05-1.417-2.05-2.672 0-1.149.717-2.147 1.758-2.57a.75.75 0 0 0 .371-1.063c-.969-1.721-2.589-2.67-4.426-2.67-1.004 0-1.886.401-2.55.833-.704.459-1.414.459-2.119 0-.664-.432-1.546-.834-2.55-.834m8.066-5.308c.008.079.029.281.035.394.012.237.017.565-.018.935-.067.712-.289 1.71-1.015 2.437-.727.726-1.725.948-2.437 1.015a6.5 6.5 0 0 1-.935.018c-.114-.006-.317-.027-.395-.035l-.009-.001h-.001a.75.75 0 0 1-.635-.635l-.002-.011c-.008-.08-.029-.282-.035-.395a6.5 6.5 0 0 1 .018-.935c.067-.712.289-1.71 1.015-2.437.727-.726 1.725-.948 2.437-1.015.37-.034.698-.03.935-.018.113.006.316.027.394.035l.011.002a.75.75 0 0 1 .636.634zm-1.837.828c-.587.055-1.159.225-1.516.583-.357.357-.527.928-.582 1.515a5 5 0 0 0-.02.381 5 5 0 0 0 .38-.02c.587-.055 1.159-.225 1.516-.582.357-.358.527-.93.582-1.516q.019-.204.02-.38a5 5 0 0 0-.38.02" clip-rule="evenodd"/></svg>