<svg xmlns="http://www.w3.org/2000/svg" width="24" height="24" fill="none"><path fill="#141B34" fill-rule="evenodd" d="M13.02 1.75h-1.077c-2.19 0-3.912 0-5.255.18-1.377.185-2.469.572-3.327 1.43-.858.859-1.245 1.951-1.43 3.328-.181 1.343-.181 3.064-.181 5.255v.114c0 2.19 0 3.911.18 5.255.186 1.376.573 2.469 1.43 3.327.86.858 1.951 1.245 3.328 1.43 1.343.18 3.064.18 5.255.18h.114q.99.001 1.855-.004a.8.8 0 0 0 .19-.002c1.255-.013 2.316-.054 3.21-.174 1.377-.185 2.469-.572 3.327-1.43s1.245-1.95 1.43-3.327c.181-1.344.181-3.064.181-5.255v-.114c0-2.191 0-3.912-.18-5.255-.186-1.377-.573-2.47-1.43-3.327-.86-.859-1.951-1.246-3.328-1.43-1.14-.154-2.551-.177-4.291-.18m-1.02 19h.92a15 15 0 0 1-.485-2.011q-.217.01-.435.01c-1.788 0-3.54-.552-5.372-1.598a.75.75 0 1 1 .744-1.303c1.669.954 3.166 1.402 4.628 1.402q.12 0 .243-.004a22 22 0 0 1-.071-2.7c.004-.118.007-.213.008-.295l-.321-.001c-.406 0-.784 0-1.095-.043-.35-.049-.709-.162-1.012-.459a2 2 0 0 1-.149-.164c-.257-.324-.339-.678-.351-1.025-.011-.3.03-.654.071-1.02.23-2.001.763-4.05 1.342-5.714a24 24 0 0 1 1.051-2.575c-2.113 0-3.648.008-4.828.167-1.21.163-1.933.471-2.466 1.004S3.58 5.677 3.417 6.888C3.252 8.12 3.25 9.739 3.25 12c0 2.26.002 3.88.167 5.112.163 1.21.472 1.933 1.005 2.466s1.256.842 2.466 1.005c1.232.165 2.852.167 5.112.167m4.628-4.901c-1.018.581-1.973.975-2.894 1.193a21 21 0 0 1-.062-2.479c.008-.22.015-.446 0-.633-.017-.204-.068-.494-.286-.746a1 1 0 0 0-.105-.108 1.27 1.27 0 0 0-.726-.305 6 6 0 0 0-.62-.021c-.465 0-.77-.002-.965-.029-.132-.013-.201-.15-.22-.217-.005-.173.02-.411.069-.84.213-1.864.71-3.758 1.262-5.346.465-1.337.956-2.417 1.326-3.066 1.55.006 2.745.036 3.705.165 1.21.163 1.933.471 2.466 1.004s.842 1.256 1.005 2.467c.165 1.232.167 2.851.167 5.112 0 2.26-.002 3.88-.167 5.112-.163 1.21-.471 1.933-1.005 2.466s-1.256.842-2.466 1.005c-.72.096-1.574.137-2.61.154a12.5 12.5 0 0 1-.578-2.2c1.138-.25 2.277-.717 3.448-1.386a.75.75 0 0 0-.744-1.303M7.75 7.999a.75.75 0 0 0-1.5 0v2a.75.75 0 0 0 1.5 0zm10 0a.75.75 0 0 0-1.5 0v2a.75.75 0 0 0 1.5 0z" clip-rule="evenodd"/></svg>