<svg xmlns="http://www.w3.org/2000/svg" width="24" height="24" fill="none"><path fill="#141B34" fill-rule="evenodd" d="M11.025 7.306c.278-.216.76-.58.92-.702a.75.75 0 1 0-.89-1.208l-.002.002c-.169.128-.668.504-.951.726A53 53 0 0 0 8.009 7.84c-.76.659-1.538 1.385-2.133 2.058a7 7 0 0 0-.76 1.002c-.184.305-.365.692-.365 1.099 0 .406.181.793.365 1.099.197.326.464.666.76 1.002.595.673 1.374 1.399 2.133 2.058a53 53 0 0 0 3.044 2.443l.003.002a.75.75 0 1 0 .889-1.209c-.161-.122-.642-.485-.92-.702a52 52 0 0 1-2.032-1.667c-.74-.643-1.462-1.318-1.992-1.918a5.7 5.7 0 0 1-.6-.784 1.2 1.2 0 0 1-.15-.322s.026-.122.15-.327c.132-.218.334-.482.6-.783.53-.6 1.251-1.276 1.992-1.919a52 52 0 0 1 2.032-1.667m7 0c.278-.216.76-.58.92-.702a.75.75 0 1 0-.89-1.208l-.002.002c-.168.128-.667.504-.951.726a53 53 0 0 0-2.093 1.717c-.76.659-1.538 1.385-2.133 2.058a7 7 0 0 0-.76 1.002c-.184.305-.365.692-.365 1.099 0 .406.181.793.366 1.099.196.326.463.666.76 1.002.594.673 1.373 1.399 2.132 2.058a53 53 0 0 0 2.093 1.717c.283.221.782.598.952.726l.002.002a.75.75 0 1 0 .889-1.209c-.161-.122-.642-.485-.92-.702a52 52 0 0 1-2.032-1.667c-.74-.643-1.462-1.318-1.992-1.918a5.7 5.7 0 0 1-.6-.784 1.2 1.2 0 0 1-.15-.322s.026-.122.15-.327a5.7 5.7 0 0 1 .6-.783c.53-.6 1.251-1.276 1.992-1.919a52 52 0 0 1 2.032-1.667" clip-rule="evenodd"/></svg>