<svg xmlns="http://www.w3.org/2000/svg" width="24" height="24" fill="none"><path fill="#141B34" fill-rule="evenodd" d="M16.51 4.016c.26-.004.64-.049 1.014-.094l.086-.01c.371-.045.77-.093 1.163-.125q.21-.018.404-.027l-6.205 6.206a.75.75 0 0 0 1.06 1.06l6.208-6.209q-.009.197-.027.41c-.032.392-.08.792-.125 1.163l-.01.086c-.046.373-.09.753-.094 1.013a.75.75 0 0 0 1.5.022c.002-.162.034-.449.083-.856l.01-.09c.045-.367.096-.793.13-1.214a8.7 8.7 0 0 0 .026-1.352 3 3 0 0 0-.11-.633 1.5 1.5 0 0 0-.36-.63 1.5 1.5 0 0 0-.63-.358A3 3 0 0 0 20 2.267c-.42-.034-.899-.012-1.35.025-.422.035-.849.086-1.215.13l-.09.011c-.407.049-.694.081-.856.083a.75.75 0 1 0 .021 1.5M11.032 14.03a.75.75 0 1 0-1.06-1.06L3.76 19.183q.009-.196.027-.407c.032-.392.08-.792.125-1.163l.01-.087c.045-.373.09-.753.094-1.013a.75.75 0 1 0-1.5-.021 10 10 0 0 1-.083.855l-.01.09c-.045.367-.096.794-.131 1.215a9 9 0 0 0-.025 1.351c.017.21.049.43.11.633.06.198.164.436.359.63.195.196.433.3.63.359.204.062.423.094.633.11.42.034.9.013 1.352-.024a33 33 0 0 0 1.214-.13l.09-.012c.407-.049.694-.08.856-.083a.75.75 0 0 0-.022-1.5c-.26.004-.64.05-1.013.094l-.086.01c-.371.045-.771.093-1.163.126q-.211.017-.406.027z" clip-rule="evenodd"/></svg>