<svg xmlns="http://www.w3.org/2000/svg" width="24" height="24" fill="none"><path fill="#141B34" d="M18.036 17.999c.228-.247.355-.572.435-.85.085-.295.143-.633.184-.98.081-.698.101-1.515.095-2.28a41 41 0 0 0-.131-2.887l-.005-.049v-.013l-.001-.005a.75.75 0 1 0-1.494.13v.014l.005.045.013.173a41 41 0 0 1 .113 2.604c.006.74-.014 1.487-.085 2.094l-.012.1L6.527 5.47a.75.75 0 0 0-1.06 1.06l10.627 10.628-.043.005c-.6.07-1.35.091-2.1.086a42 42 0 0 1-2.831-.123l-.046-.004-.015-.001a.75.75 0 1 0-.123 1.495h.004l.014.001.05.004q.065.006.186.014a45 45 0 0 0 2.749.113c.773.006 1.595-.014 2.286-.095.345-.04.68-.098.968-.184.264-.078.602-.211.843-.47"/></svg>