<svg xmlns="http://www.w3.org/2000/svg" width="24" height="24" fill="none"><path fill="#141B34" d="M8.557 17.396a51.406 51.406 0 0 0 2.953-2.37c.74-.642 1.462-1.318 1.992-1.918.266-.3.468-.565.6-.783.123-.206.15-.327.15-.327s-.027-.117-.15-.322a5.7 5.7 0 0 0-.6-.784c-.53-.6-1.251-1.275-1.992-1.919a52 52 0 0 0-2.952-2.369.75.75 0 0 1 .889-1.208l.002.002a53.032 53.032 0 0 1 3.044 2.443c.76.66 1.539 1.385 2.133 2.058.297.336.564.676.76 1.002.185.306.366.693.366 1.1 0 .406-.181.793-.366 1.098a7 7 0 0 1-.76 1.002c-.594.673-1.373 1.399-2.132 2.058a53 53 0 0 1-3.045 2.443l-.002.002a.75.75 0 0 1-.89-1.208"/></svg>