<svg xmlns="http://www.w3.org/2000/svg" width="24" height="24" fill="none"><path fill="#141B34" d="M11.998 3.25c-.374 0-.72.166-.98.323-.282.169-.572.396-.854.646-.567.501-1.176 1.155-1.727 1.79a44 44 0 0 0-2 2.487l-.032.043-.009.012-.003.004a.75.75 0 0 0 1.208.89l.01-.013.029-.04a31 31 0 0 1 .544-.712A43 43 0 0 1 9.57 6.992c.535-.616 1.094-1.212 1.588-1.649l.092-.08V20a.75.75 0 0 0 1.5 0V5.266l.09.077c.493.437 1.052 1.033 1.587 1.649a43 43 0 0 1 1.93 2.4l.029.04.01.013a.75.75 0 1 0 1.207-.89l-.003-.004-.009-.012-.032-.043a37 37 0 0 0-.565-.739c-.37-.475-.88-1.11-1.435-1.749-.55-.634-1.16-1.288-1.727-1.789a6 6 0 0 0-.853-.646c-.259-.156-.603-.321-.974-.323"/></svg>