<svg xmlns="http://www.w3.org/2000/svg" width="24" height="24" fill="none"><path fill="#141B34" d="M17.397 15.445a51.347 51.347 0 0 0-2.37-2.953c-.642-.74-1.318-1.462-1.918-1.992a5.7 5.7 0 0 0-.783-.6c-.205-.124-.327-.15-.327-.15s-.117.026-.322.15a5.7 5.7 0 0 0-.784.6c-.6.53-1.275 1.251-1.918 1.992a52 52 0 0 0-2.37 2.952.75.75 0 0 1-1.208-.889l.002-.002a52.957 52.957 0 0 1 2.443-3.044c.66-.76 1.385-1.539 2.058-2.134a7 7 0 0 1 1.002-.76c.306-.184.693-.365 1.1-.365.406 0 .793.181 1.098.366.326.196.667.463 1.002.76.673.594 1.4 1.373 2.058 2.132a53 53 0 0 1 2.443 3.045l.002.002a.75.75 0 0 1-1.208.89"/></svg>