<svg xmlns="http://www.w3.org/2000/svg" width="24" height="24" fill="none"><path fill="#141B34" fill-rule="evenodd" d="M9.972 11.032a.75.75 0 1 0 1.06-1.06L4.82 3.76q.195.009.407.027c.392.032.792.08 1.163.125l.086.01c.373.045.753.09 1.013.094a.75.75 0 0 0 .022-1.5 10 10 0 0 1-.856-.083l-.09-.01a33 33 0 0 0-1.214-.131 9 9 0 0 0-1.352-.025c-.21.017-.429.049-.633.11-.197.06-.435.164-.63.359a1.5 1.5 0 0 0-.358.63A3 3 0 0 0 2.267 4c-.034.42-.012.9.025 1.352.035.42.086.847.13 1.214l.011.09c.049.407.081.694.083.856a.75.75 0 0 0 1.5-.022c-.004-.26-.049-.64-.094-1.013l-.01-.086a32 32 0 0 1-.125-1.163q-.018-.211-.027-.406zm10.012 5.477c.004.26.049.64.094 1.013l.01.086c.045.371.093.771.125 1.163q.017.21.027.403l-6.206-6.204a.75.75 0 0 0-1.06 1.06l6.209 6.208q-.197-.009-.41-.027c-.392-.032-.792-.08-1.163-.125l-.086-.01c-.373-.046-.753-.09-1.013-.094a.75.75 0 0 0-.022 1.5c.162.002.449.034.856.083l.09.01c.367.045.793.096 1.214.13a8.7 8.7 0 0 0 1.352.026c.21-.017.429-.05.633-.11.197-.06.435-.164.63-.36.195-.194.299-.432.358-.63.062-.204.094-.422.111-.632.034-.42.012-.9-.025-1.352-.035-.42-.086-.848-.13-1.214l-.011-.09c-.049-.407-.081-.694-.083-.856a.75.75 0 0 0-1.5.022" clip-rule="evenodd"/></svg>