<svg xmlns="http://www.w3.org/2000/svg" width="24" height="24" fill="none"><path fill="#141B34" fill-rule="evenodd" d="M7 20.75a.75.75 0 0 0 .75-.75V5.463c.158.164.32.344.48.529a25 25 0 0 1 1.144 1.422l.017.024.005.007a.75.75 0 1 0 1.208-.89l-.002-.003-.006-.007-.02-.027a22 22 0 0 0-.342-.448 27 27 0 0 0-.871-1.062c-.334-.384-.71-.788-1.064-1.101a4 4 0 0 0-.556-.42c-.17-.103-.435-.237-.743-.237s-.574.134-.743.237c-.19.114-.38.264-.556.42-.355.313-.73.717-1.064 1.101a27 27 0 0 0-1.24 1.546v.001a.75.75 0 0 0 1.207.89v-.002l.005-.005.017-.024a18 18 0 0 1 .323-.421c.214-.275.507-.64.82-1.001.161-.185.323-.365.481-.53V20c0 .414.336.75.75.75m10-17.5a.75.75 0 0 0-.75.75v14.537c-.158-.165-.32-.344-.48-.529a25 25 0 0 1-1.144-1.422l-.017-.024-.005-.007a.75.75 0 1 0-1.208.89l.002.003.006.007.02.027a22 22 0 0 0 .342.448c.225.288.534.674.871 1.062.334.384.71.788 1.064 1.101.177.156.366.306.556.42.17.103.435.237.743.237s.574-.134.743-.237c.19-.114.38-.264.556-.42.355-.313.73-.717 1.064-1.101a27 27 0 0 0 1.24-1.546v-.001a.75.75 0 0 0-1.207-.89v.002l-.005.005-.017.023-.069.092a27 27 0 0 1-1.075 1.331c-.16.185-.322.365-.48.53V4a.75.75 0 0 0-.75-.75" clip-rule="evenodd"/></svg>