<svg xmlns="http://www.w3.org/2000/svg" width="24" height="24" fill="none"><path fill="#141B34" fill-rule="evenodd" d="m10.45 11.58-.043.043c-.677.677-1.244 1.245-1.727 1.605s-1.108.687-1.812.432c-.703-.254-.974-.906-1.114-1.492s-.213-1.384-.3-2.338L5.45 9.77l-.113-1.242-.005-.051c-.051-.562-.096-1.061-.076-1.463.022-.435.126-.895.494-1.264.369-.368.829-.472 1.264-.494.402-.02.901.025 1.463.076l.05.005 1.304.118c.954.087 1.752.16 2.338.3s1.238.41 1.492 1.114c.255.704-.072 1.33-.432 1.812-.36.483-.928 1.05-1.605 1.727l-.078.078 6.985 6.986a.75.75 0 0 1-1.06 1.06l-6.986-6.985zm-3.074.666.003.004.005-.001.03-.007c.065-.02.182-.077.369-.216.385-.287.875-.775 1.607-1.507l1.129-1.129c.732-.732 1.22-1.222 1.507-1.607.14-.187.196-.304.216-.369l.007-.03V7.38l-.003-.003-.025-.019c-.057-.037-.175-.09-.402-.145-.467-.111-1.155-.176-2.186-.27L8.39 6.83c-.629-.058-1.02-.091-1.302-.077a1 1 0 0 0-.24.036c-.028.01-.034.016-.039.02v.001c-.005.005-.011.011-.021.039a1 1 0 0 0-.036.24c-.014.282.02.673.077 1.302l.112 1.242c.094 1.031.159 1.72.27 2.186.055.227.108.345.145.402z" clip-rule="evenodd"/></svg>