<svg xmlns="http://www.w3.org/2000/svg" width="24" height="24" fill="none"><path fill="#141B34" fill-rule="evenodd" d="M2.47 21.53a.75.75 0 0 1 0-1.06l6.706-6.714q-.192.01-.4.027c-.393.033-.792.08-1.163.125l-.087.01c-.373.046-.753.09-1.013.095a.75.75 0 0 1-.021-1.5c.162-.003.448-.035.855-.083l.09-.011c.367-.045.793-.096 1.215-.13a9 9 0 0 1 1.351-.026c.21.017.429.05.633.111.197.06.436.163.63.358.195.195.299.433.358.63.062.205.095.423.111.634.034.42.013.899-.025 1.35-.035.422-.086.849-.13 1.215l-.01.09c-.05.407-.082.694-.084.856a.75.75 0 1 1-1.5-.021c.004-.26.049-.64.094-1.014l.01-.086c.045-.37.093-.77.125-1.163q.018-.215.028-.413L3.53 21.53a.75.75 0 0 1-1.061 0m10.899-9.911a1.5 1.5 0 0 1-.63-.358 1.5 1.5 0 0 1-.36-.631 3 3 0 0 1-.11-.633 8.7 8.7 0 0 1 .025-1.351c.035-.421.086-.848.13-1.214l.011-.09c.05-.408.081-.694.083-.856a.75.75 0 0 1 1.5.021 11 11 0 0 1-.093 1.013l-.01.087c-.045.37-.094.77-.126 1.162q-.016.208-.027.4l6.707-6.702a.75.75 0 0 1 1.06 1.062l-6.714 6.708q.198-.01.414-.027c.392-.033.792-.081 1.163-.126l.086-.01c.374-.045.753-.09 1.013-.094a.75.75 0 0 1 .022 1.5c-.162.002-.449.034-.856.083l-.09.011c-.366.044-.793.096-1.214.13A8.7 8.7 0 0 1 14 11.73a3 3 0 0 1-.632-.111" clip-rule="evenodd"/></svg>