<svg xmlns="http://www.w3.org/2000/svg" width="24" height="24" fill="none"><path fill="#141B34" fill-rule="evenodd" d="M9.004 22.75c-1.961 0-2.945 0-3.818-.362a4.71 4.71 0 0 1-2.57-2.57c-.362-.873-.362-1.857-.362-3.818v-6c0-3.973 0-5.968 1.39-7.358C5.037 1.25 7.03 1.25 11.005 1.25s5.968 0 7.359 1.392c1.39 1.39 1.39 3.385 1.39 7.358v.5a.75.75 0 0 1-1.5 0V10c0-3.559 0-5.346-.951-6.297-.952-.953-2.738-.953-6.298-.953s-5.346 0-6.298.952S3.754 6.44 3.754 10v6c0 1.762 0 2.647.247 3.244a3.23 3.23 0 0 0 1.759 1.758c.597.248 1.482.248 3.244.248a.75.75 0 0 1 0 1.5m2-11h-4a.75.75 0 0 1 0-1.5h4a.75.75 0 0 1 0 1.5m4-4h-8a.75.75 0 0 1 0-1.5h8a.75.75 0 0 1 0 1.5M11.254 22c0 .414.336.75.75.75h9v.001a.75.75 0 0 0 .75-.75v-1.246c0-.78-.473-1.454-1.176-1.676l-2.058-.654c.066-.678.182-1.333.473-2.05.33-.812.345-2.107-.264-3.012-.335-.497-.986-1.09-2.225-1.09s-1.902.598-2.24 1.1c-.612.91-.6 2.2-.273 3.002.303.745.428 1.421.495 2.051l-2.055.652c-.704.222-1.177.896-1.177 1.676zm9-1.246v.496h-7.5v-.496c0-.127.067-.226.13-.246l2.256-.716a.9.9 0 0 1 .266-.042h2.196q.136 0 .267.042l2.256.716c.062.02.129.12.129.246M17.03 18.25h-1.054a8.9 8.9 0 0 0-.595-2.44c-.15-.369-.19-1.13.128-1.6.199-.296.53-.439.996-.439s.786.14.98.428c.315.467.27 1.236.119 1.611-.356.875-.497 1.665-.574 2.44" clip-rule="evenodd"/></svg>