<svg xmlns="http://www.w3.org/2000/svg" width="24" height="24" fill="none"><path fill="#141B34" fill-rule="evenodd" d="M11.004 22.75c-3.973 0-5.968 0-7.36-1.392-1.39-1.39-1.39-3.385-1.39-7.358v-4c0-3.973 0-5.968 1.39-7.358C5.037 1.25 7.03 1.25 11.005 1.25s5.968 0 7.359 1.392c1.39 1.39 1.39 3.385 1.39 7.358v1a.75.75 0 0 1-1.5 0v-1c0-3.559 0-5.346-.951-6.297-.952-.953-2.738-.953-6.298-.953s-5.346 0-6.298.952S3.754 6.44 3.754 10v4c0 3.56 0 5.346.952 6.298s2.739.952 6.297.952a.75.75 0 0 1 0 1.5m10 0a.74.74 0 0 1-.53-.22l-1.666-1.666a4.16 4.16 0 0 1-2.375.742 4.183 4.183 0 0 1-4.18-4.178 4.184 4.184 0 0 1 4.18-4.179 4.183 4.183 0 0 1 4.178 4.179c0 .881-.274 1.7-.742 2.375l1.666 1.666a.75.75 0 0 1-.53 1.281zm-4.571-8a2.68 2.68 0 0 0-2.68 2.679 2.68 2.68 0 0 0 2.68 2.678 2.68 2.68 0 0 0 2.678-2.678 2.68 2.68 0 0 0-2.678-2.679m-9.43-3h4a.75.75 0 0 0 0-1.5h-4a.75.75 0 0 0 0 1.5m0-4h8a.75.75 0 0 0 0-1.5h-8a.75.75 0 0 0 0 1.5" clip-rule="evenodd"/></svg>