<svg xmlns="http://www.w3.org/2000/svg" width="24" height="25" fill="none"><path fill="#141B34" fill-rule="evenodd" d="M11.996 3.25a1 1 0 0 0-.282.053 1.316 1.316 0 0 0-.79 1.872c.193.367.321.736.346 1.113.025.39-.064.74-.231 1.055-.356.673-.939 1.034-1.55 1.228a1 1 0 0 1-.092.023c-1.007.183-1.584.863-1.677 1.664h8.57a1.9 1.9 0 0 0-.14-.555c-.16-.376-.501-.789-1.282-1.036a5.6 5.6 0 0 1-.895-.352c-.31-.161-.7-.424-.928-.854a2.38 2.38 0 0 1 .007-2.286c.38-.722.02-1.617-.791-1.872a1 1 0 0 0-.265-.053m-.732-1.378c.21-.067.467-.125.747-.122.266.003.507.06.7.122 1.69.531 2.491 2.44 1.667 4.002a.89.89 0 0 0-.007.886c.018.034.09.118.294.224.194.101.423.179.656.253 1.18.374 1.868 1.082 2.208 1.875.284.66.304 1.328.244 1.821q.041.112.096.28a18.324 18.324 0 0 1 .881 5.54c0 1.225-.136 2.345-.309 3.275l-.025.138c-.183.991-.334 1.812-1.102 2.45-.41.34-.855.497-1.355.57-.455.065-.998.065-1.619.064H9.66c-.621 0-1.164 0-1.619-.065-.5-.072-.945-.229-1.355-.57-.768-.637-.92-1.458-1.102-2.45l-.025-.137c-.173-.93-.309-2.05-.309-3.275a18.3 18.3 0 0 1 .881-5.54q.06-.18.101-.295c-.207-1.744.867-3.405 2.844-3.79.331-.112.521-.267.637-.486a.45.45 0 0 0 .06-.257c-.007-.1-.045-.26-.177-.51-.824-1.564-.022-3.472 1.668-4.003M7.53 11.758h8.938c.085.265.193.632.302 1.08q.102.413.195.912H15a.75.75 0 0 0 0 1.5h2.177a16 16 0 0 1 .04 2.5H15a.75.75 0 0 0 0 1.5h2.053q-.04.26-.086.504c-.222 1.194-.302 1.451-.611 1.708-.146.12-.31.195-.611.238-.335.049-.77.05-1.453.05H9.708c-.683 0-1.118-.001-1.453-.05-.301-.043-.465-.117-.61-.238-.31-.257-.39-.514-.612-1.708a16.5 16.5 0 0 1-.283-3.001 16.8 16.8 0 0 1 .781-4.995" clip-rule="evenodd"/></svg>