<svg xmlns="http://www.w3.org/2000/svg" width="24" height="24" fill="none"><path fill="#141B34" fill-rule="evenodd" d="M7.352 2.25h1.604a.75.75 0 0 1 .74.627c.087.515.394 1.13.85 1.615.457.486.977.75 1.454.75s.997-.264 1.455-.75c.455-.484.762-1.1.848-1.615a.75.75 0 0 1 .74-.627h1.605c.659 0 1.183 0 1.66.184.475.184.867.537 1.362.983l.065.059 2.457 2.212c.23.207.345.484.408.692.068.226.108.478.13.73a8 8 0 0 1-.057 1.668 7.4 7.4 0 0 1-.393 1.646c-.093.243-.21.486-.358.694-.142.201-.352.428-.652.552-.311.128-.616.076-.806.023a2.7 2.7 0 0 1-.587-.255 8 8 0 0 1-1.083-.763l-.044-.035v7.887c0 .375-.027.79-.215 1.176-.2.412-.531.69-.936.908-1.459.782-3.568 1.139-5.599 1.139s-4.14-.357-5.6-1.14c-.404-.216-.735-.495-.935-.907-.188-.386-.215-.8-.215-1.176V10.65l-.033.027a8 8 0 0 1-1.084.766 2.7 2.7 0 0 1-.596.254c-.197.053-.5.099-.807-.028-.3-.124-.51-.35-.652-.552a3.2 3.2 0 0 1-.358-.694 7.4 7.4 0 0 1-.393-1.646 8 8 0 0 1-.056-1.668c.021-.252.06-.504.13-.73.062-.208.177-.485.407-.692l2.457-2.212.065-.059c.495-.446.887-.8 1.362-.983.477-.185 1.001-.184 1.66-.184M18.923 8.8l-.173-.163V8a.75.75 0 0 0-1.5 0v1.727c-.393.415-1.04.784-1.912 1.057-.977.307-2.149.466-3.338.466s-2.361-.16-3.338-.466c-.871-.273-1.52-.642-1.912-1.057V8a.75.75 0 0 0-1.5 0v.637a18 18 0 0 1-.983.88c-.311.255-.616.478-.866.617q-.075.043-.131.068a2 2 0 0 1-.15-.317 6 6 0 0 1-.305-1.301 6.6 6.6 0 0 1-.05-1.348c.016-.189.043-.329.07-.42l.018-.05L5.269 4.59c.608-.547.785-.688.964-.757S6.63 3.75 7.44 3.75h.938a5 5 0 0 0 1.076 1.77c.631.67 1.52 1.222 2.547 1.222s1.916-.552 2.547-1.222a5 5 0 0 0 1.076-1.77h.938c.809 0 1.028.014 1.206.083.18.07.356.21.964.757l2.416 2.175.017.05q.044.138.07.42c.032.375.016.857-.049 1.349a6 6 0 0 1-.305 1.301 2 2 0 0 1-.145.31 2 2 0 0 1-.124-.064 7 7 0 0 1-.872-.62c-.308-.25-.6-.511-.816-.711M6.75 11.593v6.934c0 .33.033.456.064.52.018.038.065.118.295.242 1.154.618 2.983.961 4.891.961s3.737-.343 4.89-.961c.231-.124.278-.204.296-.242.031-.064.064-.19.064-.52v-6.934c-.45.256-.947.46-1.463.623-1.148.36-2.476.534-3.787.534s-2.639-.174-3.787-.534a7.5 7.5 0 0 1-1.463-.623" clip-rule="evenodd"/></svg>