<svg xmlns="http://www.w3.org/2000/svg" width="24" height="24" fill="none"><path fill="#141B34" fill-rule="evenodd" d="M13.406 11.461q-.129.1-.261.196c-.035-.559-.178-1.092-.446-1.547a2.4 2.4 0 0 0-1.164-1.025c-.514-.209-1.096-.234-1.712-.089-.774.183-1.254.566-1.592.853-.294.25-.394.326-.46.351a.25.25 0 0 1-.014-.159c.404-1.435 2.083-2.31 3.905-2.288.88.01 1.679.237 2.234.629.531.375.854.902.854 1.627q0 .09.02.173a9 9 0 0 1-1.085 1.056l-.023.011a.75.75 0 0 0-.256.212m2.516-2.954a3.5 3.5 0 0 0-1.161-1.35c-.864-.61-1.98-.892-3.082-.904-2.142-.025-4.696 1.003-5.365 3.382-.135.477-.05.99.197 1.384.257.41.735.75 1.358.686.584-.06 1.005-.427 1.259-.648l.074-.065c.284-.24.543-.436.965-.536.372-.087.628-.052.802.019.172.07.32.198.438.398.232.391.325 1.034.17 1.762-.76.414-1.566.787-2.414 1.17l-.332.15c-1.106.5-2.273 1.026-3.42 1.676-.194.11-.464.15-.799.116a3.6 3.6 0 0 1-.904-.23c-.655-.254-1.278-.12-1.731.279-.41.361-.624.884-.697 1.363-.073.482-.022 1.039.24 1.508.285.507.803.872 1.504.872.14 0 .288-.005.42-.01l.118-.004c.169-.005.315-.007.45.001.268.017.438.07.565.162 1.27.925 3.19 1.143 4.944 1.042a15 15 0 0 0 2.889-.454l-.036.1c-.124.371-.195.83-.016 1.286.186.472.577.78 1.04.973.209.087.43.12.633.114 2.13-.065 4.136-1.236 5.385-2.874 1.206-1.583 1.764-3.688.954-5.74.737-1.276 1.247-2.628 1.67-3.945.83-2.583.859-4.72.461-6.255-.198-.765-.508-1.406-.904-1.872-.389-.457-.922-.81-1.544-.81-.355 0-.739.028-1.1.184-.387.168-.67.45-.89.813-.21.344-.373.78-.528 1.297a38 38 0 0 0-.518 1.994c-.279 1.163-.65 2.137-1.095 2.966m3.563 4.103c-.862-1.067-2.033-1.7-3.26-1.833.973-1.237 1.752-2.807 2.25-4.886.196-.814.351-1.434.495-1.911.147-.485.267-.774.375-.952.096-.158.161-.196.207-.215.072-.031.204-.06.5-.06.03 0 .18.021.402.281.214.252.439.671.595 1.276.312 1.205.326 3.047-.437 5.421-.318.99-.674 1.959-1.127 2.879m-4.996-.092c1.558-.686 3.494-.038 4.405 1.979.687 1.52.332 3.153-.671 4.468-1.01 1.326-2.614 2.235-4.238 2.285l-.014-.001a.7.7 0 0 1-.194-.111l-.021-.022-.002-.003v-.003l-.002-.007a.2.2 0 0 1-.002-.042.8.8 0 0 1 .046-.209c.149-.443.555-1.019 1.096-1.776l.008-.011c.494-.692 1.084-1.518 1.392-2.329.16-.417.264-.881.217-1.358a2.2 2.2 0 0 0-.64-1.351.75.75 0 1 0-1.074 1.047c.15.154.207.299.222.45.016.169-.017.39-.127.68-.227.597-.692 1.263-1.219 2l-.036.05c-.988.484-2.585.885-4.2.978-1.662.096-3.138-.147-3.975-.756-.45-.328-.941-.422-1.357-.447a6 6 0 0 0-.587-.003l-.144.005c-.126.004-.236.008-.348.008-.117 0-.155-.034-.194-.105-.062-.11-.103-.311-.067-.55.037-.24.134-.399.206-.463.03-.026.048-.03.058-.032s.052-.008.14.026c.315.122.78.27 1.29.324.506.052 1.127.018 1.694-.303 1.083-.614 2.188-1.113 3.303-1.616l.328-.148c1.213-.55 2.436-1.118 3.567-1.84q.59-.376 1.14-.814" clip-rule="evenodd"/></svg>