<svg xmlns="http://www.w3.org/2000/svg" width="24" height="24" fill="none"><path fill="#141B34" fill-rule="evenodd" d="M7.5 19a1 1 0 1 0 0 2h.009a1 1 0 1 0 0-2zM3.75 4a.75.75 0 0 0-1.5 0v16a.75.75 0 0 0 1.5 0zm4.5 0a.75.75 0 0 0-1.5 0v13a.75.75 0 0 0 1.5 0zM12 3.25a.75.75 0 0 1 .75.75v13a.75.75 0 0 1-1.5 0V4a.75.75 0 0 1 .75-.75m5.25.75a.75.75 0 0 0-1.5 0v13a.75.75 0 0 0 1.5 0zM21 3.25a.75.75 0 0 1 .75.75v16a.75.75 0 0 1-1.5 0V4a.75.75 0 0 1 .75-.75M11 20a1 1 0 0 1 1-1h.009a1 1 0 1 1 0 2H12a1 1 0 0 1-1-1m5.5-1a1 1 0 1 0 0 2h.009a1 1 0 1 0 0-2z" clip-rule="evenodd"/></svg>