<svg xmlns="http://www.w3.org/2000/svg" width="24" height="24" fill="none"><path fill="#141B34" fill-rule="evenodd" d="M12 1.25c.57 0 1.095.228 1.758.515l.115.05 4.078 1.763.098.043c.57.246 1.022.44 1.379.78.356.34.575.78.852 1.341l.047.096.923 1.862.03.061c.181.364.323.65.397.965.073.315.073.635.073 1.043v10.258c0 .437 0 .836-.043 1.161-.048.357-.16.734-.467 1.045-.309.311-.685.425-1.042.473-.323.044-.72.044-1.153.044H4.955c-.433 0-.83 0-1.153-.044-.357-.048-.733-.162-1.042-.473-.308-.311-.42-.688-.467-1.045a7 7 0 0 1-.043-.904v-10.1c0-.367 0-.655.06-.94s.176-.548.324-.883l.024-.057 1.018-2.31.047-.106c.268-.611.48-1.094.852-1.464s.855-.579 1.465-.842l.105-.045 3.982-1.722.115-.05c.663-.287 1.189-.515 1.758-.515m.001 17.259L8.955 21.25h6.092zM6.25 13.75h-2.5v6.57c.002.302.009.51.03.67a.7.7 0 0 0 .045.186l.013.007c.022.009.07.024.166.037.21.028.503.03.996.03h1.25zm14 0h-2.5v7.5H19c.493 0 .786-.002.997-.03a.7.7 0 0 0 .175-.042q.003-.001.01-.017a.7.7 0 0 0 .038-.17c.029-.215.03-.512.03-1.009zm-12.5.933v5.634l3.13-2.817zm8.5.002L13.122 17.5l3.128 2.815zm-1.204-.935h-6.09L12 16.49zM12 2.75c-.22 0-.442.08-1.278.442L6.74 4.914c-.765.33-.962.429-1.107.573-.145.145-.246.344-.584 1.111l-1.018 2.31c-.184.418-.23.532-.253.645-.019.088-.025.182-.027.434L3.75 12.25h16.5V9.837c0-.507-.005-.644-.034-.769s-.085-.248-.31-.702l-.923-1.862c-.348-.702-.45-.883-.589-1.016-.14-.132-.323-.223-1.038-.533l-4.078-1.763C12.442 2.831 12.22 2.75 12 2.75m0 2.5a2.75 2.75 0 1 1 0 5.5 2.75 2.75 0 0 1 0-5.5m0 1.5a1.25 1.25 0 1 0 0 2.5 1.25 1.25 0 0 0 0-2.5" clip-rule="evenodd"/></svg>