<svg xmlns="http://www.w3.org/2000/svg" width="24" height="24" fill="none"><path fill="#141B34" fill-rule="evenodd" d="M11.98 5.377a.75.75 0 0 1 .206 1.04l-2.97 4.437c-.107.16-.193.288-.261.394.127.002.274.002.449.002h1.243c.365 0 .72 0 .998.042.294.044.742.168.981.629.237.455.087.892-.04 1.159-.122.255-.32.552-.527.86l-.027.04-2.97 4.437a.75.75 0 0 1-1.247-.834l2.97-4.437c.107-.159.193-.287.26-.394-.127-.002-.273-.002-.448-.002H9.354c-.365 0-.72 0-.998-.042-.294-.044-.742-.168-.981-.629-.237-.455-.087-.892.04-1.159.122-.255.32-.552.527-.86l.027-.04 2.97-4.437a.75.75 0 0 1 1.041-.206M7.945 5.25H8a.75.75 0 0 1 0 1.5c-1.435 0-2.437.002-3.192.103-.734.099-1.122.28-1.399.556-.277.277-.457.665-.556 1.4-.101.755-.103 1.756-.103 3.191s.002 2.437.103 3.192c.099.734.28 1.122.556 1.4.36.36.904.552 2.133.62a.75.75 0 1 1-.084 1.499c-1.287-.073-2.331-.28-3.11-1.06-.602-.601-.86-1.36-.981-2.26-.117-.866-.117-1.969-.117-3.336v-.11c0-1.367 0-2.47.117-3.337.12-.9.38-1.658.981-2.26.602-.601 1.36-.86 2.26-.981.867-.117 1.97-.117 3.337-.117m5.805.746a.75.75 0 0 1 .76-.74c1.808.027 3.187.138 4.142 1.092.602.602.86 1.36.982 2.26q.016.119.028.242l.489.081.024.005c.32.053.598.1.828.155.243.059.482.139.709.284.38.243.68.596.858 1.012.105.248.145.496.163.747.017.235.017.517.017.841v.05c0 .324 0 .606-.017.841-.018.25-.058.5-.163.747a2.25 2.25 0 0 1-.858 1.012 2.3 2.3 0 0 1-.71.284c-.229.056-.507.102-.827.156l-.513.085-.028.242c-.122.9-.38 1.658-.982 2.26s-1.36.86-2.26.982c-.867.116-1.97.116-3.337.116h-.068l-1-.017a.75.75 0 1 1 .026-1.5l.994.017c1.431 0 2.43-.002 3.185-.103.734-.099 1.122-.28 1.399-.556.277-.277.457-.665.556-1.4.101-.754.103-1.756.103-3.19 0-1.436-.002-2.437-.103-3.193-.099-.734-.28-1.122-.556-1.399-.46-.46-1.19-.625-3.102-.652a.75.75 0 0 1-.739-.761m5.992 7.62.162-.027c.351-.059.576-.096.746-.138a.8.8 0 0 0 .254-.09.75.75 0 0 0 .286-.337.8.8 0 0 0 .047-.266c.013-.174.013-.402.013-.758s0-.584-.013-.758a.8.8 0 0 0-.047-.266.75.75 0 0 0-.286-.337.8.8 0 0 0-.254-.09c-.17-.042-.395-.08-.746-.138l-.162-.027q.01.714.008 1.561v.11q.002.847-.008 1.561" clip-rule="evenodd"/></svg>