<svg xmlns="http://www.w3.org/2000/svg" width="24" height="24" fill="none"><path fill="#141B34" fill-rule="evenodd" d="M17.75 5a1.25 1.25 0 1 1 2.5 0 1.25 1.25 0 0 1-2.5 0M19 2.25a2.75 2.75 0 1 0 0 5.5 2.75 2.75 0 0 0 0-5.5m-5.354 4.432c-1.092-.844-2.451-1.172-3.738-1.049-.551-.922-1.35-1.754-2.472-2.148-1.333-.469-2.939-.256-4.81.819a.75.75 0 0 0 .748 1.3c1.63-.936 2.773-.983 3.565-.704.406.143.766.387 1.081.71-1.782.11-3.92.969-5.192 3.541a.75.75 0 1 0 1.344.665c1.04-2.1 2.794-2.71 4.2-2.721C7.307 9.442 5.83 13.938 5.752 19.08c-1.164.334-2.217.761-3.118 1.264a.75.75 0 1 0 .73 1.31C5.426 20.505 8.51 19.75 12 19.75s6.574.756 8.635 1.905a.75.75 0 1 0 .73-1.31C19.03 19.042 15.679 18.25 12 18.25c-1.668 0-3.269.163-4.738.462.142-4.803 1.545-8.968 2.504-11.062.5.653.984 1.932.984 4.35a.75.75 0 0 0 1.5 0c0-2.19-.377-3.756-.984-4.804a3.64 3.64 0 0 1 1.463.673c.855.66 1.521 1.816 1.521 3.628a.75.75 0 0 0 1.5 0c0-2.213-.834-3.833-2.104-4.815" clip-rule="evenodd"/></svg>