<svg xmlns="http://www.w3.org/2000/svg" width="24" height="24" fill="none"><path fill="#141B34" fill-rule="evenodd" d="M9.875 15.25c.14-.675.251-1.311.315-1.857.558.23 1.169.357 1.81.357s1.253-.127 1.81-.357c.064.546.175 1.181.316 1.857zm-.346 1.5a47 47 0 0 1-.18.693c-.502 1.885-1.142 3.821-1.678 4.892a.75.75 0 0 1-1.342-.67c.465-.93 1.074-2.743 1.571-4.608.501-1.879.85-3.667.85-4.557l.001-.035a4.751 4.751 0 0 1 2.499-8.156v-2.31a.75.75 0 0 1 1.5 0v2.31a4.751 4.751 0 0 1 2.5 8.156v.035c0 .89.35 2.678.85 4.557.497 1.865 1.107 3.679 1.571 4.608a.75.75 0 1 1-1.341.67c-.536-1.071-1.177-3.007-1.68-4.892a47 47 0 0 1-.179-.693zM15.25 9a3.25 3.25 0 1 0-6.5 0 3.25 3.25 0 0 0 6.5 0" clip-rule="evenodd"/></svg>