<svg xmlns="http://www.w3.org/2000/svg" width="25" height="24" fill="none"><path fill="#141B34" fill-rule="evenodd" d="M12.923 3.75c-1.934 0-3.338 1.361-3.338 2.85v8.1c0 1.986 1.862 3.75 4.36 3.75 2.5 0 4.361-1.764 4.361-3.75 0-1.99-1.85-3.828-4.29-3.863-.353.074-.72.113-1.093.113a.751.751 0 1 1 0-1.5 4 4 0 0 0 .904-.104C15.28 9 16.261 7.845 16.261 6.6c0-1.489-1.403-2.85-3.338-2.85m3.315 6.023c.93-.78 1.528-1.894 1.528-3.173 0-2.488-2.26-4.35-4.843-4.35S8.081 4.112 8.081 6.6v12.6c0 .495-.488 1.05-1.293 1.05-.522 0-.938-.25-1.143-.561a.754.754 0 0 0-1.041-.216.75.75 0 0 0-.217 1.038c.502.764 1.408 1.239 2.4 1.239 1.455 0 2.798-1.056 2.798-2.55v-.986c1.089 1.076 2.662 1.736 4.36 1.736 3.15 0 5.866-2.265 5.866-5.25 0-2.208-1.496-4.105-3.573-4.927" clip-rule="evenodd"/></svg>