<svg xmlns="http://www.w3.org/2000/svg" width="25" height="24" fill="none"><path fill="#141B34" fill-rule="evenodd" d="M3.25 12a9.25 9.25 0 1 1 18.5 0 9.25 9.25 0 0 1-18.5 0M12.5 1.25C6.563 1.25 1.75 6.063 1.75 12S6.563 22.75 12.5 22.75 23.25 17.937 23.25 12 18.437 1.25 12.5 1.25M11.744 7a.75.75 0 1 0-1.5 0v.547a3 3 0 0 0-.393.024c-.219.03-.5.106-.735.341a1.24 1.24 0 0 0-.341.736c-.025.187-.025.409-.025.614v5.476c0 .205 0 .427.025.614.03.22.105.5.341.736.236.235.516.311.735.34.121.017.257.023.393.025V17a.75.75 0 0 0 1.5 0v-.546h.904V17a.75.75 0 0 0 1.5 0v-.586c1.208-.217 2.102-1.297 2.102-2.562A2.63 2.63 0 0 0 15.491 12a2.63 2.63 0 0 0 .759-1.852c0-1.265-.894-2.345-2.102-2.562V7a.75.75 0 0 0-1.5 0v.546h-.904zM10.25 9.047H13.7c.56 0 1.05.472 1.05 1.101s-.49 1.102-1.05 1.102h-3.45V9.296zm-.001 3.703h3.45c.56 0 1.05.473 1.05 1.102s-.49 1.102-1.05 1.102h-3.2c-.1 0-.18 0-.249-.002l-.001-.248z" clip-rule="evenodd"/></svg>