<svg xmlns="http://www.w3.org/2000/svg" width="24" height="24" fill="none"><path fill="#141B34" fill-rule="evenodd" d="M13.41 4.36c.193.244.395.501.552.663a.75.75 0 1 0 1.076-1.046 9 9 0 0 1-.448-.544l-.047-.06c-.19-.242-.413-.526-.643-.797a7.4 7.4 0 0 0-.797-.827 2.7 2.7 0 0 0-.46-.324A1.4 1.4 0 0 0 12 1.25c-.258 0-.48.089-.642.175-.168.09-.323.206-.461.324a7.4 7.4 0 0 0-.797.827c-.23.27-.453.555-.643.797l-.047.06a9 9 0 0 1-.448.544.75.75 0 1 0 1.076 1.046c.157-.162.36-.419.551-.664l.045-.057c.193-.245.4-.508.61-.757l.006-.007V6.5a.75.75 0 0 0 1.5 0V3.538l.006.007c.21.249.417.512.61.757zM12 9.75a5.75 5.75 0 1 0 0 11.5 5.75 5.75 0 0 0 0-11.5M4.75 15.5a7.25 7.25 0 1 1 14.5 0 7.25 7.25 0 0 1-14.5 0m8-4a.75.75 0 0 0-1.5 0v.583H9.5a.75.75 0 0 0 0 1.5h.188v3.834H9.5a.75.75 0 0 0 0 1.5h1.75v.583a.75.75 0 0 0 1.5 0v-.583h.813c.976 0 1.687-.83 1.687-1.75V16.5c0-.362-.11-.71-.303-1 .193-.29.303-.638.303-1v-.667c0-.92-.71-1.75-1.687-1.75h-.813zm-1.562 3.25v-1.167h2.374c.06 0 .188.066.188.25v.667c0 .184-.129.25-.187.25zm0 1.5h2.374c.06 0 .188.066.188.25v.667c0 .184-.129.25-.187.25h-2.376z" clip-rule="evenodd"/></svg>