<svg xmlns="http://www.w3.org/2000/svg" width="25" height="24" fill="none"><path fill="#141B34" fill-rule="evenodd" d="M5.75 3a.75.75 0 0 0-1.5 0v1.05H2.5a.75.75 0 0 0 0 1.5h.083v12.9H2.5a.75.75 0 0 0 0 1.5h1.75V21a.75.75 0 0 0 1.5 0v-1.05h2.667V21a.75.75 0 0 0 1.5 0v-1.076c1.97-.244 3.333-2.202 3.333-4.324 0-1.434-.622-2.794-1.635-3.6 1.013-.806 1.635-2.166 1.635-3.6 0-2.122-1.362-4.08-3.333-4.324V3a.75.75 0 0 0-1.5 0v1.05H5.75zm-1.667 8.25v-5.7H9.5c1.12 0 2.25 1.142 2.25 2.85s-1.13 2.85-2.25 2.85zm0 1.5H9.5c1.12 0 2.25 1.142 2.25 2.85s-1.13 2.85-2.25 2.85H4.083zm16.44-3.788a.75.75 0 1 0-1.046 1.076c.162.157.419.36.664.551l.057.045c.245.193.508.4.757.61l.007.006H15a.75.75 0 0 0 0 1.5h5.962l-.007.006c-.249.21-.512.417-.757.61l-.057.045a9 9 0 0 0-.664.551.75.75 0 1 0 1.046 1.076c.091-.089.273-.235.544-.448l.06-.047c.242-.19.526-.413.797-.643.291-.246.593-.521.828-.797.117-.138.233-.293.323-.46A1.4 1.4 0 0 0 23.25 12c0-.258-.089-.48-.175-.642a2.7 2.7 0 0 0-.323-.461 7.4 7.4 0 0 0-.828-.797c-.27-.23-.555-.453-.797-.643l-.06-.047a9 9 0 0 1-.544-.448" clip-rule="evenodd"/></svg>