<svg xmlns="http://www.w3.org/2000/svg" width="24" height="24" fill="none"><path fill="#141B34" fill-rule="evenodd" d="M3.383 1.573a.75.75 0 0 1 1.044-.19l5.128 3.55c.343.238.545.377.704.46a.7.7 0 0 0 .146.059h.001l.013-.005a.7.7 0 0 0 .12-.08c.141-.11.315-.282.611-.578l.966-.965.03-.031c.294-.294.564-.564.815-.756.276-.211.608-.393 1.031-.402s.763.158 1.048.357c.258.18.54.439.846.72l3.364 3.083V5.5a.75.75 0 0 1 1.5 0v3a.75.75 0 0 1-.75.75h-3.5a.75.75 0 0 1 0-1.5h1.572l-3.167-2.903c-.35-.32-.558-.51-.725-.626a.7.7 0 0 0-.142-.082l-.013-.005-.014.005a.7.7 0 0 0-.138.089c-.162.124-.362.321-.697.656l-.993.994c-.258.258-.498.498-.722.672-.247.193-.543.362-.92.396-.379.034-.7-.079-.978-.225-.25-.13-.53-.324-.83-.532l-.032-.022-5.128-3.55a.75.75 0 0 1-.19-1.044M11 9.75a5.75 5.75 0 1 0 0 11.5 5.75 5.75 0 0 0 0-11.5M3.75 15.5a7.25 7.25 0 1 1 14.5 0 7.25 7.25 0 0 1-14.5 0m8-4a.75.75 0 0 0-1.5 0v.583H8.5a.75.75 0 0 0 0 1.5h.188v3.834H8.5a.75.75 0 0 0 0 1.5h1.75v.583a.75.75 0 0 0 1.5 0v-.583h.813c.976 0 1.687-.83 1.687-1.75V16.5c0-.362-.11-.71-.303-1 .193-.29.303-.638.303-1v-.667c0-.92-.71-1.75-1.687-1.75h-.813zm-1.562 3.25v-1.167h2.374c.06 0 .188.066.188.25v.667c0 .184-.129.25-.187.25zm0 1.5h2.374c.06 0 .188.066.188.25v.667c0 .184-.129.25-.187.25h-2.376z" clip-rule="evenodd"/></svg>