<svg xmlns="http://www.w3.org/2000/svg" width="24" height="24" fill="none"><path fill="#141B34" fill-rule="evenodd" d="M6.25 5a3.25 3.25 0 0 1-3.482 3.242c.015-.483.04-.897.086-1.26.1-.796.286-1.227.572-1.532.279-.298.664-.487 1.389-.59a12 12 0 0 1 1.426-.098q.009.118.009.238m.554-1.747c-.857.008-1.588.034-2.202.122-.91.13-1.671.41-2.27 1.05-.594.632-.847 1.424-.966 2.37-.071.562-.099 1.218-.11 1.978a.8.8 0 0 0-.002.185q-.005.645-.004 1.39v3.304q-.001.745.005 1.392a.8.8 0 0 0 .002.181c.01.761.038 1.418.109 1.98.119.946.372 1.738.966 2.37.599.64 1.36.92 2.27 1.05.614.088 1.345.114 2.202.122a1 1 0 0 0 .13 0q.477.004 1.007.003h8.118q.53 0 1.008-.002a1 1 0 0 0 .129-.001c.857-.008 1.588-.034 2.202-.122.91-.13 1.671-.41 2.27-1.05.594-.632.847-1.424.966-2.37.071-.562.099-1.218.11-1.978a.7.7 0 0 0 .002-.185q.005-.645.004-1.39v-3.304q.001-.745-.005-1.39a.7.7 0 0 0-.002-.185c-.01-.76-.038-1.416-.109-1.978-.119-.946-.372-1.738-.965-2.37-.6-.64-1.361-.92-2.27-1.05-.615-.088-1.347-.114-2.205-.122a151.003 151.003 0 0 0-1.136-.003H7.942q-.53 0-1.009.002a1 1 0 0 0-.129.001m-3.95 13.764a13 13 0 0 1-.086-1.259q.115-.008.232-.008a3.25 3.25 0 0 1 3.242 3.488c-.564-.013-1.03-.04-1.427-.098-.725-.104-1.11-.292-1.39-.59-.285-.305-.47-.736-.571-1.533M7.75 19q0 .126-.006.25h8.512a4.75 4.75 0 0 1 4.993-4.993l.001-.657V9.744a4.75 4.75 0 0 1-4.993-4.994H7.743q.006.124.006.25a4.75 4.75 0 0 1-5 4.744v4.513q.124-.007.25-.007A4.75 4.75 0 0 1 7.75 19m10.009.238c.563-.013 1.029-.04 1.426-.098.725-.104 1.11-.292 1.39-.59.285-.305.47-.736.571-1.533.046-.362.071-.776.086-1.259a3.25 3.25 0 0 0-3.473 3.48m3.387-12.255c.046.362.071.776.086 1.26a3.25 3.25 0 0 1-3.473-3.48c.563.012 1.029.04 1.426.097.725.103 1.11.292 1.39.59.285.305.47.736.571 1.533M12.75 8a.75.75 0 0 0-1.5 0v.583H9.5a.75.75 0 0 0 0 1.5h.188v3.834H9.5a.75.75 0 0 0 0 1.5h1.75V16a.75.75 0 0 0 1.5 0v-.583h.813c.976 0 1.687-.83 1.687-1.75V13c0-.362-.11-.71-.303-1 .193-.29.303-.638.303-1v-.667c0-.92-.71-1.75-1.687-1.75h-.813zm-1.562 3.25v-1.167h2.374c.06 0 .188.066.188.25V11c0 .184-.129.25-.187.25zm0 1.5h2.374c.06 0 .188.066.188.25v.667c0 .184-.129.25-.187.25h-2.376z" clip-rule="evenodd"/></svg>