<svg xmlns="http://www.w3.org/2000/svg" width="24" height="24" fill="none"><path fill="#141B34" fill-rule="evenodd" d="M10.166 3.954a8.25 8.25 0 0 1 7.56 13.984V16a.75.75 0 0 0-1.5 0v3.5c0 .414.337.75.75.75H20.5a.75.75 0 0 0 0-1.5h-1.465A9.72 9.72 0 0 0 21.75 12c0-5.385-4.365-9.75-9.75-9.75a9.8 9.8 0 0 0-2.166.242.75.75 0 1 0 .332 1.462M3.5 3.766a.75.75 0 0 0 0 1.5h1.45A9.72 9.72 0 0 0 2.25 12c0 5.385 4.365 9.75 9.75 9.75.744 0 1.469-.083 2.166-.242a.75.75 0 1 0-.332-1.462A8.25 8.25 0 0 1 6.25 6.084V8a.75.75 0 0 0 1.5 0V4.516a.75.75 0 0 0-.75-.75zM12.75 8a.75.75 0 0 0-1.5 0v.583H9.5a.75.75 0 0 0 0 1.5h.188v3.834H9.5a.75.75 0 0 0 0 1.5h1.75V16a.75.75 0 0 0 1.5 0v-.583h.813c.976 0 1.687-.83 1.687-1.75V13c0-.362-.11-.71-.303-1 .193-.29.303-.638.303-1v-.667c0-.92-.71-1.75-1.687-1.75h-.813zm-1.562 3.25v-1.167h2.374c.06 0 .188.066.188.25V11c0 .184-.129.25-.187.25zm0 1.5h2.374c.06 0 .188.066.188.25v.667c0 .184-.129.25-.187.25h-2.376z" clip-rule="evenodd"/></svg>