<svg xmlns="http://www.w3.org/2000/svg" width="24" height="24" fill="none"><path fill="#141B34" fill-rule="evenodd" d="M11.25 1.898v3.424c-.158.067-.322.15-.506.243l-.005.002-3.651 1.82c-1.83.906-2.838 1.406-2.838 2.511v8q0 .074.006.144l-2.736 2.28A.75.75 0 0 0 2 21.648c.17 0 .34-.057.48-.174l2.604-2.17c.476.348 1.15.682 2.001 1.104l.003.002 3.647 1.817c.483.245.832.421 1.264.421s.78-.175 1.256-.416l.005-.003 3.651-1.82c.853-.422 1.528-.756 2.005-1.105l2.604 2.17a.747.747 0 0 0 1.056-.096.75.75 0 0 0-.096-1.056l-2.737-2.28q.006-.07.006-.144v-8c0-1.104-1.007-1.603-2.835-2.51h-.003l-3.647-1.819a9 9 0 0 0-.514-.247V1.898a.75.75 0 0 0-1.5 0m1.499 18.91v-6.331c.158-.068.322-.151.506-.244l.005-.003 3.651-1.82c.511-.253.959-.475 1.338-.687v6.168c-.117.24-1.119.737-2.008 1.177zm-5.01-1.75c-.882-.437-1.874-.929-1.99-1.168l.001.001v-6.168c.368.206.8.42 1.292.665l.046.022 3.647 1.818.04.02c.17.086.325.164.474.227v6.333l-3.496-1.743zm4.825-6.157c-.225.113-.492.247-.565.247s-.346-.138-.575-.253l-.015-.008-3.655-1.822c-.876-.434-1.867-.925-2-1.167.133-.24 1.108-.724 1.982-1.158l.022-.01 3.655-1.823.015-.007c.227-.114.5-.252.573-.252s.354.142.585.259l.006.002 3.654 1.822c.876.434 1.867.925 2 1.167-.133.241-1.108.725-1.982 1.159l-.022.01-3.655 1.822z" clip-rule="evenodd"/></svg>