<svg xmlns="http://www.w3.org/2000/svg" width="24" height="24" fill="none"><path fill="#141B34" fill-rule="evenodd" d="m9.66 3.777.007-.02c.065.013.164.045.302.107.308.139.698.383 1.145.707.806.586 1.69 1.353 2.455 2.016l.091.079c-.93.82-2.517 2.086-4.118 3.311.001-.899-.012-1.74-.023-2.496a114 114 0 0 1-.017-1.568c0-.723.017-1.289.07-1.7.026-.206.057-.346.088-.436M8.02 7.552c.011.757.024 1.583.022 2.473L2.956 6.13a.75.75 0 1 0-.912 1.191l5.476 4.194-5.465 4.18a.75.75 0 0 0 .911 1.191l5.076-3.882c.001.879-.01 1.695-.022 2.444q-.016.883-.018 1.638c0 .728.016 1.376.081 1.89.033.257.08.507.156.73.073.214.193.467.41.663.128.116.27.203.406.265.487.223 1.011.08 1.363-.06.393-.155.814-.404 1.224-.683a.75.75 0 0 0-.843-1.24c-.375.254-.69.433-.932.529-.096.038-.161.055-.2.063l-.007-.02c-.03-.09-.062-.23-.088-.436-.053-.411-.07-.977-.07-1.7 0-.465.008-.992.017-1.568.011-.745.024-1.572.023-2.456l1.417 1.085a.75.75 0 0 0 .912-1.19l-1.878-1.439c1.852-1.406 3.795-2.948 4.824-3.875.62-.558.545-1.489-.034-1.99l-.235-.203c-.756-.656-1.69-1.467-2.553-2.093-.475-.346-.962-.66-1.408-.861a2.8 2.8 0 0 0-.707-.225 1.43 1.43 0 0 0-1.231.359 1.55 1.55 0 0 0-.41.663 3.8 3.8 0 0 0-.156.73c-.065.514-.081 1.161-.08 1.89q.002.755.017 1.638m6.23 9.044a2.85 2.85 0 0 1 2.854-2.846 2.85 2.85 0 0 1 2.853 2.846 2.848 2.848 0 0 1-2.854 2.846 2.85 2.85 0 0 1-2.853-2.846m7.207 0c0 .939-.297 1.807-.803 2.517l1.372 1.353a.75.75 0 1 1-1.052 1.068l-1.387-1.367c-.705.49-1.56.776-2.483.776a4.35 4.35 0 0 1-4.354-4.347 4.35 4.35 0 0 1 4.354-4.346 4.35 4.35 0 0 1 4.353 4.346" clip-rule="evenodd"/></svg>