<svg xmlns="http://www.w3.org/2000/svg" width="24" height="24" fill="none"><path fill="#141B34" fill-rule="evenodd" d="M22.75 3.217c.007.56-.228 1.11-.688 1.57l-4.37 4.522a1.75 1.75 0 0 1-.494 1.525l-1.002.997a1.25 1.25 0 0 0-.353.677l-.494 2.877c-.165.959-1.02 1.515-1.866 1.455l-1.52 4.546-.01.027c-.163.43-.424.781-.789 1.018-.36.233-.762.318-1.147.32-.743.002-1.545-.302-2.253-.664-1.437-.737-2.874-1.923-3.463-2.509-.59-.586-1.743-1.977-2.443-3.372-.345-.686-.63-1.47-.607-2.202.013-.381.11-.773.352-1.122.243-.351.593-.602 1.018-.76l.017-.007 4.639-1.604a1.7 1.7 0 0 1-.007-.61c.108-.63.58-1.143 1.3-1.266l2.892-.492c.167-.028.357-.148.635-.425l1.002-.997c.426-.424.984-.541 1.5-.452l4.599-4.355c.955-.943 2.21-.798 2.943-.087.36.348.602.838.61 1.39m-6.827 3.865 4.312-4.085.014-.012c.194-.193.365-.236.485-.235a.54.54 0 0 1 .364.154c.1.097.15.217.152.332.002.105-.037.279-.252.493l-.01.01-4.13 4.274zm-7.83 4.735 4.057 4.28-1.605 4.798c-.067.17-.142.242-.197.278-.062.04-.163.077-.337.078-.377.001-.917-.168-1.563-.5l-.076-.039 1.188-2.315a.75.75 0 1 0-1.334-.685l-1.135 2.21c-.758-.53-1.41-1.086-1.732-1.407-.31-.308-.823-.902-1.314-1.597l2.231-1.137a.75.75 0 1 0-.681-1.337L3.252 15.64l-.054-.106c-.31-.62-.459-1.129-.447-1.48a.57.57 0 0 1 .085-.317c.04-.058.12-.138.302-.207zm6.223-4.074c-.095-.006-.141.023-.159.041l-1.002.997c-.313.311-.786.73-1.442.84l-2.891.493a.2.2 0 0 0-.068.022l-.005.019c-.01.052.005.188.143.325l.015.015 4.528 4.778a.261.261 0 0 0 .435-.142l.495-2.877a2.76 2.76 0 0 1 .773-1.486l1.002-.997c.1-.1.1-.258 0-.357l-1.564-1.556a.42.42 0 0 0-.26-.115" clip-rule="evenodd"/></svg>