<svg xmlns="http://www.w3.org/2000/svg" width="24" height="24" fill="none"><path fill="#141B34" fill-rule="evenodd" d="M20.686 1.452a1.924 1.924 0 0 0-2.517.748l-6.703 10.247c-2.08 1.248-3.677 1.62-4.933 1.607-1.286-.013-2.295-.428-3.2-.875a.75.75 0 0 0-1.083.672c0 2.25.74 4.148 1.85 5.604 1.592 2.088 3.974 3.295 6.056 3.295a.8.8 0 0 0 .18-.022c1.917-.478 3.214-1.916 4.042-3.405a11.9 11.9 0 0 0 1.35-4.1l5.814-11.187.004-.01a1.916 1.916 0 0 0-.86-2.574M6.518 15.554c1.529.015 3.314-.427 5.46-1.668l2.214 1.477a10.5 10.5 0 0 1-1.125 3.231c-.706 1.27-1.693 2.295-3.004 2.655-1.102-.026-2.4-.514-3.535-1.432q.327-.018.674-.06c1.068-.129 2.293-.444 3.358-1.125a.75.75 0 1 0-.809-1.264c-.81.52-1.796.787-2.729.9a9 9 0 0 1-1.91.03 7.5 7.5 0 0 1-1.279-3.26c.76.284 1.647.506 2.685.516m10.092-5.279-1.89 3.637-1.685-1.123 2.195-3.356zm.693-1.334-1.252-.764 3.384-5.173.025-.04a.424.424 0 0 1 .557-.17c.208.104.29.353.19.556zM6.703 3.74a.75.75 0 0 0-1.406 0l-.221.597c-.314.848-.405 1.048-.548 1.191s-.343.234-1.19.548l-.598.22a.75.75 0 0 0 0 1.407l.597.221c.848.314 1.048.405 1.191.548s.234.343.548 1.19l.22.598a.75.75 0 0 0 1.407 0l.221-.597c.314-.848.405-1.048.548-1.191s.343-.234 1.19-.548l.598-.22a.75.75 0 0 0 0-1.407l-.597-.221c-.848-.314-1.048-.405-1.191-.548s-.234-.343-.548-1.19zM5.59 6.589c.165-.166.297-.355.411-.566.114.211.246.4.411.566.166.165.355.297.566.411-.211.114-.4.246-.566.411A2.4 2.4 0 0 0 6 7.977c-.114-.211-.246-.4-.411-.566A2.4 2.4 0 0 0 5.023 7c.211-.114.4-.246.566-.411" clip-rule="evenodd"/></svg>