<svg xmlns="http://www.w3.org/2000/svg" width="24" height="24" fill="none"><path fill="#141B34" fill-rule="evenodd" d="M4.257 1.913a.75.75 0 0 1 .832-.658c1.407.164 3.699.654 5.999 1.598 2.288.94 4.676 2.366 6.166 4.457.28.392.5.572.84.659.934.233 1.773.882 2.079 1.914l.001.004c.05.175.113.355.183.559l.005.012c.07.202.147.428.213.659.131.46.237 1.007.143 1.591-.072.453-.288.86-.562 1.375l-.048.089-4.347 8.18a.75.75 0 0 1-1.324-.704l4.347-8.18c.343-.647.425-.821.453-.996.043-.27.002-.57-.104-.944a11 11 0 0 0-.19-.58l-.008-.027a13 13 0 0 1-.2-.613c-.13-.435-.49-.756-1.004-.884h-.004c-.817-.207-1.303-.694-1.695-1.243-1.253-1.759-3.34-3.048-5.514-3.94-2.162-.888-4.319-1.346-5.603-1.496a.75.75 0 0 1-.658-.832m-.631 9.438a.75.75 0 0 1 1.025.273c.357.617 1.173 1.184 2.457 1.482 1.267.295 2.901.303 4.728-.11a.75.75 0 0 1 .543 1.379c-.549.32-1.473.886-2.495 2.067-.406.469-.619 1.176-.654 1.993-.053 1.24-.238 2.713-.955 3.943a.75.75 0 1 1-1.296-.756c.526-.902.702-2.068.752-3.251.043-.998.307-2.088 1.02-2.91q.305-.353.6-.646c-.933.02-1.802-.066-2.582-.248-1.507-.35-2.773-1.081-3.416-2.191a.75.75 0 0 1 .273-1.025m1.485-5.093a.75.75 0 0 0-.219 1.484l.01.002q.018.002.053.009.073.013.215.043c.188.042.457.11.77.213.635.208 1.42.548 2.099 1.08.595.469 1.416.829 2.107 1.087.529.198 1.045.357 1.374.459l.25.078a.75.75 0 0 0 .465-1.426l-.313-.098c-.33-.102-.769-.238-1.251-.418-.664-.248-1.302-.543-1.706-.86-.863-.679-1.827-1.088-2.557-1.328a10 10 0 0 0-1.185-.306l-.077-.013-.023-.004-.007-.001H5.11M5.001 7l.11-.742z" clip-rule="evenodd"/></svg>