<svg xmlns="http://www.w3.org/2000/svg" width="24" height="24" fill="none"><path fill="#141B34" fill-rule="evenodd" d="M7 1.25a.75.75 0 0 0 0 1.5c.583 0 1.117.195 1.552.456.445.267.73.57.824.71a.75.75 0 1 0 1.248-.832c-.24-.36-.705-.807-1.3-1.165C8.715 1.555 7.916 1.25 7 1.25m7.624 2.666c.093-.14.379-.443.824-.71.435-.261.97-.456 1.552-.456a.75.75 0 0 0 0-1.5c-.917 0-1.716.305-2.323.67-.596.357-1.061.804-1.301 1.164a.75.75 0 1 0 1.248.832M2.75 6a.75.75 0 0 0-1.5 0c0 .73.354 1.688 1.27 2.451q.322.27.732.496L3.25 9v1c0 1.413.285 2.785.58 4.067.53 2.308.741 5.401-.483 7.564a.75.75 0 1 0 1.306.738c1.515-2.676 1.186-6.251.638-8.637-.293-1.277-.54-2.504-.54-3.732v-.491A9.7 9.7 0 0 0 7 9.75c2.122 0 3.56-.531 4.48-1.299q.299-.25.52-.521.221.271.52.521c.92.768 2.358 1.299 4.48 1.299a9.7 9.7 0 0 0 2.25-.241V10c0 1.228-.247 2.454-.54 3.732-.55 2.386-.877 5.96.637 8.637a.75.75 0 0 0 1.306-.738c-1.224-2.163-1.012-5.256-.482-7.564.295-1.282.58-2.654.58-4.067V9l-.003-.054q.41-.226.732-.495c.916-.763 1.27-1.721 1.27-2.451a.75.75 0 0 0-1.5 0c0 .27-.146.812-.73 1.299-.58.482-1.642.951-3.52.951s-2.94-.469-3.52-.951c-.584-.487-.73-1.029-.73-1.299a.75.75 0 0 0-1.5 0c0 .27-.146.812-.73 1.299-.58.482-1.642.951-3.52.951s-2.94-.469-3.52-.951C2.896 6.812 2.75 6.27 2.75 6m13.837 12.534a.75.75 0 0 0-1.053-.121c-.731.58-1.174.797-1.511.832-.284.03-.636-.058-1.224-.542a1.29 1.29 0 0 0-1.583-.048c-.66.485-1.046.61-1.343.594-.299-.017-.702-.189-1.364-.8A.75.75 0 1 0 7.49 19.55c.737.68 1.466 1.15 2.299 1.195.784.044 1.489-.298 2.18-.785.694.543 1.402.86 2.207.776.8-.083 1.535-.55 2.29-1.15a.75.75 0 0 0 .12-1.053m-1.053-5.121a.75.75 0 0 1 .932 1.174c-.754.6-1.49 1.067-2.289 1.15-.805.083-1.513-.233-2.207-.776-.691.487-1.396.829-2.18.785-.833-.046-1.562-.515-2.299-1.195A.75.75 0 1 1 8.51 13.45c.662.611 1.065.783 1.364.8.297.016.682-.11 1.343-.594l.034-.023V12a.75.75 0 0 1 1.5 0v1.665l.05.038c.587.484.94.571 1.223.542.337-.035.78-.252 1.51-.832" clip-rule="evenodd"/></svg>