<svg xmlns="http://www.w3.org/2000/svg" width="24" height="24" fill="none"><path fill="#141B34" fill-rule="evenodd" d="M12.987 1.25c1.64.004 2.978.029 4.062.19 1.324.198 2.373.614 3.19 1.522.807.896 1.168 2.03 1.341 3.461.147 1.219.167 2.737.17 4.626v1.9c-.003 1.89-.023 3.408-.17 4.626-.173 1.432-.534 2.565-1.341 3.461-.817.908-1.866 1.324-3.19 1.522-1.281.191-2.918.191-4.987.191h-.595c-1.848 0-3.334-.014-4.516-.19-1.323-.199-2.373-.615-3.19-1.523-.807-.896-1.168-2.029-1.34-3.46-.171-1.407-.171-3.212-.171-5.525v-.56c0-2.096.011-3.755.17-5.068.173-1.432.534-2.565 1.34-3.46.818-.909 1.868-1.325 3.191-1.523 1.084-.161 2.423-.186 4.063-.19zm3.763 1.663v7.25c-.002.461-.01.872-.056 1.2-.057.401-.202.915-.705 1.206-.451.26-.929.193-1.272.08-.347-.114-.682-.314-.967-.508a13 13 0 0 1-.807-.61l-.012-.01a8 8 0 0 0-.545-.417 5 5 0 0 0-.386-.24 5 5 0 0 0-.386.24 8 8 0 0 0-.545.417l-.012.01a13 13 0 0 1-.807.61c-.285.194-.62.394-.967.508-.343.113-.821.18-1.272-.08-.503-.29-.648-.805-.705-1.207-.056-.393-.056-.906-.056-1.483V2.913l-.077.011c-1.127.168-1.797.485-2.298 1.041-.51.568-.81 1.346-.966 2.638C3.751 7.91 3.75 9.623 3.75 12v.438c0 2.151.011 3.734.16 4.958.156 1.292.454 2.07.965 2.638.501.556 1.171.873 2.298 1.041 1.157.173 2.682.175 4.827.175h.42c1.927 0 3.327-.013 4.407-.175 1.127-.168 1.797-.485 2.298-1.04.511-.569.809-1.347.966-2.639.138-1.142.156-2.598.159-4.535v-1.721c-.003-1.938-.02-3.393-.159-4.536-.157-1.292-.455-2.07-.966-2.638-.501-.556-1.171-.873-2.298-1.04q-.038-.008-.077-.012m-3.923-.163h-1.654c-.927.002-1.726.009-2.423.038v7.037c0 .648.002 1.051.041 1.326l.013.077.011-.004q.222-.072.588-.32c.238-.164.478-.354.717-.545l.05-.04c.209-.167.436-.349.626-.472l.024-.016c.172-.112.347-.226.506-.307.183-.094.405-.177.674-.177s.491.083.674.177c.159.081.334.195.506.307l.024.016c.19.123.417.305.626.472l.05.04c.239.191.479.381.717.544q.366.249.588.321l.011.004.013-.077c.035-.244.04-.59.04-1.119l.001-7.244a62 62 0 0 0-2.423-.038" clip-rule="evenodd"/></svg>