<svg xmlns="http://www.w3.org/2000/svg" width="25" height="24" fill="none"><path fill="#141B34" fill-rule="evenodd" d="M12.395 1.75h-.117c-2.25 0-4.018 0-5.398.19-1.415.195-2.534.603-3.41 1.5-.758.778-1.156 1.74-1.372 2.926a.75.75 0 0 0 1.476.268c.182-1.001.486-1.65.97-2.146.552-.566 1.299-.89 2.54-1.062 1.266-.174 2.93-.176 5.252-.176s3.986.002 5.251.176c1.242.171 1.989.496 2.541 1.062.484.496.788 1.145.97 2.146a.75.75 0 0 0 1.476-.268c-.215-1.187-.614-2.148-1.372-2.925-.876-.898-1.995-1.306-3.41-1.5-1.38-.191-3.147-.191-5.397-.191m10.188 8.244a.75.75 0 0 0-1.5.012q.006.877.005 1.91c0 .691 0 1.325-.005 1.91a.75.75 0 1 0 1.5.013q.006-.888.005-1.92v-.005q.001-1.032-.005-1.92m-18.99.012a.75.75 0 0 0-1.5-.012q-.006.888-.005 1.92v.005q-.001 1.032.005 1.92a.75.75 0 1 0 1.5-.012 234 234 0 0 1-.005-1.91c0-.691 0-1.325.005-1.91m.234 7.525a.75.75 0 1 0-1.475.272c.21 1.143.6 2.072 1.344 2.822S5.363 21.77 6.5 21.983a.75.75 0 1 0 .276-1.474c-.942-.177-1.549-.471-2.014-.94-.466-.47-.76-1.085-.935-2.038m18.497.272a.75.75 0 1 0-1.475-.272c-.176.953-.47 1.568-.935 2.038s-1.072.764-2.014.94a.75.75 0 0 0 .276 1.474c1.137-.213 2.06-.608 2.803-1.358.744-.75 1.134-1.68 1.345-2.822m-11.88 2.942a.75.75 0 0 0-.013 1.5q.881.006 1.905.005h.004q1.024.001 1.904-.005a.75.75 0 0 0-.012-1.5q-.87.006-1.894.005c-.685 0-1.313 0-1.894-.005" clip-rule="evenodd"/></svg>