<svg xmlns="http://www.w3.org/2000/svg" width="25" height="24" fill="none"><path fill="#141B34" fill-rule="evenodd" d="M10.33 1.755a.75.75 0 0 0 .012 1.5c.586-.005 1.22-.005 1.91-.005q1.034-.001 1.91.005a.75.75 0 0 0 .013-1.5q-.888-.006-1.92-.005h-.005q-1.032-.001-1.92.005m.012 18.99a.75.75 0 0 0-.012 1.5q.888.006 1.92.005h.005q1.032.001 1.92-.005a.75.75 0 1 0-.012-1.5q-.877.006-1.91.005c-.691 0-1.325 0-1.91-.005m7.525-.234a.75.75 0 0 0 .272 1.475c1.143-.21 2.071-.6 2.822-1.344s1.145-1.667 1.358-2.804a.75.75 0 1 0-1.474-.276c-.177.942-.471 1.55-.94 2.014-.47.466-1.085.76-2.038.935m.272-18.497a.75.75 0 1 0-.272 1.475c.953.176 1.568.47 2.037.935.47.465.764 1.072.941 2.014a.75.75 0 1 0 1.474-.276c-.213-1.136-.608-2.06-1.358-2.803-.75-.744-1.68-1.134-2.822-1.345m2.942 11.88a.75.75 0 1 0 1.5.012q.006-.88.005-1.904v-.004q.001-1.023-.005-1.904a.75.75 0 1 0-1.5.013c.005.58.005 1.208.005 1.893s0 1.313-.005 1.894M2.086 11.942v.117c0 2.25 0 4.018.19 5.397.195 1.416.603 2.534 1.5 3.41.778.759 1.74 1.157 2.926 1.372a.75.75 0 1 0 .268-1.476c-1.001-.181-1.65-.485-2.146-.97-.566-.552-.89-1.298-1.062-2.54-.174-1.266-.176-2.93-.176-5.252s.002-3.985.176-5.251c.171-1.242.496-1.988 1.062-2.541.496-.484 1.145-.788 2.146-.97a.75.75 0 1 0-.268-1.476c-1.187.216-2.148.614-2.925 1.372-.898.877-1.306 1.995-1.501 3.41-.19 1.38-.19 3.147-.19 5.398" clip-rule="evenodd"/></svg>