<svg xmlns="http://www.w3.org/2000/svg" width="25" height="24" fill="none"><path fill="#141B34" fill-rule="evenodd" d="M21.97 7.238a.75.75 0 0 0 .604-.872c-.215-1.187-.614-2.148-1.372-2.925-.876-.898-1.995-1.306-3.41-1.5-1.38-.191-3.147-.191-5.397-.191h-.117c-2.25 0-4.018 0-5.398.19-1.415.195-2.534.603-3.41 1.5-.758.778-1.156 1.74-1.372 2.926a.75.75 0 0 0 1.476.268c.182-1.001.486-1.65.97-2.146.552-.566 1.299-.89 2.54-1.062 1.266-.174 2.93-.176 5.252-.176s3.986.002 5.251.176c1.242.171 1.989.496 2.541 1.062.484.496.788 1.145.97 2.146a.75.75 0 0 0 .872.604m.616 4.738v-.004c0-.684 0-1.39-.005-1.978a.75.75 0 0 0-1.5.012c.003.377.005.804.005 1.244h-.75a.75.75 0 0 0 0 1.5h.75c0 .447-.002.886-.005 1.254a.75.75 0 1 0 1.5.013c.005-.582.005-1.339.005-2.017m0-.024V12zm-.864 4.976a.75.75 0 0 0-.875.6c-.175.947-.468 1.557-.933 2.023s-1.072.76-2.015.936a.75.75 0 0 0 .275 1.474c1.135-.212 2.058-.604 2.802-1.35s1.135-1.671 1.346-2.809a.75.75 0 0 0-.6-.874m-6.736 4.536a.75.75 0 0 0-.756-.743q-.543.004-1.144.005V19.53a.75.75 0 0 0-1.5 0v1.219q-.6 0-1.143-.005a.75.75 0 0 0-.013 1.5q.88.006 1.904.005h.004q1.024.001 1.905-.005a.75.75 0 0 0 .743-.757m-7.613-.103a.75.75 0 0 0-.6-.875c-.942-.175-1.55-.469-2.015-.935s-.757-1.076-.933-2.022a.75.75 0 0 0-1.475.273c.211 1.138.602 2.062 1.346 2.808.745.747 1.667 1.14 2.803 1.351a.75.75 0 0 0 .874-.6m-4.526-6.624a.75.75 0 0 0 .744-.757c-.003-.367-.004-.807-.005-1.254h.75a.75.75 0 0 0 0-1.5h-.75c0-.44.002-.867.005-1.244a.75.75 0 0 0-1.5-.012c-.005.588-.005 1.293-.005 1.977V12c0 .678 0 1.434.005 2.016a.75.75 0 0 0 .756.744m12.49-2.011a.75.75 0 0 0 0-1.5h-2.25V9a.75.75 0 0 0-1.5 0v2.25h-2.25a.75.75 0 0 0 0 1.5h2.25V15a.75.75 0 0 0 1.5 0v-2.25z" clip-rule="evenodd"/></svg>