<svg xmlns="http://www.w3.org/2000/svg" width="25" height="24" fill="none"><path fill="#141B34" fill-rule="evenodd" d="M2.086 12.024v.004c0 .684 0 1.39.005 1.978a.75.75 0 0 0 1.5-.012c-.003-.378-.004-.804-.005-1.244h.75a.75.75 0 0 0 0-1.5h-.75c0-.447.002-.887.005-1.255a.75.75 0 0 0-1.5-.012c-.005.582-.005 1.339-.005 2.017m0 .024V12zm.865-4.976a.75.75 0 0 0 .874-.6C4 5.5 4.293 4.89 4.758 4.424s1.072-.76 2.015-.936a.75.75 0 0 0-.275-1.474c-1.135.212-2.057.604-2.802 1.35-.744.747-1.135 1.67-1.346 2.809a.75.75 0 0 0 .6.874M9.686 2.51a.75.75 0 0 0 .756.744q.543-.004 1.144-.005V4.47a.75.75 0 0 0 1.5 0V3.25q.601 0 1.144.005a.75.75 0 0 0 .012-1.5q-.88-.006-1.904-.005h-.004q-1.023-.001-1.904.005a.75.75 0 0 0-.744.756m7.613.104a.75.75 0 0 0 .6.874c.942.176 1.55.47 2.015.936s.758 1.076.933 2.022a.75.75 0 1 0 1.475-.273c-.211-1.138-.602-2.062-1.346-2.809-.745-.746-1.667-1.138-2.803-1.35a.75.75 0 0 0-.874.6m4.526 6.624a.75.75 0 0 0-.744.756c.003.368.004.808.005 1.255h-.75a.75.75 0 0 0 0 1.5h.75c0 .44-.002.866-.005 1.244a.75.75 0 1 0 1.5.012c.005-.589.005-1.293.005-1.977V12m0 0c0-.678 0-1.435-.005-2.017a.75.75 0 0 0-.756-.744M2.702 16.762a.75.75 0 0 0-.604.872c.216 1.187.614 2.148 1.372 2.925.876.898 1.995 1.306 3.41 1.5 1.38.191 3.147.191 5.398.191h.117c2.25 0 4.017 0 5.397-.19 1.415-.195 2.534-.603 3.41-1.5.758-.778 1.157-1.74 1.372-2.926a.75.75 0 1 0-1.476-.268c-.182 1.001-.486 1.65-.97 2.146-.552.566-1.299.89-2.54 1.062-1.266.174-2.93.176-5.252.176s-3.986-.002-5.251-.176c-1.242-.171-1.989-.496-2.541-1.062-.484-.496-.788-1.145-.97-2.146a.75.75 0 0 0-.872-.604m6.634-5.512a.75.75 0 0 0 0 1.5h2.25V15a.75.75 0 0 0 1.5 0v-2.25h2.25a.75.75 0 1 0 0-1.5h-2.25V9a.75.75 0 1 0-1.5 0v2.25z" clip-rule="evenodd"/></svg>