<svg xmlns="http://www.w3.org/2000/svg" width="24" height="24" fill="none"><path fill="#141B34" fill-rule="evenodd" d="M10.188 8.637c.513-.278 1.132-.385 1.812-.385.658 0 1.286.095 1.814.384a26 26 0 0 1 2.272-1.942c.538-.402 1.11-.782 1.656-1.048.513-.251 1.138-.472 1.725-.37 1.278.22 2.089 1.32 2.564 2.502.489 1.216.719 2.738.719 4.224s-.23 3.007-.72 4.224c-.475 1.183-1.285 2.282-2.563 2.503-.587.101-1.212-.12-1.725-.37-.545-.267-1.119-.647-1.656-1.049a26 26 0 0 1-2.274-1.943c-.513.278-1.132.385-1.812.385s-1.299-.107-1.812-.386c-.56.537-1.398 1.29-2.274 1.944-.538.402-1.11.782-1.656 1.048-.513.251-1.138.472-1.725.37-1.278-.22-2.089-1.32-2.564-2.502-.489-1.216-.719-2.737-.719-4.224s.23-3.008.72-4.224c.474-1.183 1.285-2.282 2.563-2.503.587-.101 1.212.12 1.725.37.545.267 1.119.647 1.656 1.049a26 26 0 0 1 2.274 1.943m-1.031 5.64a24 24 0 0 1-2.14 1.831c-.502.375-.991.694-1.418.903-.46.225-.717.256-.81.24-.497-.086-1.016-.56-1.428-1.584-.398-.991-.611-2.31-.611-3.665s.213-2.674.611-3.665c.412-1.024.931-1.498 1.427-1.584.094-.016.351.015.81.24.428.209.917.528 1.419.903.817.61 1.612 1.325 2.14 1.83-.219.445-.33.963-.378 1.526H8a.75.75 0 1 0 0 1.5h.779c.047.563.16 1.08.378 1.525m5.686 0a24 24 0 0 0 2.14 1.831c.502.375.991.694 1.418.903.46.225.717.256.81.24.497-.086 1.016-.56 1.428-1.584.398-.991.611-2.31.611-3.665s-.213-2.674-.611-3.665c-.412-1.024-.931-1.498-1.427-1.584-.094-.016-.351.015-.81.24-.428.209-.917.528-1.419.903a24 24 0 0 0-2.141 1.832c.213.437.329.95.378 1.524H16a.75.75 0 1 1 0 1.5h-.779c-.047.563-.16 1.08-.378 1.525m-4.593-2.275c0-1.014.159-1.54.381-1.819.187-.232.537-.431 1.369-.431.788 0 1.143.17 1.34.396.222.257.41.773.41 1.854 0 1.014-.159 1.54-.381 1.818-.187.233-.537.432-1.369.432s-1.182-.199-1.369-.432c-.222-.277-.381-.804-.381-1.818" clip-rule="evenodd"/></svg>