<svg xmlns="http://www.w3.org/2000/svg" width="24" height="24" fill="none"><path fill="#141B34" fill-rule="evenodd" d="M20.52 2.69C19.668 1.276 17.8.851 16.36 1.646c-1.113.615-1.707 1.808-1.537 2.988.018.13.007.25-.02.331a.3.3 0 0 1-.035.071.04.04 0 0 1-.014.014l-4.115 2.272a.75.75 0 0 0 .022 1.325l1.59.81V11a.75.75 0 0 0 1.124.65l3.986-2.284a.1.1 0 0 1 .018-.006.2.2 0 0 1 .072.005c.075.015.174.06.268.133.956.752 2.334.883 3.467.257 1.457-.805 2.024-2.61 1.158-4.045a2.95 2.95 0 0 0-1.437-1.213 2.8 2.8 0 0 0-.386-1.807m-1.284.774c.155.256.214.54.185.82a3.2 3.2 0 0 0-1.24.383.75.75 0 0 0 .726 1.313c.315-.174.664-.237.997-.202.488.052.915.309 1.155.706.392.65.172 1.531-.6 1.957-.607.335-1.333.255-1.814-.123-.453-.356-1.27-.69-2.031-.255L13.75 9.705v-.706a.75.75 0 0 0-.41-.668l-.741-.378 2.878-1.59c.803-.443.91-1.368.829-1.942-.078-.54.19-1.136.777-1.46.788-.436 1.747-.169 2.152.503m-11.938 7.12a.75.75 0 0 0-1.337.18L4.474 15.28a.04.04 0 0 1-.01.016.3.3 0 0 1-.063.046.74.74 0 0 1-.314.082c-1.2.063-2.273.882-2.675 2.1-.518 1.572.25 3.33 1.815 3.884.627.222 1.274.21 1.857.013.34.522.841.942 1.47 1.165 1.58.56 3.248-.36 3.769-1.941.407-1.237.021-2.571-.913-3.363a.7.7 0 0 1-.184-.236.2.2 0 0 1-.02-.069q-.001-.014.001-.018l1.508-4.732a.75.75 0 0 0-1.05-.899l-1.406.704zm-.302 8.883c-.143.433-.37.816-.658 1.132.172.265.42.468.717.573.717.254 1.562-.142 1.843-.996.22-.668.001-1.36-.458-1.75-.434-.369-.927-1.093-.662-1.923l.968-3.038-.41.205a.75.75 0 0 1-.96-.256l-.473-.713-1.005 3.048c-.283.86-1.156 1.143-1.733 1.173-.56.03-1.113.42-1.328 1.072-.285.864.16 1.74.89 2 .433.153.895.073 1.266-.194.254-.184.464-.457.578-.803a.75.75 0 1 1 1.425.47M4.25 7.999c0 .414.336.75.75.75h2a.75.75 0 0 0 0-1.5H5a.75.75 0 0 0-.75.75M9 3.25a.75.75 0 0 0-.75.75v2a.75.75 0 1 0 1.5 0V4A.75.75 0 0 0 9 3.25M12.25 18a.75.75 0 0 0 1.5 0v-2a.75.75 0 0 0-1.5 0zM17 14.75a.75.75 0 0 0 0-1.5h-2a.75.75 0 0 0 0 1.5z" clip-rule="evenodd"/></svg>