<svg xmlns="http://www.w3.org/2000/svg" width="24" height="24" fill="none"><path fill="#141B34" fill-rule="evenodd" d="M12.808 1.312c.48.068.941.22 1.313.609.367.383.508.851.57 1.337.05.392.058.867.059 1.415v4.775l3.306 1.034c.979.305 1.774.554 2.395.83.646.287 1.174.632 1.57 1.172.398.54.57 1.146.651 1.85.069.59.077 1.301.078 2.157v3.554c0 .432 0 .83-.043 1.152-.048.356-.16.731-.47 1.04-.308.31-.684.422-1.04.47-.322.043-.72.043-1.152.043H4.223c-.572 0-1.087 0-1.49-.062-.439-.067-.912-.231-1.224-.695-.306-.455-.291-.955-.206-1.391.08-.41.252-.91.449-1.477L7.086 3.7c.154-.448.29-.84.437-1.15.158-.335.36-.645.684-.882.327-.24.682-.336 1.046-.379.268-.031.58-.037.926-.039h.999c.633 0 1.186 0 1.63.062m-1.057 1.44V14c0 .844-.043 1.572-.177 2.182-.136.619-.376 1.163-.802 1.59-.426.426-.97.665-1.589.801-.61.134-1.338.177-2.182.177H3.468l-.282.816-.133.388-.11.327c-.08.25-.136.445-.168.608a1 1 0 0 0-.022.263c.023.011.081.034.208.053.275.043.672.045 1.318.045h8.97V4.551c-.002-.483-.01-.83-.046-1.101-.042-.331-.112-.436-.165-.492-.05-.051-.137-.118-.44-.16a7 7 0 0 0-.847-.046m2.999 8.268v10.23h5.584c.3-.003.506-.009.663-.03a.7.7 0 0 0 .177-.042l.003-.001.003-.007a.7.7 0 0 0 .04-.173c.029-.21.03-.505.03-.997v-3.403c0-.914-.008-1.571-.068-2.091-.064-.559-.183-.88-.369-1.133s-.458-.463-.971-.69c-.532-.237-1.244-.46-2.276-.783zm3.75 7.23a.75.75 0 0 1 0 1.5h-1a.75.75 0 0 1 0-1.5zm-8.249-5.5H5.543l-1.556 4.5h3.014c.811 0 1.41-.043 1.86-.142.442-.097.69-.237.85-.397s.3-.41.398-.85c.099-.45.142-1.05.142-1.861zm8.25 2.5a.75.75 0 0 1 0 1.5h-1a.75.75 0 0 1 0-1.5zm-8.25-12.5a8 8 0 0 0-.823.029c-.215.025-.29.066-.334.098-.047.035-.114.1-.215.313-.108.228-.217.542-.388 1.036L6.062 11.25h4.189z" clip-rule="evenodd"/></svg>