<svg xmlns="http://www.w3.org/2000/svg" width="24" height="24" fill="none"><path fill="#141B34" fill-rule="evenodd" d="M7.2 1.25h.09c1.587 0 2.477 0 3.235.12a9.75 9.75 0 0 1 8.105 8.105c.12.758.12 1.648.12 3.235v8.54H20a.75.75 0 0 1 0 1.5H4a.75.75 0 0 1 0-1.5h1.25V3.2c0-.542.168-1.054.554-1.429.382-.371.888-.521 1.396-.521m-.45 20V3.2c0-.234.067-.322.1-.353.035-.035.129-.097.35-.097 1.7 0 2.464.002 3.09.102A8.25 8.25 0 0 1 16.78 8.25H14a.75.75 0 0 0 0 1.5h3a1 1 0 0 0 .152-.015c.085.55.096 1.21.098 2.515H14a.75.75 0 0 0 0 1.5h3.25v2.5H14a.75.75 0 0 0 0 1.5h3.25v3.5z" clip-rule="evenodd"/></svg>