<svg xmlns="http://www.w3.org/2000/svg" width="24" height="24" fill="none"><path fill="#141B34" fill-rule="evenodd" d="M18.584 1.286c-.57.114-1.032.487-1.323.993l-.923 1.604c-.34.59-.625 1.087-.812 1.52-.199.459-.318.914-.264 1.42.055.504.268.925.559 1.333.274.385.66.814 1.118 1.324l2.294 2.553c-.43.683-.91 1.35-1.43 1.996a.75.75 0 0 0 1.166.942 22 22 0 0 0 1.84-2.641c1.022-1.726 1.524-3.155 1.826-4.603.492-2.365-.644-4.61-2.41-6.006-.485-.382-1.067-.55-1.64-.435m1.434 9.377-1.936-2.154c-.493-.55-.82-.916-1.04-1.224-.208-.292-.272-.469-.288-.623-.017-.153.007-.338.149-.664.148-.345.39-.768.756-1.404l.902-1.567c.108-.188.232-.253.318-.27.082-.017.225-.01.416.141 1.429 1.13 2.222 2.839 1.871 4.523a12.4 12.4 0 0 1-1.148 3.242M3.88 16.339l-1.603.922c-.505.291-.879.754-.993 1.324-.114.574.053 1.156.436 1.64 1.394 1.766 3.639 2.903 6.003 2.41 1.448-.301 2.875-.803 4.6-1.825a23 23 0 0 0 4.205-3.22l4.94 4.94a.75.75 0 1 0 1.061-1.06l-20-20a.75.75 0 0 0-1.06 1.06L15.468 16.53a22 22 0 0 1-3.44 2.704L9.476 16.94c-.51-.459-.938-.844-1.323-1.118-.408-.291-.829-.504-1.333-.559-.505-.054-.96.065-1.42.263-.432.187-.929.473-1.519.813m6.777 3.68a12.4 12.4 0 0 1-3.24 1.148c-1.683.35-3.392-.442-4.52-1.872-.15-.19-.158-.334-.142-.416.017-.085.082-.21.27-.318l1.567-.901c.636-.366 1.059-.608 1.403-.757.326-.141.51-.165.663-.148.154.016.33.08.623.288.308.22.674.547 1.223 1.04z" clip-rule="evenodd"/></svg>