<svg xmlns="http://www.w3.org/2000/svg" width="24" height="24" fill="none"><path fill="#141B34" fill-rule="evenodd" d="M5.976 3.75c.697 0 .886.008 1.04.055.225.07.427.2.581.378.106.122.19.291.473.928l.403.906c.306.69.38.88.397 1.055.019.195-.009.392-.08.575-.064.164-.187.326-.67.906l-.065.078c-.384.46-.689.825-.854 1.278a2.9 2.9 0 0 0-.138 1.348c.055.376.186.673.353 1a.75.75 0 0 0 1.336-.683c-.144-.28-.186-.404-.205-.536-.027-.182 0-.44.063-.614.064-.178.182-.335.662-.91l.068-.082c.383-.46.684-.82.848-1.24.156-.402.216-.834.175-1.262-.042-.451-.233-.88-.476-1.426l-.044-.096-.402-.906-.04-.09c-.224-.504-.399-.9-.671-1.213a2.76 2.76 0 0 0-1.275-.828c-.397-.122-.829-.121-1.38-.121h-.127c-.45 0-.831 0-1.148.025a2.8 2.8 0 0 0-.957.225c-.655.3-1.221.924-1.457 1.605-.198.572-.141 1.154-.07 1.885l.012.122c.328 3.396 1.221 6.28 2.712 8.619a.75.75 0 1 0 1.265-.806C4.97 11.83 4.132 9.19 3.82 5.968c-.088-.912-.095-1.147-.018-1.372.102-.294.382-.602.665-.732.09-.04.212-.075.45-.093.251-.02.572-.02 1.058-.02m3.207 10.007q-.003 0-.004.004-.003 0-.004.004l-2.25 2.25-.008.008L2.47 20.47a.75.75 0 1 0 1.06 1.06l3.936-3.935c2.59 2.319 6.087 3.659 10.422 4.077l.122.012c.73.071 1.313.128 1.885-.07a2.87 2.87 0 0 0 1.605-1.457 2.8 2.8 0 0 0 .225-.957c.025-.317.025-.698.025-1.148v-.126c0-.552 0-.984-.12-1.381a2.76 2.76 0 0 0-.83-1.275c-.313-.272-.708-.447-1.212-.671l-.09-.04-.906-.402-.096-.043c-.547-.244-.975-.435-1.426-.478-.428-.04-.86.02-1.261.176-.422.164-.782.465-1.241.848l-.081.068c-.576.48-.733.598-.91.662-.174.064-.433.09-.616.063-.19-.028-.333-.094-.894-.394a9 9 0 0 1-1.263-.802l1.726-1.727 9-9a.75.75 0 0 0-1.06-1.06zm.553 1.568-1.208 1.207c2.29 2.02 5.435 3.254 9.504 3.647.912.088 1.147.095 1.372.018.294-.102.602-.382.732-.665.04-.09.075-.212.093-.45.02-.251.02-.572.02-1.058 0-.697-.007-.886-.054-1.04a1.26 1.26 0 0 0-.378-.582c-.122-.105-.291-.189-.928-.472l-.906-.403c-.69-.306-.88-.38-1.055-.397a1.26 1.26 0 0 0-.575.08c-.164.064-.326.187-.906.67l-.078.065c-.46.384-.825.689-1.278.854a2.9 2.9 0 0 1-1.348.138c-.477-.07-.85-.27-1.314-.518l-.07-.037a10 10 0 0 1-1.623-1.058" clip-rule="evenodd"/></svg>