<svg xmlns="http://www.w3.org/2000/svg" width="25" height="24" fill="none"><path fill="#141B34" fill-rule="evenodd" d="M16.803 7.279a.75.75 0 0 0 1.404-.527c1.722.008 2.14.064 2.662.464q.238.183.416.416c.465.606.465 1.696.465 3.869v4.5c0 2.618 0 3.932-.66 4.591-.658.659-1.972.659-4.59.659h-8c-2.618 0-3.932 0-4.591-.66-.659-.658-.659-1.972-.659-4.59v-4.5c0-2.172 0-3.263.465-3.869a2.2 2.2 0 0 1 .415-.416c.523-.4.941-.457 2.66-.464a.75.75 0 0 0 1.405.527l.886-2.215q.06-.147.118-.299c.305-.784.594-1.524 1.216-1.832.368-.182.94-.182 2.084-.182 1.143 0 1.716 0 2.084.182.622.308.911 1.048 1.216 1.832l.085.216.033.083zM7.39 5.25l.298-.744.092-.235.021-.052c.36-.922.805-2.066 1.948-2.632.682-.338 1.417-.338 2.75-.338s2.068 0 2.75.338c1.143.566 1.589 1.71 1.948 2.631v.001l.047.12.066.167.298.744c2.364 0 3.18.011 4.175.775q.396.304.693.694c.774 1.009.774 2.27.774 4.781v4.5c0 2.936 0 4.554-1.099 5.652-1.097 1.098-2.715 1.098-5.651 1.098h-8c-2.936 0-4.553 0-5.652-1.099-1.098-1.097-1.098-2.715-1.098-5.651v-4.5c0-2.512 0-3.773.775-4.783q.3-.39.692-.692c.995-.763 1.81-.775 4.173-.775m5.088 13.997a.75.75 0 0 1-.75-.75v-.813c-1.868-.338-2.994-1.676-3.44-2.915a.75.75 0 1 1 1.41-.509c.116.321.794 1.921 2.794 2.002.488-.003 2.065-.164 2.823-2.029a.75.75 0 1 1 1.39.564c-.742 1.826-2.173 2.67-3.476 2.898v.8a.75.75 0 0 1-.75.75zm-2.474-5.989a2.49 2.49 0 0 0 2.488 2.49 2.49 2.49 0 0 0 2.488-2.49v-2.016a2.49 2.49 0 0 0-2.488-2.489 2.49 2.49 0 0 0-2.488 2.489zm1.5-2.016a.99.99 0 0 1 .988-.989.99.99 0 0 1 .988.989v2.016a.99.99 0 0 1-.988.99.99.99 0 0 1-.988-.99z" clip-rule="evenodd"/></svg>