<svg xmlns="http://www.w3.org/2000/svg" width="25" height="24" fill="none"><path fill="#141B34" fill-rule="evenodd" d="M7.5 7.75a.75.75 0 0 1-.71-.99c-.71.017-1.133.066-1.451.199a2.72 2.72 0 0 0-1.396 1.33c-.238.49-.284 1.241-.376 2.735l-.001.014-.155 2.51v.006c-.232 3.762-.349 5.65.602 6.676.947 1.021 2.812 1.021 6.528 1.021h3.917c3.716 0 5.582 0 6.528-1.021.95-1.025.834-2.916.6-6.682l-.154-2.51v-.005c-.092-1.498-.138-2.25-.377-2.744a2.72 2.72 0 0 0-1.395-1.33c-.318-.133-.74-.182-1.45-.2a.75.75 0 0 1-1.407.519l-.885-2.215-.12-.304c-.305-.782-.593-1.52-1.214-1.827-.367-.182-.941-.182-2.085-.182s-1.716 0-2.083.182c-.624.308-.912 1.048-1.217 1.832v.001l-.118.299-.886 2.215a.75.75 0 0 1-.697.472zm12.74-2.174c-.685-.288-1.458-.32-2.631-.325l-.298-.746-.115-.291c-.358-.918-.804-2.062-1.946-2.626-.681-.338-1.417-.338-2.75-.338s-2.067 0-2.748.338c-1.143.565-1.59 1.71-1.948 2.63l-.001.002-.04.103-.073.183-.298.745c-1.173.006-1.948.036-2.633.324a4.22 4.22 0 0 0-2.166 2.06c-.365.756-.418 1.607-.523 3.299v.01l-.155 2.511c-.26 4.192-.388 6.297.999 7.793 1.392 1.501 3.476 1.501 7.628 1.501h3.917l-.002.002c4.152 0 6.236 0 7.628-1.501 1.388-1.496 1.258-3.601.999-7.794l-.155-2.51c-.103-1.698-.156-2.55-.523-3.31a4.22 4.22 0 0 0-2.165-2.06M9.9 16.45c.039.053.992 1.3 2.597 1.3v-.001c1.606 0 2.558-1.247 2.598-1.3a.75.75 0 0 0-.15-1.052.747.747 0 0 0-1.048.149c-.023.028-.581.704-1.4.704-.822 0-1.368-.665-1.4-.703v-.001a.75.75 0 0 0-1.197.904M14.746 12c0 .414.34.75.755.75a.75.75 0 0 0 0-1.5h-.01a.746.746 0 0 0-.745.75m-5.99 0c0 .414.34.75.754.75a.75.75 0 0 0 0-1.5H9.5a.746.746 0 0 0-.744.75" clip-rule="evenodd"/></svg>