<svg xmlns="http://www.w3.org/2000/svg" width="25" height="24" fill="none"><path fill="#141B34" fill-rule="evenodd" d="M12.469 1.25h.063c.604 0 1.104 0 1.517.035.432.037.823.116 1.2.302.672.333 1.097.862 1.396 1.392.23.411.41.873.562 1.264l.104.264.297.744c1.127.004 1.936.03 2.633.324a4.22 4.22 0 0 1 2.166 2.06c.2.415.302.86.37 1.378.066.504.104 1.126.152 1.904l.16 2.595c.12 1.944.215 3.48.126 4.684-.09 1.237-.38 2.246-1.129 3.053-.75.808-1.73 1.166-2.946 1.336-1.183.165-2.703.165-4.623.165h-4.034c-1.92 0-3.44 0-4.623-.165-1.217-.17-2.197-.528-2.946-1.336-.748-.807-1.038-1.816-1.13-3.053-.088-1.205.007-2.74.127-4.684l.16-2.595c.048-.778.086-1.4.152-1.904.067-.518.17-.963.37-1.378a4.22 4.22 0 0 1 2.165-2.06c.698-.293 1.507-.32 2.634-.324l.298-.744.103-.263c.152-.392.332-.854.563-1.265.298-.53.723-1.059 1.395-1.392.377-.186.768-.265 1.2-.302.414-.035.914-.035 1.518-.035m5.31 6.446a.75.75 0 0 0 .431-.937c.76.018 1.144.07 1.45.199a2.72 2.72 0 0 1 1.396 1.33c.102.21.176.478.233.919.059.447.094 1.018.144 1.83l.155 2.51c.124 2.014.211 3.448.131 4.54-.079 1.07-.312 1.688-.733 2.142-.42.453-1.01.725-2.054.87-1.067.15-2.482.151-4.474.151h-3.916c-1.992 0-3.407-.002-4.475-.15-1.044-.146-1.634-.418-2.053-.871-.422-.454-.655-1.072-.733-2.143-.08-1.091.006-2.525.13-4.539l.155-2.51c.05-.812.086-1.383.144-1.83.058-.44.132-.709.233-.92a2.72 2.72 0 0 1 1.396-1.33c.307-.128.69-.18 1.451-.198a.75.75 0 0 0 1.407.52l.885-2.215.129-.326c.148-.38.278-.715.452-1.024.21-.372.442-.628.753-.782.147-.073.334-.124.663-.152.342-.03.778-.03 1.421-.03.644 0 1.08 0 1.421.03.33.028.516.079.663.152.31.154.544.41.753.782.174.31.304.643.453 1.024q.06.157.128.326l.886 2.215a.75.75 0 0 0 .975.417m-4.586 3.015a.75.75 0 0 0-1.385 0l-1.78 4.27-.013.032-.707 1.699a.75.75 0 0 0 1.385.576l.521-1.252h2.572l.522 1.252a.75.75 0 0 0 1.385-.576l-.708-1.699-.013-.031zM12.5 12.95l.66 1.586h-1.32zm0-7.95a1 1 0 1 0 0 2h.009a1 1 0 1 0 0-2z" clip-rule="evenodd"/></svg>