<svg xmlns="http://www.w3.org/2000/svg" width="25" height="24" fill="none"><path fill="#141B34" fill-rule="evenodd" d="M12.532 1.25h-.063c-.604 0-1.104 0-1.517.035-.433.037-.824.116-1.201.302-.672.333-1.097.862-1.395 1.392-.231.411-.41.873-.563 1.264l-.103.264-.298.744c-1.127.004-1.936.03-2.634.324a4.22 4.22 0 0 0-2.165 2.06c-.2.415-.303.86-.37 1.378-.066.504-.104 1.126-.152 1.904l-.16 2.595c-.12 1.944-.215 3.48-.126 4.684.09 1.237.38 2.246 1.129 3.053.749.808 1.729 1.166 2.946 1.336 1.183.165 2.703.165 4.623.165h4.034c1.92 0 3.44 0 4.623-.165 1.217-.17 2.197-.528 2.946-1.336.748-.807 1.038-1.816 1.129-3.053.088-1.205-.006-2.74-.126-4.684l-.16-2.595c-.048-.778-.086-1.4-.152-1.904-.068-.518-.17-.963-.37-1.378a4.22 4.22 0 0 0-2.166-2.06c-.697-.293-1.506-.32-2.633-.324l-.297-.744q-.05-.125-.104-.264c-.152-.391-.331-.853-.562-1.264-.299-.53-.723-1.059-1.395-1.392-.378-.186-.769-.265-1.201-.302-.413-.035-.913-.035-1.517-.035m5.678 5.509a.75.75 0 0 1-1.406.52l-.886-2.215-.128-.326c-.149-.38-.279-.715-.453-1.024-.21-.372-.442-.628-.753-.782-.147-.073-.333-.124-.663-.152-.341-.03-.777-.03-1.42-.03-.644 0-1.08 0-1.422.03-.33.028-.516.079-.663.152-.31.154-.543.41-.753.782-.174.31-.304.643-.452 1.024l-.129.326-.885 2.215a.75.75 0 0 1-1.407-.52c-.76.018-1.144.07-1.451.199a2.72 2.72 0 0 0-1.396 1.33c-.101.21-.175.478-.233.919-.058.447-.094 1.018-.144 1.83l-.154 2.51c-.125 2.014-.211 3.448-.131 4.54.078 1.07.311 1.688.733 2.142.42.453 1.009.725 2.053.87 1.068.15 2.483.151 4.475.151h3.916c1.992 0 3.407-.002 4.474-.15 1.045-.146 1.634-.418 2.054-.871.421-.454.654-1.072.733-2.143.08-1.091-.007-2.525-.13-4.539l-.156-2.51c-.05-.812-.085-1.383-.144-1.83-.057-.44-.13-.709-.233-.92a2.72 2.72 0 0 0-1.395-1.33c-.307-.128-.69-.18-1.45-.198M12.5 11.25a2.75 2.75 0 1 0 0 5.5 2.75 2.75 0 0 0 0-5.5M8.25 14a4.25 4.25 0 1 1 8.5 0 4.25 4.25 0 0 1-8.5 0m4.25-9a1 1 0 1 0 0 2h.009a1 1 0 1 0 0-2z" clip-rule="evenodd"/></svg>