<svg xmlns="http://www.w3.org/2000/svg" width="25" height="24" fill="none"><path fill="#141B34" fill-rule="evenodd" d="M21.974 22.53a.748.748 0 0 0 1.061 0 .75.75 0 0 0 0-1.06l-20-20a.75.75 0 1 0-1.061 1.06L4.792 5.35c-.6.098-1.08.292-1.581.679-.272.21-.497.436-.688.689-.77 1.01-.77 2.272-.77 4.784V16c0 2.933 0 4.549 1.092 5.648 1.093 1.102 2.7 1.102 5.62 1.102h7.951c2.487 0 4.022 0 5.098-.68zm-1.576-1.575-4.243-4.243a4.2 4.2 0 0 1-3.238 1.539c-2.295 0-4.163-1.857-4.163-4.14 0-1.28.59-2.461 1.566-3.234L6.197 6.754c-1.307.02-1.637.128-2.07.46a2.2 2.2 0 0 0-.408.409c-.465.61-.465 1.703-.465 3.878V16c0 2.617 0 3.93.656 4.592.653.658 1.958.658 4.556.658h7.949c1.99 0 3.222 0 3.983-.296m-9.006-9.006a2.63 2.63 0 0 0-1.14 2.163c0 1.456 1.196 2.64 2.665 2.64.865 0 1.675-.424 2.17-1.109zm11.106 6.302h-.012a.75.75 0 0 1-.738-.762c.007-.444.007-.95.007-1.487V11.5c0-2.167 0-3.26-.461-3.868a2.5 2.5 0 0 0-.42-.417c-.522-.4-.94-.456-2.661-.463a.75.75 0 0 1-1.404.527l-.394-.984-.006-.016-.006-.015-.48-1.194-.115-.294c-.306-.788-.595-1.532-1.221-1.845-.366-.181-.939-.181-2.081-.181h-.001c-1.143 0-1.716 0-2.084.182-.6.296-.868.967-1.179 1.744l-.001.003-.04.1a.75.75 0 1 1-1.393-.557l.039-.098c.37-.93.792-1.985 1.908-2.536.68-.337 1.416-.337 2.749-.337s2.068 0 2.75.338c1.145.57 1.592 1.719 1.95 2.64l.002.005.063.162.046.118.296.737c2.365 0 3.18.01 4.176.775.245.188.474.416.683.676l.003.004.007.009c.774 1.012.774 2.273.774 4.786v4.501c0 .543 0 1.055-.007 1.51a.75.75 0 0 1-.75.739zM12.513 7a1.005 1.005 0 0 1-1.005-1c0-.552.443-1 .996-1h.009a1 1 0 0 1 0 2" clip-rule="evenodd"/></svg>