<svg xmlns="http://www.w3.org/2000/svg" width="25" height="24" fill="none"><path fill="#141B34" fill-rule="evenodd" d="M17.5 7.751a.75.75 0 0 1-.697-.472l-.886-2.215-.033-.084-.085-.215c-.305-.784-.594-1.524-1.216-1.832-.368-.182-.941-.182-2.084-.182s-1.716 0-2.084.182c-.622.308-.911 1.048-1.216 1.832q-.058.151-.118.299l-.886 2.215a.75.75 0 0 1-1.404-.527c-1.72.008-2.138.063-2.661.464q-.235.181-.415.416c-.465.606-.465 1.697-.465 3.869v4.5c0 2.618 0 3.932.659 4.59.659.66 1.973.66 4.59.66H16.5c2.618 0 3.932 0 4.59-.659.66-.659.66-1.973.66-4.591v-4.5c0-2.173 0-3.263-.465-3.87a2.3 2.3 0 0 0-.416-.415c-.522-.4-.94-.456-2.662-.464a.75.75 0 0 1-.707.999M7.688 4.507l-.298.744c-2.363 0-3.178.012-4.173.775q-.392.302-.692.692c-.775 1.01-.775 2.271-.775 4.783v4.5c0 2.936 0 4.554 1.098 5.651 1.099 1.099 2.716 1.099 5.652 1.099h8.001c2.936 0 4.554 0 5.651-1.098 1.099-1.098 1.099-2.716 1.099-5.652v-4.5c0-2.512 0-3.772-.776-4.783q-.301-.391-.692-.692c-.995-.764-1.81-.775-4.175-.775l-.298-.744-.066-.167-.047-.12v-.001c-.36-.92-.805-2.065-1.948-2.631-.682-.338-1.417-.338-2.75-.338s-2.068 0-2.75.338c-1.143.566-1.589 1.71-1.948 2.631v.001l-.018.046zM9.901 16.45c.04.053.993 1.3 2.6 1.3v.001c1.607 0 2.56-1.247 2.6-1.3a.753.753 0 0 0-.148-1.053.747.747 0 0 0-1.049.148c-.023.028-.58.704-1.403.704-.83 0-1.377-.672-1.404-.704v-.001a.75.75 0 0 0-1.196.905m4.855-4.45c0 .414.34.75.754.75a.75.75 0 0 0 0-1.5h-.01a.746.746 0 0 0-.744.75m-6 0c0 .414.34.75.754.75a.75.75 0 0 0 0-1.5H9.5a.746.746 0 0 0-.744.75" clip-rule="evenodd"/></svg>