<svg xmlns="http://www.w3.org/2000/svg" width="24" height="24" fill="none"><path fill="#141B34" fill-rule="evenodd" d="M12.055 1.75h-.114c-2.19 0-3.912 0-5.255.18-1.377.186-2.469.573-3.327 1.43-.858.86-1.245 1.951-1.43 3.328-.181 1.343-.181 3.064-.18 5.255v.114c-.001 2.19-.001 3.912.18 5.255.185 1.377.572 2.469 1.43 3.327s1.95 1.245 3.327 1.43c1.343.181 3.064.181 5.255.181h.114c2.19 0 3.912 0 5.255-.18 1.377-.186 2.469-.573 3.327-1.43.858-.86 1.245-1.951 1.43-3.328.181-1.343.181-3.064.181-5.255v-.114c0-2.19 0-3.912-.18-5.255-.186-1.377-.573-2.469-1.43-3.327-.86-.858-1.951-1.245-3.328-1.43-1.343-.181-3.064-.181-5.255-.181M4.42 4.422c.533-.533 1.256-.842 2.466-1.005 1.232-.165 2.852-.167 5.112-.167s3.88.002 5.112.167c1.21.163 1.933.472 2.467 1.005.532.533.841 1.256 1.004 2.466.166 1.232.167 2.852.167 5.112s-.002 3.88-.167 5.112c-.163 1.21-.471 1.933-1.005 2.466s-1.256.842-2.466 1.005c-1.232.165-2.852.167-5.112.167s-3.88-.002-5.112-.167c-1.21-.163-1.933-.471-2.466-1.005s-.842-1.256-1.005-2.466C3.25 15.88 3.248 14.26 3.248 12s.002-3.88.167-5.112c.163-1.21.472-1.933 1.005-2.466M8.4 6.75h-.048c-.524 0-.993 0-1.372.053-.416.058-.832.193-1.17.544-.207.217-.414.457-.5.881-.06.292-.06.679-.06 1.178V9.5c0 .28.156.536.404.665L9.177 12l-3.523 1.835a.75.75 0 0 0-.404.665v.094c0 .5 0 .886.06 1.178.086.424.293.664.5.881.338.351.754.486 1.17.544.38.053.848.053 1.372.053h4.899c.524 0 .993 0 1.372-.053.416-.058.832-.193 1.169-.544.208-.217.415-.457.501-.881l.011-.06 1.35.703a.75.75 0 0 0 .693-1.33l-2.363-1.23a1 1 0 0 0-.072-.039L12.424 12l3.488-1.816a1 1 0 0 0 .072-.038l2.363-1.23a.75.75 0 1 0-.693-1.331l-1.35.703-.01-.06c-.087-.424-.294-.664-.502-.881-.337-.351-.753-.486-1.17-.544-.378-.053-.848-.053-1.372-.053H8.401m6.451 2.295-4.05 2.11-4.05-2.11.004-.223a2 2 0 0 1 .029-.313c.007-.01.029-.04.109-.123v-.001c.016-.016.061-.064.295-.096.263-.037.625-.039 1.213-.039h4.8c.589 0 .951.002 1.214.039.233.032.279.08.294.096.08.084.103.113.11.124l.005.02c.008.043.018.125.023.293q.004.099.004.223m-8.1 5.91 4.05-2.11 4.05 2.11q0 .125-.004.223a2 2 0 0 1-.028.313c-.007.01-.03.04-.11.123v.001c-.015.017-.06.064-.294.096-.263.037-.625.039-1.213.039H8.4c-.588 0-.95-.002-1.213-.039-.234-.032-.279-.08-.294-.096h-.001a1 1 0 0 1-.11-.124l-.004-.02a2 2 0 0 1-.024-.293z" clip-rule="evenodd"/></svg>