<svg xmlns="http://www.w3.org/2000/svg" width="24" height="24" fill="none"><path fill="#141B34" fill-rule="evenodd" d="M7.04 14.33h-.288c-.033-.73.509-1.675 1.079-1.85 1.329-.414 2.849-.65 4.169-.65s2.84.236 4.17.65c.568.175 1.109 1.117 1.078 1.85H7.039m-.79 1.436v6.312a.75.75 0 0 0 1.5 0v-3.25h8.5v3.25a.75.75 0 0 0 1.5 0v-6.314a1.37 1.37 0 0 0 .983-1.192c.11-1.02-.326-2.119-1.03-2.834l.33-3.342c.123-1.257.222-2.26.217-3.062-.006-.822-.119-1.531-.492-2.16-.676-1.137-1.765-1.577-2.813-1.743-.779-.124-1.634-.107-2.354-.094-.21.004-.41.008-.591.008q-.274-.001-.591-.008c-.72-.013-1.575-.03-2.354.094-1.048.166-2.137.606-2.813 1.743-.373.629-.486 1.338-.492 2.16-.005.802.094 1.805.217 3.062l.33 3.34c-.705.716-1.142 1.816-1.032 2.837.064.587.448 1.034.985 1.193m10 .063v1.5h-8.5v-1.5zM7.464 8.292l.262 2.653c1.382-.393 2.92-.617 4.273-.617 1.354 0 2.892.224 4.275.617l.262-2.653c.129-1.31.219-2.234.214-2.948-.005-.703-.104-1.104-.282-1.403-.36-.608-.949-.9-1.758-1.028-.635-.101-1.3-.09-1.992-.076q-.355.007-.718.008-.364-.001-.717-.008c-.694-.013-1.358-.025-1.993.076-.81.128-1.397.42-1.758 1.028-.178.299-.277.7-.282 1.403-.005.714.085 1.638.214 2.948" clip-rule="evenodd"/></svg>