<svg xmlns="http://www.w3.org/2000/svg" width="24" height="24" fill="none"><path fill="#141B34" fill-rule="evenodd" d="M15.217 3.728a.75.75 0 0 0-.364-1.455c-1.506.376-2.396 1.293-2.81 2.014a3.25 3.25 0 0 0-2.758 3.205c-2.722 1.033-4.69 1.813-5.953 2.43-.658.32-1.189.627-1.537.937a1.7 1.7 0 0 0-.46.61 1.1 1.1 0 0 0-.055.689l.975 4.303.01.045c.241 1.088.437 1.97.68 2.659.253.718.584 1.308 1.145 1.759.56.45 1.208.645 1.964.737.726.088 1.63.088 2.743.088h8.674c.82 0 1.506 0 2.056-.07.582-.076 1.11-.24 1.554-.642s.659-.911.79-1.483c.125-.541.192-1.224.273-2.04l.004-.046v-.003l.58-5.644a2 2 0 0 0 .02-.303c-.035-1.023-.243-1.907-.771-2.774-.515-.846-1.305-1.628-2.412-2.506a4.26 4.26 0 0 0-2.982-.914c-.567.045-1.038.11-1.43.252a3.26 3.26 0 0 0-1.378-1.08 3.2 3.2 0 0 1 1.442-.768m6.03 7.819v.01l-.006.056q-.008.024-.011.025c-.01.012-.046.053-.156.1q-.367.157-1.197.183c-.352.01-.703.005-1.063 0q-.304-.007-.619-.008c-.521-.001-1.128.014-1.582.171a1.3 1.3 0 0 0-.717.623 2.5 2.5 0 0 0-.223.604c-.19.75-.344 1.255-.519 1.59-.161.31-.287.379-.394.407l-.02.003h-.006c-.05-.07-.104-.19-.163-.429a10 10 0 0 1-.091-.433l-.004-.022c-.03-.156-.066-.333-.108-.517-.342-1.487-1.793-2.104-3.025-2.058l-.965.038h-.003c-1.529.061-2.99.12-4.307.088-1.12-.027-2.074-.12-2.832-.307.194-.116.442-.25.754-.402C5.156 10.7 7 9.964 9.633 8.965A3.25 3.25 0 0 0 15.74 6.96c.17-.05.46-.102.963-.142a2.76 2.76 0 0 1 1.93.595c1.056.837 1.684 1.488 2.062 2.11.362.594.523 1.206.553 2.023m-.18 1.753-.302 2.95h-2.203a.75.75 0 0 0 0 1.5h2.05c-.064.645-.12 1.107-.202 1.467-.096.414-.208.592-.337.708-.128.117-.316.211-.738.266-.443.057-1.032.058-1.913.058H8.844c-1.172 0-1.985-.001-2.609-.077-.604-.073-.945-.208-1.206-.418-.262-.21-.467-.514-.67-1.088a11 11 0 0 1-.267-.916h6.96a.75.75 0 0 0 0-1.5H3.744l-.026-.115-.672-2.968c.9.202 1.923.285 2.985.31 1.369.034 2.89-.027 4.42-.088l.947-.038c.815-.03 1.386.368 1.508.896.036.159.066.314.098.475l.003.015c.032.162.066.335.106.502.08.324.204.711.474 1.041.402.49 1.037.614 1.552.48.654-.172 1.065-.628 1.345-1.165.266-.512.456-1.178.642-1.918a2 2 0 0 1 .06-.199c.194-.045.521-.066 1.005-.065.165 0 .349.003.541.006.386.006.807.013 1.192.001.368-.012.766-.04 1.143-.12M10.786 7.5a1.75 1.75 0 1 1 3.5 0 1.75 1.75 0 0 1-3.5 0" clip-rule="evenodd"/></svg>