<svg xmlns="http://www.w3.org/2000/svg" width="25" height="24" fill="none"><path fill="#141B34" fill-rule="evenodd" d="M17.92 11.743v1.868q.267.09.522.189a.75.75 0 0 1-.544 1.398c-1.573-.612-3.607-.949-5.728-.949s-4.155.337-5.728.949a.75.75 0 0 1-.544-1.398q.255-.099.522-.19v-1.866a4.357 4.357 0 0 1-4.002-4.34c0-2.296 1.951-4.353 4.35-4.353.575 0 1.137.112 1.659.328a4.36 4.36 0 0 1 3.741-2.129 4.36 4.36 0 0 1 3.741 2.129 4.356 4.356 0 0 1 6.009 4.025c0 2.372-1.75 4.161-3.998 4.34M16.42 10v3.197a19.8 19.8 0 0 0-4.25-.447c-1.484 0-2.938.155-4.25.447V9.999a.75.75 0 0 0-1.5 0v.237c-1.416-.167-2.502-1.311-2.502-2.832a2.855 2.855 0 0 1 2.85-2.853c.563 0 1.106.164 1.571.473l.026.017c.356.241.657.565.872.937a.751.751 0 0 0 1.299-.751 4.4 4.4 0 0 0-.841-1.044 2.86 2.86 0 0 1 2.474-1.434c1.204 0 2.281.761 2.685 1.894l.002.006.008.022q.155.449.155.931 0 .367-.089.713a.75.75 0 1 0 1.453.374 4.34 4.34 0 0 0 .06-1.907 2.855 2.855 0 0 1 3.977 2.621 2.855 2.855 0 0 1-2.5 2.832v-.236a.75.75 0 0 0-1.5 0m-10 7a5.756 5.756 0 0 0 5.75 5.75 5.756 5.756 0 0 0 5.75-5.75.75.75 0 0 0-1.5 0 4.255 4.255 0 0 1-4.25 4.25 4.255 4.255 0 0 1-4.25-4.25.75.75 0 0 0-1.5 0" clip-rule="evenodd"/></svg>