<svg xmlns="http://www.w3.org/2000/svg" width="24" height="24" fill="none"><path fill="#141B34" fill-rule="evenodd" d="M8.25 3.4v1.75c0 .315.107.616.297.852l1.737 2.154a.24.24 0 0 0 .169.092h3.094a.24.24 0 0 0 .169-.092l1.737-2.154a1.36 1.36 0 0 0 .297-.852V3.4l-1.482 1.277a1.73 1.73 0 0 1-1.13.421h-2.276a1.73 1.73 0 0 1-1.13-.421zm.866 5.698q.046.056.097.11l-.882 5.739c-.09.593-.464 1.258-1.001 2q-.11.15-.224.301H6a.75.75 0 0 0-.047 1.499q-.12.167-.231.332c-.355.532-.54 1.342-.449 2.044.048.362.178.768.474 1.093.314.346.753.532 1.262.532h9.982c.509 0 .947-.186 1.262-.532.296-.325.426-.73.474-1.093.091-.702-.095-1.512-.449-2.044q-.11-.164-.231-.332A.75.75 0 0 0 18 17.248h-1.107q-.113-.15-.223-.302c-.537-.741-.91-1.406-1.001-1.999l-.882-5.74a2 2 0 0 0 .097-.11l1.736-2.153a2.86 2.86 0 0 0 .63-1.794V2.206c0-.767-.913-1.29-1.568-.727l.489.567-.489-.567L13.29 3.54a.23.23 0 0 1-.151.058h-2.276a.23.23 0 0 1-.15-.058L8.316 1.48c-.654-.564-1.567-.04-1.567.727V5.15c0 .652.221 1.287.63 1.794zm5.942 8.15c-.406-.631-.759-1.336-.872-2.073l-.833-5.426h-2.706l-.833 5.426c-.113.737-.467 1.442-.873 2.073zm-7.216 1.5-.05.064-.105.134a16 16 0 0 0-.716.964c-.143.213-.258.655-.21 1.019.022.17.071.251.096.279h.001c.008.01.034.04.151.04h9.982c.117 0 .143-.03.15-.04h.002c.025-.028.074-.108.096-.28.048-.363-.067-.805-.21-1.018a16 16 0 0 0-.716-.964l-.105-.134-.05-.064z" clip-rule="evenodd"/></svg>