<svg xmlns="http://www.w3.org/2000/svg" width="24" height="24" fill="none"><path fill="#141B34" fill-rule="evenodd" d="M13.796 1.342c.224.06.483.19.752.334.286.154.662.368 1.145.644l.01.007c.856.489 2.01.923 3.297.923a.75.75 0 0 1 .67 1.086l-.17.341a3.75 3.75 0 0 1-1.75 1.713v3.28c.726.613 2.331 1.58 4.25 1.58a.75.75 0 0 1 .67 1.085l-.17.342a3.75 3.75 0 0 1-2.75 2.024v6.55H21a.75.75 0 0 1 0 1.5H3a.75.75 0 0 1 0-1.5h1.25V14.7a3.75 3.75 0 0 1-2.75-2.024l-.17-.341A.75.75 0 0 1 2 11.25c1.919 0 3.524-.967 4.25-1.58V6.39A3.75 3.75 0 0 1 4.5 4.677l-.17-.341A.75.75 0 0 1 5 3.25c1.287 0 2.441-.434 3.296-.923l.01-.006c.483-.276.86-.491 1.146-.645.269-.144.528-.274.752-.334.3-.08.658-.09 1.11-.092h1.139c.564 0 .994 0 1.343.092M18.25 14.75H5.75v6.5h3.5V19a2.75 2.75 0 1 1 5.5 0v2.25h3.5zm-6.25 3c-.69 0-1.25.56-1.25 1.25v2.25h2.5V19c0-.69-.56-1.25-1.25-1.25m4.706-7H7.294c-.738.643-2.177 1.562-3.987 1.884.41.389.962.616 1.547.616h14.292a2.25 2.25 0 0 0 1.547-.616c-1.81-.322-3.249-1.24-3.987-1.884M16.25 6.75l-.104.001H7.854L7.75 6.75V9.25h8.5zM12.665 2.75h-1.33c-.471.002-.635.012-.746.041l-.03.01q-.03.012-.088.038a6 6 0 0 0-.31.158c-.266.143-.625.347-1.12.63a8.6 8.6 0 0 1-2.734 1.006c.41.389.962.616 1.547.616h8.292a2.25 2.25 0 0 0 1.547-.616 8.6 8.6 0 0 1-2.734-1.005 55 55 0 0 0-1.12-.631 6 6 0 0 0-.31-.158 2 2 0 0 0-.118-.048c-.11-.03-.275-.039-.746-.041" clip-rule="evenodd"/></svg>