<svg xmlns="http://www.w3.org/2000/svg" width="24" height="24" fill="none"><path fill="#141B34" fill-rule="evenodd" d="M12 22.75C6.072 22.75 1.25 17.928 1.25 12S6.072 1.25 12 1.25 22.75 6.072 22.75 12 17.928 22.75 12 22.75M3.968 7.416A9.2 9.2 0 0 0 2.75 12c0 4.702 3.527 8.596 8.074 9.176l.014-.028 2.438-4.572a4.752 4.752 0 0 1-5.346-2.128 1 1 0 0 1-.05-.079zM21.25 12c0 4.935-3.886 8.981-8.76 9.237l3.672-6.883a.8.8 0 0 0 .073-.205A4.7 4.7 0 0 0 16.75 12c0-1.256-.49-2.4-1.289-3.25h5.2c.38 1.012.589 2.107.589 3.25m-1.315-4.75A9.26 9.26 0 0 0 12 2.75a9.23 9.23 0 0 0-7.079 3.302l2.546 4.526A4.76 4.76 0 0 1 12 7.25zM12 8.75A3.254 3.254 0 0 0 8.75 12 3.254 3.254 0 0 0 12 15.25 3.254 3.254 0 0 0 15.25 12 3.254 3.254 0 0 0 12 8.75" clip-rule="evenodd"/></svg>