<svg xmlns="http://www.w3.org/2000/svg" width="25" height="24" fill="none"><path fill="#141B34" fill-rule="evenodd" d="M5.75 6.5a5.25 5.25 0 1 1 10.5 0V9a1 1 0 0 1-.004.08 7.8 7.8 0 0 1 1.917 2.356.75.75 0 0 1-1.326.701C15.775 10.13 13.63 8.75 11.148 8.75 7.6 8.75 4.75 11.563 4.75 15c0 3.457 2.722 6.25 6.25 6.25a.75.75 0 0 1 0 1.5c-4.368 0-7.75-3.476-7.75-7.75 0-2.237.963-4.246 2.5-5.657zm9 0v1.601a8 8 0 0 0-3.602-.851A8 8 0 0 0 7.25 8.259V6.5a3.75 3.75 0 1 1 7.5 0m-.22 7.97a.75.75 0 1 0-1.06 1.06l2.97 2.97-2.97 2.97a.75.75 0 1 0 1.06 1.06l2.97-2.97 2.97 2.97a.75.75 0 1 0 1.06-1.06l-2.97-2.97 2.97-2.97a.75.75 0 1 0-1.06-1.06l-2.97 2.97z" clip-rule="evenodd"/></svg>