<svg xmlns="http://www.w3.org/2000/svg" width="25" height="24" fill="none"><path fill="#141B34" fill-rule="evenodd" d="M12.5 1.25A5.25 5.25 0 0 0 7.25 6.5v2.8a7.75 7.75 0 1 0 10.5 0V6.5c0-2.9-2.35-5.25-5.25-5.25m3.75 6.966V6.5a3.75 3.75 0 1 0-7.5 0v1.716a7.7 7.7 0 0 1 3.75-.966c1.36 0 2.639.35 3.75.966m-3.75.534a6.25 6.25 0 1 0 0 12.5 6.25 6.25 0 0 0 0-12.5M9.5 15a1 1 0 0 1 1-1h.007a1 1 0 1 1 0 2H10.5a1 1 0 0 1-1-1m3.993 0a1 1 0 0 1 1-1h.007a1 1 0 1 1 0 2h-.007a1 1 0 0 1-1-1" clip-rule="evenodd"/></svg>