<svg xmlns="http://www.w3.org/2000/svg" width="25" height="24" fill="none"><path fill="#141B34" fill-rule="evenodd" d="M21.545 2.454a.75.75 0 0 1 .032 1.06l-7.536 8.007c.26.27.482.546.612.896.173.47.135.902.094 1.372l-.008.083c-.23 2.674-1.145 4.596-2.02 5.856a9.3 9.3 0 0 1-1.18 1.4 7 7 0 0 1-.547.47l-.012.01-.004.002-.002.001L10.54 21l.433.612a.75.75 0 0 1-.613.116c-2.102-.52-4.014-1.45-5.46-3.154s-2.358-4.1-2.616-7.428a.75.75 0 0 1 1.023-.755c1.822.722 3.61.873 5.901-.006l.032-.012c.543-.208.996-.382 1.367-.489.376-.108.77-.181 1.17-.098.384.08.694.275.978.505q.103.084.212.182l7.518-7.987a.75.75 0 0 1 1.06-.032m-10.523 8.871c-.301.087-.693.237-1.276.46-2.197.843-4.06.874-5.846.386.194 1.42.529 2.592.972 3.563l.13.009c.235.013.58.013.996-.04a6.33 6.33 0 0 0 3.075-1.297.75.75 0 0 1 .916 1.188 7.83 7.83 0 0 1-4.24 1.64q.144.191.295.37c1.105 1.303 2.571 2.091 4.315 2.573q.064-.057.139-.13c.259-.249.616-.636.989-1.174.743-1.07 1.553-2.746 1.758-5.13.051-.593.045-.685 0-.806-.043-.119-.118-.214-.608-.7-.38-.375-.625-.617-.828-.781-.193-.157-.285-.19-.338-.201-.037-.008-.145-.017-.449.07M7.282 6.75a.5.5 0 1 0 0 1 .5.5 0 0 0 0-1m-2 .5a2 2 0 1 1 4 0 2 2 0 0 1-4 0M12.031 4a1 1 0 1 0-2 0v.1a1 1 0 0 0 2 0z" clip-rule="evenodd"/></svg>