<svg xmlns="http://www.w3.org/2000/svg" width="24" height="24" fill="none"><path fill="#141B34" fill-rule="evenodd" d="M11.975 22.75c-.493-.007-.873-.222-1.493-.572l-.005-.003-6.69-3.782c-.635-.358-1.02-.575-1.277-1.012-.26-.438-.26-.875-.26-1.599V8.218c0-.724 0-1.161.26-1.599.258-.437.64-.653 1.275-1.011l.002-.001 6.69-3.782c.634-.359 1.017-.575 1.524-.575.505 0 .888.216 1.519.572l.005.003 6.69 3.782.005.003c.633.357 1.015.573 1.273 1.01s.258.874.258 1.598v7.564c0 .724 0 1.161-.26 1.6-.256.435-.64.651-1.274 1.01l-.003.001-6.69 3.782c-.622.353-1.003.568-1.497.575h-.052M3.75 15.782v-2.525l1.789.963.005.003c.316.17.613.33.656.403.05.087.05.445.05.86v2.576l-1.726-.975-.015-.008c-.353-.2-.656-.371-.708-.46-.051-.086-.051-.434-.051-.837m3.999-.297v3.425l3.466 1.959.035.02V12.06L3.75 7.99v3.563l2.499 1.346c.598.321.994.534 1.25.98.25.434.25.875.25 1.606m-3.036-8.68L8.09 4.899l.055.033 2.377 1.286.003.002c.614.33.986.531 1.477.531s.864-.2 1.48-.533l2.377-1.286.055-.033 3.375 1.908L12 10.762zM20.251 7.99l-7.5 4.072v8.829l.037-.021 3.463-1.958v-3.426c0-.73 0-1.172.248-1.605.257-.447.652-.659 1.248-.98l.005-.002 2.5-1.347V7.989m0 5.266-1.79.964c-.318.171-.618.333-.662.408-.05.085-.05.443-.05.857v2.58l1.729-.977c.36-.203.67-.378.722-.467.052-.087.052-.435.052-.838zM12.002 2.75c-.112 0-.41.168-.786.381l-1.587.897 1.606.868c.38.205.655.353.767.353s.387-.148.767-.353l1.605-.868-1.586-.897c-.376-.213-.673-.381-.786-.381" clip-rule="evenodd"/></svg>