<svg xmlns="http://www.w3.org/2000/svg" width="24" height="24" fill="none"><path fill="#141B34" fill-rule="evenodd" d="M4.819 2.841c1.007-.686 1.955-.73 2.72-.36a2.7 2.7 0 0 1 1.291 1.41l1.674 4.044q.48-.052.928-.044c.7.014 1.233.481 1.462 1.034l.955 2.306 2.348.058.038-1.287a.75.75 0 0 1 1.055-.662c2.078.925 3.58 1.908 4.458 2.645.618.52.915 1.264.954 2a48 48 0 0 1 .042 3.036 48 48 0 0 1-.068 2.008c-.003.575-.14 1.07-.392 1.475-.254.41-.599.69-.951.877-.682.36-1.434.394-1.843.358l-.059-.002-.163-.004-.542-.007c-.443-.004-1.04-.006-1.742-.008H14.04l-2.159.003c-1.818.003-3.616.01-4.96.013l-1.62.006-.603.002c-1.275.035-2.16-.323-2.706-.957-.511-.595-.607-1.299-.614-1.743a36 36 0 0 1-.093-1.98 136 136 0 0 1-.031-4.207v-.012c.014-2.246.07-4.612.164-6.396a2.71 2.71 0 0 1 1.185-2.095c.555-.379 1.348-.92 2.216-1.51m11.02 13.241 1.64 4.137c1.134.004 1.965.01 2.142.026.233.02.668-.009 1.01-.19a.95.95 0 0 0 .377-.34c.09-.144.168-.364.168-.709l.001-.044c.026-.438.045-.94.057-1.468a22.1 22.1 0 0 0-5.396-1.412m-13.04 1.45a28 28 0 0 0 .079 1.47c.001.283.062.585.251.804.166.192.555.465 1.535.436h.019l.613-.002 1.62-.006h.295l.084-1.257a.75.75 0 1 1 1.497.1l-.077 1.152 2.471-.007.086-1.247a.75.75 0 1 1 1.497.104l-.08 1.14 1.315-.001h1.86l-1.713-4.323c-5.095-.428-9.276.708-11.352 1.636m8.604-8.14c-1.359-.028-3.219.517-4.965 1.331-1.613.753-2.984 1.67-3.686 2.415-.005.98-.001 1.927.01 2.782a21 21 0 0 1 2.543-.81V13.52a.75.75 0 0 1 1.5 0v1.258c.772-.147 1.6-.268 2.477-.35V13.02a.75.75 0 1 1 1.5 0v1.305c.876-.036 1.79-.032 2.735.021L11.508 9.5a.2.2 0 0 0-.067-.092c-.02-.014-.031-.016-.039-.016m6.297 1.8-.027.888a.75.75 0 0 1-.768.727l-2.428-.06.724 1.745c1.882.21 3.75.548 6.049 1.402a39 39 0 0 0-.046-1.83c-.021-.398-.176-.725-.421-.93-.615-.517-1.648-1.222-3.083-1.942M6.885 3.832c-.21-.103-.589-.182-1.222.25-.867.59-1.66 1.13-2.215 1.51a1.21 1.21 0 0 0-.532.933 133 133 0 0 0-.143 4.614c.857-.639 1.924-1.258 3.031-1.775a18 18 0 0 1 3.19-1.154L7.44 4.454l-.01-.023a1.2 1.2 0 0 0-.545-.6" clip-rule="evenodd"/></svg>