<svg xmlns="http://www.w3.org/2000/svg" width="24" height="24" fill="none"><path fill="#141B34" fill-rule="evenodd" d="M12 4.25a.75.75 0 1 1 0-1.5.75.75 0 0 1 0 1.5m2.25-.75c0 .349-.08.679-.22.973 4.132.925 7.22 4.615 7.22 9.027A9.25 9.25 0 1 1 9.97 4.473a2.25 2.25 0 1 1 4.28-.973m-10 10a7.75 7.75 0 1 1 15.5 0 7.75 7.75 0 0 1-15.5 0m3 0A4.75 4.75 0 0 1 12 8.75a.75.75 0 0 0 0-1.5 6.25 6.25 0 1 0 0 12.5.75.75 0 0 0 0-1.5 4.75 4.75 0 0 1-4.75-4.75m8.374-4.084a.75.75 0 1 0-1.248-.832l-3 4.5a.75.75 0 0 0 1.248.832z" clip-rule="evenodd"/></svg>