<svg xmlns="http://www.w3.org/2000/svg" width="24" height="24" fill="none"><path fill="#141B34" fill-rule="evenodd" d="M9.956 1.25H11.5a.75.75 0 0 1 0 1.5H10c-1.656 0-2.84.001-3.756.098-.903.095-1.46.276-1.895.58a3.8 3.8 0 0 0-.92.921c-.305.434-.486.992-.581 1.895-.097.917-.098 2.1-.098 3.756s.001 2.84.098 3.756c.095.903.276 1.46.58 1.895.251.358.563.67.921.92.434.305.992.486 1.895.581.917.097 2.1.098 3.756.098h4c1.656 0 2.84-.001 3.756-.098.903-.095 1.46-.276 1.895-.58.358-.251.67-.563.92-.921.272-.388.446-.874.548-1.617.103-.755.126-1.718.13-3.036a.75.75 0 0 1 1.5.004c-.004 1.307-.025 2.367-.144 3.236-.121.882-.35 1.624-.805 2.273a5.3 5.3 0 0 1-1.289 1.29c-.728.51-1.571.735-2.598.843-1.004.106-2.267.106-3.87.106H12.75v2.5H16a.75.75 0 0 1 0 1.5H8a.75.75 0 0 1 0-1.5h3.25v-2.5H9.956c-1.602 0-2.865 0-3.869-.106-1.027-.108-1.87-.334-2.598-.843a5.3 5.3 0 0 1-1.29-1.29c-.51-.728-.735-1.571-.843-2.598-.106-1.004-.106-2.267-.106-3.87v-.087c0-1.602 0-2.865.106-3.869.108-1.027.334-1.87.843-2.598a5.3 5.3 0 0 1 1.29-1.29c.728-.51 1.571-.735 2.598-.843 1.004-.106 2.267-.106 3.87-.106m12.76.525a.75.75 0 0 1-.491.94c-1.394.438-2.774 1.778-3.856 3.135a21 21 0 0 0-1.686 2.466l-.021.037-.005.009v.001a.75.75 0 0 1-1.37-.13l-.003-.01-.017-.047a3.858 3.858 0 0 0-.386-.762c-.298-.45-.603-.664-.881-.664a.75.75 0 0 1 0-1.5c1.005 0 1.679.69 2.06 1.23.298-.45.683-.997 1.136-1.565 1.107-1.388 2.727-3.049 4.58-3.63a.75.75 0 0 1 .94.49M11 14.25a.75.75 0 0 0 0 1.5h2a.75.75 0 0 0 0-1.5z" clip-rule="evenodd"/></svg>