<svg xmlns="http://www.w3.org/2000/svg" width="25" height="24" fill="none"><path fill="#141B34" fill-rule="evenodd" d="M4.918 19.5c0 .965.785 1.75 1.75 1.75H18.43a3.23 3.23 0 0 1-.512-1.75c0-.644.188-1.244.512-1.75H6.668c-.965 0-1.75.785-1.75 1.75m17 2.5a.75.75 0 0 0-.75-.75c-.965 0-1.75-.785-1.75-1.75s.785-1.75 1.75-1.75a.75.75 0 0 0 .75-.75v-7c0-3.973 0-5.968-1.391-7.358-1.391-1.392-3.386-1.392-7.359-1.392h-1c-3.973 0-5.968 0-7.358 1.392C3.418 4.032 3.418 6.027 3.418 10v9.5a3.254 3.254 0 0 0 3.25 3.25h14.5a.75.75 0 0 0 .75-.75m-1.5-5.75V10c0-3.559 0-5.346-.952-6.297-.952-.953-2.738-.953-6.298-.953h-1c-3.559 0-5.346 0-6.297.952-.953.952-.953 2.738-.953 6.298v6.762a3.23 3.23 0 0 1 1.75-.512zm-8.75-2h2c1.075 0 1.724 0 2.237-.513.513-.512.513-1.162.513-2.237v-.314a2.77 2.77 0 0 0 2-2.66 2.76 2.76 0 0 0-2.75-2.767c-.269 0-.534.039-.787.115a2.75 2.75 0 0 0-2.213-1.124c-.887 0-1.703.431-2.213 1.124a2.7 2.7 0 0 0-.787-.115 2.76 2.76 0 0 0-2.75 2.767c0 1.398.806 2.475 2 2.793v.181c0 1.075 0 1.724.513 2.237.512.513 1.162.513 2.237.513m-3.25-5.724a1.26 1.26 0 0 1 1.25-1.267c.248 0 .488.073.692.211a.75.75 0 0 0 1.128-.374 1.26 1.26 0 0 1 1.18-.846 1.255 1.255 0 0 1 1.25 1.268.75.75 0 0 0 1.5 0q0-.117-.01-.232.128-.027.26-.027c.689 0 1.25.582 1.25 1.267s-.572 1.264-1.25 1.264a.75.75 0 0 0-.75.75v.96c0 .501 0 1.069-.073 1.176-.108.074-.676.074-1.177.074h-2c-.501 0-1.068 0-1.176-.073-.074-.108-.074-.676-.074-1.177v-.835a.75.75 0 0 0-.75-.75c-.759 0-1.25-.545-1.25-1.389" clip-rule="evenodd"/></svg>