<svg xmlns="http://www.w3.org/2000/svg" width="24" height="24" fill="none"><path fill="#141B34" fill-rule="evenodd" d="M4.546 5.521c.182-.186.419-.487.651-.784l.054-.068c.231-.295.48-.612.735-.912q.138-.165.271-.31v12.797H1.998a.75.75 0 0 0 0 1.5h4.26v4.255a.75.75 0 0 0 1.5 0v-4.255h12.796q-.145.132-.31.27c-.3.255-.617.504-.912.735l-.069.054c-.296.233-.597.47-.784.651a.75.75 0 1 0 1.046 1.076c.116-.114.342-.294.665-.547l.072-.057c.29-.228.629-.494.952-.767a9 9 0 0 0 .975-.94c.137-.16.269-.338.37-.526.097-.182.192-.424.192-.7s-.095-.517-.193-.7a3 3 0 0 0-.37-.526 9 9 0 0 0-.974-.94c-.323-.273-.662-.539-.952-.767l-.072-.056a10 10 0 0 1-.665-.547.75.75 0 0 0-1.045 1.076c.186.181.487.418.784.65l.068.055c.295.23.612.48.912.734q.165.139.31.272H7.757V3.447q.133.145.271.31c.255.3.504.617.735.912l.054.069c.233.296.47.597.651.783a.75.75 0 0 0 1.076-1.045 10 10 0 0 1-.547-.665l-.057-.072c-.228-.29-.494-.63-.767-.952a9 9 0 0 0-.94-.975 3 3 0 0 0-.526-.37 1.5 1.5 0 0 0-.7-.192c-.276 0-.517.095-.7.193-.188.1-.365.232-.526.37a9 9 0 0 0-.94.974c-.273.323-.539.662-.767.952l-.056.072a10 10 0 0 1-.547.665.75.75 0 1 0 1.075 1.045" clip-rule="evenodd"/></svg>