<svg xmlns="http://www.w3.org/2000/svg" width="24" height="24" fill="none"><path fill="#141B34" fill-rule="evenodd" d="M2.754 12a9.25 9.25 0 1 1 18.5 0 9.25 9.25 0 0 1-18.5 0m9.25-10.75C6.067 1.25 1.254 6.063 1.254 12s4.813 10.75 10.75 10.75 10.75-4.813 10.75-10.75S17.94 1.25 12.004 1.25m1 6h-1.025c-.445 0-.816 0-1.12.02a2.8 2.8 0 0 0-.907.19 2.75 2.75 0 0 0-1.489 1.488c-.12.29-.167.59-.188.907-.021.304-.021.675-.021 1.12v2.05c0 .445 0 .816.02 1.12.022.318.069.617.19.907a2.75 2.75 0 0 0 1.488 1.489c.29.12.59.167.906.188.305.021.676.021 1.12.021h1.026a2.75 2.75 0 0 0 2.75-2.75.75.75 0 0 0-1.5 0c0 .69-.56 1.25-1.25 1.25h-1c-.476 0-.796 0-1.043-.017-.241-.017-.358-.046-.435-.078a1.25 1.25 0 0 1-.677-.677c-.032-.077-.061-.194-.078-.435A17 17 0 0 1 9.754 13v-2c0-.476 0-.796.017-1.043.017-.241.046-.358.078-.435.127-.307.37-.55.677-.677.077-.032.194-.061.435-.078.247-.017.567-.017 1.043-.017h1c.69 0 1.25.56 1.25 1.25a.75.75 0 0 0 1.5 0 2.75 2.75 0 0 0-2.75-2.75" clip-rule="evenodd"/></svg>