<svg xmlns="http://www.w3.org/2000/svg" width="24" height="24" fill="none"><path fill="#141B34" fill-rule="evenodd" d="M10.864 22.751h2.278v-.001c3.59 0 5.394 0 6.77-1.143 1.386-1.151 1.668-2.986 2.18-6.322v-.001l.302-1.96c.363-2.353.563-3.65.044-4.868s-1.604-2.001-3.573-3.422l-.003-.002-1.474-1.064c-2.43-1.753-3.766-2.718-5.385-2.718s-2.956.965-5.382 2.716l-.003.002-1.473 1.064c-1.971 1.42-3.057 2.204-3.576 3.424-.52 1.218-.32 2.515.044 4.868l.3 1.961c.513 3.335.795 5.171 2.182 6.323 1.376 1.143 3.178 1.143 6.769 1.143M7.496 5.185c2.246-1.621 3.373-2.434 4.507-2.434L12 2.752c1.134 0 2.262.813 4.507 2.434l1.474 1.064c1.934 1.395 2.733 1.993 3.074 2.795.35.825.185 1.903-.146 4.052l-.302 1.965-.001.006c-.47 3.06-.707 4.599-1.655 5.386-.96.797-2.581.797-5.81.797h-2.279c-3.23 0-4.851 0-5.811-.797-.948-.788-1.185-2.328-1.656-5.397l-.301-1.96c-.331-2.149-.497-3.227-.146-4.052.342-.803 1.14-1.401 3.074-2.796zm-.524 12.346c.146.147.338.22.53.22v-.001a.75.75 0 0 0 .53-.22l3.229-3.23a34 34 0 0 0 1.676 1.452.75.75 0 0 0 1.239.779l2.499-2.5.037-.038.32-.321a.75.75 0 0 0-.78-1.238 32 32 0 0 0-1.968-2.212c-.753-.755-1.64-1.503-2.216-1.972a.75.75 0 0 0-1.24-.78L8.33 9.97l-.037.039-.321.32a.75.75 0 0 0 .78 1.239c.36.442.886 1.065 1.45 1.672l-3.23 3.23a.75.75 0 0 0 0 1.06m6.973-2.893c-.548-.444-1.433-1.187-2.161-1.916l-.002-.002c-.728-.73-1.472-1.614-1.918-2.162l1.195-1.195c.548.444 1.434 1.187 2.162 1.917s1.473 1.615 1.919 2.163z" clip-rule="evenodd"/></svg>