<svg xmlns="http://www.w3.org/2000/svg" width="24" height="24" fill="none"><path fill="#141B34" fill-rule="evenodd" d="M5.004 5.75h14c1.24 0 2.25 1.234 2.25 2.75s-1.01 2.75-2.25 2.75c-2.088 0-2.25-1.659-2.25-2.167 0-.25.073-.833.75-.833.007 0 .75.062.75.833a.75.75 0 0 0 1.5 0c0-1.591-1.343-2.333-2.25-2.333-1.304 0-2.25.981-2.25 2.333 0 1.938 1.177 3.315 3 3.609v5.558h-3V15a.75.75 0 0 0-1.5 0v3.25h-3.5V15a.75.75 0 0 0-1.5 0v3.25h-3v-5.558c1.822-.294 3-1.67 3-3.609 0-1.352-.946-2.333-2.25-2.333-.907 0-2.25.741-2.25 2.333a.75.75 0 0 0 1.5 0c0-.771.743-.833.75-.833.677 0 .75.583.75.833 0 .508-.162 2.167-2.25 2.167-1.241 0-2.25-1.234-2.25-2.75s1.009-2.75 2.25-2.75m-.75 6.915c-1.71-.395-3-2.113-3-4.165s1.291-3.771 3.002-4.165c.013-1.16.098-1.866.657-2.426.66-.659 1.523-.659 3.09-.659h8c1.569 0 2.432 0 3.092.658.56.561.644 1.267.657 2.427 1.71.394 3.002 2.112 3.002 4.165s-1.29 3.77-3 4.165v5.585h.25c.965 0 1.75.785 1.75 1.75v1c0 .965-.785 1.75-1.75 1.75h-16c-.965 0-1.75-.785-1.75-1.75v-1c0-.965.785-1.75 1.75-1.75h.25zm0 7.085h-.25a.25.25 0 0 0-.25.25v1c0 .138.112.25.25.25h16a.25.25 0 0 0 .25-.25v-1a.25.25 0 0 0-.25-.25H4.254M18.25 4.25H5.757c.01-.67.052-1.115.216-1.28.22-.22.94-.22 2.03-.22h8c1.09 0 1.812 0 2.03.219.166.165.207.61.217 1.281m-5.246 5.5h-2a.75.75 0 0 1 0-1.5h2a.75.75 0 0 1 0 1.5" clip-rule="evenodd"/></svg>