<svg xmlns="http://www.w3.org/2000/svg" width="24" height="24" fill="none"><path fill="#141B34" fill-rule="evenodd" d="M10.567 22.75a4.88 4.88 0 0 1-3.47-1.438l-4.41-4.41a4.915 4.915 0 0 1 0-6.941l7.579-7.579a3.88 3.88 0 0 1 2.926-1.127l5.603.276a3.855 3.855 0 0 1 3.673 3.673l.276 5.604a3.88 3.88 0 0 1-1.127 2.926l-7.58 7.578a4.88 4.88 0 0 1-3.47 1.438m.758-19.306-7.578 7.579a3.413 3.413 0 0 0 0 4.819l4.41 4.41c.644.644 1.5.998 2.41.998a3.4 3.4 0 0 0 2.41-.998l7.579-7.578a2.37 2.37 0 0 0 .69-1.791l-.276-5.605a2.36 2.36 0 0 0-2.25-2.249l-5.603-.276a2.37 2.37 0 0 0-1.792.691M17.499 7.5h-.01a1 1 0 0 1 0-2c.553 0 1.005.448 1.005 1s-.443 1-.995 1M9.268 17.504a.75.75 0 0 0 .75.746v-.002h.005a.75.75 0 0 0 .746-.754l-.012-2.203 1.872 1.065a.75.75 0 0 0 .742-1.304l-1.886-1.072 1.883-1.133a.749.749 0 1 0-.773-1.285l-1.852 1.114-.011-2.181a.75.75 0 0 0-1.5.008l.01 2.203-1.871-1.065a.75.75 0 0 0-.742 1.304l1.886 1.073-1.883 1.133a.749.749 0 1 0 .773 1.285l1.85-1.114z" clip-rule="evenodd"/></svg>