<svg xmlns="http://www.w3.org/2000/svg" width="24" height="24" fill="none"><path fill="#141B34" fill-rule="evenodd" d="M16.046 5.183a2.86 2.86 0 0 1 .672 1.678q-.001.372-.005.71c-.005.558-.009 1.055.02 1.514.04.645.143 1.065.31 1.332q.016.022.027.046c.54 1.01 1.334 1.479 2.161 1.679.388.094.784.128 1.16.125a17 17 0 0 0-.754-.604l-.06-.045-.015-.011-.003-.003a.75.75 0 0 1 .889-1.208l-.445.604.445-.604.007.006.019.014a11 11 0 0 1 .303.231c.194.152.454.36.717.59.26.224.538.483.758.732.109.123.22.262.306.407.075.124.194.35.194.624 0 .275-.119.5-.194.624a3 3 0 0 1-.306.407c-.22.25-.498.508-.758.733a18 18 0 0 1-1.02.82l-.019.014-.006.005-.446-.603.446.603a.75.75 0 0 1-.891-1.207l.004-.003.015-.01.06-.046a17 17 0 0 0 .715-.57c-.468 0-.97-.045-1.473-.167-1.17-.283-2.348-.979-3.12-2.408-.363-.592-.48-1.317-.523-2.013-.033-.516-.027-1.095-.022-1.677l.003-.619a1.4 1.4 0 0 0-.316-.73c-.193-.228-.484-.413-.955-.403-.483.01-.758.202-.93.414-.185.224-.272.497-.294.67v10.062c.008.555-.145 1.248-.573 1.822-.452.608-1.178 1.031-2.173 1.031-.993 0-1.735-.454-2.185-1.1a2.97 2.97 0 0 1-.491-2.042c.162-1.245.038-2.426-.45-3.294-.456-.814-1.286-1.448-2.796-1.56H1.997a.75.75 0 0 1 0-1.5h2.084l.052.002c1.975.138 3.293 1.019 4.026 2.324.705 1.255.813 2.802.628 4.221-.042.324.037.707.235.992.179.256.467.457.954.457.522 0 .801-.2.97-.427.193-.259.28-.612.276-.907V6.792q0-.036.003-.072a2.9 2.9 0 0 1 .63-1.507c.433-.53 1.11-.942 2.059-.962.961-.02 1.672.39 2.132.932" clip-rule="evenodd"/></svg>