<svg xmlns="http://www.w3.org/2000/svg" width="25" height="24" fill="none"><path fill="#141B34" fill-rule="evenodd" d="M7.775 4.003c.001.017.014.095.158.23.162.153.436.325.838.485.798.318 1.953.532 3.266.532 1.314 0 2.469-.214 3.268-.532.4-.16.675-.332.837-.484.14-.133.157-.21.158-.23v-.008c-.002-.02-.018-.097-.158-.23-.162-.152-.436-.324-.837-.484-.799-.318-1.954-.532-3.267-.532-1.314 0-2.469.214-3.267.532-.402.16-.676.332-.838.484-.143.136-.157.214-.158.23zm-.439 1.661L4.781 14.76a9 9 0 0 1 .568-.274c1.75-.775 4.116-1.236 6.688-1.236s4.939.46 6.69 1.236q.293.13.567.274l-2.555-9.096c-.263.173-.56.32-.876.447-1.016.405-2.37.639-3.825.639-1.457 0-2.81-.234-3.826-.64a5 5 0 0 1-.876-.446m10.465-1.783 3.487 12.417a1 1 0 0 1 .025.137c.313.465.504.99.504 1.565 0 .796-.367 1.499-.916 2.074-.546.572-1.3 1.052-2.175 1.44-1.75.775-4.115 1.236-6.688 1.236s-4.939-.46-6.69-1.236c-.874-.388-1.628-.868-2.173-1.44-.55-.576-.917-1.278-.917-2.074 0-.575.191-1.1.504-1.564a1 1 0 0 1 .025-.138L6.274 3.88c.038-.495.304-.9.626-1.204.345-.327.806-.586 1.312-.788 1.016-.405 2.37-.639 3.826-.639s2.809.234 3.825.64c.506.201.967.46 1.313.787.322.303.588.71.625 1.204M4.264 16.961c-.364.38-.502.73-.502 1.039s.138.658.502 1.04c.368.385.936.767 1.696 1.103 1.517.672 3.665 1.107 6.078 1.107 2.412 0 4.56-.435 6.077-1.107.76-.336 1.328-.718 1.696-1.103.364-.382.502-.732.502-1.04s-.138-.658-.502-1.04c-.368-.385-.936-.767-1.696-1.103-1.516-.672-3.665-1.107-6.077-1.107s-4.561.435-6.078 1.107c-.76.336-1.328.718-1.696 1.103" clip-rule="evenodd"/></svg>