<svg xmlns="http://www.w3.org/2000/svg" width="24" height="24" fill="none"><path fill="#141B34" fill-rule="evenodd" d="M2.75 6.25a3.5 3.5 0 1 1 7 0 3.5 3.5 0 0 1-7 0m3.5-5a5 5 0 1 0 0 10 5 5 0 0 0 0-10m12.5 1.25a.75.75 0 0 0-1.5 0v.468a3.7 3.7 0 0 0-1.82.958l-.52-.34a.75.75 0 0 0-.82 1.256l.501.328a3.55 3.55 0 0 0 0 2.66l-.5.328a.75.75 0 1 0 .82 1.256l.52-.34c.492.475 1.12.814 1.82.957v.469a.75.75 0 0 0 1.5 0v-.469a3.7 3.7 0 0 0 1.818-.957l.52.34a.75.75 0 0 0 .82-1.256l-.5-.327a3.55 3.55 0 0 0 0-2.661l.501-.328a.75.75 0 0 0-.82-1.256l-.52.34a3.7 3.7 0 0 0-1.82-.958zm-2.557 2.838A2.18 2.18 0 0 1 18 4.393c.758 0 1.42.377 1.808.945.227.333.359.732.359 1.162s-.132.829-.36 1.163A2.18 2.18 0 0 1 18 8.607a2.18 2.18 0 0 1-1.807-.944 2.053 2.053 0 0 1 0-2.325m1.557 8.912a3.5 3.5 0 1 0 0 7 3.5 3.5 0 0 0 0-7m-5 3.5a5 5 0 1 1 10 0 5 5 0 0 1-10 0m-10 0a3.5 3.5 0 1 1 7 0 3.5 3.5 0 0 1-7 0m3.5-5a5 5 0 1 0 0 10 5 5 0 0 0 0-10" clip-rule="evenodd"/></svg>