<svg xmlns="http://www.w3.org/2000/svg" width="24" height="24" fill="none"><path fill="#141B34" fill-rule="evenodd" d="M5.758 18.752c-1.55 0-2.652-.54-3.198-1.037-1.39-1.206-1.707-3.803-.79-6.473.359-1.282 1.456-3.514 2.54-4.845.812-1.204 2.787-3.355 5.168-3.955 2.414-.735 5.387.604 7.246 3.264.371.47.845 1.406.945 1.926.323.202.616.404.86.597 1.234.833 3.444 2.838 4.042 5.176.59 1.999-.177 5.092-3.259 7.18-1.133.767-2.345 1.159-3.557 1.159v.001q-.568 0-1.132-.115c-1.839-.376-3.575-1.646-5.173-3.781-1.41.662-2.651.904-3.691.904zM9.9 3.881c1.947-.603 4.19.789 5.476 2.522-.648-.298-1.251-.535-1.687-.655a9.2 9.2 0 0 0-2.773-.501c-1.55-.023-2.879.432-3.643 1.321-1.023 1.12-1.833 3.37.083 7.737.342.777.672 1.391.89 1.768l.003.006c.116.202.217.378.315.523a8 8 0 0 1-1.773.55c-.04-1.149-.455-2.136-1.207-2.84-.727-.68-1.718-1.052-2.768-1.063a8.4 8.4 0 0 1 .392-1.585c.27-.984 1.27-3.113 2.283-4.342a1 1 0 0 0 .045-.061c.91-1.367 2.687-2.963 4.322-3.368zM2.777 14.75c.089.853.378 1.498.77 1.836l.019.017c.238.218.828.535 1.728.621-.02-.761-.27-1.381-.734-1.817-.45-.42-1.098-.653-1.783-.657m7.08 1.078q.06.059.106.13c1.571 2.438 3.24 3.852 4.96 4.203 1.192.244 2.386-.031 3.546-.817 2.355-1.595 3.12-3.986 2.66-5.523l-.01-.032c-.296-1.172-1.502-3.027-3.452-4.33l-.05-.037c-1.034-.825-3.323-1.956-4.344-2.232l-.047-.014a8 8 0 0 0-1.448-.349c-.038 1.047-.455 2.079-1.166 2.802-.717.729-1.69 1.109-2.804 1.109h-.01c.087.533.228 1.058.381 1.53.567 1.749 1.466 3.269 1.676 3.56zM7.72 9.236c.75.022 1.372-.204 1.823-.661.496-.504.712-1.193.734-1.807-.788.068-1.47.31-1.87.782l-.02.022c-.412.448-.608 1.03-.666 1.664m9.065 7.279c.124 0 .452 0 .468.491v-.012h1.5c0-.081-.011-.506-.23-.948-.33-.665-.947-1.032-1.744-1.032-.133.003-.446.004-.461-.48v.01h-1.5c0 .089.015.88.585 1.445.245.243.684.529 1.382.526m-4.559-1.52c.135-.001.446-.003.462.48v-.011h1.5c0-.088-.016-.88-.586-1.444-.245-.243-.685-.533-1.382-.526-.123 0-.452 0-.467-.49v.01h-1.5c0 .081.01.506.229.948.329.666.947 1.033 1.744 1.033m3.004-3.03c.123 0 .452 0 .467.48v-.009h1.5c0-.08-.01-.504-.23-.945-.33-.661-.947-1.025-1.737-1.025-.123 0-.452 0-.467-.481v.01h-1.5c-.001.08.01.504.23.945.33.661.947 1.025 1.737 1.025" clip-rule="evenodd"/></svg>