<svg xmlns="http://www.w3.org/2000/svg" width="24" height="24" fill="none"><path fill="#141B34" fill-rule="evenodd" d="M6.306 2.809c-.512.055-.812.158-1.054.319s-.452.4-.7.85c-.257.466-.519 1.093-.898 2.003L3.125 7.25h8.125v-4.5H8.5c-.986 0-1.665.001-2.194.059M12 1.25H8.459c-.935 0-1.696 0-2.316.067-.647.07-1.209.22-1.723.563s-.868.804-1.182 1.374c-.3.547-.593 1.25-.953 2.112l-.016.038-.952 2.286A.75.75 0 0 0 1.25 8v5.487c0 1.97 0 3.529.17 4.748.175 1.255.543 2.26 1.361 3.05.815.785 1.846 1.135 3.135 1.302 1.258.163 2.87.163 4.918.163H12a.75.75 0 0 0 0-1.5h-1.111c-2.116 0-3.63-.002-4.78-.15-1.132-.147-1.8-.425-2.287-.895-.483-.466-.766-1.099-.916-2.177-.154-1.104-.156-2.557-.156-4.6V8.75h18.5v2.75a.75.75 0 0 0 1.5 0V8.024a.75.75 0 0 0-.06-.316l-.959-2.304-.016-.04c-.36-.861-.652-1.564-.953-2.11-.314-.57-.668-1.032-1.182-1.374s-1.076-.492-1.723-.563c-.62-.067-1.381-.067-2.315-.067zm.75 1.5v4.5h8.125l-.529-1.27c-.379-.91-.641-1.536-.898-2.003-.248-.45-.458-.688-.7-.85-.242-.16-.542-.263-1.053-.318-.53-.058-1.209-.059-2.195-.059zM9.25 12a.75.75 0 0 1 .75-.75h4a.75.75 0 0 1 0 1.5h-4a.75.75 0 0 1-.75-.75m8.269 2.447c.132-.344.44-.699.96-.699.532 0 .854.367.982.699.02.05.032.135.032.336v.86h-2.006v-.86c0-.2.012-.285.032-.336m3.474.336v.987a2.55 2.55 0 0 1 1.757 2.425v2.002a2.554 2.554 0 0 1-2.556 2.553h-3.388a2.554 2.554 0 0 1-2.556-2.553v-2.002c0-1.124.727-2.077 1.736-2.418v-.994c0-.21.005-.541.133-.874.26-.678.991-1.661 2.36-1.661 1.36 0 2.117.972 2.382 1.661.128.333.132.664.132.874m-5.243 3.412c0-.58.471-1.052 1.056-1.052h3.388c.585 0 1.056.472 1.056 1.052v2.002c0 .58-.471 1.053-1.056 1.053h-3.388a1.054 1.054 0 0 1-1.056-1.053z" clip-rule="evenodd"/></svg>