<svg xmlns="http://www.w3.org/2000/svg" width="24" height="24" fill="none"><path fill="#141B34" fill-rule="evenodd" d="M5.221 3.128c.243-.161.545-.264 1.058-.32.531-.057 1.213-.058 2.201-.058h2.734v4.502H3.109l.512-1.279c.379-.906.641-1.53.898-1.996.249-.45.46-.688.702-.849m10.32-1.878H8.44c-.937 0-1.7 0-2.321.067-.649.07-1.212.22-1.727.562s-.87.803-1.185 1.373c-.301.546-.595 1.248-.955 2.11l-.016.038-.926 2.311-.012.031a.8.8 0 0 0-.046.26v9.165c0 1.181.235 2.153.67 2.941a4.5 4.5 0 0 0 1.741 1.748c1.353.77 3.009.892 4.283.892h10.821c.5 0 1.453-.122 2.31-.632.903-.538 1.674-1.504 1.674-3.06 0-1.447-.599-2.452-1.448-3.066-.81-.586-1.787-.775-2.542-.764h-1.586l.808-.674a.75.75 0 0 0-.96-1.152l-1.702 1.42-.013.011a1.543 1.543 0 0 0 .004 2.335l.01.008.008.006 1.7 1.384a.75.75 0 1 0 .946-1.163l-.828-.675h1.632c.523-.009 1.16.129 1.644.48.448.323.827.87.827 1.85 0 .964-.435 1.47-.943 1.772-.555.33-1.219.42-1.54.42H7.944c-1.231 0-2.548-.131-3.54-.696a3 3 0 0 1-1.17-1.168c-.29-.524-.484-1.236-.484-2.217V8.752H21.25v3.767a.75.75 0 0 0 1.5 0V7.985a.8.8 0 0 0-.057-.276l-.946-2.305-.018-.044c-.36-.86-.654-1.563-.955-2.108-.315-.57-.67-1.031-1.185-1.373s-1.078-.491-1.727-.562c-.62-.067-1.384-.067-2.32-.067m-2.827 6.002V2.75H15.5c.988 0 1.67.001 2.2.059.514.055.816.158 1.059.32.243.16.453.398.702.848.257.466.52 1.091.9 2v.001l.523 1.274zm-2.75 3.998a.75.75 0 0 0 0 1.5h4a.75.75 0 0 0 0-1.5z" clip-rule="evenodd"/></svg>