<svg xmlns="http://www.w3.org/2000/svg" width="24" height="24" fill="none"><path fill="#141B34" fill-rule="evenodd" d="M15.542 1.25H8.459c-.935 0-1.696 0-2.316.067-.647.07-1.209.22-1.723.563s-.868.804-1.182 1.374c-.3.547-.593 1.25-.953 2.111L1.317 7.69A.75.75 0 0 0 1.25 8v5.487c0 1.97 0 3.529.17 4.748.175 1.255.543 2.26 1.361 3.05.815.785 1.846 1.135 3.135 1.302 1.258.163 2.87.163 4.918.163H12.5a.75.75 0 0 0 0-1.5h-1.611c-2.116 0-3.63-.002-4.78-.15-1.132-.147-1.8-.425-2.287-.895-.483-.466-.766-1.099-.916-2.177-.154-1.104-.156-2.557-.156-4.6V8.75h18.5v1.75a.75.75 0 0 0 1.5 0V8.024a.75.75 0 0 0-.06-.316l-.975-2.343c-.36-.862-.652-1.565-.953-2.11-.314-.571-.668-1.033-1.182-1.375s-1.076-.492-1.723-.563c-.62-.067-1.381-.067-2.315-.067M8.5 2.75h2.75v4.5H3.125l.529-1.27c.38-.91.641-1.536.898-2.003.248-.45.458-.688.7-.85.242-.16.542-.263 1.054-.318.529-.058 1.208-.059 2.194-.059m4.25 0v4.5h8.125l-.529-1.27c-.379-.91-.641-1.536-.898-2.003-.248-.45-.458-.688-.7-.85-.242-.16-.542-.263-1.053-.318-.53-.058-1.209-.059-2.195-.059zm2 13.29c0-1.824 1.462-3.29 3.25-3.29s3.25 1.466 3.25 3.29c0 1.033-.386 1.83-1.247 2.593-.685.607-1.445 1.55-1.998 2.35-.551-.827-1.332-1.751-2.008-2.35-.861-.764-1.247-1.56-1.247-2.593M18 11.25c-2.63 0-4.75 2.152-4.75 4.79 0 1.52.614 2.707 1.753 3.716.644.57 1.451 1.55 1.928 2.332.191.314.542.662 1.062.662.512 0 .865-.338 1.063-.642.52-.795 1.306-1.789 1.941-2.352 1.139-1.009 1.753-2.197 1.753-3.716 0-2.638-2.12-4.79-4.75-4.79M17 16a1 1 0 0 1 1-1h.009a1 1 0 1 1 0 2H18a1 1 0 0 1-1-1m-7-4.75a.75.75 0 0 0 0 1.5h2a.75.75 0 0 0 0-1.5z" clip-rule="evenodd"/></svg>