<svg xmlns="http://www.w3.org/2000/svg" width="24" height="24" fill="none"><path fill="#141B34" fill-rule="evenodd" d="M15.542 1.25H8.459c-.935 0-1.696 0-2.316.067-.647.07-1.209.22-1.723.563s-.868.804-1.182 1.374c-.3.547-.593 1.25-.953 2.111L1.317 7.69A.75.75 0 0 0 1.25 8v5.487c0 1.97 0 3.529.17 4.748.175 1.255.543 2.26 1.361 3.05.754.727 1.695 1.081 2.855 1.262 1.14.178 2.572.2 4.363.203a.75.75 0 0 0 .002-1.5c-1.814-.004-3.128-.028-4.134-.185-.986-.154-1.593-.424-2.045-.86-.483-.466-.766-1.099-.916-2.177-.154-1.104-.156-2.557-.156-4.6V8.75h18.5v4.75a.75.75 0 0 0 1.5 0V8.024a.75.75 0 0 0-.06-.316l-.975-2.343c-.36-.862-.652-1.565-.953-2.11-.314-.571-.668-1.033-1.182-1.375s-1.076-.492-1.723-.563c-.62-.067-1.381-.067-2.315-.067M8.5 2.75h2.75v4.5H3.125l.529-1.27c.38-.91.641-1.536.898-2.003.248-.45.458-.688.7-.85.242-.16.542-.263 1.054-.318.529-.058 1.208-.059 2.194-.059m4.25 0v4.5h8.125l-.529-1.27c-.379-.91-.641-1.536-.898-2.003-.248-.45-.458-.688-.7-.85-.242-.16-.542-.263-1.053-.318-.53-.058-1.209-.059-2.195-.059zM17 17.5a1 1 0 1 0 0 2h.009a1 1 0 1 0 0-2zm-2.548-.757c-.736.575-1.295 1.268-1.613 1.715l-.03.042.03.042c.318.447.877 1.14 1.613 1.715.738.576 1.602.993 2.548.993s1.81-.417 2.548-.993c.736-.575 1.295-1.268 1.613-1.715l.03-.042-.03-.042c-.318-.447-.877-1.14-1.613-1.715-.738-.576-1.602-.993-2.548-.993s-1.81.417-2.548.993m-.923-1.182c.892-.696 2.073-1.311 3.471-1.311s2.58.615 3.47 1.31c.893.698 1.548 1.516 1.913 2.027l.01.016.02.025c.12.167.337.463.337.872s-.216.705-.338.872l-.03.041c-.364.51-1.019 1.33-1.911 2.026S18.398 22.75 17 22.75s-2.58-.615-3.47-1.31c-.893-.698-1.548-1.516-1.913-2.027l-.03-.04c-.12-.168-.337-.464-.337-.873s.216-.705.338-.872l.018-.026.011-.015c.365-.51 1.02-1.33 1.912-2.026M10 11.25a.75.75 0 0 0 0 1.5h4a.75.75 0 0 0 0-1.5z" clip-rule="evenodd"/></svg>