<svg xmlns="http://www.w3.org/2000/svg" width="24" height="24" fill="none"><path fill="#141B34" fill-rule="evenodd" d="M15.542 1.25H8.459c-.935 0-1.696 0-2.316.067-.647.07-1.209.22-1.723.563s-.868.804-1.182 1.374c-.3.547-.593 1.25-.953 2.111L1.317 7.69A.75.75 0 0 0 1.25 8v5.487c0 1.97 0 3.529.17 4.748.175 1.255.543 2.26 1.361 3.05.815.785 1.846 1.135 3.135 1.302 1.258.163 2.87.163 4.918.163h2.332c2.049 0 3.66 0 4.918-.163 1.289-.167 2.32-.517 3.135-1.302.818-.79 1.186-1.795 1.361-3.05.17-1.22.17-2.777.17-4.748V8.024a.75.75 0 0 0-.06-.316l-.975-2.343c-.36-.862-.652-1.565-.953-2.11-.314-.571-.668-1.033-1.182-1.375s-1.076-.492-1.723-.563c-.62-.067-1.381-.067-2.315-.067M8.5 2.75h2.75v4.5H3.125l.529-1.27c.38-.91.641-1.536.898-2.003.248-.45.458-.688.7-.85.242-.16.542-.263 1.054-.318.529-.058 1.208-.059 2.194-.059m4.25 0v4.5h8.125l-.529-1.27c-.379-.91-.641-1.536-.898-2.003-.248-.45-.458-.688-.7-.85-.242-.16-.542-.263-1.053-.318-.53-.058-1.209-.059-2.195-.059zm-10 6h18.5v4.679c0 2.042-.002 3.495-.155 4.599-.15 1.078-.434 1.71-.917 2.177-.488.47-1.155.748-2.287.894-1.15.15-2.664.151-4.78.151H10.89c-2.116 0-3.63-.002-4.78-.15-1.132-.147-1.8-.425-2.287-.895-.483-.466-.766-1.099-.916-2.177-.154-1.104-.156-2.557-.156-4.6zm7.25 2.5a.75.75 0 0 0 0 1.5h4a.75.75 0 0 0 0-1.5z" clip-rule="evenodd"/></svg>