<svg xmlns="http://www.w3.org/2000/svg" width="24" height="24" fill="none"><path fill="#141B34" fill-rule="evenodd" d="M16 4.453h-5.486l-.358-.92-.06-.145-.033-.07a3 3 0 0 0-.084-.145c-.211-.37-.403-.669-.77-.875-.814-.46-2.604-.46-3.417 0-.368.205-.56.504-.77.874-.043.072-.065.11-.085.147l-.028.058-.067.162-.413 1.06c-.881.14-1.544.415-2.081.954-1.098 1.1-1.098 2.716-1.098 5.65v2c0 2.934 0 4.551 1.098 5.65.5.502 1.11.775 1.902.923v1.427a.75.75 0 0 0 1.5 0v-1.277c.651.027 1.395.027 2.25.027h8c.855 0 1.599 0 2.25-.027v1.277a.75.75 0 0 0 1.5 0v-1.427c.793-.148 1.401-.421 1.902-.923 1.098-1.1 1.098-2.716 1.098-5.65v-2c0-2.934 0-4.55-1.098-5.65s-2.715-1.1-5.652-1.1m-7.24-.369.144.37H8c-.71 0-1.343 0-1.91.015l.147-.379.021-.051L6.274 4l.01-.016.028-.047.009-.016q.158-.28.207-.318c.355-.2 1.59-.2 1.948.002q.045.036.204.316l.009.016.02.035.018.03c.01.021.02.045.034.081M8 5.954h8c2.618 0 3.932 0 4.59.66.66.66.66 1.973.66 4.59v2c0 2.615 0 3.928-.66 4.59-.658.66-1.972.66-4.59.66H8c-2.618 0-3.932 0-4.59-.66-.66-.66-.66-1.975-.66-4.59v-2c0-2.617 0-3.93.66-4.59.658-.66 1.972-.66 4.59-.66m-2.246 8.261a.75.75 0 0 0 1.5 0v-4.02a.75.75 0 0 0-1.5 0zm10.994-.03a.75.75 0 0 0 1.5 0v-3.97a.75.75 0 0 0-1.5 0zm-3.741.75h1.477c.689 0 1.25-.56 1.25-1.25v-2.97c0-.689-.561-1.25-1.25-1.25h-1.477c-.69 0-1.25.561-1.25 1.25v2.97c0 .69.56 1.25 1.25 1.25m1.227-1.5h-.977v-2.47h.977zm-4.746.77h.018a.75.75 0 0 0 0-1.5h-.018a.75.75 0 0 0 0 1.5m0-2.51h.018a.75.75 0 0 0 0-1.5h-.018a.75.75 0 0 0 0 1.5" clip-rule="evenodd"/></svg>