<svg xmlns="http://www.w3.org/2000/svg" width="24" height="24" fill="none"><path fill="#141B34" fill-rule="evenodd" d="M12 22.75C6.072 22.75 1.25 17.928 1.25 12S6.072 1.25 12 1.25 22.75 6.072 22.75 12 17.928 22.75 12 22.75m0-20C6.9 2.75 2.75 6.9 2.75 12S6.9 21.25 12 21.25s9.25-4.15 9.25-9.25S17.1 2.75 12 2.75m4.258 5.76a.754.754 0 0 0-1.058-.08.753.753 0 0 0-.077 1.06l1.47 1.7c.333.39.096 1.06-.545 1.06H15c-.415 0-.75.34-.75.75s.336.75.75.75h1.048c1.818 0 2.922-2.1 1.681-3.54zM8.25 13a.75.75 0 0 0 1.5 0V8a.75.75 0 0 0-1.5 0zm1.25 5.25H8a.75.75 0 0 1 0-1.5h.327a2 2 0 0 1-.019-.274c-.001-.552.227-1.073.661-1.507.86-.856 1.993-.424 2.471-.076a.75.75 0 0 1-.882 1.214s-.361-.244-.53-.075c-.221.221-.221.387-.221.441 0 .097.03.193.07.277h1.121a.75.75 0 0 1 0 1.5zm1.5-5.24a1 1 0 0 0 2 0V13a.996.996 0 0 0-1-.995c-.552 0-1 .453-1 1.005" clip-rule="evenodd"/></svg>