<svg xmlns="http://www.w3.org/2000/svg" width="25" height="24" fill="none"><path fill="#141B34" fill-rule="evenodd" d="M9.661 3.25a.75.75 0 0 0-.034-1.5c-2.63.06-4.484.296-5.782 1.595S2.31 6.498 2.25 9.127a.75.75 0 1 0 1.5.034c.061-2.684.333-3.933 1.155-4.756.823-.822 2.072-1.094 4.756-1.155m5.712-1.5a.75.75 0 0 0-.034 1.5c2.684.061 3.933.333 4.756 1.155.822.823 1.094 2.072 1.155 4.756a.75.75 0 1 0 1.5-.034c-.06-2.63-.296-4.484-1.595-5.782S18.002 1.81 15.373 1.75m7.377 13.123a.75.75 0 1 0-1.5-.034c-.061 2.684-.333 3.933-1.155 4.756-.823.822-2.072 1.094-4.756 1.155a.75.75 0 0 0 .034 1.5c2.63-.06 4.484-.296 5.782-1.595s1.535-3.153 1.595-5.782m-19-.034a.75.75 0 0 0-1.5.034c.06 2.63.296 4.484 1.595 5.782s3.153 1.535 5.782 1.595a.75.75 0 1 0 .034-1.5c-2.684-.061-3.933-.333-4.756-1.155-.822-.823-1.094-2.072-1.155-4.756M8.5 7a1 1 0 1 0 0 2h.009a1 1 0 0 0 0-2zm7 9a1 1 0 0 1 1-1h.009a1 1 0 1 1 0 2h-.01a1 1 0 0 1-1-1m1.53-7.47a.75.75 0 0 0-1.06-1.06l-8 8a.75.75 0 1 0 1.06 1.06z" clip-rule="evenodd"/></svg>