<svg xmlns="http://www.w3.org/2000/svg" width="24" height="24" fill="none"><path fill="#141B34" fill-rule="evenodd" d="M3.416 20.404c.894.893 1.827 1.346 2.775 1.346.667 0 1.514-.831 2.108-1.53.34-.4.841-1.056 1.114-1.73.873.176 1.73.265 2.586.265s1.713-.089 2.587-.265c.273.674.773 1.33 1.113 1.73.594.699 1.441 1.53 2.108 1.53 1.95 0 3.594-1.963 4.484-3.802l.024-.056c.73-1.877.742-6.525-1.62-13.444a.74.74 0 0 0-.273-.367c-1.824-1.312-3.652-1.66-5.199-1.827a.75.75 0 0 0-.782.48l-.993 2.608a11.3 11.3 0 0 0-2.897 0l-.994-2.609a.75.75 0 0 0-.782-.479c-1.547.168-3.375.517-5.199 1.828a.75.75 0 0 0-.272.366C.941 11.367.954 16.015 1.684 17.892l.023.056c.261.54.831 1.578 1.71 2.456m13.849-2.701a19 19 0 0 1-1.211.415c.391.763 1.393 1.888 1.844 2.13 1.137-.076 2.355-1.547 3.03-2.927.914-2.417-.16-7.936-1.575-12.157-1.267-.855-2.525-1.18-3.719-1.348l-.686 1.8c.713.168 1.468.393 2.293.676a.75.75 0 1 1-.485 1.419c-3.735-1.277-5.78-1.277-9.515 0a.75.75 0 1 1-.485-1.42c.826-.282 1.581-.507 2.294-.675l-.686-1.8c-1.194.168-2.452.493-3.719 1.349-1.413 4.22-2.489 9.74-1.575 12.157.674 1.379 1.892 2.85 3.03 2.925.452-.241 1.453-1.366 1.845-2.13a19 19 0 0 1-1.211-.415.75.75 0 0 1 .532-1.401c3.318 1.26 6.149 1.26 9.467 0a.749.749 0 1 1 .532 1.402M16.489 13h.01a.996.996 0 0 0 .995-1c0-.553-.453-1-1.005-1a1 1 0 0 0 0 2M7.5 13h.01a.996.996 0 0 0 .996-1c0-.553-.453-1-1.005-1a1 1 0 0 0 0 2" clip-rule="evenodd"/></svg>