<svg xmlns="http://www.w3.org/2000/svg" width="25" height="24" fill="none"><path fill="#141B34" fill-rule="evenodd" d="M10.514 6.396c-.33-.47-.596-1.05-.596-1.705 0-1.622 1.132-2.441 2.25-2.441s2.25.838 2.25 2.441c0 .563-.206 1.145-.6 1.704 3.97.707 7.112 3.918 7.595 8.017a.75.75 0 0 1-1.49.176c-.46-3.898-3.794-6.838-7.755-6.838s-7.295 2.94-7.755 6.838a.75.75 0 1 1-1.49-.176c.484-4.098 3.623-7.308 7.591-8.016m.904-1.705c0-.694.387-.941.75-.941s.75.247.75.941c0 .48-.398.986-.75 1.33-.352-.344-.75-.85-.75-1.33M1.418 17c0 .414.336.75.75.75h.415l.48 1.917A2.75 2.75 0 0 0 5.73 21.75h12.876a2.75 2.75 0 0 0 2.67-2.083l.478-1.917h.414a.75.75 0 0 0 0-1.5h-20a.75.75 0 0 0-.75.75m3.1 2.303L4.13 17.75H20.21l-.389 1.553a1.25 1.25 0 0 1-1.213.947H5.731a1.25 1.25 0 0 1-1.213-.947" clip-rule="evenodd"/></svg>