<svg xmlns="http://www.w3.org/2000/svg" width="25" height="24" fill="none"><path fill="#141B34" fill-rule="evenodd" d="M5.418 21a.75.75 0 0 0 1.5 0v-9.326a3.55 3.55 0 0 0 1.863-1.075c.744-.804 1.137-1.928 1.137-3.248v-4.35a.75.75 0 0 0-1.5 0V7.25h-1.5V3a.75.75 0 0 0-1.5 0v4.25h-1.5V3.001a.75.75 0 0 0-1.5 0v4.35c0 1.32.393 2.443 1.137 3.248a3.55 3.55 0 0 0 1.863 1.075zm.818-10.747a1 1 0 0 0-.136 0c-.982-.028-1.614-.674-1.933-1.503h4.001c-.318.83-.95 1.475-1.932 1.503M21.168 21.75c-5.376 0-9.75-4.374-9.75-9.75s4.374-9.75 9.75-9.75a.75.75 0 0 1 0 1.5c-4.549 0-8.25 3.701-8.25 8.25s3.701 8.25 8.25 8.25a.75.75 0 0 1 0 1.5m0-4a5.756 5.756 0 0 1-5.75-5.75 5.756 5.756 0 0 1 5.75-5.75.75.75 0 0 1 0 1.5 4.255 4.255 0 0 0-4.25 4.25 4.255 4.255 0 0 0 4.25 4.25.75.75 0 0 1 0 1.5" clip-rule="evenodd"/></svg>