<svg xmlns="http://www.w3.org/2000/svg" width="25" height="24" fill="none"><path fill="#141B34" fill-rule="evenodd" d="M2.918 6c0-.811.043-1.41.142-1.86.097-.442.237-.69.397-.85s.41-.3.85-.398c.45-.099 1.05-.142 1.861-.142h12c.811 0 1.41.043 1.86.142.442.097.69.237.85.397s.3.41.398.85c.099.45.142 1.05.142 1.861v1.25h-18.5zm0 2.75V18c0 .811.043 1.41.142 1.86.097.442.237.69.397.85s.41.3.85.398c.45.099 1.05.142 1.861.142h12c.811 0 1.41-.043 1.86-.142.442-.097.69-.237.85-.397s.3-.41.398-.85c.099-.45.142-1.05.142-1.861V8.75zm3.25-7.5c-.844 0-1.572.043-2.182.177-.619.136-1.163.376-1.59.802-.425.426-.665.97-.8 1.589-.135.61-.178 1.338-.178 2.182v12c0 .844.043 1.572.177 2.182.136.619.376 1.163.802 1.59.426.425.97.665 1.589.8.61.135 1.338.178 2.182.178h12c.844 0 1.572-.043 2.182-.177.619-.136 1.163-.376 1.59-.802.425-.426.665-.97.8-1.589.135-.61.178-1.338.178-2.182V6c0-.844-.043-1.572-.177-2.182-.136-.619-.376-1.163-.802-1.59-.426-.425-.97-.665-1.589-.8-.61-.135-1.338-.178-2.182-.178zM4.418 5a.75.75 0 0 1 .75-.75h4a.75.75 0 0 1 0 1.5h-4a.75.75 0 0 1-.75-.75m15.75 0a1 1 0 1 0-2 0v.009a1 1 0 1 0 2 0zm-11 7.75a2.25 2.25 0 1 0 0 4.5 2.25 2.25 0 0 0 0-4.5M5.418 15a3.75 3.75 0 1 1 7.5 0 3.75 3.75 0 0 1-7.5 0m9.845-3.75a.75.75 0 0 0-.842.744v6.004a.75.75 0 0 0 1.5 0V16.36c.172.008.354.014.524.013.32-.002.694-.022 1.01-.1.156-.04.356-.106.535-.235a.99.99 0 0 0 .418-.71c.01-.086.006-.155.004-.179v-.002a2 2 0 0 0-.017-.15 6 6 0 0 0-.056-.311c-.04-.198-.094-.443-.15-.689l-.02-.096c-.023-.099-.04-.192-.06-.294l-.014-.073a5 5 0 0 0-.091-.41 2 2 0 0 0-.523-.923c-.27-.265-.646-.475-1.01-.626a4.8 4.8 0 0 0-1.208-.327m1.174 3.624a9 9 0 0 1-.516-.013v-1.89c.26.111.433.226.51.301.049.05.088.11.127.253.022.078.04.169.064.29l.012.063c.02.103.042.225.07.35l.022.097.117.531q-.175.016-.406.018" clip-rule="evenodd"/></svg>