<svg xmlns="http://www.w3.org/2000/svg" width="24" height="24" fill="none"><path fill="#141B34" fill-rule="evenodd" d="M2.75 12a9.25 9.25 0 1 1 18.5 0 9.25 9.25 0 0 1-18.5 0M12 1.25C6.063 1.25 1.25 6.063 1.25 12S6.063 22.75 12 22.75 22.75 17.937 22.75 12 17.937 1.25 12 1.25m0 15.5a1.4 1.4 0 0 1-.642-.175 2.7 2.7 0 0 1-.461-.323 7.4 7.4 0 0 1-.797-.827c-.23-.272-.453-.556-.643-.798l-.047-.06a9 9 0 0 0-.448-.544.75.75 0 1 1 1.076-1.046c.157.162.36.419.551.664l.045.057c.193.245.4.508.61.757l.006.007V8a.75.75 0 0 1 1.5 0v6.462l.006-.007c.21-.249.417-.512.61-.757l.045-.057c.192-.245.394-.502.551-.664a.75.75 0 1 1 1.076 1.046 9 9 0 0 0-.448.544l-.047.06c-.19.242-.413.526-.643.797-.246.291-.521.593-.797.828a2.7 2.7 0 0 1-.46.323 1.4 1.4 0 0 1-.643.175" clip-rule="evenodd"/></svg>