<svg xmlns="http://www.w3.org/2000/svg" width="24" height="24" fill="none"><path fill="#141B34" fill-rule="evenodd" d="M12.75 3a.75.75 0 0 0-1.5 0v8.462l-.006-.007c-.21-.249-.417-.512-.61-.757l-.045-.057a9 9 0 0 0-.551-.664.75.75 0 0 0-1.076 1.046c.089.091.235.273.448.544l.047.06c.19.242.413.526.643.797.246.291.521.593.797.828.138.117.293.233.46.323.162.086.385.175.643.175s.48-.089.642-.175c.168-.09.323-.206.461-.323.276-.235.551-.537.797-.828.23-.27.453-.555.643-.797l.047-.06q.318-.407.448-.544a.75.75 0 1 0-1.076-1.046c-.157.162-.36.419-.551.664l-.045.057c-.193.245-.4.508-.61.757l-.006.007zm-8.912 7.102a.75.75 0 0 0-1.486-.204q-.101.736-.102 1.502c0 5.67 4.32 10.35 9.75 10.35s9.75-4.68 9.75-10.35q0-.765-.102-1.502a.75.75 0 1 0-1.486.204q.088.636.088 1.298c0 4.934-3.738 8.85-8.25 8.85-4.511 0-8.25-3.916-8.25-8.85q0-.662.088-1.298" clip-rule="evenodd"/></svg>