<svg xmlns="http://www.w3.org/2000/svg" width="24" height="24" fill="none"><path fill="#141B34" fill-rule="evenodd" d="M4.75 6c0-.69.56-1.25 1.25-1.25h.006a1.25 1.25 0 1 1 0 2.5H6c-.69 0-1.25-.56-1.25-1.25m5.997 0c0-.69.56-1.25 1.25-1.25h.006a1.25 1.25 0 0 1 0 2.5h-.006c-.69 0-1.25-.56-1.25-1.25m5.997 0c0-.69.56-1.25 1.25-1.25H18a1.25 1.25 0 1 1 0 2.5h-.006c-.69 0-1.25-.56-1.25-1.25M4.75 12c0-.69.56-1.25 1.25-1.25h.006a1.25 1.25 0 1 1 0 2.5H6c-.69 0-1.25-.56-1.25-1.25m5.997 0c0-.69.56-1.25 1.25-1.25h.006a1.25 1.25 0 0 1 0 2.5h-.006c-.69 0-1.25-.56-1.25-1.25m5.997 0c0-.69.56-1.25 1.25-1.25H18a1.25 1.25 0 1 1 0 2.5h-.006c-.69 0-1.25-.56-1.25-1.25M4.75 18c0-.69.56-1.25 1.25-1.25h.006a1.25 1.25 0 1 1 0 2.5H6c-.69 0-1.25-.56-1.25-1.25m5.997 0c0-.69.56-1.25 1.25-1.25h.006a1.25 1.25 0 0 1 0 2.5h-.006c-.69 0-1.25-.56-1.25-1.25m5.997 0c0-.69.56-1.25 1.25-1.25H18a1.25 1.25 0 1 1 0 2.5h-.006c-.69 0-1.25-.56-1.25-1.25" clip-rule="evenodd"/></svg>