<svg xmlns="http://www.w3.org/2000/svg" width="25" height="24" fill="none"><path fill="#141B34" fill-rule="evenodd" d="M12.981 2.75a2.745 2.745 0 0 0-2.546 3.772v-.198a1 1 0 0 1 .006-.095c.16-1.255 1.226-1.955 2.238-2.012 1.062-.06 2.174.567 2.48 1.945a.8.8 0 0 1 .017.162v.819a2.745 2.745 0 0 0-2.195-4.393M8.743 5.74a4.24 4.24 0 0 0 1.692 3.15v3.631l-.272-.279c-.467-.608-1-1.01-1.584-1.169a2.04 2.04 0 0 0-1.65.252c-.868.548-1.359 1.701-1.114 2.74.08.338.26.605.38.773.594.831 1.123 1.521 1.628 2.18l.001.002.305.398a46 46 0 0 1 1.843 2.558c.251.377.374.832.355 1.299l-.025.63a.75.75 0 1 0 1.498.06l.026-.63a3.7 3.7 0 0 0-.605-2.19 47 47 0 0 0-1.9-2.638l-.31-.404V16.1H9.01c-.505-.658-1.016-1.326-1.595-2.135-.103-.146-.132-.21-.14-.246-.096-.407.122-.916.456-1.128a.54.54 0 0 1 .454-.071c.182.049.469.21.81.663q.029.038.062.072l1.591 1.633a.75.75 0 0 0 1.287-.524V6.38c.067-.373.396-.641.828-.665.38-.021.765.159.913.7v3.651a.75.75 0 0 0 .818.747c.31-.028.946.003 1.73.151.774.146 1.636.396 2.401.77.772.378 1.39.856 1.754 1.43.346.547.5 1.24.244 2.168l-.1.37v.002l-.07.266c-.187.686-.663 1.745-1.15 2.694-.341.666-.45 1.428-.496 2.016-.02.264-.03.512-.037.712l-.002.08a9 9 0 0 1-.02.348l-.004.026a.75.75 0 0 0 1.467.31c.04-.182.048-.427.055-.618v-.011l.004-.082c.007-.202.015-.418.032-.648.042-.535.134-1.053.336-1.448.492-.96 1.032-2.138 1.262-2.986l.077-.288v-.002l.092-.343c.362-1.315.16-2.446-.422-3.367-.566-.894-1.451-1.53-2.362-1.976-.917-.449-1.915-.733-2.783-.897-.476-.09-.93-.147-1.326-.171v-.191A4.245 4.245 0 1 0 8.925 4.24h-3.76l.848-.728a.75.75 0 1 0-.976-1.139L3.849 3.392l-.028.025-.119.108c-.12.108-.29.26-.404.379-.198.208-.427.501-.529.9a.75.75 0 0 0 .013.414c.117.368.33.64.527.843.12.125.28.265.401.37l.121.107.022.02L5.04 7.563A.75.75 0 1 0 6.01 6.42l-.802-.68z" clip-rule="evenodd"/></svg>