<svg xmlns="http://www.w3.org/2000/svg" width="25" height="24" fill="none"><path fill="#141B34" fill-rule="evenodd" d="M14.931 10.251a.8.8 0 0 1-.19-.024v1.933a.75.75 0 0 1-1.5 0V6.5a.751.751 0 0 0-1.503 0v2.955a1 1 0 0 1 0 .092v5.713a.75.75 0 0 1-1.294.516l-1.374-1.45a.78.78 0 0 0-.547-.22l-.048.002a.78.78 0 0 0-.572.293.744.744 0 0 0-.017.924l2.773 3.651.012.015c.56.732.843 1.1 1.147 1.361.475.4 1.05.684 1.657.816.399.083.892.083 1.873.083 1.877 0 2.82 0 3.475-.251A3.75 3.75 0 0 0 21 18.858c.252-.639.252-1.568.252-3.418v-2.21c0-.508-.377-.942-.897-1.031l-.335-.055v.906a.75.75 0 0 1-1.5 0v-.89c0-.573-.48-1.04-1.07-1.04h-.16v1.04a.75.75 0 0 1-1.5 0v-.9a1.05 1.05 0 0 0-.816-1.01l-.04.001zM17.746 6a4.75 4.75 0 0 1-1.36 3.33q.157.133.294.291h.768c.787 0 1.492.351 1.965.904l1.188.196a2.56 2.56 0 0 1 2.117 2.118q.03.1.03.212v2.39c0 2.038 0 3.062-.354 3.964a5.24 5.24 0 0 1-3.043 2.998c-.91.348-1.945.348-4.006.348-1.083 0-1.627 0-2.184-.116a5.4 5.4 0 0 1-2.316-1.141c-.43-.369-.768-.809-1.379-1.607l-.039-.05-2.736-3.602a2.24 2.24 0 0 1 .043-2.775 2.3 2.3 0 0 1 1.654-.848 2.3 2.3 0 0 1 1.742.656l.016.018.09.093V9.915C9.18 9.188 8.49 8.065 8.294 6.77H4.718l.789.667a.75.75 0 0 1-.485 1.323.74.74 0 0 1-.484-.177l-1.182-1-.017-.015a3 3 0 0 0-.2-.157l-.008-.005c-.328-.241-.877-.646-.877-1.385s.538-1.155.86-1.396a2.4 2.4 0 0 0 .24-.195l1.182-1.01a.75.75 0 1 1 .974 1.14l-.831.71h3.613a4.76 4.76 0 0 1 4.7-4.02A4.76 4.76 0 0 1 17.745 6m-8.01.001c0 .662.176 1.277.5 1.79v-1.29a2.253 2.253 0 0 1 4.503 0v2.22h.033a3.25 3.25 0 0 0 1.473-2.72 3.256 3.256 0 0 0-6.51 0" clip-rule="evenodd"/></svg>