<svg xmlns="http://www.w3.org/2000/svg" width="25" height="24" fill="none"><path fill="#141B34" fill-rule="evenodd" d="M10.732 3.514c0-.45.343-.764.705-.764s.705.314.705.764-.344.764-.705.764c-.362 0-.705-.314-.705-.764m.705-2.264c-.98 0-1.782.644-2.08 1.514h-.019l-.07.003-.77.072a.75.75 0 0 0 .14 1.494l.72-.068c.298.87 1.1 1.513 2.079 1.513 1.245 0 2.205-1.042 2.205-2.264s-.96-2.264-2.205-2.264M6.785 5.198A.75.75 0 1 0 5.76 4.103l-.328.307-.037.038-.29.313a.75.75 0 1 0 1.1 1.02l.272-.294zM5.325 7.66a.75.75 0 1 0-1.496-.1l-.05.753c-.895.3-1.549 1.135-1.533 2.136a2.27 2.27 0 0 0 2.295 2.22c1.278-.02 2.204-1.087 2.184-2.285a2.22 2.22 0 0 0-1.444-2.058zM4.5 9.693c.405-.007.719.3.725.715a.73.73 0 0 1-.709.762.77.77 0 0 1-.77-.745c-.006-.376.31-.725.754-.732m9.798 1.942 5.545-6.659c.51-.427 1.61.112 1.161 1.083L17.78 9.941a.75.75 0 0 0 .159 1.102c.543.365 1.956 1.711 2.758 3.236.398.757.602 1.478.545 2.097-.052.573-.335 1.148-1.116 1.656a1 1 0 0 0-.083.063c-.451.393-1.656 1.049-2.733 1.391-.727.232-1.277.726-1.655 1.131-.175.188-.328.372-.448.517l-.034.04a7 7 0 0 1-.156.184c-.033.037-.05.053-.054.058h-.001.001a.75.75 0 1 0 .941 1.168c.15-.12.302-.304.41-.434l.014-.017.032-.04c.122-.147.248-.299.391-.452.318-.34.654-.61 1.013-.725 1.179-.375 2.554-1.091 3.223-1.655 1.104-.733 1.652-1.692 1.749-2.749.093-1.025-.247-2.047-.711-2.931-.706-1.342-1.798-2.55-2.604-3.268l2.794-3.363a.8.8 0 0 0 .088-.131c1.268-2.423-1.69-4.633-3.516-2.91a1 1 0 0 0-.061.065l-4.563 5.48-.026-.138c-.123-1.126-.535-1.964-1.256-2.393-.725-.431-1.536-.315-2.15-.034-1.047.478-1.296 1.62-1.303 2.398l-.05 5.144a2.22 2.22 0 0 1-.664 1.56l-.248.244a.75.75 0 1 0 1.05 1.07l.248-.242a3.72 3.72 0 0 0 1.114-2.618l.05-5.143c.006-.618.207-.949.426-1.049.342-.157.6-.136.76-.041.155.092.44.388.535 1.292l.009.062.328 1.729a.75.75 0 0 0 1.313.34" clip-rule="evenodd"/></svg>