<svg xmlns="http://www.w3.org/2000/svg" width="25" height="24" fill="none"><path fill="#141B34" fill-rule="evenodd" d="M14.696 6.73A4.76 4.76 0 0 1 13.59 9.11q.336.21.593.507h.772c.789 0 1.496.354 1.968.909l1.18.193a2.54 2.54 0 0 1 2.12 2.128.8.8 0 0 1 .028.204v2.386c0 2.036 0 3.058-.352 3.963a5.26 5.26 0 0 1-3.04 3.003c-.911.346-1.945.346-4.004.346h-.001c-1.085 0-1.63 0-2.19-.121a5.3 5.3 0 0 1-2.31-1.141c-.435-.37-.781-.825-1.407-1.649l-.007-.01-2.731-3.595a2.25 2.25 0 0 1 .044-2.78 2.293 2.293 0 0 1 3.392-.187l.017.017.088.093v-3.195l-.051-.026A4.76 4.76 0 0 1 5.252 6a4.756 4.756 0 0 1 4.75-4.75 4.76 4.76 0 0 1 4.687 3.98h4.148l-.794-.658a.751.751 0 0 1 .954-1.157l1.744 1.441q.039.03.07.065c.454.484.558 1 .317 1.58a1.5 1.5 0 0 1-.409.554l-1.702 1.51a.75.75 0 0 1-.497.188l.002.001a.75.75 0 0 1-.498-1.312l.803-.713zM13.252 6c0 .897-.37 1.741-1.001 2.347V6.499A2.25 2.25 0 0 0 10 4.249a2.25 2.25 0 0 0-2.25 2.25v1.845A3.25 3.25 0 0 1 6.75 6a3.254 3.254 0 0 1 3.251-3.25A3.254 3.254 0 0 1 13.252 6m-7.215 8.108-.047.001a.78.78 0 0 0-.57.289.75.75 0 0 0-.015.928l2.73 3.595.01.013c.58.762.87 1.146 1.182 1.41a3.8 3.8 0 0 0 1.657.818c.402.087.893.087 1.87.087 1.877 0 2.819 0 3.474-.248a3.76 3.76 0 0 0 2.173-2.144c.25-.643.25-1.571.25-3.419v-2.212c0-.509-.374-.94-.89-1.025l-.337-.055v.906a.75.75 0 0 1-1.5 0v-.895c0-.573-.48-1.039-1.068-1.039h-.16v1.039a.75.75 0 0 1-1.5 0v-.895c0-.566-.466-1.027-1.045-1.039v1.934a.75.75 0 0 1-1.5 0V6.499a.75.75 0 0 0-1.5 0v8.756a.75.75 0 0 1-1.294.517l-1.372-1.444a.78.78 0 0 0-.548-.22" clip-rule="evenodd"/></svg>