<svg xmlns="http://www.w3.org/2000/svg" width="24" height="24" fill="none"><path fill="#141B34" fill-rule="evenodd" d="M6 6.75c.69 0 1.25.56 1.25 1.25v.006a1.25 1.25 0 0 1-2.5 0V8c0-.69.56-1.25 1.25-1.25m6 0c.69 0 1.25.56 1.25 1.25v.006a1.25 1.25 0 1 1-2.5 0V8c0-.69.56-1.25 1.25-1.25m6 0c.69 0 1.25.56 1.25 1.25v.006a1.25 1.25 0 1 1-2.5 0V8c0-.69.56-1.25 1.25-1.25M6 14.744c.69 0 1.25.56 1.25 1.25V16a1.25 1.25 0 1 1-2.5 0v-.006c0-.69.56-1.25 1.25-1.25m6 0c.69 0 1.25.56 1.25 1.25V16a1.25 1.25 0 1 1-2.5 0v-.006c0-.69.56-1.25 1.25-1.25m6 0c.69 0 1.25.56 1.25 1.25V16a1.25 1.25 0 1 1-2.5 0v-.006c0-.69.56-1.25 1.25-1.25" clip-rule="evenodd"/></svg>