<svg xmlns="http://www.w3.org/2000/svg" width="24" height="24" fill="none"><path fill="#141B34" fill-rule="evenodd" d="M4.755 9.751C3.771 9.741 2.8 8.8 2.428 8.394 2.05 7.984 1.18 6.92 1.254 5.935c.055-.742.59-1.187 1.398-1.86L4.844 2.22c.69-.572 1.516-.699 2.245-.81q.235-.035.448-.073c.357-.077.695-.148 1.057 0 .573.227.944.835 1.242 1.326l.002.003c.078.13.152.25.208.326.915 1.267 1.52 2.102 1.955 2.102.434 0 1.039-.835 1.953-2.099.056-.078.13-.199.208-.328l.003-.003c.298-.49.669-1.1 1.241-1.326.362-.147.702-.076 1.059 0 .166.031.332.056.509.081h.001c.697.103 1.485.218 2.178.8l2.2 1.861.004.003c.803.67 1.337 1.114 1.39 1.856.073.982-.797 2.046-1.175 2.457-.372.405-1.342 1.347-2.318 1.357-.532 0-.93-.233-1.402-.642-.228 1.117-.015 2.295.206 3.517v.005l.008.039.075.42c.2 1.145.482 2.052.754 2.928l.004.012.008.026c.227.732.442 1.425.608 2.232.265 1.28.456 2.205-.307 3-.518.545-2.1 1.46-6.843 1.46l-.001.003h-.013c-.632 0-6.211-.043-7.561-1.463-.76-.793-.57-1.718-.306-2.998.167-.807.381-1.5.608-2.232l.009-.026.003-.013c.272-.876.554-1.783.755-2.927l.015-.085.067-.374c.222-1.225.436-2.404.207-3.524-.472.41-.87.643-1.396.643zm.777-2.11c-.335.318-.662.613-.772.613-.135-.002-.633-.223-1.229-.872-.61-.665-.793-1.193-.783-1.333.035-.128.48-.499.849-.807l.018-.016L5.807 3.37c.363-.302.92-.387 1.508-.477l.067-.01q.217-.034.438-.073h.003q.01 0 .02-.004a5 5 0 0 1 .23-.047c.142.128.362.488.478.677l.004.008c.095.157.185.304.275.428l.008.011C10.103 5.63 10.8 6.593 12 6.593s1.899-.966 3.164-2.716l.002-.003c.092-.125.181-.271.275-.426l.002-.004.005-.007c.115-.19.335-.55.477-.678.055.01.128.026.185.038l.046.01.017.003h.003q.3.055.58.094l.006.001c.592.087 1.06.155 1.424.461L20.39 5.23c.367.306.823.687.86.82.012.138-.171.667-.782 1.332-.596.65-1.093.87-1.221.871-.116 0-.444-.295-.78-.614q.064-.095.135-.188a.75.75 0 0 0-1.2-.9c-1.586 2.114-1.178 4.364-.818 6.349l.03.167.05.284c.22 1.24.515 2.195.802 3.118l.002.007c.219.706.425 1.373.579 2.117.236 1.143.275 1.455.077 1.66-.457.48-2.454.998-5.76.998h-.011c-3.56-.001-6.088-.59-6.477-1-.196-.203-.157-.515.079-1.658.152-.74.357-1.403.575-2.105l.004-.011c.287-.924.584-1.881.803-3.125l.048-.272.033-.178v-.003c.36-1.985.766-4.233-.818-6.346a.75.75 0 0 0-1.2.9q.069.093.133.187M12 16.75c-.548 0-.878-.213-1.296-.482l-.005-.003-.022-.014c-1.737-1.146-1.951-2.366-1.925-2.991.03-.73.413-1.364 1.023-1.697l.005-.003c.742-.4 1.558-.41 2.221-.04.662-.37 1.478-.358 2.221.04.615.336.997.97 1.027 1.699.026.625-.188 1.845-1.92 2.988l-.028.018c-.419.272-.75.486-1.301.486m-1.509-3.87c-.145.08-.232.24-.241.442-.022.518.445 1.143 1.248 1.673l.017.01c.35.228.394.246.485.246s.135-.018.485-.245l.022-.014c.797-.526 1.264-1.152 1.242-1.67-.008-.201-.097-.362-.243-.442-.431-.231-.72-.09-.824-.02l-.088.057c-.169.106-.343.215-.594.215s-.426-.11-.594-.215l-.088-.056c-.104-.071-.393-.211-.826.02z" clip-rule="evenodd"/></svg>