<svg xmlns="http://www.w3.org/2000/svg" width="24" height="24" fill="none"><path fill="#141B34" fill-rule="evenodd" d="M1.25 12c0 5.928 4.822 10.75 10.75 10.75S22.75 17.928 22.75 12 17.928 1.25 12 1.25 1.25 6.072 1.25 12m1.5 0q0-.262.014-.52c1.029.18 2.083.27 3.146.27h-.001c2.282 0 4.506-.426 6.57-1.229q.638 1.319 1.052 2.73-1.117.412-2.185.994C9.26 15.379 7.38 16.987 5.87 18.92A9.23 9.23 0 0 1 2.75 12m11.144 2.712c-2.625.996-4.978 2.741-6.826 5.11A9.2 9.2 0 0 0 12 21.25c.698 0 1.378-.078 2.032-.225.144-.916.217-1.85.217-2.785a17.7 17.7 0 0 0-.355-3.528m1.722 5.802a19.192 19.192 0 0 0-.286-6.265 14.8 14.8 0 0 1 3.817-.499c.637 0 1.277.041 1.912.123a9.29 9.29 0 0 1-5.443 6.641m-.655-7.718a19 19 0 0 0-1.107-2.877 17.8 17.8 0 0 0 5.219-3.874 9.2 9.2 0 0 1 2.17 6.34 17 17 0 0 0-2.096-.134c-1.431 0-2.83.183-4.186.545m-1.808-4.203a16.3 16.3 0 0 0 4.863-3.614A9.2 9.2 0 0 0 12 2.75a9.2 9.2 0 0 0-3.29.604 19.4 19.4 0 0 1 4.443 5.239M7.218 4.085a9.28 9.28 0 0 0-4.249 5.908 16.8 16.8 0 0 0 8.795-.803 17.9 17.9 0 0 0-4.546-5.105" clip-rule="evenodd"/></svg>