<svg xmlns="http://www.w3.org/2000/svg" width="24" height="24" fill="none"><path fill="#141B34" fill-rule="evenodd" d="M6.269 7.685v1.68c-1.742.553-3.019 3.05-3.019 6.137 0 3.505 1.647 6.25 3.75 6.25s3.75-2.745 3.75-6.25c0-3.065-1.26-5.548-2.981-6.124V7.531c0-.525-.321-.99-.817-1.187-.464-.185-1.236-.607-1.194-1.352.048-.853.852-1.184 1.068-1.227.176-.036.646-.028.975.224.233.178.359.456.385.851.075 1.128.25 2.386 1.398 3.041a.749.749 0 1 0 .744-1.302c-.204-.116-.544-.31-.646-1.838-.07-1.046-.566-1.634-.971-1.943-.675-.516-1.583-.624-2.18-.503-.864.171-2.181 1.008-2.271 2.614-.032.57.104 1.958 2.009 2.776M7 10.752c-.764 0-1.592 1.007-1.997 2.612 1.48.329 2.113 1.383 2.64 2.26.423.705.758 1.265 1.464 1.507.092-.5.143-1.046.143-1.629 0-2.799-1.186-4.75-2.25-4.75m-2.25 4.75q0-.333.022-.648c.79.218 1.139.8 1.585 1.543.488.814 1.068 1.78 2.33 2.178-.443 1.051-1.084 1.677-1.687 1.677-1.064 0-2.25-1.951-2.25-4.75m14.358 1.629c.09-.5.142-1.046.142-1.629 0-2.799-1.186-4.75-2.25-4.75-.764 0-1.592 1.007-1.997 2.612 1.48.329 2.113 1.383 2.64 2.26.423.705.758 1.265 1.465 1.507m-4.336-2.277q-.022.315-.022.648c0 2.799 1.186 4.75 2.25 4.75.603 0 1.244-.626 1.688-1.677-1.263-.398-1.842-1.364-2.33-2.177l-.001-.001c-.446-.744-.795-1.325-1.585-1.543m-1.522.648c0 3.505 1.647 6.25 3.75 6.25s3.75-2.745 3.75-6.25c0-3.076-1.268-5.566-3-6.13v-1.84c0-.526-.322-.992-.818-1.187-.463-.185-1.235-.607-1.194-1.352.047-.853.852-1.184 1.069-1.227.176-.036.645-.028.974.224.233.178.359.456.385.851.075 1.13.252 2.388 1.4 3.042a.75.75 0 1 0 .743-1.303c-.204-.116-.544-.31-.646-1.838-.07-1.047-.566-1.635-.971-1.944-.675-.516-1.583-.624-2.18-.503-.864.171-2.182 1.008-2.272 2.615-.031.568.106 1.957 2.01 2.775v1.687c-1.732.564-3 3.054-3 6.13" clip-rule="evenodd"/></svg>