<svg xmlns="http://www.w3.org/2000/svg" width="24" height="24" fill="none"><path fill="#141B34" fill-rule="evenodd" d="M20.687 3.3a.75.75 0 0 0-1.374-.6l-.004.008-.014.031-.058.127q-.077.172-.234.493a41.412 41.412 0 0 1-4.47 7.179c-3.095 3.963-7.4 7.712-12.533 7.712a.75.75 0 1 0 0 1.5c5.867 0 10.562-4.25 13.716-8.288a43 43 0 0 0 3.675-5.6A41 41 0 0 0 20.6 3.495l.064-.141.017-.038.004-.01zM20 3l.687.3zm-1.25 16a1.25 1.25 0 1 1 2.5 0 1.25 1.25 0 0 1-2.5 0M20 16.25c-1.259 0-2.32.846-2.646 2H16a.75.75 0 0 0 0 1.5h1.354A2.751 2.751 0 1 0 20 16.25m-9 2a.75.75 0 0 0 0 1.5h2a.75.75 0 0 0 0-1.5z" clip-rule="evenodd"/></svg>