<svg xmlns="http://www.w3.org/2000/svg" width="24" height="24" fill="none"><path fill="#141B34" fill-rule="evenodd" d="M12.442 2.734A2.75 2.75 0 0 0 10 1.25H8a.75.75 0 0 0-.75.75v1A2.75 2.75 0 0 0 10 5.75h1.25v2.5H9a.75.75 0 0 0 0 1.5h.25v3.55l-3.745 6.555.651.372-.651-.372a1.935 1.935 0 0 0 1.68 2.895h9.63a1.935 1.935 0 0 0 1.68-2.895L14.75 13.3V9.75H15a.75.75 0 0 0 0-1.5h-2.25v-1.5H14A2.75 2.75 0 0 0 16.75 4V3a.75.75 0 0 0-.75-.75h-2c-.578 0-1.115.179-1.558.484m.308 2.516H14c.69 0 1.25-.56 1.25-1.25v-.25H14c-.69 0-1.25.56-1.25 1.25zm-2 8.25V9.75h2.5v3.75c0 .13.034.259.099.372l3.844 6.727a.436.436 0 0 1-.378.651h-9.63a.435.435 0 0 1-.378-.651l3.844-6.727a.75.75 0 0 0 .099-.372M10 2.75c.69 0 1.25.56 1.25 1.25v.25H10c-.69 0-1.25-.56-1.25-1.25v-.25z" clip-rule="evenodd"/></svg>