<svg xmlns="http://www.w3.org/2000/svg" width="24" height="24" fill="none"><path fill="#141B34" fill-rule="evenodd" d="M14.15 1.265a.75.75 0 0 0-.3 1.47c3.267.667 5.936 3.006 7.085 6.093l-1.125-.51a.75.75 0 0 0-.62 1.365l1.905.866.015.006.03.012c.126.05.293.118.441.152.17.04.547.09.87-.201.315-.285.311-.655.291-.833a3 3 0 0 0-.1-.45l-.01-.03c-1.113-4.004-4.386-7.103-8.482-7.94M8.317 4.19l.511-1.125c-3.087 1.15-5.426 3.819-6.093 7.085a.75.75 0 0 1-1.47-.3c.837-4.096 3.936-7.369 7.94-8.483l.03-.008c.128-.036.3-.084.45-.1.178-.021.548-.025.833.29.291.323.24.7.201.87a3 3 0 0 1-.152.442l-.012.029-.006.015-.866 1.905a.75.75 0 0 1-1.366-.62m14.418 9.96a.75.75 0 0 0-1.47-.3c-.667 3.267-3.005 5.936-6.093 7.085l.511-1.125a.75.75 0 0 0-1.366-.62l-.865 1.905-.007.015-.011.03c-.051.126-.119.293-.153.441-.04.17-.09.547.201.87.286.315.656.311.833.291.15-.017.322-.065.45-.1l.03-.01c4.004-1.113 7.103-4.386 7.94-8.482M2.89 13.445l-.03-.011a3 3 0 0 0-.44-.153c-.171-.04-.548-.09-.87.201-.316.286-.312.656-.292.833.017.15.065.322.101.45l.008.03c1.114 4.004 4.387 7.103 8.483 7.94a.75.75 0 0 0 .3-1.47c-3.266-.667-5.936-3.005-7.085-6.093l1.125.511a.75.75 0 0 0 .62-1.366l-1.905-.865zm11.816-5.183.039-.003-.003.07c-.064 1.614-.42 3.4-1.218 4.506-.383.532-.846.876-1.413 1.006-.422.097-.958.088-1.636-.117a7.5 7.5 0 0 1 1.95-2.007.75.75 0 1 0-.85-1.237 8.9 8.9 0 0 0-1.955 1.867 3.4 3.4 0 0 1-.002-1.137c.115-.637.44-1.148.923-1.566 1-.866 2.642-1.296 4.165-1.382m-2.259 7.04c-.807.186-1.708.11-2.7-.24a9 9 0 0 0-.514 1.599.75.75 0 1 1-1.465-.322c.184-.837.455-1.593.783-2.269-.45-1.16-.576-2.203-.409-3.127.185-1.02.715-1.824 1.416-2.432 1.367-1.185 3.405-1.653 5.064-1.747l.033-.002c.161-.01.362-.02.538-.002.229.024.494.105.719.334.224.227.3.491.326.714.02.176.011.378.004.547v.033c-.069 1.701-.44 3.854-1.501 5.325-.546.757-1.297 1.36-2.294 1.59" clip-rule="evenodd"/></svg>