<svg xmlns="http://www.w3.org/2000/svg" width="24" height="24" fill="none"><path fill="#141B34" fill-rule="evenodd" d="M12.442 2.734A2.75 2.75 0 0 0 10 1.25H8a.75.75 0 0 0-.75.75v1A2.75 2.75 0 0 0 10 5.75h1.25v2.5H8a.75.75 0 0 0 0 1.5h.25V19a3.75 3.75 0 1 0 7.5 0V9.75H16a.75.75 0 0 0 0-1.5h-3.25v-1.5H14A2.75 2.75 0 0 0 16.75 4V3a.75.75 0 0 0-.75-.75h-2c-.578 0-1.115.179-1.558.484m.308 2.516H14c.69 0 1.25-.56 1.25-1.25v-.25H14c-.69 0-1.25.56-1.25 1.25zM9.75 19V9.75h4.5V19a2.25 2.25 0 0 1-4.5 0M10 2.75c.69 0 1.25.56 1.25 1.25v.25H10c-.69 0-1.25-.56-1.25-1.25v-.25z" clip-rule="evenodd"/></svg>