<svg xmlns="http://www.w3.org/2000/svg" width="25" height="24" fill="none"><path fill="#141B34" fill-rule="evenodd" d="M12.393 1.75h-.114c-2.19 0-3.912 0-5.255.18-1.377.186-2.469.573-3.327 1.43-.858.86-1.245 1.951-1.43 3.328-.181 1.343-.181 3.064-.181 5.255v1.088c.004 1.735.028 3.143.18 4.281.186 1.377.573 2.469 1.43 3.327.859.858 1.951 1.245 3.328 1.43 1.343.181 3.064.181 5.255.181h.062a.75.75 0 0 0 .745-.75v-7.75h3.75a.75.75 0 1 0 0-1.5h-3.75v-2.5h7.991c.009.672.009 1.417.009 2.25a.75.75 0 0 0 1.5 0v-.057c0-2.19 0-3.912-.18-5.255-.186-1.377-.573-2.469-1.431-3.327s-1.95-1.245-3.327-1.43c-1.343-.181-3.064-.181-5.255-.181m-.058 6.5h8.7a16 16 0 0 0-.116-1.362c-.163-1.21-.472-1.933-1.005-2.466s-1.256-.842-2.466-1.005c-1.232-.165-2.852-.167-5.112-.167s-3.88.002-5.112.167c-1.21.163-1.933.472-2.466 1.005s-.842 1.256-1.005 2.466q-.081.61-.116 1.362zm-.75 1.5v2.5h-8V12c0-.833.001-1.578.01-2.25zm0 4H3.59c.007.967.025 1.79.077 2.5h7.919zm0 4H3.863c.179.84.464 1.396.896 1.828.533.534 1.256.842 2.466 1.005 1.091.147 2.487.165 4.362.167zm9.582-3.174a1.65 1.65 0 0 0-1.65.024c-.212.127-.395.326-.593.541l-.048.052-3.081 3.339-.058.062c-.345.374-.615.666-.774 1.032s-.19.764-.23 1.276l-.006.086-.01.115v.02a2.4 2.4 0 0 0-.011.31c.007.13.04.334.201.516a.83.83 0 0 0 .495.264c.105.018.223.02.308.023h.02l.093.003.1.002c.584.016 1.047.029 1.478-.14.428-.167.763-.49 1.188-.9l.073-.07 3.12-3.006.051-.048c.212-.203.406-.39.529-.605.29-.51.299-1.135.024-1.653-.117-.218-.306-.41-.511-.62l-.05-.05-.048-.05c-.204-.21-.394-.404-.61-.523m-1.013 1.094a.41.41 0 0 1 .41-.006c.034.019.086.063.373.356.285.292.33.346.35.384a.47.47 0 0 1-.006.451c-.021.037-.067.09-.361.374l-3.121 3.006c-.534.514-.683.642-.851.707-.157.062-.337.07-.974.056.045-.568.068-.733.13-.876.065-.149.175-.28.605-.746l3.081-3.339c.278-.3.33-.347.364-.367" clip-rule="evenodd"/></svg>