<svg xmlns="http://www.w3.org/2000/svg" width="24" height="24" fill="none"><path fill="#141B34" fill-rule="evenodd" d="M4.002 3a.75.75 0 1 0-1.5 0v18a.75.75 0 0 0 1.5 0zm13 0a.75.75 0 0 0-1.5 0v7.5a.75.75 0 1 0 1.5 0zm-7.25-.75a.75.75 0 0 1 .75.75v4a.75.75 0 0 1-1.5 0V3a.75.75 0 0 1 .75-.75m.75 7.75a.75.75 0 0 0-1.5 0v4a.75.75 0 0 0 1.5 0zm-.75 6.25a.75.75 0 0 1 .75.75v4a.75.75 0 0 1-1.5 0v-4a.75.75 0 0 1 .75-.75m10.39-3.342a2.257 2.257 0 0 0-3.186 0l-3.684 3.674a2.75 2.75 0 0 0-.759 1.43l-.478 2.226a1.25 1.25 0 0 0 1.489 1.483l2.244-.486a2.76 2.76 0 0 0 1.431-.755l3.64-3.699a2.247 2.247 0 0 0-.003-3.18zm-2.127 1.062a.757.757 0 0 1 1.068 0l.694.693a.747.747 0 0 1 0 1.059l-3.64 3.698a1.26 1.26 0 0 1-.676.347l-1.878.407.399-1.857.003-.02c.047-.247.167-.475.346-.653z" clip-rule="evenodd"/></svg>