<svg xmlns="http://www.w3.org/2000/svg" width="24" height="24" fill="none"><path fill="#141B34" fill-rule="evenodd" d="M12 1.25a.75.75 0 0 1 .75.75v1.355c.515.185.914.601 1.076 1.147.028.095.048.208.068.321l.006.031a37 37 0 0 0 1.412 5.396H16a.75.75 0 0 1 0 1.5h-.138c.323.825.683 1.661 1.083 2.5H18a.75.75 0 0 1 0 1.5h-.296a34.3 34.3 0 0 0 3.65 5.5H22a.75.75 0 0 1 0 1.5h-7a.75.75 0 0 1-.398-1.386c-.114-.52-.193-.774-.319-.995a2.4 2.4 0 0 0-.302-.418c-.235-.259-.557-.447-1.514-.975a7 7 0 0 0-.368-.195 1 1 0 0 0-.074-.03.2.2 0 0 0-.05 0 1 1 0 0 0-.073.03c-.081.037-.185.094-.368.195-.957.528-1.28.716-1.514.975a2.4 2.4 0 0 0-.303.418c-.126.221-.205.475-.32.995A.75.75 0 0 1 9 22.75H2a.75.75 0 0 1 0-1.5h.646a34.3 34.3 0 0 0 3.65-5.5H6a.75.75 0 0 1 0-1.5h1.055c.4-.839.76-1.675 1.083-2.5H8a.75.75 0 0 1 0-1.5h.688A37 37 0 0 0 10.1 4.854l.006-.031a3 3 0 0 1 .068-.321c.162-.546.56-.962 1.076-1.147V2a.75.75 0 0 1 .75-.75m4.012 14.5H7.988a36.3 36.3 0 0 1-3.434 5.5h3.333c.141-.674.273-1.177.526-1.623q.211-.37.496-.684c.424-.467.984-.776 1.794-1.222l.106-.058.07-.039c.275-.153.574-.319.909-.361q.212-.027.425 0c.334.042.633.208.909.361l.07.039.105.058.261.144c.672.373 1.157.663 1.533 1.078q.285.314.496.684c.254.446.385.949.526 1.623h3.333a36.3 36.3 0 0 1-3.434-5.5m-1.756-4H9.744a39 39 0 0 1-1.034 2.5h6.58a39 39 0 0 1-1.034-2.5m-2.147-7h-.218l-.037.001-.031.001a.23.23 0 0 0-.21.175l-.008.035-.029.157a38 38 0 0 1-1.306 5.131h3.46a38 38 0 0 1-1.306-5.131c-.014-.075-.022-.122-.03-.157l-.007-.035a.23.23 0 0 0-.21-.175l-.031-.001z" clip-rule="evenodd"/></svg>