<svg xmlns="http://www.w3.org/2000/svg" width="24" height="24" fill="none"><path fill="#141B34" fill-rule="evenodd" d="M11.035 4.158c.38-.607.623-.993.827-1.236.061-.074.107-.119.137-.145.031.026.076.071.138.145.204.243.447.629.826 1.235l.683 1.093h-3.294zM8.448 5.466l1.315-2.104.03-.046c.341-.547.64-1.024.919-1.358.287-.342.695-.708 1.287-.708s1 .366 1.288.708c.28.334.578.811.92 1.358l.028.046 1.314 2.103q.163.087.318.183l.048.03L20.3 8.335l.06.036c.228.137.485.292.67.52.194.24.279.525.346.755l.018.058.324 1.08a.75.75 0 0 1-1.437.43l-.324-1.079a4 4 0 0 0-.091-.286l-.005-.013-.002-.004-.037-.027a3 3 0 0 0-.127-.082.8.8 0 0 1-.196.026h-3.906l3.942 11.5H21a.75.75 0 0 1 0 1.5H3a.75.75 0 0 1 0-1.5h1.464l3.942-11.5H4.262a2 2 0 0 0-.122.083l-.006.017c-.021.054-.045.13-.092.286l-.323 1.08a.75.75 0 1 1-1.437-.431l.324-1.08.017-.058c.068-.23.152-.515.347-.756.136-.167.31-.295.485-.406a.75.75 0 0 1 .338-.206l4.292-2.602.049-.029q.152-.095.314-.182M12.05 2.74q0 0-.007.003zm-.095.003-.007-.003zm3.59 4.464 1.72 1.043h-1.909zm-1.686.894q-.011.075-.02.149h-3.678q-.008-.075-.02-.149l-.003-.02-.24-1.331h4.205l-.24 1.33zm-4.283 2.864-.689 2.009 1.795-1.243zM6.44 20.11l1.602-4.673 2.626 1.79zm.99 1.14L12 18.135l4.569 3.115zm5.9-4.023 4.229 2.883-1.602-4.673zm-4.007-2.732L12 16.32l2.676-1.825L12 12.643zm5.79-1.521-1.796-1.243 1.107-.767zM12 10.819 10.457 9.75h3.086zM8.456 7.207l.188 1.043h-1.91z" clip-rule="evenodd"/></svg>