<svg xmlns="http://www.w3.org/2000/svg" width="24" height="24" fill="none"><path fill="#141B34" fill-rule="evenodd" d="M22 11.249a.74.74 0 0 1-.52-.209l-.732-.703V13.5c0 3.973 0 5.968-1.392 7.359-1.022 1.022-2.414 1.276-4.328 1.355h-.031l.001.001a.75.75 0 0 1-.03-1.499c1.833-.075 2.735-.324 3.328-.917.952-.952.952-2.739.952-6.299v-4.6l-2.11-2.023C14.616 4.459 13.355 3.249 12 3.249S9.385 4.458 6.874 6.866l-.007.006-2.117 2.03v4.597c0 3.56 0 5.346.952 6.299.845.845 2.335.942 5.3.951a.246.246 0 0 0 .247-.25v-2.256a2.57 2.57 0 0 1-1.912-1.032l-.35-.484a5.9 5.9 0 0 1-1.12-2.988l-.108-1.298a1.5 1.5 0 0 1 .402-1.158c.28-.304.671-.492 1.09-.527V9a.75.75 0 0 1 1.5 0v1.75h2.5V9a.75.75 0 0 1 1.5 0v1.756c.421.035.814.223 1.094.528.295.321.438.733.402 1.159l-.107 1.297a5.9 5.9 0 0 1-1.12 2.989l-.35.482a2.57 2.57 0 0 1-1.921 1.034v2.254c0 .468-.182.908-.514 1.239-.33.329-.768.511-1.234.511h-.003c-3.089-.01-5.049-.082-6.357-1.391-1.391-1.392-1.391-3.386-1.391-7.359V10.34l-.731.701A.75.75 0 1 1 1.48 9.959l4.343-4.164C8.634 3.1 10.043 1.75 12 1.75s3.366 1.35 6.17 4.04l4.349 4.169a.75.75 0 0 1-.52 1.291zm-9.997 5.5h.574c.354 0 .691-.161.88-.42l.35-.482a4.43 4.43 0 0 0 .84-2.232l.106-1.298c-.003-.016-.048-.068-.143-.068H9.395c-.094 0-.139.053-.142.066v.002l.107 1.298a4.43 4.43 0 0 0 .84 2.231l.35.484c.188.258.525.419.88.419h.573" clip-rule="evenodd"/></svg>