<svg xmlns="http://www.w3.org/2000/svg" width="24" height="24" fill="none"><path fill="#141B34" fill-rule="evenodd" d="m12.769 3.793-5.973 8.05a.29.29 0 0 0 .004.32h2.89c.954 0 1.52.87 1.52 1.664v6.258c0 .057.01.097.02.122l5.974-8.05a.29.29 0 0 0-.004-.32h-2.89c-.954 0-1.52-.87-1.52-1.664V3.915a.3.3 0 0 0-.021-.122m.58-1.417c.571.256.941.85.941 1.54v6.257c0 .084.03.139.05.162v.001h2.888c.728 0 1.21.513 1.403 1.02.194.511.17 1.166-.222 1.694l-5.999 8.085c-.444.598-1.159.757-1.759.489-.572-.256-.942-.85-.942-1.54v-6.257a.26.26 0 0 0-.049-.162v-.001H6.771c-.728 0-1.21-.513-1.403-1.02a1.79 1.79 0 0 1 .222-1.694l5.998-8.085c.444-.598 1.16-.757 1.76-.489" clip-rule="evenodd"/></svg>