<svg xmlns="http://www.w3.org/2000/svg" width="25" height="24" fill="none"><path fill="#141B34" fill-rule="evenodd" d="M13.5 4.75c2.038 0 2.804.019 3.453.343.65.325 1.124.927 2.347 2.557.877 1.17 1.496 1.996 1.902 2.694.396.68.548 1.17.548 1.656s-.152.975-.548 1.656c-.406.698-1.025 1.524-1.902 2.694-1.223 1.63-1.698 2.232-2.347 2.557s-1.415.343-3.453.343h-3c-1.907 0-3.261-.002-4.29-.14-1.005-.135-1.585-.389-2.008-.812s-.677-1.003-.812-2.009c-.138-1.027-.14-2.382-.14-4.289s.002-3.261.14-4.29c.135-1.005.389-1.585.812-2.008s1.003-.677 2.009-.812c1.028-.138 2.382-.14 4.289-.14zm4.124-.998c-1.005-.503-2.156-.503-3.935-.502h-3.245c-1.838 0-3.294 0-4.433.153-1.172.158-2.121.49-2.87 1.238-.748.749-1.08 1.698-1.238 2.87-.153 1.14-.153 2.595-.153 4.433v.112c0 1.838 0 3.294.153 4.433.158 1.172.49 2.121 1.238 2.87.749.748 1.698 1.08 2.87 1.238 1.14.153 2.595.153 4.433.153h3.245c1.78 0 2.93.001 3.935-.501 1.005-.503 1.696-1.424 2.763-2.848l.113-.15.028-.038c.843-1.124 1.515-2.02 1.97-2.802.47-.808.752-1.563.752-2.41 0-.849-.281-1.603-.752-2.412-.455-.782-1.127-1.678-1.97-2.801L20.5 6.75l-.113-.151c-1.067-1.424-1.758-2.345-2.763-2.847M12.25 8a.75.75 0 0 0-1.5 0v3.25H7.5a.75.75 0 0 0 0 1.5h3.25V16a.75.75 0 0 0 1.5 0v-3.25h3.25a.75.75 0 0 0 0-1.5h-3.25z" clip-rule="evenodd"/></svg>