<svg xmlns="http://www.w3.org/2000/svg" width="25" height="24" fill="none"><path fill="#141B34" fill-rule="evenodd" d="M6.75 10.75H5.5a.75.75 0 0 1 0-1.5h1.284c.349-3.882 3.381-7 7.177-7 2.654 0 4.947 1.536 6.194 3.778a.75.75 0 1 1-1.31.729C17.83 4.934 16.009 3.75 13.962 3.75c-2.875 0-5.33 2.358-5.672 5.5h5.21a.75.75 0 0 1 0 1.5H8.25v2.5h5.25a.75.75 0 0 1 0 1.5H8.29c.341 3.142 2.797 5.5 5.672 5.5 2.047 0 3.868-1.184 4.883-3.007a.75.75 0 1 1 1.31.73c-1.247 2.241-3.54 3.777-6.194 3.777-3.796 0-6.828-3.118-7.177-7H5.5a.75.75 0 0 1 0-1.5h1.25z" clip-rule="evenodd"/></svg>