<svg xmlns="http://www.w3.org/2000/svg" width="25" height="24" fill="none"><path fill="#141B34" fill-rule="evenodd" d="M3.25 12a9.25 9.25 0 1 1 18.5 0 9.25 9.25 0 0 1-18.5 0M12.5 1.25C6.563 1.25 1.75 6.063 1.75 12S6.563 22.75 12.5 22.75 23.25 17.937 23.25 12 18.437 1.25 12.5 1.25m.657 6c-2.012 0-3.484 1.823-3.484 3.861v.139H9.5a.75.75 0 0 0 0 1.5h.173v.139c0 2.038 1.472 3.861 3.484 3.861 1.317 0 2.42-.8 3.006-1.907a.75.75 0 0 0-1.326-.702c-.37.7-1.008 1.109-1.68 1.109-1.008 0-1.984-.963-1.984-2.361v-.139h2.25a.75.75 0 0 0 0-1.5h-2.25v-.139c0-1.398.976-2.361 1.984-2.361.672 0 1.31.409 1.68 1.109a.75.75 0 1 0 1.326-.702c-.586-1.107-1.69-1.907-3.006-1.907" clip-rule="evenodd"/></svg>