<svg xmlns="http://www.w3.org/2000/svg" width="24" height="24" fill="none"><path fill="#141B34" fill-rule="evenodd" d="M10.166 3.954a8.25 8.25 0 0 1 7.56 13.984V16a.75.75 0 0 0-1.5 0v3.5c0 .414.337.75.75.75H20.5a.75.75 0 0 0 0-1.5h-1.464A9.72 9.72 0 0 0 21.75 12c0-5.385-4.365-9.75-9.75-9.75a9.8 9.8 0 0 0-2.166.242.75.75 0 0 0 .332 1.462M3.5 3.766a.75.75 0 0 0 0 1.5h1.45A9.72 9.72 0 0 0 2.25 12c0 5.385 4.365 9.75 9.75 9.75.744 0 1.469-.083 2.166-.241a.75.75 0 0 0-.332-1.463A8.25 8.25 0 0 1 6.25 6.084V8a.75.75 0 0 0 1.5 0V4.516a.75.75 0 0 0-.75-.75z" clip-rule="evenodd"/></svg>