<svg xmlns="http://www.w3.org/2000/svg" width="24" height="24" fill="none"><path fill="#141B34" fill-rule="evenodd" d="M16.468 13.53c.146.148.338.22.53.22H17a.75.75 0 0 0 .53-.22l3-3a.75.75 0 1 0-1.06-1.06l-3 3a.75.75 0 0 0 0 1.06m-3-3c.146.148.338.22.53.22H14a.75.75 0 0 0 .53-.22l8-8a.75.75 0 1 0-1.06-1.06l-8 8a.75.75 0 0 0 0 1.06m-3-3c.146.148.338.22.53.22H11a.75.75 0 0 0 .53-.22l5-5a.75.75 0 1 0-1.06-1.06l-5 5a.75.75 0 0 0 0 1.06m-.466 14.772c.563.335 1.025.448 1.393.448l.002.002c.422 0 .72-.148.902-.28.338-.248.862-.87.546-2.251l-.426-1.854c-.021-.102.042-.33.114-.402l1.486-1.5c.624-.626.864-1.357.658-2.005-.207-.647-.825-1.102-1.695-1.249l-1.912-.32a.62.62 0 0 1-.306-.229L9.71 10.534C9.308 9.72 8.685 9.252 8.002 9.25h-.003c-.683 0-1.308.467-1.715 1.284l-1.06 2.133a.6.6 0 0 1-.294.223l-1.915.32c-.867.146-1.483.6-1.691 1.245-.208.647.03 1.38.653 2.007l1.488 1.502c.07.07.135.3.113.398l-.426 1.857c-.317 1.378.208 2 .549 2.249.34.247 1.09.553 2.294-.166l1.788-1.067c.094-.055.336-.058.425-.005zm-1.026-2.36a1.9 1.9 0 0 0-.974-.25v-.002c-.346 0-.695.084-.982.252l-1.795 1.072c-.348.207-.562.24-.638.235-.03-.072-.067-.29.026-.694l.427-1.863c.134-.6-.081-1.352-.511-1.785l-1.488-1.5c-.278-.28-.3-.462-.29-.492.009-.028.13-.16.51-.224l1.919-.322c.559-.096 1.145-.537 1.39-1.04L7.626 11.2c.178-.355.342-.446.37-.45.032.004.194.095.368.448v.002l1.053 2.124c.249.51.838.95 1.402 1.047l1.913.32c.386.063.507.196.516.225.009.03-.013.21-.293.49l-1.488 1.501c-.431.434-.647 1.186-.511 1.79l.426 1.857c.091.402.056.622.027.696-.078.006-.293-.03-.64-.236z" clip-rule="evenodd"/></svg>