<svg xmlns="http://www.w3.org/2000/svg" width="24" height="24" fill="none"><path fill="#141B34" fill-rule="evenodd" d="M4.145 3.355c2.98-1.828 5.655-1.1 7.27.114.266.2.449.336.585.428.135-.092.318-.229.584-.428 1.615-1.214 4.29-1.942 7.27-.114 2.062 1.265 3.221 3.906 2.814 6.94-.409 3.05-2.382 6.498-6.562 9.592l-.104.076C14.551 21.039 13.59 21.75 12 21.75s-2.552-.712-4.003-1.787l-.104-.076c-4.18-3.094-6.153-6.543-6.562-9.592-.407-3.034.753-5.675 2.814-6.94m7.698.639.001-.001zm.312-.001h.001zm-1.64.675c-1.197-.899-3.203-1.496-5.586-.034-1.458.894-2.456 2.893-2.112 5.462.343 2.553 2.03 5.67 5.968 8.585 1.582 1.17 2.16 1.57 3.215 1.57s1.632-.4 3.214-1.57c3.938-2.915 5.625-6.032 5.968-8.585.344-2.569-.654-4.568-2.112-5.462-2.382-1.462-4.39-.865-5.586.034l-.02.016c-.271.203-.503.377-.689.499a2.4 2.4 0 0 1-.315.178 1.1 1.1 0 0 1-.46.107 1.1 1.1 0 0 1-.461-.107 2.4 2.4 0 0 1-.315-.178c-.186-.122-.418-.296-.688-.5z" clip-rule="evenodd"/></svg>