<svg xmlns="http://www.w3.org/2000/svg" width="24" height="24" fill="none"><path fill="#141B34" fill-rule="evenodd" d="M14.104 1.25a.75.75 0 1 0-.024 1.5c2.469.04 3.532.256 4.218.942.423.424.677 1.004.812 2.01.138 1.029.14 2.384.14 4.292v3.345c0 .438-.003.715-.017.907h-.288c-1.367 0-2.47 0-3.337.117-.9.121-1.658.38-2.26.982s-.86 1.36-.982 2.261c-.116.867-.116 1.97-.116 3.339v.292c-.167.01-.408.013-.794.013-1.64 0-2.806-.001-3.701-.106-.879-.102-1.4-.296-1.795-.614a3.3 3.3 0 0 1-.49-.49c-.318-.395-.512-.917-.614-1.797-.105-.895-.106-2.061-.106-3.703V9.995a.75.75 0 0 0-1.5 0v4.594c0 1.582 0 2.836.116 3.828.119 1.02.368 1.859.936 2.563q.32.397.716.717c.705.569 1.544.818 2.563.937.992.116 2.245.116 3.827.116h.152c.604 0 1.08.001 1.527-.157q.139-.048.271-.112c.428-.205.764-.542 1.19-.97l.074-.073 4.737-4.74.085-.085c.495-.493.886-.884 1.097-1.393.21-.508.21-1.061.21-1.76l-.001-.121V9.938c0-1.84 0-3.296-.153-4.435-.158-1.173-.49-2.122-1.238-2.871-1.177-1.177-2.879-1.343-5.255-1.382m1.704 14.6c.604-.082 1.366-.099 2.381-.103l-4.438 4.44c.004-1.015.02-1.777.102-2.381.099-.734.28-1.123.556-1.4.277-.277.665-.458 1.4-.556M7.588 1.649c.155.085.292.177.412.267.12-.09.257-.182.41-.267.649-.357 1.605-.584 2.68-.024 1.332.695 1.932 2.321 1.541 3.92-.4 1.634-1.794 3.221-4.375 4.16a.75.75 0 0 1-.513 0c-2.58-.939-3.975-2.526-4.374-4.16-.391-1.599.209-3.225 1.54-3.92 1.075-.56 2.032-.333 2.68.024M8 3.696a.83.83 0 0 1-.615-.316s-.058-.065-.107-.111a2 2 0 0 0-.413-.306c-.324-.18-.74-.28-1.262-.007-.601.313-1.038 1.166-.777 2.232.242.99 1.127 2.194 3.179 3.009 2.051-.815 2.927-2.018 3.169-3.009.26-1.066-.176-1.919-.778-2.232-.522-.273-.937-.172-1.261.007-.172.094-.314.21-.413.306-.049.046-.107.11-.107.11A.83.83 0 0 1 8 3.697" clip-rule="evenodd"/></svg>