<svg xmlns="http://www.w3.org/2000/svg" width="24" height="24" fill="none"><path fill="#141B34" fill-rule="evenodd" d="M16.82 2.25H5.184c-.77 0-1.425 0-1.94.07-.547.075-1.07.243-1.47.683-.403.444-.513.98-.522 1.526-.007.511.074 1.146.17 1.886l.006.053c.034.263.08.517.185.772.108.26.26.475.442.692.979 1.162 2.796 3.262 5.355 5.175a.5.5 0 0 1 .076.07c.001.004.019.035.028.146.28 3.434.535 5.757.676 6.943.064.54.38 1.018.83 1.28.477.278 1.1.305 1.641-.077.197-.14.433-.283.71-.452l.07-.043c.298-.18.631-.385.945-.613.6-.435 1.296-1.066 1.467-1.979l.01-.052c.048-.253.081-.432.126-.736a.74.74 0 0 0-.612-.834.76.76 0 0 0-.876.644c-.04.262-.07.425-.112.646l-.01.056c-.058.31-.326.644-.873 1.04-.26.188-.545.365-.844.547l-.079.048a14 14 0 0 0-.803.512l-.005-.003a.2.2 0 0 1-.058-.059.24.24 0 0 1-.037-.101c-.139-1.17-.392-3.474-.671-6.89a1.8 1.8 0 0 0-.199-.727 1.7 1.7 0 0 0-.502-.568c-2.418-1.807-4.147-3.8-5.105-4.94a1.2 1.2 0 0 1-.205-.3c-.028-.067-.053-.163-.082-.388-.104-.809-.17-1.335-.164-1.725.006-.365.075-.477.133-.54.061-.067.177-.153.56-.205.404-.055.954-.057 1.791-.057h11.532c.837 0 1.387.002 1.79.057.384.052.5.138.56.205.058.063.128.175.134.54a.72.72 0 0 0 .763.703l.06-.005c.339-.028.645-.29.674-.63a1 1 0 0 0 .002-.09c-.008-.548-.119-1.083-.522-1.527-.4-.44-.922-.608-1.468-.683-.517-.07-1.17-.07-1.941-.07m4.574 4.66a2.257 2.257 0 0 0-3.187 0l-3.684 3.674c-.39.39-.655.888-.758 1.43l-.479 2.226a1.25 1.25 0 0 0 1.49 1.483l2.244-.485a2.76 2.76 0 0 0 1.43-.756l3.64-3.699a2.247 2.247 0 0 0-.002-3.18zm-2.128 1.062a.757.757 0 0 1 1.068 0l.695.693a.747.747 0 0 1 0 1.059l-3.64 3.698a1.26 1.26 0 0 1-.677.347l-1.878.407.399-1.857.004-.02c.046-.247.167-.475.346-.653z" clip-rule="evenodd"/></svg>