<svg xmlns="http://www.w3.org/2000/svg" width="24" height="24" fill="none"><path fill="#141B34" fill-rule="evenodd" d="M5.015 4.812c1.103-.857 3.394-1.767 6.402-.235 2.768 1.41 5.26 1.345 7.004.861.362-.1.625-.173.823-.218.006.16.006.37.006.654V13.5l-.04.022c-1.207.66-3.894 1.358-7.112-.281-3.13-1.595-5.735-1.003-7.348-.056V5.489c0-.207.001-.309.009-.384a.2.2 0 0 1 .016-.074V5.03l.019-.032.016-.019a1 1 0 0 1 .066-.057c.036-.03.078-.063.139-.11M3.25 14.75V5.42c0-.323-.002-.682.178-1.05.18-.366.419-.552.636-.72l.03-.024c1.491-1.158 4.402-2.221 8.004-.386 2.402 1.223 4.505 1.145 5.922.752l.037-.01c.43-.12.805-.224 1.096-.275.152-.027.323-.048.494-.038.173.01.402.056.61.214.37.282.438.719.464.958.03.267.03.613.03.992v7.618c.002.195.005.53-.176.834-.179.302-.45.448-.608.532l-.037.02c-1.584.866-4.798 1.632-8.513-.26-3.28-1.672-5.715-.435-6.667.458V21a.75.75 0 0 1-1.5 0z" clip-rule="evenodd"/></svg>