<svg xmlns="http://www.w3.org/2000/svg" width="24" height="24" fill="none"><path fill="#141B34" fill-rule="evenodd" d="M11.25 21a.75.75 0 0 0 1.5 0v-3.5a.75.75 0 0 0-1.5 0zm0-7a.75.75 0 0 0 1.5 0v-4a.75.75 0 0 0-1.5 0zm0-7.5a.75.75 0 0 0 1.5 0V3a.75.75 0 0 0-1.5 0zM3.409 16.758q-.226 0-.45-.06l-.021-.006a2.3 2.3 0 0 1-.93-.532c-.758-.712-.758-1.863-.758-4.156s0-3.445.759-4.157c.263-.247.576-.426.93-.532l.021-.006c1.024-.272 1.999.414 3.768 1.662 1.469 1.027 2.28 1.594 2.473 2.544.068.318.068.661-.002.986-.19.942-1.002 1.509-2.471 2.537h-.001c-1.509 1.064-2.44 1.72-3.316 1.72zm-.055-1.506c.352.08 1.352-.625 2.508-1.44q0 0 .003-.002c1.079-.754 1.791-1.252 1.865-1.614a.9.9 0 0 0 .002-.374c-.075-.369-.785-.866-1.858-1.617l-.008-.005c-1.158-.817-2.158-1.52-2.511-1.442a.8.8 0 0 0-.319.184c-.286.268-.286 1.441-.286 3.063s0 2.795.285 3.063a.8.8 0 0 0 .319.184m17.233 1.507c-.876 0-1.806-.656-3.313-1.719l-.004-.002c-1.47-1.027-2.28-1.595-2.473-2.545a2.4 2.4 0 0 1 .002-.985c.19-.942 1.002-1.51 2.471-2.537l.003-.002c1.768-1.246 2.741-1.932 3.765-1.66l.02.006c.355.106.668.285.93.532.759.712.759 1.863.759 4.157s0 3.444-.76 4.156a2.3 2.3 0 0 1-.93.532l-.02.006q-.225.06-.45.06m-2.438-6.572-.015.01-.003.003c-1.08.754-1.791 1.251-1.865 1.613a.9.9 0 0 0-.002.374c.075.37.785.866 1.858 1.617l.008.005.002.002c1.097.773 2.052 1.447 2.449 1.447a.3.3 0 0 0 .06-.007q.185-.058.319-.184c.286-.268.286-1.44.286-3.063 0-1.622 0-2.795-.285-3.063a.8.8 0 0 0-.32-.184.3.3 0 0 0-.06-.006c-.394 0-1.342.668-2.432 1.436" clip-rule="evenodd"/></svg>