<svg xmlns="http://www.w3.org/2000/svg" width="25" height="24" fill="none"><path fill="#141B34" fill-rule="evenodd" d="M18.01 2.53a.75.75 0 1 0-1.06-1.06l-4.203 4.202a5.17 5.17 0 0 0-1.513 3.575l-.006.343c-.006.4-.174.78-.466 1.052l-8.598 8.039a2.351 2.351 0 1 0 3.324 3.323l8.037-8.598c.273-.292.653-.46 1.053-.467l.343-.005a5.17 5.17 0 0 0 3.574-1.514l4.203-4.202a.75.75 0 0 0-1.06-1.061L18.01 9.783 16.73 8.5l2.97-2.97a.75.75 0 1 0-1.061-1.06l-2.97 2.97-1.283-1.284zm-4.64 4.732a3.67 3.67 0 0 0-.636 2.008l-.006.343a2.97 2.97 0 0 1-.942 2.125l-8.598 8.038a.851.851 0 1 0 1.204 1.204l8.037-8.599a2.97 2.97 0 0 1 2.126-.942l.342-.005a3.67 3.67 0 0 0 2.008-.636z" clip-rule="evenodd"/></svg>