<svg xmlns="http://www.w3.org/2000/svg" width="25" height="24" fill="none"><path fill="#141B34" fill-rule="evenodd" d="M12.196 3.49a.96.96 0 0 0-.154.504v6.472a.75.75 0 0 1-1.5 0v-4.48a.96.96 0 0 0-.155-.505c-.083-.118-.22-.24-.546-.24s-.464.122-.546.24a.96.96 0 0 0-.155.504v7.966a.75.75 0 0 1-1.5 0v-2.685L6.522 12.47l-.012.012c-.105.108-.29.349-.456.657-.168.31-.28.622-.302.877-.018.208.074.56.28 1.004.194.413.43.792.575 1.02.252.4.449.732.627 1.032.384.645.685 1.15 1.264 1.895.395.507 1.51 1.57 3.332 1.704 1.551.114 3.05.099 3.71.005.43-.06 1.472-.249 2.467-1.273.465-.479.781-1.14.98-1.817.197-.673.26-1.299.26-1.643V7.977a.96.96 0 0 0-.156-.504c-.082-.118-.22-.24-.546-.24s-.463.122-.546.24a.96.96 0 0 0-.154.503v3.486a.75.75 0 1 1-1.5 0V5.985a.96.96 0 0 0-.155-.504c-.083-.118-.22-.24-.546-.24s-.464.122-.546.24a.96.96 0 0 0-.155.504v4.48a.75.75 0 0 1-1.5 0V3.995a.96.96 0 0 0-.155-.504c-.082-.118-.22-.24-.546-.24s-.463.122-.546.24m2.742.353a2.45 2.45 0 0 0-.42-1.213c-.353-.504-.942-.88-1.776-.88s-1.422.376-1.775.88c-.283.405-.396.86-.42 1.213a2.4 2.4 0 0 0-.706-.102c-.834 0-1.423.376-1.775.88a2.45 2.45 0 0 0-.426 1.364v3.077l-2.212 2.382c-.216.224-.477.579-.694.982-.219.404-.43.922-.476 1.46-.055.627.192 1.29.415 1.768.236.506.518.954.663 1.184l.001.002c.212.336.393.64.565.93.408.684.774 1.298 1.413 2.118.56.72 2.027 2.104 4.405 2.279 1.585.116 3.21.11 4.029-.005.585-.083 2.008-.349 3.334-1.714.696-.716 1.106-1.63 1.343-2.44.238-.812.32-1.58.32-2.065V7.977c0-.365-.1-.899-.425-1.364-.353-.504-.942-.88-1.776-.88q-.388.002-.706.101a2.45 2.45 0 0 0-.42-1.212c-.353-.505-.941-.88-1.775-.88q-.389.002-.706.1" clip-rule="evenodd"/></svg>