<svg xmlns="http://www.w3.org/2000/svg" width="24" height="24" fill="none"><path fill="#141B34" fill-rule="evenodd" d="M7.669 1.248h8.29c.775 0 1.445 0 1.967.081.564.089 1.106.293 1.475.82.36.513.39 1.097.317 1.673-.069.551-.25 1.233-.465 2.044l-1.91 7.182c-.17.646-.315 1.19-.482 1.618-.175.452-.402.855-.786 1.166-.389.315-.826.446-1.296.506-.437.055-.971.055-1.591.055-.213 0-.447 0-.53.008a.14.14 0 0 0-.087.046c-.063.064-.141.158-.282.328l-2 2.42c-.965 1.166-1.74 2.105-2.388 2.7-.614.563-1.412 1.102-2.308.735-.866-.354-1.118-1.273-1.227-2.126-.116-.901-.116-2.153-.116-3.719V4.875c0-.65 0-1.206.056-1.65.059-.472.191-.932.543-1.31.359-.386.807-.539 1.271-.606.425-.061.951-.061 1.549-.061M6.335 2.794c-.277.04-.348.1-.388.143-.046.05-.112.15-.153.474-.043.34-.044.802-.044 1.51v11.803c0 1.64.002 2.795.103 3.59.11.848.293.922.307.927l.002.001c.01.005.034.017.127-.02.126-.052.318-.175.597-.432.562-.516 1.272-1.373 2.288-2.601l2.013-2.436c.208-.252.444-.54.775-.7.338-.163.709-.162 1.023-.16.678 0 1.274-.002 1.606-.043.308-.04.443-.105.54-.183.1-.082.205-.216.332-.543.133-.341.257-.805.442-1.501l.764-2.875H12a.75.75 0 0 1 0-1.5h5.067l.722-2.716c.233-.876.386-1.458.44-1.896.054-.424-.008-.558-.056-.626-.038-.055-.114-.141-.479-.199-.393-.061-.943-.063-1.795-.063h-8.18c-.663 0-1.08.002-1.384.046" clip-rule="evenodd"/></svg>