<svg xmlns="http://www.w3.org/2000/svg" width="24" height="24" fill="none"><path fill="#141B34" fill-rule="evenodd" d="M12.709 1.698c.46.339.82.808 1.02 1.137a.75.75 0 0 1 .109.39v.225q.43-.218.842-.248c.687-.048 1.137.319 1.4.647.378.47.46 1.042.46 1.479v.383c.817-.132 1.502-.022 2.007.338.672.479.846 1.286.584 1.928a1 1 0 0 1-.058.113l-1.872 3.006c.245.11.459.258.628.454.238.275.345.594.363.898.033.554-.222 1.061-.504 1.364l-5.456 6.464q-.124.147-.268.324c-.381.466-.862 1.053-1.36 1.472-.322.269-.714.527-1.166.636-.484.117-.993.05-1.467-.258-.398-.26-.67-.639-.852-.994a3.9 3.9 0 0 1-.357-1.063c-.554-2.502-1.658-8.04-1.94-10.273-.074-.585-.088-1.063-.048-1.45.039-.38.135-.73.331-1.007.216-.304.537-.491.904-.502.302-.01.56.103.743.234l.154.09-.004-.114-.006-.152c-.015-.41-.03-.854-.024-1.278.006-.418.031-.849.106-1.225.068-.343.204-.8.555-1.106.683-.597 1.524-.438 2.06-.22l.024.01a2.6 2.6 0 0 1 .094-.754c.134-.453.442-.902 1.031-1.21.78-.406 1.52-.069 1.967.262m3.298 10.625a.7.7 0 0 1-.222-.038l-.297-.048-.276-.044a23 23 0 0 1-2.19-.45c-1.697-.442-3.916-1.25-6.758-2.896-.022.236-.017.586.046 1.085.074.59.21 1.426.378 2.382q.376-.091.779-.093a3.277 3.277 0 0 1 3.272 3.28 3.28 3.28 0 0 1-2.796 3.247 127 127 0 0 0 .294 1.37c.036.207.11.445.217.655.11.214.23.351.336.42.115.075.198.08.296.057.132-.032.315-.128.553-.328.38-.318.737-.752 1.108-1.205q.167-.203.338-.408l5.47-6.48.034-.038a.44.44 0 0 0 .106-.254v-.006c-.007-.007-.055-.057-.215-.104a5 5 0 0 0-.473-.104m-8.369 4.952a1.78 1.78 0 0 0 1.601-1.773 1.777 1.777 0 0 0-2.281-1.707c.215 1.149.454 2.366.68 3.48m10.11-9.894-2.095 3.363q-.1-.014-.2-.032c-.314-.05-.662-.11-1.048-.189l2.092-3.274c.755-.185 1.085-.046 1.18.022.058.04.071.081.07.11m-5.41-3.93v6.53c-1.09-.35-2.387-.866-3.911-1.657 0-.306-.013-.658-.026-1.01l-.006-.15c-.015-.41-.028-.82-.023-1.202.005-.387.03-.711.077-.955a1 1 0 0 1 .083-.275l.002-.003c.05-.034.181-.077.496.05.218.09.43.227.59.354v1.862a.75.75 0 1 0 1.5 0v-3.45l-.001-.121a1.1 1.1 0 0 1 .03-.35c.025-.085.077-.198.287-.308.021-.01.114-.06.382.138.197.146.383.357.52.546m1.5 5.175 1.203-1.884V5.328c0-.281-.06-.451-.13-.54-.078-.097-.102-.093-.121-.09h-.006c-.096.007-.388.086-.946.57z" clip-rule="evenodd"/></svg>