<svg xmlns="http://www.w3.org/2000/svg" width="24" height="24" fill="none"><path fill="#141B34" fill-rule="evenodd" d="m9.462 5.247.038.001-.001.002.067-.003h.546c.88 0 1.322 0 1.691.087.368.087.762.284 1.545.676l.006.003 1.892.946.006.003c2.016 1.009 3.028 1.516 3.513 2.299.485.786.485 1.92.485 4.181v2.556c0 2.618 0 3.932-.66 4.591-.658.659-1.972.659-4.59.659h-4c-2.618 0-3.932 0-4.591-.66-.659-.658-.659-1.972-.659-4.59v-7.5c0-1.746.015-2.532.366-2.884.352-.35 1.138-.366 2.884-.366zm.787-1.499c0-.798 0-1.28-.293-1.718a1.7 1.7 0 0 0-.484-.485C9.03 1.25 8.549 1.25 7.75 1.25s-1.281 0-1.72.293a1.7 1.7 0 0 0-.485.484c-.295.442-.295.924-.295 1.722v.163c-.478.115-.862.31-1.194.642-.806.805-.806 1.92-.806 3.944v7.5c0 2.936 0 4.554 1.098 5.651 1.098 1.099 2.716 1.099 5.652 1.099h4c2.936 0 4.554 0 5.651-1.098 1.099-1.098 1.099-2.716 1.099-5.652v-2.556c0-2.544 0-3.821-.709-4.97-.709-1.146-1.85-1.717-4.127-2.856l-1.889-.944-.005-.002c-.86-.43-1.334-.668-1.873-.795-.513-.12-1.02-.127-1.898-.127m-3.499.01c.374-.01.788-.01 1.25-.01h.75c0-.393 0-.8-.045-.893a.2.2 0 0 0-.063-.062c-.092-.045-.499-.045-.892-.045s-.8 0-.893.045a.2.2 0 0 0-.062.063c-.045.092-.045.499-.045.893zm2.5 12.365c0 1.447 1.234 2.625 2.75 2.625s2.75-1.126 2.75-2.625-1.863-3.322-2.237-3.672a.75.75 0 0 0-1.026 0c-.374.35-2.237 2.225-2.237 3.672m1.5 0c0-.489.637-1.373 1.254-2.056.847.925 1.246 1.741 1.246 2.056 0 .62-.561 1.125-1.25 1.125s-1.25-.505-1.25-1.125m5.75-5.375a.75.75 0 0 1-.335-.08l-4-2a.749.749 0 1 1 .67-1.34l4 2a.749.749 0 0 1-.335 1.42" clip-rule="evenodd"/></svg>