<svg xmlns="http://www.w3.org/2000/svg" width="25" height="24" fill="none"><path fill="#141B34" fill-rule="evenodd" d="M16.865 2.25c-.714 0-1.368.15-1.95.558-.568.398-.997.99-1.365 1.736-.527 1.067-1.002 2.605-1.568 4.706H9.028a.751.751 0 1 0 0 1.5h2.557q-.134.513-.276 1.063c-.914 3.535-1.498 5.692-2.134 6.98-.31.63-.599.975-.88 1.171-.265.186-.592.286-1.085.286-.48 0-.759-.167-.96-.391-.227-.254-.388-.623-.509-1.059a.753.753 0 0 0-1.45.4c.144.52.383 1.151.837 1.658.482.537 1.167.892 2.082.892.714 0 1.368-.15 1.95-.558.568-.398.997-.99 1.365-1.736.722-1.461 1.345-3.804 2.241-7.269q.196-.76.374-1.437h3.913a.751.751 0 1 0 0-1.5H13.54c.51-1.867.922-3.16 1.359-4.044.31-.629.599-.974.88-1.17.265-.186.592-.286 1.085-.286.48 0 .759.167.96.391.227.254.388.623.509 1.059a.753.753 0 0 0 1.45-.4c-.144-.52-.383-1.151-.837-1.658-.482-.537-1.167-.892-2.082-.892" clip-rule="evenodd"/></svg>