<svg xmlns="http://www.w3.org/2000/svg" width="25" height="24" fill="none"><path fill="#141B34" fill-rule="evenodd" d="M3.986 1.427c.61-.134 1.338-.177 2.182-.177h12c.844 0 1.572.043 2.182.177.619.136 1.163.376 1.59.802.425.426.665.97.8 1.589.135.61.178 1.338.178 2.182v12c0 .844-.043 1.572-.177 2.182-.136.619-.376 1.163-.802 1.59-.426.425-.97.665-1.589.8-.61.135-1.338.178-2.182.178h-12c-.844 0-1.572-.043-2.182-.177-.619-.136-1.163-.376-1.59-.802-.425-.426-.665-.97-.8-1.589-.135-.61-.178-1.338-.178-2.182V6c0-.844.043-1.572.177-2.182.136-.619.376-1.163.802-1.59.426-.425.97-.665 1.589-.8M3.06 4.14c-.099.45-.142 1.049-.142 1.86v12c0 .811.043 1.41.142 1.86.097.442.237.69.397.85s.41.3.85.398c.45.099 1.05.142 1.861.142h12c.811 0 1.41-.043 1.86-.142.442-.097.69-.237.85-.397s.3-.41.398-.85c.099-.45.142-1.05.142-1.861V6c0-.811-.043-1.41-.142-1.86-.097-.442-.237-.69-.397-.85s-.41-.3-.85-.398c-.45-.099-1.05-.142-1.861-.142h-12c-.811 0-1.41.043-1.86.142-.442.097-.69.237-.85.397s-.3.41-.398.85M5.418 19a.75.75 0 0 1 .75-.75h4a.75.75 0 0 1 0 1.5h-4a.75.75 0 0 1-.75-.75m13.75 0a1 1 0 1 0-2 0v.009a1 1 0 1 0 2 0zM7.477 9.25h-.309a.75.75 0 0 0 0 1.5h.309a4.75 4.75 0 0 0 3.941 3.941V15a.75.75 0 0 0 1.5 0v-.309a4.75 4.75 0 0 0 3.941-3.941h.309a.75.75 0 0 0 0-1.5h-.309a4.75 4.75 0 0 0-3.941-3.941V5a.75.75 0 0 0-1.5 0v.309A4.75 4.75 0 0 0 7.477 9.25m1.512.072a.75.75 0 0 1 0 1.356 3.25 3.25 0 0 0 2.5 2.501.75.75 0 0 1 1.357 0 3.25 3.25 0 0 0 2.501-2.5.75.75 0 0 1 0-1.357 3.25 3.25 0 0 0-2.5-2.501.75.75 0 0 1-1.357 0 3.25 3.25 0 0 0-2.501 2.5" clip-rule="evenodd"/></svg>