<svg xmlns="http://www.w3.org/2000/svg" width="24" height="24" fill="none"><path fill="#141B34" fill-rule="evenodd" d="M2.75 12a9.25 9.25 0 1 1 12.115 8.798l-.066-3.037a1 1 0 0 0-.014-.125l-.179-.932c.233-.108.518-.25.815-.425a6.4 6.4 0 0 0 1.122-.817c.348-.326.685-.74.864-1.244.409-1.152.715-2.941-.43-4.658l-.231-2.29a.75.75 0 0 0-1.054-.608l-1.856.836c-.12-.03-.272-.067-.443-.105-.39-.085-.93-.183-1.391-.183-.462 0-1.003.098-1.394.183-.17.037-.324.075-.444.105L8.31 6.662a.75.75 0 0 0-1.055.608l-.231 2.29c-1.145 1.717-.839 3.506-.43 4.658.179.504.516.918.864 1.244.353.33.756.602 1.122.817.297.175.582.317.815.425l-.18.932a1 1 0 0 0-.012.125l-.007.313c-1.028-.412-1.788-1.207-2.058-1.604a.75.75 0 0 0-1.239.847c.424.62 1.6 1.855 3.263 2.329l-.026 1.152A9.25 9.25 0 0 1 2.75 12m6.842 10.48a.8.8 0 0 0 .229.049 10.8 10.8 0 0 0 4.358 0 .8.8 0 0 0 .229-.05C19.186 21.386 22.75 17.11 22.75 12c0-5.937-4.813-10.75-10.75-10.75S1.25 6.063 1.25 12c0 5.11 3.564 9.386 8.342 10.48m3.78-1.331a9.3 9.3 0 0 1-2.744 0l.072-3.292.281-1.466a.75.75 0 0 0-.482-.847l-.002-.001-.015-.006-.067-.026a8.132 8.132 0 0 1-1.077-.525 5 5 0 0 1-.857-.62c-.25-.234-.405-.454-.474-.65-.347-.976-.518-2.254.349-3.446a.75.75 0 0 0 .14-.365l.146-1.448 1.15.519a.75.75 0 0 0 .517.036h.001l.008-.002.033-.01a9 9 0 0 1 .577-.141c.372-.082.782-.15 1.073-.15.292 0 .7.069 1.072.15a11 11 0 0 1 .576.142l.033.009.008.002h.001a.75.75 0 0 0 .517-.036l1.15-.519.147 1.448a.75.75 0 0 0 .14.365c.866 1.192.695 2.47.348 3.447-.069.195-.224.415-.474.648-.246.23-.549.44-.857.62a8 8 0 0 1-1.144.552l-.015.006H13.5a.75.75 0 0 0-.481.848l.281 1.466z" clip-rule="evenodd"/></svg>