<svg xmlns="http://www.w3.org/2000/svg" width="24" height="24" fill="none"><path fill="#141B34" fill-rule="evenodd" d="M21.25 12a9.25 9.25 0 0 0-9.687-9.24l-.232.011q.075.108.175.248l1.104 1.545a.75.75 0 1 1-1.22.872L10.286 3.89l-.029-.04c-.18-.253-.366-.513-.481-.748-.134-.275-.25-.676-.041-1.107.201-.415.566-.58.87-.649.247-.056.554-.07.84-.083l.049-.002q.252-.012.506-.012c5.937 0 10.75 4.813 10.75 10.75S17.937 22.75 12 22.75 1.25 17.937 1.25 12c0-3.517 1.69-6.64 4.3-8.6a.75.75 0 1 1 .9 1.199A9.25 9.25 0 1 0 21.25 12m-6.22-2.65h-.06c-.325 0-.617 0-.857.024-.259.027-.529.087-.78.254a1.7 1.7 0 0 0-.455.455c-.167.251-.227.521-.253.78-.025.24-.025.532-.025.857v2.56c0 .325 0 .617.025.857.026.259.086.529.253.78.12.18.275.335.456.455.25.168.52.227.779.254.24.024.532.024.857.024h.06c.325 0 .617 0 .857-.024.259-.027.53-.087.78-.254.18-.12.335-.275.455-.455.168-.251.227-.521.254-.78.024-.24.024-.532.024-.857v-2.56c0-.325 0-.617-.024-.857-.027-.259-.086-.529-.254-.78a1.7 1.7 0 0 0-.455-.455c-.25-.167-.521-.227-.78-.254-.24-.024-.532-.024-.857-.024m-1.07 1.456a.4.4 0 0 1 .096-.097c.003-.002.036-.026.188-.041.167-.017.392-.018.756-.018.365 0 .59 0 .756.018.152.015.186.039.189.041a.4.4 0 0 1 .096.097c.002.003.026.036.041.188.017.167.018.391.018.756v2.5c0 .365 0 .59-.018.756-.015.152-.039.186-.04.188a.4.4 0 0 1-.098.097c-.002.002-.036.026-.188.041a9 9 0 0 1-.756.018c-.364 0-.589 0-.756-.018-.152-.015-.185-.039-.188-.041a.4.4 0 0 1-.097-.097c-.002-.003-.026-.036-.041-.188a9 9 0 0 1-.018-.756v-2.5c0-.365 0-.59.018-.756.015-.152.04-.185.041-.188M8.6 9.35c-.426 0-.884.11-1.266.391-.396.293-.662.737-.73 1.3a.65.65 0 1 0 1.292.154c.026-.222.115-.337.21-.408a.84.84 0 0 1 .495-.137h.777c.215 0 .385.056.495.137.095.07.184.186.21.408.023.192.023.418 0 .61-.043.36-.317.545-.51.545h-.07a.65.65 0 1 0 0 1.3h.07c.193 0 .467.185.51.545.023.192.023.418 0 .61-.027.222-.115.337-.21.408a.84.84 0 0 1-.495.137h-.777a.84.84 0 0 1-.495-.137c-.095-.07-.184-.186-.21-.408a.65.65 0 1 0-1.291.154c.067.563.333 1.007.729 1.3.382.281.84.391 1.267.391h.777c.426 0 .885-.11 1.267-.391.396-.293.662-.737.729-1.3a4 4 0 0 0 0-.918 2 2 0 0 0-.45-1.041 2 2 0 0 0 .45-1.04 4 4 0 0 0 0-.92c-.067-.562-.333-1.006-.73-1.299-.381-.281-.84-.391-1.266-.391z" clip-rule="evenodd"/></svg>