<svg xmlns="http://www.w3.org/2000/svg" width="24" height="24" fill="none"><path fill="#141B34" fill-rule="evenodd" d="m11.33 2.774.175.247 1.104 1.545a.75.75 0 1 1-1.22.872l-1.104-1.545-.029-.04c-.18-.253-.366-.513-.481-.748-.134-.275-.25-.676-.041-1.106.293-.72 1.771-.762 2.265-.747 5.937 0 10.75 4.813 10.75 10.75s-4.813 10.75-10.75 10.75-10.75-4.813-10.75-10.75c0-3.517 1.69-6.64 4.3-8.6a.75.75 0 0 1 .9 1.2A9.25 9.25 0 1 0 12 2.752c-.285 0-.457 0-.669.02m-2.568 8.558q-.138.13-.295.257a.75.75 0 1 1-.934-1.174c.147-.116.264-.234.401-.372.086-.086.18-.18.293-.286.118-.11.278-.252.458-.353.169-.094.522-.245.918-.075.247.106.429.288.538.511.095.197.12.396.13.536.01.144.005.298.001.429l-.002.065c-.004.118-.008.234-.008.36v4.776a.75.75 0 1 1-1.5 0zm4.598-2.08a1.25 1.25 0 0 0-1.226 1.005l-.004.019-.365 2.102a.75.75 0 0 0 1.027.821c.312-.13.502-.199.686-.241.177-.04.376-.063.699-.063.372 0 .652.115.821.276.153.147.293.403.256.874l-.002.066c.006.544-.195.793-.38.929a1.17 1.17 0 0 1-.67.213 5 5 0 0 0-.274 0h-.036c-.072.002-.134.004-.197.004-.149-.001-.24-.013-.3-.03-.047-.014-.056-.026-.062-.034-.012-.014-.062-.085-.09-.29a.75.75 0 0 0-1.486.199c.052.395.179.747.406 1.03.232.289.522.448.802.531.266.08.527.093.722.093.086.001.17 0 .241-.003h.032c.082-.002.141-.003.191-.001a2.66 2.66 0 0 0 1.607-.502c.58-.424.997-1.125.994-2.123.057-.835-.199-1.545-.718-2.04-.51-.487-1.194-.692-1.857-.692-.269 0-.503.013-.726.044l.12-.687H16a.75.75 0 1 0 0-1.5z" clip-rule="evenodd"/></svg>