<svg xmlns="http://www.w3.org/2000/svg" width="24" height="24" fill="none"><path fill="#141B34" fill-rule="evenodd" d="M12 22.751c-5.928 0-10.75-4.822-10.75-10.75 0-3.367 1.608-6.583 4.3-8.6a.75.75 0 0 1 .9 1.2 9.29 9.29 0 0 0-3.7 7.4c0 5.1 4.15 9.25 9.25 9.25s9.25-4.15 9.25-9.25-4.15-9.25-9.25-9.25c-.15 0-.291 0-.423.008h-.014l-.231.011.118.165.054.076 1.107 1.554a.75.75 0 1 1-1.222.87l-1.104-1.55-.002-.002c-.468-.65-.875-1.215-.55-1.888l.002-.005.003-.005c.328-.657 1.019-.69 1.75-.724.176-.011.345-.011.51-.011H12c5.928 0 10.75 4.822 10.75 10.75S17.928 22.75 12 22.75zm2.912-6.1h-.015a8 8 0 0 0-.277-.003h-.05c-.52.004-1.108.005-1.59-.526-.467-.425-.461-1.062-.449-2.292v-.006c.004-.355.008-.757.004-1.24v-.009q.004-.439 0-.761c-.005-.951-.007-1.43.414-1.924l.023-.026c.486-.513 1.138-.513 1.829-.513h.143c.674-.004 1.514-.008 1.934.727.288.515.285.945.278 1.801q-.004.301-.003.71v.021c-.01.392-.005.777.001 1.15.018 1.089.031 1.882-.397 2.324-.483.554-1.063.56-1.678.566l-.169.002zm-.234-1.303q.119 0 .244.003l.144-.002c.535-.006.63-.022.718-.128l.012-.014c.079-.204.068-.892.06-1.407v-.033a25 25 0 0 1 0-1.185c0-.276.001-.511.003-.715.007-.798 0-.956-.109-1.15-.087-.07-.535-.068-.785-.067h-.161c-.423 0-.761 0-.875.098-.088.118-.095.314-.092 1.059q.002.328 0 .775c.003.49 0 .897-.005 1.256v.01c-.006.603-.012 1.172.048 1.333l.018.015.035.041c.083.097.171.113.63.11h.115m-7.323.852c.414.403.95.456 1.374.456h.001a8 8 0 0 0 .307-.005 3 3 0 0 1 .172 0l.036.002.036-.002a2 2 0 0 1 .173 0c.476.01 1.924.04 2.015-1.92v-.032l-.002-.032c-.11-2.055-1.284-2.055-2.227-2.055-.456 0-.807.005-1.09.049v-1.253c.005-.568.092-.684.098-.692.102-.076.658-.068.93-.064h.016c.584 0 .79.075.86.12q.052.035.06.242a.65.65 0 1 0 1.299-.043C11.36 9.356 9.85 9.35 9.2 9.35c-.716-.011-1.393-.021-1.858.433-.424.414-.486 1.047-.49 1.618v3.36q.001.944.504 1.438m.795-1.44v-.55c.046-.1.102-.216.137-.26.116-.04.522-.04.952-.04.307 0 .655 0 .754.069.006.003.135.098.173.725-.034.66-.177.657-.686.646a4 4 0 0 0-.244 0q-.134-.002-.27.001h-.04c-.238.007-.563.015-.664-.083-.026-.025-.112-.138-.112-.507" clip-rule="evenodd"/></svg>