<svg xmlns="http://www.w3.org/2000/svg" width="24" height="24" fill="none"><path fill="#141B34" fill-rule="evenodd" d="M12 22.75C6.072 22.75 1.25 17.928 1.25 12S6.072 1.25 12 1.25c.164 0 .334 0 .512.011.732.033 1.422.067 1.75.724l.002.005.003.005c.325.674-.082 1.238-.552 1.891l-.002.003-1.101 1.546a.75.75 0 0 1-1.222-.87l1.104-1.55.029-.04.146-.204-.231-.011h-.014a7 7 0 0 0-.423-.008c-5.1 0-9.25 4.15-9.25 9.25s4.15 9.25 9.25 9.25 9.25-4.15 9.25-9.25a9.29 9.29 0 0 0-3.7-7.4.75.75 0 1 1 .9-1.2 10.8 10.8 0 0 1 4.3 8.6c0 5.928-4.822 10.75-10.75 10.75zm-2.496-5.99a.75.75 0 0 1-.75-.75v-4.681a5 5 0 0 1-.295.258.75.75 0 0 1-.934-1.174A6 6 0 0 0 7.967 10c.43-.427.964-.96 1.631-.67.704.304.68 1.044.664 1.534v.002q-.007.164-.008.362v4.78a.75.75 0 0 1-.75.75m4.835 0zl.171-.002h.004c.624-.007 1.267-.014 1.791-.586.479-.473.465-1.288.446-2.404v-.001a24 24 0 0 1 0-1.145v-.023q0-.382.004-.67c.01-.91.014-1.365-.309-1.916-.463-.772-1.359-.768-2.078-.764h-.325c-.651-.004-1.325-.008-1.838.567-.477.52-.468 1.213-.458 1.946v.038c.003.243.006.494-.006.766l-.002.045.003.045c.036.476.023.931.012 1.335v.015c-.024.865-.045 1.615.434 2.146.506.604 1.238.606 1.885.606h.127l.128.002zm-1.001-1.572-.03-.035h.001c-.08-.136-.064-.684-.053-1.09v-.024c.012-.429.026-.912-.012-1.449.011-.3.008-.574.005-.82v-.027c-.005-.311-.012-.832.063-.912l.013-.014c.062-.071.407-.07.711-.067h.34c.251-.002.665-.003.796.057.086.163.092.345.084 1.107q-.004.291-.004.675c-.013.415-.006.828 0 1.193v.01c.009.489.02 1.149-.049 1.364-.074.08-.184.097-.707.102l-.156.002-.26-.001h-.023c-.242-.001-.663-.003-.719-.071" clip-rule="evenodd"/></svg>