<svg xmlns="http://www.w3.org/2000/svg" width="24" height="24" fill="none"><path fill="#141B34" fill-rule="evenodd" d="M12 22.75C6.072 22.75 1.25 17.928 1.25 12S6.072 1.25 12 1.25c.164 0 .334 0 .512.011.732.033 1.422.067 1.75.723l.002.004.003.006c.325.674-.082 1.238-.552 1.891l-.002.003-1.101 1.546a.75.75 0 1 1-1.222-.87l1.104-1.55.03-.042.145-.202-.231-.011h-.014c-.132-.008-.273-.008-.422-.008H12c-5.1 0-9.25 4.15-9.25 9.25s4.15 9.25 9.25 9.25 9.25-4.15 9.25-9.25a9.29 9.29 0 0 0-3.7-7.4.75.75 0 0 1 .899-1.2 10.8 10.8 0 0 1 4.3 8.6c0 5.928-4.822 10.75-10.75 10.75zm2.912-6.1h-.015a7 7 0 0 0-.328-.003c-.52.004-1.108.005-1.589-.526-.467-.425-.461-1.062-.449-2.292v-.006c.004-.355.008-.757.004-1.239v-.01c.003-.294.002-.545 0-.762-.005-.951-.007-1.429.414-1.924l.023-.026c.486-.513 1.138-.513 1.829-.513h.143c.674-.005 1.514-.008 1.934.727.288.515.285.945.278 1.801q-.004.301-.003.71v.022c-.01.391-.005.777.001 1.15.018 1.088.031 1.881-.398 2.324-.483.553-1.063.56-1.678.566l-.168.002zm-.232-1.303q.118 0 .242.003l.144-.002c.535-.006.63-.022.718-.128l.011-.014c.079-.203.068-.892.06-1.407v-.033a25 25 0 0 1 0-1.185c0-.276.001-.511.003-.715.007-.798 0-.956-.109-1.149-.088-.07-.547-.069-.795-.068h-.151c-.423 0-.76 0-.875.097-.088.118-.095.314-.092 1.059q.002.328 0 .775c.003.491 0 .897-.005 1.256v.009c-.006.603-.012 1.173.048 1.334l.02.015.035.042c.083.097.172.112.63.11zm-7.325.851c.413.403.95.456 1.374.456q.122 0 .23-.004h.008c.092-.002.178-.004.24-.001l.037.002.037-.002c.032-.003.08-.002.134 0h.042c.478.01 1.921.036 2.012-1.92v-.032l-.002-.032c-.11-2.055-1.284-2.055-2.227-2.055-.456 0-.807.005-1.09.049v-1.253c.005-.568.092-.684.098-.692.103-.077.666-.069.936-.064h.01c.584 0 .79.075.86.12q.052.035.06.242a.65.65 0 1 0 1.3-.043C11.36 9.354 9.85 9.35 9.198 9.35c-.717-.012-1.393-.021-1.858.432-.424.414-.486 1.047-.49 1.618v3.36c0 .628.17 1.111.504 1.438m.795-1.438v-.551c.047-.101.103-.217.138-.26.116-.04.522-.04.952-.04.307 0 .655 0 .754.068.006.004.135.098.173.725-.035.659-.176.656-.682.647H9.48a3 3 0 0 0-.244 0q-.135-.003-.27.001l-.04.001c-.239.006-.564.014-.665-.084-.026-.025-.112-.138-.112-.507" clip-rule="evenodd"/></svg>