<svg xmlns="http://www.w3.org/2000/svg" width="24" height="24" fill="none"><path fill="#141B34" fill-rule="evenodd" d="m14.242 1.623-.052-.022c-.304-.13-.644-.275-.968-.328-.42-.068-.81.012-1.191.266-.425.284-.625.676-.71 1.108-.071.356-.071.788-.071 1.228v4.264A5.8 5.8 0 0 0 6.958 6.25a5.79 5.79 0 0 0-5.335 3.508l-.022.052c-.13.304-.275.644-.328.968-.068.42.012.81.266 1.191.284.425.676.625 1.108.71.356.071.788.071 1.228.071h4.264a5.8 5.8 0 0 0-1.889 4.292 5.79 5.79 0 0 0 3.508 5.335l.052.022c.304.13.644.275.968.328.42.068.81-.012 1.191-.266.425-.284.625-.676.71-1.108.071-.356.071-.788.071-1.228v-4.264a5.8 5.8 0 0 0 4.292 1.889 5.79 5.79 0 0 0 5.335-3.508l.022-.052c.13-.305.275-.644.328-.968.068-.42-.012-.81-.266-1.191-.284-.425-.676-.625-1.108-.71-.356-.071-.788-.071-1.228-.071h-4.264a5.8 5.8 0 0 0 1.889-4.292 5.79 5.79 0 0 0-3.508-5.335m-1.378 1.164a.4.4 0 0 1 .053-.03l.015-.006.01-.001q.009-.001.04.004c.047.007.12.026.237.07.118.044.254.102.434.179a4.29 4.29 0 0 1 2.597 3.955c0 2.117-1.514 3.868-3.5 4.225v-7.25c0-.521.003-.802.042-.995.024-.121.045-.135.066-.148zM7.75 17.042c0-2.117 1.514-3.868 3.5-4.225v7.25c0 .521-.003.802-.042.995-.024.121-.045.135-.066.147l-.006.004a.4.4 0 0 1-.053.03l-.015.006-.01.001q-.009.001-.04-.004a1.3 1.3 0 0 1-.237-.07 11 11 0 0 1-.434-.179 4.29 4.29 0 0 1-2.597-3.955m13.312-4.25c-.193-.039-.474-.042-.995-.042h-7.25c.357 1.986 2.108 3.5 4.225 3.5a4.29 4.29 0 0 0 3.955-2.597c.077-.18.135-.316.179-.434s.063-.19.07-.237l.004-.04v-.01l-.006-.015a.4.4 0 0 0-.03-.053l-.005-.006c-.012-.02-.026-.042-.147-.066m-18.06-2.445A4.29 4.29 0 0 1 6.959 7.75c2.117 0 3.868 1.514 4.225 3.5h-7.25c-.521 0-.802-.003-.995-.042-.121-.024-.135-.045-.148-.066l-.003-.006a.4.4 0 0 1-.036-.068l-.001-.01q-.001-.009.004-.04c.007-.047.026-.12.07-.237.044-.118.102-.254.179-.434" clip-rule="evenodd"/></svg>