<svg xmlns="http://www.w3.org/2000/svg" width="24" height="24" fill="none"><path fill="#141B34" fill-rule="evenodd" d="M17.938 7.26a6.7 6.7 0 0 1-.347 4.936 20.5 20.5 0 0 1-2.245 3.194l-.002.003c-1.387 1.638-2.696 3.477-3.337 5.665-.44-1.5-1.18-2.818-2.063-4.028zm-.694-1.521c-.677-1.103-1.666-2-2.875-2.514l-2.133 2.533a3.25 3.25 0 0 1 2.932 2.518zM12.77 2.796a6 6 0 0 0-.775-.046h-.003c-1.73-.003-3.229.712-4.325 1.83l2.117 1.763zM6.744 5.764 8.816 7.49l-2.87 3.408c-.455-1.795-.11-3.65.798-5.134m-.172 6.72c.321.598.732 1.183 1.179 1.762.262.34.53.67.798.999l.065.08q.198.24.391.483l2.912-3.559a3.25 3.25 0 0 1-3.072-2.464zm12.358.388c2.49-5.128-.98-11.637-6.939-11.622-5.793-.007-9.328 6.27-7.03 11.353.414.934 1.009 1.791 1.602 2.56.275.356.556.7.821 1.026l.066.082c.288.353.555.683.79.998l.014.017c1.054 1.327 1.889 2.7 2.332 4.26l.016.049c.098.272.233.583.48.814.292.273.631.341.927.341.388 0 .727-.141.985-.411.224-.236.344-.527.421-.754l.011-.036c.545-1.913 1.703-3.58 3.061-5.185a22 22 0 0 0 2.443-3.492M10.607 7.94l-.015.02a1.75 1.75 0 1 0 .015-.02" clip-rule="evenodd"/></svg>