<svg xmlns="http://www.w3.org/2000/svg" width="24" height="24" fill="none"><path fill="#141B34" fill-rule="evenodd" d="M15.707 4.25a.7.7 0 0 0-.083-.166l-1-1.5A.75.75 0 0 0 14 2.25h-4a.75.75 0 0 0-.624.334l-1 1.5a.8.8 0 0 0-.083.167c-1.071.002-1.96.018-2.685.116-.9.12-1.658.38-2.26.981-.602.602-.86 1.36-.981 2.26-.117.867-.117 1.97-.117 3.337V11a.75.75 0 0 0 1.5 0c0-1.435.002-2.437.103-3.192.099-.734.28-1.122.556-1.399.277-.277.665-.457 1.4-.556C6.562 5.752 7.564 5.75 9 5.75h6c1.435 0 2.436.002 3.192.103.734.099 1.122.28 1.399.556.277.277.457.665.556 1.4.101.754.103 1.756.103 3.191v3a.75.75 0 0 0 1.5 0v-3.055c0-1.367 0-2.47-.116-3.337-.122-.9-.38-1.658-.982-2.26s-1.36-.86-2.26-.981c-.725-.098-1.614-.114-2.685-.116M3 14.25a.75.75 0 0 1 .75.75c0 1.435.002 2.436.103 3.192.099.734.28 1.122.556 1.399.277.277.665.457 1.4.556.754.101 1.756.103 3.191.103h4a.75.75 0 0 1 0 1.5H8.945c-1.367 0-2.47 0-3.337-.116-.9-.122-1.658-.38-2.26-.982s-.86-1.36-.981-2.26c-.117-.867-.117-1.97-.117-3.337V15a.75.75 0 0 1 .75-.75m9-3.5a2.25 2.25 0 1 0 0 4.5 2.25 2.25 0 0 0 0-4.5M8.25 13a3.75 3.75 0 1 1 7.5 0 3.75 3.75 0 0 1-7.5 0m9.5 6a1.25 1.25 0 1 1 2.5 0 1.25 1.25 0 0 1-2.5 0M19 16.25a2.75 2.75 0 1 0 0 5.5 2.75 2.75 0 0 0 0-5.5" clip-rule="evenodd"/></svg>