<svg xmlns="http://www.w3.org/2000/svg" width="24" height="24" fill="none"><path fill="#141B34" fill-rule="evenodd" d="M6.25 2v3.19L2.53 1.47a.75.75 0 0 0-1.06 1.06l3.72 3.72H2a.75.75 0 0 0 0 1.5h4.25v8.5H2a.75.75 0 0 0 0 1.5h4.25V22a.75.75 0 0 0 1.5 0v-4.25h8.5V22a.75.75 0 0 0 1.5 0v-3.19l3.72 3.72a.75.75 0 1 0 1.06-1.06L7.75 6.69V2a.75.75 0 0 0-1.5 0m1.5 14.25V8.81l7.44 7.44zM17.75 2a.75.75 0 0 0-1.5 0v4.25H11.5a.75.75 0 0 0 0 1.5h4.75v4.75a.75.75 0 0 0 1.5 0V7.75H22a.75.75 0 0 0 0-1.5h-4.25zM22 17.75h-1a.75.75 0 0 1 0-1.5h1a.75.75 0 0 1 0 1.5" clip-rule="evenodd"/></svg>