<svg xmlns="http://www.w3.org/2000/svg" width="24" height="24" fill="none"><path fill="#141B34" fill-rule="evenodd" d="M17.25 2a.75.75 0 0 0-1.5 0v8.295a6.251 6.251 0 1 0 1.5 0zm-.75 9.75a4.75 4.75 0 1 1 0 9.5 4.75 4.75 0 0 1 0-9.5m-8.987-4A4.757 4.757 0 0 0 2.75 12.5c0 2.791 2.534 5.034 5.306 4.72a.75.75 0 1 1 .169 1.491c-3.653.413-6.975-2.515-6.975-6.21 0-3.196 2.402-5.83 5.5-6.205V2a.75.75 0 0 1 1.5 0v4.293a6.26 6.26 0 0 1 4.36 2.573.75.75 0 1 1-1.22.874 4.76 4.76 0 0 0-3.877-1.99" clip-rule="evenodd"/></svg>