<svg xmlns="http://www.w3.org/2000/svg" width="24" height="24" fill="none"><path fill="#141B34" fill-rule="evenodd" d="M15.67 5.678c-1.644.942-2.953 2.532-3.938 4.387-.546 1.03-1.12 1.898-1.727 2.634-.1.23-.082.46.073.78.116.239.283.478.488.744.974-1.294 2.081-2.47 3.564-3.352C15.86 9.84 18.039 9.25 21 9.25a.75.75 0 0 1 0 1.5c-2.753 0-4.653.547-6.103 1.41-1.37.815-2.397 1.944-3.38 3.3.18.27.344.562.449.867.11.32.167.678.109 1.06a2.3 2.3 0 0 1-.49 1.078 1 1 0 0 1-.079.086c-.28.258-.604.43-.97.486a1.93 1.93 0 0 1-.986-.125 4.4 4.4 0 0 1-.913-.513l-.033.059a5.308 5.308 0 0 1-.824 1.072c-.581.582-1.51 1.22-2.78 1.22a.75.75 0 0 1 0-1.5c.73 0 1.301-.362 1.72-.78a3.8 3.8 0 0 0 .607-.8l.004-.008a.8.8 0 0 1 .11-.162c-.879-.648-1.81-1.21-2.968-1.25a1 1 0 0 1-.087-.009c-.724.201-1.475.358-2.254.497a.75.75 0 0 1-.264-1.476c1.899-.34 3.452-.76 4.814-1.603 1.35-.835 2.572-2.124 3.725-4.297 1.066-2.008 2.547-3.856 4.518-4.986 1.995-1.143 4.429-1.512 7.29-.656a.75.75 0 0 1-.43 1.437c-2.488-.744-4.494-.408-6.114.52m-8.198 9.257q.63-.389 1.216-.889.02.045.04.087c.25.516.644 1.005.97 1.41l.099.123c.38.474.64.83.75 1.15.05.143.059.253.045.346a.74.74 0 0 1-.145.322.3.3 0 0 1-.136.07.46.46 0 0 1-.225-.043c-.294-.112-.65-.375-1.19-.79l-.072-.056c-.549-.423-1.227-.945-2.046-1.338q.352-.18.694-.392" clip-rule="evenodd"/></svg>