<svg xmlns="http://www.w3.org/2000/svg" width="24" height="24" fill="none"><path fill="#141B34" fill-rule="evenodd" d="M8.889 1.431C5.438.49 2.25 3.347 2.25 7.003c0 2.139 1.09 4.004 2.687 4.996l.026.027c.529.544.81 1.306.952 2.263.118.791.13 1.634.144 2.512l.01.594c.025 1.18.91 2.298 2.175 2.356a6 6 0 0 1-.013.288c-.019.234-.05.34-.083.408-.139.293-.42.556-.815.699-.083.03-.348.069-.828.088-.443.019-.968.019-1.505.019a.75.75 0 0 0 0 1.5h.01c.525 0 1.08 0 1.557-.02.444-.018.941-.055 1.278-.177.725-.263 1.334-.78 1.659-1.467.142-.3.197-.61.222-.933a8 8 0 0 0 .02-.416c.376-.056.653-.281.83-.474.206-.227.363-.505.48-.748.12-.25.221-.51.3-.722l.071-.192c.047-.126.079-.214.107-.278.394-.903.203-1.87-.2-2.61l-.044-.08c-.34-.621-.563-1.031-.675-1.452-.088-.333-.107-.691.017-1.177l.186-.066.428-.155a60 60 0 0 1 1.605-.565c1.385-.458 2.663-.764 3.705-.669.245.023.487.142.854.37l.122.077c.313.198.739.467 1.217.598.485.133.936.048 1.31-.186.344-.217.584-.536.753-.824.288-.493.474-1.097.586-1.46l.045-.143a6.55 6.55 0 0 0 0-3.962l-.045-.142c-.112-.364-.298-.968-.586-1.461-.169-.288-.409-.607-.753-.824a1.6 1.6 0 0 0-1.31-.186c-.478.13-.904.4-1.217.598l-.122.077c-.367.228-.609.348-.854.37-1.042.095-2.32-.21-3.705-.67-.539-.177-1.074-.371-1.605-.564l-.428-.155a26 26 0 0 0-1.93-.634m.129 16.822h.45c.064-.07.146-.198.237-.387.09-.185.17-.391.246-.593l.05-.137c.054-.147.11-.302.158-.41.156-.357.112-.826-.142-1.29l-.076-.14c-.306-.558-.616-1.124-.776-1.728a3.6 3.6 0 0 1-.12-1.037l-.156.044a5 5 0 0 1-1.805.158c.15.436.249.888.315 1.336.133.9.148 1.865.16 2.746l.01.548c.011.54.41.89.778.89h.671M3.75 7.003c0-2.846 2.413-4.76 4.744-4.125.545.149 1.153.36 1.816.599l.415.15c.533.193 1.094.396 1.655.582 1.117.37 2.32.7 3.462.754l.31 1.241c.131.528.131 1.07 0 1.598l-.31 1.24c-1.141.055-2.345.386-3.462.755-.561.186-1.122.389-1.655.582h-.001l-.415.15c-.662.239-1.27.45-1.815.599-2.33.636-4.744-1.279-4.744-4.125m13.857-1.162-.26-1.043a4.6 4.6 0 0 0 .855-.44l.131-.082c.34-.213.564-.353.811-.42.07-.02.089-.008.116.01.057.035.148.124.257.31.193.33.323.747.441 1.125l.056.177a5.04 5.04 0 0 1 0 3.05l-.056.177c-.118.378-.248.795-.441 1.125-.109.186-.2.275-.257.31-.027.018-.046.03-.116.01-.247-.067-.47-.207-.81-.42l-.132-.082a4.6 4.6 0 0 0-.855-.44l.26-1.043a4.8 4.8 0 0 0 0-2.324M9.434 18.287l-.001.001.003-.003z" clip-rule="evenodd"/></svg>