<svg xmlns="http://www.w3.org/2000/svg" width="25" height="24" fill="none"><path fill="#141B34" fill-rule="evenodd" d="M11.762 4.792c-.238-.102-.621-.017-1.17.393L5.689 8.843a3.75 3.75 0 0 1-2.24.744H2.5a.75.75 0 1 1 0-1.5h.949c.483 0 .954-.156 1.343-.446l4.903-3.658c.582-.435 1.602-1.024 2.66-.569.687.296 1.34.9 1.502 1.779.166.898-.223 1.842-1.113 2.724l-.016.015-.32.3h8.542c1.54.042 2.283 1.328 2.3 2.45a2.6 2.6 0 0 1-.54 1.654c-.394.498-.987.83-1.732.88h-5.226c-.019.388-.067.834-.144 1.303-.148.89-.413 1.933-.839 2.904-.422.964-1.028 1.916-1.889 2.558-.89.663-2.008.958-3.331.654q-.313-.072-.63-.142c-.982-.22-2.719-.86-3.78-1.602-.35-.246-.7-.332-1.11-.353a7 7 0 0 0-.698.009l-.121.005c-.22.011-.463.023-.71.023a.75.75 0 0 1 0-1.5 13 13 0 0 0 .76-.027c.263-.012.551-.023.844-.008.606.03 1.251.17 1.896.622.854.599 2.392 1.175 3.247 1.367q.319.071.638.145c.887.204 1.556.008 2.1-.396.571-.426 1.043-1.12 1.41-1.957.364-.83.6-1.746.733-2.547.135-.818.152-1.448.118-1.711a.75.75 0 0 1 .743-.846h5.913c.315-.026.507-.155.631-.311.138-.175.221-.426.217-.702-.009-.57-.334-.955-.832-.973H10.506a.75.75 0 0 1-.512-1.298l1.701-1.59c.675-.671.731-1.14.687-1.378-.048-.26-.26-.518-.62-.673" clip-rule="evenodd"/></svg>