<svg xmlns="http://www.w3.org/2000/svg" width="24" height="24" fill="none"><path fill="#141B34" fill-rule="evenodd" d="m13.218 1.95-.223-.062c-1.037-.285-1.897-.522-2.59-.605-.732-.087-1.427-.023-2.025.446a3 3 0 0 0-.188.162c-.54.507-.749 1.19-.845 1.955-.05.405-.074.873-.084 1.407-.405.008-.86.041-1.282.17-.633.191-1.21.6-1.536 1.377a2.5 2.5 0 0 0-.173.817c-.018.266-.018.59-.018.97v.025a1 1 0 0 1-.004.072 1 1 0 0 1-.103.08c-1.743 1.184-2.893 3.159-2.893 5.403 0 3.655 3.042 6.583 6.75 6.583s6.75-2.928 6.75-6.583c0-2.244-1.15-4.219-2.893-5.404a1 1 0 0 1-.104-.078 1 1 0 0 1-.003-.073v-.025c0-.38 0-.704-.018-.97a2.5 2.5 0 0 0-.173-.817c-.326-.777-.903-1.186-1.536-1.378-.416-.126-.863-.16-1.264-.169.01-.484.03-.883.073-1.22.08-.633.22-.896.383-1.049a1 1 0 0 1 .087-.075c.153-.12.377-.201.92-.136.568.067 1.319.272 2.43.577l.119.033c.746.206 1.237.342 1.599.494.338.142.49.269.595.415.108.154.19.367.236.79.048.437.049 1.009.049 1.851v.32c-.28.007-.579.024-.868.074a.75.75 0 0 0 .257 1.478c.185-.032.387-.045.61-.051V9a.75.75 0 0 0 1.5 0v-.246c.333.008.607.033.84.104.274.083.46.219.587.522.022.051.046.139.06.34.015.209.015.48.015.892 0 .275.045.562.207.834.154.26.37.431.557.558 1.359.924 2.236 2.448 2.236 4.163 0 2.787-2.33 5.083-5.25 5.083-.876 0-1.7-.207-2.423-.572a.75.75 0 0 0-.676 1.339c.93.469 1.984.733 3.099.733 3.708 0 6.75-2.928 6.75-6.583 0-2.244-1.15-4.219-2.893-5.404a1 1 0 0 1-.103-.078 1 1 0 0 1-.004-.073v-.025c0-.38 0-.704-.018-.97a2.5 2.5 0 0 0-.173-.817c-.326-.777-.903-1.186-1.536-1.378-.42-.127-.87-.16-1.274-.169v-.361c0-.79 0-1.444-.057-1.973-.06-.552-.19-1.05-.505-1.494-.32-.451-.742-.723-1.238-.931-.462-.194-1.047-.355-1.736-.545M7.254 6.753v.044a.75.75 0 1 0 1.5 0v-.044c.331.009.605.033.838.104.274.083.46.219.587.522.022.051.046.139.06.34.014.209.015.48.015.892 0 .275.045.562.207.834.153.26.37.431.556.558 1.36.924 2.237 2.448 2.237 4.163 0 2.787-2.33 5.083-5.25 5.083s-5.25-2.296-5.25-5.083c0-1.715.877-3.239 2.236-4.163.2-.137.416-.314.566-.576.156-.271.198-.553.198-.816 0-.412 0-.683.015-.892a1.1 1.1 0 0 1 .06-.34c.126-.303.313-.44.587-.522.233-.07.507-.096.838-.104M6.754 14a1.25 1.25 0 1 1 2.5 0 1.25 1.25 0 0 1-2.5 0m1.25-2.75a2.75 2.75 0 1 0 0 5.5 2.75 2.75 0 0 0 0-5.5m8.35 2.642a.75.75 0 0 1 1.024-.274 2.749 2.749 0 0 1-1.216 5.128.75.75 0 0 1-.085-1.498 1.25 1.25 0 0 0 .55-2.331.75.75 0 0 1-.273-1.025" clip-rule="evenodd"/></svg>