<svg xmlns="http://www.w3.org/2000/svg" width="25" height="24" fill="none"><path fill="#141B34" fill-rule="evenodd" d="M12.646 3.414c1.057-.455 2.077.134 2.66.569l4.902 3.658c.389.29.86.446 1.343.446h.948a.75.75 0 0 1 0 1.5h-.948a3.75 3.75 0 0 1-2.24-.744l-4.903-3.658c-.549-.41-.932-.495-1.17-.393-.36.155-.572.414-.62.673-.044.239.012.707.687 1.378l1.7 1.59a.75.75 0 0 1-.511 1.298H4.082c-.498.018-.823.403-.832.973-.004.276.079.527.217.702.124.156.316.285.63.31h5.914a.75.75 0 0 1 .743.847c-.034.263-.017.893.118 1.711.133.801.369 1.717.732 2.547.368.838.84 1.53 1.412 1.957.543.404 1.212.6 2.1.396q.317-.075.637-.145c.855-.192 2.393-.768 3.247-1.367.674-.471 1.493-.594 2.124-.622.326-.014.628-.004.871.009q.16.008.265.015c.11.006.182.011.24.011a.75.75 0 0 1 0 1.5c-.103 0-.254-.01-.401-.018q-.096-.006-.182-.01a8 8 0 0 0-.727-.009c-.534.024-1.007.127-1.33.353-1.06.743-2.797 1.382-3.78 1.602l-.629.142c-1.323.304-2.441.01-3.331-.654-.861-.642-1.467-1.594-1.89-2.558-.425-.971-.69-2.013-.838-2.904a12 12 0 0 1-.144-1.302H4.071l-.05-.002c-.744-.049-1.337-.381-1.73-.879a2.6 2.6 0 0 1-.54-1.655c.016-1.12.76-2.407 2.299-2.45h8.543l-.32-.3-.017-.014c-.89-.882-1.279-1.826-1.113-2.724.162-.88.815-1.483 1.503-1.779" clip-rule="evenodd"/></svg>