<svg xmlns="http://www.w3.org/2000/svg" width="24" height="24" fill="none"><path fill="#141B34" fill-rule="evenodd" d="M21.47 22.53c.146.148.338.22.53.22h.001a.75.75 0 0 0 .53-1.281l-20-20a.75.75 0 1 0-1.06 1.062l4.065 4.065C4.846 7.644 4.25 8.84 4.25 10.5v1.402c-.498.219-.838.631-1.11.963l-.032.037c-1.008 1.225-1.513 1.839-1.727 2.624a3.7 3.7 0 0 0 0 1.949c.247.909.878 1.64 1.435 2.284q.183.209.345.406h.001c.362.438.899 1.086 1.833 1.086q.081 0 .167-.006c.355-.03.653-.165 1.146-.39.378-.172.606-.276.82-.46.621-.541.621-1.237.621-1.698v-4.391c0-.462 0-1.16-.623-1.7-.205-.179-.427-.28-.793-.448l-.009-.004-.035-.016-.002-.002c-.208-.094-.38-.172-.537-.233v-1.402c0-1.074.314-1.908.873-2.818zM4.996 13.25H5v.002h.043c.088.008.319.112.612.245l.014.007.032.015c.214.098.4.183.443.22.081.07.106.159.106.568v4.39c0 .409-.025.496-.105.566-.047.04-.244.13-.453.225l-.004.002c-.32.147-.552.253-.644.26-.215.018-.344-.078-.724-.538-.097-.119-.2-.238-.3-.356h-.001l-.067-.077c-.475-.55-.965-1.117-1.124-1.7a2.2 2.2 0 0 1 0-1.157c.129-.474.563-1.002 1.43-2.055l.012-.016.027-.032c.355-.43.496-.566.699-.568m16.473 4.93a.751.751 0 0 0 .992-.372c.328-.72.38-1.466.157-2.28-.216-.786-.72-1.401-1.733-2.63l-.033-.04v-.001c-.259-.314-.603-.733-1.103-.954v-1.401c0-4.273-3.477-7.75-7.75-7.75-1.47 0-2.555.415-3.829 1.086a.75.75 0 0 0 .7 1.327c1.125-.593 1.958-.914 3.13-.914a6.257 6.257 0 0 1 6.25 6.25v1.379c-.452.15-.945.412-1.238.662a.75.75 0 0 0 .977 1.139c.233-.2.701-.38.884-.42h.01l.088-.01h.071c.177.013.325.16.653.56l.037.045c.872 1.059 1.31 1.59 1.44 2.067.128.468.104.87-.075 1.264a.75.75 0 0 0 .372.993" clip-rule="evenodd"/></svg>