<svg xmlns="http://www.w3.org/2000/svg" width="24" height="24" fill="none"><path fill="#141B34" fill-rule="evenodd" d="M11.416 3.469C9.8 2.255 7.126 1.527 4.145 3.355 2.084 4.62.924 7.261 1.33 10.295c.409 3.05 2.382 6.498 6.562 9.592l.104.076C9.448 21.039 10.409 21.75 12 21.75a.75.75 0 0 0 0-1.5c-1.055 0-1.633-.398-3.215-1.57-3.938-2.914-5.625-6.03-5.967-8.584-.345-2.569.653-4.568 2.111-5.462 2.383-1.462 4.39-.865 5.586.034l.02.016c.271.203.503.377.69.499.096.063.203.127.314.178.105.047.267.107.46.107.194 0 .356-.06.461-.107.111-.05.218-.115.315-.178.186-.122.418-.296.688-.5l.021-.015c1.197-.899 3.204-1.496 5.586-.034 1.425.874 2.41 2.8 2.134 5.284a.75.75 0 1 0 1.49.165c.327-2.944-.827-5.493-2.84-6.728-2.98-1.828-5.655-1.1-7.27.114-.266.2-.449.336-.584.428a18 18 0 0 1-.584-.428M18.75 13a.75.75 0 0 0-1.5 0v3.25H14a.75.75 0 0 0 0 1.5h3.25V21a.75.75 0 0 0 1.5 0v-3.25H22a.75.75 0 0 0 0-1.5h-3.25z" clip-rule="evenodd"/></svg>