<svg xmlns="http://www.w3.org/2000/svg" width="24" height="24" fill="none"><path fill="#141B34" fill-rule="evenodd" d="M19.07 4.634c-2.382-1.462-4.39-.865-5.586.034a7 7 0 0 0-.53.444l2.182 3.49a.75.75 0 0 1-.156.974l-2.37 1.975 1.42 1.419a.75.75 0 0 1 .113.916l-1.5 2.5a.75.75 0 1 1-1.287-.772l1.2-1.997-1.587-1.586a.75.75 0 0 1 .05-1.107l2.498-2.081-2.153-3.445a.75.75 0 0 1 .083-.905L12 5l-.553-.507.003-.003.005-.006.02-.02a7 7 0 0 1 .306-.309c.2-.191.482-.446.803-.686 1.615-1.214 4.29-1.942 7.27-.114 2.062 1.265 3.221 3.906 2.814 6.94-.409 3.05-2.382 6.498-6.562 9.592l-.104.076C14.551 21.039 13.59 21.75 12 21.75s-2.552-.712-4.003-1.787l-.104-.076c-4.18-3.094-6.153-6.543-6.562-9.592-.407-3.034.753-5.675 2.814-6.94 2.087-1.28 4.045-1.315 5.6-.775a.75.75 0 1 1-.491 1.417c-1.134-.393-2.624-.407-4.325.637-1.458.894-2.456 2.893-2.112 5.462.343 2.553 2.03 5.67 5.968 8.585 1.582 1.17 2.16 1.57 3.215 1.57s1.632-.4 3.214-1.57c3.938-2.915 5.625-6.032 5.968-8.585.344-2.569-.654-4.568-2.112-5.462" clip-rule="evenodd"/></svg>