<svg xmlns="http://www.w3.org/2000/svg" width="24" height="24" fill="none"><path fill="#141B34" fill-rule="evenodd" d="M8.418 1.337a.934.934 0 0 0-.453-.065h-.021l-.012.002a.75.75 0 0 0-.348.118l-.005.003a.86.86 0 0 0-.336.431c-.04.111-.052.214-.057.26l-.012.112c-.003.037-.004.055-.012.092a6 6 0 0 1-.464 1.394c-.242.49-.541.855-.89 1.035a7.5 7.5 0 0 0-2.277 1.866c-.633.772-1.135 1.708-1.261 2.696-.105.816.221 1.458.646 1.93.404.448.933.782 1.33 1.026 2.323 1.422 3.583 3.82 4.673 6.04l.14.286c.478.977.948 1.938 1.473 2.663.58.8 1.351 1.488 2.45 1.495h.005l.058.003.22.008a42 42 0 0 0 3.242-.024c.914-.046 1.888-.137 2.71-.31.41-.087.808-.2 1.149-.35.329-.144.682-.355.92-.682.474-.655.62-1.368.278-2.03-.291-.564-.862-.92-1.346-1.153-.51-.247-1.088-.433-1.562-.581l-.131-.041c-.448-.14-.738-.23-.89-.309-.808-.418-1.44-1.31-1.748-2.73-.308-1.417-.27-3.283.2-5.47.597-2.781.384-4.66.228-5.462-.084-.434-.46-.571-.514-.591a1.2 1.2 0 0 0-.26-.06 6 6 0 0 0-.398-.027l-.025-.001c-.313-.015-.759-.037-1.348-.11-1.184-.148-2.97-.508-5.352-1.464m4.621 19.885H13c-.391 0-.777-.219-1.253-.876-.445-.614-.857-1.456-1.356-2.475l-.126-.255c-.829-1.69-1.863-3.735-3.549-5.352.67-.33 1.17-.68 1.542-1.056.226-.229.405-.507.468-.841a1.47 1.47 0 0 0-.126-.901c-.211-.455-.637-.865-.981-1.193l-.138-.13c-.581-.55-1.158-1.097-1.52-1.77q.268-.184.537-.322c.42-.218.757-.528 1.026-.87.882.445 1.988.839 3.177 1.12 1.32.313 2.789.497 4.227.443a17 17 0 0 1-.308 1.993c-.5 2.324-.566 4.416-.199 6.104.322 1.483.996 2.717 2.062 3.463-.65.685-1.224 1.643-1.233 2.944a42 42 0 0 1-2.144-.023l-.054-.002zm3.715-.03c.773-.048 1.53-.13 2.153-.262q.534-.114.857-.255c.225-.099.297-.176.306-.189.24-.331.174-.44.162-.46l-.001-.001c-.056-.11-.242-.287-.666-.492-.397-.192-.877-.35-1.356-.5l-.159-.049-.077-.024c-.623.514-1.183 1.214-1.22 2.232M14.979 5.24c-1.305.061-2.677-.102-3.933-.4-1.09-.257-2.056-.607-2.792-.972.122-.31.214-.611.283-.877 2.176.813 3.862 1.15 5.047 1.297.57.071 1.02.098 1.338.114.027.23.049.51.057.838M4.82 7.385q-.065.074-.128.152c-.518.63-.853 1.31-.933 1.935-.034.265.05.488.272.734.242.268.595.504 1 .752q.195.12.383.247c.945-.384 1.472-.743 1.778-1.052a1 1 0 0 0 .049-.055l-.001-.002c-.068-.147-.259-.36-.654-.736l-.172-.162c-.48-.452-1.112-1.045-1.594-1.813" clip-rule="evenodd"/></svg>