<svg xmlns="http://www.w3.org/2000/svg" width="25" height="24" fill="none"><path fill="#141B34" d="M18.133 20.751a.75.75 0 0 1-.75-.75v-.929c0-.74.317-1.49.918-2.167.744-.84 1.122-1.977 1.122-3.378V7.521a.753.753 0 0 0-.75-.755.753.753 0 0 0-.75.755v1.475a.75.75 0 0 1-1.5 0V6.5a.754.754 0 0 0-.75-.755.753.753 0 0 0-.75.755v1.876a.75.75 0 0 1-1.5 0v-2.87a.753.753 0 0 0-.75-.755.753.753 0 0 0-.75.755l-.003.354q.004.066.004.134v1.981a.75.75 0 0 1-1.5 0V5.994a.743.743 0 0 0-.74-.744.743.743 0 0 0-.74.744V11.5a.75.75 0 0 1-1.5 0V8.782l-1.476 1.569a2.06 2.06 0 0 0-.144 2.616l3.132 4.245c.373.506.563 1.13.535 1.757v1.032a.75.75 0 0 1-1.5 0v-1.089a1.25 1.25 0 0 0-.243-.81l-3.132-4.245a3.56 3.56 0 0 1 .254-4.53l2.572-2.734v-.599a2.245 2.245 0 0 1 2.24-2.244c.45 0 .868.133 1.22.362a2.247 2.247 0 0 1 3.771.366 2.254 2.254 0 0 1 3.012 1.015c.298-.146.633-.228.986-.228a2.255 2.255 0 0 1 2.25 2.255v6.006c0 1.779-.505 3.251-1.5 4.373-.247.278-.54.707-.54 1.172V20a.75.75 0 0 1-.75.75z"/></svg>