<svg xmlns="http://www.w3.org/2000/svg" width="24" height="24" fill="none"><path fill="#141B34" fill-rule="evenodd" d="M18.617 4.669c-.148.354-.4.644-.723.835.792.967 1.237 1.584 1.513 2.348.344.948.344 1.89.344 3.767v4.38c0 2.936 0 4.554-1.099 5.652-1.097 1.098-2.715 1.098-5.65 1.098H11c-2.936 0-4.554 0-5.652-1.1C4.25 20.554 4.25 18.936 4.25 16v-4.38c0-1.877 0-2.82.344-3.768.276-.764.721-1.382 1.512-2.347a1.74 1.74 0 0 1-.722-.833C5.25 4.347 5.25 4.028 5.25 3.5s0-.848.133-1.169c.18-.432.516-.768.946-.947.324-.134.643-.134 1.171-.134h9c.529 0 .848 0 1.169.133.432.18.768.516.947.946.134.324.134.643.134 1.17V3.5c0 .528 0 .848-.133 1.169m-1.515-.44c-.064.02-.308.02-.556.021a1 1 0 0 0-.093 0H7.555a1 1 0 0 0-.109 0c-.244 0-.482-.001-.54-.018a.25.25 0 0 1-.135-.13c-.021-.068-.021-.339-.021-.6V3.5c0-.262 0-.533.018-.595a.25.25 0 0 1 .131-.135c.068-.021.339-.021.601-.021h9.001c.262 0 .533 0 .595.018.062.025.11.074.134.13.021.068.021.339.021.6V3.5c0 .262 0 .533-.018.595a.25.25 0 0 1-.13.135M6.004 8.361c.25-.691.784-1.337 1.846-2.611h8.3c1.06 1.273 1.596 1.92 1.846 2.612.254.7.254 1.555.254 3.256v4.38c0 2.618 0 3.932-.66 4.59-.658.66-1.972.66-4.59.66h-2c-2.618 0-3.932 0-4.59-.66-.66-.658-.66-1.972-.66-4.59v-4.38c0-1.701 0-2.555.254-3.257m7.562 10.252a.76.76 0 0 0 .866 0l2-1.412a.75.75 0 0 0 .317-.613v-1.882a.75.75 0 0 0-.317-.613l-1.683-1.188v-1.493a.75.75 0 0 0-.317-.613l-2-1.412a.75.75 0 0 0-.865 0l-2 1.412a.75.75 0 0 0-.317.613v1.493l-1.683 1.188a.75.75 0 0 0-.317.613v1.882a.75.75 0 0 0 .317.613l2 1.412a.75.75 0 0 0 .865 0l1.567-1.107zm.433-1.532-1.25-.882v-1.105l1.25-.882 1.25.882V16.2zm-4 0-1.25-.882v-1.105l1.25-.882 1.25.882V16.2zm2-3.294-1.25-.882V11.8l1.25-.882 1.25.882v1.105z" clip-rule="evenodd"/></svg>