<svg xmlns="http://www.w3.org/2000/svg" width="24" height="24" fill="none"><path fill="#141B34" fill-rule="evenodd" d="M9.25 20a.75.75 0 0 0 1.5 0V4a.75.75 0 0 0-1.5 0v7.25H6.663c.448-.891.868-1.949.317-2.651-.455-.578-1.266-.285-1.533-.188-1.025.371-4.24 2.178-4.197 3.66.012.406.212 1.076 1.81 2.198.892.627 1.908 1.167 2.588 1.375q.334.103.603.103a1 1 0 0 0 .533-.136l.114-.034.15-.206c.431-.599.187-1.245-.508-2.621h2.71zm4 0a.75.75 0 0 0 1.5 0v-7.25h2.587c-.448.89-.868 1.948-.317 2.65.21.268.497.349.77.349h.002c.316 0 .617-.109.76-.161 1.026-.371 4.24-2.178 4.198-3.66-.012-.406-.212-1.076-1.81-2.198-.892-.627-1.908-1.167-2.588-1.375q-.72-.221-1.137.033l-.113.034-.15.206c-.431.6-.187 1.245.508 2.622h-2.71V4a.75.75 0 0 0-1.5 0v16m-8.92-6.684c-.936-.599-1.407-1.076-1.55-1.286.135-.214.594-.702 1.521-1.318.51-.339.957-.582 1.294-.739-.155.382-.388.826-.49 1.022l-.002.003a9 9 0 0 0-.228.453c-.236.527-.227.896.038 1.41l.066.129c.172.338.344.675.481.963-.313-.15-.698-.361-1.13-.637m14.208-3.269c.138.288.31.625.482.963l.066.129c.265.514.274.883.038 1.41-.054.12-.134.274-.228.453l-.002.003c-.102.196-.335.64-.49 1.022.337-.157.784-.4 1.294-.739.927-.616 1.386-1.104 1.52-1.318-.142-.21-.613-.687-1.55-1.286a11 11 0 0 0-1.13-.637" clip-rule="evenodd"/></svg>