<svg xmlns="http://www.w3.org/2000/svg" width="24" height="24" fill="none"><path fill="#141B34" fill-rule="evenodd" d="M9.96 6.751a1 1 0 0 0 .083 0h9.548c.164 0 .282 0 .324.008l.032.005c.272.038.547.252.757.586l.005.008c.047.073.105.192.217.427l.006.012c.14.282.262.525.286.617.11.414-.07.767-.19.83a7 7 0 0 1-.431.008H3.405c-.177 0-.36 0-.432-.007-.117-.063-.298-.417-.187-.837.022-.087.143-.33.284-.611l.006-.012c.112-.235.17-.354.217-.427l.005-.008c.209-.335.485-.548.757-.586l.032-.005c.042-.008.16-.008.324-.008h1.548a1 1 0 0 0 .084 0zm.791-1.5v-.589c0-.848-.54-1.586-1.305-1.792l-2.007-.562a1.67 1.67 0 0 0-1.463.296 1.9 1.9 0 0 0-.725 1.498v1.15h-.84c-.253 0-.408 0-.578.029-.715.105-1.354.554-1.803 1.268a5 5 0 0 0-.305.583l-.003.006c-.211.423-.329.658-.388.892-.301 1.138.226 2.324 1.173 2.642.235.08.47.08.897.08h.233l1.029 1.307c.547.687.724 1.603.474 2.45l-.524 1.77a2.755 2.755 0 0 0-2.365 2.723 2.754 2.754 0 0 0 2.75 2.75 2.754 2.754 0 0 0 2.75-2.75 2.76 2.76 0 0 0-1.634-2.513l.46-1.555q.028-.09.05-.182h10.747q.023.091.05.183l.46 1.554a2.75 2.75 0 0 0-1.633 2.513 2.754 2.754 0 0 0 2.75 2.75 2.754 2.754 0 0 0 2.75-2.75 2.755 2.755 0 0 0-2.365-2.723l-.524-1.769a2.71 2.71 0 0 1 .476-2.454l1.027-1.304h.232v-.001c.427 0 .663 0 .896-.079.95-.319 1.477-1.505 1.177-2.637-.062-.239-.18-.474-.39-.897l-.003-.006a5 5 0 0 0-.305-.583c-.45-.713-1.088-1.163-1.803-1.268a3.3 3.3 0 0 0-.578-.029zm-4 0V4.103c0-.127.051-.242.137-.308.079-.06.141-.044.154-.04l2.007.562c.098.027.202.157.202.346v.59zm11.411 5.874.294-.373H5.546l.296.376c.492.618.791 1.357.88 2.124H17.28c.09-.768.39-1.507.883-2.127M3.751 19.002c0-.689.561-1.25 1.25-1.25s1.25.561 1.25 1.25-.561 1.25-1.25 1.25-1.25-.561-1.25-1.25m15.25-1.25c-.689 0-1.25.561-1.25 1.25s.561 1.25 1.25 1.25 1.25-.561 1.25-1.25-.561-1.25-1.25-1.25" clip-rule="evenodd"/></svg>