<svg xmlns="http://www.w3.org/2000/svg" width="24" height="24" fill="none"><path fill="#141B34" fill-rule="evenodd" d="M4.255 8.902c.335-1.967 1.938-5.52 5.825-6.577a2.25 2.25 0 0 1 3.842.01c3.696.978 5.404 4.53 5.833 6.508a.75.75 0 0 1-.733.909l-.001-.002a.75.75 0 0 1-.732-.591 8.6 8.6 0 0 0-.805-2.074c-.175.36-.431.686-.753.948-.433.353-1.137.714-2.201.714v.002c-.341 0-.72-.037-1.138-.124a8 8 0 0 1-1.793-.569l-.004-.002h-.001c-.428-.188-.558-.245-1.358-.09-1.368.263-2.674-.087-3.407-.915a2.4 2.4 0 0 1-.203-.263c-.502.854-.782 1.717-.893 2.368a.75.75 0 1 1-1.478-.252m12.135-3.37a5.94 5.94 0 0 0-2.198-1.534 2.25 2.25 0 0 1-2.194 1.752 2.25 2.25 0 0 1-2.195-1.755c-.811.322-1.48.785-2.028 1.316a.78.78 0 0 0 .177.743c.377.426 1.162.597 2 .435 1.2-.23 1.615-.086 2.245.19.319.14.715.313 1.499.476.907.188 1.629.09 2.088-.285.342-.279.464-.658.464-.899 0-.164.052-.316.142-.44M11.248 3.5a.75.75 0 1 1 1.5 0 .75.75 0 0 1-1.5 0M6.213 17.565a8.8 8.8 0 0 0 5.035 2.152v1.533h-2.25a.75.75 0 0 0 0 1.5h6a.75.75 0 0 0 0-1.5h-2.25v-1.533a8.8 8.8 0 0 0 5.036-2.152c1.59-1.39 2.619-3.276 2.894-5.31v-.002c.092-.68.171-1.269-.335-1.717-.521-.46-1.112-.28-1.864-.051h-.001c-1.97.6-4.211.918-6.48.918s-4.51-.318-6.484-.92h-.002c-.747-.227-1.339-.407-1.858.053-.507.448-.428 1.036-.335 1.722.274 2.031 1.302 3.916 2.894 5.307m-1.416-5.569-.022-.169c.097.027.204.06.305.09 2.11.644 4.502.984 6.918.984s4.808-.34 6.92-.985l.07-.02.233-.07-.022.165-.008.065c-.226 1.672-1.077 3.227-2.395 4.38a7.3 7.3 0 0 1-4.798 1.813A7.3 7.3 0 0 1 7.2 16.435c-1.318-1.152-2.17-2.707-2.395-4.383z" clip-rule="evenodd"/></svg>