<svg xmlns="http://www.w3.org/2000/svg" width="24" height="24" fill="none"><path fill="#141B34" fill-rule="evenodd" d="M14.122 21.517a.75.75 0 0 0 .749.733h.018c2.787-.065 4.537-.338 5.799-1.595 1.159-1.155 1.465-2.762 1.567-4.819a.75.75 0 0 0-1.498-.074c-.103 2.077-.408 3.115-1.127 3.831-.805.802-2.01 1.094-4.775 1.157a.75.75 0 0 0-.733.767m-5.001.733h.018v.001a.75.75 0 0 0 .016-1.5c-2.766-.063-3.971-.355-4.776-1.156-.717-.716-1.023-1.754-1.126-3.83a.749.749 0 1 0-1.498.074c.102 2.056.408 3.663 1.566 4.818 1.263 1.256 3.013 1.53 5.8 1.593M20.756 8.237a.75.75 0 0 0 .748.713h-.001.038a.75.75 0 0 0 .712-.787c-.102-2.057-.407-3.664-1.566-4.819-1.26-1.257-3.01-1.53-5.8-1.594a.75.75 0 1 0-.033 1.5c2.767.063 3.97.355 4.775 1.156.718.716 1.024 1.755 1.127 3.831M2.468 8.95h.038v.001a.75.75 0 0 0 .748-.713c.103-2.077.408-3.115 1.126-3.83.805-.802 2.01-1.094 4.776-1.157a.75.75 0 0 0-.034-1.5c-2.788.064-4.538.337-5.8 1.594C2.164 4.5 1.858 6.106 1.756 8.165a.75.75 0 0 0 .712.785m12.919 8.476a.75.75 0 1 0 1.235-.85c-1.006-1.465-2.657-2.312-4.53-2.325-1.905-.011-3.663.851-4.7 2.316a.75.75 0 0 0 1.225.866c.748-1.055 2.029-1.682 3.432-1.682h.033c1.376.01 2.58.62 3.305 1.675M8.755 9.5a3.254 3.254 0 0 0 3.25 3.25 3.254 3.254 0 0 0 3.25-3.25 3.254 3.254 0 0 0-3.25-3.25 3.254 3.254 0 0 0-3.25 3.25m1.5 0c0-.965.785-1.75 1.75-1.75s1.75.785 1.75 1.75c0 .966-.785 1.75-1.75 1.75s-1.75-.784-1.75-1.75" clip-rule="evenodd"/></svg>