<svg xmlns="http://www.w3.org/2000/svg" width="25" height="24" fill="none"><path fill="#141B34" fill-rule="evenodd" d="M18.038 6.977c.157.162.36.419.551.664l.045.057c.193.245.4.508.61.757l.006.007V2a.75.75 0 0 1 1.5 0v6.462l.006-.007c.21-.249.417-.512.61-.757l.045-.057c.192-.245.394-.502.551-.664a.75.75 0 1 1 1.076 1.046 9 9 0 0 0-.448.544l-.047.06c-.19.242-.413.526-.642.797-.247.291-.522.593-.798.828a2.7 2.7 0 0 1-.46.323 1.4 1.4 0 0 1-.643.175 1.4 1.4 0 0 1-.642-.175 2.7 2.7 0 0 1-.461-.323 7.4 7.4 0 0 1-.797-.828c-.23-.27-.453-.555-.643-.797l-.047-.06a9 9 0 0 0-.448-.544.75.75 0 1 1 1.076-1.046M11.943 2.25h.059c.53 0 2.03 0 2.502.002a.75.75 0 0 1-.008 1.5C14.03 3.75 12.532 3.75 12 3.75c-2.26 0-3.88.002-5.112.167-1.21.163-1.933.472-2.466 1.005S3.58 6.178 3.417 7.388C3.252 8.62 3.25 10.24 3.25 12.5s.002 3.88.167 5.112c.163 1.21.472 1.933 1.005 2.466q.233.235.527.414.397-.45.808-.921c1.854-2.122 3.924-4.49 6.285-5.929 1.38-.84 2.899-1.392 4.573-1.392 1.322 0 2.698.343 4.135 1.1V13a.75.75 0 0 1 1.5 0c-.001 2.057-.013 3.685-.203 4.968-.193 1.304-.583 2.346-1.408 3.171-.858.858-1.95 1.245-3.327 1.43-1.343.181-3.064.181-5.255.181h-.114c-2.19 0-3.912 0-5.255-.18-1.377-.186-2.469-.573-3.327-1.43-.858-.86-1.245-1.951-1.43-3.328-.181-1.343-.181-3.064-.181-5.255v-.114c0-2.19 0-3.912.18-5.255.186-1.377.573-2.469 1.43-3.327.86-.858 1.951-1.245 3.328-1.43 1.343-.181 3.064-.181 5.255-.181M6.888 21.083a9 9 0 0 1-.405-.063l.42-.48c1.874-2.14 3.773-4.31 5.92-5.617 1.21-.738 2.462-1.173 3.792-1.173 1.234 0 2.597.373 4.121 1.322-.019 1.074-.064 1.946-.172 2.676-.168 1.128-.472 1.817-.986 2.33-.533.534-1.256.842-2.466 1.005-1.232.165-2.852.167-5.112.167s-3.88-.002-5.112-.167" clip-rule="evenodd"/></svg>