<svg xmlns="http://www.w3.org/2000/svg" width="25" height="24" fill="none"><path fill="#141B34" fill-rule="evenodd" d="M19.25 2a.75.75 0 0 0-1.5 0v3.25H14.5a.75.75 0 0 0 0 1.5h3.25V10a.75.75 0 0 0 1.5 0V6.75h3.25a.75.75 0 0 0 0-1.5h-3.25zM12 2.25h-.057c-2.19 0-3.912 0-5.255.18-1.377.186-2.469.573-3.327 1.43-.858.86-1.245 1.951-1.43 3.328-.181 1.343-.181 3.064-.181 5.255v.114c0 2.19 0 3.912.18 5.255.186 1.377.573 2.469 1.43 3.327.86.858 1.951 1.245 3.328 1.43 1.343.181 3.064.181 5.255.181h.114c2.19 0 3.912 0 5.255-.18 1.377-.186 2.469-.573 3.327-1.43.858-.86 1.245-1.951 1.43-3.328.181-1.343.181-3.064.181-5.255V12a.75.75 0 0 0-1.5 0v.5c0 1.269 0 2.336-.03 3.246a8.4 8.4 0 0 0-2.832-.496c-1.63-.006-3.224.47-4.72 1.378a12 12 0 0 0-1.044-.892c-2.196-1.664-4.946-2.54-7.759-2.483q-.558-.001-1.115.043V12.5c0-2.26.002-3.88.167-5.112.163-1.21.472-1.933 1.005-2.466s1.256-.842 2.466-1.005C8.12 3.752 9.74 3.75 12 3.75a.75.75 0 0 0 0-1.5m2.2 15.512a11 11 0 0 1 1.843 3.421q.58-.035 1.07-.1c1.21-.163 1.932-.471 2.465-1.005.534-.533.842-1.256 1.005-2.466q.02-.146.036-.297a7 7 0 0 0-2.732-.565h-.003c-1.233-.005-2.474.33-3.684 1.012m-2.981-.83c1.502 1.139 2.621 2.633 3.254 4.306-.729.012-1.547.012-2.473.012-2.26 0-3.88-.002-5.112-.167-1.21-.163-1.933-.471-2.466-1.005s-.842-1.256-1.005-2.466c-.103-.766-.142-1.683-.158-2.81q.555-.05 1.111-.05h.018c2.488-.052 4.909.724 6.83 2.18" clip-rule="evenodd"/></svg>