<svg xmlns="http://www.w3.org/2000/svg" width="25" height="24" fill="none"><path fill="#141B34" fill-rule="evenodd" d="M11.943 1.75H12a.75.75 0 0 1 0 1.5c-2.26 0-3.88.002-5.112.167-1.21.163-1.933.472-2.466 1.005S3.58 5.678 3.417 6.888C3.252 8.12 3.25 9.74 3.25 12s.002 3.88.167 5.112c.163 1.21.472 1.933 1.005 2.466q.233.235.527.414.397-.45.808-.921c1.854-2.122 3.924-4.49 6.285-5.929 1.38-.84 2.899-1.391 4.573-1.392 1.322 0 2.698.343 4.135 1.1v-1.799a.75.75 0 1 1 1.5-.002v1.008c0 2.19 0 3.912-.18 5.255-.186 1.377-.573 2.469-1.43 3.327-.86.858-1.951 1.245-3.328 1.43-1.343.181-3.064.181-5.255.181h-.114c-2.19 0-3.912 0-5.255-.18-1.377-.186-2.469-.573-3.327-1.43-.858-.86-1.245-1.951-1.43-3.328-.181-1.343-.181-3.064-.181-5.255v-.114c0-2.19 0-3.912.18-5.255.186-1.377.573-2.469 1.43-3.327.86-.858 1.951-1.245 3.328-1.43 1.343-.181 3.064-.181 5.255-.181M6.888 20.583a9 9 0 0 1-.405-.063l.418-.477.002-.002c1.874-2.14 3.773-4.31 5.92-5.618 1.21-.738 2.462-1.173 3.792-1.173 1.234 0 2.597.373 4.121 1.322-.018 1.005-.059 1.836-.153 2.54-.163 1.21-.471 1.933-1.005 2.466s-1.256.842-2.466 1.005c-1.232.165-2.852.167-5.112.167s-3.88-.002-5.112-.167M14.5 4.75a.75.75 0 0 0 0 1.5h8a.75.75 0 0 0 0-1.5z" clip-rule="evenodd"/></svg>