<svg xmlns="http://www.w3.org/2000/svg" width="25" height="24" fill="none"><path fill="#141B34" fill-rule="evenodd" d="M3.03 1.47a.75.75 0 0 0-1.06 1.06l1.213 1.214c-.422.74-.644 1.611-.768 2.634-.165 1.363-.165 3.103-.165 5.316v.106c0 2.253 0 4.016.175 5.392.178 1.404.55 2.517 1.38 3.395.835.884 1.904 1.285 3.25 1.477 1.308.186 2.982.186 5.104.186h.06c2.12 0 3.787-.042 5.102-.264 1.178-.2 2.133-.553 2.909-1.195l1.74 1.74a.75.75 0 1 0 1.06-1.061zm16.132 18.253-5.788-5.788c-1.135.845-2.144 1.92-3.12 3.133-.716.891-1.39 1.823-2.083 2.779l-.001.002-.561.773c1.145.127 2.618.128 4.61.128 2.132 0 3.678-.044 4.852-.243.944-.16 1.595-.411 2.091-.784m-6.858-6.859-8.001-8c-.185.443-.314.99-.399 1.694-.153 1.263-.154 2.912-.154 5.187 0 2.32.001 3.988.163 5.258.159 1.252.462 2.003.982 2.553.293.31.644.545 1.107.72q.459-.623.92-1.262c.709-.979 1.426-1.968 2.164-2.886.967-1.201 2.012-2.335 3.218-3.264m.124-11.114h.13c2.19 0 3.91 0 5.254.18 1.377.186 2.469.573 3.327 1.43.858.86 1.245 1.951 1.43 3.328.181 1.343.181 3.064.181 5.255V12q0 .862-.003 1.624c-.01 1.603-.048 2.919-.223 3.996a.75.75 0 0 1-1.48-.242c.14-.867.186-1.953.2-3.367-1.548-1.026-2.932-1.336-4.192-1.25a.75.75 0 1 1-.103-1.496c1.374-.095 2.807.191 4.301 1V12c0-2.26-.002-3.88-.167-5.112-.163-1.21-.471-1.933-1.005-2.466-.532-.533-1.255-.842-2.466-1.005-1.232-.165-2.851-.167-5.112-.167-2.436 0-4.124.002-5.38.207a.75.75 0 1 1-.24-1.48c1.39-.227 3.2-.227 5.548-.227" clip-rule="evenodd"/></svg>