<svg xmlns="http://www.w3.org/2000/svg" width="25" height="24" fill="none"><path fill="#141B34" fill-rule="evenodd" d="M18.59 4.36a9 9 0 0 1-.552.663.75.75 0 1 1-1.076-1.046c.089-.091.235-.273.448-.544l.047-.06c.19-.242.413-.526.642-.797a7.4 7.4 0 0 1 .798-.827c.138-.118.293-.234.46-.324A1.4 1.4 0 0 1 20 1.25c.258 0 .48.089.642.175.168.09.323.206.461.324.276.234.551.536.797.827.23.27.453.555.643.797l.047.06q.318.407.448.544a.75.75 0 1 1-1.076 1.046 9 9 0 0 1-.551-.664l-.045-.057a26 26 0 0 0-.61-.757l-.006-.007V10a.75.75 0 0 1-1.5 0V3.538l-.006.007c-.21.249-.417.511-.61.757zm2.16 8.99V13a.75.75 0 0 1 1.5 0c-.001 2.057-.013 3.685-.203 4.967-.193 1.305-.583 2.347-1.408 3.172-.858.858-1.95 1.245-3.327 1.43-1.343.18-3.064.18-5.255.18h-.114c-2.19 0-3.912 0-5.255-.18-1.377-.185-2.469-.572-3.327-1.43s-1.245-1.95-1.43-3.327c-.181-1.344-.181-3.064-.181-5.255v-.114c0-2.191 0-3.912.18-5.255.186-1.377.573-2.469 1.43-3.327.86-.858 1.951-1.245 3.328-1.43 1.343-.181 3.064-.181 5.255-.181H14.5a.75.75 0 0 1 0 1.5H12c-2.26 0-3.88.001-5.112.167-1.21.163-1.933.471-2.466 1.004-.533.534-.842 1.256-1.005 2.467-.165 1.232-.167 2.851-.167 5.112 0 2.26.002 3.88.167 5.112.163 1.21.472 1.933 1.005 2.466q.233.235.527.414.397-.45.808-.921c1.854-2.122 3.924-4.49 6.285-5.929 1.38-.84 2.899-1.392 4.573-1.392 1.322 0 2.698.343 4.135 1.1M6.483 21.02l.42-.48c1.874-2.14 3.773-4.31 5.92-5.617 1.21-.738 2.462-1.173 3.792-1.173 1.234 0 2.597.373 4.121 1.322-.019 1.074-.064 1.946-.172 2.675-.168 1.13-.472 1.818-.986 2.331-.533.533-1.256.842-2.466 1.005-1.232.165-2.852.167-5.112.167s-3.88-.002-5.112-.167a9 9 0 0 1-.405-.063" clip-rule="evenodd"/></svg>