<svg xmlns="http://www.w3.org/2000/svg" width="25" height="24" fill="none"><path fill="#141B34" fill-rule="evenodd" d="M5.25 2a.75.75 0 0 0-1.5 0v1.25H2.5a.75.75 0 0 0 0 1.5h1.25v9.305c0 1.367 0 2.47.117 3.337.12.9.38 1.658.981 2.26.602.602 1.36.86 2.26.982.867.116 1.97.116 3.337.116h9.305V22a.75.75 0 0 0 1.5 0v-1.25h1.25a.75.75 0 0 0 0-1.5h-1.25V9.945c0-1.367 0-2.47-.116-3.337-.122-.9-.38-1.658-.982-2.26s-1.36-.86-2.26-.981c-.867-.117-1.97-.117-3.337-.117H5.25zm0 12V4.75h9.25c1.435 0 2.436.002 3.192.103.734.099 1.122.28 1.399.556.277.277.457.665.556 1.4.101.754.103 1.756.103 3.191v4.034c-1.228-.54-2.4-.784-3.525-.784-1.46 0-2.791.412-4.007 1.047-2.08 1.086-3.904 2.876-5.526 4.467l-.198.194a1.6 1.6 0 0 1-.585-.367c-.277-.277-.457-.665-.556-1.4-.101-.755-.103-1.756-.103-3.191m10.975.75c1.063 0 2.23.27 3.525.949v3.551H10.5c-.851 0-1.55 0-2.135-.022 1.443-1.401 2.912-2.747 4.547-3.601 1.052-.55 2.145-.877 3.313-.877M8.25 8.5a.75.75 0 1 1 1.5 0 .75.75 0 0 1-1.5 0M9 6.25a2.25 2.25 0 1 0 0 4.5 2.25 2.25 0 0 0 0-4.5" clip-rule="evenodd"/></svg>