<svg xmlns="http://www.w3.org/2000/svg" width="25" height="24" fill="none"><path fill="#141B34" fill-rule="evenodd" d="M17.746 10.008a.75.75 0 0 0 1.5 0V6.735l3.256-.006a.75.75 0 0 0 0-1.5H22.5l-3.254.006V2a.75.75 0 0 0-1.5 0v3.238l-3.257.006a.75.75 0 0 0 .001 1.5h.001l3.255-.006zM12.01 22.754c-4.684 0-7.035 0-8.647-1.612S1.75 17.18 1.75 12.498s0-7.033 1.612-8.644c1.613-1.612 3.964-1.612 8.647-1.612a.75.75 0 0 1 0 1.5c-4.27 0-6.413 0-7.587 1.172C3.25 6.086 3.25 8.229 3.25 12.497s0 6.411 1.172 7.584q.232.232.52.407.408-.46.822-.936c3.794-4.337 8.465-9.676 15.004-6.201v-1.353a.75.75 0 0 1 1.5 0v.5c0 4.682 0 7.033-1.612 8.644-1.613 1.612-3.964 1.612-8.647 1.612m-5.115-2.215-.42.48c1.273.234 3.041.234 5.535.234 4.27 0 6.413 0 7.587-1.172.908-.908 1.112-2.398 1.159-5.005-5.874-3.669-9.934.972-13.861 5.463" clip-rule="evenodd"/></svg>