<svg xmlns="http://www.w3.org/2000/svg" width="25" height="24" fill="none"><path fill="#141B34" fill-rule="evenodd" d="M3.03 1.47a.75.75 0 0 0-1.06 1.06l1.407 1.408c-.547.782-.818 1.727-.96 2.857C2.25 8.12 2.25 9.81 2.25 11.947v.11c0 2.19 0 3.912.18 5.255.186 1.377.573 2.469 1.43 3.327.86.858 1.951 1.245 3.328 1.43 1.343.181 3.064.181 5.255.181h.11c2.137 0 3.826 0 5.152-.167 1.13-.142 2.075-.413 2.857-.96l1.408 1.407a.75.75 0 1 0 1.06-1.06l-5.987-5.988-.024-.024zm12.127 14.247L4.463 5.025c-.272.479-.45 1.098-.558 1.958C3.751 8.204 3.75 9.799 3.75 12l.001 1.27q.38-.018.759-.017c3.003-.058 5.944.811 8.299 2.468q.57.4 1.081.854a5.8 5.8 0 0 1 1.267-.857m1.144 1.145c-.222.08-.421.164-.627.276a4.2 4.2 0 0 0-.723.503 10.9 10.9 0 0 1 1.882 3.022q.361-.026.685-.068c.86-.108 1.48-.286 1.958-.558zM12.428 1.75h.13c2.19 0 3.91 0 5.254.18 1.377.186 2.469.573 3.327 1.43.858.86 1.245 1.951 1.43 3.328.181 1.343.181 3.064.181 5.255v.09c0 1.855 0 3.369-.106 4.595a.75.75 0 0 1-1.206.53c-.307-.238-.647-.408-.938-.408a.75.75 0 0 1 0-1.5c.253 0 .493.042.716.11A99 99 0 0 0 21.25 12c0-2.26-.002-3.88-.167-5.112-.163-1.21-.471-1.933-1.005-2.466-.532-.533-1.255-.842-2.466-1.005-1.232-.165-2.851-.167-5.112-.167-2.436 0-4.124.002-5.38.207a.75.75 0 1 1-.24-1.48c1.39-.227 3.2-.227 5.548-.227m-8.66 13.02c.02.917.06 1.685.15 2.342.162 1.21.47 1.933 1.004 2.466.533.534 1.256.842 2.466 1.005 1.232.165 2.852.167 5.112.167 1.033 0 1.932 0 2.722-.017-.705-1.456-1.822-2.762-3.276-3.785-2.082-1.465-4.71-2.249-7.415-2.196h-.016q-.375 0-.747.019M16.25 7.5a.75.75 0 1 1 1.5 0 .75.75 0 0 1-1.5 0M17 5.25a2.25 2.25 0 1 0 0 4.5 2.25 2.25 0 0 0 0-4.5" clip-rule="evenodd"/></svg>