<svg xmlns="http://www.w3.org/2000/svg" width="25" height="24" fill="none"><path fill="#141B34" fill-rule="evenodd" d="M16.46 8.748h.04v.002a.75.75 0 0 0 .632-.348c.846-1.33 3.504-4.947 5.617-5.695a.75.75 0 1 0-.5-1.414c-2.246.795-4.59 3.753-5.712 5.321C15.59 5.328 14.7 5.25 14.5 5.25c0 0-.323 0-.542.234s-.207.512-.207.512.008.355.242.555c.235.2.507.2.507.2s-.02.002-.056-.004c.008.001.653.123 1.385 1.588a.75.75 0 0 0 .633.413M12 2.25h-.057c-2.19 0-3.912 0-5.255.18-1.377.186-2.469.573-3.327 1.431s-1.245 1.95-1.43 3.327c-.181 1.344-.181 3.064-.181 5.255v.114c0 2.191 0 3.912.18 5.255.186 1.377.573 2.47 1.43 3.327.86.858 1.951 1.246 3.328 1.43 1.343.181 3.064.181 5.255.181h.114c2.19 0 3.912 0 5.255-.18 1.377-.185 2.469-.573 3.327-1.43.858-.859 1.245-1.951 1.43-3.328.181-1.343.181-3.064.181-5.255V9a.75.75 0 0 0-1.5 0v3.5c0 1.27 0 2.336-.03 3.246a8.4 8.4 0 0 0-2.832-.496c-1.63-.006-3.224.471-4.72 1.378a12 12 0 0 0-1.044-.891c-2.196-1.665-4.946-2.542-7.759-2.484q-.558 0-1.115.044V12.5c0-2.26.002-3.88.167-5.112.163-1.21.472-1.933 1.005-2.466s1.256-.842 2.466-1.005C8.12 3.752 9.74 3.75 12 3.75a.75.75 0 0 0 0-1.5m5.887 14.5c.912 0 1.828.186 2.732.565q-.016.151-.036.297c-.163 1.21-.471 1.934-1.005 2.467s-1.256.841-2.466 1.004q-.49.066-1.069.1a11 11 0 0 0-1.843-3.42c1.21-.683 2.451-1.018 3.684-1.013zM3.26 14.801c.016 1.128.055 2.045.158 2.811.163 1.21.472 1.934 1.005 2.467s1.256.841 2.466 1.004c1.232.166 2.852.167 5.112.167.926 0 1.745 0 2.473-.012-.633-1.673-1.752-3.167-3.254-4.306-1.922-1.456-4.343-2.232-6.831-2.18H4.37q-.556 0-1.11.05" clip-rule="evenodd"/></svg>