<svg xmlns="http://www.w3.org/2000/svg" width="25" height="24" fill="none"><path fill="#141B34" fill-rule="evenodd" d="M12.557 1.75h-.114c-2.19 0-3.912 0-5.255.18-1.377.186-2.469.573-3.327 1.43-.858.86-1.245 1.951-1.43 3.328-.181 1.343-.181 3.064-.181 5.255v.114c0 2.19 0 3.912.18 5.255.186 1.377.573 2.469 1.43 3.327.86.858 1.951 1.245 3.328 1.43 1.343.181 3.064.181 5.255.181h.114c2.19 0 3.912 0 5.255-.18 1.377-.186 2.469-.573 3.327-1.43.858-.86 1.245-1.951 1.43-3.328.181-1.343.181-3.064.181-5.255v-.114c0-2.19 0-3.912-.18-5.255-.186-1.377-.573-2.469-1.43-3.327-.86-.858-1.951-1.245-3.328-1.43-1.343-.181-3.064-.181-5.255-.181M4.922 4.422c.533-.533 1.256-.842 2.466-1.005C8.62 3.252 10.24 3.25 12.5 3.25s3.88.002 5.112.167c1.21.163 1.933.472 2.466 1.005s.842 1.256 1.005 2.466c.165 1.232.167 2.852.167 5.112 0 1.428 0 2.6-.043 3.581a8.3 8.3 0 0 0-2.32-.33c-1.676-.007-3.315.498-4.849 1.457q-.575-.526-1.23-.987c-2.354-1.657-5.294-2.526-8.298-2.468q-.38 0-.759.017L3.75 12c0-2.26.002-3.88.167-5.112.163-1.21.472-1.933 1.005-2.466m10.18 13.396a10.8 10.8 0 0 1 1.731 2.845q.413-.031.78-.08c1.21-.163 1.932-.471 2.465-1.005.533-.532.842-1.255 1.005-2.465a6.9 6.9 0 0 0-2.196-.363h-.003c-1.266-.005-2.54.348-3.782 1.067m-3.156-.87c1.454 1.023 2.571 2.329 3.277 3.785-.79.017-1.69.017-2.723.017-2.26 0-3.88-.002-5.112-.167-1.21-.163-1.933-.471-2.466-1.005s-.842-1.256-1.005-2.466c-.088-.657-.13-1.425-.15-2.341q.374-.02.748-.018h.016c2.706-.054 5.333.73 7.415 2.195M16.25 7.5a.75.75 0 1 1 1.5 0 .75.75 0 0 1-1.5 0M17 5.25a2.25 2.25 0 1 0 0 4.5 2.25 2.25 0 0 0 0-4.5" clip-rule="evenodd"/></svg>