<svg xmlns="http://www.w3.org/2000/svg" width="25" height="24" fill="none"><path fill="#141B34" fill-rule="evenodd" d="M12 1.75h-.057c-2.19 0-3.912 0-5.255.18-1.377.186-2.469.573-3.327 1.43-.858.86-1.245 1.951-1.43 3.328-.181 1.343-.181 3.064-.181 5.255v.114c0 2.19 0 3.912.18 5.255.186 1.377.573 2.469 1.43 3.327.86.858 1.951 1.245 3.328 1.43 1.343.181 3.064.181 5.255.181h.114c2.19 0 3.912 0 5.255-.18 1.377-.186 2.469-.573 3.327-1.43.858-.86 1.245-1.951 1.43-3.328.181-1.343.181-3.064.181-5.255V11.05a.75.75 0 1 0-1.5.002V12c0 1.269 0 2.336-.03 3.246a8.4 8.4 0 0 0-2.832-.496c-1.63-.006-3.224.47-4.72 1.378a12 12 0 0 0-1.044-.892c-2.196-1.664-4.946-2.54-7.759-2.483q-.558-.001-1.115.043V12c0-2.26.002-3.88.167-5.112.163-1.21.472-1.933 1.005-2.466s1.256-.842 2.466-1.005C8.12 3.252 9.74 3.25 12 3.25a.75.75 0 0 0 0-1.5m5.887 14.5a7 7 0 0 1 2.732.564q-.016.153-.036.298c-.163 1.21-.471 1.933-1.005 2.466s-1.256.842-2.466 1.005q-.49.065-1.069.1a11 11 0 0 0-1.843-3.421c1.21-.682 2.451-1.017 3.684-1.012zM3.26 14.301c.016 1.128.055 2.045.158 2.811.163 1.21.472 1.933 1.005 2.466s1.256.842 2.466 1.005c1.232.165 2.852.167 5.112.167.926 0 1.745 0 2.473-.012-.633-1.673-1.752-3.168-3.254-4.306-1.922-1.456-4.343-2.232-6.831-2.18H4.37q-.556 0-1.11.05M14.5 4.75a.75.75 0 0 0 0 1.5h8a.75.75 0 0 0 0-1.5z" clip-rule="evenodd"/></svg>