<svg xmlns="http://www.w3.org/2000/svg" width="25" height="24" fill="none"><path fill="#141B34" fill-rule="evenodd" d="M12.75 21.25a9.25 9.25 0 1 1 0-18.5 9.25 9.25 0 0 1 0 18.5M2 12c0 5.937 4.813 10.75 10.75 10.75S23.5 17.937 23.5 12 18.687 1.25 12.75 1.25 2 6.063 2 12m10.241-.249-.249-.001a.75.75 0 0 1 0-1.5h.035c.205 0 .427 0 .614.025.22.03.5.105.735.341.236.236.312.516.341.735.025.188.025.41.025.614V17a.75.75 0 0 1-1.5 0v-5zM12.742 7a1 1 0 1 0 0 2h.01a1 1 0 1 0 0-2z" clip-rule="evenodd"/></svg>