<svg xmlns="http://www.w3.org/2000/svg" width="25" height="24" fill="none"><path fill="#141B34" fill-rule="evenodd" d="M12.393 1.75h-.114c-2.19 0-3.912 0-5.255.18-1.377.186-2.469.573-3.327 1.43-.858.86-1.245 1.951-1.43 3.328-.181 1.343-.181 3.064-.181 5.255v.114c0 2.19 0 3.912.18 5.255.186 1.377.573 2.469 1.43 3.327.67.67 1.486 1.055 2.474 1.28a.75.75 0 0 0 .332-1.464c-.79-.179-1.324-.456-1.744-.877-.534-.533-.842-1.256-1.005-2.466-.165-1.232-.167-2.852-.167-5.112 0-.833 0-1.578.009-2.25h17.482c.009.672.009 1.417.009 2.25 0 2.26-.002 3.88-.167 5.112-.163 1.21-.472 1.933-1.005 2.466-.42.42-.955.698-1.744.877a.75.75 0 0 0 .332 1.463c.988-.224 1.803-.61 2.473-1.279.858-.858 1.245-1.95 1.43-3.327.181-1.343.181-3.064.18-5.255v-.114c.001-2.19.001-3.912-.18-5.255-.185-1.377-.572-2.469-1.43-3.327s-1.95-1.245-3.327-1.43c-1.343-.181-3.064-.181-5.255-.181m-4.307 6.5h-4.45c.025-.503.062-.954.117-1.362.163-1.21.471-1.933 1.005-2.466s1.256-.842 2.466-1.005q.401-.054.862-.086zm1.5 0h5.5V3.267c-.796-.017-1.705-.017-2.75-.017s-1.954 0-2.75.017zm7-4.92v4.92h4.45a16 16 0 0 0-.117-1.362c-.163-1.21-.472-1.933-1.005-2.466s-1.256-.842-2.466-1.005a14 14 0 0 0-.862-.086m-3.5 10.17a.75.75 0 1 0-1.5 0v6.19l-1.72-1.72a.75.75 0 0 0-1.06 1.06l3 3a.75.75 0 0 0 1.06 0l3-3a.75.75 0 1 0-1.06-1.06l-1.72 1.72z" clip-rule="evenodd"/></svg>