<svg xmlns="http://www.w3.org/2000/svg" width="24" height="24" fill="none"><path fill="#141B34" fill-rule="evenodd" d="M12.002 1.25h-1.996c-1.615 0-2.906 0-3.918.139-1.047.143-1.907.448-2.586 1.14-.677.69-.973 1.562-1.112 2.623-.136 1.03-.136 2.343-.136 3.993v4.71c0 1.65 0 2.964.136 3.993.14 1.061.435 1.932 1.112 2.623.601.613 1.346.923 2.241 1.086.872.158 1.948.186 3.258.192a.75.75 0 1 0 .006-1.5c-1.325-.006-2.273-.037-2.996-.168-.7-.127-1.121-.338-1.438-.66-.357-.365-.578-.869-.696-1.769-.122-.92-.123-2.134-.123-3.852V9.2c0-1.718.001-2.932.123-3.852.118-.9.34-1.404.696-1.769.355-.362.844-.584 1.72-.704.897-.123 2.085-.125 3.77-.125h1.882c1.686 0 2.873.002 3.772.125.875.12 1.363.342 1.718.704.325.332.536.778.661 1.529.129.771.154 1.782.158 3.193V9.5a.75.75 0 0 0 1.5 0V8.298c-.004-1.392-.026-2.525-.178-3.436-.155-.932-.456-1.707-1.07-2.333-.678-.692-1.539-.997-2.586-1.14-1.012-.139-2.302-.139-3.918-.139m3.502 10a5.25 5.25 0 1 0 3.138 9.46l1.833 1.822a.75.75 0 0 0 1.058-1.064l-1.829-1.818a5.25 5.25 0 0 0-4.2-8.4m-3.75 5.25a3.75 3.75 0 1 1 7.5 0 3.75 3.75 0 0 1-7.5 0M6.254 7a.75.75 0 0 1 .75-.75h8a.75.75 0 0 1 0 1.5h-8a.75.75 0 0 1-.75-.75m.75 3.25a.75.75 0 0 0 0 1.5h3a.75.75 0 0 0 0-1.5z" clip-rule="evenodd"/></svg>