<svg xmlns="http://www.w3.org/2000/svg" width="24" height="24" fill="none"><path fill="#141B34" fill-rule="evenodd" d="M10 22.751c-.504 0-.884-.24-1.458-.603H8.54l-1.912-1.206c-.255-.161-.544-.343-.621-.352h-.001c-.077 0-.427.22-.636.352-.074.046-.168.112-.269.183l-.039.027c-.731.512-1.954 1.368-3.007.69-.806-.52-.806-1.47-.806-3.196V8.054c0-2.96 0-4.59 1.097-5.695C3.445 1.25 5.063 1.25 8 1.25h12l.065.003c1.286.043 2.255 1.78 2.598 4.665.115.964.197 1.661-.33 2.25-.525.585-1.238.585-2.317.585v-.001H18.75v9.894c0 1.725 0 2.676-.806 3.195-1.053.678-2.276-.178-3.007-.69l-.04-.028c-.101-.07-.195-.136-.268-.182-.255-.161-.544-.343-.621-.352h-.001c-.077 0-.427.22-.636.352l-1.911 1.205c-.576.364-.956.604-1.46.604zM8 2.75h10.193c-.64 1.321-.943 3.33-.943 5.252v10.644c0 .858 0 1.745-.127 1.939-.104.051-.42-.029-1.326-.663a9 9 0 0 0-.368-.25c-.54-.341-.897-.566-1.37-.582-.531-.02-.928.23-1.476.574l-.012.008-1.913 1.206-.012.008c-.267.168-.566.356-.646.363-.081-.007-.388-.2-.66-.372l-1.911-1.205c-.54-.341-.897-.566-1.37-.582-.533-.02-.93.23-1.478.576l-.01.006c-.113.072-.237.158-.368.25-.907.634-1.223.714-1.326.663-.127-.193-.127-1.08-.127-1.939V8.054c0-2.644 0-3.972.662-4.639C4.07 2.75 5.383 2.75 8 2.75m12.016 4.502h-1.25c.121-2.868.918-4.376 1.25-4.497.216.085.882 1.025 1.157 3.34v.002c.058.485.118.986.043 1.069-.077.086-.7.086-1.2.086M6 5.252a.75.75 0 0 0 0 1.5h8a.75.75 0 0 0 0-1.5zm2.75 4.75a.75.75 0 0 1-.75.75H6a.75.75 0 0 1 0-1.5h2a.75.75 0 0 1 .75.75m4.5 0a.75.75 0 1 0-1.5 0v.245c-.834.272-1.5.987-1.5 1.943 0 1.23 1.105 2.062 2.25 2.062.511 0 .75.343.75.563s-.239.562-.75.562c-.386 0-.642-.214-.72-.406a.75.75 0 0 0-1.39.562c.24.595.75 1.03 1.36 1.226v.243a.75.75 0 0 0 1.5 0v-.245c.834-.272 1.5-.987 1.5-1.943 0-1.23-1.105-2.062-2.25-2.062-.511 0-.75-.343-.75-.562s.239-.563.75-.563c.386 0 .642.214.72.406a.75.75 0 0 0 1.39-.562c-.24-.595-.75-1.03-1.36-1.226z" clip-rule="evenodd"/></svg>