<svg xmlns="http://www.w3.org/2000/svg" width="25" height="24" fill="none"><path fill="#141B34" fill-rule="evenodd" d="M12.682 22.75c2.941 0 4.561 0 5.66-1.098s1.1-2.715 1.1-5.652V7.25c0-.786.129-1.173.601-1.8.061-.081.149-.187.242-.299.577-.694 1.649-1.986.852-3.143-.523-.758-1.473-.758-3.197-.758H9.676c-1.207 0-2.191 0-3.008.076a1 1 0 0 0-.14.014c-1.1.117-1.888.387-2.51 1.008-1.1 1.098-1.1 2.715-1.1 5.652v2a.75.75 0 0 0 1.5 0V8c0-2.617 0-3.931.66-4.59.209-.209.484-.351.845-.449V16c0 2.937 0 4.555 1.1 5.652s2.719 1.098 5.659 1.098M7.422 16V2.775c.615-.026 1.358-.026 2.252-.026h8.265c.867 0 1.762 0 1.969.122.079.159-.182.604-.778 1.321-.105.127-.204.247-.287.357-.665.886-.901 1.593-.901 2.701h-2.274a.75.75 0 0 0 0 1.5h2.274v1.833h-2.274a.75.75 0 0 0 0 1.5h2.274v1.834h-2.274a.75.75 0 0 0 0 1.5h2.274V16q0 .681-.003 1.25h-2.271a.75.75 0 0 0 0 1.5h2.218c-.071.895-.234 1.47-.604 1.84-.66.66-1.978.66-4.6.66s-3.938 0-4.599-.66c-.66-.658-.66-1.972-.66-4.59" clip-rule="evenodd"/></svg>