<svg xmlns="http://www.w3.org/2000/svg" width="24" height="24" fill="none"><path fill="#141B34" fill-rule="evenodd" d="M9.225 15.876a5.6 5.6 0 0 1-1.747-1.964q-.254.263-.57.45l-1.845 1.586-.007.006c-.549.47-.825.707-1.034.95a4.2 4.2 0 0 0-.767 1.291c-.108.291-.18.638-.323 1.33l-.003.015c-.127.614-.174 1.833-.174 2.458a.75.75 0 0 1-.75.75l-.001.002a.75.75 0 0 1-.75-.75c0-.018.002-1.78.206-2.762l.003-.017.005-.023c.155-.75.234-1.13.38-1.525a5.7 5.7 0 0 1 1.039-1.75c.283-.328.608-.607 1.198-1.113l.331-.284A2.76 2.76 0 0 1 2.754 12c0-.609.204-1.195.565-1.669a3.248 3.248 0 0 1 1.997-5.008c.439-2.364 3.168-4.073 6.688-4.073s6.249 1.709 6.688 4.073A3.256 3.256 0 0 1 21.254 8.5c0 .659-.201 1.296-.565 1.831.362.474.565 1.06.565 1.669 0 1.13-.686 2.103-1.663 2.526l.342.293c.605.52.909.78 1.189 1.104.45.52.8 1.11 1.039 1.751.149.403.235.815.389 1.563.202.977.205 2.744.205 2.762a.75.75 0 0 1-.75.75l-.001.001a.75.75 0 0 1-.75-.75c0-.626-.047-1.848-.173-2.458-.154-.746-.221-1.06-.327-1.346a4.2 4.2 0 0 0-.767-1.29c-.207-.24-.482-.477-1.031-.948L17.1 14.364a2.8 2.8 0 0 1-.57-.452 5.6 5.6 0 0 1-1.747 1.964l1.1 3.252c.396 1.172.558 2.093.064 2.782-.5.697-1.441.84-2.7.84H10.76c-1.258 0-2.2-.143-2.7-.84-.493-.69-.331-1.61.065-2.782zm1.36.66-1.04 3.073c-.4 1.188-.28 1.406-.265 1.427s.19.215 1.48.215h2.487c1.289 0 1.465-.193 1.48-.215.016-.021.136-.24-.265-1.427l-1.039-3.072a4.8 4.8 0 0 1-2.838 0M6.755 12c0 .26-.079.501-.215.701l-.498.428a1.252 1.252 0 0 1-1.26-2.148.753.753 0 0 0 .062-1.172A1.752 1.752 0 0 1 6.005 6.75a.75.75 0 0 0 .75-.75c0-1.822 2.306-3.25 5.25-3.25s5.25 1.428 5.25 3.25c0 .414.336.75.75.75a1.752 1.752 0 0 1 1.16 3.059.75.75 0 0 0 .063 1.172 1.252 1.252 0 0 1-1.266 2.145l-.489-.42a1.24 1.24 0 0 1-.22-.706v-1h.003c0-2.655-1.116-5.342-3.25-5.342-.676 0-1.092.412-1.396.713-.277.275-.401.379-.604.379s-.327-.104-.604-.379c-.304-.301-.72-.713-1.396-.713-2.134 0-3.25 2.687-3.25 5.342zm1.499-1c0 2.343 1.682 4.25 3.75 4.25s3.75-1.907 3.75-4.25c0-1.855-.703-3.842-1.75-3.842-.059 0-.219.159-.338.277l-.002.002c-.327.324-.821.813-1.66.813-.84 0-1.333-.489-1.66-.813l-.002-.002c-.12-.118-.28-.277-.338-.277-1.047 0-1.75 1.987-1.75 3.842" clip-rule="evenodd"/></svg>