<svg xmlns="http://www.w3.org/2000/svg" width="24" height="24" fill="none"><path fill="#141B34" fill-rule="evenodd" d="M13.954 4.622a2.252 2.252 0 0 0-1.95-3.372 2.252 2.252 0 0 0-1.95 3.372 6 6 0 0 0-2.052 1.344c-.841.828-1.89 1.284-2.95 1.284H4.004a.75.75 0 0 0 0 1.5h.289l-1.81 3.618c-.382.106-.703.31-.952.696-.53.827-.198 1.496.155 2.205.762 1.53 2.225 2.481 3.818 2.481h.001c1.593 0 3.056-.951 3.818-2.481.353-.708.686-1.378.154-2.206a1.58 1.58 0 0 0-.947-.694L6.604 8.517a6 6 0 0 0 2.45-1.483c.66-.649 1.418-1.051 2.2-1.207V21.25h-2.25a.75.75 0 0 0 0 1.5h6a.75.75 0 0 0 0-1.5h-2.25V5.827c.782.156 1.54.558 2.2 1.207a6 6 0 0 0 2.454 1.484l-1.924 3.85c-.383.106-.704.31-.953.696-.53.827-.198 1.496.155 2.205.762 1.53 2.225 2.481 3.818 2.481h.001c1.593 0 3.056-.951 3.818-2.481.353-.708.686-1.378.154-2.206a1.58 1.58 0 0 0-.947-.694L19.72 8.75h.284a.75.75 0 0 0 0-1.5h-1.048c-1.061 0-2.11-.456-2.95-1.284a6 6 0 0 0-2.052-1.344m-2.7-1.122a.75.75 0 1 1 1.5 0 .75.75 0 0 1-1.5 0M5.506 9.677l1.286 2.573H4.22zm11.713 2.573h2.573l-1.286-2.573zm-1.426 1.625c.076-.119.474-.125 1.17-.125h3.083c.696 0 1.094.006 1.17.124.035.054.04.077.04.077.007.084-.155.409-.273.648l-.002.002c-.507 1.017-1.455 1.649-2.476 1.649s-1.969-.632-2.476-1.649c-.119-.239-.282-.567-.274-.65 0 0 .004-.023.038-.076m-11.83-.125c-.696 0-1.094.006-1.17.125-.034.053-.038.076-.038.076-.008.083.155.411.274.65.507 1.017 1.455 1.649 2.476 1.649s1.97-.632 2.476-1.649l.001-.002c.12-.24.281-.564.273-.648 0 0-.004-.023-.039-.077-.076-.118-.474-.124-1.17-.124H3.964" clip-rule="evenodd"/></svg>