<svg xmlns="http://www.w3.org/2000/svg" width="24" height="24" fill="none"><path fill="#141B34" fill-rule="evenodd" d="M12.002 6.75c-1.019 0-2.042.605-2.88 1.705-.638.84-1.38 1.465-2.176 1.85l2.612 6.093c.394.135.725.393.966.884.454.93.157 1.589-.22 2.423-.847 1.878-2.496 3.044-4.301 3.044l-.001.001c-1.806 0-3.454-1.167-4.302-3.045-.377-.833-.674-1.492-.22-2.422.24-.49.57-.748.961-.884l2.421-5.648h-.86a.75.75 0 0 1 0-1.5H5.05c1.02 0 2.042-.605 2.879-1.704.589-.773 1.265-1.365 1.99-1.754A2.74 2.74 0 0 1 9.252 4a2.754 2.754 0 0 1 2.75-2.75A2.754 2.754 0 0 1 14.752 4c0 .684-.251 1.311-.667 1.793.725.389 1.4.98 1.99 1.754.837 1.099 1.86 1.704 2.879 1.704h1.048a.75.75 0 0 1 0 1.5v-.001h-.865l2.42 5.648c.395.135.726.393.967.884.454.93.157 1.589-.22 2.423-.847 1.878-2.496 3.044-4.301 3.044l-.001.001c-1.806 0-3.454-1.167-4.302-3.045-.377-.833-.674-1.492-.22-2.422.24-.49.57-.748.961-.884l2.614-6.097c-.795-.384-1.536-1.01-2.174-1.848-.837-1.099-1.86-1.704-2.879-1.704M10.752 4c0-.689.561-1.25 1.25-1.25s1.25.561 1.25 1.25-.561 1.25-1.25 1.25-1.25-.561-1.25-1.25m-4.751 7.903 1.863 4.346H4.138zm10.137 4.346h3.725l-1.862-4.346zm-1.31 1.694c.074-.152.094-.193 1.113-.193h4.123c1.019 0 1.039.041 1.113.192.128.262.123.343-.24 1.146-.601 1.334-1.725 2.162-2.934 2.162s-2.333-.828-2.935-2.162c-.363-.802-.368-.883-.24-1.145M3.94 17.75c-1.02 0-1.04.041-1.113.193-.128.262-.123.343.24 1.145.602 1.334 1.726 2.162 2.935 2.162s2.333-.828 2.934-2.162c.363-.803.368-.884.24-1.146-.074-.151-.094-.192-1.113-.192z" clip-rule="evenodd"/></svg>