<svg xmlns="http://www.w3.org/2000/svg" width="25" height="24" fill="none"><path fill="#141B34" fill-rule="evenodd" d="M15.418 9v1.004a8.7 8.7 0 0 0-2.5-1.311V8a2.754 2.754 0 0 0-2.75-2.75A2.754 2.754 0 0 0 7.418 8v.693a8.7 8.7 0 0 0-2.5 1.311V9a5.256 5.256 0 0 1 5.25-5.25A5.256 5.256 0 0 1 15.418 9m-12 0v2.438a8.7 8.7 0 0 0-2 5.562c0 .986 0 2.103.364 3.011.319.793 1.061 1.739 2.786 1.739h11.2c1.726 0 2.468-.945 2.786-1.739.286-.714.347-1.558.36-2.364A2.756 2.756 0 0 0 20.918 15v-2c0-.689.561-1.25 1.25-1.25a.75.75 0 0 0 0-1.5 2.754 2.754 0 0 0-2.75 2.75v2c0 .431-.22.812-.553 1.037a8.7 8.7 0 0 0-1.947-4.6V9a6.76 6.76 0 0 0-6.75-6.75A6.76 6.76 0 0 0 3.418 9m-.488 8.75h9.238a.75.75 0 0 0 0-1.5H2.956c.377-3.647 3.467-6.5 7.212-6.5 3.998 0 7.25 3.252 7.25 7.25 0 2.438-.238 3.25-1.65 3.25h-11.2c-1.117 0-1.562-.383-1.638-2.5M11.418 8v.339a8.8 8.8 0 0 0-2.5 0V8c0-.689.561-1.25 1.25-1.25s1.25.561 1.25 1.25" clip-rule="evenodd"/></svg>