<svg xmlns="http://www.w3.org/2000/svg" width="24" height="24" fill="none"><path fill="#141B34" fill-rule="evenodd" d="M10.79 4.522C10.436 4.22 9.865 3.95 9 3.95a.75.75 0 0 1 0-1.5c1.036 0 1.952.289 2.65.834q.033.024.065.052h.001c.518-.963 1.513-1.913 3.21-2.083a.75.75 0 1 1 .149 1.493c-1.411.141-1.97 1.03-2.188 1.648 1.035.344 1.993 1.3 3.471 2.774l.021.02 1.927 1.932c1.898 1.892 2.943 2.935 2.943 4.38s-1.045 2.488-2.943 4.38l-1.947 1.952c-1.886 1.88-2.926 2.918-4.359 2.918h-.001c-1.434 0-2.473-1.036-4.359-2.918L5.692 17.88C3.795 15.99 2.75 14.947 2.75 13.5s1.045-2.488 2.942-4.38l.001-.001L7.64 7.169l.005-.005c1.322-1.318 2.228-2.221 3.146-2.642M12 5.75c-.782 0-1.531.716-3.3 2.48l-.021.02-.433.434L12 12.44l3.753-3.754-.453-.454c-1.769-1.764-2.518-2.48-3.3-2.48M10.938 13.5 7.185 9.747l-.432.434c-1.737 1.732-2.504 2.53-2.504 3.32s.767 1.588 2.503 3.319l.432.433zm1.06 1.06-3.754 3.755.455.456c1.769 1.764 2.518 2.48 3.3 2.48s1.531-.716 3.3-2.48l.021-.021.433-.435zm5.247 2.26-.432.433L13.06 13.5l3.752-3.753.433.434h.001c1.736 1.732 2.503 2.53 2.503 3.32s-.767 1.588-2.504 3.32" clip-rule="evenodd"/></svg>