<svg xmlns="http://www.w3.org/2000/svg" width="25" height="24" fill="none"><path fill="#141B34" fill-rule="evenodd" d="M5.451 3a.75.75 0 1 0-1.5 0v18a.75.75 0 0 0 1.5 0v-8.25h3.25a.75.75 0 0 0 0-1.5h-3.25zm9.4 6.762c.458-.415.751-.678.991-.846.225-.157.315-.166.36-.166.043 0 .133.009.358.166.24.168.533.43.992.846l1.644 1.485c.35.318.553.503.677.653a1 1 0 0 1 .073.1 1 1 0 0 1-.073.1c-.124.15-.326.335-.677.653l-1.644 1.486c-.459.414-.752.677-.992.845-.225.157-.315.166-.359.166s-.134-.009-.359-.166c-.24-.168-.533-.43-.992-.845l-1.643-1.486c-.352-.318-.554-.503-.678-.653a1 1 0 0 1-.072-.1 1 1 0 0 1 .072-.1c.124-.15.326-.335.678-.653zm5.104 2.259-.003-.008zm-.003-.034.003-.008zm-7.505-.008.003.008zm.003.034q-.001.008-.002.008zm3.751-4.763c-.476 0-.869.192-1.218.437-.326.228-.69.556-1.105.932l-.034.03-1.643 1.486-.035.03c-.304.276-.59.534-.791.777-.227.273-.424.614-.424 1.058s.197.785.424 1.058c.202.243.487.501.791.776l.035.031 1.677 1.516c.416.376.779.704 1.105.932.35.245.742.437 1.218.437.477 0 .869-.192 1.219-.437.326-.228.689-.556 1.104-.932l1.678-1.516.034-.03c.304-.276.59-.534.792-.777.226-.273.423-.614.423-1.058s-.197-.785-.423-1.058c-.202-.243-.488-.501-.792-.776l-.034-.031-1.678-1.516c-.415-.376-.778-.704-1.104-.932-.35-.245-.742-.437-1.219-.437" clip-rule="evenodd"/></svg>