<svg xmlns="http://www.w3.org/2000/svg" width="25" height="24" fill="none"><path fill="#141B34" fill-rule="evenodd" d="M13.451 2a.75.75 0 0 0-1.5 0v3a.75.75 0 0 0 1.5 0zm-.773 6.796c-.125.106-.282.28-.562.594l-1.3 1.46c-.365.41-.59.666-.733.874-.132.191-.132.257-.132.276 0 .018 0 .085.132.276.143.208.368.464.733.873l1.3 1.461c.28.315.437.488.562.594l.023.019.024-.02c.125-.105.282-.278.561-.593l1.3-1.46c.365-.41.59-.666.734-.874.131-.191.131-.257.131-.276 0-.018 0-.085-.131-.276-.143-.208-.37-.464-.734-.873l-1.3-1.461c-.28-.315-.436-.488-.561-.594l-.024-.019zM11.71 7.65c.247-.208.568-.399.99-.399s.743.191.99.4c.218.183.448.441.686.71l.03.033 1.3 1.46.029.033c.327.367.617.693.82.988.218.318.395.682.395 1.126s-.177.808-.396 1.126c-.202.295-.492.62-.82.988l-1.328 1.493-.03.034c-.238.268-.468.526-.686.71-.247.208-.567.399-.99.399-.422 0-.743-.191-.99-.4-.218-.183-.447-.441-.686-.71l-.03-.033-1.328-1.493c-.327-.367-.617-.693-.82-.988-.22-.318-.396-.682-.396-1.126s.177-.808.396-1.126c.203-.295.493-.62.82-.988l.028-.032 1.3-1.461.03-.034c.239-.268.468-.526.686-.71m.99 10.601a.75.75 0 0 1 .75.75v3a.75.75 0 0 1-1.5 0v-3a.75.75 0 0 1 .75-.75" clip-rule="evenodd"/></svg>