<svg xmlns="http://www.w3.org/2000/svg" width="25" height="24" fill="none"><path fill="#141B34" fill-rule="evenodd" d="M11.949 5.505c.317-.35.502-.553.652-.677a1 1 0 0 1 .1-.072c.019.01.051.031.1.072.15.124.335.326.653.677L14.94 7.15c.415.46.678.752.845.992.157.225.166.315.166.359s-.009.134-.166.359c-.167.24-.43.533-.845.992l-1.486 1.643c-.318.352-.503.554-.653.678a1 1 0 0 1-.1.072 1 1 0 0 1-.1-.072c-.15-.124-.335-.326-.653-.678l-1.485-1.643c-.415-.46-.678-.752-.846-.992-.157-.225-.166-.315-.166-.359s.009-.134.166-.359c.168-.24.43-.533.846-.992zm.773-.759-.008.003zm-.034.003-.008-.003zm-.008 7.505.008-.003zm.034-.003.008.003zm-.013-9.001c-.444 0-.785.197-1.058.423-.243.202-.501.488-.776.792l-.031.035L9.35 6.143l-.03.034c-.376.416-.704.778-.932 1.105-.245.35-.437.741-.437 1.218s.192.869.437 1.218c.228.327.556.69.932 1.105l1.516 1.677.03.035c.276.304.534.59.777.792.273.226.614.423 1.058.423s.785-.197 1.058-.423c.244-.203.501-.488.776-.792l.032-.035 1.515-1.677c.377-.415.704-.778.933-1.105.244-.35.436-.741.436-1.218s-.192-.869-.436-1.218c-.229-.327-.556-.69-.933-1.105L14.567 4.5l-.032-.035c-.275-.304-.532-.59-.776-.792-.273-.226-.614-.423-1.058-.423m.75 12.75a.75.75 0 0 0-1.5 0v3.25h-8.25a.75.75 0 0 0 0 1.5h18a.75.75 0 0 0 0-1.5h-8.25z" clip-rule="evenodd"/></svg>