<svg xmlns="http://www.w3.org/2000/svg" width="25" height="24" fill="none"><path fill="#141B34" fill-rule="evenodd" d="M15.833 5.132c.533-.553.88-.911 1.17-1.141.275-.217.403-.241.485-.241.103 0 .4.093.884.43.446.311.942.75 1.41 1.241.467.49.887 1.01 1.19 1.47.152.23.267.436.343.606.081.18.1.278.101.307.008.13-.014.254-.127.463-.13.24-.338.524-.683.986-1.193 1.604-3.115 3.973-5.887 6.983-.516.56-.85.921-1.133 1.153-.263.217-.39.243-.479.244-.213.002-.497-.132-.892-.51a9 9 0 0 1-.554-.597l-.097-.113c-.15-.174-.31-.36-.461-.516-.546-.567-1.209-1.113-2.008-1.05-.806.065-1.377.718-1.837 1.416l-2.29 3.476c-.403.611-1.217.682-1.71.17a1.253 1.253 0 0 1 0-1.717zm1.655-2.882c-.56 0-1.012.245-1.416.565-.379.3-.797.734-1.284 1.24L2.178 17.151a2.753 2.753 0 0 0 0 3.798 2.585 2.585 0 0 0 4.043-.385l2.29-3.476c.458-.696.676-.743.704-.745.035-.003.252.018.807.594.12.125.246.27.395.443l.111.129c.19.22.41.467.649.696.453.435 1.113.938 1.947.928.565-.007 1.014-.256 1.415-.585.372-.306.777-.746 1.248-1.257l.035-.038c2.802-3.043 4.759-5.453 5.988-7.104l.027-.038c.308-.413.585-.785.772-1.132.21-.388.334-.79.305-1.267a2.4 2.4 0 0 0-.23-.83 6 6 0 0 0-.458-.815 12.4 12.4 0 0 0-1.359-1.681A11.2 11.2 0 0 0 19.23 2.95c-.512-.357-1.141-.7-1.742-.7m1.067 4.866a1 1 0 1 0 0 2h.009a1 1 0 1 0 0-2z" clip-rule="evenodd"/></svg>