<svg xmlns="http://www.w3.org/2000/svg" width="25" height="24" fill="none"><path fill="#141B34" fill-rule="evenodd" d="m16.152 10.57.186.184.003.003q.267.264.502.5l1.214-1.24A.75.75 0 0 1 18.7 9.8a1.91 1.91 0 0 0 1.655-.565c.49-.502.662-1.246.504-1.92-.634.568-1.451.866-2.301.848l-2.359 2.364zm1.697 1.803 1.033-1.054a3.47 3.47 0 0 0 2.544-1.033c1.175-1.2 1.315-3.11.38-4.492q.112-.407.112-.84c0-.86-.345-1.67-.972-2.276-1.278-1.237-3.356-1.237-4.633 0l-4.342 4.204a2.2 2.2 0 0 0-.76-.135c-1.077 0-1.813.728-3.152 2.051l-.004.005-4.825 4.776c-.588.581-.912.901-1.113 1.379-.199.477-.199.93-.199 1.755v1.105c0 1.878 0 2.913.767 3.673.764.756 1.807.756 3.7.756h6.473c1.906 0 2.957 0 3.724-.752.776-.758.776-1.793.776-3.67v-1.838c.691-.75 1.06-1.337 1.06-2.098 0-.554-.195-1.016-.569-1.516M13.25 7.73l4.107-3.976a1.844 1.844 0 0 1 2.546 0c.332.322.515.747.515 1.199s-.183.878-.514 1.199c-.405.39-.962.57-1.531.492a.75.75 0 0 0-.633.213l-2.603 2.609-.047.051-.726-.718c-.42-.417-.782-.774-1.114-1.069M9.112 9.867c1.135-1.123 1.655-1.62 2.098-1.62l-.001-.001c.443 0 .963.497 2.101 1.622l1.972 1.95c1.055 1.045 1.636 1.639 1.636 2.07s-.501.946-1.635 2.068l-1.991 1.97a.75.75 0 1 0 1.055 1.067l1.511-1.495v.326c0 1.58-.013 2.293-.325 2.598-.33.324-1.163.324-2.675.324H6.386c-1.496 0-2.32 0-2.645-.322-.309-.306-.322-1.02-.322-2.607v-1.105c0-.678.003-.985.082-1.175.081-.192.299-.412.784-.892z" clip-rule="evenodd"/></svg>