<svg xmlns="http://www.w3.org/2000/svg" width="24" height="24" fill="none"><path fill="#141B34" fill-rule="evenodd" d="M16.453 5.093C15.804 4.77 15.038 4.75 13 4.75h-3c-1.907 0-3.261.002-4.29.14-1.005.135-1.585.389-2.008.812s-.677 1.003-.812 2.009c-.138 1.028-.14 2.382-.14 4.29 0 1.906.002 3.26.14 4.288.135 1.006.389 1.586.812 2.01.423.422 1.003.676 2.009.811 1.028.139 2.382.14 4.289.14h3c2.038 0 2.804-.018 3.453-.343.65-.325 1.124-.926 2.347-2.557.877-1.17 1.496-1.996 1.902-2.694.396-.68.548-1.17.548-1.656s-.152-.975-.548-1.656c-.406-.698-1.025-1.524-1.902-2.694-1.223-1.63-1.698-2.232-2.347-2.557M13.19 3.25c1.78 0 2.93-.001 3.935.502 1.005.502 1.696 1.423 2.763 2.847L20 6.75l.028.038c.843 1.123 1.515 2.02 1.97 2.801.47.809.752 1.563.752 2.411s-.281 1.603-.752 2.41c-.455.783-1.127 1.679-1.97 2.803L20 17.25l-.113.151c-1.067 1.424-1.758 2.345-2.763 2.848s-2.156.502-3.935.501H9.944c-1.838 0-3.294 0-4.433-.153-1.172-.158-2.121-.49-2.87-1.238-.748-.749-1.08-1.698-1.238-2.87-.153-1.14-.153-2.595-.153-4.433v-.112c0-1.838 0-3.294.153-4.433.158-1.172.49-2.121 1.238-2.87.749-.748 1.698-1.08 2.87-1.238 1.14-.153 2.595-.153 4.433-.153h3.245" clip-rule="evenodd"/></svg>