<svg xmlns="http://www.w3.org/2000/svg" width="24" height="24" fill="none"><path fill="#141B34" fill-rule="evenodd" d="M22.716 1.775a.75.75 0 0 1-.491.94c-1.394.438-2.774 1.778-3.856 3.135a21 21 0 0 0-1.686 2.466l-.021.037-.005.009v.001a.75.75 0 0 1-1.37-.13l-.003-.01-.017-.047a3.858 3.858 0 0 0-.386-.762c-.298-.45-.603-.664-.881-.664a.75.75 0 0 1 0-1.5c1.005 0 1.679.69 2.06 1.23.298-.45.683-.997 1.136-1.565 1.107-1.388 2.727-3.049 4.58-3.63a.75.75 0 0 1 .94.49M7.947 2.25H11.5a.75.75 0 0 1 0 1.5H8c-.964 0-1.612.002-2.095.067-.461.062-.659.169-.789.3s-.237.327-.3.788C4.753 5.388 4.75 6.036 4.75 7v7.25h14.5V10a.75.75 0 0 1 1.5 0v4.899l.412.759c.726 1.34 1.215 2.406 1.44 3.29.233.91.205 1.701-.189 2.418-.44.8-1.228 1.112-2.111 1.25-.854.134-1.992.134-3.389.134H7.087c-1.397 0-2.535 0-3.389-.134-.883-.138-1.67-.45-2.111-1.25-.395-.716-.422-1.508-.19-2.417.226-.884.713-1.948 1.437-3.284l.416-.809V6.948c0-.898 0-1.648.08-2.242.084-.628.27-1.195.725-1.65.456-.456 1.023-.642 1.65-.726.595-.08 1.345-.08 2.243-.08M4.165 16.358l.312-.608h15.028l.338.623c.716 1.322 1.129 2.252 1.306 2.947.171.67.104 1.042-.05 1.322-.108.196-.322.382-1.03.492-.723.114-1.743.116-3.224.116h-9.69c-1.481 0-2.501-.002-3.225-.116-.708-.11-.922-.296-1.03-.492-.153-.28-.22-.651-.05-1.322.178-.695.59-1.625 1.307-2.947z" clip-rule="evenodd"/></svg>