<svg xmlns="http://www.w3.org/2000/svg" width="25" height="24" fill="none"><path fill="#141B34" fill-rule="evenodd" d="M22.586 11.943v.114c0 2.19 0 3.912-.18 5.255-.186 1.377-.573 2.469-1.431 3.327s-1.95 1.245-3.327 1.43c-1.343.181-3.064.181-5.255.181h-.114c-2.191 0-3.912 0-5.255-.18-1.377-.186-2.469-.573-3.327-1.43-.858-.86-1.245-1.951-1.43-3.328-.181-1.343-.181-3.064-.181-5.255v-.114c0-2.19 0-3.912.18-5.255.186-1.377.573-2.469 1.43-3.327.859-.858 1.951-1.245 3.328-1.43 1.343-.181 3.064-.181 5.255-.181h.114c2.19 0 3.912 0 5.255.18 1.377.186 2.469.573 3.327 1.43.858.86 1.245 1.951 1.43 3.328.181 1.343.181 3.064.18 5.255m-1.667-5.055c-.163-1.21-.472-1.933-1.005-2.466s-1.256-.842-2.466-1.005c-1.232-.165-2.852-.167-5.112-.167s-3.88.002-5.112.167c-1.21.163-1.933.472-2.466 1.005s-.842 1.256-1.005 2.466a14 14 0 0 0-.086.862h17.338q-.032-.46-.086-.862M3.586 12c0-1.045 0-1.954.017-2.75h17.466c.017.796.017 1.705.017 2.75s0 1.954-.017 2.75H3.603c-.017-.796-.017-1.705-.017-2.75m.08 4.25q.034.461.087.862c.163 1.21.471 1.933 1.005 2.466s1.256.842 2.466 1.005c1.232.165 2.852.167 5.112.167s3.88-.002 5.112-.167c1.21-.163 1.933-.471 2.466-1.005s.842-1.256 1.005-2.466q.053-.401.086-.862z" clip-rule="evenodd"/></svg>