<svg xmlns="http://www.w3.org/2000/svg" width="25" height="24" fill="none"><path fill="#141B34" fill-rule="evenodd" d="M22.405 17.312c.181-1.343.181-3.064.18-5.255v-.114c.001-2.19.001-3.912-.18-5.255-.185-1.377-.572-2.469-1.43-3.327s-1.95-1.245-3.327-1.43c-1.343-.181-3.064-.181-5.255-.181h-.114c-2.19 0-3.912 0-5.255.18-1.377.186-2.469.573-3.327 1.43-.858.86-1.245 1.951-1.43 3.328-.181 1.343-.181 3.064-.181 5.255v.114c0 2.19 0 3.912.18 5.255.186 1.377.573 2.469 1.43 3.327.859.858 1.951 1.245 3.328 1.43 1.343.181 3.064.181 5.255.181h.114c2.19 0 3.912 0 5.255-.18 1.377-.186 2.469-.573 3.327-1.43.858-.86 1.245-1.951 1.43-3.328m-2.49-12.89c.532.533.841 1.256 1.004 2.466.165 1.232.167 2.852.167 5.112 0 .833 0 1.579-.009 2.25H3.595c-.009-.671-.01-1.417-.01-2.25 0-2.26.003-3.88.168-5.112.163-1.21.471-1.933 1.005-2.466s1.256-.842 2.466-1.005c1.232-.165 2.852-.167 5.112-.167s3.88.002 5.112.167c1.21.163 1.933.472 2.466 1.005M3.636 15.75c.024.503.061.954.116 1.362.163 1.21.471 1.933 1.005 2.466s1.256.842 2.466 1.005c1.232.165 2.852.167 5.112.167s3.88-.002 5.112-.167c1.21-.163 1.933-.471 2.466-1.005s.842-1.256 1.005-2.466q.08-.61.116-1.362z" clip-rule="evenodd"/></svg>