<svg xmlns="http://www.w3.org/2000/svg" width="25" height="24" fill="none"><path fill="#141B34" fill-rule="evenodd" d="M7.024 22.07c1.343.18 3.064.18 5.255.18h.114c2.19 0 3.912 0 5.255-.18 1.377-.186 2.469-.573 3.327-1.43.858-.86 1.245-1.951 1.43-3.328.181-1.343.181-3.064.18-5.255v-.114c0-2.19.001-3.912-.18-5.255-.185-1.377-.572-2.469-1.43-3.327s-1.95-1.245-3.327-1.43c-1.343-.181-3.064-.181-5.255-.181h-.114c-2.191 0-3.912 0-5.255.18-1.377.186-2.469.573-3.327 1.43-.858.86-1.245 1.951-1.43 3.328-.181 1.343-.181 3.064-.181 5.255v.114c0 2.19 0 3.912.18 5.255.186 1.377.573 2.469 1.43 3.327.859.858 1.951 1.245 3.328 1.43m12.89-2.492c-.533.534-1.256.842-2.466 1.005-1.232.165-2.852.167-5.112.167-.833 0-1.579 0-2.25-.009V16.75h10.876a12 12 0 0 1-.043.362c-.163 1.21-.472 1.933-1.005 2.466m1.142-4.328h-10.97v-6.5h10.97c.03.91.03 1.98.03 3.25s0 2.34-.03 3.25m-.094-8H10.086V3.259c.671-.009 1.417-.009 2.25-.009 2.26 0 3.88.002 5.112.167 1.21.163 1.933.472 2.466 1.005s.842 1.256 1.005 2.466q.023.176.043.362M8.586 3.3c-.503.025-.954.062-1.362.117-1.21.163-1.933.472-2.466 1.005s-.842 1.256-1.005 2.466q-.024.176-.043.362h4.876zm-5 8.7c0-1.27 0-2.34.03-3.25h4.97v6.5h-4.97c-.03-.91-.03-1.98-.03-3.25m.124 4.75q.02.186.043.362c.163 1.21.471 1.933 1.005 2.466s1.256.842 2.466 1.005q.61.081 1.362.116V16.75z" clip-rule="evenodd"/></svg>