<svg xmlns="http://www.w3.org/2000/svg" width="25" height="24" fill="none"><path fill="#141B34" fill-rule="evenodd" d="M12.393 1.75h-.114c-2.19 0-3.912 0-5.255.18-1.377.186-2.469.573-3.327 1.43-.858.86-1.245 1.951-1.43 3.328-.181 1.343-.181 3.064-.181 5.255v.114c0 2.19 0 3.912.18 5.255.186 1.377.573 2.469 1.43 3.327.859.858 1.951 1.245 3.328 1.43 1.343.181 3.064.181 5.255.181h.114c2.19 0 3.912 0 5.255-.18 1.377-.186 2.469-.573 3.327-1.43.858-.86 1.245-1.951 1.43-3.328.181-1.343.181-3.064.18-5.255v-.114c.001-2.19.001-3.912-.18-5.255-.185-1.377-.572-2.469-1.43-3.327s-1.95-1.245-3.327-1.43c-1.343-.181-3.064-.181-5.255-.181m8.693 9.5c-.003-1.875-.02-3.27-.167-4.362-.163-1.21-.472-1.933-1.005-2.466s-1.256-.842-2.466-1.005c-1.232-.165-2.852-.167-5.112-.167s-3.88.002-5.112.167c-1.21.163-1.933.472-2.466 1.005s-.842 1.256-1.005 2.466c-.147 1.091-.165 2.487-.167 4.362zm-17.5 1.5h17.5c-.003 1.875-.02 3.27-.167 4.362-.163 1.21-.472 1.933-1.005 2.466s-1.256.842-2.466 1.005c-1.232.165-2.852.167-5.112.167s-3.88-.002-5.112-.167c-1.21-.163-1.933-.471-2.466-1.005s-.842-1.256-1.005-2.466c-.147-1.091-.165-2.487-.167-4.362" clip-rule="evenodd"/></svg>