<svg xmlns="http://www.w3.org/2000/svg" width="24" height="24" fill="none"><path fill="#141B34" fill-rule="evenodd" d="M14.388 2.476a.75.75 0 0 1-.013 1.06l-1.841 1.798c.443.13.86.366 1.211.708l2.778 2.71a.75.75 0 0 1-1.048 1.074l-2.777-2.71a1.436 1.436 0 0 0-1.967-.023l-5.578 5.444a1.31 1.31 0 0 0 0 1.891l-.506.519.506-.519 5.555 5.421a1.436 1.436 0 0 0 1.99 0l2.778-2.71a.75.75 0 1 1 1.047 1.073l-2.777 2.71a2.936 2.936 0 0 1-4.086 0l-5.555-5.42a2.81 2.81 0 0 1 0-4.039l1.686-1.645.017-.017L9.66 6.042l.034-.033 3.634-3.546a.75.75 0 0 1 1.06.013M11 12.25a.75.75 0 0 0 0 1.5h9a.75.75 0 0 0 0-1.5z" clip-rule="evenodd"/></svg>