<svg xmlns="http://www.w3.org/2000/svg" width="24" height="24" fill="none"><path fill="#141B34" fill-rule="evenodd" d="M11 19.25a.75.75 0 0 0-.75.75v2a.75.75 0 0 0 1.5 0v-2a.75.75 0 0 0-.75-.75" clip-rule="evenodd"/><path fill="#141B34" fill-rule="evenodd" d="M16.121 5.062c.96-.953 1.621-1.607 2.137-1.991.254-.19.422-.273.529-.305.08-.023.103-.013.115-.007l.003.001c.01.004.16.062.252.739.09.657.092 1.61.092 2.987v1.516a.75.75 0 0 0 1.5 0V6.424c0-1.3 0-2.357-.105-3.13-.103-.75-.346-1.556-1.131-1.905-.8-.355-1.551.032-2.15.478-.613.456-1.35 1.189-2.253 2.085l-10.968 10.9c-.956.95-1.732 1.72-2.22 2.362-.477.629-.878 1.387-.56 2.208.322.835 1.139 1.103 1.91 1.215.783.115 1.859.115 3.179.114h1.548a.75.75 0 1 0 0-1.5H6.517c-1.402 0-2.367-.001-3.029-.098-.667-.097-.72-.248-.727-.27v-.002c-.012-.03-.075-.192.356-.76.417-.548 1.116-1.245 2.127-2.25zM22 10.252h-.044c-.433 0-.83 0-1.153.043-.355.048-.731.16-1.04.47-.31.308-.422.684-.47 1.04-.043.322-.043.719-.043 1.152v1.295h-.302c-.898 0-1.647 0-2.242.08-.628.084-1.195.27-1.65.725-.456.455-.641 1.022-.726 1.65-.08.595-.08 1.344-.08 2.243v.302H11a.75.75 0 0 0 0 1.5h6.444c.572 0 1.077 0 1.484-.057.443-.062.879-.204 1.231-.57.348-.361.48-.802.537-1.249.054-.417.054-.937.054-1.534v-4.34c0-.493.002-.787.03-.998a.7.7 0 0 1 .038-.166l.002-.007.002-.004.002-.002.002-.002h.002l.008-.004a.7.7 0 0 1 .167-.038c.21-.028.505-.03.997-.03a.75.75 0 1 0 0-1.5m-6.25 9h1.645c.636 0 1.035-.002 1.326-.043.266-.037.328-.093.357-.124.034-.035.093-.111.13-.402.04-.309.042-.73.042-1.388v-1.543H19c-.964 0-1.611.001-2.094.066-.462.062-.66.17-.79.3s-.237.328-.3.789c-.064.483-.066 1.13-.066 2.095z" clip-rule="evenodd"/></svg>