<svg xmlns="http://www.w3.org/2000/svg" width="24" height="24" fill="none"><path fill="#141B34" fill-rule="evenodd" d="M12.521 15.562a.75.75 0 0 0 .53.22l.001-.002a.75.75 0 0 0 .531-.22l4.333-4.343.008-.008.008-.009.603-.604a.75.75 0 1 0-1.062-1.06l-.016.016c-.69-.88-1.963-2.444-3.255-3.738-1.293-1.296-2.856-2.574-3.733-3.266l.018-.018a.75.75 0 1 0-1.062-1.06l-.605.606-.014.014-4.333 4.343a.75.75 0 1 0 1.062 1.06l.015-.015c.451.575 1.15 1.44 1.94 2.332l-5.36 4.575a2.5 2.5 0 0 0-.874 1.802 2.51 2.51 0 0 0 .728 1.868 2.5 2.5 0 0 0 1.766.732q.048 0 .095-.002h.005a2.5 2.5 0 0 0 1.802-.877l4.563-5.368c.89.792 1.752 1.491 2.324 1.942l-.019.02a.75.75 0 0 0 .001 1.06M9.113 11.52a26 26 0 0 1-.605-.606l-5.403 4.612a1 1 0 0 0-.35.722 1 1 0 0 0 .292.75.98.98 0 0 0 .743.29.99.99 0 0 0 .719-.35zm.754-1.362c-1.298-1.3-2.613-2.933-3.25-3.749h.001l2.783-2.79c.816.64 2.443 1.956 3.74 3.255 1.296 1.3 2.611 2.933 3.248 3.75l-2.783 2.788c-.815-.639-2.44-1.954-3.739-3.254m12.136 6.626a.75.75 0 0 1-.359-.092l-2-1.094a.75.75 0 0 1 .72-1.316l2 1.094a.75.75 0 0 1-.36 1.408m-1.999-4.373a.75.75 0 0 1-.476-1.33l2-1.64a.75.75 0 0 1 .952 1.16l-2 1.64a.75.75 0 0 1-.475.17m-7.788 10.338h8.788a.75.75 0 0 0 0-1.5h-.727l-.077-.168-.014-.031c-.483-1.064-1.214-2.672-3.25-2.783a17 17 0 0 0-1.831 0c-2.038.11-2.767 1.72-3.25 2.784l-.001.005-.088.193h-.76a.75.75 0 0 0 0 1.5zm6.408-1.5H13.42c.428-.875.856-1.434 1.768-1.484a15 15 0 0 1 1.667 0c.912.049 1.34.609 1.769 1.484" clip-rule="evenodd"/></svg>