<svg xmlns="http://www.w3.org/2000/svg" width="24" height="24" fill="none"><path fill="#141B34" fill-rule="evenodd" d="M5.358 5.466c.87-.293 1.72-.788 2.508-1.247.276-.161.545-.318.805-.46C9.722 3.186 10.763 2.75 12 2.75s2.28.435 3.332 1.01c.26.142.528.298.805.459.788.459 1.638.954 2.509 1.247.455.153.759.256.975.345.129.053.189.088.211.101a1 1 0 0 1 .039.114c.037.138.07.328.125.65 1.086 6.355-1.293 12.041-6.748 14.246-.63.255-.825.328-1.245.328s-.615-.073-1.245-.328c-5.456-2.205-7.837-7.89-6.751-14.246.055-.322.088-.512.126-.65a1 1 0 0 1 .038-.114 2 2 0 0 1 .211-.101c.216-.09.52-.192.975-.345m6.643-4.216c-1.612 0-2.92.575-4.05 1.193-.345.19-.664.375-.968.552-.739.43-1.388.808-2.104 1.05l-.025.008c-.423.142-.776.26-1.044.372-.254.105-.56.25-.774.503-.19.223-.287.471-.35.707-.059.215-.103.477-.152.76l-.005.029C1.361 13.26 3.906 19.77 10.197 22.313l.034.014c.614.248 1.047.423 1.773.423s1.16-.175 1.773-.423l.034-.014c6.29-2.543 8.833-9.052 7.665-15.89l-.005-.029a9 9 0 0 0-.152-.76 1.8 1.8 0 0 0-.35-.706c-.215-.253-.52-.398-.774-.503a18 18 0 0 0-1.044-.372l-.026-.009c-.715-.24-1.365-.62-2.105-1.05a41 41 0 0 0-.968-.55c-1.131-.619-2.44-1.194-4.051-1.194m-1.288 8.528.956-.956q.134.109.29.24c.472.393 1.064.908 1.568 1.413.505.504 1.02 1.096 1.414 1.568l.239.29-.956.956-.29-.24a25 25 0 0 1-1.568-1.413 25 25 0 0 1-1.414-1.568zm6.32 2.824-.317.316-.001.001-1.905 1.905-.317.317a.75.75 0 0 1-1.256-.721 33 33 0 0 1-1.39-1.204L9.031 16.03a.75.75 0 0 1-1.06-1.06l2.814-2.815a30 30 0 0 1-1.204-1.39.75.75 0 0 1-.721-1.256l.317-.317 1.905-1.905.317-.317a.75.75 0 0 1 1.256.721l.264.218c.487.407 1.117.955 1.668 1.505a26 26 0 0 1 1.723 1.932.75.75 0 0 1 .721 1.256" clip-rule="evenodd"/></svg>