<svg xmlns="http://www.w3.org/2000/svg" width="24" height="24" fill="none"><path fill="#141B34" fill-rule="evenodd" d="M21.004 14.75h-8a.75.75 0 0 1 0-1.5h.128c-.09-.647-.207-1.59-.287-2.616l-8.396.603a3 3 0 0 1-.227.008v.001c-.791 0-1.55-.29-2.11-.812A2.63 2.63 0 0 1 1.254 8.5c0-.731.307-1.424.863-1.943a3.1 3.1 0 0 1 2.33-.805l8.398.612c.08-1.026.197-1.968.287-2.614h-.128a.75.75 0 0 1 0-1.5h8a.75.75 0 0 1 0 1.5h-.128c.15 1.084.378 2.999.378 4.75s-.227 3.666-.378 4.75h.128a.75.75 0 0 1 0 1.5m-8.25-6.25q0 .316.01.636l-8.42.605a1.6 1.6 0 0 1-1.21-.405 1.14 1.14 0 0 1-.38-.837c0-.313.137-.614.386-.846.31-.289.749-.437 1.2-.405l8.423.614q-.01.321-.01.638m1.894 4.75h4.712c.142-.99.394-2.988.394-4.75s-.252-3.76-.394-4.75h-4.712c-.142.99-.394 2.988-.394 4.75s.252 3.76.394 4.75m6.15 8.5h1.204a.75.75 0 0 0 0-1.5h-.727l-.022-.05-.068-.148c-.483-1.066-1.213-2.677-3.253-2.78a18 18 0 0 0-1.826 0c-2.041.104-2.77 1.715-3.252 2.781l-.09.197h-.76a.75.75 0 0 0 0 1.5h8.794m-1.176-1.5h-5.205c.427-.875.855-1.434 1.766-1.48a16 16 0 0 1 1.672 0c.91.046 1.339.605 1.767 1.48" clip-rule="evenodd"/></svg>