<svg xmlns="http://www.w3.org/2000/svg" width="24" height="24" fill="none"><path fill="#141B34" fill-rule="evenodd" d="M13.004 22.75h-2c-3.973 0-5.968 0-7.358-1.392-1.392-1.39-1.392-3.385-1.392-7.358v-4c0-3.973 0-5.968 1.392-7.359C5.036 1.25 7.03 1.25 11.004 1.25h2c3.973 0 5.968 0 7.359 1.392 1.39 1.39 1.39 3.385 1.39 7.358v4c0 3.973 0 5.968-1.391 7.359-1.39 1.391-3.385 1.391-7.358 1.391m-2-20c-3.56 0-5.346 0-6.297.952-.953.952-.953 2.738-.953 6.298v4c0 3.56 0 5.346.952 6.297.952.953 2.738.953 6.298.953h2c3.559 0 5.346 0 6.297-.952.953-.952.953-2.738.953-6.298v-4c0-3.56 0-5.346-.952-6.297-.952-.953-2.738-.953-6.298-.953zm5 16h-8a.75.75 0 0 1 0-1.5h8a.75.75 0 0 1 0 1.5m-4.518-4.017h1.06a.75.75 0 0 0 .224-1.467v-5.54h2.405c-.793.841-1.953 2.266-1.263 3.672.311.633.892 1.387 2.075 1.387s1.802-.755 2.113-1.388c.683-1.393-.466-2.79-1.301-3.67h.162a.75.75 0 0 0 0-1.5H7.053a.75.75 0 0 0 0 1.5h.155c-.794.84-1.953 2.264-1.263 3.671.311.633.891 1.388 2.074 1.388s1.802-.755 2.113-1.388c.683-1.392-.466-2.79-1.3-3.67h2.437v5.537a.75.75 0 0 0 .217 1.468m3.771-3.996c-.215-.437.27-1.137.731-1.672h.001c.478.546.974 1.244.764 1.671-.27.55-.584.55-.767.55s-.459 0-.729-.549m-7.965 0c-.215-.438.269-1.137.73-1.672h.001c.478.546.973 1.245.764 1.671-.27.55-.584.55-.767.55s-.459 0-.728-.549" clip-rule="evenodd"/></svg>