<svg xmlns="http://www.w3.org/2000/svg" width="24" height="24" fill="none"><path fill="#141B34" fill-rule="evenodd" d="M2.25 12c0 5.377 4.375 9.751 9.752 9.751s9.751-4.374 9.751-9.751a.75.75 0 0 0-1.5 0c0 4.55-3.701 8.251-8.251 8.251S3.75 16.549 3.75 12s3.702-8.25 8.252-8.25a.75.75 0 0 0 0-1.5C6.625 2.25 2.25 6.623 2.25 12m12.21-2.461a.75.75 0 0 0 1.06.002l4.64-4.619c.06.606.105 1.566.084 3.072a.75.75 0 0 0 .74.761h.01a.75.75 0 0 0 .75-.739c.063-4.356-.407-4.825-.659-5.077-.252-.253-.72-.721-5.078-.659a.749.749 0 0 0 .011 1.499h.012c1.5-.021 2.46.025 3.066.085l-4.633 4.614a.75.75 0 0 0-.002 1.061" clip-rule="evenodd"/></svg>