<svg xmlns="http://www.w3.org/2000/svg" width="24" height="24" fill="none"><path fill="#141B34" fill-rule="evenodd" d="M12 18.75a2.55 2.55 0 0 1-1.777-.715q-.365-.351-.74-.709l-.024-.023c-2.972-2.829-6.671-6.35-4.617-11.287C6.027 3.165 8.904 1.25 12 1.25s5.974 1.915 7.159 4.766c2.06 4.955-1.669 8.493-4.665 11.335q-.365.345-.717.683A2.55 2.55 0 0 1 12 18.75m0-16c-2.498 0-4.818 1.544-5.773 3.842-1.658 3.985 1.354 6.852 4.266 9.624q.393.373.772.739c.197.189.459.295.735.295s.538-.105.737-.296q.275-.264.558-.532l.167-.159c2.939-2.787 5.977-5.669 4.313-9.671C16.819 4.294 14.498 2.75 12 2.75m0 9.5A3.254 3.254 0 0 1 8.75 9 3.254 3.254 0 0 1 12 5.75 3.254 3.254 0 0 1 15.25 9 3.254 3.254 0 0 1 12 12.25m0-5c-.965 0-1.75.785-1.75 1.75s.785 1.75 1.75 1.75 1.75-.785 1.75-1.75-.785-1.75-1.75-1.75M5.25 20c0 1.889 3.499 2.75 6.75 2.75s6.75-.861 6.75-2.75a.75.75 0 0 0-1.5-.009c-.118.351-1.89 1.259-5.25 1.259s-5.132-.907-5.25-1.259a.75.75 0 0 0-1.5.009" clip-rule="evenodd"/></svg>