<svg xmlns="http://www.w3.org/2000/svg" width="24" height="24" fill="none"><path fill="#141B34" fill-rule="evenodd" d="M9.75 5a2.25 2.25 0 1 1 4.5 0 2.25 2.25 0 0 1-4.5 0m5.057 2.486a3.75 3.75 0 1 0-5.615 0c-3.058.929-4.827 4.432-3.49 7.605a1.95 1.95 0 0 0 1.793 1.197h.74l1.062 4.324A2.79 2.79 0 0 0 12 22.75c1.286 0 2.395-.89 2.702-2.138l1.063-4.323h.74c.786 0 1.489-.477 1.793-1.198 1.337-3.173-.433-6.676-3.49-7.605M12 8.75h-1.198c-2.888 0-4.874 3.016-3.718 5.758a.45.45 0 0 0 .411.28h.844c.637 0 1.18.44 1.33 1.049l1.085 4.417c.146.593.665.996 1.246.996.58 0 1.1-.403 1.245-.996l1.086-4.417a1.37 1.37 0 0 1 1.33-1.048h.843a.45.45 0 0 0 .412-.28c1.155-2.743-.83-5.759-3.719-5.759z" clip-rule="evenodd"/></svg>