<svg xmlns="http://www.w3.org/2000/svg" width="24" height="24" fill="none"><path fill="#141B34" fill-rule="evenodd" d="M12.002 2.75c-3.26 0-6.347 1.935-7.626 4.925-1.173 2.743-.58 5.037.823 7.157 1.204 1.82 2.96 3.446 4.69 5.049q.51.47 1.01.94c.292.272.687.429 1.103.429s.811-.157 1.104-.43q.468-.439.946-.878c1.753-1.618 3.537-3.263 4.754-5.108 1.401-2.122 1.993-4.42.82-7.16-1.278-2.989-4.365-4.924-7.625-4.924M2.996 7.085C4.525 3.513 8.175 1.25 12.002 1.25c3.826 0 7.476 2.263 9.004 5.835 1.42 3.32.653 6.151-.948 8.576-1.328 2.011-3.271 3.802-5.019 5.412q-.467.43-.908.841a3.12 3.12 0 0 1-2.13.836c-.79 0-1.554-.297-2.129-.835l-.001-.002q-.468-.439-.964-.896c-1.729-1.6-3.645-3.372-4.96-5.357-1.602-2.423-2.372-5.251-.95-8.575" clip-rule="evenodd"/></svg>