<svg xmlns="http://www.w3.org/2000/svg" width="24" height="24" fill="none"><path fill="#141B34" fill-rule="evenodd" d="M10.25 4.5a1.75 1.75 0 1 1 3.5 0 1.75 1.75 0 0 1-3.5 0m4.301 2.014a3.25 3.25 0 1 0-5.102 0c-2.523.894-3.919 3.906-2.815 6.598a1.75 1.75 0 0 0 1.612 1.1h.514l.866 3.62C9.89 18.936 10.854 19.75 12 19.75s2.11-.813 2.374-1.919l.865-3.62h.515a1.75 1.75 0 0 0 1.612-1.099c1.104-2.692-.292-5.704-2.815-6.598M12 7.75h-.998c-2.286 0-3.928 2.48-2.98 4.794.047.117.144.167.224.167h.703c.605 0 1.097.428 1.23.985l.906 3.786c.112.473.505.768.915.768s.802-.295.915-.768l.906-3.786a1.27 1.27 0 0 1 1.23-.985h.703c.08 0 .177-.05.224-.167.948-2.314-.694-4.794-2.98-4.794zm-6.033 8.638a.75.75 0 0 1 .178 1.046c-.702.99-1.096 1.686-1.277 2.205-.171.49-.131.756-.036.957q.035.073.08.141c.097.142.323.315 1.085.414.75.098 1.8.099 3.299.099h5.408c1.5 0 2.549-.002 3.3-.099.76-.099.987-.272 1.083-.414q.047-.068.081-.14c.095-.202.135-.468-.036-.959-.181-.518-.575-1.214-1.277-2.204a.75.75 0 0 1 1.224-.868c.72 1.017 1.216 1.853 1.47 2.578.262.753.282 1.442-.024 2.09q-.084.182-.197.346c-.475.7-1.273.947-2.132 1.059-.858.111-2.006.111-3.434.111H9.238c-1.428 0-2.576 0-3.434-.111-.86-.112-1.657-.359-2.132-1.058a2.5 2.5 0 0 1-.198-.346c-.305-.649-.285-1.338-.022-2.091.253-.725.75-1.561 1.47-2.578a.75.75 0 0 1 1.045-.178" clip-rule="evenodd"/></svg>