<svg xmlns="http://www.w3.org/2000/svg" width="24" height="24" fill="none"><path fill="#141B34" fill-rule="evenodd" d="M4.376 7.675c1.28-2.99 4.366-4.925 7.626-4.925 3.259 0 6.346 1.935 7.625 4.925 1.172 2.74.58 5.037-.82 7.16-1.218 1.844-3.002 3.49-4.755 5.107q-.477.439-.946.878c-.293.273-.688.43-1.104.43s-.812-.157-1.104-.43q-.5-.47-1.009-.94c-1.73-1.602-3.486-3.228-4.69-5.048-1.403-2.12-1.996-4.414-.823-7.157m7.626-6.425c-3.827 0-7.477 2.263-9.005 5.835-1.422 3.324-.652 6.152.95 8.574 1.315 1.986 3.231 3.759 4.96 5.358q.496.457.964.896l.001.002a3.12 3.12 0 0 0 2.13.835c.79 0 1.554-.297 2.129-.835q.441-.413.908-.842c1.748-1.61 3.691-3.401 5.02-5.412 1.6-2.425 2.367-5.256.947-8.576-1.528-3.572-5.178-5.835-9.004-5.835m4.238 7.96a.75.75 0 0 0-.48-1.42c-.743.25-1.462.732-2.103 1.267a16.4 16.4 0 0 0-1.772 1.761c-.434.495-.81.97-1.102 1.356a3.5 3.5 0 0 0-.834-.765 2.2 2.2 0 0 0-.601-.273 1.6 1.6 0 0 0-.322-.052h-.024s-.002 0-.002.75v-.75a.75.75 0 0 0-.052 1.498l.006.001a.7.7 0 0 1 .191.092c.197.124.552.432.941 1.174a.75.75 0 0 0 1.288.067l.001-.001.005-.008.022-.031a17 17 0 0 1 .424-.593c.29-.393.702-.923 1.187-1.476a15 15 0 0 1 1.606-1.599c.575-.48 1.13-.831 1.621-.997" clip-rule="evenodd"/></svg>