<svg xmlns="http://www.w3.org/2000/svg" width="24" height="24" fill="none"><path fill="#141B34" fill-rule="evenodd" d="M4.376 7.675c1.28-2.99 4.366-4.925 7.626-4.925 3.259 0 6.346 1.935 7.625 4.925 1.172 2.74.58 5.037-.82 7.16-1.218 1.844-3.002 3.49-4.755 5.107q-.477.439-.946.878c-.293.273-.688.43-1.104.43s-.812-.157-1.104-.43q-.5-.47-1.009-.94c-1.73-1.602-3.486-3.228-4.69-5.048-1.403-2.12-1.996-4.414-.823-7.157m7.626-6.425c-3.827 0-7.477 2.263-9.005 5.835-1.422 3.324-.652 6.152.95 8.574 1.315 1.986 3.231 3.759 4.96 5.358q.496.457.964.896l.001.002a3.12 3.12 0 0 0 2.13.835c.79 0 1.554-.297 2.129-.835q.441-.413.908-.842c1.748-1.61 3.691-3.401 5.02-5.412 1.6-2.425 2.367-5.256.947-8.576-1.528-3.572-5.178-5.835-9.004-5.835M9.01 7.184c1.185-.693 2.287-.456 2.99.01.704-.466 1.806-.703 2.99-.01.92.536 1.394 1.632 1.227 2.819-.168 1.193-.964 2.453-2.503 3.538l-.068.048c-.483.341-.935.661-1.645.661s-1.163-.32-1.645-.661l-.069-.048c-1.539-1.085-2.335-2.345-2.503-3.538-.167-1.187.308-2.283 1.226-2.82m.757 1.295c.65-.38 1.15-.217 1.435-.013l.015.01c.088.063.18.13.26.179.042.027.103.062.174.093.066.028.19.074.35.074s.284-.046.35-.074c.07-.03.131-.066.174-.093.079-.05.171-.116.26-.178l.014-.011c.285-.204.786-.366 1.435.013.313.183.594.634.498 1.315-.095.674-.58 1.603-1.882 2.52-.573.405-.654.436-.85.436-.194 0-.275-.031-.848-.435-1.302-.918-1.788-1.847-1.883-2.521-.095-.681.185-1.132.498-1.315" clip-rule="evenodd"/></svg>