<svg xmlns="http://www.w3.org/2000/svg" width="24" height="24" fill="none"><path fill="#141B34" fill-rule="evenodd" d="M1.25 12.008c0 5.928 4.822 10.75 10.75 10.75s10.75-4.822 10.75-10.75S17.928 1.258 12 1.258 1.25 6.08 1.25 12.008m1.5 0c0-5.1 4.15-9.25 9.25-9.25s9.25 4.15 9.25 9.25-4.15 9.25-9.25 9.25-9.25-4.15-9.25-9.25m12.53 3.01a.75.75 0 0 0 1.5 0v-6a.75.75 0 0 0-1.5 0zm-4.745-.54a.75.75 0 0 0 .595.295h.001c.159 0 .319-.052.454-.155 2.174-1.666 2.174-2.366 2.174-2.603s0-.96-2.18-2.587a.749.749 0 1 0-.898 1.202c.271.202.541.423.781.635H7.03a.75.75 0 0 0 0 1.5h4.44c-.244.22-.52.45-.796.663a.75.75 0 0 0-.139 1.05" clip-rule="evenodd"/></svg>