<svg xmlns="http://www.w3.org/2000/svg" width="24" height="24" fill="none"><path fill="#141B34" fill-rule="evenodd" d="M5.25 8a6.75 6.75 0 0 0 6 6.709V22a.75.75 0 1 0 1.5 0v-7.291a6.75 6.75 0 0 0 6-6.709v-.103A6.75 6.75 0 0 0 5.25 8m1.932-2.09a5.251 5.251 0 0 1 9.994 1.204c-.968.02-1.647.372-2.181.687l-.043.025c-.679.4-.848.5-1.2.374-.498-.178-.81-.556-1.264-1.145l-.035-.046c-.413-.538-.968-1.26-1.918-1.594-.88-.31-1.904-.16-2.793.219q-.284.12-.56.276m10.033 2.703c-.615.011-1.038.232-1.46.48l-.148.09c-.536.326-1.318.802-2.36.43-.944-.338-1.497-1.058-1.91-1.594l-.038-.05c-.452-.588-.765-.964-1.263-1.14-.406-.143-1.024-.105-1.707.185-.6.255-1.168.673-1.575 1.19a5.25 5.25 0 0 0 10.46.41" clip-rule="evenodd"/></svg>