<svg xmlns="http://www.w3.org/2000/svg" width="24" height="24" fill="none"><path fill="#141B34" fill-rule="evenodd" d="M19.352 19.75c-.217 0-.417-.033-.602-.085-.02.815-.244 1.46-1.148 1.947-1.413.757-3.507 1.136-5.6 1.136L12 22.747c-2.093 0-4.186-.38-5.6-1.135-.906-.487-1.129-1.135-1.149-1.953a2.1 2.1 0 0 1-.834.079c-1.499-.16-1.79-1.165-1.977-2.27l-1.08-6.422c-.163-.967-.158-1.081.1-2.027l.537-1.983L2 7.028c.38-1.398.59-2.168 1.133-2.807.547-.641 1.278-.972 2.605-1.572l2.544-1.153c.495-.223.601-.246 1.142-.246h5.156c.54 0 .647.023 1.14.245l2.545 1.154c1.326.6 2.057.931 2.604 1.571.546.64.755 1.412 1.135 2.815l.538 1.984c.258.946.262 1.06.1 2.027l-1.08 6.421c-.187 1.106-.479 2.112-1.982 2.271a2 2 0 0 1-.226.012m-.943-6.763.264 5.019c.333.175.526.265.748.241.41-.043.495-.052.659-1.028l1.08-6.422a3.2 3.2 0 0 0-.067-1.385l-.538-1.983c-.334-1.232-.503-1.851-.83-2.235-.316-.37-.835-.614-2.08-1.178l-2.088-.946c-.336.667-1.08 1.99-1.866 2.406-.52.276-1.08.274-1.578.273h-.325c-.471 0-.992-.017-1.477-.273-.786-.417-1.53-1.74-1.866-2.407l-2.09.947c-1.247.564-1.765.808-2.082 1.179-.325.381-.492.996-.823 2.216l-.005.017-.538 1.984a3.2 3.2 0 0 0-.067 1.385l1.08 6.422c.165.975.25.984.657 1.028.213.024.465-.096.752-.245l.264-5.032c.076-1.45.114-2.177.023-2.85-.105-.777-.367-1.54-.645-2.347l-.062-.182-.12-.352a.75.75 0 0 1 1.423-.475q.086.255.175.512l.003.009.001.004c.289.84.587 1.707.712 2.63.11.81.07 1.586-.011 3.129v.017l-.341 6.482c0 .532.066.586.36.743 2.376 1.273 7.404 1.273 9.78 0 .294-.157.359-.211.36-.743l-.341-6.496v-.01c-.082-1.539-.122-2.313-.011-3.122.124-.922.422-1.79.711-2.63l.002-.004.003-.009q.089-.257.175-.512a.75.75 0 0 1 1.423.475q-.067.198-.136.398l-.046.136c-.278.808-.54 1.57-.645 2.348-.091.672-.053 1.4.023 2.852zM9.975 2.75c.361.646.797 1.272 1.038 1.4.19.1.542.1.88.098h.216c.339.001.689.002.88-.099.24-.127.677-.753 1.038-1.399z" clip-rule="evenodd"/></svg>