<svg xmlns="http://www.w3.org/2000/svg" width="24" height="24" fill="none"><path fill="#141B34" fill-rule="evenodd" d="M12 3.25a.75.75 0 0 1 .75.75v4.325q.225.046.438.117l2.162-3.745a.75.75 0 1 1 1.3.75l-2.163 3.746q.17.15.32.32l3.746-2.162a.75.75 0 1 1 .75 1.299l-3.745 2.162q.071.214.117.438H20a.75.75 0 0 1 0 1.5h-4.325q-.046.225-.117.438l3.745 2.163a.75.75 0 0 1-.75 1.299l-3.746-2.163q-.15.17-.32.32l2.162 3.746a.75.75 0 0 1-1.299.75l-2.162-3.745a4 4 0 0 1-.438.117V20a.75.75 0 0 1-1.5 0v-4.325a4 4 0 0 1-.438-.117L8.65 19.304a.75.75 0 0 1-1.3-.75l2.164-3.747q-.17-.15-.321-.32L5.446 16.65a.75.75 0 0 1-.75-1.3l3.746-2.162a4 4 0 0 1-.117-.438H4a.75.75 0 0 1 0-1.5h4.325q.046-.225.117-.438L4.696 8.65a.75.75 0 1 1 .75-1.3l3.747 2.164q.15-.17.32-.321L7.352 5.446a.75.75 0 1 1 1.299-.75l2.162 3.746a4 4 0 0 1 .438-.117V4a.75.75 0 0 1 .75-.75m-1.946 7.62a2.25 2.25 0 0 1 3.88-.021l.007.013.007.013.016.027c.182.325.286.7.286 1.098a2.24 2.24 0 0 1-1.152 1.965 2.25 2.25 0 0 1-3.05-3.084l.003-.006z" clip-rule="evenodd"/></svg>