<svg xmlns="http://www.w3.org/2000/svg" width="24" height="24" fill="none"><path fill="#141B34" fill-rule="evenodd" d="M11.352 8.634a.75.75 0 0 0 .397.114v.001a.75.75 0 0 0 .636-.353l1.875-3a.75.75 0 0 0-.636-1.147h-1.647l1.158-1.852a.75.75 0 1 0-1.27-.795l-1.876 3a.75.75 0 0 0 .636 1.147h1.647l-1.158 1.852a.75.75 0 0 0 .238 1.033M3.25 13.998c0 4.825 3.925 8.75 8.75 8.75s8.75-3.925 8.75-8.75v-5c0-1.075 0-1.724-.513-2.237-.512-.513-1.162-.513-2.237-.513s-1.724 0-2.237.513c-.513.512-.513 1.161-.513 2.237v5a3.254 3.254 0 0 1-3.25 3.25 3.254 3.254 0 0 1-3.25-3.25v-5c0-1.075 0-1.724-.513-2.237-.512-.513-1.162-.513-2.237-.513s-1.724 0-2.237.513c-.513.512-.513 1.161-.513 2.237zm1.5 0v-3.25h2.5v3.25a4.756 4.756 0 0 0 4.75 4.75 4.756 4.756 0 0 0 4.75-4.75v-3.25h2.5v3.25c0 3.998-3.252 7.25-7.25 7.25s-7.25-3.252-7.25-7.25m14.5-5v.25h-2.5v-.25c0-.501 0-1.069.073-1.177.108-.073.676-.073 1.177-.073s1.069 0 1.177.073c.073.108.073.676.073 1.177m-12 .25h-2.5v-.25c0-.501 0-1.069.073-1.177.108-.073.676-.073 1.177-.073s1.069 0 1.177.073c.073.108.073.676.073 1.177z" clip-rule="evenodd"/></svg>