<svg xmlns="http://www.w3.org/2000/svg" width="25" height="24" fill="none"><path fill="#141B34" fill-rule="evenodd" d="M8.448 12.25H8.5a.75.75 0 0 1 .685.445l2.222 5 .32-2.563-.898-1.797a.75.75 0 0 1 .671-1.085h2a.75.75 0 0 1 .67 1.085l-.898 1.797.32 2.563 2.223-5a.75.75 0 0 1 .685-.445h.052c.899 0 1.648 0 2.242.08.628.084 1.195.27 1.65.726.456.455.642 1.022.726 1.65.08.594.08 1.343.08 2.242V22a.75.75 0 0 1-1.5 0v-5c0-.964-.002-1.612-.067-2.095-.062-.461-.169-.659-.3-.789s-.327-.237-.788-.3c-.397-.053-.905-.063-1.608-.066l-3.802 8.555a.75.75 0 0 1-1.37 0L8.013 13.75c-.703.002-1.21.012-1.608.066-.461.062-.659.169-.789.3s-.237.327-.3.788c-.064.483-.066 1.131-.066 2.095v5a.75.75 0 0 1-1.5 0v-5.052c0-.899 0-1.648.08-2.242.084-.628.27-1.195.725-1.65.456-.456 1.023-.642 1.65-.726.595-.08 1.345-.08 2.243-.08m4.052-11A4.25 4.25 0 0 0 8.25 5.5v1a4.25 4.25 0 0 0 8.5 0v-1a4.25 4.25 0 0 0-4.25-4.25M9.75 5.5a2.75 2.75 0 1 1 5.5 0v1a2.75 2.75 0 1 1-5.5 0z" clip-rule="evenodd"/></svg>