<svg xmlns="http://www.w3.org/2000/svg" width="24" height="24" fill="none"><path fill="#141B34" fill-rule="evenodd" d="M3.376 7.675c1.28-2.99 4.366-4.925 7.626-4.925 3.677 0 7.49 2.772 8.265 6.406a.75.75 0 0 0 1.467-.312C19.795 4.44 15.304 1.25 11 1.25c-3.826 0-7.476 2.263-9.004 5.835-1.422 3.324-.652 6.152.95 8.574 1.315 1.986 3.231 3.759 4.96 5.358h.001q.496.458.963.896l.001.002a3.12 3.12 0 0 0 2.13.835c.72 0 1.42-.247 1.973-.7a.75.75 0 1 0-.949-1.161c-.283.23-.645.361-1.024.361-.416 0-.812-.157-1.104-.43q-.5-.47-1.009-.94c-1.73-1.602-3.486-3.228-4.69-5.048-1.403-2.12-1.996-4.414-.823-7.157M8.25 11a2.75 2.75 0 0 1 5.108-1.417.75.75 0 0 0 1.285-.774 4.25 4.25 0 1 0-5.464 6.031.75.75 0 1 0 .643-1.354A2.75 2.75 0 0 1 8.25 11M16 16a1 1 0 0 1 1-1h.01a1 1 0 1 1 0 2H17a1 1 0 0 1-1-1m-2.93-1.744c.653-1.511 2.242-2.506 3.93-2.506 1.69 0 3.278.995 3.931 2.506.593 1.374.306 2.515-.427 3.614-.651.977-1.606 1.85-2.58 2.741h-.002l-.533.49a.57.57 0 0 1-.388.149.57.57 0 0 1-.388-.148q-.285-.265-.57-.526c-.962-.882-1.9-1.743-2.545-2.708-.734-1.097-1.022-2.236-.428-3.612M17 10.25c-2.247 0-4.4 1.314-5.307 3.411-.847 1.962-.378 3.64.558 5.04.754 1.13 1.856 2.138 2.815 3.016q.273.249.525.483l.002.002c.382.355.888.548 1.408.548s1.025-.193 1.407-.548l.496-.455c.97-.884 2.086-1.9 2.848-3.045.935-1.402 1.402-3.082.556-5.04-.906-2.098-3.06-3.412-5.307-3.412" clip-rule="evenodd"/></svg>