<svg xmlns="http://www.w3.org/2000/svg" width="24" height="24" fill="none"><path fill="#141B34" fill-rule="evenodd" d="M21.95 11.27a.75.75 0 0 1-.745-.852c.045-.329.045-1.093.045-1.418 0-3.329-.892-5.099-1.25-5.246-.358.147-1.25 1.918-1.25 5.246 0 .375.008.608.052.912a.749.749 0 1 1-1.484.216A7 7 0 0 1 17.25 9q0-.24.006-.482c-1.406-.491-3.286-.768-5.255-.768-1.97 0-3.85.278-5.256.769q.006.24.006.481c0 2.037-.65 3.374-1.194 4.136-.404.566-.888 1.007-1.39 1.284 1.58 2.159 4.19 3.632 6.89 3.833a.75.75 0 0 1-.055 1.498v-.001h-.001q-.027 0-.055-.002c-3.5-.26-6.875-2.37-8.595-5.375l-.021-.036-.006-.01-.006-.01C1.378 12.642 1.251 10.689 1.251 9c0-3.251.861-6.75 2.75-6.75 1.497 0 2.348 2.196 2.637 4.725C8.148 6.51 10.044 6.25 12 6.25c1.957 0 3.853.26 5.363.726.29-2.529 1.14-4.725 2.637-4.725 1.889 0 2.75 3.499 2.75 6.75 0 .416 0 1.191-.059 1.622a.75.75 0 0 1-.742.649zM2.751 9c0-3.329.892-5.099 1.25-5.246.358.146 1.25 1.917 1.25 5.246 0 2.423-1.114 3.739-1.852 4.128-.565-1.285-.648-2.794-.648-4.128M17.5 21.75c-.854 0-1.371-.38-2.087-.903l-.002-.002c-2.085-1.524-3.236-3.461-3.156-5.314.05-1.173.61-2.194 1.499-2.733 1.24-.751 2.633-.727 3.722.065l.017.013.007.006.004-.003.004-.003.016-.012c1.088-.792 2.479-.817 3.722-.065.889.539 1.449 1.56 1.5 2.733.08 1.853-1.071 3.79-3.157 5.314-.716.525-1.234.904-2.09.904m-2.968-7.67c-.458.279-.75.845-.778 1.516-.058 1.343.869 2.815 2.543 4.039.692.507.87.615 1.204.615s.502-.101 1.204-.615c1.675-1.224 2.602-2.696 2.544-4.04-.03-.67-.32-1.236-.778-1.514-.976-.59-1.704-.263-2.055-.01-.32.246-.574.439-.915.439s-.595-.193-.914-.44c-.352-.252-1.08-.578-2.055.012z" clip-rule="evenodd"/></svg>