<svg xmlns="http://www.w3.org/2000/svg" width="25" height="24" fill="none"><path fill="#141B34" fill-rule="evenodd" d="M17.418 7.325V6c0-1.746-.015-2.532-.366-2.884-.352-.352-1.138-.366-2.884-.366h-4c-1.746 0-2.532.015-2.884.366S6.918 4.254 6.918 6v1.325c.427-.053.92-.069 1.5-.073V5a.75.75 0 0 1 1.5 0v2.25h1.5V5a.75.75 0 0 1 1.5 0v2.25h1.5V5a.75.75 0 0 1 1.5 0v2.252c.58.004 1.073.02 1.5.073m-5.25 1.425h3c1.746 0 2.532.014 2.884.366s.366 1.138.366 2.884v6c0 1.746-.014 2.532-.366 2.884s-1.138.366-2.884.366h-6c-1.746 0-2.533-.014-2.884-.366S5.918 19.746 5.918 18v-6c0-1.746.015-2.533.366-2.884.352-.351 1.138-.366 2.884-.366zm-6.75-.868V6c0-2.024 0-3.139.806-3.944s1.921-.806 3.944-.806h4c2.024 0 3.139 0 3.944.806s.806 1.92.806 3.944v1.882q.1.08.194.174c.806.806.806 1.92.806 3.944v6c0 2.024 0 3.139-.806 3.944-.805.806-1.92.806-3.944.806h-6c-2.024 0-3.139 0-3.944-.806S4.418 20.023 4.418 18v-6c0-2.024 0-3.139.806-3.944q.094-.094.194-.174m3.863 10.224c.732 1.06 1.811 1.644 3.04 1.644v-.001c1.983 0 3.595-1.593 3.595-3.55 0-1.41-.732-2.267-1.377-3.023l-.002-.001-.001-.002c-.591-.692-1.059-1.239-1.059-2.174a.75.75 0 0 0-1.109-.658c-1.47.804-1.854 2.534-1.941 3.664-.14-.117-.2-.275-.2-.506a.75.75 0 0 0-1.45-.265c-.626 1.648-.433 3.515.504 4.872m.644-2.65c.04.658.24 1.29.59 1.799.314.454.881.996 1.806.996 1.156 0 2.097-.92 2.097-2.05 0-.858-.45-1.384-1.02-2.049-.394-.46-.819-.957-1.1-1.595-.393.826-.425 1.898-.384 2.379a.753.753 0 0 1-.746.815c-.38 0-.832-.09-1.243-.296" clip-rule="evenodd"/></svg>