<svg xmlns="http://www.w3.org/2000/svg" width="24" height="24" fill="none"><path fill="#141B34" fill-rule="evenodd" d="M13.484 22.75h2a.75.75 0 0 0 0-1.5h-2a.75.75 0 0 0 0 1.5m4.257-.706a.75.75 0 0 0 .742.646v-.001a1 1 0 0 0 .104-.007c1.28-.181 2.153-.568 2.83-1.252.68-.678 1.064-1.549 1.248-2.824a.749.749 0 1 0-1.484-.213c-.136.946-.382 1.536-.827 1.98-.44.445-1.03.691-1.975.824a.75.75 0 0 0-.638.847M21.234 14a.75.75 0 0 0 1.5 0v-4a.75.75 0 0 0-1.5 0zm-20-3.5a.75.75 0 0 0 1.5 0v-2a.75.75 0 0 0-1.5 0zm19.948-4.893a.75.75 0 0 0 .741.643h.001a.75.75 0 0 0 .743-.857c-.184-1.275-.569-2.146-1.245-2.82-.68-.689-1.554-1.076-2.833-1.256a.75.75 0 0 0-.209 1.485c.945.133 1.535.38 1.98.829.44.44.686 1.031.822 1.976m-19.245.635a1 1 0 0 0 .108.008l.001-.001a.75.75 0 0 0 .741-.643c.136-.947.382-1.537.827-1.98.44-.445 1.03-.691 1.975-.824a.75.75 0 0 0-.209-1.485c-1.28.18-2.153.567-2.829 1.251-.68.677-1.065 1.548-1.249 2.825-.06.41.225.79.635.849M9.984 2.75h4a.75.75 0 0 0 0-1.5h-4a.75.75 0 0 0 0 1.5M11.734 17c0-1.57 0-2.593-.373-3.344l3.913-3.888v1.641a.75.75 0 0 0 1.5 0V8.79c0-.806-.634-1.469-1.453-1.509l-2.742-.1a.75.75 0 1 0-.055 1.499l1.657.061-3.892 3.867c-.752-.357-1.765-.357-3.305-.357h-1c-2.025 0-3.14 0-3.942.807-.808.8-.808 1.916-.808 3.943v1c0 2.026 0 3.142.804 3.938.806.812 1.921.812 3.946.812h1c2.025 0 3.141 0 3.942-.807.808-.8.808-1.916.808-3.943zm-5.75-3.25c-1.745 0-2.53.015-2.882.369-.353.35-.368 1.136-.368 2.881v1c0 1.746.015 2.532.364 2.877.356.358 1.142.373 2.886.373h1c1.745 0 2.531-.015 2.882-.369.353-.35.368-1.136.368-2.881v-1c0-1.746-.015-2.532-.364-2.877-.356-.358-1.142-.373-2.886-.373z" clip-rule="evenodd"/></svg>