<svg xmlns="http://www.w3.org/2000/svg" width="25" height="24" fill="none"><path fill="#141B34" fill-rule="evenodd" d="M2.09 10.095c.127.124.382.367 1.53.367.411 0 .938-.031 1.616-.11a.75.75 0 1 0-.174-1.49c-.25.029-.507.052-.752.068l1.798-1.781a.751.751 0 0 0-1.056-1.066L3.297 7.82c.016-.211.036-.43.06-.643a.749.749 0 1 0-1.49-.165c-.286 2.58.017 2.88.22 3.078l.002.003zm4.776-4.721c.147.148.34.222.533.222v-.001a.75.75 0 0 0 .528-.217L9.682 3.64c-.016.21-.036.43-.059.643a.75.75 0 1 0 1.491.165c.285-2.582-.02-2.881-.22-3.078l-.003-.002c-.173-.168-.579-.558-3.148-.257a.75.75 0 1 0 .174 1.49 14 14 0 0 1 .752-.07L6.871 4.314a.75.75 0 0 0-.005 1.06M19.68 22.256c0 .414.336.75.75.75v.001a.75.75 0 0 0 .75-.75v-1.56c0-.244.08-.504.226-.747 1.244-2.023 2.225-5.072 1.712-6.672a1 1 0 0 0-.039-.097c-1.11-2.301-4.37-3.195-5.927-3.498l.882-4.4c.26-1.219-.62-2.443-1.96-2.729a2.6 2.6 0 0 0-1.817.262 2.2 2.2 0 0 0-1.086 1.445l-1.829 8.612-1.63-1.039c-.647-.495-2.119-1.084-3.297.083-1.195 1.196-.563 2.694-.058 3.325l3.907 5.009c.156.199.246.44.26.697l.072 1.32a.75.75 0 1 0 1.498-.082l-.072-1.319a2.7 2.7 0 0 0-.578-1.541l-3.912-5.014c-.102-.131-.582-.809-.06-1.332.527-.523 1.212-.043 1.34.054a1 1 0 0 0 .063.046l2.572 1.64a.75.75 0 0 0 1.137-.477l2.054-9.67c.052-.248.244-.388.354-.45a1.1 1.1 0 0 1 .77-.103c.53.113.892.54.803.96l-1.036 5.169a.75.75 0 0 0 .643.892c1.646.204 4.644 1.01 5.531 2.74.181.7-.093 2.974-1.578 5.388a2.97 2.97 0 0 0-.445 1.527z" clip-rule="evenodd"/></svg>