<svg xmlns="http://www.w3.org/2000/svg" width="25" height="24" fill="none"><path fill="#141B34" fill-rule="evenodd" d="M18.124 22.696q.098.025.194.025l.002-.004a.75.75 0 0 0 .724-.557l.278-1.043c.075-.283.267-.54.541-.724.746-.501 1.27-.957 1.555-1.355.581-.805.852-1.822 1.393-3.85l.003-.012.351-1.317a2.6 2.6 0 0 0-1.429-3.043l-.293-.134a1.54 1.54 0 0 0-.72-.136 2.6 2.6 0 0 0-1.778-1.665 1.7 1.7 0 0 0-.688-.04 2.6 2.6 0 0 0-1.746-1.576l-.169-.045.881-3.307a2.144 2.144 0 0 0-1.507-2.62 2.11 2.11 0 0 0-1.617.212 2.12 2.12 0 0 0-.996 1.302l-1.908 7.16-.149-.26A2.298 2.298 0 0 0 7.68 9a2.33 2.33 0 0 0-.773 2.728l.006.015 2.108 4.982c.313.737.358 1.85.113 2.773a.75.75 0 1 0 1.45.385c.328-1.238.257-2.708-.182-3.743l-2.104-4.973a.826.826 0 0 1 .276-.963.796.796 0 0 1 1.169.248l1.055 1.845a.75.75 0 0 0 1.376-.18l2.378-8.924a.634.634 0 0 1 .773-.451c.34.09.54.444.45.786L14.222 9.35a.751.751 0 0 0 1.45.386l.284-1.065.164.044c.584.158.932.766.775 1.355l-.239.895a.75.75 0 0 0 1.45.387l.238-.895a.18.18 0 0 1 .082-.11c.027-.015.071-.03.127-.015.583.158.93.765.774 1.354l-.239.896a.75.75 0 0 0 1.45.387l.238-.896a.03.03 0 0 1 .018-.023.03.03 0 0 1 .021 0l.293.134c.49.224.744.768.604 1.293l-.353 1.325c-.493 1.85-.74 2.78-1.162 3.364-.174.242-.603.602-1.174.987a2.78 2.78 0 0 0-1.154 1.582l-.278 1.043c-.106.4.132.81.532.918M2.087 10.339c.127.125.381.372 1.531.372h.001c.413 0 .942-.032 1.623-.113a.75.75 0 0 0-.177-1.489c-.25.03-.509.053-.755.07l1.803-1.784a.75.75 0 1 0-1.055-1.067L3.298 8.07c.016-.213.036-.432.06-.647a.75.75 0 0 0-1.49-.165c-.287 2.578.016 2.881.217 3.08zm4.786-4.72c.147.147.34.221.533.221h-.002a.75.75 0 0 0 .528-.217l1.76-1.74c-.017.212-.037.431-.06.646a.75.75 0 0 0 1.49.165c.287-2.582-.018-2.882-.219-3.08-.172-.17-.579-.566-3.154-.26a.75.75 0 0 0 .177 1.49c.25-.03.508-.054.754-.07L6.878 4.556a.75.75 0 0 0-.005 1.061" clip-rule="evenodd"/></svg>