<svg xmlns="http://www.w3.org/2000/svg" width="24" height="24" fill="none"><path fill="#141B34" fill-rule="evenodd" d="M19.1 1.306a3.26 3.26 0 0 1 2.595 2.61c.055.3.055.642.055 1.121v.128c0 .493 0 .808-.037 1.106a4.78 4.78 0 0 1-1.902 3.254c-.241.179-.515.332-.942.571l-2.65 1.483c-.922.516-1.66.929-2.298 1.209a7 7 0 0 1-.634.245q.09.14.162.284l.789 1.591a.354.354 0 0 0 .099.075l.006.002 1.424.239c.592.099 1.21.412 1.42 1.065.207.653-.115 1.266-.54 1.692v.001l-1.108 1.116-.004.007a.3.3 0 0 0-.035.125v.012l.316 1.382c.14.612.143 1.421-.477 1.877-.624.458-1.395.207-1.934-.114l-1.336-.797-.007-.002a.27.27 0 0 0-.126 0l-.006.002-.004.001-1.334.796c-.54.323-1.31.57-1.932.112-.62-.456-.62-1.262-.48-1.876l.318-1.381v-.012a.3.3 0 0 0-.036-.125l-.004-.007-1.109-1.118c-.422-.425-.743-1.038-.537-1.689.207-.654.826-.968 1.418-1.067l1.42-.238.005-.002a.3.3 0 0 0 .051-.032l.026-.021.023-.023.79-1.593a3 3 0 0 1 .163-.283 7 7 0 0 1-.629-.244c-.637-.28-1.376-.693-2.298-1.209l-2.604-1.458-.046-.025c-.426-.239-.7-.392-.942-.571a4.78 4.78 0 0 1-1.938-3.977l-.001-.511c0-.479 0-.821.056-1.121A3.26 3.26 0 0 1 4.9 1.306c.249-.047.527-.054.887-.056h12.2c.473 0 .814 0 1.113.056m-7.103 12.499c-.03.039-.07.097-.11.179l-.79 1.594c-.12.246-.312.441-.492.576a1.64 1.64 0 0 1-.69.308l-.002.001-1.435.24a1 1 0 0 0-.198.054 1 1 0 0 0 .134.166l1.116 1.126c.206.208.332.471.399.706.067.236.097.524.034.806v.005l-.32 1.392a1.5 1.5 0 0 0-.038.251 1.5 1.5 0 0 0 .218-.109l1.35-.807c.266-.155.567-.212.827-.212s.563.057.828.215l1.345.803q.132.077.22.11a1.6 1.6 0 0 0-.039-.251l-.32-1.397a1.7 1.7 0 0 1 .034-.806c.067-.235.193-.498.4-.706l1.115-1.126a1 1 0 0 0 .135-.165 1 1 0 0 0-.2-.055l-1.434-.24a1.65 1.65 0 0 1-.694-.308 1.65 1.65 0 0 1-.494-.577l-.791-1.595a1 1 0 0 0-.108-.178m6.218-11.054H5.785c-.35.001-.493.007-.607.029A1.76 1.76 0 0 0 3.78 4.191c-.021.116-.028.261-.03.615v.634c.002.33.007.494.026.644A3.29 3.29 0 0 0 5.08 8.319c.156.115.342.22.83.493l2.571 1.439c.962.539 1.638.916 2.202 1.164.549.241.939.335 1.317.335s.768-.094 1.317-.335c.564-.248 1.24-.625 2.202-1.164l2.571-1.439c.488-.273.674-.378.83-.493a3.29 3.29 0 0 0 1.304-2.235c.02-.15.024-.314.026-.644v-.634c-.002-.354-.009-.499-.03-.615a1.76 1.76 0 0 0-1.398-1.411c-.114-.022-.256-.028-.607-.03M8 4.25a.75.75 0 0 1 .75.75v1a.75.75 0 0 1-1.5 0V5A.75.75 0 0 1 8 4.25m4 0a.75.75 0 0 1 .75.75v3a.75.75 0 0 1-1.5 0V5a.75.75 0 0 1 .75-.75m4 0a.75.75 0 0 1 .75.75v1a.75.75 0 0 1-1.5 0V5a.75.75 0 0 1 .75-.75" clip-rule="evenodd"/></svg>