<svg xmlns="http://www.w3.org/2000/svg" width="24" height="24" fill="none"><path fill="#141B34" fill-rule="evenodd" d="M9.876 1.25h4.248c.368 0 .7 0 .978.03.304.032.61.104.9.293.29.188.481.438.633.702.137.241.269.543.413.875l2.054 4.71c.231.532.436 1.001.547 1.4.12.43.166.897-.05 1.368-.214.47-.596.743-.999.939-.374.182-.865.343-1.424.526l-3.728 1.222.001.002.789 1.59.003.005a.3.3 0 0 0 .096.07l.006.003 1.424.239c.592.1 1.21.412 1.42 1.065.207.653-.115 1.266-.54 1.692l-1.108 1.117-.004.007a.3.3 0 0 0-.035.125v.012l.316 1.381c.14.613.143 1.422-.477 1.878-.624.458-1.395.207-1.934-.114l-1.336-.797-.007-.002a.3.3 0 0 0-.126 0l-.01.003-1.334.796c-.54.323-1.31.57-1.932.112-.62-.456-.62-1.262-.48-1.876l.318-1.381v-.012a.3.3 0 0 0-.036-.125l-.004-.007-1.109-1.118c-.422-.425-.743-1.038-.537-1.69.207-.653.826-.967 1.418-1.066l1.42-.238.005-.002a.3.3 0 0 0 .096-.072l.004-.004.79-1.593v-.002l-3.72-1.22c-.56-.183-1.051-.344-1.425-.526-.403-.196-.785-.47-1-.939-.215-.471-.169-.938-.049-1.369.111-.398.316-.867.547-1.399l2.054-4.71c.144-.332.276-.634.413-.875.152-.264.342-.514.633-.702.29-.189.596-.261.9-.294.277-.03.61-.029.978-.029m.034 1.5h1.567l3.166 8.594-2.167.71-3.1-9.3c.142-.004.316-.004.534-.004m6.751 7.933-.591.194-2.994-8.127h1.014c.413 0 .665.001.854.021.172.018.22.046.242.06.02.013.064.045.147.19.092.16.191.386.354.76l2.02 4.632c.257.592.418.964.497 1.248.071.258.04.324.032.343l-.001.002c-.01.02-.041.09-.29.212-.272.132-.663.262-1.284.465M8.213 4.01l2.604 7.813-3.478-1.14c-.62-.203-1.012-.333-1.283-.465-.25-.122-.282-.192-.291-.213v-.001c-.01-.02-.04-.085.031-.343.08-.284.24-.656.498-1.248zm2.884 11.568.79-1.593c.04-.083.08-.14.11-.18q.046.057.107.177l.001.001.79 1.595c.122.246.313.441.495.577.183.136.425.263.694.308l1.435.24a1 1 0 0 1 .2.055 1 1 0 0 1-.134.164l-.002.002-1.116 1.125c-.206.207-.332.47-.399.706a1.7 1.7 0 0 0-.034.806l.32 1.397q.034.155.039.251a1.5 1.5 0 0 1-.22-.11l-1.345-.803a1.63 1.63 0 0 0-.828-.215c-.26 0-.561.057-.826.212l-1.351.807q-.131.077-.218.11.003-.097.038-.252l.32-1.392v-.005a1.7 1.7 0 0 0-.034-.806 1.65 1.65 0 0 0-.4-.706l-1.115-1.125a1 1 0 0 1-.134-.167 1 1 0 0 1 .198-.054l1.435-.24h.003a1.64 1.64 0 0 0 .688-.31c.181-.134.372-.329.493-.575" clip-rule="evenodd"/></svg>