<svg xmlns="http://www.w3.org/2000/svg" width="24" height="24" fill="none"><path fill="#141B34" fill-rule="evenodd" d="M5.333 2.342a.75.75 0 0 1 1.334-.684l2.595 5.057q.585-.206 1.206-.323l.8-1.56-1.47-2.445a.75.75 0 0 1 1.284-.773l.99 1.645.82-1.6a.75.75 0 1 1 1.335.683l-2.003 3.911c.894.024 1.753.19 2.554.476l2.552-5.066a.75.75 0 1 1 1.34.675l-2.531 5.024a8.25 8.25 0 1 1-8.242-.02zM5.25 14.5a6.75 6.75 0 1 1 13.5 0 6.75 6.75 0 0 1-13.5 0m6.643-3.75c-2.038 0-3.643 1.705-3.643 3.75s1.605 3.75 3.643 3.75h.214c2.038 0 3.643-1.705 3.643-3.75s-1.605-3.75-3.643-3.75zM9.75 14.5c0-1.269.985-2.25 2.143-2.25h.214c1.158 0 2.143.981 2.143 2.25s-.985 2.25-2.143 2.25h-.214c-1.158 0-2.143-.981-2.143-2.25" clip-rule="evenodd"/></svg>