<svg xmlns="http://www.w3.org/2000/svg" width="25" height="24" fill="none"><path fill="#141B34" fill-rule="evenodd" d="M8.696 2.25h4.108c1.133 0 2.058 0 2.79.098.763.103 1.425.325 1.954.854s.751 1.19.854 1.955l.012.094c.632.003 1.176.018 1.63.079.628.084 1.195.27 1.65.725.456.456.642 1.023.726 1.65.08.595.08 1.344.08 2.243v7.104c0 .899 0 1.648-.08 2.242-.084.628-.27 1.195-.726 1.65-.455.456-1.022.642-1.65.726-.594.08-1.343.08-2.242.08H8.696c-1.133 0-2.058 0-2.79-.098-.763-.103-1.425-.325-1.954-.854s-.751-1.19-.854-1.955C3 18.113 3 17.186 3 16.053V7.947c0-1.133 0-2.058.098-2.79.103-.763.325-1.425.854-1.954s1.19-.751 1.955-.854c.73-.098 1.656-.098 2.79-.098M18.5 7.946q.001-.64-.005-1.194c.572.004 1.003.018 1.35.065.461.062.659.169.789.3s.237.327.3.788C20.998 8.388 21 9.036 21 10v7c0 .964-.002 1.612-.067 2.095-.062.461-.169.659-.3.789s-.327.237-.788.3c-.446.06-1.032.065-1.877.066.239-.415.364-.888.434-1.407.098-.73.098-1.657.098-2.79zm-3.107 12.22c-.619.082-1.443.084-2.643.084h-4c-1.2 0-2.024-.002-2.643-.085-.598-.08-.89-.224-1.094-.428s-.348-.496-.428-1.094C4.502 18.024 4.5 17.2 4.5 16V8c0-1.2.002-2.024.085-2.643.08-.598.224-.89.428-1.094s.496-.348 1.094-.428c.619-.083 1.443-.085 2.643-.085h4c1.2 0 2.024.002 2.643.085.598.08.89.224 1.094.428s.348.496.428 1.094C16.998 5.976 17 6.8 17 8v8c0 1.2-.002 2.024-.085 2.643-.08.598-.224.89-.428 1.094s-.496.348-1.094.428M14.5 11a.75.75 0 0 0-1.5 0v2a.75.75 0 0 0 1.5 0z" clip-rule="evenodd"/></svg>