<svg xmlns="http://www.w3.org/2000/svg" width="25" height="24" fill="none"><path fill="#141B34" fill-rule="evenodd" d="M6.168 19.75h12.25V21a.75.75 0 0 0 1.5 0v-1.28c.985-.06 1.658-.24 2.194-.776.806-.805.806-1.92.806-3.944V7c0-2.023 0-3.138-.806-3.944-.805-.806-1.92-.806-3.944-.806h-12c-2.023 0-3.138 0-3.944.806-.806.805-.806 1.92-.806 3.944v8c0 2.023 0 3.138.806 3.944.535.536 1.208.716 2.194.776V21a.75.75 0 0 0 1.5 0v-1.25zM3.284 4.116c.352-.351 1.138-.366 2.884-.366h12c1.746 0 2.533.014 2.884.366s.366 1.138.366 2.884v8c0 1.746-.014 2.532-.366 2.884s-1.138.366-2.884.366h-12c-1.746 0-2.532-.015-2.884-.366-.351-.352-.366-1.138-.366-2.884V7c0-1.746.015-2.533.366-2.884M18.418 12c0 .415.336.746.75.746v-.001c.414 0 .75-.34.75-.754a.75.75 0 0 0-1.5 0zm0-2.996c0 .414.336.746.75.746s.75-.34.75-.754a.75.75 0 0 0-1.5 0zm0-2.996c0 .415.336.746.75.746v-.001c.414 0 .75-.34.75-.754a.75.75 0 0 0-1.5 0zm-4.25 10.742h-7c-1.076 0-1.725 0-2.237-.513-.513-.513-.513-1.162-.513-2.237V8c0-1.075 0-1.725.513-2.237.513-.513 1.162-.513 2.237-.513h7c1.075 0 1.725 0 2.237.513.513.513.513 1.162.513 2.237v6c0 1.075 0 1.725-.513 2.237-.513.513-1.162.513-2.237.513m-7-10c-.501 0-1.069 0-1.177.073-.073.108-.073.676-.073 1.177v6c0 .501 0 1.069.073 1.177.108.073.676.073 1.177.073h7c.501 0 1.069 0 1.177-.074.073-.108.073-.675.073-1.176V8c0-.501 0-1.069-.073-1.177-.108-.073-.675-.073-1.177-.073z" clip-rule="evenodd"/></svg>