<svg xmlns="http://www.w3.org/2000/svg" width="24" height="24" fill="none"><path fill="#141B34" fill-rule="evenodd" d="M20.579 7.515a.75.75 0 0 1 .173.53v9.953c0 2.027 0 3.143-.808 3.943-.801.807-1.917.807-3.942.807h-8c-2.025 0-3.14 0-3.946-.812-.804-.796-.804-1.912-.804-3.937v-8.34c0-.89 0-1.378.208-1.885.211-.5.553-.843 1.174-1.466l1.618-1.62v-.09c0-1.335 0-2.14.601-2.74.6-.6 1.409-.6 2.748-.6h5.554q.127 0 .264-.004h.009c.714-.015 1.79-.037 2.43.843.452.614.413 1.306.382 1.864v.016c-.016.281-.031.548.023.734.016.056.114.173.194.267zm-4.577 13.733h-5.251v-7.136a5 5 0 0 0 1.934-.11.58.58 0 0 1 .634.208l.693.917c.568.733 1.454 1.09 2.321.928l.865-.17c.18-.034.385.072.552.287.592.753 1.108 1.148 1.502 1.355v.471c0 1.745-.015 2.531-.368 2.881-.351.354-1.137.369-2.882.369m3.25-5.624q-.15-.158-.32-.376c-.515-.663-1.267-.978-2.016-.836l-.864.17c-.31.057-.628-.083-.848-.366l-.69-.912a2.09 2.09 0 0 0-2.219-.75c-.562.152-1.208.125-1.544.028V9.658c0-.36 0-.653-.014-.91h8.515zm-.855-8.376h-8.159c-.205-.274-.483-.553-.869-.94L7.752 4.689V4.6c0-.883 0-1.52.161-1.68.16-.16.801-.16 1.688-.16h5.554q.147-.001.301-.005h.004c.588-.013 1.017-.004 1.187.23.126.171.12.453.095.897-.022.38-.046.81.078 1.244.105.363.325.626.486.818l.001.001zm-12.7.118.009-.008v-.001l1.297-1.298L8.3 7.357l.008.009c.525.527.761.769.849.977.092.224.096.545.096 1.315v11.59h-1.25c-1.744 0-2.53-.015-2.886-.373-.349-.346-.364-1.132-.364-2.877v-8.34c0-.77.004-1.091.093-1.308.09-.215.327-.457.852-.984" clip-rule="evenodd"/></svg>