<svg xmlns="http://www.w3.org/2000/svg" width="25" height="24" fill="none"><path fill="#141B34" fill-rule="evenodd" d="M1.966 10.27c.146.148.34.222.533.222h.002a.75.75 0 0 0 .527-.218L4.864 8.46c-.017.232-.039.473-.065.71a.75.75 0 0 0 1.491.164c.291-2.629-.015-2.935-.219-3.135H6.07c-.175-.174-.586-.574-3.216-.262a.75.75 0 1 0 .177 1.49c.273-.032.554-.057.82-.074L1.972 9.208a.75.75 0 0 0-.006 1.061M6.93 5.293c.128.126.384.376 1.553.376.423 0 .965-.032 1.663-.115a.75.75 0 0 0-.177-1.49c-.273.032-.554.057-.82.074l1.878-1.856a.75.75 0 1 0-1.055-1.067L8.136 3.031c.017-.232.04-.473.065-.709a.75.75 0 0 0-1.49-.165c-.293 2.63.013 2.935.217 3.135zm12.743 16.959a.75.75 0 0 0 1.499.001v-1.56c0-.244.08-.502.227-.742 1.246-2.025 2.227-5.073 1.711-6.668a1 1 0 0 0-.038-.095c-.539-1.114-1.628-2.025-3.239-2.706a13.5 13.5 0 0 0-2.688-.798l.882-4.386a2.15 2.15 0 0 0-.316-1.627 2.6 2.6 0 0 0-1.646-1.104c-1.34-.283-2.64.48-2.9 1.702l-1.83 8.609-1.634-1.04a3.2 3.2 0 0 0-1-.495c-.86-.244-1.674-.04-2.294.579-1.197 1.191-.564 2.69-.059 3.322l3.905 4.998c.16.202.25.444.263.699l.071 1.317a.749.749 0 1 0 1.498-.08l-.07-1.317a2.73 2.73 0 0 0-.579-1.541l-3.912-5.008c-.102-.13-.582-.806-.059-1.328.527-.524 1.21-.043 1.337.055a1 1 0 0 0 .066.046l2.571 1.637a.75.75 0 0 0 1.137-.477l2.055-9.666c.086-.405.601-.655 1.124-.545.297.063.552.229.698.454a.66.66 0 0 1 .105.504l-1.037 5.16a.75.75 0 0 0 .642.891c1.648.207 4.65 1.018 5.533 2.746.182.696-.09 2.966-1.574 5.375a2.93 2.93 0 0 0-.449 1.529z" clip-rule="evenodd"/></svg>