<svg xmlns="http://www.w3.org/2000/svg" width="25" height="24" fill="none"><path fill="#141B34" fill-rule="evenodd" d="M9.419 17c0 1.256.49 2.4 1.289 3.25h-5.79v-11h1.25a.75.75 0 0 0 0-1.5h-1.25c-.905 0-1.504 0-1.705-.155a.8.8 0 0 1-.14-.139c-.154-.202-.154-.8-.154-1.706s0-1.504.154-1.705q.06-.08.139-.14c.202-.155.8-.155 1.706-.155h12.25c1.09 0 1.811 0 2.03.219.22.22.22.941.22 2.031v2.372c0 .816 0 1.356-.127 1.546a.7.7 0 0 1-.205.205c-.19.127-.728.127-1.545.127h-.577c-.363 0-.563 0-.681-.023a1.26 1.26 0 0 1-.81-.547c-.062-.098-.131-.27-.255-.577l-.013-.033-.006-.015-.002-.006c-.086-.214-.143-.355-.236-.501a1.76 1.76 0 0 0-1.13-.765c-.168-.033-.316-.033-.56-.033h-1.102c-1.075 0-1.724 0-2.237.513-.513.512-.513 1.162-.513 2.237zm1.499.001a3.254 3.254 0 0 0 3.17 3.249h.36a4.25 4.25 0 0 1-1.003-2.75c0-.113-.005-.218-.01-.342-.005-.107-.01-.23-.014-.384a5 5 0 0 1 .054-.964c.056-.327.176-.72.464-1.04.314-.347.748-.52 1.249-.52h1.73v-2.5c-.427 0-.67-.002-.924-.051a2.78 2.78 0 0 1-1.781-1.204c-.144-.224-.236-.452-.402-.866l-.007-.016-.014-.035c-.037-.092-.076-.19-.091-.216a.25.25 0 0 0-.16-.106 4 4 0 0 0-.27-.005h-1.101c-.501 0-1.07 0-1.177.074-.073.108-.073.674-.073 1.175V17m9.232-2.751H18.42v-2.509c.65-.022 1.094-.099 1.5-.371q.37-.248.618-.617c.38-.569.381-1.213.381-2.381V6c0-1.568 0-2.431-.659-3.092-.66-.658-1.523-.658-3.091-.658H4.918c-1.298 0-2.013 0-2.62.465a2.3 2.3 0 0 0-.415.415c-.465.606-.465 1.321-.465 2.62s0 2.014.466 2.621q.18.233.415.414c.32.245.67.361 1.12.416V20.25h-1.25a.75.75 0 0 0 0 1.5h12l-.001.001.039-.001h7.962a.75.75 0 1 0 0-1.5h-1.28a4.25 4.25 0 0 0 1.004-2.75c0-.113.004-.218.01-.342.005-.107.01-.23.014-.384a5 5 0 0 0-.054-.964c-.056-.327-.176-.72-.464-1.04-.314-.347-.748-.52-1.249-.52m-4.962 1.5h4.962c.077 0 .113.012.122.016a.03.03 0 0 1 .014.01c.017.019.065.093.098.287.033.187.039.416.033.676l-.01.296v.001c-.007.165-.014.34-.014.464 0 1.524-1.225 2.75-2.724 2.75s-2.724-1.226-2.724-2.75c0-.125-.007-.299-.014-.464l-.01-.297c-.006-.26 0-.489.033-.676.033-.194.081-.268.098-.287a.03.03 0 0 1 .014-.01.3.3 0 0 1 .122-.016M17.177 7a1 1 0 0 0 0-2h-.01a1 1 0 1 0 0 2z" clip-rule="evenodd"/></svg>