<svg xmlns="http://www.w3.org/2000/svg" width="25" height="24" fill="none"><path fill="#141B34" fill-rule="evenodd" d="M17.218 6.47a.75.75 0 1 0 1.06 1.06L21.9 3.907l.1 2.6a.75.75 0 1 0 1.499-.057L23.38 3.37c-.003-.511-.162-1.005-.531-1.381-.37-.376-.867-.553-1.393-.591l-.018-.001-3.125-.147a.75.75 0 0 0-.07 1.498l2.572.121zM2 12C2 6.063 6.813 1.25 12.75 1.25q1.104.002 2.15.215a.75.75 0 0 1-.3 1.47 9.25 9.25 0 1 0 7.214 7.214.75.75 0 1 1 1.471-.298A11 11 0 0 1 23.5 12c0 5.937-4.813 10.75-10.75 10.75S2 17.937 2 12m10.75-4.75a.75.75 0 0 1 .75.75v.335c.789.18 1.485.645 1.815 1.345a.75.75 0 0 1-1.357.64c-.117-.249-.54-.57-1.208-.57-.406 0-.744.124-.964.29-.22.164-.286.335-.286.46s.066.296.286.46c.22.166.558.29.964.29.699 0 1.36.211 1.864.59.504.377.886.957.886 1.66s-.382 1.283-.886 1.66a2.95 2.95 0 0 1-1.114.506V16a.75.75 0 0 1-1.5 0v-.335c-.789-.18-1.485-.645-1.815-1.345a.75.75 0 0 1 1.357-.64c.117.249.54.57 1.208.57.406 0 .744-.124.964-.29.22-.164.286-.335.286-.46s-.066-.296-.286-.46c-.22-.166-.558-.29-.964-.29-.699 0-1.36-.211-1.864-.59-.504-.377-.886-.957-.886-1.66s.382-1.283.886-1.66A2.95 2.95 0 0 1 12 8.333V8a.75.75 0 0 1 .75-.75" clip-rule="evenodd"/></svg>