<svg xmlns="http://www.w3.org/2000/svg" width="25" height="24" fill="none"><path fill="#141B34" fill-rule="evenodd" d="M11.203 3.25h3.095c1.839 0 3.283 0 4.421.129 1.163.13 2.105.405 2.888 1.023q.353.278.65.612c.666.747.964 1.653 1.105 2.764.138 1.08.138 2.445.138 4.17V15a.75.75 0 0 1-1.5 0v-3c0-1.789-.001-3.059-.126-4.032-.121-.953-.35-1.522-.737-1.956q-.208-.234-.46-.433c-.47-.372-1.095-.593-2.126-.71-1.044-.118-2.404-.119-4.301-.119h-3c-1.897 0-3.256.001-4.301.12-1.03.116-1.655.337-2.127.71q-.25.197-.46.432c-.386.434-.615 1.003-.736 1.956C3.5 8.94 3.5 10.21 3.5 12s.001 3.059.126 4.032c.121.953.35 1.522.737 1.956q.208.234.46.433c.47.372 1.095.593 2.126.71 1.045.118 2.404.119 4.301.119h1.5a.75.75 0 0 1 0 1.5h-1.547c-1.84 0-3.284 0-4.422-.129-1.163-.13-2.105-.405-2.888-1.023a5 5 0 0 1-.65-.612c-.666-.747-.964-1.653-1.105-2.764C2 15.142 2 13.777 2 12.052v-.105c0-1.724 0-3.09.138-4.17.141-1.11.439-2.016 1.105-2.763q.297-.334.65-.612c.783-.618 1.725-.892 2.888-1.023 1.138-.129 2.582-.129 4.422-.129M15 18.5a.75.75 0 0 1 .75-.75h7a.75.75 0 0 1 0 1.5h-7a.75.75 0 0 1-.75-.75M6.25 11a1 1 0 1 1 0 2h-.009a1 1 0 1 1 0-2zm14 1a1 1 0 0 0-1-1h-.009a1 1 0 1 0 0 2h.009a1 1 0 0 0 1-1M11 12a1.75 1.75 0 1 1 3.5 0 1.75 1.75 0 0 1-3.5 0m1.75-3.25a3.25 3.25 0 1 0 0 6.5 3.25 3.25 0 0 0 0-6.5" clip-rule="evenodd"/></svg>