<svg xmlns="http://www.w3.org/2000/svg" width="25" height="24" fill="none"><path fill="#141B34" fill-rule="evenodd" d="M13.068 4.68c1.217-.57 2.857-.93 4.682-.93 1.012 0 1.97.11 2.833.308.608.14.74.18.943.34.112.09.291.315.353.444.106.224.121.43.121 1.272V11.5a.75.75 0 0 0 1.5 0V6.008c0-.69.001-1.247-.267-1.81a3.1 3.1 0 0 0-.777-.975c-.488-.387-.933-.488-1.48-.613l-.058-.014a14.3 14.3 0 0 0-3.168-.346c-2.008 0-3.87.395-5.317 1.07-1.218.57-2.857.93-4.683.93-1.012 0-1.97-.11-2.832-.308C3.59 3.638 2 4.547 2 6.114v10.877c0 .69-.001 1.248.267 1.812l.673-.32-.673.32a3.1 3.1 0 0 0 .777.974c.488.387.933.488 1.48.613l.059.014c.977.223 2.047.346 3.167.346 2.009 0 3.87-.395 5.318-1.07a.75.75 0 1 0-.635-1.36c-1.218.57-2.857.93-4.683.93-1.012 0-1.97-.11-2.832-.308-.609-.14-.74-.18-.944-.34l-.465.587.466-.588a1.7 1.7 0 0 1-.354-.443c-.106-.224-.12-.43-.12-1.272V6.114c0-.402.488-.846 1.082-.71.977.223 2.047.346 3.167.346 2.009 0 3.87-.395 5.318-1.07M20 14a.75.75 0 0 0-1.5 0v2.75h-2.75a.75.75 0 0 0 0 1.5h2.75V21a.75.75 0 0 0 1.5 0v-2.75h2.75a.75.75 0 0 0 0-1.5H20zm-7.25-4.25a1.75 1.75 0 1 0 0 3.5 1.75 1.75 0 0 0 0-3.5M9.5 11.5a3.25 3.25 0 1 1 6.5 0 3.25 3.25 0 0 1-6.5 0m-2.25 1a1 1 0 1 0-2 0v.009a1 1 0 1 0 2 0z" clip-rule="evenodd"/></svg>