<svg xmlns="http://www.w3.org/2000/svg" width="25" height="24" fill="none"><path fill="#141B34" fill-rule="evenodd" d="M12.75 1.25a.75.75 0 0 1 .75.75v4A.75.75 0 0 1 12 6V2a.75.75 0 0 1 .75-.75m-4 2A.75.75 0 0 1 9.5 4v2A.75.75 0 0 1 8 6V4a.75.75 0 0 1 .75-.75m8 0a.75.75 0 0 1 .75.75v2A.75.75 0 0 1 16 6V4a.75.75 0 0 1 .75-.75M6.483 6.343a.75.75 0 0 1-.576.89c-.677.145-1.118.37-1.46.707-.42.414-.673.98-.807 1.968-.138 1.01-.14 2.34-.14 4.218 0 1.877.002 3.209.14 4.219.134.986.387 1.553.808 1.967.422.416 1.003.667 2.011.8 1.029.137 2.385.138 4.291.138h4c1.907 0 3.262-.002 4.29-.138 1.009-.133 1.59-.383 2.012-.8.421-.414.674-.98.808-1.968.138-1.01.14-2.34.14-4.218 0-1.877-.002-3.209-.14-4.218-.134-.987-.387-1.554-.808-1.968-.34-.336-.782-.562-1.46-.707a.75.75 0 0 1 .315-1.466c.872.186 1.6.515 2.198 1.104.75.738 1.084 1.676 1.242 2.834.153 1.122.153 2.556.153 4.364v.114c0 1.808 0 3.242-.153 4.365-.159 1.157-.492 2.095-1.242 2.833-.75.737-1.697 1.064-2.867 1.218-1.139.151-2.594.151-4.432.151h-4.112c-1.838 0-3.293 0-4.431-.15-1.17-.155-2.119-.482-2.868-1.219-.75-.738-1.084-1.676-1.242-2.834C2 17.426 2 15.991 2 14.183v-.114c0-1.808 0-3.242.153-4.364.158-1.158.492-2.096 1.242-2.834.598-.589 1.326-.918 2.198-1.104a.75.75 0 0 1 .89.576M19.25 13a1 1 0 1 1 0 2h-.009a1 1 0 1 1 0-2zM7.26 14a1 1 0 0 0-1-1h-.009a1 1 0 1 0 0 2h.009a1 1 0 0 0 1-1M11 14a1.75 1.75 0 1 1 3.5 0 1.75 1.75 0 0 1-3.5 0m1.75-3.25a3.25 3.25 0 1 0 0 6.5 3.25 3.25 0 0 0 0-6.5" clip-rule="evenodd"/></svg>