<svg xmlns="http://www.w3.org/2000/svg" width="25" height="24" fill="none"><path fill="#141B34" fill-rule="evenodd" d="M13.067 5.18c1.218-.57 2.857-.93 4.683-.93 1.012 0 1.97.11 2.833.308.664.153.966.393 1.132.647.183.283.285.712.285 1.409v10.772c0 .402-.49.846-1.083.71a14.3 14.3 0 0 0-3.167-.346c-2.008 0-3.87.395-5.317 1.07-1.218.57-2.857.93-4.683.93-1.012 0-1.97-.11-2.833-.308-.664-.153-.966-.393-1.131-.647-.184-.283-.286-.712-.286-1.409V6.614c0-.402.49-.846 1.083-.71.976.223 2.047.346 3.167.346 2.008 0 3.87-.395 5.317-1.07m4.683-2.43c-2.008 0-3.87.395-5.317 1.07-1.218.57-2.857.93-4.683.93-1.012 0-1.97-.11-2.833-.308C3.591 4.138 2 5.047 2 6.614v10.772c0 .797.107 1.58.528 2.227.44.675 1.138 1.08 2.055 1.29.976.224 2.047.347 3.167.347 2.008 0 3.87-.395 5.317-1.07 1.218-.57 2.857-.93 4.683-.93 1.012 0 1.97.11 2.833.308 1.326.304 2.917-.605 2.917-2.172V6.614c0-.797-.107-1.58-.528-2.227-.44-.675-1.138-1.08-2.055-1.29a14.3 14.3 0 0 0-3.167-.347M11 12a1.75 1.75 0 1 1 3.5 0 1.75 1.75 0 0 1-3.5 0m1.75-3.25a3.25 3.25 0 1 0 0 6.5 3.25 3.25 0 0 0 0-6.5M6.25 12a1 1 0 0 1 1 1v.009a1 1 0 1 1-2 0V13a1 1 0 0 1 1-1m14-1.008a1 1 0 1 0-2 0v.01a1 1 0 1 0 2 0z" clip-rule="evenodd"/></svg>