<svg xmlns="http://www.w3.org/2000/svg" width="25" height="24" fill="none"><path fill="#141B34" fill-rule="evenodd" d="M14.298 2.25h-3.095c-1.84 0-3.284 0-4.422.129-1.163.13-2.105.405-2.888 1.023q-.353.278-.65.612c-.666.747-.964 1.653-1.105 2.764C2 7.858 2 9.223 2 10.948v.105c0 1.724 0 3.09.138 4.17.141 1.11.439 2.016 1.105 2.763q.297.334.65.612c.783.618 1.725.892 2.888 1.023 1.138.129 2.582.129 4.422.129h1.547a.75.75 0 0 0 0-1.5h-1.5c-1.897 0-3.256-.001-4.301-.12-1.03-.116-1.655-.337-2.127-.71a3.6 3.6 0 0 1-.46-.432c-.386-.434-.615-1.003-.736-1.956C3.5 14.06 3.5 12.79 3.5 11s.001-3.059.126-4.032c.121-.953.35-1.522.737-1.956q.208-.234.46-.433c.47-.372 1.095-.593 2.126-.71 1.045-.118 2.404-.119 4.301-.119h3c1.897 0 3.256.001 4.301.12 1.03.116 1.655.337 2.127.71q.25.197.46.432c.386.434.615 1.003.736 1.956C22 7.94 22 9.21 22 11a.75.75 0 0 0 1.5 0v-.053c0-1.724 0-3.09-.138-4.17-.141-1.11-.439-2.016-1.105-2.763a5 5 0 0 0-.65-.612c-.783-.618-1.725-.892-2.888-1.023-1.138-.129-2.582-.129-4.422-.129M20 14a.75.75 0 0 0-1.5 0v2.75h-2.75a.75.75 0 0 0 0 1.5h2.75V21a.75.75 0 0 0 1.5 0v-2.75h2.75a.75.75 0 0 0 0-1.5H20zM7.25 11a1 1 0 0 0-1-1h-.009a1 1 0 1 0 0 2h.009a1 1 0 0 0 1-1M11 11a1.75 1.75 0 1 1 3.5 0 1.75 1.75 0 0 1-3.5 0m1.75-3.25a3.25 3.25 0 1 0 0 6.5 3.25 3.25 0 0 0 0-6.5" clip-rule="evenodd"/></svg>