<svg xmlns="http://www.w3.org/2000/svg" width="25" height="24" fill="none"><path fill="#141B34" fill-rule="evenodd" d="M17.75 3.75c-1.825 0-3.465.36-4.682.93-1.448.675-3.31 1.07-5.318 1.07-1.12 0-2.19-.123-3.167-.346-.594-.136-1.083.308-1.083.71v10.772c0 .843.015 1.048.121 1.272.062.129.241.354.353.443l-.465.588.466-.588c.203.16.334.201.943.34.862.198 1.82.309 2.832.309 1.826 0 3.465-.36 4.683-.93a.75.75 0 1 1 .635 1.36c-1.448.675-3.31 1.07-5.318 1.07-1.12 0-2.19-.123-3.167-.346l-.059-.014c-.547-.125-.992-.226-1.48-.613a3.1 3.1 0 0 1-.777-.974l.673-.32-.673.32c-.268-.564-.268-1.121-.267-1.812V6.114c0-1.567 1.591-2.476 2.918-2.172.862.197 1.82.308 2.832.308 1.826 0 3.465-.36 4.683-.93 1.447-.675 3.309-1.07 5.317-1.07 1.12 0 2.19.123 3.168.346l.058.014c.547.125.992.226 1.48.613.293.23.617.638.777.974.268.564.268 1.121.267 1.811V12a.75.75 0 0 1-1.5 0V6.114c0-.843-.015-1.048-.121-1.272a1.7 1.7 0 0 0-.353-.443c-.203-.16-.335-.201-.943-.34a12.8 12.8 0 0 0-2.833-.309M15 18a.75.75 0 0 1 .75-.75h7a.75.75 0 0 1 0 1.5h-7A.75.75 0 0 1 15 18m-4-6a1.75 1.75 0 1 1 3.5 0 1.75 1.75 0 0 1-3.5 0m1.75-3.25a3.25 3.25 0 1 0 0 6.5 3.25 3.25 0 0 0 0-6.5M6.25 12a1 1 0 0 1 1 1v.009a1 1 0 1 1-2 0V13a1 1 0 0 1 1-1m14-1.008a1 1 0 1 0-2 0v.01a1 1 0 1 0 2 0z" clip-rule="evenodd"/></svg>