<svg xmlns="http://www.w3.org/2000/svg" width="25" height="24" fill="none"><path fill="#141B34" fill-rule="evenodd" d="M8.75 17.25a.75.75 0 0 1 .75.75v2A.75.75 0 0 1 8 20v-2a.75.75 0 0 1 .75-.75m4 0a.75.75 0 0 1 .75.75v4a.75.75 0 0 1-1.5 0v-4a.75.75 0 0 1 .75-.75m4 0a.75.75 0 0 1 .75.75v2a.75.75 0 0 1-1.5 0v-2a.75.75 0 0 1 .75-.75m-10.267.407a.75.75 0 0 0-.576-.89c-.677-.146-1.118-.37-1.46-.707-.42-.414-.673-.98-.807-1.968-.138-1.01-.14-2.34-.14-4.218s.002-3.209.14-4.219c.134-.986.387-1.553.808-1.968s1.003-.666 2.011-.8c1.029-.136 2.385-.137 4.291-.137h4c1.907 0 3.262.001 4.29.138 1.009.133 1.59.383 2.012.8.421.414.674.98.808 1.967.138 1.01.14 2.341.14 4.219 0 1.877-.002 3.209-.14 4.218-.134.987-.387 1.554-.808 1.968-.34.336-.782.561-1.46.707a.75.75 0 0 0 .315 1.466c.872-.187 1.6-.515 2.198-1.104.75-.738 1.084-1.676 1.242-2.834.153-1.123.153-2.556.153-4.364v-.114c0-1.808 0-3.242-.153-4.365-.159-1.157-.492-2.095-1.242-2.834-.75-.737-1.697-1.063-2.867-1.218-1.139-.15-2.594-.15-4.432-.15h-4.112c-1.838 0-3.293 0-4.431.15-1.17.155-2.119.481-2.868 1.218-.75.74-1.084 1.677-1.242 2.834C2 6.575 2 8.01 2 9.817v.114c0 1.808 0 3.242.153 4.364.158 1.158.492 2.096 1.242 2.834.598.589 1.326.917 2.198 1.104a.75.75 0 0 0 .89-.576M19.25 11a1 1 0 1 0 0-2h-.009a1 1 0 1 0 0 2zM7.26 10a1 1 0 0 1-1 1h-.009a1 1 0 1 1 0-2h.009a1 1 0 0 1 1 1M11 10a1.75 1.75 0 1 0 3.5 0 1.75 1.75 0 0 0-3.5 0m1.75 3.25a3.25 3.25 0 1 1 0-6.5 3.25 3.25 0 0 1 0 6.5" clip-rule="evenodd"/></svg>