<svg xmlns="http://www.w3.org/2000/svg" width="25" height="24" fill="none"><path fill="#141B34" fill-rule="evenodd" d="M17.75 2.75c-1.825 0-3.465.36-4.682.93-1.448.675-3.31 1.07-5.318 1.07-1.12 0-2.19-.123-3.167-.346-.594-.136-1.083.308-1.083.71v10.772c0 .843.015 1.048.121 1.272.062.129.241.354.353.443l-.465.588.466-.588c.203.16.334.201.943.34.862.198 1.82.309 2.832.309 1.396 0 2.687-.211 3.765-.567a.75.75 0 0 1 .47 1.424c-1.242.41-2.693.643-4.235.643-1.12 0-2.19-.123-3.167-.346l-.059-.014c-.547-.125-.992-.226-1.48-.613a3.1 3.1 0 0 1-.777-.974l.673-.32-.673.32c-.268-.564-.268-1.121-.267-1.812V5.115c0-1.567 1.591-2.476 2.918-2.172.862.197 1.82.308 2.832.308 1.826 0 3.465-.36 4.683-.93 1.447-.675 3.309-1.07 5.317-1.07 1.12 0 2.19.123 3.168.346l.058.014c.547.125.992.226 1.48.613.293.23.617.638.777.974.268.564.268 1.121.267 1.811V11.5a.75.75 0 0 1-1.5 0V5.114c0-.843-.015-1.048-.121-1.272a1.7 1.7 0 0 0-.353-.443c-.203-.16-.335-.201-.943-.34a12.8 12.8 0 0 0-2.833-.309m-5 6a1.75 1.75 0 1 0 0 3.5 1.75 1.75 0 0 0 0-3.5M9.5 10.5a3.25 3.25 0 1 1 6.5 0 3.25 3.25 0 0 1-6.5 0m-2.25 1a1 1 0 1 0-2 0v.009a1 1 0 1 0 2 0zm12-3.008a1 1 0 0 1 1 1v.01a1 1 0 1 1-2 0v-.01a1 1 0 0 1 1-1m1.342 4.956a.75.75 0 0 0-1.129.974h-1.835C15.637 14.422 14 16.012 14 18c0 .446.083.874.235 1.27a.75.75 0 1 0 1.4-.54A2 2 0 0 1 15.5 18c0-1.136.94-2.078 2.128-2.078h3.129c.102 0 .246 0 .367-.017.099-.013.526-.079.711-.517.187-.444-.073-.798-.135-.879a3 3 0 0 0-.25-.268l-.018-.018-.017-.017zm2.673 3.283a.75.75 0 0 0-1.4.538c.087.227.135.473.135.731 0 1.136-.94 2.078-2.128 2.078h-3.129c-.102 0-.246 0-.367.017-.099.013-.526.079-.71.517-.188.445.073.798.134.879.075.097.178.198.25.268l.018.018.018.017.823.758a.75.75 0 0 0 1.128-.974h1.835c1.992 0 3.628-1.59 3.628-3.578a3.5 3.5 0 0 0-.235-1.27" clip-rule="evenodd"/></svg>