<svg xmlns="http://www.w3.org/2000/svg" width="24" height="24" fill="none"><path fill="#141B34" fill-rule="evenodd" d="M17.15 6.62a.75.75 0 0 0-1.285 0 2 2 0 0 1-.28.316c-.168.165-.393.365-.687.619l-.534.457a108 108 0 0 0-1.932 1.682c-1.05 1.09-1.607 2.181-1.627 3.312-.011.637.15 1.234.425 1.795h-.205a.75.75 0 0 0 0 1.5h.32v4.793l.002.045.004.069c.007.129.016.299.041.446.033.19.108.462.332.692.225.231.509.329.767.371.245.04.528.04.841.018h6.5l.069-.003c.052-.005.09-.005.147-.006.046 0 .104-.002.192-.005.144-.006.368-.02.592-.1.246-.086.514-.26.68-.582.146-.282.168-.593.136-.887v-4.85h.349a.75.75 0 0 0 0-1.5h-.201a4.3 4.3 0 0 0 .409-1.946c-.04-1.159-.591-2.262-1.643-3.2a97 97 0 0 0-1.959-1.696l-.48-.407a16 16 0 0 1-.693-.62 2 2 0 0 1-.28-.312m-4.304 14.452v-4.77h7.302v4.893l.001.028-.087.002-.064.002a4 4 0 0 0-.197.008h-2.55l.023-1.37a.75.75 0 0 0-1.5-.026l-.023 1.396h-2.445l-.054.003a4 4 0 0 1-.396.01l-.006-.1zm-.541-8.04c-.01.549.205 1.124.679 1.77h7.084c.45-.637.66-1.285.638-1.893-.024-.683-.342-1.42-1.143-2.134-.758-.677-1.394-1.216-1.92-1.662l-.495-.421a21 21 0 0 1-.639-.564q-.271.254-.63.562l-.554.474c-.505.431-1.112.949-1.833 1.592-.881.92-1.177 1.662-1.187 2.276M2.75 9.14c0-3.514 2.868-6.387 6.198-6.387 1.739 0 3.354.78 4.504 2.04a.75.75 0 0 0 1.108-1.01c-1.41-1.545-3.416-2.53-5.612-2.53-4.19 0-7.698 3.576-7.698 7.887 0 4.424 3.592 7.378 6.578 9.293l.013.008.013.008c.332.194.71.297 1.094.297a.75.75 0 1 0 0-1.5.67.67 0 0 1-.326-.086C5.64 15.245 2.75 12.688 2.75 9.14m6.253-3.39a3.25 3.25 0 0 0-.649 6.434.75.75 0 1 0 .298-1.47 1.75 1.75 0 1 1 1.753-2.763.75.75 0 1 0 1.199-.901 3.25 3.25 0 0 0-2.6-1.3" clip-rule="evenodd"/></svg>