<svg xmlns="http://www.w3.org/2000/svg" width="25" height="24" fill="none"><path fill="#141B34" fill-rule="evenodd" d="M6.32 1.25h-.068c-.641 0-1.172 0-1.603.039-.45.04-.864.128-1.246.348-.441.253-.808.618-1.063 1.058-.22.382-.309.796-.35 1.244-.039.43-.039.96-.039 1.598v.068c0 .639 0 1.168.04 1.598.04.448.128.862.35 1.244.325.562.87 1.062 1.559 1.27a.75.75 0 1 0 .435-1.435c-.267-.08-.529-.297-.697-.588-.067-.115-.123-.283-.154-.627-.032-.354-.033-.815-.033-1.496s0-1.142.033-1.496c.031-.344.087-.512.154-.628.123-.211.3-.387.513-.51.116-.067.287-.123.632-.154.356-.032.82-.033 1.503-.033.684 0 1.147 0 1.503.033.346.031.516.087.633.154.275.158.486.4.573.644a.75.75 0 0 0 1.412-.507c-.227-.635-.71-1.134-1.238-1.437-.382-.22-.796-.308-1.245-.348-.432-.039-.963-.039-1.604-.039m4.87 4h.07c.816 0 1.479 0 2.014.049.554.05 1.045.156 1.493.415.527.304.964.742 1.268 1.268.254.44.361.92.413 1.46a.75.75 0 0 1-1.494.142c-.04-.433-.115-.674-.218-.852a1.97 1.97 0 0 0-.719-.719c-.182-.105-.428-.18-.878-.22-.46-.042-1.054-.043-1.914-.043s-1.454 0-1.914.042c-.449.041-.696.116-.878.221-.298.173-.546.42-.719.72-.105.181-.18.428-.22.877-.042.46-.043 1.055-.043 1.914 0 .86 0 1.454.043 1.914.04.45.115.696.22.878.173.299.42.547.72.719.178.103.418.177.852.218a.75.75 0 1 1-.143 1.494c-.54-.052-1.02-.16-1.46-.413a3.46 3.46 0 0 1-1.268-1.268c-.258-.448-.365-.94-.415-1.493-.049-.535-.049-1.198-.049-2.014v-.07c0-.816 0-1.479.049-2.014.05-.554.157-1.045.415-1.493a3.46 3.46 0 0 1 1.268-1.268c.449-.259.94-.365 1.493-.415.536-.049 1.198-.049 2.014-.049m5.975 5h.072c.998 0 1.797 0 2.44.058.663.06 1.233.187 1.75.485a4.05 4.05 0 0 1 1.482 1.482c.297.516.424 1.087.484 1.748.058.644.058 1.443.058 2.44v.073c0 .998 0 1.797-.058 2.44-.06.662-.187 1.233-.484 1.749a4.05 4.05 0 0 1-1.483 1.482c-.516.298-1.086.425-1.748.485-.644.058-1.443.058-2.44.058h-.073c-.997 0-1.797 0-2.44-.058-.662-.06-1.233-.187-1.749-.485a4.05 4.05 0 0 1-1.482-1.482c-.298-.516-.425-1.087-.485-1.748-.058-.644-.058-1.443-.058-2.44v-.073c0-.998 0-1.797.058-2.44.06-.662.187-1.233.485-1.749a4.05 4.05 0 0 1 1.482-1.482c.516-.298 1.087-.425 1.749-.485.643-.058 1.443-.058 2.44-.058m-2.305 1.552c-.558.05-.884.146-1.134.29a2.55 2.55 0 0 0-.933.933c-.144.25-.24.576-.29 1.134-.051.568-.052 1.3-.052 2.341s0 1.773.052 2.341c.05.558.146.884.29 1.134.224.388.546.71.933.933.25.144.576.24 1.134.29.568.051 1.3.052 2.341.052s1.773 0 2.341-.052c.558-.05.884-.146 1.134-.29a2.55 2.55 0 0 0 .934-.933c.144-.25.238-.576.289-1.134.052-.568.052-1.3.052-2.341s0-1.773-.052-2.341c-.05-.558-.145-.884-.29-1.134a2.55 2.55 0 0 0-.933-.933c-.25-.145-.576-.24-1.134-.29-.568-.051-1.299-.052-2.34-.052-1.043 0-1.774 0-2.342.052" clip-rule="evenodd"/></svg>