<svg xmlns="http://www.w3.org/2000/svg" width="25" height="24" fill="none"><path fill="#141B34" fill-rule="evenodd" d="M7.71 1.25h.071c.912 0 1.648 0 2.241.054.611.055 1.145.172 1.629.452.574.331 1.05.808 1.382 1.382.223.387.343.804.41 1.267a.75.75 0 1 1-1.484.216c-.05-.339-.124-.559-.225-.733a2.3 2.3 0 0 0-.833-.833c-.218-.126-.507-.211-1.014-.257-.518-.047-1.185-.048-2.142-.048s-1.624 0-2.141.048c-.507.046-.797.131-1.015.257-.346.2-.633.487-.833.833-.126.218-.211.507-.257 1.015-.047.517-.048 1.184-.048 2.141s0 1.624.048 2.142c.046.507.131.796.257 1.014.2.346.487.633.833.833.174.1.394.175.733.225a.75.75 0 0 1-.216 1.484c-.463-.067-.88-.187-1.267-.41a3.8 3.8 0 0 1-1.382-1.382c-.28-.484-.397-1.018-.452-1.63-.054-.592-.054-1.328-.054-2.24v-.072c0-.912 0-1.648.054-2.24.055-.612.173-1.145.452-1.63A3.8 3.8 0 0 1 3.84 1.756c.485-.28 1.018-.397 1.63-.452.592-.054 1.328-.054 2.24-.054m4.999 5h.071c.913 0 1.648 0 2.241.054.611.055 1.145.172 1.629.452.574.331 1.05.808 1.382 1.382.225.39.344.81.412 1.277a.75.75 0 1 1-1.485.213c-.05-.343-.125-.565-.226-.74a2.3 2.3 0 0 0-.833-.833c-.218-.126-.507-.211-1.014-.257-.518-.047-1.185-.048-2.141-.048-.957 0-1.624 0-2.142.048-.507.046-.796.131-1.014.257-.346.2-.633.487-.833.833-.126.218-.211.507-.257 1.014-.047.518-.048 1.185-.048 2.141 0 .957 0 1.624.048 2.142.046.507.131.796.257 1.014.2.346.487.633.833.833.175.101.397.176.74.226a.75.75 0 1 1-.213 1.484c-.467-.067-.888-.186-1.277-.411a3.8 3.8 0 0 1-1.382-1.382c-.28-.485-.397-1.018-.452-1.629-.054-.593-.054-1.328-.054-2.24v-.072c0-.913 0-1.648.054-2.241.055-.611.172-1.145.452-1.629A3.8 3.8 0 0 1 8.84 6.756c.484-.28 1.018-.397 1.629-.452.593-.054 1.328-.054 2.24-.054m5.028 5h-.072c-.904 0-1.633 0-2.221.053-.607.055-1.137.172-1.618.45a3.75 3.75 0 0 0-1.372 1.372c-.278.481-.395 1.011-.45 1.617-.053.589-.053 1.318-.053 2.222v.072c0 .904 0 1.633.053 2.222.055.606.172 1.136.45 1.617a3.75 3.75 0 0 0 1.372 1.373c.481.277 1.011.394 1.618.449.588.053 1.317.053 2.221.053h.072c.904 0 1.634 0 2.222-.053.606-.055 1.136-.172 1.617-.45a3.75 3.75 0 0 0 1.373-1.372c.278-.481.394-1.011.449-1.617.053-.589.053-1.318.053-2.222v-.072c0-.904 0-1.633-.053-2.222-.055-.606-.171-1.136-.45-1.617a3.75 3.75 0 0 0-1.372-1.373c-.481-.277-1.01-.394-1.617-.449-.588-.053-1.318-.053-2.222-.053m-3.16 1.801c.214-.124.5-.208 1.002-.254.513-.046 1.174-.047 2.122-.047.949 0 1.61 0 2.122.047.503.046.788.13 1.003.254.342.198.626.482.824.824.124.215.209.5.254 1.003.047.512.047 1.174.047 2.122s0 1.61-.047 2.122c-.046.503-.13.788-.254 1.003a2.25 2.25 0 0 1-.824.824c-.215.124-.5.208-1.003.254-.512.046-1.173.047-2.122.047s-1.61 0-2.122-.047c-.502-.046-.788-.13-1.003-.254a2.25 2.25 0 0 1-.823-.824c-.124-.215-.21-.5-.255-1.003-.046-.512-.047-1.174-.047-2.122s0-1.61.047-2.122c.046-.502.13-.788.255-1.003a2.25 2.25 0 0 1 .823-.824" clip-rule="evenodd"/></svg>