<svg xmlns="http://www.w3.org/2000/svg" width="24" height="24" fill="none"><path fill="#141B34" fill-rule="evenodd" d="M9.566 20.75a5.3 5.3 0 0 1-2.116-.445 22 22 0 0 1-2.115-1.056 21 21 0 0 1-1.978-1.32C1.437 16.505.72 14.012 1.652 12c.45-.97 1.06-2.246 1.786-3.517.58-1.004 1.238-2.024 2.14-3.31 1.267-1.818 3.78-2.444 5.97-1.485q.842.367 1.627.786c.436-.61.868-.987 1.47-1.152 1.077-.294 2.009.265 3.7 1.28l2.076 1.239a.65.65 0 0 0 .504.07.69.69 0 0 0 .421-.333.75.75 0 1 1 1.31.732c-.293.524-.77.897-1.342 1.05a2.14 2.14 0 0 1-1.662-.231l-2.077-1.241c-1.44-.864-2.095-1.24-2.533-1.121-.185.05-.37.213-.572.477.38.248.767.519 1.172.82 1.92 1.424 2.637 3.917 1.704 5.928-.45.97-1.06 2.246-1.786 3.517-.578 1.003-1.238 2.023-2.14 3.309-.867 1.246-2.32 1.933-3.854 1.933zM10.95 5.066c.497.216.98.448 1.44.691l-.314.565-.545.977a1.7 1.7 0 0 0-.52-.172l-.026-.004a1.77 1.77 0 0 0-1.278.348c-.267.203-.423.47-.658.875l-.547.95c-.265.454-.424.728-.467 1.072-.061.459.065.932.348 1.298l.01.013c.217.269.517.44.932.677.435.259.72.42 1.066.473l.028.004q.104.012.207.012c.388 0 .762-.124 1.072-.36.276-.208.434-.48.695-.927l.003-.005.505-.88c.269-.46.424-.738.47-1.078a1.74 1.74 0 0 0-.344-1.29 1.5 1.5 0 0 0-.214-.227l.575-1.03q.154-.28.293-.527.514.338 1.069.75c1.33.987 1.863 2.746 1.238 4.092-.438.943-1.032 2.182-1.728 3.4-.554.962-1.191 1.947-2.068 3.197-.848 1.216-2.627 1.633-4.142.97-.69-.3-1.353-.63-1.965-.98a20 20 0 0 1-1.834-1.224c-1.33-.987-1.863-2.745-1.238-4.092.438-.943 1.031-2.182 1.727-3.401.555-.962 1.192-1.947 2.07-3.196.846-1.216 2.625-1.633 4.14-.971m-.16 6.224a.28.28 0 0 1-.183.054l-.001-.002c-.085-.023-.346-.177-.495-.265l-.026-.016-.013-.007-.023-.013c-.179-.102-.43-.246-.487-.303a.25.25 0 0 1-.042-.174c.016-.068.148-.295.276-.514l.504-.876.044-.075c.11-.191.225-.387.274-.44a.28.28 0 0 1 .174-.05c.073.024.273.138.466.248l.072.04.032.02c.177.101.42.241.472.298q.06.077.049.178c-.022.084-.183.36-.28.527l-.504.877-.004.006c-.127.218-.258.443-.304.487" clip-rule="evenodd"/></svg>