<svg xmlns="http://www.w3.org/2000/svg" width="24" height="24" fill="none"><path fill="#141B34" fill-rule="evenodd" d="M12 22.75c-.467 0-.778-.113-1.248-.283l-.003-.001-.014-.005c-6.277-2.264-8.502-8.511-5.95-16.71.203-.652.327-1.047.67-1.366.338-.324.792-.429 1.69-.636l.016-.004c.953-.22 1.922-.707 2.881-1.446h.001c.915-.7 1.372-1.049 1.957-1.049.584 0 1.04.349 1.951 1.045l.004.003c.986.753 1.93 1.227 2.883 1.447l.016.004c.898.207 1.352.312 1.69.636.342.319.466.713.67 1.363 2.553 8.204.332 14.451-5.94 16.713h-.003c-.46.167-.795.288-1.273.288zM6.477 5.482c-.057.063-.166.41-.262.716-1.104 3.547-1.262 6.769-.458 9.315.842 2.665 2.688 4.528 5.487 5.537l.015.006c.424.154.543.194.74.194s.347-.048.765-.199c2.8-1.01 4.643-2.872 5.483-5.537.802-2.545.641-5.767-.463-9.317l-.007-.022c-.094-.299-.198-.629-.255-.693-.118-.067-.549-.167-1.004-.272l-.017-.004c-1.167-.27-2.298-.831-3.457-1.717l-.005-.004-.289-.22v3.01c.151.018.285.051.421.109.424.173.761.508.94.941.14.324.14.645.14 1.174v1c0 .53 0 .85-.14 1.174a1.72 1.72 0 0 1-.948.945 1.5 1.5 0 0 1-.413.107V13a.75.75 0 0 1-1.5 0v-1.275a1.6 1.6 0 0 1-.422-.11 1.72 1.72 0 0 1-.94-.941c-.139-.324-.139-.645-.139-1.174v-1c0-.53 0-.85.14-1.174.178-.433.514-.768.947-.945.133-.056.264-.089.414-.107v-3.01q-.146.109-.295.224c-1.128.87-2.292 1.449-3.457 1.718l-.017.004c-.456.105-.887.205-1.005.272zm5.562 4.769c.247 0 .49-.001.556-.02a.23.23 0 0 0 .13-.131l.007-.016c.018-.06.018-.326.018-.583V8.5c0-.257 0-.523-.02-.591a.24.24 0 0 0-.133-.139c-.069-.02-.337-.02-.597-.02s-.527 0-.596.02a.23.23 0 0 0-.13.131l-.007.016c-.018.06-.018.326-.018.583V9.5c0 .257 0 .523.02.591q.043.103.133.139c.066.019.312.02.56.02a1 1 0 0 1 .077 0" clip-rule="evenodd"/></svg>