<svg xmlns="http://www.w3.org/2000/svg" width="24" height="24" fill="none"><path fill="#141B34" fill-rule="evenodd" d="M9.173 22.556c1.089.134 1.987.196 2.826.196.84 0 1.738-.063 2.827-.196a5.94 5.94 0 0 0 5.18-5.405c.12-1.514.243-3.308.243-5.15s-.123-3.637-.243-5.15a5.94 5.94 0 0 0-5.18-5.405A23 23 0 0 0 12 1.25c-.84 0-1.738.063-2.827.196a5.94 5.94 0 0 0-5.18 5.405c-.12 1.514-.243 3.308-.243 5.15s.123 3.637.243 5.15a5.94 5.94 0 0 0 5.18 5.405m.182-19.62a22 22 0 0 1 2.644-.184c.777 0 1.617.058 2.644.184 2.042.25 3.705 1.986 3.868 4.035.118 1.484.239 3.242.239 5.031s-.121 3.547-.239 5.03c-.163 2.05-1.826 3.785-3.868 4.036a22 22 0 0 1-2.644.184c-.777 0-1.617-.058-2.644-.184-2.043-.251-3.706-1.986-3.868-4.035-.118-1.484-.239-3.242-.239-5.031s.121-3.547.239-5.031c.162-2.049 1.825-3.784 3.868-4.035m3.382 8.47c.213-.24.45-.507.718-.785a.75.75 0 0 1 1.08 1.04c-.265.277-.508.55-.722.792-.663.748-1.155 1.303-1.799 1.303a1 1 0 0 1-.103-.005c-.565-.022-.931-.428-1.527-1.09l-.004-.003-.013-.015c-.238-.263-.533-.59-.91-.979a.751.751 0 0 1 1.077-1.045c.274.283.505.532.703.75V7.625c-.206.232-.437.49-.694.757a.75.75 0 0 1-.54.23v-.001a.751.751 0 0 1-.54-1.271c.245-.255.47-.507.672-.734l.044-.05c.699-.787 1.21-1.363 1.907-1.295.567.015.939.427 1.54 1.092l.002.003c.238.264.535.592.913.983a.751.751 0 0 1-1.077 1.045 32 32 0 0 1-.727-.775z" clip-rule="evenodd"/></svg>