<svg xmlns="http://www.w3.org/2000/svg" width="24" height="24" fill="none"><path fill="#141B34" fill-rule="evenodd" d="M9.566 20.75a5.3 5.3 0 0 1-2.116-.445 22 22 0 0 1-2.115-1.056 21 21 0 0 1-1.978-1.32C1.437 16.505.72 14.012 1.652 12c.45-.97 1.06-2.246 1.786-3.517.58-1.004 1.238-2.024 2.14-3.31 1.267-1.818 3.78-2.444 5.97-1.485.55.239 1.085.497 1.597.77.348-.503.775-.94 1.388-1.12 1.113-.343 2.061.284 3.782 1.422l.003.002 2.104 1.39a.54.54 0 0 0 .45.079.76.76 0 0 0 .46-.404.75.75 0 0 1 1.336.682c-.3.587-.814 1.015-1.415 1.173q-.261.069-.524.069V7.75c-.397 0-.787-.117-1.133-.346l-2.105-1.39c-1.407-.93-2.1-1.37-2.525-1.24-.167.05-.332.19-.525.451.388.253.785.531 1.2.84 1.922 1.424 2.638 3.917 1.705 5.928-.45.97-1.06 2.246-1.786 3.517-.578 1.003-1.238 2.023-2.14 3.309-.867 1.246-2.32 1.933-3.854 1.933zm-6.553-8.117c-.625 1.347-.092 3.105 1.238 4.092.651.483 1.251.884 1.834 1.225.612.349 1.275.68 1.965.98 1.515.662 3.294.245 4.141-.971.877-1.25 1.515-2.235 2.07-3.196.695-1.22 1.289-2.458 1.727-3.401.625-1.346.091-3.105-1.239-4.092a20 20 0 0 0-1.834-1.225 20 20 0 0 0-1.964-.98c-1.516-.662-3.295-.245-4.142.97-.877 1.25-1.514 2.235-2.069 3.197-.696 1.219-1.289 2.458-1.727 3.4m7.245-2.357a.75.75 0 0 0 1.025-.274l1-1.73a.75.75 0 1 0-1.3-.751l-1 1.73a.75.75 0 0 0 .275 1.025" clip-rule="evenodd"/></svg>