<svg xmlns="http://www.w3.org/2000/svg" width="24" height="24" fill="none"><path fill="#141B34" fill-rule="evenodd" d="M10.756 22.47c.467.168.777.28 1.243.28l-.003-.001c.478 0 .813-.121 1.275-.288 6.273-2.262 8.494-8.509 5.941-16.713-.204-.65-.328-1.044-.67-1.363-.338-.324-.792-.429-1.69-.636l-.016-.004c-.954-.22-1.897-.694-2.883-1.447l-.004-.003C13.04 1.599 12.582 1.25 12 1.25c-.586 0-1.043.35-1.958 1.048V2.3c-.96.739-1.929 1.226-2.882 1.446l-.016.004c-.898.207-1.352.312-1.69.636-.343.319-.467.714-.67 1.366-2.552 8.199-.327 14.446 5.95 16.71l.016.006zM6.214 6.197c.096-.306.205-.653.262-.716h-.002c.118-.067.55-.167 1.005-.272l.017-.004c1.165-.269 2.33-.848 3.457-1.718l.296-.226v2.012c-.15.018-.28.05-.414.107a1.72 1.72 0 0 0-.948.945c-.139.324-.139.645-.139 1.174v1c0 .53 0 .85.14 1.174.178.433.515.768.94.941.136.058.27.09.421.11V12a.75.75 0 0 0 1.5 0v-1.275c.15-.018.28-.05.413-.107.433-.177.77-.512.948-.945.14-.324.14-.645.14-1.174v-1c0-.53 0-.85-.14-1.174a1.72 1.72 0 0 0-.94-.941 1.6 1.6 0 0 0-.42-.11V3.266l.285.217.007.006c1.16.886 2.29 1.447 3.457 1.717l.017.004c.455.105.886.205 1.004.272.057.064.161.394.255.693l.007.022c1.104 3.55 1.265 6.772.463 9.317-.839 2.665-2.683 4.527-5.482 5.537-.418.151-.569.199-.765.199s-.315-.041-.739-.194l-.016-.006c-2.799-1.009-4.645-2.872-5.487-5.537-.804-2.546-.646-5.768.458-9.315m6.38 3.033c-.065.019-.31.02-.556.02h-.077c-.248 0-.494-.001-.56-.02a.24.24 0 0 1-.133-.139c-.02-.068-.02-.334-.02-.591V7.5c0-.257 0-.522.018-.583l.007-.016a.23.23 0 0 1 .13-.131c.07-.02.337-.02.596-.02.26 0 .528 0 .597.02a.24.24 0 0 1 .133.139c.02.068.02.334.02.591v1.001c0 .257 0 .522-.018.583l-.007.016a.23.23 0 0 1-.13.131m-1.71 10.048c.321.195.626.378 1.115.378.49 0 .794-.183 1.115-.378a6.7 6.7 0 0 0 1.991-1.836.75.75 0 0 0-1.21-.885c-.452.616-.958 1.085-1.546 1.431l-.009.005c-.269.163-.289.163-.34.163-.053 0-.073 0-.342-.163l-.004-.003-.005-.002c-.588-.346-1.094-.814-1.545-1.431a.75.75 0 1 0-1.21.885c.565.773 1.234 1.39 1.99 1.836" clip-rule="evenodd"/></svg>