<svg xmlns="http://www.w3.org/2000/svg" width="25" height="24" fill="none"><path fill="#141B34" fill-rule="evenodd" d="M12.666 2.75a2.25 2.25 0 1 0 0 4.5 2.25 2.25 0 0 0 0-4.5M8.916 5a3.75 3.75 0 1 1 7.5 0 3.75 3.75 0 0 1-7.5 0m4.5 7a.75.75 0 1 0-1.5 0v8.724c-.154-.15-.335-.334-.557-.562L9.696 18.5a.75.75 0 1 0-1.06 1.061l1.653 1.653.03.032c.398.407.75.768 1.076 1.02.358.276.763.485 1.27.485.509 0 .914-.21 1.271-.485.326-.252.678-.613 1.076-1.02l.031-.032 1.653-1.653a.75.75 0 0 0-1.06-1.06l-1.657 1.655-.006.007c-.222.228-.403.412-.557.562z" clip-rule="evenodd"/></svg>