<svg xmlns="http://www.w3.org/2000/svg" width="25" height="24" fill="none"><path fill="#141B34" fill-rule="evenodd" d="M12.666 11.25a.75.75 0 0 0 0 1.5h8.724c-.15.154-.334.335-.562.557l-1.663 1.663a.75.75 0 1 0 1.06 1.06l1.654-1.653.032-.031c.407-.398.768-.75 1.02-1.076.276-.357.485-.762.485-1.27s-.21-.913-.485-1.27c-.252-.327-.613-.679-1.02-1.076l-.032-.032-1.653-1.652a.75.75 0 0 0-1.06 1.06l1.655 1.657.007.006c.228.222.412.403.562.557zm-9.25.75a2.25 2.25 0 1 1 4.5 0 2.25 2.25 0 0 1-4.5 0m2.25-3.75a3.75 3.75 0 1 0 0 7.5 3.75 3.75 0 0 0 0-7.5" clip-rule="evenodd"/></svg>