<svg xmlns="http://www.w3.org/2000/svg" width="25" height="24" fill="none"><path fill="#141B34" fill-rule="evenodd" d="M6.167 9.03a.75.75 0 1 0-1.06-1.06L3.452 9.622l-.032.032c-.407.397-.768.75-1.02 1.076-.276.357-.485.762-.485 1.27s.21.913.485 1.27c.252.327.613.678 1.02 1.076l.032.031 1.653 1.653a.75.75 0 0 0 1.06-1.06l-1.655-1.657-.007-.006a32 32 0 0 1-.562-.557h8.724a.75.75 0 0 0 0-1.5H3.942c.15-.154.334-.335.562-.557zM21.916 12a2.25 2.25 0 1 0-4.5 0 2.25 2.25 0 0 0 4.5 0m-2.25-3.75a3.75 3.75 0 1 1 0 7.5 3.75 3.75 0 0 1 0-7.5" clip-rule="evenodd"/></svg>