<svg xmlns="http://www.w3.org/2000/svg" width="25" height="24" fill="none"><path fill="#141B34" fill-rule="evenodd" d="M20.166 3.12a.75.75 0 0 1-.913.154v1.693h1.709a.75.75 0 0 1 1.221-.84l.757.804a1.15 1.15 0 0 1 .013 1.562l-.761.837a.75.75 0 0 1-1.214-.863h-1.725v1.724a.75.75 0 0 1 .872 1.206l-.805.756a1.15 1.15 0 0 1-1.561.013l-.837-.76a.75.75 0 0 1 .831-1.23V6.466h-1.69a.75.75 0 0 1-1.206.872l-.756-.805a1.15 1.15 0 0 1-.013-1.561l.76-.838a.75.75 0 0 1 1.231.832h1.674V3.29a.75.75 0 0 1-.84-1.221l.804-.757a1.15 1.15 0 0 1 1.562-.013l.837.761a.75.75 0 0 1 .05 1.06M8.236 14.23V3.805c.018-.5.404-.826.974-.834.277-.004.528.079.703.217.157.124.286.317.312.633v5.92a.75.75 0 0 0 .846.744c.264-.034.894-.018 1.713.118.802.133 1.719.37 2.55.733.838.368 1.532.84 1.959 1.414.405.543.6 1.214.396 2.103l-.145.638c-.191.857-.769 2.397-1.368 3.252-.452.646-.592 1.292-.622 1.898-.015.293-.005.582.008.845l.006.132c.01.22.02.422.02.63a.75.75 0 0 0 1.5 0c0-.248-.011-.492-.022-.712l-.006-.12a7 7 0 0 1-.008-.7c.02-.41.106-.76.353-1.113.743-1.061 1.383-2.8 1.603-3.784l.143-.63c.304-1.324.009-2.444-.655-3.335-.642-.862-1.595-1.468-2.56-1.891-.972-.427-2.015-.692-2.907-.84a12 12 0 0 0-1.304-.144V3.793l-.001-.049c-.05-.745-.382-1.338-.88-1.732a2.6 2.6 0 0 0-1.656-.54c-1.122.016-2.41.76-2.452 2.3v8.557l-.301-.322-.015-.016c-.883-.891-1.827-1.28-2.726-1.115-.88.162-1.484.816-1.78 1.504-.455 1.059.134 2.08.57 2.662l3.661 4.91c.29.389.447.86.447 1.345v.95a.75.75 0 0 0 1.5 0v-.95a3.75 3.75 0 0 0-.745-2.242l-3.662-4.91c-.41-.55-.495-.934-.393-1.172.156-.361.414-.574.674-.622.24-.044.708.012 1.38.688l1.592 1.703a.75.75 0 0 0 1.298-.512" clip-rule="evenodd"/></svg>