<svg xmlns="http://www.w3.org/2000/svg" width="25" height="24" fill="none"><path fill="#141B34" fill-rule="evenodd" d="M11.36 3.838c.221-.228.402-.412.556-.562V12a.75.75 0 0 0 1.5 0V3.276c.154.15.335.334.557.562l1.663 1.663a.75.75 0 1 0 1.06-1.06l-1.653-1.654-.03-.032c-.398-.407-.75-.768-1.076-1.02-.358-.276-.763-.485-1.27-.485-.508 0-.914.21-1.271.485-.327.252-.679.613-1.076 1.02l-.031.032L8.636 4.44a.75.75 0 1 0 1.06 1.06l1.657-1.655zm1.306 17.412a2.25 2.25 0 1 0 0-4.5 2.25 2.25 0 0 0 0 4.5m3.75-2.25a3.75 3.75 0 1 1-7.5 0 3.75 3.75 0 0 1 7.5 0" clip-rule="evenodd"/></svg>