<svg xmlns="http://www.w3.org/2000/svg" width="24" height="24" fill="none"><path fill="#141B34" fill-rule="evenodd" d="M11.505 15.064a3.6 3.6 0 0 0-.107-1.32 25 25 0 0 0 1.973-.13c.393.843.802 2.365.87 3.877.036.823-.032 1.592-.23 2.215-.196.619-.501 1.04-.909 1.277-1.22.71-3.011-.056-3.339-1.842-.042-.23.014-.489.216-.868.1-.19.226-.387.373-.613l.071-.11c.124-.189.26-.397.388-.61.307-.515.613-1.138.694-1.876m4.234 2.36c-.065-1.455-.41-2.955-.828-4.02 1.371-.235 2.662-.583 3.737-1.033.902-.379 1.703-.851 2.265-1.432.574-.594.939-1.35.812-2.225-.682-4.723-4.849-7.462-9.71-7.462-4.942 0-9.165 2.832-9.74 7.693a3.17 3.17 0 0 0 .768 2.52c.571.662 1.393 1.139 2.311 1.48 1.268.469 2.825.718 4.453.787.204.463.242.843.207 1.168-.047.424-.226.828-.49 1.27-.111.185-.227.363-.351.552l-.078.12a10 10 0 0 0-.44.726c-.27.505-.498 1.129-.367 1.844.485 2.643 3.31 4.182 5.568 2.868.827-.48 1.315-1.27 1.585-2.121.269-.848.339-1.807.298-2.735M12.015 2.752c-4.402 0-7.788 2.464-8.25 6.37-.065.548.087.985.414 1.363.346.401.913.762 1.697 1.053 1.57.581 3.787.8 6.067.684 2.274-.116 4.518-.56 6.124-1.235.807-.338 1.403-.713 1.768-1.091.353-.365.447-.68.406-.968-.547-3.79-3.894-6.176-8.226-6.176M16 5.252c.744 0 1.425.364 1.905.845.48.48.845 1.161.845 1.905a.75.75 0 0 1-1.5 0c0-.256-.136-.575-.405-.845-.27-.27-.589-.405-.845-.405a.75.75 0 0 1 0-1.5" clip-rule="evenodd"/></svg>