<svg xmlns="http://www.w3.org/2000/svg" width="24" height="24" fill="none"><path fill="#141B34" fill-rule="evenodd" d="M20.25 8.256V13a3.75 3.75 0 1 0 1.5 3V2.734c0-.139 0-.312-.02-.456s-.09-.513-.458-.723c-.373-.214-.731-.081-.861-.026-.135.056-.286.145-.41.217l-.026.016c-1.367.804-4.147 2.073-8.04 2.405l-.041.003c-.456.04-.86.074-1.182.14-.34.069-.712.195-1.001.51-.283.307-.38.673-.422 1.012-.04.313-.039.7-.039 1.125v8.301a4.25 4.25 0 1 0 1.5 3.24v-7.762a22.2 22.2 0 0 0 9.5-2.48m0-1.7V3.328c-1.632.878-4.437 2.014-8.188 2.334-.509.043-.825.071-1.05.117a.8.8 0 0 0-.196.058.7.7 0 0 0-.039.179c-.026.21-.027.502-.027.983v2.237c4.749-.168 8.057-1.888 9.5-2.68m-9.428-.73-.003.005zm-.013.015-.002.001-.002.001h.001zM15.75 16a2.25 2.25 0 1 1 4.5 0 2.25 2.25 0 0 1-4.5 0m-12 2.5a2.75 2.75 0 1 1 5.5 0 2.75 2.75 0 0 1-5.5 0" clip-rule="evenodd"/></svg>