<svg xmlns="http://www.w3.org/2000/svg" width="24" height="24" fill="none"><path fill="#141B34" fill-rule="evenodd" d="M14.87 4.314c-1.725-1.33-3.68-1.857-5.476-1.404-1.79.453-3.189 1.821-3.97 3.768-.784 1.949-.928 4.443-.198 7.011s2.18 4.67 3.904 5.998c1.725 1.33 3.68 1.857 5.476 1.403 1.79-.452 3.189-1.82 3.97-3.767.784-1.949.928-4.443.198-7.012s-2.18-4.67-3.904-5.997m.916-1.189c1.998 1.54 3.62 3.923 4.431 6.776.81 2.854.672 5.692-.248 7.982-.922 2.292-2.646 4.068-4.996 4.662-2.344.592-4.762-.131-6.758-1.67-1.999-1.539-3.621-3.922-4.432-6.776-.81-2.853-.672-5.691.248-7.98.922-2.293 2.646-4.07 4.996-4.663 2.344-.592 4.762.13 6.759 1.67m-4.557 3.176a.75.75 0 0 1 .915.315l4.65 7.774.019.031c.116.194.24.4.318.587.092.217.174.519.071.862s-.337.548-.53.679c-.17.113-.386.22-.59.32l-.034.017-.909.447-.037.018c-.248.122-.5.246-.722.318-.25.082-.603.145-.97-.031-.37-.178-.54-.496-.63-.745a6 6 0 0 1-.188-.76l-.008-.04-1.819-8.943a.75.75 0 0 1 .464-.849m1.88 4.852.945 4.64c.03.146.053.262.075.361.097-.044.208-.099.348-.168l.91-.447c.107-.052.192-.094.266-.132-.04-.07-.088-.149-.146-.247zM8.25 11a.25.25 0 1 1 .5 0 .25.25 0 0 1-.5 0m.25-1.75a1.75 1.75 0 1 0 0 3.5 1.75 1.75 0 0 0 0-3.5" clip-rule="evenodd"/></svg>