<svg xmlns="http://www.w3.org/2000/svg" width="24" height="24" fill="none"><path fill="#141B34" fill-rule="evenodd" d="M11.877 7.75c-.792 0-2.423-.078-3.258-.682-.382-.283-.467-.758-.26-1.417.216-.687.757-1.704 1.378-2.592 1.117-1.596 1.785-1.796 2.19-1.808.413-.013 1.087.148 2.218 1.669.613.824 1.177 1.816 1.437 2.527.1.272.4 1.096-.175 1.554l-.032.024c-.884.629-2.646.716-3.362.724h-.135zM9.822 6.004c.442.144 1.22.259 2.172.248.948-.011 1.725-.14 2.177-.293-.128-.343-.413-.932-.882-1.644-.616-.934-1.105-1.396-1.319-1.532-.21.145-.689.62-1.289 1.565-.458.72-.735 1.313-.859 1.656M17 15.402c.21.267.497.348.771.348v-.001c.319 0 .62-.11.765-.162h.002c.707-.256 1.702-.82 2.533-1.437 1.529-1.135 1.69-1.811 1.678-2.222-.012-.404-.212-1.071-1.801-2.185-.884-.62-1.9-1.16-2.588-1.377q-.999-.315-1.426.258c-.642.88-.69 2.663-.681 3.388.009.716.097 2.477.726 3.36zm.992-5.578c-.335.986-.308 3.327.05 4.349.342-.127.932-.412 1.646-.884.93-.615 1.393-1.103 1.53-1.318-.145-.211-.622-.688-1.562-1.287-.726-.46-1.321-.738-1.664-.86M6.228 15.75c-.319 0-.62-.11-.765-.162H5.46c-.708-.256-1.702-.82-2.532-1.437-1.53-1.135-1.69-1.811-1.678-2.221.012-.405.212-1.072 1.8-2.186.885-.62 1.9-1.16 2.589-1.377.664-.21 1.142-.124 1.422.252.646.887.695 2.668.686 3.394-.01.716-.097 2.476-.726 3.36l-.021.03c-.21.267-.497.348-.772.348zm-3.446-3.78c.137.216.599.704 1.53 1.319.714.472 1.305.758 1.646.884.358-1.021.383-3.355.048-4.348-.342.122-.937.398-1.662.859-.942.598-1.417 1.076-1.562 1.287m9.184 10.78h-.038c-.405-.011-1.073-.212-2.19-1.807-.623-.888-1.164-1.905-1.379-2.592-.207-.66-.122-1.134.253-1.412.892-.646 2.677-.695 3.4-.687.716.008 2.479.095 3.361.724l.032.024c.576.458.275 1.28.176 1.553-.26.712-.824 1.704-1.437 2.528-1.095 1.473-1.765 1.67-2.178 1.67M9.822 18c.124.344.401.936.858 1.655.6.944 1.079 1.42 1.29 1.565.213-.136.702-.6 1.318-1.532.47-.712.754-1.301.882-1.644-.452-.153-1.23-.282-2.177-.293-.953-.012-1.726.102-2.172.249zm-.572-6A2.754 2.754 0 0 0 12 14.75 2.754 2.754 0 0 0 14.75 12 2.754 2.754 0 0 0 12 9.25 2.754 2.754 0 0 0 9.25 12m1.5 0c0-.688.56-1.25 1.25-1.25.688 0 1.25.562 1.25 1.25 0 .69-.562 1.25-1.25 1.25-.69 0-1.25-.56-1.25-1.25" clip-rule="evenodd"/></svg>