<svg xmlns="http://www.w3.org/2000/svg" width="24" height="24" fill="none"><path fill="#141B34" fill-rule="evenodd" d="M2.755 3.046a.75.75 0 0 0-1.498-.092c-.119 1.936 1.18 5.704 6.569 7.422a.75.75 0 0 0 .455-1.429c-4.764-1.519-5.602-4.681-5.526-5.9m19.988-.092a.75.75 0 0 0-1.497.092c.075 1.22-.763 4.382-5.527 5.901a.75.75 0 0 0 .455 1.43c5.39-1.719 6.688-5.487 6.569-7.423M11.676 8.969a1 1 0 0 1 .04-.195l.018-.003c.062-.012.157-.021.307-.021a1.7 1.7 0 0 1 .325.024l.04.195.336 2.686c-.25.109-.476.243-.675.39l-.067.05-.067-.05a3.4 3.4 0 0 0-.597-.355zm2.219-.186.324 2.59c.586.02 1.225.195 1.886.597 1.178.716 1.8 2.182 1.58 3.8-.22 1.632-1.277 3.417-3.419 4.988l-.083.06c-.696.512-1.267.932-2.183.932s-1.487-.42-2.183-.931l-.083-.061c-2.141-1.57-3.198-3.356-3.419-4.988-.22-1.618.402-3.084 1.58-3.8.692-.42 1.36-.593 1.969-.6l.323-2.587c.057-.452.211-.924.641-1.23.388-.275.857-.303 1.213-.303s.825.028 1.213.304c.43.305.584.777.64 1.229m-2.858 4.466c-.49-.365-1.325-.628-2.363.003-.574.349-1.028 1.172-.873 2.317.154 1.132.92 2.585 2.82 3.979.805.59.996.702 1.38.702s.573-.112 1.378-.702c1.9-1.394 2.667-2.847 2.82-3.979.155-1.145-.298-1.968-.873-2.317-1.037-.631-1.872-.368-2.363-.003l-.017.013a7 7 0 0 1-.356.255c-.055.036-.127.079-.208.115a.9.9 0 0 1-.382.086.9.9 0 0 1-.382-.086 1.6 1.6 0 0 1-.207-.115c-.104-.067-.228-.16-.356-.255z" clip-rule="evenodd"/></svg>