<svg xmlns="http://www.w3.org/2000/svg" width="24" height="24" fill="none"><path fill="#141B34" fill-rule="evenodd" d="M12 3.25a.75.75 0 1 0 0 1.5.75.75 0 0 0 0-1.5M9.75 4a2.25 2.25 0 1 1 4.412.626l3.52 4.402a3.25 3.25 0 1 1-1.889 3.508l-2.691-.231a2.25 2.25 0 1 1-2.723-2.968l.727-3.272c-.32-.138-.6-.348-.822-.61L7.21 7.036q.039.226.039.464c0 .994-.528 1.865-1.318 2.348L8.52 16.75a2.74 2.74 0 0 1 1.952.834L14.05 14.9a.75.75 0 1 1 .9 1.2l-3.761 2.821q.06.28.061.579a2.75 2.75 0 1 1-4.182-2.349L4.48 10.25a2.75 2.75 0 1 1 2.084-4.568l3.186-1.64zm2.871 2.163-.727 3.272a2.26 2.26 0 0 1 1.246 1.367l2.754.237c.126-.407.33-.78.595-1.102l-3.248-4.06a2.2 2.2 0 0 1-.62.286m-1.636 4.587h.031a.75.75 0 1 1-.031 0m6.98-.162-.03.024a1.75 1.75 0 0 0-.683 1.297v.002L17.25 12a1.75 1.75 0 1 0 .716-1.412M4.5 6.25a1.25 1.25 0 1 0 0 2.5 1.25 1.25 0 0 0 0-2.5M7.25 19.5a1.25 1.25 0 1 1 2.5 0 1.25 1.25 0 0 1-2.5 0" clip-rule="evenodd"/></svg>