<svg xmlns="http://www.w3.org/2000/svg" width="25" height="24" fill="none"><path fill="#141B34" fill-rule="evenodd" d="M3.28 1.47a.75.75 0 0 0-1.06 1.06l1.279 1.28c-.218.4-.334.852-.4 1.347C3 5.887 3 6.813 3 7.947v8.107c0 1.133 0 2.058.098 2.79.103.763.325 1.425.854 1.954s1.19.751 1.955.854c.73.098 1.656.098 2.79.098h9.105c.899 0 1.648 0 2.242-.08a3.4 3.4 0 0 0 1.03-.286l1.146 1.146a.75.75 0 1 0 1.06-1.06l-1.585-1.586L5.013 3.202zm1.376 3.497a4 4 0 0 0-.071.39C4.502 5.976 4.5 6.8 4.5 8v8c0 1.2.002 2.024.085 2.643.08.598.224.89.428 1.094s.496.348 1.094.428c.619.083 1.443.085 2.643.085h4c1.2 0 2.024-.002 2.643-.085.598-.08.89-.224 1.094-.428.175-.174.303-.411.387-.84.077-.394.108-.9.12-1.593zm13.76 13.76q-.028.24-.07.457a3.4 3.4 0 0 1-.378 1.066c.845 0 1.43-.007 1.877-.067l.024-.003zM12.75 3.75c1.2 0 2.024.002 2.643.085.598.08.89.224 1.094.428s.348.496.428 1.094C16.998 5.976 17 6.8 17 8v5.11a.75.75 0 0 0 1.5 0V7.947q.001-.64-.005-1.194c.572.004 1.003.018 1.35.065.461.062.659.169.789.3s.237.327.3.788C20.998 8.388 21 9.036 21 10v6.997a.75.75 0 0 0 1.5 0V9.948c0-.898 0-1.648-.08-2.242-.084-.628-.27-1.195-.726-1.65-.455-.456-1.022-.642-1.65-.726-.454-.061-.998-.076-1.63-.079l-.012-.094c-.103-.764-.325-1.426-.854-1.955s-1.19-.751-1.955-.854c-.73-.098-1.656-.098-2.79-.098H8.748q-.6-.001-1.112.004a.75.75 0 0 0 .016 1.5q.496-.005 1.099-.004z" clip-rule="evenodd"/></svg>