<svg xmlns="http://www.w3.org/2000/svg" width="25" height="24" fill="none"><path fill="#141B34" fill-rule="evenodd" d="M7.25 2a.75.75 0 0 0-1.5 0v.432c-.898.156-1.649.456-2.255 1.063-.675.675-.97 1.528-1.11 2.565-.135 1.003-.135 2.282-.135 3.884v5.112c0 1.602 0 2.881.135 3.884.14 1.037.435 1.89 1.11 2.565s1.528.97 2.565 1.11c1.003.135 2.282.135 3.884.135H13a.75.75 0 0 0 0-1.5h-3c-1.671 0-2.849-.002-3.74-.122-.87-.116-1.355-.334-1.705-.683s-.567-.835-.684-1.704c-.12-.892-.121-2.07-.121-3.741v-5c0-1.671.002-2.849.121-3.74.117-.87.334-1.355.684-1.705.275-.274.633-.467 1.195-.594V4a.75.75 0 0 0 1.5 0v-.213C7.988 3.75 8.884 3.75 10 3.75h.75V4a.75.75 0 0 0 1.5 0v-.25H13c1.116 0 2.012 0 2.75.037V4a.75.75 0 0 0 1.5 0v-.039c.562.127.92.32 1.195.594.35.35.567.835.683 1.704.12.892.122 2.07.122 3.741a.75.75 0 0 0 1.5 0v-.056c0-1.602 0-2.881-.135-3.884-.14-1.037-.435-1.89-1.11-2.565-.607-.607-1.357-.907-2.255-1.063V2a.75.75 0 0 0-1.5 0v.285c-.774-.035-1.668-.035-2.694-.035h-.806V2a.75.75 0 0 0-1.5 0v.25h-.806c-1.026 0-1.92 0-2.694.035zM18 13.25a.75.75 0 0 1 .75.75v3.25H22a.75.75 0 0 1 0 1.5h-3.25V22a.75.75 0 0 1-1.5 0v-3.25H14a.75.75 0 0 1 0-1.5h3.25V14a.75.75 0 0 1 .75-.75m-10.5-4a.75.75 0 0 0 0 1.5h8a.75.75 0 0 0 0-1.5zm0 5a.75.75 0 0 0 0 1.5h4a.75.75 0 0 0 0-1.5z" clip-rule="evenodd"/></svg>