<svg xmlns="http://www.w3.org/2000/svg" width="24" height="24" fill="none"><path fill="#141B34" fill-rule="evenodd" d="M20.491 17.06c.14.13.32.19.5.19l-.01-.01c.21 0 .41-.08.56-.25.62-.69.8-1.35.65-2.34-.13-.86-.63-1.56-1.08-2.17-.1-.13-.2-.27-.29-.4-.52-.76-.56-1.62-.56-2.58 0-4.55-3.71-8.25-8.27-8.25-1.79 0-3.5.57-4.94 1.64a.75.75 0 0 0 .9 1.2 6.72 6.72 0 0 1 4.05-1.34c3.73 0 6.77 3.03 6.77 6.75 0 1.13.06 2.31.82 3.43.1.14.21.29.32.44.38.52.73 1.01.81 1.51.09.59 0 .79-.29 1.12-.27.31-.25.78.06 1.06M2.531 1.47l3.412 3.413a.8.8 0 0 1 .188.188l16.4 16.399c.29.29.29.77 0 1.06-.15.15-.34.22-.53.22s-.38-.07-.53-.22l-3.558-3.558q-.586.164-1.192.291c-.585 2.051-2.505 3.487-4.7 3.487h-.02c-2.201 0-4.12-1.423-4.698-3.48a18 18 0 0 1-3.151-.96c-1.72-.71-2.6-2.07-2.36-3.65.128-.855.622-1.536 1.066-2.147l.024-.033q.064-.09.126-.173.086-.115.164-.227c.51-.76.56-1.62.56-2.58 0-1.327.311-2.727.852-3.857L1.47 2.53a.754.754 0 0 1 0-1.06c.29-.29.77-.29 1.06 0m12.448 18.086c-.974.123-1.966.184-2.957.184l-.01.01a24 24 0 0 1-2.968-.187c.583 1.018 1.71 1.677 2.968 1.677 1.26 0 2.382-.662 2.967-1.684M5.733 6.793A8 8 0 0 0 5.242 9.5c0 1.12-.06 2.31-.82 3.42q-.106.156-.221.307l-.1.133-.006.01c-.378.516-.734 1.003-.813 1.51-.18 1.18.83 1.78 1.45 2.04 3.439 1.423 8.01 1.723 11.951.823z" clip-rule="evenodd"/></svg>