<svg xmlns="http://www.w3.org/2000/svg" width="24" height="24" fill="none"><path fill="#141B34" fill-rule="evenodd" d="M16.886 1.857a.75.75 0 0 0-.44-.105l-14 1a.75.75 0 0 0-.696.748v13c0 .17.058.335.164.468l4 5a.75.75 0 0 0 .685.275l15-2a.75.75 0 0 0 .651-.743v-14a.75.75 0 0 0-.364-.643zM5.75 6.875 3.25 5v11.237l2.5 3.125zm15 11.968-13.5 1.8V7.202l13.5-.9zM19.06 4.911l-12.332.822-2.171-1.628 11.76-.84zm-.51 4.538a.75.75 0 0 0-.1-1.497l-.994.066-.013.001-1.228.082a.75.75 0 1 0 .1 1.497l.435-.03v5.15l-4.431-6.01a.75.75 0 0 0-.654-.304l-.71.047-.012.001-1.493.1a.75.75 0 0 0 .1 1.497l.7-.047v7.242l-.85.113a.75.75 0 1 0 .2 1.487l2.97-.396a.75.75 0 0 0-.199-1.487l-.621.083v-6.58l5.146 6.981A.75.75 0 0 0 18.25 17V9.47z" clip-rule="evenodd"/></svg>