<svg xmlns="http://www.w3.org/2000/svg" width="24" height="24" fill="none"><path fill="#141B34" fill-rule="evenodd" d="M5.225 9.28c0-3.583 3.01-6.53 6.775-6.53s6.775 2.947 6.775 6.53c0 1.052.054 2.241.825 3.344l.003.003c.103.146.214.293.318.432l.074.098c.128.17.246.33.351.49.213.324.342.6.384.864.133.846-.42 1.537-1.442 1.947-4.283 1.723-10.293 1.723-14.576 0-1.02-.41-1.574-1.1-1.44-1.947.04-.263.17-.54.382-.863.105-.16.223-.32.352-.492l.074-.097c.104-.139.215-.286.318-.432l.003-.003c.77-1.103.824-2.292.824-3.345M12 1.25c-4.546 0-8.275 3.572-8.275 8.03 0 1.027-.07 1.793-.552 2.482-.089.125-.182.249-.285.385l-.082.109c-.13.174-.273.366-.405.568-.263.4-.522.885-.612 1.454-.292 1.859 1.056 3.047 2.364 3.572 4.642 1.867 11.053 1.867 15.695 0 1.307-.526 2.656-1.713 2.363-3.572-.09-.569-.349-1.055-.611-1.454a11 11 0 0 0-.406-.568l-.082-.11c-.102-.135-.196-.259-.284-.384-.482-.69-.553-1.455-.553-2.483 0-4.457-3.728-8.029-8.275-8.029M9.463 20.409a.75.75 0 1 0-.924 1.182c.931.727 2.146 1.159 3.462 1.159s2.53-.432 3.462-1.159a.75.75 0 0 0-.924-1.182c-.66.517-1.549.841-2.538.841-.99 0-1.877-.325-2.538-.841" clip-rule="evenodd"/></svg>