<svg xmlns="http://www.w3.org/2000/svg" width="24" height="24" fill="none"><path fill="#141B34" fill-rule="evenodd" d="M10.128 4.063c.952-.394 2.85-.64 5.323.686a6.58 6.58 0 0 1 2.684 2.692c1.236 2.317 1.27 4.354.76 5.46a.3.3 0 0 1-.089.124c-.3.224-.796.285-1.748-.17-.934-.445-2.073-1.282-3.422-2.406a8.7 8.7 0 0 1-1.16-1.17c-1.142-1.392-1.953-2.51-2.374-3.413s-.36-1.378-.134-1.691a.37.37 0 0 1 .16-.112m6.032-.636c-2.847-1.527-5.216-1.325-6.605-.75-.29.12-.585.318-.803.62-.482.669-.546 1.416-.375 2.17-1.128.392-2.317 1.026-3.372 1.8-1.133.832-2.16 1.862-2.783 2.987-.758 1.159-1.496 3.563-.464 7.104.09.386.216.972.296 1.52.04.281.067.535.072.74.004.17-.009.255-.012.28q-.003.012 0 .004a.75.75 0 0 0 .982.977q-.01.003.004 0c.024-.003.107-.015.273-.01.203.004.455.03.733.071.545.08 1.126.208 1.51.297 3.523 1.04 5.917.297 7.072-.467 1.119-.627 2.143-1.66 2.97-2.8.766-1.058 1.394-2.249 1.784-3.38.785.196 1.573.151 2.262-.363.26-.195.439-.449.554-.699.772-1.675.57-4.225-.8-6.793a8 8 0 0 0-.754-1.16c1.331-.742 2.487-.31 2.87-.045a.75.75 0 0 0 .854-1.233c-.803-.556-2.75-1.167-4.778.163a8 8 0 0 0-1.49-1.033m-.11 10.598c-1.025-.552-2.162-1.414-3.374-2.423a10.2 10.2 0 0 1-1.36-1.372c-1.018-1.241-1.86-2.365-2.391-3.366-.988.337-2.067.904-3.032 1.612-1.035.76-1.89 1.645-2.37 2.525l-.034.056c-.493.741-1.224 2.696-.285 5.9l.01.041c.093.399.234 1.044.325 1.665.034.239.063.483.077.715.23.015.472.043.708.078a21 21 0 0 1 1.698.337c3.182.944 5.12.21 5.856-.286l.056-.034c.874-.483 1.754-1.342 2.509-2.384.707-.975 1.273-2.066 1.607-3.064" clip-rule="evenodd"/></svg>