<svg xmlns="http://www.w3.org/2000/svg" width="25" height="24" fill="none"><path fill="#141B34" fill-rule="evenodd" d="M8.805 1.25h-.11c-1.367 0-2.47 0-3.337.117-.9.12-1.658.38-2.26.981-.602.602-.86 1.36-.981 2.26C2 5.475 2 6.578 2 7.945v8.11c0 1.367 0 2.47.117 3.337.12.9.38 1.658.981 2.26.602.602 1.36.86 2.26.982.867.116 1.97.116 3.337.116h10.107c.899 0 1.648 0 2.242-.08.628-.084 1.195-.27 1.65-.726.456-.455.642-1.022.726-1.65.08-.594.08-1.343.08-2.242v-6.104c0-.899 0-1.648-.08-2.242-.084-.628-.27-1.195-.726-1.65-.455-.456-1.022-.642-1.65-.726-.594-.08-1.343-.08-2.242-.08h-3.303c-.003-1.052-.02-1.927-.116-2.642-.12-.9-.38-1.658-.981-2.26-.602-.602-1.36-.86-2.26-.981-.867-.117-1.97-.117-3.337-.117m6.695 7.5v12.5h3.25c.964 0 1.612-.002 2.095-.067.461-.062.659-.169.789-.3s.237-.327.3-.788c.064-.483.066-1.131.066-2.095v-6c0-.964-.002-1.612-.067-2.095-.062-.461-.169-.659-.3-.789s-.327-.237-.788-.3c-.483-.064-1.131-.066-2.095-.066zM14 7.946c0-1.407-.003-2.392-.103-3.138-.099-.734-.28-1.122-.556-1.399-.277-.277-.665-.457-1.4-.556-.755-.101-1.756-.103-3.191-.103s-2.437.002-3.192.103c-.734.099-1.122.28-1.399.556-.277.277-.457.665-.556 1.4C3.502 5.562 3.5 6.564 3.5 8v8c0 1.435.002 2.436.103 3.192.099.734.28 1.122.556 1.399.277.277.665.457 1.4.556.754.101 1.756.103 3.191.103H14V7.946M6.25 6.25a.75.75 0 0 0 0 1.5h1a.75.75 0 0 0 0-1.5zm4 0a.75.75 0 0 0 0 1.5h1a.75.75 0 0 0 0-1.5zm-4 4a.75.75 0 0 0 0 1.5h1a.75.75 0 0 0 0-1.5zm4 0a.75.75 0 0 0 0 1.5h1a.75.75 0 0 0 0-1.5zm-4 4a.75.75 0 0 0 0 1.5h1a.75.75 0 0 0 0-1.5zm4 0a.75.75 0 0 0 0 1.5h1a.75.75 0 0 0 0-1.5zM17.5 11a.75.75 0 0 1 .75-.75h1a.75.75 0 0 1 0 1.5h-1a.75.75 0 0 1-.75-.75m0 4a.75.75 0 0 1 .75-.75h1a.75.75 0 0 1 0 1.5h-1a.75.75 0 0 1-.75-.75" clip-rule="evenodd"/></svg>