<svg xmlns="http://www.w3.org/2000/svg" width="24" height="24" fill="none"><path fill="#141B34" fill-rule="evenodd" d="M11.25 10.749h-.07c-1.53 0-2.372 0-3.087-.592-.706-.598-.906-1.457-1.269-3.015V7.14c-.568-2.43-.88-3.765-.117-4.812C7.493 1.25 8.803 1.25 11.18 1.25h1.641c2.378 0 3.688 0 4.474 1.078.762 1.047.45 2.381-.115 4.804v.002c-.364 1.565-.565 2.424-1.264 3.017-.722.598-1.565.598-3.095.598h-.071v1.522c1.022.061 2.12.241 3.11.514.671.187 1.25.725 1.585 1.381.47-.18.805-.636.805-1.168v-1A2.754 2.754 0 0 1 21 9.248a.75.75 0 0 1 0 1.5c-.689 0-1.25.561-1.25 1.25v1a2.756 2.756 0 0 1-2.016 2.65c-.078.649-.619 1.1-1.316 1.1H12.75v2.553c1.418.2 2.753.966 3.821 2.208a.75.75 0 0 1-1.138.978c-.77-.895-1.703-1.47-2.683-1.665v1.176a.75.75 0 0 1-1.5 0v-1.175c-.979.196-1.91.77-2.679 1.664a.75.75 0 0 1-1.138-.978c1.067-1.24 2.4-2.007 3.817-2.208v-2.553H7.583c-.697 0-1.239-.452-1.317-1.1a2.756 2.756 0 0 1-2.016-2.65v-1c0-.689-.561-1.25-1.25-1.25a.75.75 0 0 1 0-1.5 2.754 2.754 0 0 1 2.75 2.75v1c0 .533.335.989.806 1.168.334-.656.913-1.194 1.584-1.38a15.5 15.5 0 0 1 3.11-.515zm.713-1.5h-.783c-1.271 0-1.845-.01-2.125-.242-.307-.261-.46-.866-.773-2.215-.465-1.992-.721-3.09-.363-3.581.323-.443 1.233-.462 3.262-.462l-.002-.001h1.64c2.029 0 2.939.019 3.262.462.358.49.102 1.586-.364 3.581l-.001.007C15.403 8.14 15.252 8.745 14.95 9c-.286.238-.86.248-2.131.248h-.857M12 15.248h4.24c-.066-.427-.421-.918-.78-1.017a13.6 13.6 0 0 0-3.458-.483c-1.087 0-2.348.176-3.461.483-.357.1-.713.589-.78 1.017z" clip-rule="evenodd"/></svg>