<svg xmlns="http://www.w3.org/2000/svg" width="24" height="24" fill="none"><path fill="#141B34" fill-rule="evenodd" d="M7.326 5.675a.75.75 0 0 0-.652-1.35l-1.595.77-.054.025c-.756.365-1.397.674-1.843.974s-.932.746-.932 1.448v9.633c0 1.12.819 1.863 1.824 2.465 1.019.61 2.517 1.24 4.41 2.037l.062.026.148.063c1.42.599 2.334.984 3.306.984s1.886-.386 3.306-.984l.148-.062.062-.026c1.893-.798 3.391-1.429 4.41-2.038 1.005-.602 1.824-1.345 1.824-2.465V7.542c0-.702-.486-1.147-.932-1.448s-1.087-.61-1.843-.974l-.054-.026-1.55-.748a.75.75 0 1 0-.652 1.351l1.55.748c.825.398 1.366.661 1.71.893.146.099.218.166.252.204a1.3 1.3 0 0 1-.251.204c-.345.233-.886.496-1.71.894l-2.922 1.409c-1.867.901-2.59 1.23-3.348 1.23s-1.48-.329-3.348-1.23L5.73 8.639c-.825-.397-1.366-.66-1.71-.893a1.3 1.3 0 0 1-.252-.204c.034-.038.105-.105.251-.204.345-.232.886-.495 1.71-.893zm-3.576 11.5V9.328c.366.198.797.406 1.275.636l.054.026L8 11.4l.165.08c1.28.618 2.2 1.062 3.085 1.228v8.43c-.48-.13-1.102-.388-2.122-.817-1.969-.83-3.368-1.42-4.284-1.968-.94-.563-1.094-.919-1.094-1.178m9 3.964v-8.431c.885-.166 1.805-.61 3.085-1.229L16 11.4l2.921-1.409.055-.026c.477-.23.908-.438 1.274-.636v7.847c0 .26-.154.615-1.094 1.178-.916.548-2.315 1.139-4.284 1.968-1.02.43-1.643.686-2.122.817m7.509-13.637q.001 0-.005.01.004-.01.005-.01m-16.518 0q.001 0 .005.01zm2.594 4.853a.75.75 0 0 0-.67 1.342l2 .998a.75.75 0 0 0 .67-1.343zm3.09-8.898a.75.75 0 1 0 1.15.962l.671-.802V9a.75.75 0 0 0 1.5 0V3.613l.68.808a.75.75 0 1 0 1.148-.966l-1.29-1.533-.025-.028c-.235-.253-.677-.636-1.253-.644-.6-.008-1.053.385-1.294.668z" clip-rule="evenodd"/></svg>