<svg xmlns="http://www.w3.org/2000/svg" width="24" height="24" fill="none"><path fill="#141B34" fill-rule="evenodd" d="M7.822 5.677a.75.75 0 0 0-.644-1.354l-2.095.997-.055.025c-.755.36-1.396.664-1.842.96-.443.295-.936.737-.936 1.44v9.498c0 1.115.826 1.85 1.828 2.441 1.018.6 2.516 1.223 4.409 2.009l.062.026.148.061c1.42.59 2.333.97 3.303.97s1.883-.38 3.303-.97l.148-.061.062-.026c1.893-.786 3.39-1.408 4.409-2.009 1.002-.59 1.828-1.326 1.828-2.441V7.745c0-.703-.493-1.145-.936-1.44-.446-.296-1.087-.6-1.842-.96l-.055-.025-2.095-.997a.75.75 0 0 0-.644 1.354l2.095.997c.824.392 1.366.652 1.71.881.134.088.205.151.242.19a1.4 1.4 0 0 1-.241.19c-.345.228-.887.488-1.71.88l-2.922 1.39c-1.867.888-2.591 1.214-3.352 1.214s-1.485-.326-3.352-1.214l-2.921-1.39c-.824-.392-1.366-.652-1.71-.88a1.4 1.4 0 0 1-.242-.19c.037-.039.108-.102.241-.19.345-.23.887-.489 1.71-.88zM3.75 17.243V9.515c.366.195.8.401 1.279.63l.054.025 2.92 1.39.164.077c1.281.61 2.2 1.047 3.083 1.211v8.292c-.48-.13-1.105-.383-2.125-.806-1.97-.818-3.368-1.401-4.285-1.942-.944-.557-1.09-.905-1.09-1.15m9 3.898v-8.293c.883-.164 1.802-.6 3.083-1.21l.163-.079 2.976-1.415c.479-.228.912-.434 1.278-.63v7.729c0 .244-.146.592-1.09 1.15-.917.54-2.316 1.123-4.284 1.94-1.021.424-1.645.678-2.126.808m-6.42-8.662a.75.75 0 0 0-.66 1.346l2 .983a.75.75 0 0 0 .66-1.346zm8.245-4.936a.75.75 0 0 0-1.15-.963l-.671.803V2a.75.75 0 0 0-1.5 0v5.387l-.68-.808a.75.75 0 0 0-1.148.965l1.29 1.534.025.028c.235.253.677.636 1.253.644.6.008 1.053-.386 1.294-.668z" clip-rule="evenodd"/></svg>