<svg xmlns="http://www.w3.org/2000/svg" width="24" height="24" fill="none"><path fill="#141B34" fill-rule="evenodd" d="M18.917 5.323a.75.75 0 0 0-.644 1.354c.824.392 1.366.652 1.711.881.133.088.204.15.24.19a1.4 1.4 0 0 1-.24.189c-.345.23-.887.489-1.71.88l-2.922 1.39c-1.867.888-2.591 1.214-3.352 1.214s-1.485-.326-3.352-1.214l-2.921-1.39c-.824-.391-1.366-.65-1.711-.88a1.4 1.4 0 0 1-.24-.19c.036-.038.107-.1.24-.189.345-.23.887-.489 1.71-.88a.75.75 0 0 0-.643-1.355l-.054.025c-.756.36-1.397.665-1.843.96-.443.295-.936.737-.936 1.44v9.337c0 1.126.81 1.88 1.819 2.496 1.019.62 2.517 1.263 4.41 2.075l.062.027.151.065c1.417.608 2.334 1.002 3.308 1.002s1.89-.393 3.308-1.002l.15-.065.063-.027c1.893-.812 3.392-1.455 4.41-2.075 1.01-.616 1.819-1.37 1.819-2.496V7.747c0-.702-.493-1.144-.936-1.439-.446-.295-1.087-.6-1.843-.96zm.055 4.823a32 32 0 0 0 1.278-.629v7.568c0 .279-.164.644-1.1 1.215-.915.558-2.314 1.16-4.283 2.005-1.018.436-1.64.697-2.117.831V12.85c.883-.163 1.802-.6 3.082-1.21l.164-.078zM11.25 12.85v8.286c-.477-.134-1.1-.395-2.117-.831-1.97-.845-3.368-1.447-4.283-2.005-.936-.57-1.1-.936-1.1-1.215V9.517c.366.196.8.402 1.279.63l.054.025 2.92 1.39.165.078c1.28.61 2.2 1.047 3.082 1.21m-4.596-.216a.75.75 0 1 0-.644 1.354l1.994.949a.75.75 0 0 0 .644-1.355zM12.75 2a.75.75 0 1 0-1.5 0v2a.75.75 0 0 0 1.5 0zm-4.15.55a.75.75 0 0 0-1.2.9l1.5 2a.75.75 0 1 0 1.2-.9zm8 .9a.75.75 0 1 0-1.2-.9l-1.5 2a.75.75 0 0 0 1.2.9z" clip-rule="evenodd"/></svg>