<svg xmlns="http://www.w3.org/2000/svg" width="24" height="24" fill="none"><path fill="#141B34" fill-rule="evenodd" d="M7.326 5.675a.75.75 0 0 0-.652-1.35l-1.595.77-.054.025c-.756.365-1.397.674-1.843.974s-.932.746-.932 1.448v9.633c0 1.12.819 1.863 1.824 2.465 1.018.61 2.517 1.24 4.41 2.037l.062.026.148.063c1.42.599 2.334.984 3.306.984s1.886-.386 3.306-.984l.148-.062.062-.027c1.893-.797 3.391-1.428 4.41-2.037 1.005-.602 1.824-1.345 1.824-2.465V7.542c0-.702-.486-1.147-.932-1.448s-1.087-.61-1.843-.974l-1.65-.795a.75.75 0 1 0-.65 1.35l1.594.77c.825.398 1.366.661 1.71.893.146.099.218.166.252.204a1.3 1.3 0 0 1-.251.204c-.345.233-.886.496-1.71.894l-2.922 1.409c-1.867.901-2.59 1.23-3.348 1.23s-1.48-.329-3.348-1.23L5.73 8.639c-.825-.397-1.366-.66-1.71-.893a1.3 1.3 0 0 1-.252-.204c.034-.038.105-.105.251-.204.345-.232.886-.495 1.71-.893zm-3.576 11.5V9.328c.366.198.797.406 1.275.636l.054.026L8 11.4l.166.08c1.28.618 2.2 1.062 3.084 1.228v8.43c-.48-.13-1.102-.387-2.122-.817-1.969-.83-3.367-1.42-4.284-1.968-.94-.563-1.094-.919-1.094-1.178m9 3.964v-8.431c.885-.166 1.804-.61 3.084-1.228L16 11.4l2.975-1.436c.478-.23.91-.438 1.275-.636v7.847c0 .26-.154.615-1.094 1.178-.916.548-2.315 1.139-4.284 1.968-1.02.43-1.643.686-2.122.817m-6.415-8.784a.75.75 0 0 0-.67 1.342l2 .998a.75.75 0 0 0 .67-1.343zM14.53 2.53a.75.75 0 0 0-1.06-1.06L12 2.94l-1.47-1.47a.75.75 0 1 0-1.06 1.06L10.94 4 9.47 5.47a.75.75 0 0 0 1.06 1.06L12 5.06l1.47 1.47a.75.75 0 1 0 1.06-1.06L13.06 4z" clip-rule="evenodd"/></svg>