<svg xmlns="http://www.w3.org/2000/svg" width="24" height="24" fill="none"><path fill="#141B34" fill-rule="evenodd" d="M22.749 4.93c.021-.469-.202-.932-.416-1.277a6.3 6.3 0 0 0-.886-1.097 6.3 6.3 0 0 0-1.097-.888c-.346-.215-.81-.438-1.279-.417-.48.022-.854.236-1.173.507-.288.244-.592.588-.929.968l-.032.037-.383.433c-1.611 1.828-3.21 3.642-4.99 4.65-.692.392-1.49.403-2.537.408h-.028c-.97.004-2.172.01-3.25.675-.261.16-.49.35-.74.582l-.026.024c-.15.138-.313.29-.434.44-.145.179-.293.43-.299.765-.006.342.14.602.278.784.095.126.22.257.344.382l-.237.167-.066.047c-.42.296-.914.647-1.382 1.02-.464.37-.932.785-1.286 1.216-.333.406-.675.955-.65 1.575.017.406.2.723.4.98.183.235.44.492.72.772l.03.03 3.916 3.915c.28.28.537.538.773.721.256.2.573.384.979.4.62.025 1.17-.316 1.575-.65.43-.354.846-.821 1.216-1.285.373-.469.724-.963 1.02-1.383l.047-.066.167-.237c.125.124.255.249.382.344.182.138.441.284.783.278.336-.006.587-.154.766-.3.15-.12.301-.284.44-.433l.023-.026a4.7 4.7 0 0 0 .583-.74c.665-1.078.67-2.28.675-3.25v-.028c.005-1.048.015-1.845.407-2.537 1.008-1.78 2.823-3.38 4.651-4.99l.002-.003.43-.38.037-.032c.38-.336.724-.64.969-.928.27-.32.485-.693.507-1.174m-11.73 13.122-5.071-5.07q-.2.143-.415.294l-.1.07c-.42.297-.882.625-1.311.967-.434.346-.807.685-1.062.995-.259.316-.307.494-.31.553a.7.7 0 0 0 .084.127c.12.154.308.345.628.664l.441.441 1.861-1.861a.75.75 0 1 1 1.061 1.06l-1.861 1.862.882.883.666-.666a.75.75 0 1 1 1.06 1.06l-.665.666.441.441c.32.32.51.509.664.628.07.055.11.077.127.084.06-.003.238-.051.553-.31.31-.255.649-.628.995-1.062.343-.43.67-.89.967-1.31l.07-.1zm8.12-15.302h.003c.018.004.154.03.417.193.259.16.55.398.826.673.276.276.513.568.673.827.16.26.187.394.192.415v.002c-.001.033-.005.1-.152.273-.166.195-.426.428-.855.807l-.47.414c-1.778 1.564-3.786 3.33-4.925 5.343-.594 1.05-.598 2.212-.602 3.154v.115c-.005 1.034-.035 1.82-.452 2.498-.09.145-.206.293-.405.507l-.16.17-.184-.183-7.003-7.003-.183-.185q.07-.067.17-.16c.214-.198.362-.315.507-.405.677-.417 1.464-.446 2.498-.451h.115c.942-.004 2.104-.008 3.154-.603 2.012-1.139 3.778-3.146 5.342-4.924l.415-.47c.38-.43.612-.689.808-.855.173-.147.239-.15.272-.152" clip-rule="evenodd"/></svg>