<svg xmlns="http://www.w3.org/2000/svg" width="25" height="24" fill="none"><path fill="#141B34" fill-rule="evenodd" d="M4.491 11.162a2 2 0 0 0 2.206.427l1.74 1.739q-.02.111-.019.228c0 2.864 1.932 5.194 4.306 5.194h4.888c2.374 0 4.306-2.33 4.306-5.194 0-.72-.536-1.306-1.194-1.306H9.612q-.063 0-.125.007l-1.73-1.73a2.01 2.01 0 0 0-.428-2.203L4.842 5.837a2.01 2.01 0 0 0-2.838 0 2.01 2.01 0 0 0 0 2.837zM3.066 6.898a.503.503 0 0 1 .716 0L6.27 9.384a.506.506 0 1 1-.716.716L3.066 7.614a.506.506 0 0 1 0-.715m6.856 6.852c.077 1.947 1.304 3.5 2.802 3.5h4.888c1.498 0 2.725-1.553 2.802-3.5z" clip-rule="evenodd"/></svg>