<svg xmlns="http://www.w3.org/2000/svg" width="25" height="24" fill="none"><path fill="#141B34" fill-rule="evenodd" d="M14.563 4.638a.75.75 0 1 0-.79-1.276c-.605.375-.9.89-.97 1.46-.058.472.048.954.122 1.293l.01.046c.089.403.133.643.11.835-.015.117-.051.23-.272.366a.75.75 0 0 0 .79 1.276c.605-.375.9-.89.97-1.459.058-.473-.048-.955-.122-1.294l-.01-.045c-.089-.404-.133-.644-.11-.836.015-.116.051-.23.272-.366m3 0a.75.75 0 1 0-.79-1.276c-.605.375-.9.89-.97 1.46-.058.472.048.954.122 1.293l.01.046c.089.403.133.643.11.835-.015.117-.051.23-.272.366a.75.75 0 0 0 .79 1.276c.605-.375.9-.89.97-1.459.058-.473-.048-.955-.122-1.294l-.01-.045c-.089-.404-.133-.644-.11-.836.015-.116.051-.23.272-.366m3 0a.75.75 0 1 0-.79-1.276c-.605.375-.9.89-.97 1.46-.058.472.048.954.122 1.293l.01.046c.089.403.133.643.11.835-.015.117-.051.23-.272.366a.75.75 0 0 0 .79 1.276c.605-.375.9-.89.97-1.459.058-.473-.048-.955-.122-1.294l-.01-.045c-.089-.404-.133-.644-.11-.836.015-.116.051-.23.272-.366M9.418 11.556q0-.11.02-.225l-1.74-1.74c-.731.31-1.609.167-2.205-.429L3.006 6.675a2.006 2.006 0 0 1 2.837-2.837L8.33 6.325c.596.596.739 1.474.428 2.205l1.727 1.727q.062-.007.127-.007h11.112c.807 0 1.194.75 1.194 1.306 0 2.704-1.78 5.194-4.306 5.194h-4.888c-2.526 0-4.306-2.49-4.306-5.194m1.504.194c.08 2.098 1.441 3.5 2.801 3.5h4.89c1.36 0 2.722-1.402 2.801-3.5zm1.996 6.75a.75.75 0 0 0-1.5 0v.75h-1.25a.75.75 0 1 0 0 1.5h12a.75.75 0 0 0 0-1.5h-1.25v-.75a.75.75 0 0 0-1.5 0v.75h-2.5v-.75a.75.75 0 0 0-1.5 0v.75h-2.5zM4.066 4.898a.506.506 0 0 1 .716 0L7.27 7.386a.506.506 0 1 1-.716.716L4.066 5.614a.506.506 0 0 1 0-.716" clip-rule="evenodd"/></svg>