<svg xmlns="http://www.w3.org/2000/svg" width="25" height="24" fill="none"><path fill="#141B34" fill-rule="evenodd" d="M9.479 15.914a8.3 8.3 0 0 1-1.23-1.23c-.746 1.16-1.85 1.927-2.928 2.677l-.007.005c-.693.483-1.409.981-2.004 1.576a1.354 1.354 0 0 0 0 1.911 1.353 1.353 0 0 0 1.91 0c.595-.595 1.094-1.31 1.576-2.003l.005-.008.001-.001c.75-1.077 1.518-2.181 2.677-2.927m1.437.933a8.26 8.26 0 0 0 3.75.897l.001.001a8.22 8.22 0 0 0 5.833-2.412A8.2 8.2 0 0 0 22.916 9.5 8.2 8.2 0 0 0 20.5 3.667a8.2 8.2 0 0 0-5.833-2.417 8.2 8.2 0 0 0-5.833 2.416 8.2 8.2 0 0 0-2.417 5.833c0 1.326.31 2.604.898 3.751-.527 1.264-1.613 2.02-2.85 2.88v.001l-.009.006c-.745.52-1.517 1.057-2.205 1.745a2.855 2.855 0 0 0 0 4.032 2.85 2.85 0 0 0 2.016.833h-.002c.73 0 1.46-.279 2.015-.834.69-.69 1.23-1.465 1.75-2.213l.001-.002c.862-1.239 1.619-2.325 2.885-2.851m3.75-14.099a6.7 6.7 0 0 0-4.773 1.977 6.7 6.7 0 0 0-1.977 4.773c0 1.803.702 3.498 1.977 4.773a6.756 6.756 0 0 0 9.545 0 6.7 6.7 0 0 0 1.977-4.773 6.7 6.7 0 0 0-1.977-4.773 6.7 6.7 0 0 0-4.772-1.977m0 11.5a4.71 4.71 0 0 1-3.358-1.392 4.72 4.72 0 0 1-1.392-3.358c0-1.268.494-2.461 1.392-3.358a4.72 4.72 0 0 1 3.358-1.392c1.268 0 2.461.494 3.358 1.392a4.72 4.72 0 0 1 1.392 3.358 4.71 4.71 0 0 1-1.392 3.358 4.72 4.72 0 0 1-3.358 1.392m0-8c-.868 0-1.684.338-2.298.952a3.23 3.23 0 0 0-.953 2.298c0 .868.338 1.684.952 2.298a3.23 3.23 0 0 0 2.298.953c.868 0 1.684-.338 2.298-.952s.952-1.43.952-2.298-.338-1.684-.952-2.297a3.23 3.23 0 0 0-2.298-.953z" clip-rule="evenodd"/></svg>