<svg xmlns="http://www.w3.org/2000/svg" width="24" height="24" fill="none"><path fill="#141B34" fill-rule="evenodd" d="m12.004 22.75.912-.001h.037v.003c2.727 0 4.23 0 5.385-.92 1.153-.92 1.497-2.39 2.121-5.057l1.918-8.201c.368-1.572.57-2.438.115-3.215-.676-1.153-2.068-1.148-3.033-1.12-.182-.705-.476-1.27-.95-1.744-1.244-1.245-3.113-1.245-6.505-1.245h-3c-3.392 0-5.26 0-6.505 1.245C1.254 3.739 1.254 5.608 1.254 9v6c0 3.392 0 5.26 1.245 6.505 1.244 1.245 3.113 1.245 6.505 1.245zm7.68-17.016c.07.9.07 1.972.07 3.266v4.2l1.161-4.964.002-.009c.261-1.116.433-1.85.28-2.11-.216-.367-.89-.396-1.512-.383M9.005 2.75h3c3.089 0 4.64 0 5.445.805.805.806.805 2.356.805 5.445v6c0 3.09 0 4.64-.805 5.445-.806.805-2.356.805-5.445.805h-3c-3.09 0-4.64 0-5.445-.805-.805-.806-.805-2.356-.805-5.445V9c0-3.09 0-4.64.805-5.445.806-.805 2.356-.805 5.445-.805m1.5 12A4.756 4.756 0 0 1 5.754 10a4.756 4.756 0 0 1 4.75-4.75 4.756 4.756 0 0 1 4.75 4.75 4.756 4.756 0 0 1-4.75 4.75m0-7.968c-.261.247-.75 1.338-.75 3.218s.489 2.971.75 3.218c.26-.247.75-1.338.75-3.218s-.49-2.971-.75-3.218m1.913.592c.227.795.337 1.724.337 2.626s-.11 1.831-.337 2.626a3.248 3.248 0 0 0 0-5.252m-3.826 0a3.248 3.248 0 0 0 0 5.252c-.227-.795-.337-1.724-.337-2.626s.109-1.831.337-2.626M7.004 17.75h7a.75.75 0 0 0 0-1.5h-7a.75.75 0 0 0 0 1.5" clip-rule="evenodd"/></svg>