<svg xmlns="http://www.w3.org/2000/svg" width="24" height="24" fill="none"><path fill="#141B34" fill-rule="evenodd" d="M11.967 1.75a.75.75 0 0 1 .712.508c1.682 4.928 6.015 5.376 8.303 5.508a.748.748 0 0 1 .66 1.01c-.637 1.714-1.763 2.642-2.892 3.094v8.871H21a.75.75 0 0 1 0 1.5h-2.864a.8.8 0 0 1-.272 0h-3.238a.8.8 0 0 1-.256 0H9.63a.8.8 0 0 1-.253.001l-.006-.001H6.136a.8.8 0 0 1-.272 0H3a.75.75 0 0 1 0-1.5h2.25v-8.847c-1.15-.443-2.305-1.373-2.953-3.118a.75.75 0 0 1 .66-1.01c2.288-.132 6.693-.663 8.3-5.503a.75.75 0 0 1 .71-.513m.259 15.502h-.452c-.22.001-.366.007-.498.04a.42.42 0 0 0-.288.218 1 1 0 0 0-.097.284c-.043.183-.083.424-.145.793l-.359 2.154h3.226l-.36-2.154c-.06-.369-.101-.61-.144-.793a1 1 0 0 0-.097-.284.42.42 0 0 0-.287-.218c-.16-.04-.339-.04-.64-.04zm5.024-5.031a5 5 0 0 1-.396.016H7.086q-.163 0-.336-.012v8.516h2.117l.404-2.424c.056-.339.104-.629.16-.866.058-.248.136-.49.274-.717a1.9 1.9 0 0 1 1.203-.896c.355-.09.734-.088.998-.086h.188c.264-.002.643-.004.998.086.455.115.89.378 1.204.896.138.227.215.469.273.717q.062.267.12.621l.04.245.405 2.424h2.116zm-5.276-7.833c-1.958 3.628-5.507 4.521-7.81 4.782.814 1.23 2.034 1.567 2.922 1.567h9.768c.887 0 2.104-.336 2.92-1.563-2.296-.249-5.81-1.105-7.8-4.786" clip-rule="evenodd"/></svg>