<svg xmlns="http://www.w3.org/2000/svg" width="25" height="24" fill="none"><path fill="#141B34" fill-rule="evenodd" d="M17.75 3.75c-1.825 0-3.465.36-4.682.93-1.448.675-3.31 1.07-5.318 1.07-1.12 0-2.19-.123-3.167-.346-.594-.136-1.083.308-1.083.71v10.772c0 .843.015 1.048.121 1.272.062.129.241.354.353.443l-.465.588.466-.588c.203.16.334.201.943.34.862.198 1.82.309 2.832.309 1.396 0 2.687-.211 3.765-.567a.75.75 0 0 1 .47 1.424c-1.242.41-2.693.643-4.235.643-1.12 0-2.19-.123-3.167-.346l-.059-.014c-.547-.125-.992-.226-1.48-.613a3.1 3.1 0 0 1-.777-.974l.673-.32-.673.32c-.268-.564-.268-1.121-.267-1.812V6.114c0-1.567 1.591-2.476 2.918-2.172.862.197 1.82.308 2.832.308 1.826 0 3.465-.36 4.683-.93 1.447-.675 3.309-1.07 5.317-1.07 1.12 0 2.19.123 3.168.346l.058.014c.547.125.992.226 1.48.613.293.23.617.638.777.974.268.564.268 1.121.267 1.811V11.5a.75.75 0 0 1-1.5 0V6.114c0-.843-.015-1.048-.121-1.272a1.7 1.7 0 0 0-.353-.443c-.203-.16-.335-.201-.943-.34a12.8 12.8 0 0 0-2.833-.309m5.716 11.026a.75.75 0 0 1-.491.94c-1.394.437-2.774 1.777-3.856 3.134a21 21 0 0 0-1.686 2.466l-.021.037-.005.009v.001a.75.75 0 0 1-1.37-.13l-.003-.01-.017-.047a3.858 3.858 0 0 0-.386-.762c-.298-.45-.602-.664-.88-.664a.75.75 0 0 1 0-1.5c1.004 0 1.678.69 2.058 1.23.3-.45.684-.997 1.137-1.565 1.107-1.388 2.727-3.048 4.58-3.63a.75.75 0 0 1 .94.49M11 11.5a1.75 1.75 0 1 1 3.5 0 1.75 1.75 0 0 1-3.5 0m1.75-3.25a3.25 3.25 0 1 0 0 6.5 3.25 3.25 0 0 0 0-6.5m-6.5 3.25a1 1 0 0 1 1 1v.009a1 1 0 1 1-2 0V12.5a1 1 0 0 1 1-1m14-1.008a1 1 0 1 0-2 0v.01a1 1 0 1 0 2 0z" clip-rule="evenodd"/></svg>