<svg xmlns="http://www.w3.org/2000/svg" width="24" height="24" fill="none"><path fill="#141B34" fill-rule="evenodd" d="M19.394 8.749a3.1 3.1 0 0 1 .779 2.821c-.482 2.145-2.408 3.68-4.644 3.68h-1.803c-.855 0-1.594.612-1.737 1.461l-.73 4.329a.26.26 0 0 1-.257.21h-1.99a.254.254 0 0 1-.258-.29l.217-1.264q.051-.132.087-.264c.076-.281.126-.629.179-1.003l.54-3.747c.131-.5.553-.865 1.058-.924l1.581-.008a7.38 7.38 0 0 0 6.978-5.001m.346-1.669c.187-3.094-2.261-5.83-5.477-5.83H9.591c-.53 0-.975 0-1.342.032-.385.034-.746.108-1.09.292a2.7 2.7 0 0 0-.884.753c-.237.31-.368.654-.464 1.03-.092.357-.165.799-.252 1.324L3.417 17.597c-.083.499-.157.949-.166 1.317-.01.4.052.84.37 1.216.318.377.74.512 1.137.568.363.052.818.052 1.32.052h.493c.248 0 .484 0 .699-.01a1.754 1.754 0 0 0 1.741 2.01h1.99c.855 0 1.595-.612 1.738-1.461l.73-4.329a.26.26 0 0 1 .257-.21h1.803c2.927 0 5.47-2.011 6.108-4.85.433-1.933-.41-3.792-1.897-4.82M8.381 2.777c-.281.024-.418.068-.513.12-.156.083-.293.2-.401.34-.066.088-.132.217-.203.493-.074.286-.137.663-.23 1.228L4.904 17.794c-.093.563-.149.907-.155 1.156-.005.08.03.245.22.264.244.034.59.036 1.158.036h.402c.431 0 .684-.001.867-.024.135-.012.199-.13.214-.189.048-.179.086-.43.147-.86 0 0 .528-3.72.568-3.874a2.74 2.74 0 0 1 2.336-2.035l1.754-.018A5.886 5.886 0 0 0 18.15 7.65c.568-2.514-1.333-4.899-3.886-4.899h-4.64c-.57 0-.95 0-1.242.027" clip-rule="evenodd"/></svg>