<svg xmlns="http://www.w3.org/2000/svg" width="24" height="24" fill="none"><path fill="#141B34" fill-rule="evenodd" d="M3.268 4.5a2.25 2.25 0 0 0 2.25 2.25 2.25 2.25 0 0 0 2.25-2.25 2.25 2.25 0 0 0-2.25-2.25 2.25 2.25 0 0 0-2.25 2.25m1.5 0a.75.75 0 1 1 1.5 0 .75.75 0 0 1-1.5 0m11.5 0a2.25 2.25 0 0 0 2.25 2.25 2.25 2.25 0 0 0 2.25-2.25 2.25 2.25 0 0 0-2.25-2.25 2.25 2.25 0 0 0-2.25 2.25m1.5 0a.75.75 0 1 1 1.5 0 .75.75 0 0 1-1.5 0m-7.25 2.25h-.5a.75.75 0 0 1 0-1.5h.5a.75.75 0 0 1 0 1.5m3 0h.5a.75.75 0 0 0 0-1.5h-.5a.75.75 0 0 0 0 1.5m4.5 13.5a.75.75 0 0 1 0-1.5c.414 0 .616 0 .742-.025.495-.1.883-.486.983-.983.025-.119.025-.367.025-.741v-3a.75.75 0 0 1 1.5 0v3c0 .502 0 .778-.056 1.045a2.75 2.75 0 0 1-2.155 2.15c-.275.055-.546.055-1.039.055zm-12 0h-.002c-.517 0-.777 0-1.043-.056a2.72 2.72 0 0 1-2.151-2.157c-.054-.264-.054-.54-.054-1.037v-3a.75.75 0 0 1 1.5 0v3c0 .375 0 .622.024.736q0 .006.002.01v.004c.094.492.478.874.98.974.121.025.356.025.744.025a.75.75 0 0 1 0 1.5zm5 1.5h2c1.073 0 1.72 0 2.23-.51.52-.519.52-1.204.52-2.24s0-1.72-.52-2.24c-.275-.276-.612-.401-.98-.459V15.5a2.25 2.25 0 0 0-2.25-2.25 2.25 2.25 0 0 0-2.25 2.25v.801c-.364.057-.7.18-.98.448l-.02.02c-.5.518-.5 1.163-.5 2.23V19c0 1.068 0 1.713.5 2.231l.01.009c.508.51 1.16.51 2.24.51m-.001-1.5c-.497 0-1.059 0-1.176-.068-.073-.106-.073-.707-.073-1.181V19c0-.474 0-1.059.07-1.177.042-.024.186-.065.686-.073h2.988c.505.008.642.049.676.07.08.081.08.69.08 1.18s0 1.099-.079 1.178c-.111.072-.674.072-1.17.072h-2.002m1.75-4.75v.75h-1.5v-.75a.75.75 0 0 1 1.5 0M7.27 12.26h-3.54a2.1 2.1 0 0 1-.914-.19c-.775-.35-1.181-.813-1.387-1.145a1.11 1.11 0 0 1 .037-1.27C2.33 8.468 4.195 7.76 5.499 7.76s3.168.709 4.034 1.895c.279.376.293.882.037 1.27-.206.332-.612.794-1.387 1.146a2.1 2.1 0 0 1-.914.189m-1.77-1.5h1.77c.12 0 .21-.015.279-.048l.012-.006c.279-.126.46-.265.578-.38-.623-.623-1.835-1.067-2.64-1.067-.803 0-2.015.444-2.638 1.067.116.115.299.254.578.38l.012.006a.65.65 0 0 0 .279.048zm11.23 1.5h3.54c.343 0 .643-.062.914-.19.775-.351 1.18-.813 1.387-1.145a1.11 1.11 0 0 0-.037-1.27c-.866-1.186-2.73-1.895-4.034-1.895s-3.168.708-4.034 1.895a1.11 1.11 0 0 0-.037 1.27c.206.332.612.795 1.387 1.146.27.127.57.189.914.189m3.54-1.5h-3.54a.65.65 0 0 1-.28-.048l-.011-.006a2 2 0 0 1-.578-.38c.623-.623 1.835-1.067 2.639-1.067s2.016.444 2.639 1.067a2 2 0 0 1-.578.38l-.012.006a.65.65 0 0 1-.28.048" clip-rule="evenodd"/></svg>