<svg xmlns="http://www.w3.org/2000/svg" width="24" height="24" fill="none"><path fill="#141B34" fill-rule="evenodd" d="M11.5 20.766H10c-3.973 0-5.968 0-7.359-1.392-1.391-1.39-1.391-3.385-1.391-7.358s0-5.968 1.392-7.36c1.39-1.39 3.385-1.39 7.358-1.39h4c3.973 0 5.968 0 7.359 1.392 1.326 1.325 1.389 3.263 1.391 6.858a.75.75 0 1 1-1.5 0c-.002-3.446-.089-4.935-.952-5.798-.952-.953-2.738-.953-6.298-.953h-4c-3.56 0-5.346 0-6.297.952-.953.952-.953 2.738-.953 6.297 0 3.56 0 5.347.952 6.298.952.953 2.738.953 6.298.953h1.5a.75.75 0 0 1 0 1.5m9 0h-5a2.25 2.25 0 0 1-2.25-2.25v-3a2.25 2.25 0 0 1 2.25-2.25h5a2.25 2.25 0 0 1 2.25 2.25v3a2.25 2.25 0 0 1-2.25 2.25m-5-6a.75.75 0 0 0-.75.75v3c0 .414.336.75.75.75h5a.75.75 0 0 0 .75-.75v-3a.75.75 0 0 0-.75-.75zm-5.027-1.219c.146.147.338.22.53.22h.001a.75.75 0 0 0 .53-1.28l-3.72-3.72h1.69a.75.75 0 0 0 0-1.5H7.015a1.74 1.74 0 0 0-1.312.52c-.317.331-.48.787-.45 1.256v2.474a.75.75 0 0 0 1.5 0v-1.69z" clip-rule="evenodd"/></svg>