<svg xmlns="http://www.w3.org/2000/svg" width="25" height="24" fill="none"><path fill="#141B34" fill-rule="evenodd" d="m16.433 2.4-.065-.026c-.625-.26-1.207-.5-1.746-.587-.629-.101-1.203 0-1.8.37-.048.03-.12.077-.166.11-.61.441-.904 1.017-1.037 1.708-.12.62-.12 1.388-.12 2.274V8.48c0 .915 0 1.677.082 2.282.086.637.274 1.211.735 1.672s1.034.649 1.672.735c.605.081 1.367.081 2.282.08h2.231c.885.001 1.654.001 2.274-.118.691-.133 1.267-.427 1.707-1.037a3 3 0 0 0 .111-.166c.369-.597.471-1.171.37-1.8-.087-.54-.328-1.121-.587-1.747l-.027-.064A10.93 10.93 0 0 0 16.433 2.4M13.61 3.434c.29-.179.5-.21.774-.165.344.055.763.223 1.475.519a9.43 9.43 0 0 1 5.104 5.104c.295.712.463 1.13.519 1.475.044.274.014.484-.165.774l-.051.076c-.17.235-.37.364-.775.442-.461.089-1.085.092-2.058.092h-2.11c-.982 0-1.642-.002-2.135-.068-.471-.063-.676-.173-.812-.309-.135-.135-.245-.34-.308-.811C13 10.069 13 9.409 13 8.427v-2.11c0-.974.003-1.597.092-2.058.078-.405.207-.606.441-.775zm-4.503.754a.75.75 0 0 0-.601-1.374C2 5.658.48 14.501 5.423 19.397c5.047 5 13.814 3.131 16.518-3.277a.75.75 0 0 0-1.382-.584c-2.299 5.448-9.801 7.035-14.08 2.795C2.277 14.17 3.59 6.601 9.107 4.187" clip-rule="evenodd"/></svg>