<svg xmlns="http://www.w3.org/2000/svg" width="24" height="24" fill="none"><path fill="#141B34" fill-rule="evenodd" d="M14.722 8.702a.75.75 0 1 0-1.444-.404L13 9.289l-3.003-.84.916-3.569 7.216 2.018-.916 3.569-2.768-.774zm-1.434 5.123a.75.75 0 1 0-1.444-.404l-.241.86-2.896-.81.917-3.569 7.216 2.018-.917 3.57-2.876-.805zm-1.138 2.167 3.4.95-.849 3.308H11.49l.293-1.048a.75.75 0 1 0-1.444-.404l-.407 1.452H6.967l1.367-5.326 3.357.939a.75.75 0 0 0 .46.129m-1.67 5.758H2a.75.75 0 0 1 0-1.5h3.418l1.471-5.73-.255-.071a.75.75 0 0 1 .404-1.445l.224.063.917-3.569-.256-.071a.75.75 0 1 1 .404-1.445l.225.063.916-3.569-.255-.071a.75.75 0 0 1 .404-1.445l2.149.601.254-.99a1.75 1.75 0 0 1 2.162-1.257l2.884.807a1.764 1.764 0 0 1 1.226 2.14l-.27 1.05 2.18.61a.75.75 0 0 1-.404 1.444l-.224-.063-.916 3.57.255.07a.75.75 0 0 1-.404 1.445l-.224-.063-.917 3.57.256.07a.75.75 0 1 1-.404 1.445l-.225-.063-.745 2.904H22a.75.75 0 1 1 0 1.5H10.48m2.73-17.785 3.367.942.262-1.02a.264.264 0 0 0-.177-.322l-2.884-.806a.25.25 0 0 0-.306.185z" clip-rule="evenodd"/></svg>