<svg xmlns="http://www.w3.org/2000/svg" width="24" height="24" fill="none"><path fill="#141B34" fill-rule="evenodd" d="M3.446 11.326a4.86 4.86 0 0 0 3.446 1.42 4.86 4.86 0 0 0 2.172-.51 18.64 18.64 0 0 1 2.183 8.766c0 .414.336.75.75.75h.001v-.001a.747.747 0 0 0 .75-.75c0-6.492 5.597-10.33 5.667-10.377a.75.75 0 0 0-.833-1.248c-.057.038-1.213.817-2.526 2.273A2.9 2.9 0 0 1 15.6 8.29c.954-.954 2.582-1.316 3.78-1.452a14 14 0 0 1 1.866-.085 15 15 0 0 1-.085 1.866c-.135 1.199-.498 2.827-1.452 3.781a2.9 2.9 0 0 1-2.18.849H17.5a.75.75 0 0 0-.032 1.499q.093.004.186.004v-.001a4.42 4.42 0 0 0 3.117-1.291c2.376-2.375 1.96-7.284 1.94-7.492a.75.75 0 0 0-.678-.679c-.207-.018-5.117-.435-7.492 1.941a4.394 4.394 0 0 0-.491 5.65 14.8 14.8 0 0 0-1.874 3.34 20.3 20.3 0 0 0-2.131-5.31.8.8 0 0 0-.116-.199q-.15-.252-.297-.485C8.086 7.779 6.542 6.479 6.477 6.425a.75.75 0 1 0-.956 1.156c.088.076 1.433 1.243 2.784 3.356a3.38 3.38 0 0 1-3.8-.67C3.414 9.173 3 7.318 2.846 5.954a16 16 0 0 1-.092-2.198c.526-.013 1.32-.006 2.198.093 1.364.154 3.219.568 4.312 1.661a3.38 3.38 0 0 1 .947 2.88.749.749 0 1 0 1.483.222 4.88 4.88 0 0 0-1.37-4.163C7.682 1.807 2.202 2.273 1.97 2.294a.75.75 0 0 0-.68.68c-.021.231-.486 5.711 2.156 8.352" clip-rule="evenodd"/></svg>