<svg xmlns="http://www.w3.org/2000/svg" width="25" height="24" fill="none"><path fill="#141B34" fill-rule="evenodd" d="M11.943 1.25h.114c2.19 0 3.912 0 5.255.18 1.377.186 2.469.573 3.327 1.43.858.86 1.245 1.951 1.43 3.328.181 1.343.181 3.064.181 5.255v.358l-.001.006-.001.197a.75.75 0 0 1-1.5-.008l.001-.207v-.042l.001-.012V11.5c0-1.511 0-2.736-.05-3.75H3.3c-.05 1.014-.05 2.239-.05 3.75 0 2.26.002 3.88.167 5.112.163 1.21.472 1.933 1.005 2.466s1.256.842 2.466 1.005c1.232.165 2.852.167 5.112.167h.5a.75.75 0 0 1 0 1.5h-.557c-2.19 0-3.912 0-5.255-.18-1.377-.186-2.469-.573-3.327-1.43-.858-.86-1.245-1.951-1.43-3.328-.181-1.343-.181-3.064-.181-5.255v-.114c0-2.19 0-3.912.18-5.255.186-1.377.573-2.469 1.43-3.327.86-.858 1.951-1.245 3.328-1.43 1.343-.181 3.064-.181 5.255-.181m7.635 2.672c.513.512.818 1.2.985 2.328h-5.238l1.983-3.305c1.094.17 1.767.473 2.27.977m-3.93-1.126L13.576 6.25h-5.25l2.098-3.497q.731-.004 1.576-.003c1.461 0 2.654 0 3.648.046M3.437 6.25h3.139l2.08-3.466c-.67.023-1.253.064-1.768.133-1.21.163-1.933.472-2.466 1.005-.513.512-.818 1.2-.985 2.328m18.604 5.003.003.004.003.003-.002-.002zm-1.008 1.107-.038-.033.033.03zm-.078-.072.004.004zm-5.824 2.454c1.349-.804 2.596-.503 3.369.047.773-.55 2.02-.851 3.369-.046 1.006.6 1.528 1.824 1.344 3.158-.186 1.343-1.068 2.786-2.811 4.04l-.074.054c-.554.4-1.047.755-1.828.755s-1.275-.356-1.829-.755l-.074-.054c-1.743-1.254-2.625-2.697-2.81-4.04-.185-1.334.337-2.558 1.343-3.158m.768 1.289c.779-.465 1.39-.269 1.745-.01l.015.012c.102.074.205.15.292.204.047.03.112.07.186.102.07.03.198.079.363.079a.9.9 0 0 0 .362-.08c.075-.032.14-.07.186-.1.087-.056.19-.131.292-.205l.016-.012c.354-.259.965-.455 1.744.01.402.24.743.82.627 1.665-.115.835-.697 1.945-2.201 3.028-.652.469-.77.526-1.026.526-.257 0-.374-.057-1.026-.526-1.505-1.083-2.086-2.193-2.202-3.028-.116-.845.225-1.426.627-1.665" clip-rule="evenodd"/></svg>