<svg xmlns="http://www.w3.org/2000/svg" width="25" height="24" fill="none"><path fill="#141B34" fill-rule="evenodd" d="M11.243 1.5h2.014c1.967 0 3.52 0 4.734.163 1.247.168 2.249.52 3.037 1.309.789.788 1.141 1.79 1.309 3.037.163 1.214.163 2.767.163 4.734v1.507a.75.75 0 0 1-1.5 0V10.8c0-2.036-.002-3.488-.15-4.59-.145-1.082-.419-1.714-.882-2.178-.464-.463-1.096-.737-2.177-.882C16.688 3.002 15.236 3 13.2 3h-1.9c-2.036 0-3.488.002-4.59.15-1.082.145-1.714.419-2.178.882-.463.464-.737 1.096-.882 2.177-.148 1.103-.15 2.555-.15 4.591v1.9c0 2.037.002 3.488.15 4.59.145 1.082.419 1.714.882 2.178.464.463 1.096.737 2.177.882 1.103.148 2.555.15 4.591.15h1.45a.75.75 0 0 1 0 1.5h-1.507c-1.967 0-3.52 0-4.734-.163-1.247-.168-2.249-.52-3.037-1.309-.789-.788-1.141-1.79-1.309-3.037C2 16.277 2 14.724 2 12.757v-2.014c0-1.967 0-3.52.163-4.734.168-1.247.52-2.249 1.309-3.037.788-.789 1.79-1.141 3.037-1.309C7.723 1.5 9.276 1.5 11.243 1.5M18.5 14.992c-.739-.509-1.913-.777-3.18-.029-.963.569-1.46 1.729-1.285 2.989.176 1.268 1.015 2.62 2.657 3.789l.07.05c.52.371.992.709 1.738.709s1.218-.338 1.736-.708l.072-.051c1.64-1.17 2.48-2.52 2.657-3.79.175-1.26-.323-2.42-1.285-2.988-1.267-.748-2.442-.48-3.18.029m-.828 1.251c-.32-.23-.875-.41-1.59.012-.357.21-.668.727-.562 1.49.106.755.64 1.774 2.042 2.774.613.437.712.481.938.481s.324-.044.937-.48c1.403-1 1.937-2.02 2.042-2.775.106-.764-.205-1.28-.562-1.49-.715-.422-1.27-.243-1.59-.012l-.015.012c-.095.068-.193.139-.276.191a1.4 1.4 0 0 1-.18.097.9.9 0 0 1-.356.077.9.9 0 0 1-.357-.077 1.4 1.4 0 0 1-.18-.097c-.083-.052-.18-.123-.275-.191zM13.685 8.93l-.076-.04c-.545-.289-1.008-.535-1.393-.687-.394-.157-.84-.274-1.308-.15-.31.082-.596.238-.83.46-.364.341-.48.793-.53 1.204-.048.398-.048.904-.048 1.488v.092c0 .584 0 1.09.048 1.488.05.411.166.863.53 1.205.234.22.52.377.83.46.468.123.914.006 1.308-.15.385-.153.848-.399 1.393-.688l.076-.04c.564-.299 1.042-.553 1.39-.79.35-.238.72-.557.858-1.045.09-.318.09-.654 0-.972-.138-.488-.508-.807-.857-1.045-.35-.237-.827-.49-1.39-.79m-2.393.573.015-.002q.014-.001.057.005c.06.009.155.034.298.09.3.12.689.325 1.282.639.612.325 1.015.54 1.286.725.197.134.25.205.261.22a.3.3 0 0 1 0 .141c-.01.016-.064.087-.26.221-.272.185-.675.4-1.287.725-.593.314-.983.52-1.282.638a1.4 1.4 0 0 1-.298.091q-.043.006-.057.005l-.015-.002a.43.43 0 0 1-.184-.1c-.01-.015-.045-.085-.07-.295C11 12.307 11 11.893 11 11.25c0-.644.001-1.057.037-1.353.026-.21.06-.28.07-.296a.43.43 0 0 1 .185-.1" clip-rule="evenodd"/></svg>