<svg xmlns="http://www.w3.org/2000/svg" width="25" height="24" fill="none"><path fill="#141B34" fill-rule="evenodd" d="M11.943 1.75h.114c2.19 0 3.912 0 5.255.18 1.377.186 2.469.573 3.327 1.43.858.86 1.245 1.951 1.43 3.328.181 1.343.181 3.064.181 5.255V12a.75.75 0 0 1-1.5 0c0-1.27 0-2.34-.03-3.25H3.28c-.03.91-.03 1.98-.03 3.25 0 2.26.002 3.88.167 5.112.163 1.21.472 1.933 1.005 2.466s1.256.842 2.466 1.005c1.232.165 2.852.167 5.112.167a.75.75 0 0 1 0 1.5h-.057c-2.19 0-3.912 0-5.255-.18-1.377-.186-2.469-.573-3.327-1.43-.858-.86-1.245-1.951-1.43-3.328-.181-1.343-.181-3.064-.181-5.255v-.114c0-2.19 0-3.912.18-5.255.186-1.377.573-2.469 1.43-3.327.86-.858 1.951-1.245 3.328-1.43 1.343-.181 3.064-.181 5.255-.181m8.64 5.138q.024.176.043.362h-5.3l2.254-3.758c.936.176 1.538.47 1.998.93.534.533.842 1.256 1.005 2.466M12 3.25c1.607 0 2.89 0 3.94.06l-2.364 3.94h-5.25l2.318-3.864-.222-.133q.732-.004 1.578-.003m-5.112.167c.592-.08 1.274-.121 2.073-.143L6.576 7.25H3.374q.02-.186.043-.362c.163-1.21.472-1.933 1.005-2.466s1.256-.842 2.466-1.005M14.5 17.75a.75.75 0 0 0 0 1.5h8a.75.75 0 0 0 0-1.5z" clip-rule="evenodd"/></svg>