<svg xmlns="http://www.w3.org/2000/svg" width="25" height="24" fill="none"><path fill="#141B34" fill-rule="evenodd" d="M3.25 12a9.25 9.25 0 1 1 18.5 0 9.25 9.25 0 0 1-18.5 0M12.5 1.25C6.563 1.25 1.75 6.063 1.75 12S6.563 22.75 12.5 22.75 23.25 17.937 23.25 12 18.437 1.25 12.5 1.25m1.589 7.787-.082-.05c-.657-.407-1.208-.748-1.665-.96-.463-.214-.992-.376-1.543-.206a2.1 2.1 0 0 0-.944.604c-.372.409-.494.943-.55 1.476-.055.532-.055 1.22-.055 2.056v.086c0 .837 0 1.524.055 2.056.056.533.178 1.067.55 1.476.256.28.58.492.944.604.551.17 1.08.008 1.543-.207.457-.211 1.008-.552 1.665-.958l.082-.05v-.001c.681-.422 1.25-.773 1.662-1.1.423-.338.797-.737.931-1.292.09-.375.09-.768 0-1.142-.134-.556-.508-.954-.931-1.291-.412-.328-.98-.68-1.662-1.101m-3.125.398a.6.6 0 0 1 .277-.18c.009-.004.107-.035.47.133.366.17.84.46 1.548.9.733.453 1.224.758 1.558 1.024.33.262.39.398.407.47a.94.94 0 0 1 0 .437c-.017.07-.077.207-.407.47-.334.265-.825.57-1.558 1.023-.709.439-1.182.73-1.547.9-.364.168-.462.136-.47.134a.63.63 0 0 1-.278-.18c-.037-.043-.12-.17-.167-.623-.046-.444-.047-1.053-.047-1.943s.001-1.499.047-1.944c.047-.452.13-.58.167-.621" clip-rule="evenodd"/></svg>