<svg xmlns="http://www.w3.org/2000/svg" width="25" height="24" fill="none"><path fill="#141B34" fill-rule="evenodd" d="M11.943 1.25h.114c2.19 0 3.912 0 5.255.18 1.377.186 2.469.573 3.327 1.43.858.86 1.245 1.951 1.43 3.328.181 1.343.181 3.064.181 5.255v.057a.75.75 0 0 1-1.5 0c0-1.511 0-2.736-.05-3.75H3.3c-.05 1.014-.05 2.239-.05 3.75 0 2.26.002 3.88.167 5.112.163 1.21.472 1.933 1.005 2.466s1.256.842 2.466 1.005c1.232.165 2.852.167 5.112.167a.75.75 0 0 1 0 1.5h-.057c-2.19 0-3.912 0-5.255-.18-1.377-.186-2.469-.573-3.327-1.43-.858-.86-1.245-1.951-1.43-3.328-.181-1.343-.181-3.064-.181-5.255v-.114c0-2.19 0-3.912.18-5.255.186-1.377.573-2.469 1.43-3.327.86-.858 1.951-1.245 3.328-1.43 1.343-.181 3.064-.181 5.255-.181m7.635 2.672c.513.512.818 1.2.985 2.328h-5.238l1.983-3.305c1.094.17 1.767.473 2.27.977M12 2.75c1.461 0 2.654 0 3.648.046L13.576 6.25h-5.25l2.098-3.497q.731-.004 1.576-.003m-5.112.167c.515-.07 1.098-.11 1.768-.133L6.576 6.25h-3.14c.168-1.128.473-1.816.986-2.328.533-.533 1.256-.842 2.466-1.005M19.25 14a.75.75 0 0 0-1.5 0v3.25H14.5a.75.75 0 0 0 0 1.5h3.25V22a.75.75 0 0 0 1.5 0v-3.25h3.25a.75.75 0 0 0 0-1.5h-3.25z" clip-rule="evenodd"/></svg>