<svg xmlns="http://www.w3.org/2000/svg" width="24" height="24" fill="none"><path fill="#141B34" fill-rule="evenodd" d="m16.757 4.123.282 1.127H6.961l.282-1.128A1.81 1.81 0 0 1 9 2.75a.75.75 0 0 0 0-1.5 3.306 3.306 0 0 0-3.213 2.508l-.39 1.562a2.3 2.3 0 0 0-.786.263 2.75 2.75 0 0 0-1.288 1.698c-.169.653-.028 1.319.255 2.652.32 1.506.481 2.261.895 2.917a4.07 4.07 0 0 0 1.9 1.608c.647.265 1.317.29 2.538.292l.409 2.933.008.063.004.026-.068-.003c-.258-.012-.577-.027-.887.101a1.66 1.66 0 0 0-.624.452c-.195.227-.29.47-.45.883l-.001.001q-.057.141-.133.314c-.302.692-.807 1.85.082 2.746.479.485 1.117.485 2.174.485h5.152c1.057 0 1.695 0 2.174-.484.889-.898.384-2.056.082-2.747l-.004-.009a8 8 0 0 1-.131-.311l-.004-.009c-.157-.401-.252-.645-.444-.868a1.66 1.66 0 0 0-.625-.454c-.311-.128-.631-.113-.888-.101l-.02.001-.048.002.006-.048.007-.048.407-2.925c1.222-.002 1.892-.027 2.539-.292a4.07 4.07 0 0 0 1.901-1.608c.414-.656.575-1.412.896-2.922l.002-.007c.28-1.324.422-1.988.252-2.641a2.74 2.74 0 0 0-1.287-1.696 2.3 2.3 0 0 0-.788-.264l-.39-1.561A3.31 3.31 0 0 0 15 1.251a.75.75 0 0 0 0 1.5c.832 0 1.555.564 1.757 1.372m-1.46 9.127c.893-.004 1.398-.03 1.762-.179a2.58 2.58 0 0 0 1.202-1.022c.27-.429.413-1.097.696-2.427v-.006c.22-1.029.35-1.649.27-1.959a1.24 1.24 0 0 0-.574-.768c-.245-.139-.834-.139-1.81-.139H7.159c-.976 0-1.565 0-1.809.138-.28.158-.489.438-.575.77-.08.31.05.93.269 1.958v.003c.284 1.333.426 2 .697 2.429.295.467.71.82 1.2 1.022.366.15.87.175 1.761.18l-.16-1.147a.75.75 0 0 1 1.486-.207l.776 5.573c.057.404.093.668-.014.967-.315.891-1.213.849-1.596.831H9.19a2 2 0 0 0-.258-.003.2.2 0 0 0-.042.035c-.033.045-.112.247-.188.443q-.076.193-.16.378c-.211.486-.376.904-.24 1.075.147.055.642.055 1.122.055h5.152c.48 0 .975 0 1.12-.055.138-.173-.027-.59-.24-1.076a10 10 0 0 1-.156-.373l-.012-.03c-.074-.19-.147-.375-.18-.418a.2.2 0 0 0-.041-.035c-.048-.005-.145-.001-.224.002l-.037.001c-.383.018-1.281.06-1.598-.835-.106-.294-.07-.558-.013-.957l.777-5.579a.75.75 0 1 1 1.485.207z" clip-rule="evenodd"/></svg>