<svg xmlns="http://www.w3.org/2000/svg" width="25" height="24" fill="none"><path fill="#141B34" fill-rule="evenodd" d="M20.528 1.462a.75.75 0 0 0-1.046 1.076c.162.157.419.359.663.551l.057.045c.246.193.508.4.757.61l.007.006h-4.459a.75.75 0 0 0 0 1.5h4.46l-.008.006c-.249.21-.511.417-.757.61l-.057.045a9 9 0 0 0-.663.551.75.75 0 1 0 1.046 1.076c.091-.089.273-.235.544-.448l.06-.047c.242-.19.526-.413.797-.643a7.4 7.4 0 0 0 .826-.797c.118-.138.234-.294.323-.461a1.4 1.4 0 0 0 .175-.642c0-.258-.088-.48-.175-.642a2.7 2.7 0 0 0-.323-.461 7.4 7.4 0 0 0-.826-.797c-.271-.23-.555-.453-.797-.643l-.06-.047a9 9 0 0 1-.544-.448M10.501 11.72h10.405c.498.018.823.403.832.973.004.277-.08.528-.217.703-.124.157-.316.286-.63.311h-5.91a.75.75 0 0 0-.743.846c.034.264.018.894-.118 1.712-.132.802-.368 1.718-.732 2.549-.367.838-.839 1.531-1.41 1.958-.543.404-1.211.6-2.097.395l-.638-.144C8.39 20.83 6.852 20.254 6 19.656c-.645-.452-1.29-.592-1.895-.623a9 9 0 0 0-.844.008l-.132.006c-.22.011-.421.02-.628.02a.75.75 0 0 0 0 1.5c.246 0 .49-.011.71-.022l.12-.006a7 7 0 0 1 .698-.008c.41.02.758.107 1.11.353 1.06.743 2.795 1.382 3.777 1.602l.63.143c1.322.304 2.44.009 3.33-.655.86-.642 1.465-1.595 1.887-2.559.426-.971.69-2.014.838-2.905.078-.469.126-.916.144-1.303h5.174l.05-.001c.744-.05 1.336-.382 1.73-.88a2.6 2.6 0 0 0 .54-1.655c-.017-1.12-.76-2.408-2.3-2.45h-8.537l.321-.302.016-.015c.89-.882 1.278-1.826 1.113-2.724-.162-.88-.814-1.483-1.502-1.779-1.058-.455-2.077.134-2.66.569L4.79 9.63c-.388.29-.859.446-1.342.446H2.5a.75.75 0 1 0 0 1.5h.948c.807 0 1.593-.261 2.24-.745l4.9-3.66c.548-.41.93-.494 1.168-.392.36.155.572.413.62.673.043.24-.013.708-.687 1.38l-1.7 1.59a.75.75 0 0 0 .512 1.298" clip-rule="evenodd"/></svg>