<svg xmlns="http://www.w3.org/2000/svg" width="24" height="24" fill="none"><path fill="#141B34" fill-rule="evenodd" d="M11.744 11.737a.77.77 0 0 0 .52 0c1.778-.657 3.112-1.962 3.858-3.775.187.085.34.19.47.323.663.668.663 1.999.663 4.649v8.349h-4.501v-2.25a.75.75 0 0 0-1.5 0v2.25h-4.5v-8.35c0-2.65 0-3.98.663-4.648a1.6 1.6 0 0 1 .47-.323c.614 1.514 1.772 3.005 3.857 3.775M7.45 6.52c-.22-1.054-.221-2.002-.147-2.58a.75.75 0 0 1 .744-.655c2.398 0 3.26-1.536 3.295-1.6a.749.749 0 0 1 1.329.007c.032.058.894 1.593 3.292 1.593a.75.75 0 0 1 .744.654c.084.651.07 1.581-.142 2.583.433.168.79.4 1.096.709.879.887 1.053 2.051 1.087 4.055 1.565.012 2.5.103 3.2.804.807.804.807 1.92.807 3.944v5c0 .57 0 1.018-.366 1.383-.366.367-.816.367-1.384.367h-18c-.57 0-1.018 0-1.384-.367-.366-.365-.366-.814-.366-1.383v-5c0-2.025 0-3.14.806-3.945.7-.7 1.636-.791 3.202-.803.035-2.004.21-3.167 1.088-4.055a3.1 3.1 0 0 1 1.1-.71m1.563.1a7.2 7.2 0 0 1-.258-1.872c1.615-.168 2.651-.896 3.25-1.5.6.604 1.636 1.331 3.25 1.5a7.3 7.3 0 0 1-.258 1.875.75.75 0 0 0-.123.398q-.06.179-.133.356c-.553 1.352-1.472 2.31-2.736 2.85-1.264-.54-2.183-1.498-2.736-2.85a7 7 0 0 1-.132-.352.75.75 0 0 0-.124-.404M3.12 13.15c.297-.296.903-.353 2.134-.363v8.497H2.755l-.001-.244v-5.006c0-1.746.015-2.533.366-2.884m15.636-.363v8.498h2.253c.082 0 .168 0 .244-.002v-5.249c0-1.746-.014-2.533-.365-2.883-.297-.297-.903-.354-2.132-.364m-3.752 2.997h-1.2a.75.75 0 0 1 0-1.5h1.2a.75.75 0 0 1 0 1.5m-4.8 0h-1.2a.75.75 0 0 1 0-1.5h1.2a.75.75 0 0 1 0 1.5" clip-rule="evenodd"/></svg>