<svg xmlns="http://www.w3.org/2000/svg" width="24" height="24" fill="none"><path fill="#141B34" fill-rule="evenodd" d="M4.455 14.751h15.092c.56.638.834 1.626.643 2.409-.183.751-.749 1.255-1.684 1.499a462 462 0 0 1-5.625 1.421c-.495.122-.702.171-.88.171s-.385-.049-.879-.171a477 477 0 0 1-5.625-1.421c-.935-.245-1.5-.749-1.684-1.5-.19-.783.083-1.77.642-2.408m-3.11-5.159c-.418 2.163.68 3.762 1.652 4.6-.647.97-.908 2.227-.642 3.322.314 1.292 1.295 2.214 2.763 2.597 2.097.546 4.437 1.127 5.645 1.425h.002c.542.134.87.215 1.237.215v.002c.361 0 .667-.075 1.216-.21l.022-.005c1.208-.298 3.548-.88 5.645-1.426 1.468-.384 2.45-1.306 2.763-2.597.266-1.096.005-2.352-.642-3.322.972-.838 2.07-2.437 1.651-4.601-.194-1.003-1.13-2.112-2.866-3.393-1.17-.865-2.686-1.796-4.505-2.77l-.005-.003C13.865 2.668 13.084 2.25 12 2.25s-1.865.419-3.284 1.179c-1.819.974-3.335 1.906-4.506 2.77C2.477 7.48 1.54 8.59 1.345 9.592m2.885 3.659h15.543c.461-.328 1.784-1.455 1.413-3.373-.081-.416-.796-2.015-6.609-5.125-1.283-.688-1.868-1.001-2.575-1.001s-1.293.314-2.574 1l-.003.001c-5.813 3.111-6.527 4.71-6.608 5.125-.37 1.917.948 3.043 1.413 3.373m7.537-1.537a.756.756 0 0 0 .469 0c1.581-.521 2.224-2.097 2.466-2.99.175-.642-.126-1.322-.732-1.652l-1.106-.601a1.8 1.8 0 0 0-1.725 0l-1.106.601c-.606.33-.907 1.01-.732 1.651.243.893.885 2.47 2.466 2.99m.235-1.524c-.728-.377-1.082-1.253-1.239-1.806h.001l1.093-.595a.3.3 0 0 1 .291 0l1.093.595c-.157.552-.51 1.43-1.239 1.806" clip-rule="evenodd"/></svg>