<svg xmlns="http://www.w3.org/2000/svg" width="24" height="24" fill="none"><path fill="#141B34" fill-rule="evenodd" d="m4.337 12.484.975 4.73c.223 1.077.404 1.955.638 2.641.245.718.574 1.31 1.142 1.76.537.427 1.334.69 2.15.853.84.169 1.803.25 2.755.25.952.001 1.915-.08 2.757-.248.816-.164 1.614-.427 2.152-.855.568-.45.897-1.042 1.142-1.76.234-.686.415-1.564.638-2.642l.01-.048.965-4.68q.043-.02.086-.042c.45-.229.977-.599 1.38-1.202.407-.61.653-1.408.619-2.429-.07-2.075-1.59-3.19-2.956-3.49a5 5 0 0 0-.66-2.038c-1.084-1.852-3.645-2.53-5.54-1.653-.214.1-.413.24-.581.378a3 3 0 0 0-.6-.378c-1.894-.877-4.456-.199-5.54 1.653-.332.567-.558 1.302-.611 2.077-.561.117-1.14.363-1.641.75-.75.582-1.323 1.484-1.364 2.701-.034 1.021.212 1.819.62 2.43a3.6 3.6 0 0 0 1.464 1.242m13.736.278-.846 4.1c-.235 1.138-.398 1.922-.599 2.508-.192.566-.393.863-.655 1.07-.204.163-.575.329-1.106.466l.816-8.143zm-3.898 0-.84 8.397c-.432.04-.883.06-1.338.06-.873 0-1.736-.076-2.461-.221-.75-.15-1.26-.358-1.51-.557-.262-.208-.463-.505-.656-1.07-.2-.587-.364-1.371-.598-2.509l-.846-4.1zm-.954-9.77c1.248-.578 2.951-.083 3.615 1.05.295.505.517 1.19.464 1.889a.75.75 0 0 0 .748.807c.93 0 2.151.698 2.199 2.124.024.741-.152 1.223-.368 1.546-.221.331-.52.55-.812.698-.218.11-.502.156-.875.156H5.807c-.373 0-.657-.045-.875-.156a2.1 2.1 0 0 1-.812-.698c-.216-.323-.392-.805-.368-1.546.025-.727.35-1.229.783-1.564a2.5 2.5 0 0 1 1.473-.517.75.75 0 0 0 .747-.807c-.055-.738.134-1.464.408-1.932.664-1.133 2.367-1.628 3.615-1.05.113.052.24.14.374.253.098.083.176.157.255.232l.107.1a.75.75 0 0 0 1.02 0c.054-.05.113-.11.162-.159l.024-.024q.087-.09.173-.168.179-.165.328-.234" clip-rule="evenodd"/></svg>