<svg xmlns="http://www.w3.org/2000/svg" width="25" height="24" fill="none"><path fill="#141B34" fill-rule="evenodd" d="M12.678 3.778c.314-.085.65.03.848.297l.384.517-3.867 1.044L10.12 5a.81.81 0 0 1 .59-.69zm2.052-.597.736.99 4.507-1.216a.75.75 0 1 1 .39 1.448l-16 4.321a.75.75 0 1 1-.39-1.448l4.51-1.218.146-1.234a2.31 2.31 0 0 1 1.69-1.963l1.968-.532a2.3 2.3 0 0 1 2.443.852M2.168 10.75h1.315l.447 4.912c.114 1.252.205 2.264.382 3.057.184.825.48 1.513 1.067 2.05.587.535 1.299.767 2.137.876.806.104 1.822.104 3.08.104h3.145c1.257 0 2.273 0 3.079-.104.838-.109 1.55-.34 2.137-.877s.883-1.224 1.067-2.049c.177-.793.268-1.805.382-3.057l.447-4.913h1.315a.75.75 0 0 0 0-1.5h-20a.75.75 0 0 0 0 1.5m3.25 4.724L4.99 10.75h14.358l-.43 4.725c-.12 1.316-.204 2.231-.357 2.919-.149.666-.342 1.02-.614 1.268s-.641.409-1.319.496c-.698.09-1.617.092-2.938.092h-3.042c-1.321 0-2.24-.001-2.938-.092-.678-.088-1.047-.248-1.319-.497-.272-.248-.465-.6-.614-1.267-.153-.688-.238-1.603-.357-2.919" clip-rule="evenodd"/></svg>