<svg xmlns="http://www.w3.org/2000/svg" width="25" height="24" fill="none"><path fill="#141B34" fill-rule="evenodd" d="m10.179 5.25.319-1.053a.75.75 0 0 1 .686-.447h1.968a.75.75 0 0 1 .686.447l.32 1.053zm5.075-1.555.47 1.555h4.444a.75.75 0 0 1 0 1.5h-16a.75.75 0 0 1 0-1.5h4.443l.471-1.555.012-.03a2.25 2.25 0 0 1 2.09-1.415h1.968c.92 0 1.748.56 2.09 1.414zM2.168 9.75h1.315l.447 4.913c.114 1.252.205 2.264.382 3.057.184.825.48 1.513 1.067 2.05.587.535 1.299.767 2.137.876.806.104 1.822.104 3.08.104h3.145c1.257 0 2.273 0 3.079-.104.838-.109 1.55-.34 2.137-.877s.883-1.224 1.067-2.049c.177-.793.268-1.805.382-3.057l.447-4.913h1.315a.75.75 0 0 0 0-1.5h-20a.75.75 0 0 0 0 1.5m3.25 4.725L4.99 9.75h14.358l-.43 4.725c-.12 1.316-.204 2.23-.357 2.919-.149.666-.342 1.02-.614 1.267-.272.249-.641.41-1.319.497-.698.09-1.617.092-2.938.092h-3.042c-1.321 0-2.24-.002-2.938-.092-.678-.088-1.047-.248-1.319-.497-.272-.248-.465-.6-.614-1.267-.153-.688-.238-1.603-.357-2.919" clip-rule="evenodd"/></svg>