<svg xmlns="http://www.w3.org/2000/svg" width="25" height="24" fill="none"><path fill="#141B34" fill-rule="evenodd" d="M8.5 8.5a4.75 4.75 0 1 1 9.5 0 .75.75 0 0 0 1.5 0 6.25 6.25 0 1 0-10.312 4.75H4.75a.75.75 0 0 0 0 1.5h5.459c-1.202 2.472-2.815 4.655-4.776 5.57a.75.75 0 0 0 .317 1.43h11.912l.078-.003a6.612 6.612 0 0 0 1.15-.162c.693-.162 1.614-.496 2.372-1.203a.75.75 0 1 0-1.024-1.097c-.492.46-1.133.71-1.69.839a5 5 0 0 1-.917.126H8.155c1.58-1.453 2.807-3.498 3.71-5.5h3.885a.75.75 0 0 0 0-1.5h-2.5A4.75 4.75 0 0 1 8.5 8.5m9.126 13.25-.001-.75z" clip-rule="evenodd"/></svg>