<svg xmlns="http://www.w3.org/2000/svg" width="25" height="24" fill="none"><path fill="#141B34" fill-rule="evenodd" d="M3.5 12A9.25 9.25 0 1 1 22 12a9.25 9.25 0 0 1-18.5 0m9.25-10.75C6.813 1.25 2 6.063 2 12s4.813 10.75 10.75 10.75S23.5 17.937 23.5 12 18.687 1.25 12.75 1.25m1.845 5.795c-1.903-.838-4.417.232-4.647 2.893-.07.801.151 1.628.565 2.293H9.277a.75.75 0 0 0 0 1.5h1.914a7 7 0 0 1-.316.542c-.407.633-.93 1.222-1.522 1.551a.75.75 0 0 0 .364 1.406h5.445c.108.002.377.008.71-.066.381-.084.831-.263 1.33-.62a.75.75 0 0 0-.875-1.22c-.338.243-.601.337-.777.376-.15.033-.25.032-.356.03h-3.518q.257-.326.461-.646c.306-.475.546-.954.707-1.353h1.449a.75.75 0 0 0 0-1.5h-.345a8 8 0 0 1-.92-.041c-.376-.046-.63-.133-.801-.259-.474-.348-.849-1.124-.785-1.864.134-1.546 1.503-2.11 2.549-1.65.372.165.634.478.814.862.182.388.252.79.267 1.008a.75.75 0 0 0 1.496-.104 4.5 4.5 0 0 0-.405-1.541c-.279-.593-.76-1.242-1.568-1.597" clip-rule="evenodd"/></svg>