<svg xmlns="http://www.w3.org/2000/svg" width="24" height="24" fill="none"><path fill="#141B34" fill-rule="evenodd" d="M6.254 7.707v1.018c0 1.685.711 3.272 1.927 4.374l-.77 2.308-1.378.46-.08.027c-.922.307-1.49.496-2 .792-.499.29-.95.652-1.342 1.076-.476.517-1.357 2.052-1.357 4.238a.75.75 0 0 0 1.5 0c0-1.814.743-2.985.96-3.221.29-.314.624-.582.992-.796.361-.21.774-.35 1.8-.693l1.328-.442 1.081.944c.597.52 1.097.958 1.544 1.258.473.318.964.538 1.545.538s1.072-.22 1.545-.538c.447-.3.947-.737 1.543-1.258l1.082-.945 1.327.443c1.027.342 1.44.483 1.8.693.37.214.704.482.992.796.218.236.96 1.407.96 3.221a.75.75 0 0 0 1.5 0c0-2.186-.88-3.72-1.357-4.238a5.8 5.8 0 0 0-1.341-1.076c-.51-.296-1.078-.485-2-.792l-1.458-.487-.77-2.308a5.9 5.9 0 0 0 1.927-4.374V7.707a.75.75 0 0 0 .514-1.41q-.253-.094-.514-.18v-.16c0-1.714-1.168-3.186-2.865-3.966l-.514-.236c-1.466-.673-3.277-.673-4.742 0l-.515.236c-1.696.78-2.864 2.252-2.864 3.965v.16a14 14 0 0 0-.514.182.75.75 0 0 0 .514 1.41m8.293 6.294-.093.056a4.68 4.68 0 0 1-4.9 0l-.093-.056-.588 1.763.993.867c.642.56 1.07.933 1.43 1.174.34.23.539.283.708.283.17 0 .367-.054.708-.283.359-.241.788-.614 1.43-1.174l.992-.867zm1.707-6.757v1.481c0 1.537-.79 2.955-2.07 3.738l-.514.316a3.18 3.18 0 0 1-3.332 0l-.515-.316a4.38 4.38 0 0 1-2.07-3.738V7.244a17.8 17.8 0 0 1 4.251-.494c1.536 0 2.98.18 4.25.494m-4.25-1.994c-1.5 0-2.933.16-4.235.45.107-.896.775-1.794 1.976-2.346l.514-.236c1.068-.49 2.422-.49 3.49 0l.514.236c1.2.552 1.868 1.45 1.975 2.346a19.6 19.6 0 0 0-4.234-.45" clip-rule="evenodd"/></svg>