<svg xmlns="http://www.w3.org/2000/svg" width="24" height="24" fill="none"><path fill="#141B34" fill-rule="evenodd" d="M22.004 3.75h-.25v16.5h.25a.75.75 0 0 1 0 1.5h-20a.75.75 0 0 1 0-1.5h.25V3.75h-.25a.75.75 0 0 1 0-1.5h20a.75.75 0 0 1 0 1.5m-1.75 12v4.5h-4.5v-4.5zm-6-.009v4.509h-4.5V3.75h4.5v4.509c-.65.025-1.105.122-1.485.498l-.01.009c-.505.519-.505 1.164-.505 2.234v2c0 1.07 0 1.715.506 2.234l.009.009c.38.376.836.473 1.485.498m-6-11.991v16.5h-4.5V3.75zm6.75 6c-.497 0-1.06 0-1.176.071-.074.105-.074.699-.074 1.179v2c0 .48 0 1.075.074 1.179.116.071.679.071 1.176.071h5.25v-4.5zm5.25-1.5h-4.5v-4.5h4.5zm-4.25 4.5h1a.75.75 0 0 0 0-1.5h-1a.75.75 0 0 0 0 1.5" clip-rule="evenodd"/></svg>