<svg xmlns="http://www.w3.org/2000/svg" width="24" height="24" fill="none"><path fill="#141B34" fill-rule="evenodd" d="M18.004 8.748a.8.8 0 0 1-.25-.043v1.023a5.92 5.92 0 0 1-1.927 4.365l.77 2.31 1.38.462c1.04.344 1.565.523 2.07.808l.01.005.008.005c.509.305.958.667 1.334 1.076.459.503 1.357 2.015 1.357 3.238a.75.75 0 0 1-.75.75h-.001a.75.75 0 0 1-.75-.75c0-.727-.67-1.901-.963-2.223a4.5 4.5 0 0 0-.99-.797c-.383-.214-.856-.375-1.8-.686l-1.327-.444-1.076.943-.002.001c-1.334 1.16-2.068 1.798-3.092 1.798s-1.76-.64-3.094-1.8l-.03-.024-1.047-.918-1.326.443c-.945.313-1.42.473-1.801.687a4.5 4.5 0 0 0-.992.799c-.292.32-.961 1.495-.961 2.222a.75.75 0 0 1-1.5 0c0-1.223.897-2.734 1.355-3.236a6 6 0 0 1 1.343-1.083l.009-.005c.506-.285 1.03-.464 2.073-.81l1.376-.46.77-2.31a5.93 5.93 0 0 1-1.926-4.366V8.706a.75.75 0 0 1-.513-1.409l.02-.008-.183-.355C4.94 5.7 4.558 4.96 4.853 4.153c.312-.836 1.074-1.08 2.336-1.487h.002l3.972-1.25c.312-.104.52-.166.777-.166.256 0 .464.063.776.167l4.233 1.338c1.11.351 1.844.584 2.172 1.349.314.72.039 1.43-.416 2.608l-.003.008-.26.668a.75.75 0 0 1-.436 1.361zM9.46 15l-.587 1.763 1.02.894c1.143.992 1.666 1.43 2.11 1.43.446 0 .97-.438 2.11-1.43l.03-.025.992-.87L14.548 15l-.09.055a4.698 4.698 0 0 1-4.902.004zM7.754 9.728V8.241c1.305-.324 2.748-.493 4.251-.493 1.502 0 2.945.168 4.249.492v1.488c0 1.521-.792 2.951-2.074 3.733l-.507.316a3.2 3.2 0 0 1-3.33.004l-.52-.323c-1.276-.779-2.07-2.208-2.07-3.73m9.273-2.835.278-.716c.25-.648.51-1.319.44-1.479-.06-.139-.66-.329-1.243-.514l-.004-.001L12.25 2.84l-.015-.005a3 3 0 0 0-.296-.087 3 3 0 0 0-.308.092l-.011.004-3.971 1.25c-.654.21-1.332.428-1.388.577-.067.183.26.817.639 1.554l.007.013.307.594c1.471-.384 3.1-.583 4.792-.583 1.78 0 3.49.22 5.021.644" clip-rule="evenodd"/></svg>