<svg xmlns="http://www.w3.org/2000/svg" width="25" height="24" fill="none"><path fill="#141B34" d="M13 21.5c-4.9 0-7.36 0-9.04-1.51-1.71-1.54-1.71-3.78-1.71-8.24s0-6.7 1.71-8.24C5.64 2 8.1 2 13 2s7.36 0 9.04 1.51c1.71 1.54 1.71 3.78 1.71 8.24s0 6.7-1.71 8.24C20.36 21.5 17.9 21.5 13 21.5m0-18c-4.52 0-6.78 0-8.03 1.13-1.22 1.09-1.22 3.11-1.22 7.12s0 6.03 1.22 7.12C6.22 20 8.49 20 13 20s6.78 0 8.03-1.13c1.22-1.09 1.22-3.11 1.22-7.12s0-6.03-1.22-7.12C19.78 3.5 17.51 3.5 13 3.5m6 13h-4c-.41 0-.75-.34-.75-.75s.34-.75.75-.75h4c.41 0 .75.34.75.75s-.34.75-.75.75m-8 0H7c-.41 0-.75-.34-.75-.75S6.59 15 7 15h4c.41 0 .75.34.75.75s-.34.75-.75.75m8-4h-4c-.41 0-.75-.34-.75-.75s.34-.75.75-.75h4c.41 0 .75.34.75.75s-.34.75-.75.75m-9.6 0h-.8c-.87 0-1.44 0-1.9-.45s-.45-1.03-.45-1.9v-.8c0-.87 0-1.44.45-1.9S7.73 7 8.6 7h.8c.87 0 1.44 0 1.9.45s.45 1.03.45 1.9v.8c0 .87 0 1.44-.45 1.9s-1.03.45-1.9.45m-.8-4c-.36 0-.77 0-.87.04.02.04.02.45.02.81v.8c0 .36 0 .77.04.87.04-.02.45-.02.81-.02h.8c.36 0 .77 0 .87-.04-.02-.04-.02-.45-.02-.81v-.8c0-.36 0-.77-.04-.87-.04.02-.45.02-.81.02zm10.4 0h-4c-.41 0-.75-.34-.75-.75S14.59 7 15 7h4c.41 0 .75.34.75.75s-.34.75-.75.75"/></svg>