<svg xmlns="http://www.w3.org/2000/svg" width="24" height="24" fill="none"><path fill="#141B34" fill-rule="evenodd" d="M4.534 8.143a.3.3 0 0 1 .293-.393h14.334c.221 0 .36.209.298.397a3.8 3.8 0 0 0-.187 1.103H4.726a3.8 3.8 0 0 0-.192-1.107m0 2.607h14.933c.114.432.266.849.422 1.24.142.354.306.726.462 1.08q.143.324.268.617c.23.543.413 1.03.51 1.475.547 2.523-.8 5.002-3.172 5.498-3.771.787-8.149.787-11.92-.001-2.371-.496-3.717-2.973-3.168-5.493.097-.444.28-.931.51-1.475.082-.192.173-.398.267-.61.157-.357.323-.732.466-1.089.157-.392.308-.809.422-1.242m13.464-4.5h1.163c1.226 0 2.11 1.193 1.722 2.367-.259.783-.05 1.696.399 2.815.136.34.277.66.423.99.096.22.195.443.295.68.238.56.467 1.153.594 1.741.685 3.157-.972 6.583-4.33 7.285-3.974.83-8.56.83-12.533-.001-3.357-.702-5.015-4.125-4.328-7.28.128-.588.358-1.181.597-1.743q.149-.348.293-.672c.147-.334.29-.657.426-.998.45-1.12.656-2.032.393-2.813-.395-1.174.489-2.371 1.715-2.371h2.171c.497 0 1.101-.226 1.806-.667.693-.434 1.402-1.024 2.101-1.644l.156-.139a19 19 0 0 0-.54-.416 6 6 0 0 0-.772-.503c-.224-.117-.33-.131-.352-.131-.207 0-.32.045-.38.08a.4.4 0 0 0-.155.173c-.1.191-.134.492-.103.796a.75.75 0 1 1-1.492.152c-.046-.446-.026-1.083.266-1.642a1.9 1.9 0 0 1 .713-.765c.33-.198.72-.294 1.15-.294.379 0 .741.142 1.044.299.315.163.645.385.974.63.244.18.505.386.775.604.236-.21.464-.408.677-.582.299-.245.6-.47.89-.636.273-.157.622-.315.999-.315.413 0 .786.104 1.1.316.31.208.514.49.646.774.254.546.27 1.167.23 1.602a.75.75 0 1 1-1.493-.134c.028-.315-.002-.632-.097-.836a.4.4 0 0 0-.125-.163c-.034-.023-.106-.059-.259-.059h.001l-.003.001c-.017.004-.094.023-.251.114a5.5 5.5 0 0 0-.688.497q-.219.179-.451.383l.21.17c.77.62 1.558 1.213 2.332 1.65.782.442 1.484.685 2.091.685m-3.817 0H10.47c.498-.377.98-.789 1.43-1.189l.336-.3.399.323c.488.393 1.009.797 1.546 1.166" clip-rule="evenodd"/></svg>