<svg xmlns="http://www.w3.org/2000/svg" width="25" height="24" fill="none"><path fill="#141B34" fill-rule="evenodd" d="M7.75 3a1 1 0 0 1 1-1h.009a1 1 0 1 1 0 2H8.75a1 1 0 0 1-1-1m-4-.75A.75.75 0 0 1 4.5 3v11c0 1.671.002 2.849.121 3.74.06.445.146.789.263 1.066L21.22 2.47a.75.75 0 1 1 1.06 1.06L5.944 19.866c.277.117.62.203 1.065.262.892.12 2.07.122 3.741.122h11a.75.75 0 0 1 0 1.5H10.694c-1.602 0-2.881 0-3.884-.135-1.037-.14-1.89-.435-2.565-1.11s-.97-1.528-1.11-2.565C3 16.937 3 15.658 3 14.056V3a.75.75 0 0 1 .75-.75m12 .75a1 1 0 1 0 0 2h.009a1 1 0 1 0 0-2zm-7 5a1 1 0 0 0 0 2h.009a1 1 0 1 0 0-2zm11 3a1 1 0 0 1 1-1h.009a1 1 0 1 1 0 2h-.009a1 1 0 0 1-1-1m-6 5a1 1 0 1 0 0 2h.009a1 1 0 1 0 0-2z" clip-rule="evenodd"/></svg>