<svg xmlns="http://www.w3.org/2000/svg" width="25" height="24" fill="none"><path fill="#141B34" fill-rule="evenodd" d="M9.761 2.75a.75.75 0 0 0-.034-1.5c-2.77.064-4.706.313-6.06 1.667S2.064 6.207 2 8.977a.75.75 0 1 0 1.5.034c.064-2.824.35-4.155 1.228-5.033S6.937 2.814 9.76 2.75m6.012-1.5a.75.75 0 0 0-.034 1.5c2.824.064 4.155.35 5.033 1.228S21.936 6.187 22 9.01a.75.75 0 1 0 1.5-.034c-.064-2.77-.313-4.706-1.667-6.06s-3.29-1.603-6.06-1.667M23.5 15.023a.75.75 0 1 0-1.5-.034c-.064 2.824-.35 4.155-1.228 5.033s-2.209 1.164-5.033 1.228a.75.75 0 0 0 .034 1.5c2.77-.064 4.706-.313 6.06-1.667s1.604-3.29 1.667-6.06m-20-.034a.75.75 0 0 0-1.5.034c.064 2.77.313 4.706 1.667 6.06s3.29 1.604 6.06 1.667a.75.75 0 1 0 .034-1.5c-2.824-.064-4.155-.35-5.033-1.228S3.564 17.813 3.5 14.99M13.75 5.25a.75.75 0 0 1 .75.75v3.052c0 .898 0 1.648-.08 2.242-.084.628-.27 1.195-.726 1.65-.455.456-1.022.642-1.65.726-.594.08-1.344.08-2.242.08H6.75a.75.75 0 0 1 0-1.5h3c.964 0 1.612-.002 2.095-.066.461-.063.659-.17.789-.3s.237-.328.3-.79C12.998 10.613 13 9.965 13 9V6a.75.75 0 0 1 .75-.75m3 1.75a1 1 0 0 1 1-1h.009a1 1 0 1 1 0 2h-.009a1 1 0 0 1-1-1m1.75 3a.75.75 0 0 0-1.5 0v2a.75.75 0 0 0 1.5 0zm-2.784 4.25h2.069c.205 0 .426 0 .614.025.219.03.5.105.735.341.236.236.311.516.341.735.025.188.025.41.025.615v1.069c0 .205 0 .426-.025.614-.03.219-.105.5-.341.735a1.24 1.24 0 0 1-.735.341 5 5 0 0 1-.614.025h-2.069c-.205 0-.427 0-.615-.025-.219-.03-.5-.105-.735-.341a1.24 1.24 0 0 1-.341-.735 5 5 0 0 1-.025-.614v-1.069c0-.205 0-.427.025-.615.03-.219.105-.5.341-.735.236-.236.516-.311.735-.341.188-.025.41-.025.615-.025m-.215 1.501L15.5 16v1l.001.249.249.001h2l.249-.001L18 17v-1l-.001-.249-.249-.001h-2zM6 18a.75.75 0 0 1 .75-.75h5a.75.75 0 0 1 0 1.5h-5A.75.75 0 0 1 6 18M8.75 5.25h-.159c-.38 0-.735-.001-1.025.036-.366.046-.738.162-1.053.477-.31.31-.422.685-.47 1.04C6 7.126 6 7.522 6 7.954v.091c0 .433 0 .83.043 1.153.048.355.16.73.47 1.04.309.309.684.421 1.04.47.323.043.72.042 1.152.042h.09c.433 0 .83 0 1.152-.043.356-.048.731-.16 1.04-.47.31-.308.422-.684.47-1.04.043-.322.043-.719.043-1.152v-.151c0-.405 0-.779-.04-1.084-.046-.36-.16-.735-.473-1.047s-.686-.426-1.046-.473c-.306-.04-.68-.04-1.084-.04zM7.573 6.824a.1.1 0 0 1 .024-.016.6.6 0 0 1 .157-.034c.188-.024.436-.024.849-.024h.188c.473 0 .751 0 .956.027a.7.7 0 0 1 .161.036c.014.005.016.008.018.01l.001.001c.003.002.005.005.01.018.01.02.024.067.036.162.027.204.027.483.027.955V8c0 .493-.002.787-.03.998a.7.7 0 0 1-.042.177l-.001.002-.003.002-.01.004a.7.7 0 0 1-.167.037c-.21.029-.504.03-.997.03s-.787-.001-.997-.03a.7.7 0 0 1-.177-.041l-.003-.002-.001-.002-.005-.01a.7.7 0 0 1-.037-.167C7.502 8.787 7.5 8.493 7.5 8c0-.492.002-.786.03-.997a.7.7 0 0 1 .042-.177z" clip-rule="evenodd"/></svg>