<svg xmlns="http://www.w3.org/2000/svg" width="24" height="24" fill="none"><path fill="#141B34" fill-rule="evenodd" d="M16.908 15.574c-.28-1.004-.666-1.829-1.147-2.482.251-.752.489-1.638.489-2.592 0-1.803-.547-3.465-1.468-4.692S12.532 3.75 11 3.75s-2.861.83-3.782 2.058S5.75 8.697 5.75 10.5q0 .276.017.547a.75.75 0 1 0 1.497-.093q-.014-.224-.014-.454c0-1.51.46-2.848 1.168-3.792S10.046 5.25 11 5.25s1.874.514 2.582 1.458S14.75 8.99 14.75 10.5c0 .48-.08.955-.203 1.424a4.16 4.16 0 0 0-2.007-.667c-1.844-.129-3.73.872-5.07 2.213A.75.75 0 0 0 8 14.75c1.916 0 2.769.236 3.276.65.523.425.833 1.151 1.302 2.666A6.8 6.8 0 0 1 11 18.25c-3.962 0-7.25-3.426-7.25-7.75S7.038 2.75 11 2.75s7.25 3.427 7.25 7.75c0 1.146-.232 2.231-.648 3.207a.75.75 0 0 0 1.38.587 9.7 9.7 0 0 0 .768-3.794c0-5.065-3.875-9.25-8.75-9.25S2.25 5.435 2.25 10.5s3.875 9.25 8.75 9.25c.724 0 1.429-.093 2.103-.269.406.915.88 1.624 1.414 2.147.8.783 1.709 1.122 2.631 1.122 1.684 0 2.893-.697 3.64-1.865.715-1.113.962-2.578.962-4.072a.75.75 0 0 0-1.3-.51 5.7 5.7 0 0 1-.872.767c-.357.25-.708.416-1.015.463a.88.88 0 0 1-.769-.224c-.277-.242-.61-.745-.886-1.735m-6.858-2.2c.797-.442 1.632-.674 2.387-.621.611.042 1.189.27 1.696.75.516.487.995 1.27 1.33 2.473.315 1.132.758 1.95 1.344 2.462a2.38 2.38 0 0 0 1.98.578c.482-.073.93-.27 1.317-.5-.119.616-.31 1.142-.578 1.56-.455.71-1.173 1.174-2.378 1.174-.522 0-1.057-.18-1.582-.694-.542-.53-1.093-1.44-1.553-2.928-.444-1.434-.856-2.631-1.79-3.392-.569-.464-1.278-.726-2.173-.862" clip-rule="evenodd"/></svg>