<svg xmlns="http://www.w3.org/2000/svg" width="24" height="24" fill="none"><path fill="#141B34" fill-rule="evenodd" d="M20.223 4.716a.75.75 0 1 0-.446-1.432c-3.767 1.174-6.527 4.552-6.527 8.579v4.189c0 .899 0 1.648.08 2.242.084.628.27 1.195.726 1.65.455.456 1.022.642 1.65.726.594.08 1.343.08 2.242.08h.104c.899 0 1.648 0 2.242-.08.628-.084 1.195-.27 1.65-.726.456-.455.642-1.022.726-1.65.08-.594.08-1.343.08-2.242v-.104c0-.899 0-1.648-.08-2.242-.084-.628-.27-1.195-.726-1.65-.455-.456-1.022-.642-1.65-.726-.594-.08-1.343-.08-2.242-.08h-.104c-.899 0-1.648 0-2.242.08-.337.045-.656.12-.95.25.125-3.186 2.357-5.895 5.467-6.864m-5.107 8.4c.13-.13.328-.237.79-.3.482-.064 1.13-.066 2.094-.066s1.612.002 2.095.066c.461.063.659.17.789.3s.237.328.3.79c.064.482.066 1.13.066 2.094s-.002 1.612-.067 2.095c-.062.461-.169.659-.3.789s-.327.237-.788.3c-.483.064-1.131.066-2.095.066s-1.612-.002-2.095-.067c-.461-.062-.659-.169-.789-.3s-.237-.327-.3-.788c-.064-.483-.066-1.131-.066-2.095s.002-1.612.066-2.095c.063-.461.17-.659.3-.789M5.948 11.25h.104c.898 0 1.648 0 2.242.08.628.084 1.195.27 1.65.726.456.455.642 1.022.726 1.65.08.594.08 1.344.08 2.242v.104c0 .899 0 1.648-.08 2.242-.084.628-.27 1.195-.725 1.65-.456.456-1.023.642-1.65.726-.595.08-1.344.08-2.243.08h-.104c-.899 0-1.648 0-2.242-.08-.628-.084-1.195-.27-1.65-.726-.456-.455-.642-1.022-.726-1.65-.08-.594-.08-1.343-.08-2.242v-4.189c0-4.027 2.76-7.405 6.527-8.579a.75.75 0 0 1 .446 1.432c-3.11.97-5.342 3.678-5.467 6.863.294-.13.613-.204.95-.25.594-.08 1.344-.079 2.242-.079m-2.043 1.566c-.461.063-.659.17-.789.3s-.237.328-.3.79c-.064.482-.066 1.13-.066 2.094s.002 1.612.067 2.095c.062.461.169.659.3.789s.327.237.788.3c.483.064 1.131.066 2.095.066s1.612-.002 2.095-.067c.461-.062.659-.169.789-.3s.237-.327.3-.788c.064-.483.066-1.131.066-2.095s-.002-1.612-.067-2.095c-.062-.461-.169-.659-.3-.789s-.327-.237-.788-.3c-.483-.064-1.131-.066-2.095-.066s-1.612.002-2.095.066" clip-rule="evenodd"/></svg>