<svg xmlns="http://www.w3.org/2000/svg" width="24" height="24" fill="none"><path fill="#141B34" fill-rule="evenodd" d="M17.718 1.785a.75.75 0 0 0-.934-.503l-10 3-.052.018q-.666.035-1.227.113c-1.181.169-2.133.525-2.88 1.318-.74.786-1.067 1.779-1.223 3.011-.152 1.205-.152 2.746-.152 4.704v.108c0 1.958 0 3.5.152 4.704.156 1.232.483 2.225 1.223 3.011.747.793 1.699 1.15 2.88 1.318 1.142.163 2.6.163 4.436.163h4.118c1.836 0 3.294 0 4.436-.163 1.181-.169 2.133-.525 2.88-1.318.74-.786 1.067-1.779 1.223-3.011.152-1.205.152-2.746.152-4.704v-.108c0-1.958 0-3.5-.152-4.704-.156-1.232-.483-2.225-1.223-3.011-.747-.793-1.699-1.15-2.88-1.318-1.142-.163-2.6-.163-4.436-.163h-1.948l5.104-1.531a.75.75 0 0 0 .503-.934m-14 4.974c.425-.452 1.002-.718 1.999-.86C6.741 5.751 8.092 5.75 10 5.75h4c1.908 0 3.26.002 4.283.148.997.143 1.574.409 2 .86.43.46.69 1.09.826 2.173.14 1.099.141 2.546.141 4.569s-.001 3.47-.14 4.57c-.137 1.081-.396 1.713-.828 2.171-.425.452-1.001.718-1.999.86-1.024.147-2.375.149-4.283.149h-4c-1.908 0-3.26-.002-4.283-.148-.997-.143-1.574-.409-2-.86-.43-.46-.69-1.09-.826-2.173-.14-1.099-.141-2.545-.141-4.569s.001-3.47.14-4.57c.137-1.081.396-1.713.828-2.171m7.908 3.494a3.75 3.75 0 0 1 4.681.76l-6.364 3.675a3.75 3.75 0 0 1 1.683-4.435m-.933 5.734 6.364-3.674a3.75 3.75 0 0 1-6.364 3.674m7.353-5.111a5.25 5.25 0 1 0-9.092 5.249 5.25 5.25 0 0 0 9.092-5.25M6 8a1 1 0 0 0 0 2h.009a1 1 0 1 0 0-2z" clip-rule="evenodd"/></svg>