<svg xmlns="http://www.w3.org/2000/svg" width="25" height="24" fill="none"><path fill="#141B34" fill-rule="evenodd" d="M12 2a.75.75 0 0 1 .75-.75C18.687 1.25 23.5 6.063 23.5 12s-4.813 10.75-10.75 10.75S2 17.937 2 12c0-1.943.516-3.768 1.42-5.342a.75.75 0 0 1 1.3.746A9.2 9.2 0 0 0 3.5 12a9.25 9.25 0 1 0 9.25-9.25A.75.75 0 0 1 12 2m0 3a.75.75 0 0 1 .75-.75A7.75 7.75 0 1 1 5 12a.75.75 0 0 1 1.5 0 6.25 6.25 0 1 0 6.25-6.25A.75.75 0 0 1 12 5m.75 2.25a.75.75 0 0 0 0 1.5 3.25 3.25 0 0 1 0 6.5.75.75 0 0 0 0 1.5 4.75 4.75 0 1 0 0-9.5" clip-rule="evenodd"/></svg>