<svg xmlns="http://www.w3.org/2000/svg" width="25" height="24" fill="none"><path fill="#141B34" fill-rule="evenodd" d="M7.168 22.75h10c1.07 0 1.715 0 2.234-.506l.009-.009c.507-.513.507-1.161.507-2.235V6c0-2.025 0-3.141-.807-3.942-.8-.808-1.916-.808-3.943-.808h-6c-2.026 0-3.142 0-3.938.804-.812.806-.812 1.921-.812 3.946v14c0 1.075 0 1.723.507 2.235l.009.009c.519.506 1.164.506 2.234.506m-1.25-13.5V6c0-1.744.015-2.53.373-2.886.345-.349 1.132-.364 2.877-.364h6c1.745 0 2.53.015 2.88.368.355.351.37 1.137.37 2.882v3.25zm0 1.5h12.5V20c0 .497 0 1.06-.071 1.176-.104.074-.699.074-1.179.074h-10c-.48 0-1.075 0-1.179-.074-.071-.117-.071-.679-.071-1.176zM7.173 7c0 .552.453 1 1.005 1a1 1 0 0 0 0-2h-.01a.996.996 0 0 0-.995 1m1.005 7a1.005 1.005 0 0 1-1.005-1c0-.552.443-1 .995-1h.01a1 1 0 0 1 0 2" clip-rule="evenodd"/></svg>