<svg xmlns="http://www.w3.org/2000/svg" width="24" height="24" fill="none"><path fill="#141B34" fill-rule="evenodd" d="M2.754 12a9.25 9.25 0 1 1 18.5 0 9.25 9.25 0 0 1-18.5 0m9.25-10.75C6.067 1.25 1.254 6.063 1.254 12s4.813 10.75 10.75 10.75 10.75-4.813 10.75-10.75S17.94 1.25 12.004 1.25M10.754 9a.25.25 0 0 1 .25-.25h1.75a1.5 1.5 0 0 1 0 3h-2zm-.75 7.75a.75.75 0 0 1-.75-.75V9c0-.966.783-1.75 1.75-1.75h1.75a3 3 0 0 1 1.267 5.72l1.172 2.735a.75.75 0 0 1-1.378.59l-1.306-3.045h-1.755V16a.75.75 0 0 1-.75.75" clip-rule="evenodd"/></svg>