<svg xmlns="http://www.w3.org/2000/svg" width="24" height="24" fill="none"><path fill="#141B34" fill-rule="evenodd" d="M5.157 8.75h13.686c.43 0 .798 0 1.12.095.867.258 1.497.992 1.709 1.869.079.327.078.703.078 1.196v.18c0 .493 0 .869-.078 1.196-.212.877-.842 1.611-1.709 1.87-.322.095-.69.095-1.12.094H5.157c-.43 0-.798.001-1.12-.095-.867-.258-1.497-.992-1.709-1.869-.078-.327-.078-.703-.078-1.195v-.181c0-.493 0-.869.078-1.196.212-.877.842-1.61 1.709-1.869.322-.096.69-.095 1.12-.095m.093 1.5c-.576 0-.702.008-.785.033-.298.088-.578.365-.678.783-.032.13-.037.31-.037.934s.005.805.037.935c.1.417.38.694.678.782.083.025.209.033.785.033h13.5c.576 0 .702-.008.785-.033.298-.088.578-.365.678-.782.032-.13.037-.31.037-.935s-.005-.805-.037-.934c-.1-.418-.38-.695-.678-.783-.083-.025-.209-.033-.785-.033z" clip-rule="evenodd"/></svg>