<svg xmlns="http://www.w3.org/2000/svg" width="25" height="24" fill="none"><path fill="#141B34" fill-rule="evenodd" d="M12 2a.75.75 0 0 1 .75-.75C18.687 1.25 23.5 6.063 23.5 12s-4.813 10.75-10.75 10.75S2 17.937 2 12a.75.75 0 0 1 1.5 0 9.25 9.25 0 1 0 9.25-9.25A.75.75 0 0 1 12 2m5.5 10a.75.75 0 0 1-.75.75h-8a.75.75 0 0 1 0-1.5h8a.75.75 0 0 1 .75.75M9.55 3.187a.75.75 0 0 0-.6-1.374 12.4 12.4 0 0 0-2.474 1.444.75.75 0 0 0 .902 1.199c.668-.503 1.397-.93 2.172-1.269m-4.344 3.44a.75.75 0 0 0-1.2-.9A12.4 12.4 0 0 0 2.564 8.2a.75.75 0 0 0 1.374.6 10.9 10.9 0 0 1 1.269-2.173" clip-rule="evenodd"/></svg>