<svg xmlns="http://www.w3.org/2000/svg" width="24" height="24" fill="none"><path fill="#141B34" fill-rule="evenodd" d="M14.15 1.265a.75.75 0 0 0-.3 1.47c3.267.667 5.936 3.006 7.085 6.093l-1.125-.51a.75.75 0 0 0-.62 1.365l1.905.866.015.006.03.012c.126.05.293.118.441.152.17.04.547.09.87-.201.315-.285.311-.655.291-.833a3 3 0 0 0-.1-.45l-.01-.03c-1.113-4.004-4.386-7.103-8.482-7.94M8.317 4.19l.511-1.125c-3.087 1.15-5.426 3.819-6.093 7.085a.75.75 0 0 1-1.47-.3c.837-4.096 3.936-7.369 7.94-8.483l.03-.008c.128-.036.3-.084.45-.1.178-.021.548-.025.833.29.291.323.24.7.201.87a3 3 0 0 1-.152.442l-.012.029-.006.015-.866 1.905a.75.75 0 0 1-1.366-.62m14.418 9.96a.75.75 0 0 0-1.47-.3c-.667 3.267-3.005 5.936-6.093 7.085l.511-1.125a.75.75 0 0 0-1.366-.62l-.865 1.905-.007.015-.011.03c-.051.126-.119.293-.153.441-.04.17-.09.547.201.87.286.315.656.311.833.291.15-.017.322-.065.45-.1l.03-.01c4.004-1.113 7.103-4.386 7.94-8.482M2.89 13.445l-.03-.011a3 3 0 0 0-.44-.153c-.171-.04-.548-.09-.87.201-.316.286-.312.656-.292.833.017.15.065.322.101.45l.008.03c1.114 4.004 4.387 7.103 8.483 7.94a.75.75 0 0 0 .3-1.47c-3.266-.667-5.936-3.005-7.085-6.093l1.125.511a.75.75 0 0 0 .62-1.366l-1.905-.865zm6.601-1.688 2.657-3.41v2.638c0 .606.454 1.257 1.2 1.257h1.16l-2.657 3.411v-2.638c0-.606-.453-1.258-1.2-1.258zm4.157-4.249a1.25 1.25 0 0 0-.746-1.164 1.16 1.16 0 0 0-1.382.368l-3.499 4.492c-.312.4-.331.898-.177 1.284.155.385.538.77 1.106.77h1.401v3.233c0 .524.298.974.747 1.165a1.16 1.16 0 0 0 1.381-.368l3.5-4.492c.311-.4.33-.899.176-1.284-.154-.386-.538-.77-1.105-.77h-1.402z" clip-rule="evenodd"/></svg>