<svg xmlns="http://www.w3.org/2000/svg" width="24" height="24" fill="none"><path fill="#141B34" fill-rule="evenodd" d="M13.85 2.477a.75.75 0 0 1 1.062-.015l1.002.976.032.03c.196.192.397.387.533.563.122.158.41.574.195 1.078-.21.493-.698.584-.894.61-.22.031-.503.031-.781.031H9.195C5.614 5.75 2.75 8.567 2.75 12c0 1.324.424 2.551 1.149 3.563a.75.75 0 0 1-1.22.874A7.6 7.6 0 0 1 1.25 12c0-4.3 3.576-7.75 7.944-7.75h5.404l-.733-.712a.75.75 0 0 1-.014-1.061m8.377-.077c.341.21.523.586.523.97V10a.75.75 0 0 1-1.5 0V4.343l-.742.683a.75.75 0 0 1-1.016-1.103l1.52-1.4a1 1 0 0 1 1.215-.123m.505 11.264a.75.75 0 1 0-1.464-.328c-.623 2.777-3.342 4.914-6.462 4.914H7c-.278 0-.56 0-.781.03-.197.027-.685.118-.895.611-.214.504.074.92.196 1.078.136.175.337.371.533.562l.032.03 1.002.977a.75.75 0 1 0 1.046-1.076l-.732-.712h7.404c3.768 0 7.137-2.573 7.926-6.086" clip-rule="evenodd"/></svg>