<svg xmlns="http://www.w3.org/2000/svg" width="24" height="24" fill="none"><path fill="#141B34" fill-rule="evenodd" d="M12 2.75A9.25 9.25 0 1 0 21.25 12a.75.75 0 0 1 1.5 0c0 5.937-4.813 10.75-10.75 10.75S1.25 17.937 1.25 12 6.063 1.25 12 1.25c2.794 0 5.339 1.066 7.25 2.813V2.5a.75.75 0 0 1 1.5 0V6a.75.75 0 0 1-.75.75h-3.5a.75.75 0 0 1 0-1.5h1.825A9.22 9.22 0 0 0 12 2.75m1.655 6.222-.08-.043c-.774-.41-1.41-.747-1.933-.955-.533-.211-1.083-.347-1.644-.199a2.4 2.4 0 0 0-1.034.572c-.431.406-.582.952-.649 1.504-.065.539-.065 1.231-.065 2.063v.098c0 .831 0 1.524.065 2.062.067.552.218 1.099.649 1.505.29.274.648.47 1.034.571.56.149 1.111.013 1.644-.198.523-.208 1.159-.545 1.933-.955l.08-.043c.8-.425 1.457-.773 1.932-1.096s.917-.719 1.08-1.297c.11-.392.11-.805 0-1.196-.163-.578-.606-.974-1.08-1.297-.475-.324-1.131-.672-1.932-1.096m-3.273.253c.09-.023.268-.03.706.143.438.174 1 .47 1.824.907.851.452 1.433.762 1.83 1.032.405.276.468.416.481.465a.7.7 0 0 1 0 .382c-.013.049-.076.189-.481.465-.397.27-.979.58-1.83 1.031-.824.437-1.386.734-1.824.908s-.616.166-.706.142a.9.9 0 0 1-.39-.213c-.046-.044-.135-.16-.188-.593-.053-.437-.054-1.038-.054-1.931s.001-1.494.054-1.931c.053-.434.142-.55.188-.593a.9.9 0 0 1 .39-.214" clip-rule="evenodd"/></svg>