<svg xmlns="http://www.w3.org/2000/svg" width="24" height="24" fill="none"><path fill="#141B34" fill-rule="evenodd" d="m15.542 9.482-.012-.013-.013-.013c-.578-.578-.733-.747-.81-.902a1.25 1.25 0 0 1 0-1.11c.078-.156.234-.327.822-.915l3-3a.75.75 0 1 0-1.06-1.06l-3 3-.086.086c-.461.46-.818.816-1.02 1.223a2.75 2.75 0 0 0 0 2.442c.132.266.33.51.58.775L12 11.938l-2.13-2.13c.503-.665.833-1.436.875-2.271.055-1.102-.397-2.194-1.37-3.168-.957-.956-2.287-1.673-3.58-1.97-1.263-.29-2.708-.218-3.66.735-.953.952-1.025 2.397-.735 3.66.297 1.293 1.014 2.623 1.97 3.58.974.973 2.066 1.425 3.168 1.37.835-.042 1.606-.372 2.27-.876l2.131 2.13-7.47 7.472a.75.75 0 0 0 1.06 1.06L12 14.06l7.47 7.469a.75.75 0 0 0 1.06-1.061l-7.469-7.47 1.943-1.942c.265.25.51.447.775.579a2.75 2.75 0 0 0 2.442 0c.407-.202.763-.559 1.223-1.02l.086-.086 3-3a.75.75 0 1 0-1.06-1.06l-3 3c-.588.588-.759.744-.915.822a1.25 1.25 0 0 1-1.11 0c-.155-.077-.324-.232-.902-.81m4.988-5.013a.75.75 0 0 1 0 1.06l-3 3a.75.75 0 0 1-1.061-1.06l3-3a.75.75 0 0 1 1.06 0M8.314 5.43c-.75-.75-1.827-1.333-2.855-1.569-1.06-.243-1.851-.08-2.264.333S2.62 5.4 2.862 6.458c.236 1.028.819 2.105 1.57 2.855.731.732 1.428.963 2.03.933.62-.031 1.263-.345 1.852-.933.588-.589.902-1.232.933-1.851.03-.603-.201-1.3-.933-2.032" clip-rule="evenodd"/></svg>