<svg xmlns="http://www.w3.org/2000/svg" width="24" height="24" fill="none"><path fill="#141B34" fill-rule="evenodd" d="M12.557 1.75h-1.114c-2.073 0-3.705 0-4.98.171-1.31.176-2.354.545-3.175 1.367-.822.821-1.19 1.866-1.367 3.174-.171 1.276-.171 2.908-.171 4.981v1.114c0 2.073 0 3.705.171 4.98.176 1.31.545 2.354 1.367 3.175.821.822 1.866 1.19 3.174 1.367 1.276.171 2.908.171 4.981.171h1.114c2.073 0 3.705 0 4.98-.171 1.31-.176 2.354-.545 3.175-1.367.822-.821 1.19-1.866 1.367-3.174.171-1.276.171-2.908.171-4.981v-1.114c0-2.073 0-3.705-.171-4.98-.176-1.31-.545-2.354-1.367-3.175-.821-.822-1.866-1.19-3.174-1.367-1.276-.171-2.908-.171-4.98-.171M4.348 4.348c.497-.496 1.172-.786 2.314-.94 1.164-.156 2.695-.158 4.838-.158h1c2.143 0 3.674.002 4.838.158 1.142.154 1.817.444 2.314.94.496.497.786 1.172.94 2.314.156 1.164.158 2.695.158 4.838v1c0 2.143-.002 3.674-.158 4.838-.154 1.142-.444 1.817-.94 2.314-.497.496-1.172.786-2.314.94-1.164.156-2.696.158-4.838.158h-1c-2.143 0-3.674-.002-4.838-.158-1.142-.154-1.817-.444-2.314-.94-.496-.497-.786-1.172-.94-2.314-.156-1.164-.158-2.696-.158-4.838v-1c0-2.143.002-3.674.158-4.838.154-1.142.444-1.817.94-2.314M18.75 11a.75.75 0 0 0-1.5 0v1A2.25 2.25 0 0 1 15 14.25a.75.75 0 0 0 0 1.5A3.75 3.75 0 0 0 18.75 12zM11 7.25a.75.75 0 0 1 .75.75v4.5c0 .138.112.25.25.25h1a.25.25 0 0 0 .25-.25.75.75 0 0 1 1.5 0A1.75 1.75 0 0 1 13 14.25h-1a1.75 1.75 0 0 1-1.75-1.75V8a.75.75 0 0 1 .75-.75M9.25 8a.75.75 0 0 0-1.5 0v4.5a.25.25 0 0 1-.25.25h-1a.25.25 0 0 1-.25-.25.75.75 0 0 0-1.5 0c0 .966.784 1.75 1.75 1.75h1a1.75 1.75 0 0 0 1.75-1.75zM11 14.742a.75.75 0 0 1 .75.75v.01a.75.75 0 0 1-1.5 0v-.01a.75.75 0 0 1 .75-.75m2.75.758a.75.75 0 0 0-1.5 0v.01a.75.75 0 0 0 1.5 0z" clip-rule="evenodd"/></svg>