<svg xmlns="http://www.w3.org/2000/svg" width="24" height="24" fill="none"><path fill="#141B34" fill-rule="evenodd" d="M4.64 21.362c1.389 1.39 3.385 1.39 7.36 1.39l.002.002c3.975 0 5.97 0 7.36-1.39l-.002-.002-.002-.002c1.39-1.389 1.39-3.385 1.39-7.36v-4c0-3.975 0-5.97-1.39-7.36s-3.385-1.39-7.36-1.39-5.97 0-7.36 1.39l.002.002c-1.39 1.389-1.39 3.385-1.39 7.36v4c0 3.975 0 5.97 1.39 7.36m1.061-17.66-.002-.001c.951-.95 2.738-.95 6.3-.95s5.35 0 6.3.95c.95.951.95 2.738.95 6.3v4c0 3.562 0 5.35-.95 6.3l.002.002c-.951.95-2.738.95-6.3.95s-5.35 0-6.3-.95c-.95-.951-.95-2.738-.95-6.3v-4c0-3.562 0-5.35.95-6.3m5.549 9.3a.75.75 0 0 0 1.5 0v-2a.75.75 0 0 0-1.5 0zm.75-4.75a.75.75 0 0 1-.75-.75v-2a.75.75 0 0 1 1.5 0v2a.75.75 0 0 1-.75.75m-.75 10.25a.75.75 0 0 0 1.5 0v-2a.75.75 0 0 0-1.5 0z" clip-rule="evenodd"/></svg>