<svg xmlns="http://www.w3.org/2000/svg" width="24" height="24" fill="none"><path fill="#141B34" fill-rule="evenodd" d="M12.979 22.736q.07.014.142.014l-.002-.002a.75.75 0 0 0 .53-.219c.179-.178.368-.356.568-.544.765-.72 1.633-1.536 2.076-2.604.556-1.344.475-2.963.403-4.392v-.003q-.021-.39-.035-.755l1.84-1.84c1.144-1.143 1.717-1.717 2.203-2.383a10.7 10.7 0 0 0 1.919-4.634c.128-.817.128-1.633.128-3.259v-.002a.846.846 0 0 0-.865-.865h-.001c-1.628 0-2.444 0-3.26.128-1.667.26-3.27.924-4.636 1.92-.665.484-1.239 1.058-2.38 2.199l-.008.008-1.831 1.83a50 50 0 0 1-.758-.034h-.003c-1.429-.072-3.048-.154-4.392.403-1.066.441-1.881 1.308-2.6 2.073q-.284.305-.547.571a.75.75 0 0 0 .234 1.22l1.167.5-.401.401A.75.75 0 0 0 3 13.748a.75.75 0 0 0 .53-.22l.827-.826.654.28.029.015c.047.15-.084.625-.148.857a7 7 0 0 0-.126.5c-.21 1.049-.12 1.343.636 2.097l2.146 2.146c.763.765 1.037.848 2.098.637a7 7 0 0 0 .502-.126l.011-.003c.234-.064.694-.19.841-.145l.003.005.012.024.28.653-.825.825a.75.75 0 0 0 .53 1.281.75.75 0 0 0 .53-.22l.401-.4.5 1.167a.75.75 0 0 0 .548.441M8.336 8.768l-.866.867a.75.75 0 0 0 1.06 1.06l4.132-4.131.01-.01c.875-.875 1.4-1.4 1.87-1.788l.348.052c.935.14 1.797.457 2.373.859L15.97 6.97a.75.75 0 0 0 .53 1.28.75.75 0 0 0 .53-.22l1.29-1.29c.447.627.72 1.388.86 2.363l.05.356c-.389.47-.914.995-1.791 1.874l-4.137 4.136a.75.75 0 0 0 .53 1.28l.002-.001a.75.75 0 0 0 .53-.22l.862-.863c.048 1.137.044 2.265-.32 3.142-.288.697-.9 1.312-1.524 1.902l-.99-2.313c-.561-1.309-1.966-.923-2.644-.737l-.002.001-.058.016c-.125.034-.241.066-.338.085l-.029.006c-.134.026-.313.061-.4.068a5 5 0 0 1-.313-.299l-.001-.001-2.146-2.147a5 5 0 0 1-.3-.314c.007-.088.044-.271.07-.406l.005-.021c.022-.109.059-.243.097-.384l.004-.012v-.003c.187-.678.573-2.084-.736-2.646l-2.312-.99c.59-.624 1.204-1.235 1.902-1.524.878-.364 2.006-.368 3.145-.32m10.52-5.91a9.2 9.2 0 0 0-2.487.764c.954.297 1.774.75 2.31 1.291.814.724 1.37 1.6 1.706 2.697a9.2 9.2 0 0 0 .755-2.467c.094-.6.108-1.253.11-2.394-1.141.002-1.795.016-2.393.109" clip-rule="evenodd"/></svg>