<svg xmlns="http://www.w3.org/2000/svg" width="25" height="24" fill="none"><path fill="#141B34" fill-rule="evenodd" d="M21.187 2.981a.79.79 0 0 0-1.117 0c-.12.12-.34.406-.585.799a8 8 0 0 0-.556 1.051 8 8 0 0 1 .408.408c.347-.149.718-.35 1.051-.556.393-.244.68-.465.799-.584a.79.79 0 0 0 0-1.118m-2.975.006c-.177.284-.356.602-.513.927a5.7 5.7 0 0 0-1.162-.523l-.017-.005c-.352-.108-.656-.201-1.161-.077-.512.125-.787.399-1.168.778l-.004.004-9.931 9.931c-.367.366-.657.655-.777 1.167-.13.51-.027.836.08 1.172v.004c.12.388.296.782.522 1.167-.324.157-.642.335-.926.512-.426.265-.826.556-1.066.797a2.29 2.29 0 0 0 3.238 3.238c.24-.24.532-.64.797-1.066.177-.284.355-.602.512-.926.382.224.774.4 1.162.522l.017.005c.232.071.444.136.707.136.135 0 .283-.017.454-.059.512-.126.787-.399 1.167-.778l.005-.004 9.931-9.931c.367-.366.657-.655.777-1.167.13-.51.027-.837-.08-1.172l-.001-.004a5.5 5.5 0 0 0-.52-1.166c.324-.157.642-.336.926-.513.426-.265.826-.556 1.066-.797a2.29 2.29 0 1 0-3.238-3.238c-.24.24-.532.64-.797 1.066M5.407 19.17a7 7 0 0 1-.408-.408c-.347.149-.719.35-1.051.556-.393.244-.68.465-.799.584a.79.79 0 1 0 1.118 1.118c.119-.12.34-.406.584-.799.207-.332.407-.704.556-1.05M15.806 4.75c-.026 0-.048.006-.08.014l-.009.002c-.094.023-.155.074-.47.387L5.32 15.08c-.308.307-.36.37-.38.452l-.004.023q-.026.097.059.363c.205.672.654 1.376 1.266 1.989.607.608 1.311 1.059 1.983 1.269l.012.004q.261.08.365.055c.094-.023.155-.074.469-.387l9.929-9.93c.308-.306.36-.369.379-.451l.005-.023q.026-.097-.06-.363c-.204-.672-.653-1.376-1.265-1.99-.607-.607-1.311-1.058-1.983-1.268l-.012-.004-.022-.007c-.15-.046-.207-.063-.254-.063" clip-rule="evenodd"/></svg>