<svg xmlns="http://www.w3.org/2000/svg" width="25" height="24" fill="none"><path fill="#141B34" fill-rule="evenodd" d="M3.143 6.649c.114.06.236.09.356.09H3.5a.75.75 0 0 0 .661-.393l.115-.223c.257-.511.611-1.211 2.184-2.31 1.364-.955 2.825-1.268 4.344-.931 1.19.264 2.273.926 2.992 1.613a10 10 0 0 1-1.325-.071.75.75 0 1 0-.187 1.489c.781.098 2.657.255 3.356-.386a1 1 0 0 0 .058-.058c.765-.84.515-3.535.512-3.562a.75.75 0 1 0-1.488.186c.044.35.046.81.023 1.238a7.95 7.95 0 0 0-3.617-1.912C9.21.993 7.298 1.396 5.6 2.585 3.716 3.9 3.246 4.83 2.935 5.448l-.095.185a.75.75 0 0 0 .303 1.016m7.432 14.56a5.27 5.27 0 0 0 3.73 1.534 5.3 5.3 0 0 0 2.909-.87l3.294-2.18.012-.008.005-.003.369-.26c.462-.322.769-.807.865-1.363a2.08 2.08 0 0 0-.357-1.572 2.1 2.1 0 0 0-.662-.612q.127-.258.18-.55a2.1 2.1 0 0 0-.353-1.598 2.1 2.1 0 0 0-.661-.61q.131-.265.183-.567a2.08 2.08 0 0 0-.357-1.572 2.1 2.1 0 0 0-.431-.455l2.056-1.43c.462-.324.77-.81.865-1.366a2.08 2.08 0 0 0-.357-1.57c-.673-.96-1.995-1.2-2.943-.535l-6.804 4.732.013-1.097a2.282 2.282 0 0 0-4.538-.326l-.642 4.49-.001.006c-.153 1.069-.23 1.606-.186 2.176.064.863.346 1.707.817 2.44.313.487.716.893 1.457 1.625zm-.81-12.724a1 1 0 0 1 .088-.005l-.005-.001c.192 0 .373.07.519.2.168.15.26.355.26.57l-.031 2.54a.752.752 0 0 0 1.175.627l.584-.402 7.42-5.161a.62.62 0 0 1 .862.172c.094.13.13.29.103.449a.6.6 0 0 1-.245.389l-3.704 2.576-.006.004-.003.002-1.111.78a.75.75 0 0 0 .862 1.228l1.11-.78.004-.001a.62.62 0 0 1 .859.173.6.6 0 0 1-.144.84l-.736.517-.365.246a.75.75 0 1 0 .838 1.244l.369-.25.01-.006.004-.003a.62.62 0 0 1 .857.157.62.62 0 0 1 .105.468.57.57 0 0 1-.246.377l-.371.26a.8.8 0 0 0-.13.114 2 2 0 0 0-.24.146l-.371.26a.75.75 0 0 0 .86 1.229l.372-.26a.62.62 0 0 1 .86.17.6.6 0 0 1-.145.842l-.361.254-3.284 2.173c-1.495.984-3.494.785-4.752-.473l-1.54-1.544c-.722-.713-1.037-1.036-1.253-1.371a3.77 3.77 0 0 1-.583-1.742c-.03-.408.039-.892.177-1.857l.642-4.49a.78.78 0 0 1 .686-.661" clip-rule="evenodd"/></svg>