<svg xmlns="http://www.w3.org/2000/svg" width="25" height="24" fill="none"><path fill="#141B34" fill-rule="evenodd" d="M3.64 6.649c.113.06.235.09.355.09h.001a.75.75 0 0 0 .661-.393l.083-.16.032-.063c.257-.511.611-1.211 2.184-2.31 1.364-.955 2.825-1.268 4.344-.931 1.19.264 2.273.926 2.992 1.613a10 10 0 0 1-1.325-.071.75.75 0 1 0-.187 1.489c.781.098 2.657.255 3.356-.386a1 1 0 0 0 .058-.058c.765-.84.515-3.535.512-3.562a.75.75 0 1 0-1.487.186c.043.35.046.81.023 1.238a7.95 7.95 0 0 0-3.618-1.912c-1.919-.426-3.83-.022-5.529 1.166C4.212 3.9 3.742 4.83 3.431 5.448l-.095.185a.75.75 0 0 0 .303 1.016m4.928 15.726c.139.24.39.374.649.374v-.001a.74.74 0 0 0 .377-.101l.89-.517a1.24 1.24 0 0 1 .836-.117c.466.096 1.345.242 1.993.146.947-.152 1.823-.655 3.573-1.66l1.132-.65a2.5 2.5 0 0 0 1.106-3.063l-.11-.294a1.5 1.5 0 0 0-.385-.571q.095-.203.155-.424c.175-.65.085-1.33-.254-1.918a1.6 1.6 0 0 0-.426-.482q.071-.165.118-.34c.174-.65.085-1.33-.255-1.918l-.064-.11 2.802-1.61c.48-.271.827-.715.973-1.248a2.07 2.07 0 0 0-.207-1.593 2.084 2.084 0 0 0-2.84-.752l-6.09 3.498.056-.212a2.237 2.237 0 0 0-1.835-2.798 2.266 2.266 0 0 0-2.405 1.333l-.008.018-1.936 4.788c-.283.694-1.016 1.484-1.784 1.922a.75.75 0 1 0 .743 1.303c1.066-.607 2.02-1.651 2.43-2.66l1.934-4.78a.764.764 0 0 1 .808-.44.73.73 0 0 1 .512.327c.117.178.15.39.095.596l-.53 1.96a.75.75 0 0 0 1.097.846l7.663-4.402a.58.58 0 0 1 .791.204c.078.137.1.294.059.444a.56.56 0 0 1-.27.342l-4.996 2.87a.75.75 0 0 0 .747 1.3l.89-.51.068.116a1.016 1.016 0 0 1-.368 1.391c-.003 0-.01.005-.01.005l-.764.438a.751.751 0 0 0 .746 1.302l.767-.44.004-.001.003-.002.004-.002a.12.12 0 0 1 .096-.012c.02.005.06.02.084.062.137.237.174.512.103.775a1 1 0 0 1-.467.614l-.014.008-.764.437a.75.75 0 0 0 .745 1.302l.768-.44.003-.001.005-.003.107.287a1.01 1.01 0 0 1-.446 1.236l-1.14.654c-1.585.91-2.381 1.368-3.048 1.475-.292.044-.853-.007-1.471-.134a2.75 2.75 0 0 0-1.868.283l-.01.005-.895.52a.75.75 0 0 0-.272 1.025" clip-rule="evenodd"/></svg>