<svg xmlns="http://www.w3.org/2000/svg" width="25" height="24" fill="none"><path fill="#141B34" fill-rule="evenodd" d="M20.843 6.347a.751.751 0 0 0 1.323-.706l-.093-.183c-.31-.62-.78-1.554-2.667-2.876-1.698-1.19-3.61-1.593-5.53-1.167a7.94 7.94 0 0 0-3.617 1.912 7.4 7.4 0 0 1 .023-1.232.75.75 0 1 0-1.488-.188c-.003.027-.255 2.722.516 3.559l.052.052c.666.62 2.385.513 3.358.392a.75.75 0 0 0-.185-1.49c-.438.056-.921.078-1.327.073.719-.688 1.803-1.351 2.994-1.615 1.519-.337 2.98-.024 4.344.93 1.577 1.106 1.929 1.808 2.186 2.32q.056.116.11.219M15.918 22.65a.75.75 0 0 0 .37.098v.004a.75.75 0 0 0 .372-1.402l-.877-.498a2.66 2.66 0 0 0-1.855-.27c-.904.188-1.306.162-1.436.143-.658-.098-1.436-.54-2.99-1.423l-4.638-2.635a.52.52 0 0 1-.246-.32.55.55 0 0 1 .06-.424.577.577 0 0 1 .776-.222l3.383 1.923a.751.751 0 0 0 .742-1.305l-3.386-1.923-1.504-.855a.52.52 0 0 1-.246-.32.578.578 0 0 1 .836-.646l4.137 2.352a.75.75 0 1 0 .742-1.304l-4.136-2.351-1.506-.854a.52.52 0 0 1-.246-.32.55.55 0 0 1 .06-.425.576.576 0 0 1 .776-.221l1.125.64h.002l3.76 2.137a.751.751 0 0 0 .742-1.305L6.974 8.787a.52.52 0 0 1-.247-.32.55.55 0 0 1 .06-.424.576.576 0 0 1 .777-.221l6.365 3.616a.75.75 0 0 0 1.095-.843l-.503-1.92a.745.745 0 0 1 .611-.91.705.705 0 0 1 .761.408l1.86 4.678c.392.989 1.325 2.015 2.375 2.613a.75.75 0 0 0 .742-1.304c-.76-.433-1.454-1.182-1.724-1.863l-1.863-4.688-.003-.008q0-.005-.003-.008a2.2 2.2 0 0 0-2.382-1.31 2.26 2.26 0 0 0-1.533.995 2.23 2.23 0 0 0-.292 1.776l.053.198-4.817-2.737A2.083 2.083 0 0 0 5.25 7.919a2.09 2.09 0 0 0-2.215.99 2.04 2.04 0 0 0 .531 2.673q-.207.194-.358.452a2.05 2.05 0 0 0-.213 1.573c.12.446.381.829.746 1.099a2.07 2.07 0 0 0-.573 2.025c.141.527.482.966.956 1.235l4.64 2.637c1.713.973 2.573 1.46 3.508 1.6.463.07 1.121.018 1.958-.155a1.17 1.17 0 0 1 .811.104z" clip-rule="evenodd"/></svg>