<svg xmlns="http://www.w3.org/2000/svg" width="25" height="24" fill="none"><path fill="#141B34" d="M12.807 22.745a4.98 4.98 0 0 1-3.508-1.434l-1.393-1.368c-.721-.71-1.08-1.071-1.37-1.516a4.9 4.9 0 0 1-.771-2.282c-.04-.532.032-1.03.176-2.023L6.54 9.99a2.17 2.17 0 0 1 1.917-1.838 2.2 2.2 0 0 1 1.702.548c.454.408.714.99.714 1.597l-.012.936 5.256-3.623a2.027 2.027 0 0 1 2.797.48q.158.226.248.474a2.04 2.04 0 0 1 2.584.618c.312.443.43.972.339 1.495a1.98 1.98 0 0 1-.62 1.125q.198.165.354.383c.309.431.429.963.335 1.49a1.96 1.96 0 0 1-.62 1.12q.196.163.35.377a1.99 1.99 0 0 1-.498 2.795l-1.724 1.189-4.053 2.733a5 5 0 0 1-2.803.857zM8.694 9.64a.674.674 0 0 0-.67.567l-.6 4.128c-.127.885-.191 1.329-.163 1.697a3.4 3.4 0 0 0 .534 1.578c.204.315.522.631 1.164 1.264l1.394 1.369a3.51 3.51 0 0 0 4.419.403l4.047-2.73 1.72-1.186a.48.48 0 0 0 .208-.316.5.5 0 0 0-.085-.375.52.52 0 0 0-.715-.12l-.004.004-.005.003-1.726 1.188a.75.75 0 1 1-.851-1.234l1.725-1.19.006-.003 1.374-.955a.49.49 0 0 0 .21-.32.47.47 0 0 0-.08-.359.53.53 0 0 0-.728-.127l-3.106 2.147a.75.75 0 1 1-.853-1.232l3.109-2.15 1.383-.95a.5.5 0 0 0 .207-.322.5.5 0 0 0-.085-.37.537.537 0 0 0-.725-.121l-1.375.954-.005.005-3.108 2.139a.75.75 0 1 1-.85-1.236l3.106-2.138a.49.49 0 0 0 .125-.693.52.52 0 0 0-.718-.116l-5.524 3.808-.916.664a.749.749 0 0 1-1.19-.616l.03-2.41a.63.63 0 0 0-.217-.472.69.69 0 0 0-.461-.177zM3.5 6.739a.75.75 0 0 1-.659-1.106l.094-.185C3.246 4.83 3.716 3.9 5.6 2.585 7.297 1.397 9.21.993 11.13 1.419a7.95 7.95 0 0 1 3.616 1.912 7.5 7.5 0 0 0-.023-1.238.75.75 0 1 1 1.488-.186c.003.027.253 2.722-.512 3.562a1 1 0 0 1-.058.058c-.699.64-2.575.484-3.356.386a.751.751 0 0 1 .187-1.49c.43.055.915.078 1.325.072-.719-.687-1.802-1.35-2.992-1.613-1.519-.337-2.98-.024-4.344.93-1.573 1.1-1.927 1.8-2.184 2.31q-.059.118-.115.224a.75.75 0 0 1-.66.394z"/></svg>