<svg xmlns="http://www.w3.org/2000/svg" width="24" height="24" fill="none"><path fill="#141B34" fill-rule="evenodd" d="M18 2.75a2.25 2.25 0 1 0 0 4.5 2.25 2.25 0 0 0 0-4.5M14.25 5a3.75 3.75 0 1 1 7.5 0 3.75 3.75 0 0 1-7.5 0M6 16.75a2.25 2.25 0 1 0 0 4.5 2.25 2.25 0 0 0 0-4.5M2.25 19a3.75 3.75 0 1 1 7.5 0 3.75 3.75 0 0 1-7.5 0M8.5 4.25a4.25 4.25 0 0 0 0 8.5h7a2.75 2.75 0 1 1 0 5.5H12a.75.75 0 0 0 0 1.5h3.5a4.25 4.25 0 0 0 0-8.5h-7a2.75 2.75 0 1 1 0-5.5H12a.75.75 0 0 0 0-1.5z" clip-rule="evenodd"/></svg>