<svg xmlns="http://www.w3.org/2000/svg" width="24" height="24" fill="none"><path fill="#141B34" fill-rule="evenodd" d="M2.78 11.25a9.25 9.25 0 0 1 8.47-8.47v.72a.75.75 0 0 0 1.5 0v-.72a9.25 9.25 0 0 1 8.47 8.47h-.72a.75.75 0 0 0 0 1.5h.72a9.25 9.25 0 0 1-8.47 8.47v-.72a.75.75 0 0 0-1.5 0v.72a9.25 9.25 0 0 1-8.47-8.47h.72a.75.75 0 0 0 0-1.5zM1.25 12C1.25 6.063 6.063 1.25 12 1.25S22.75 6.063 22.75 12 17.937 22.75 12 22.75 1.25 17.937 1.25 12m12.821-.488 1.188-2.77-2.77 1.187c-.465.199-.794.342-1.038.462l2.159 2.158c.119-.244.262-.573.461-1.037m-4.142.977c.199-.465.342-.794.461-1.038l2.159 2.159c-.244.12-.573.262-1.037.462l-2.77 1.187zm7.063-5.481c-.358-.359-.81-.25-.942-.214-.155.043-.336.12-.489.186l-.031.014-3.632 1.556-.124.053c-.901.386-1.539.659-2.026 1.145-.487.487-.76 1.125-1.145 2.026l-.053.124-1.557 3.632-.013.031c-.066.154-.144.334-.186.489-.035.132-.145.584.214.943.358.358.81.249.942.213.155-.042.336-.12.489-.186l.032-.013 3.631-1.557.124-.053c.901-.385 1.539-.658 2.026-1.145s.76-1.125 1.145-2.026l.053-.123 1.557-3.632.013-.032c.066-.153.144-.334.186-.489.035-.131.145-.584-.213-.942" clip-rule="evenodd"/></svg>