<svg xmlns="http://www.w3.org/2000/svg" width="24" height="24" fill="none"><path fill="#141B34" fill-rule="evenodd" d="M17.816 15.805a1.24 1.24 0 0 1 1.373.476c.116.161.056.382-.085.463l-7.516 4.337a1.24 1.24 0 0 1-.98.118L4.215 19.3a.75.75 0 0 0-.427 1.438l6.395 1.898c.724.215 1.5.121 2.156-.257l7.516-4.336c.933-.539 1.173-1.78.551-2.64a2.735 2.735 0 0 0-3.034-1.032h-.001l-4.127 1.269a2.6 2.6 0 0 0-2.069-1.016h-1.042c-.182 0-.36-.041-.521-.119l-2.042-.988a2.7 2.7 0 0 0-1.174-.268H4a.75.75 0 0 0 0 1.5h2.395c.182 0 .36.04.52.118l2.042.989c.366.176.768.268 1.175.268h1.042c.427 0 .777.228.953.547l-1.934.534c-.281.078-.582.05-.841-.075l-2.183-1.056a.75.75 0 1 0-.654 1.35l2.183 1.056a2.7 2.7 0 0 0 1.895.171l2.54-.702a.84.84 0 0 0 .617-.808q0-.044-.002-.087l4.065-1.25zM12.948 1.25h2.104c.899 0 1.648 0 2.242.08.628.084 1.195.27 1.65.725.456.456.642 1.023.726 1.65.08.595.08 1.344.08 2.243v2.104c0 .898 0 1.647-.08 2.242-.084.628-.27 1.195-.726 1.65-.455.456-1.022.641-1.65.726-.594.08-1.344.08-2.242.08h-2.104c-.899 0-1.648 0-2.242-.08-.628-.085-1.195-.27-1.65-.726-.456-.455-.642-1.022-.726-1.65-.08-.595-.08-1.344-.08-2.242V5.948c0-.899 0-1.648.08-2.243.084-.627.27-1.194.725-1.65.456-.455 1.023-.64 1.65-.725.595-.08 1.345-.08 2.243-.08m-2.043 1.566c-.461.062-.659.17-.789.3s-.237.328-.3.79C9.753 4.387 9.75 5.035 9.75 6v2c0 .964.002 1.611.067 2.094.062.462.169.66.3.79s.327.237.788.3c.483.064 1.131.066 2.095.066h2c.964 0 1.612-.002 2.095-.067.461-.062.659-.169.789-.3s.237-.327.3-.789c.064-.483.066-1.13.066-2.094V6c0-.964-.002-1.612-.067-2.095-.062-.461-.169-.659-.3-.79-.13-.13-.327-.237-.788-.299-.483-.065-1.131-.066-2.095-.066h-2c-.964 0-1.612.001-2.095.066M13 4.25a.75.75 0 0 0 0 1.5h2a.75.75 0 0 0 0-1.5z" clip-rule="evenodd"/></svg>