<svg xmlns="http://www.w3.org/2000/svg" width="24" height="24" fill="none"><path fill="#141B34" fill-rule="evenodd" d="M20.066 3.934c-1.708-1.708-4.486-1.54-5.927.319L12.886 5.87c-.138.178-.15.321-.127.432.026.13.114.276.26.39a.68.68 0 0 0 .438.156c.11-.006.249-.051.391-.234l.375-.48c.962-1.233 2.792-1.373 3.904-.261s.972 2.942-.261 3.904l-.48.375c-.183.142-.228.28-.234.39a.68.68 0 0 0 .156.44c.114.145.26.233.39.259.11.022.254.011.432-.127l1.617-1.253c1.86-1.44 2.026-4.219.319-5.927m-7.113-.6c2.009-2.592 5.844-2.79 8.173-.46 2.33 2.33 2.132 6.164-.46 8.173L19.049 12.3c-.513.397-1.098.522-1.646.412l-.063-.014-10.26 8.87a.8.8 0 0 1-.167.11 3.25 3.25 0 1 1-4.599-4.582L6.286 4.77a.75.75 0 1 1 1.428.46L4.156 16.268q.17-.018.344-.018a3.25 3.25 0 0 1 3.217 2.785l8.345-7.216a2.16 2.16 0 0 1-.408-1.352c.029-.561.296-1.097.809-1.498l.48-.374c.541-.423.582-1.204.124-1.662s-1.24-.417-1.662.124l-.374.48c-.401.513-.937.78-1.498.809a2.18 2.18 0 0 1-1.437-.472 2.2 2.2 0 0 1-.808-1.277c-.11-.549.014-1.133.412-1.646zM4.5 17.75a1.75 1.75 0 1 0 0 3.5 1.75 1.75 0 0 0 0-3.5" clip-rule="evenodd"/></svg>