<svg xmlns="http://www.w3.org/2000/svg" width="24" height="24" fill="none"><path fill="#141B34" fill-rule="evenodd" d="M14.606 5.376a27 27 0 0 0-1.482-.071h-.034l-.034.003c-.437.04-.84.218-1.163.495l-.016.014-.015.015c-2.097 2.014-5.816 5.663-7.876 7.8l-.01.01-.008.01c-.936 1.04-.942 2.591-.105 3.669l.031.04.037.036c.505.493 1.022 1.012 1.548 1.54C6.54 20 7.637 21.102 8.751 22.104l.02.019.023.017c1.079.833 2.63.827 3.673-.105l.014-.012.012-.012c1.94-1.904 5.788-5.74 7.732-7.778l.013-.013.012-.015a2.07 2.07 0 0 0 .497-1.162l.004-.034v-.034c0-.77-.071-2.569-.33-4.086-.134-.787-.27-1.467-.542-1.966a1.94 1.94 0 0 0-.612-.692 2 2 0 0 0-.582-.271q.03-.15.053-.297c.207-1.353-.078-2.764-1.114-3.685-.942-.836-2.04-.843-3.04-.568-.874.24-1.787.729-2.613 1.17h-.002l-.24.129c-.94.5-1.76.906-2.492 1.035-.665.118-1.2 0-1.694-.547A.75.75 0 1 0 6.43 4.203c.904 1 1.994 1.208 3.067 1.019 1.005-.177 2.032-.708 2.936-1.189l.213-.113c.869-.463 1.633-.87 2.336-1.064.72-.198 1.222-.132 1.646.244.534.474.786 1.3.627 2.337-.157 1.027-.71 2.153-1.62 3.048a.75.75 0 0 0 1.052 1.07 7.4 7.4 0 0 0 1.526-2.17.6.6 0 0 1 .208.085.45.45 0 0 1 .141.17c.132.243.238.666.38 1.501.235 1.378.306 3.048.308 3.792a.57.57 0 0 1-.126.281c-1.927 2.018-5.731 5.812-7.667 7.713-.473.411-1.197.435-1.726.041-1.077-.97-2.113-2.01-3.148-3.049-.52-.522-1.04-1.044-1.563-1.555-.383-.526-.354-1.237.056-1.702 2.037-2.112 5.715-5.722 7.807-7.731a.6.6 0 0 1 .282-.126c.312.002.767.031 1.284.064q.334.022.694.043a.75.75 0 0 0 .086-1.497zm-.109 6.09a.75.75 0 0 1 0 1.06l-.13.131c.241.533.197 1.062.177 1.292l-.005.073a.75.75 0 0 1-1.498-.08l.003-.06c.022-.398.032-.585-.157-.758a1.2 1.2 0 0 0-.41-.223c-.18-.064-.449.003-.622.21a.44.44 0 0 0-.113.265c-.002.072.017.189.144.346.102.127.198.232.3.344l.012.014.002.002c.099.108.219.24.323.384.245.339.387.725.36 1.252-.024.47-.259.88-.545 1.181-.291.307-.68.55-1.116.685a2.14 2.14 0 0 1-1.618-.164l-.107.106a.75.75 0 0 1-1.06-1.06l.11-.11c-.254-.498-.25-.937-.25-1.126v-.055a.75.75 0 0 1 1.5-.028l.002.106c0 .094 0 .155.02.245.021.099.07.232.21.388.225.251.537.33.752.264.194-.06.359-.167.47-.283.116-.123.133-.21.134-.226a.5.5 0 0 0-.014-.18.4.4 0 0 0-.064-.117 3 3 0 0 0-.218-.255l-.018-.02c-.098-.107-.222-.243-.353-.406-.329-.409-.49-.87-.475-1.337.016-.46.2-.865.462-1.178.505-.602 1.403-.968 2.271-.662q.165.057.313.128l.148-.148a.75.75 0 0 1 1.06 0" clip-rule="evenodd"/></svg>