<svg xmlns="http://www.w3.org/2000/svg" width="24" height="24" fill="none"><path fill="#141B34" fill-rule="evenodd" d="M1.532 2.414a.75.75 0 0 1 1.054.118l1.51 1.886c1.049-1.276 2.786-1.465 4.155-.761a8.16 8.16 0 0 0 3.75.919 8.16 8.16 0 0 0 3.749-.92c1.369-.703 3.105-.514 4.155.762l1.51-1.886a.75.75 0 1 1 1.17.937l-1.338 1.673 1 .35a.75.75 0 1 1-.494 1.416l-1.013-.355c.024.326.007.651-.05.964-.147.823-.582 1.624-1.352 2.102-2.19 1.358-4.686 2.131-7.338 2.131s-5.148-.773-7.338-2.131C3.892 9.14 3.457 8.34 3.31 7.517a4 4 0 0 1-.05-.964l-1.012.355a.75.75 0 1 1-.496-1.416l1.001-.35-1.338-1.673a.75.75 0 0 1 .117-1.055m6.034 2.577q.313.16.637.3l-.425 1.506a.75.75 0 0 0 1.444.406l.402-1.427a9.5 9.5 0 0 0 1.626.27V7.5a.75.75 0 0 0 1.5 0V6.047a9.5 9.5 0 0 0 1.626-.271l.402 1.427a.75.75 0 1 0 1.444-.406l-.424-1.506q.323-.14.637-.3c.948-.487 2.027-.238 2.538.722.253.473.331 1.037.241 1.54s-.335.886-.667 1.091C16.578 9.566 14.353 10.25 12 10.25s-4.578-.684-6.547-1.906c-.331-.205-.577-.588-.667-1.092a2.43 2.43 0 0 1 .241-1.54c.511-.96 1.59-1.208 2.539-.721M2.61 12.564a.75.75 0 0 0-1.22.872l1.294 1.811-.872.227a.75.75 0 0 0 .377 1.452l.623-.162c-.113 1.169.36 2.375 1.487 2.996a15.89 15.89 0 0 0 15.402 0c1.127-.622 1.6-1.828 1.487-2.996l.624.162a.75.75 0 1 0 .377-1.452l-.886-.23 1.305-1.804a.75.75 0 1 0-1.216-.88l-1.385 1.916c-1.11-.94-2.72-1.014-3.993-.433q-.598.273-1.23.464a9.6 9.6 0 0 1-2.784.41 9.6 9.6 0 0 1-4.014-.874c-1.277-.583-2.892-.506-4.003.442zm1.962 3.52c.532-.887 1.722-1.165 2.79-.677q.341.156.692.289l-.266.801a.75.75 0 0 0 1.424.472l.278-.838q.859.2 1.76.261v.875a.75.75 0 0 0 1.5 0v-.875q.901-.061 1.76-.26l.278.837a.75.75 0 0 0 1.424-.472l-.266-.801q.352-.133.691-.289c1.07-.488 2.26-.21 2.791.677.537.897.263 1.968-.451 2.362a14.39 14.39 0 0 1-13.954 0c-.714-.394-.987-1.465-.45-2.362" clip-rule="evenodd"/></svg>