<svg xmlns="http://www.w3.org/2000/svg" width="24" height="24" fill="none"><path fill="#141B34" fill-rule="evenodd" d="M4 13.25a.75.75 0 0 0 0 1.5h2.395c.182 0 .36.041.52.119l2.043.988c.365.177.767.268 1.174.268h1.042c.427 0 .777.228.953.547l-1.934.535c-.28.077-.582.05-.841-.076l-2.183-1.056a.75.75 0 1 0-.653 1.35l2.183 1.056a2.7 2.7 0 0 0 1.894.171l2.54-.702-.193-.702.194.702a.84.84 0 0 0 .616-.808l-.001-.087 4.064-1.25h.003a1.24 1.24 0 0 1 1.373.476c.116.161.056.382-.085.463l-7.516 4.337a1.24 1.24 0 0 1-.98.118L4.215 19.3a.75.75 0 0 0-.427 1.438l6.395 1.898c.724.215 1.5.121 2.156-.257l7.516-4.336c.933-.539 1.173-1.78.551-2.64a2.735 2.735 0 0 0-3.034-1.032h-.001l-4.127 1.269a2.6 2.6 0 0 0-2.069-1.016h-1.042c-.182 0-.36-.04-.521-.119l-2.042-.988a2.7 2.7 0 0 0-1.174-.268zm11-10.5a4.25 4.25 0 1 0 0 8.5 4.25 4.25 0 0 0 0-8.5M9.25 7a5.75 5.75 0 1 1 11.5 0 5.75 5.75 0 0 1-11.5 0m6.575-3.1a.75.75 0 0 1 .15 1.05L15 6.25h1.5a.75.75 0 0 1 .6 1.2l-1.875 2.5a.75.75 0 1 1-1.2-.9L15 7.75h-1.5a.75.75 0 0 1-.6-1.2l1.875-2.5a.75.75 0 0 1 1.05-.15" clip-rule="evenodd"/></svg>