<svg xmlns="http://www.w3.org/2000/svg" width="24" height="24" fill="none"><path fill="#141B34" fill-rule="evenodd" d="M13.286 2.997a4 4 0 0 0-.536-.199v1.434h2.385a.8.8 0 0 0-.308-.407c-.352-.217-.97-.579-1.541-.828M16 5.732h-3.25v.892l.04.02c.205.102.43.248.67.402l.027.017 2.11 1.356c.425.274.787.507 1.07.729.303.237.559.495.747.84.188.343.266.698.302 1.08.034.359.034.79.034 1.296v.05c.452.112.873.218 1.245.328.525.156 1.019.339 1.436.604.434.277.782.64 1.011 1.139.222.483.308 1.042.308 1.678v5.087H22a.75.75 0 0 1 0 1.5H2a.75.75 0 0 1 0-1.5h.25v-5.087c0-.636.086-1.195.308-1.678a2.63 2.63 0 0 1 1.011-1.139c.418-.265.911-.448 1.436-.604.373-.11.793-.216 1.245-.328v-.05c0-.506 0-.937.034-1.296.036-.382.114-.737.302-1.08.188-.345.444-.603.746-.84.284-.222.646-.455 1.071-.729l.028-.018 2.082-1.338.027-.017a8 8 0 0 1 .71-.422V2.936c0-.207 0-.43.025-.617.03-.22.105-.5.34-.736.4-.403.957-.348 1.234-.3.34.06.706.195 1.037.339.67.293 1.36.699 1.728.926.957.59 1.136 1.697 1.136 2.434a.75.75 0 0 1-.75.75m-4.117 2.252a7 7 0 0 0-.559.34L9.243 9.664c-.461.296-.763.491-.984.665-.209.164-.3.274-.356.378-.057.104-.1.24-.126.504-.026.28-.027.639-.027 1.187v8.853h3.5V18a.75.75 0 0 1 1.5 0v3.25h3.5v-8.853c0-.548 0-.908-.027-1.187-.025-.264-.07-.4-.126-.504-.057-.104-.147-.214-.356-.378-.22-.174-.522-.369-.983-.665l-2.082-1.338a7 7 0 0 0-.559-.34.6.6 0 0 0-.116-.047H12l-.013.002a1 1 0 0 0-.103.044M17.75 21.25h2.5v-5.087c0-.511-.071-.834-.171-1.052a1.13 1.13 0 0 0-.454-.5c-.24-.152-.575-.288-1.057-.43a20 20 0 0 0-.818-.221zm-14 0h2.5v-7.29q-.448.11-.818.22c-.482.143-.817.279-1.057.432a1.13 1.13 0 0 0-.454.499c-.1.218-.171.541-.171 1.052zM11 13a1 1 0 0 1 1-1h.009a1 1 0 1 1 0 2H12a1 1 0 0 1-1-1" clip-rule="evenodd"/></svg>