<svg xmlns="http://www.w3.org/2000/svg" width="25" height="24" fill="none"><path fill="#141B34" fill-rule="evenodd" d="M17.037 4.25c1.286 0 2.441.756 3.016 1.921a1.86 1.86 0 0 1 .001 1.664c-.257.5-.746.846-1.372.906.321.332.638.712.933 1.134a8.94 8.94 0 0 1 1.611 4.472 2.751 2.751 0 1 1-3.465 2.403h-6.586a3.751 3.751 0 0 1-7.35 0H2.5a.75.75 0 0 1-.75-.75c0-1.777.63-3.231 1.7-4.24 1.063-1 2.506-1.51 4.05-1.51s2.987.51 4.05 1.51c.893.842 1.48 1.996 1.65 3.388.378-.12.693-.34.965-.636.444-.484.782-1.184 1.028-2.009.492-1.65.547-3.558.547-4.503V5.75h-2.296a.75.75 0 0 1 0-1.5zm-7.415 12.5H5.378a2.25 2.25 0 0 0 4.244 0m10.878-1a1.25 1.25 0 1 0 0 2.5 1.25 1.25 0 0 0 0-2.5m-3.3-6.355c-.06 1.03-.21 2.33-.57 3.537-.244.82-.6 1.644-1.127 2.318h2.663a.8.8 0 0 1 .192.025c.347-.43.82-.754 1.364-.914a7.45 7.45 0 0 0-1.337-3.627A7.7 7.7 0 0 0 17.2 9.395M7.5 11.75c-1.217 0-2.275.4-3.021 1.103-.602.566-1.038 1.363-1.18 2.397H11.7c-.141-1.034-.577-1.83-1.179-2.397-.746-.703-1.804-1.103-3.021-1.103m9.74-5.988V7.25h1.245a.34.34 0 0 0 .176-.037.15.15 0 0 0 .06-.065.36.36 0 0 0-.013-.313c-.303-.615-.861-1.002-1.468-1.073M4.75 8a.75.75 0 0 1 .75-.75h4a.75.75 0 0 1 0 1.5h-4A.75.75 0 0 1 4.75 8" clip-rule="evenodd"/></svg>