<svg xmlns="http://www.w3.org/2000/svg" width="25" height="24" fill="none"><path fill="#141B34" fill-rule="evenodd" d="M2 11c0-5.385 4.365-9.75 9.75-9.75S21.5 5.615 21.5 11a9.7 9.7 0 0 1-2.346 6.344l4.126 4.126a.75.75 0 1 1-1.06 1.06l-4.126-4.126a9.7 9.7 0 0 1-6.344 2.346C6.365 20.75 2 16.385 2 11m9.75-8.25a8.25 8.25 0 1 0 0 16.5 8.25 8.25 0 0 0 0-16.5m.721 3.75a.75.75 0 0 0-1.5 0v.32q-.302.071-.594.208c-1.14.533-1.828 1.57-1.675 2.649.16 1.132 1.17 1.877 2.55 1.947.225.011.416.016.587.02.284.006.513.011.752.045.325.047.51.135.654.29.153.167.294.522.245.86-.037.263-.198.6-.835.801a2.64 2.64 0 0 1-1.926-.122c-.548-.267-.729-.619-.729-.835a.75.75 0 0 0-1.5 0c0 1.014.746 1.78 1.57 2.183q.418.204.901.309v.325a.75.75 0 0 0 1.5 0v-.281q.32-.047.639-.149c1.142-.363 1.74-1.142 1.865-2.017.115-.799-.177-1.603-.627-2.09-.46-.499-1.02-.683-1.544-.758-.323-.047-.708-.056-1.053-.065-.152-.004-.296-.008-.423-.014-.901-.046-1.112-.452-1.141-.659-.037-.26.118-.75.826-1.081.497-.233 1.106-.186 1.593.06.513.257.667.6.65.803a.75.75 0 0 0 1.495.124c.088-1.06-.674-1.867-1.471-2.268a3.5 3.5 0 0 0-.809-.287z" clip-rule="evenodd"/></svg>