<svg xmlns="http://www.w3.org/2000/svg" width="24" height="24" fill="none"><path fill="#141B34" fill-rule="evenodd" d="M5.75 2a.75.75 0 0 0-1.5 0v2.25H2a.75.75 0 1 0 0 1.5h2.25V8a.75.75 0 1 0 1.5 0V5.75H8a.75.75 0 0 0 0-1.5H5.75zM12 4.25a.75.75 0 0 0 0 1.5h3a.75.75 0 0 0 0-1.5zm6 0a.75.75 0 0 0 0 1.5h.5a2.75 2.75 0 0 1 2.75 2.75V9a.75.75 0 0 0 1.5 0v-.5a4.25 4.25 0 0 0-4.25-4.25zM5.75 12a.75.75 0 0 0-1.5 0v3a.75.75 0 0 0 1.5 0zm17 0a.75.75 0 0 0-1.5 0v3a.75.75 0 0 0 1.5 0zm-17 6a.75.75 0 0 0-1.5 0v.5a4.25 4.25 0 0 0 4.25 4.25H9a.75.75 0 0 0 0-1.5h-.5a2.75 2.75 0 0 1-2.75-2.75zm17 0a.75.75 0 0 0-1.5 0v.5a2.75 2.75 0 0 1-2.75 2.75H18a.75.75 0 0 0 0 1.5h.5a4.25 4.25 0 0 0 4.25-4.25zM12 21.25a.75.75 0 0 0 0 1.5h3a.75.75 0 0 0 0-1.5z" clip-rule="evenodd"/></svg>