<svg xmlns="http://www.w3.org/2000/svg" width="25" height="24" fill="none"><path fill="#141B34" fill-rule="evenodd" d="M11.227 15.001c0 .414.336.75.75.75v-.004a.75.75 0 0 0 .75-.75c0-3.569 0-5.361.812-6.481.254-.357.578-.68.955-.956 1.066-.762 2.732-.798 5.946-.79a44 44 0 0 1-1.871 1.651.75.75 0 1 0 .956 1.156l.003-.002c.118-.099 2.04-1.696 2.834-2.636a1.43 1.43 0 0 0 .364-.876 1.44 1.44 0 0 0-.34-.987l-.005-.005-.003-.004c-.794-.934-2.725-2.538-2.85-2.642l-.003-.003a.75.75 0 0 0-.956 1.156l.01.01a45 45 0 0 1 1.91 1.684c-3.566-.007-5.417.033-6.874 1.075a5.7 5.7 0 0 0-1.296 1.298c-1.092 1.508-1.092 3.462-1.092 7.356m-8-3.028c0 5.392 4.387 9.778 9.78 9.778l.002.002a9.766 9.766 0 0 0 9.715-8.666.75.75 0 1 0-1.491-.17 8.267 8.267 0 0 1-8.225 7.335c-4.566 0-8.28-3.713-8.28-8.278a8.264 8.264 0 0 1 7.362-8.227.75.75 0 0 0-.165-1.491 9.76 9.76 0 0 0-8.698 9.717" clip-rule="evenodd"/></svg>