<svg xmlns="http://www.w3.org/2000/svg" width="24" height="24" fill="none"><path fill="#141B34" fill-rule="evenodd" d="m18.235 10.047-2.069-6.838c-.1-.33-.198-.437-.223-.46-.205-.01-.796.387-1.123.606l-.008.005c-.35.237-.713.481-1.089.658a4.06 4.06 0 0 1-3.44 0c-.374-.176-.736-.42-1.087-.657-.32-.216-.907-.612-1.122-.612h-.009c-.025.023-.122.13-.224.462l-2.067 6.835c1.718.767 3.888 1.204 6.23 1.204s4.512-.437 6.23-1.203m-13.808-.73 1.98-6.542c.238-.779.616-1.25 1.155-1.44.86-.304 1.717.273 2.473.783l.014.01c.3.202.607.41.874.534a2.58 2.58 0 0 0 2.16 0c.273-.128.587-.34.89-.545.756-.51 1.612-1.087 2.473-.783.54.191.917.661 1.155 1.438l1.98 6.546c.76-.499 1.372-1.08 1.795-1.728a.75.75 0 1 1 1.256.82c-.658 1.009-1.646 1.873-2.88 2.56l.001.03c0 1.299-.055 2.812-.465 4.192-.446 1.5-1.24 2.627-2.432 3.44-.709.487-1.592.791-2.527 1.112q-.388.133-.763.268a3.93 3.93 0 0 1 1.15 1.758.75.75 0 0 1-.713.98.75.75 0 0 1-.712-.52c-.217-.67-.682-1.14-1.286-1.51-.606.37-1.072.84-1.289 1.512a.75.75 0 0 1-.713.52l.001-.002a.75.75 0 0 1-.714-.981 3.94 3.94 0 0 1 1.152-1.758q-.376-.135-.764-.267l-.001-.001c-.935-.322-1.817-.626-2.527-1.112-2.545-1.74-2.896-4.696-2.896-7.63v-.032c-1.232-.686-2.22-1.55-2.878-2.559a.75.75 0 0 1 1.256-.82c.423.648 1.035 1.23 1.795 1.728m1.336 2.355c.096 3.526.965 4.854 2.234 5.721.543.373 1.333.645 2.168.933.606.208 1.239.426 1.838.702.6-.276 1.233-.494 1.84-.702l.01-.004c.832-.287 1.617-.557 2.156-.927 1.718-1.175 2.176-3.138 2.237-5.723-1.794.695-3.933 1.078-6.242 1.078s-4.448-.383-6.241-1.078" clip-rule="evenodd"/></svg>