<svg xmlns="http://www.w3.org/2000/svg" width="24" height="24" fill="none"><path fill="#141B34" fill-rule="evenodd" d="M5.354 5.466c.87-.293 1.72-.788 2.508-1.247.276-.161.545-.318.805-.46 1.051-.574 2.092-1.009 3.33-1.009s2.28.435 3.332 1.01c.26.142.528.298.805.459.788.459 1.638.954 2.509 1.247.455.153.76.256.975.345.129.053.19.088.211.101a1 1 0 0 1 .038.114c.038.138.071.328.126.65 1.086 6.355-1.292 12.041-6.747 14.246-.63.255-.826.328-1.246.328s-.615-.073-1.245-.328c-5.456-2.205-7.837-7.89-6.751-14.246.055-.322.088-.512.126-.65a1 1 0 0 1 .038-.114 2 2 0 0 1 .212-.101c.215-.09.52-.192.974-.345m6.643-4.216c-1.612 0-2.919.575-4.05 1.193-.345.19-.664.375-.968.552-.739.43-1.388.808-2.103 1.05l-.026.008c-.423.142-.776.26-1.044.372-.254.105-.559.25-.774.503-.19.223-.287.471-.35.707a9 9 0 0 0-.152.76l-.005.029C1.358 13.26 3.902 19.77 10.193 22.313l.034.014c.614.248 1.047.423 1.773.423s1.16-.175 1.773-.423l.034-.014c6.29-2.543 8.833-9.052 7.665-15.89l-.005-.029a9 9 0 0 0-.151-.76 1.8 1.8 0 0 0-.35-.706c-.216-.253-.521-.398-.775-.503a18 18 0 0 0-1.044-.372l-.025-.009c-.716-.24-1.366-.62-2.106-1.05a41 41 0 0 0-.968-.55c-1.131-.619-2.44-1.194-4.05-1.194M11.8 7.864l.161-.078.038-.017.038.017c.044.02.094.046.16.078l2.087 1.023c.316.155.548.269.72.363-.172.094-.404.208-.72.363l-2.086 1.023-.161.078-.038.017-.038-.017c-.044-.02-.094-.046-.16-.078L9.712 9.613c-.316-.155-.548-.269-.72-.363.172-.094.404-.208.72-.363zm3.192 3.073.257-.127v2.79l-.02.014c-.175.12-.46.262-.945.5l-1.535.752v-2.83l.055-.026.054-.027 2.086-1.023zm-5.278 3.176 1.535.753v-2.83l-.054-.026-.055-.027-2.086-1.023-.048-.023-.257-.127v2.79l.02.014c.175.12.46.262.945.5m7.035-.363v-4.5c0-.57-.394-.911-.673-1.102-.276-.19-.664-.379-1.084-.585l-.048-.023-2.086-1.023-.054-.027c-.195-.097-.482-.24-.805-.24s-.61.143-.804.24l-.055.027L9.053 7.54l-.048.023c-.42.206-.808.396-1.084.585-.279.19-.673.532-.673 1.102v4.5c0 .57.394.911.673 1.102.276.19.664.379 1.084.585l.048.023 2.086 1.023.055.027c.194.097.481.24.804.24s.61-.143.805-.24l.054-.027 2.086-1.023.048-.023c.42-.206.808-.396 1.084-.585.28-.19.673-.532.673-1.102" clip-rule="evenodd"/></svg>