<svg xmlns="http://www.w3.org/2000/svg" width="24" height="24" fill="none"><path fill="#141B34" fill-rule="evenodd" d="M15.756 3.25c.61 0 1 .001 1.293.037.273.032.372.086.431.134.058.046.13.128.218.38.094.274.176.649.301 1.238l3.033 14.206c.124.58.198.935.215 1.193a.8.8 0 0 1-.009.216l-.013.007a.8.8 0 0 1-.211.05c-.262.037-.632.039-1.233.039h-6.544c-.403 0-.64-.001-.812-.022a.7.7 0 0 1-.155-.033l-.002-.002-.002-.001-.003-.003-.005-.009a.7.7 0 0 1-.057-.123c-.06-.16-.115-.384-.208-.771L8.022 3.25zm-6.395 12L7.032 5.552 4.444 15.25zm.36 1.5.822 3.423c.081.337.157.653.252.908.106.284.262.57.55.795.287.223.602.306.903.342.272.032.6.032.951.032h6.632c.535 0 1.013 0 1.393-.054.41-.058.85-.196 1.173-.59.326-.395.374-.854.347-1.267-.026-.38-.124-.843-.234-1.358L19.457 4.683c-.114-.534-.213-1-.342-1.372-.139-.401-.337-.773-.698-1.061s-.766-.402-1.189-.453c-.393-.047-.875-.047-1.43-.047H7.07a.75.75 0 0 0-.724.557l-5.07 19a.75.75 0 1 0 1.449.386l1.319-4.943z" clip-rule="evenodd"/></svg>