<svg xmlns="http://www.w3.org/2000/svg" width="24" height="24" fill="none"><path fill="#141B34" fill-rule="evenodd" d="M1.75 2a.75.75 0 0 1 .75-.75h.938a2.75 2.75 0 0 1 2.668 2.083l.004.014L8.609 15.25h6.654c1.046 0 1.815-.164 2.398-.434a3.27 3.27 0 0 0 1.355-1.163c.732-1.068 1.088-2.634 1.51-4.731.123-.614.2-1.002.22-1.287a1 1 0 0 0-.006-.255.1.1 0 0 0-.014-.043.3.3 0 0 0-.072-.025c-.12-.032-.317-.052-.668-.058a.75.75 0 0 1 .028-1.5c.356.007.712.025 1.023.107.34.09.663.265.902.594.294.405.332.863.303 1.283-.027.395-.125.88-.236 1.433l-.01.047c-.405 2.014-.804 3.913-1.743 5.283a4.77 4.77 0 0 1-1.96 1.675c-.833.387-1.832.575-3.03.575H8.425c-.804.021-1.506.642-1.649 1.499H17.5a2.25 2.25 0 1 1-2.122 1.5h-2.756q.126.354.128.75a2.25 2.25 0 1 1-4.372-.75H6.411c-.67 0-1.161-.557-1.161-1.179 0-1.328.765-2.5 1.888-3.026l-2.49-11.86a1.25 1.25 0 0 0-1.21-.935H2.5A.75.75 0 0 1 1.75 2M17.5 19.75a.75.75 0 1 0 0 1.5.75.75 0 0 0 0-1.5m-7.75.75a.75.75 0 1 1 1.5 0 .75.75 0 0 1-1.5 0m4-18a.75.75 0 0 0-1.5 0v3.25H9a.75.75 0 0 0 0 1.5h3.25v3.25a.75.75 0 0 0 1.5 0V7.25H17a.75.75 0 0 0 0-1.5h-3.25z" clip-rule="evenodd"/></svg>