<svg xmlns="http://www.w3.org/2000/svg" width="25" height="24" fill="none"><path fill="#141B34" d="M12.428 21.75a.75.75 0 0 1-.729-.927c.1-.415.584-1.837 2.548-2.69l.07-.027a1 1 0 0 1 .105-.042c.836-.308 1.87-.831 2.264-1.148a1 1 0 0 1 .06-.043l2.795-1.824c.049-.044.048-.066.047-.074-.004-.072-.085-.223-.256-.335-1.255-.835-2.415-.35-4.177.548q-.181.094-.363.184c-.953.472-2.127.402-3.068-.181-.893-.555-1.426-1.478-1.426-2.469s.533-1.92 1.5-2.576c1.356-.92 3.393-1.21 4.76-.685l2.162.631c.202.06.41.037.59-.064a.72.72 0 0 0 .347-.446.715.715 0 0 0-.455-.848l-2.357-.879-.007-.003-.89-.273c-.732-.219-1.261-.3-1.656-.252-.667.083-2.451.871-3.42 1.348a.75.75 0 1 1-.662-1.345c.279-.138 2.762-1.35 3.9-1.492.61-.074 1.332.024 2.274.306l.91.28q.015.003.03.01l.025.008.014.005a.72.72 0 0 0 .553-.025.73.73 0 0 0 .384-.431.736.736 0 0 0-.417-.925l-1.9-.785-.161-.06c-.537-.198-.833-.306-1.1-.369a4.4 4.4 0 0 0-1.09-.1l-.028.001a2 2 0 0 0-.392.058 3.3 3.3 0 0 0-.594.165l-.514.175c-1.711.582-2.42.823-3.156 1.358-1.951 1.423-3.134 3.043-3.44 4.018-.324 1.04-.324 2.318-.324 4.866v6.61a.75.75 0 0 1-1.5 0v-6.61c0-2.699 0-4.054.393-5.313.562-1.792 2.428-3.645 3.988-4.783.922-.669 1.802-.969 3.556-1.565l.517-.176c.283-.096.489-.165.81-.22.286-.058.402-.069.557-.079l.04-.003q.014 0 .032-.002a6 6 0 0 1 1.484.14c.359.083.686.203 1.279.421l.176.065.028.011 1.91.79a2.235 2.235 0 0 1 1.265 2.8 2.2 2.2 0 0 1-.39.7l.403.15c1.08.41 1.67 1.542 1.377 2.637a2.2 2.2 0 0 1-1.061 1.37 2.24 2.24 0 0 1-1.75.195l-2.19-.639-.068-.022c-.914-.365-2.438-.132-3.398.518-.558.377-.841.827-.841 1.334 0 .476.26.912.717 1.194.503.313 1.119.356 1.608.114l.352-.178c1.61-.82 3.614-1.84 5.684-.464.549.358.898.925.928 1.51.027.516-.195.99-.623 1.337l-.062.045-2.805 1.831c-.603.471-1.798 1.046-2.644 1.358l-.014.008a1 1 0 0 1-.143.057c-.286.132-1.407.706-1.636 1.646a.75.75 0 0 1-.728.573zm2.48-2.267"/></svg>