<svg xmlns="http://www.w3.org/2000/svg" width="24" height="24" fill="none"><path fill="#141B34" fill-rule="evenodd" d="M1.255 9.411a.75.75 0 0 1 .172-.395l4.493-5.49a.75.75 0 0 1 .446-.264l5.5-1a.8.8 0 0 1 .268 0l5.5 1a.75.75 0 0 1 .447.263l4.492 5.49a.75.75 0 0 1-.01.98L12.57 21.488a.76.76 0 0 1-.643.258.75.75 0 0 1-.497-.259L1.437 9.996a.74.74 0 0 1-.182-.585m8.115 7.422L3.646 10.25h2.862zm5.26 0 2.862-6.583h2.862zM16.69 4.615l-2.91-.529 2.646 3.438zM12 19.12 8.144 10.25h7.712zM15.477 8.75H8.523L12 4.23zm-5.259-4.664L7.574 7.524l-.265-2.909zM5.92 5.894 3.583 8.75h2.596zm12.162 0 2.336 2.856h-2.596z" clip-rule="evenodd"/></svg>