<svg xmlns="http://www.w3.org/2000/svg" width="25" height="24" fill="none"><path fill="#141B34" fill-rule="evenodd" d="M9.281 2.75a1.25 1.25 0 1 0 0 2.5 1.25 1.25 0 0 0 0-2.5M6.531 4a2.75 2.75 0 1 1 5.5.046l4.93 1.478a2.75 2.75 0 1 1 3.27 4.057l.594 7.723a2.75 2.75 0 1 1-3.262 3.116l-10.75-1.344a2.75 2.75 0 1 1-2.348-3.82l3.22-9.016A2.75 2.75 0 0 1 6.531 4m2.567 2.744-3.22 9.017A2.75 2.75 0 0 1 7 17.588l10.746 1.343a2.76 2.76 0 0 1 1.582-1.512l-.594-7.723a2.75 2.75 0 0 1-2.203-2.734l-4.934-1.48a2.75 2.75 0 0 1-2.5 1.262m8.983-.095q-.049.169-.05.351a1.25 1.25 0 1 0 .054-.364l-.002.008zm2.047 12.11a1.25 1.25 0 1 0 .113-.008 1 1 0 0 1-.113.008m-14.605-.617q.009-.07.008-.142c0-.523-.32-.97-.777-1.157a1 1 0 0 1-.105-.038 1.25 1.25 0 1 0 .874 1.337" clip-rule="evenodd"/></svg>