<svg xmlns="http://www.w3.org/2000/svg" width="24" height="24" fill="none"><path fill="#141B34" fill-rule="evenodd" d="M7.715 10.499c0-.412.335-.75.755-.75s.755.338.755.75-.335.75-.755.75a.753.753 0 0 1-.755-.75m.755-2.25a2.253 2.253 0 0 0-2.255 2.25 2.253 2.253 0 0 0 2.255 2.25 2.253 2.253 0 0 0 2.255-2.25 2.253 2.253 0 0 0-2.255-2.25m6.27 2.25c0-.412.335-.75.755-.75s.755.338.755.75-.335.75-.755.75a.753.753 0 0 1-.755-.75m.755-2.25a2.253 2.253 0 0 0-2.255 2.25 2.253 2.253 0 0 0 2.255 2.25 2.253 2.253 0 0 0 2.255-2.25 2.253 2.253 0 0 0-2.255-2.25m-12.96 2.23a.75.75 0 1 0-1.07 1.052c.801.814 2.346 1.959 4.43 2.9-.953 2.358-.919 4.466.221 5.921.45.574 1.099.94 1.679 1.157.578.216 1.188.322 1.639.298.368-.02.757-.079 1.11-.211.351-.133.722-.36.96-.751.242-.395.279-.902.286-1.347.006-.37-.012-.828-.033-1.355l-.018-.474c-.066-1.838-1.28-3.271-2.922-3.753q-.87-.256-1.65-.573c-2.277-.919-3.904-2.124-4.632-2.864m4.762 8.949c-.671-.858-.862-2.34-.013-4.435q.537.195 1.11.363c1.052.308 1.804 1.205 1.846 2.367l.02.512c.02.514.035.914.03 1.24a3 3 0 0 1-.033.462c-.015.088-.031.122-.033.127-.01.015-.055.07-.209.128-.16.06-.383.102-.661.117-.196.01-.597-.042-1.034-.205-.435-.163-.806-.399-1.023-.676m15.238-7.866a.75.75 0 1 0-1.07-1.052c-.72.732-2.39 1.909-4.68 2.833a18 18 0 0 1-1.686.585c-.867.304-2.823 1.404-2.762 3.887l-.065 3.132v.016c0 .44.24.848.538 1.133.318.306.767.541 1.318.62.628.09 1.357-.002 2.016-.225.655-.223 1.33-.607 1.782-1.184.656-.839.895-2.118.852-3.415a10.7 10.7 0 0 0-.725-3.458c2.083-.931 3.673-2.05 4.482-2.872m-6.957 3.788q.56-.166 1.084-.354c.384.99.586 2.021.617 2.945.038 1.153-.195 2.008-.534 2.44-.215.275-.6.525-1.084.69-.48.162-.969.21-1.322.16a.88.88 0 0 1-.49-.217.4.4 0 0 1-.076-.093l.064-3.092v-.037c-.043-1.5 1.1-2.213 1.74-2.442m-1.813 5.553v.002zM12.038 1.249h-.113c-1.844 0-3.305 0-4.448.153-1.175.158-2.127.49-2.877 1.237-.68.678-1.02 1.522-1.194 2.55-.172 1.007-.197 2.26-.202 3.808a.75.75 0 1 0 1.5.004c.005-1.567.033-2.696.18-3.56.144-.84.388-1.354.774-1.74.426-.423 1.008-.677 2.019-.812 1.031-.138 2.391-.14 4.305-.14s3.273.002 4.305.14c1.01.135 1.593.39 2.018.813.387.385.63.898.774 1.74.147.863.176 1.992.18 3.56a.75.75 0 0 0 1.5-.005c-.004-1.547-.03-2.8-.201-3.807-.175-1.029-.514-1.873-1.194-2.55-.75-.749-1.702-1.08-2.878-1.238-1.143-.153-2.603-.153-4.448-.153" clip-rule="evenodd"/></svg>