<svg xmlns="http://www.w3.org/2000/svg" width="24" height="24" fill="none"><path fill="#141B34" fill-rule="evenodd" d="M5 3.25a.75.75 0 0 1 .75.75v7a.75.75 0 0 1-1.5 0V4A.75.75 0 0 1 5 3.25m0 10h3a.75.75 0 0 1 0 1.5H5.75V20a.75.75 0 1 1-1.5 0v-5.25H2a.75.75 0 0 1 0-1.5h3m10-4.5a.75.75 0 0 0 0-1.5h-2.25V4a.75.75 0 0 0-1.5 0v3.25H9a.75.75 0 0 0 0 1.5h6m7 4a.75.75 0 0 0 0-1.5h-2.25V4a.75.75 0 0 0-1.5 0v7.25H16a.75.75 0 0 0 0 1.5h6M12.75 11a.75.75 0 1 0-1.5 0v9a.75.75 0 0 0 1.5 0zm7 4a.75.75 0 1 0-1.5 0v5a.75.75 0 1 0 1.5 0z" clip-rule="evenodd"/></svg>