<svg xmlns="http://www.w3.org/2000/svg" width="24" height="24" fill="none"><path fill="#141B34" fill-rule="evenodd" d="M8.25 1.249H18a.75.75 0 0 1 .096 1.494l.553.664.068.08c.393.472.704.844.869 1.3s.165.942.164 1.555v11.315c0 .613.001 1.098-.164 1.554-.165.457-.476.83-.87 1.3l-.067.081-1.273 1.528-.03.037c-.108.131-.289.352-.55.474-.26.123-.546.12-.716.119H7.92c-.17.001-.456.004-.717-.119-.26-.122-.442-.343-.55-.474l-.03-.037-1.273-1.528-.068-.081c-.393-.47-.703-.843-.869-1.3-.165-.456-.164-.941-.164-1.554V6.342c0-.613 0-1.098.164-1.555.166-.456.476-.828.87-1.3l.067-.08.553-.664A.75.75 0 0 1 6 1.249zm-.386 1.523-.002.001-.005.003-.004.004a1 1 0 0 0-.062.056c-.071.073-.16.177-.314.363l-.875 1.05h10.796l-.874-1.05a7 7 0 0 0-.315-.363 1 1 0 0 0-.061-.056l-.005-.004-.004-.002-.001-.001h-.002l-.01-.003a1 1 0 0 0-.082-.011 7 7 0 0 0-.48-.01H8.436c-.243 0-.379.001-.48.01a1 1 0 0 0-.093.013M5.75 6.448c0-.316.002-.537.008-.699h12.484c.006.162.008.383.008.699V17.55c0 .316-.002.536-.008.698H5.758a19 19 0 0 1-.008-.698zm.851 13.301 1.175 1.41.076.09h8.297l.075-.09 1.175-1.41zm3.649-7.75a1.75 1.75 0 1 1 3.5 0 1.75 1.75 0 0 1-3.5 0M12 8.749a3.25 3.25 0 1 0 0 6.5 3.25 3.25 0 0 0 0-6.5" clip-rule="evenodd"/></svg>