<svg xmlns="http://www.w3.org/2000/svg" width="24" height="24" fill="none"><path fill="#141B34" fill-rule="evenodd" d="M12.75 2a.75.75 0 0 0-1.5 0v.5a.75.75 0 0 0 1.5 0zm-3 6a2.25 2.25 0 0 1 4.5 0 .75.75 0 0 0 1.5 0 3.75 3.75 0 1 0-7.5 0 .75.75 0 0 0 1.5 0m-1.543 2.25h-.04c-.452 0-.854 0-1.187.038-.363.042-.716.136-1.042.37-.325.232-.53.536-.691.865-.15.306-.29.692-.45 1.133l-.013.035-.726 2-.02.054c-.317.875-.582 1.607-.706 2.2-.13.62-.143 1.258.24 1.827.386.576.981.794 1.601.889.587.09 1.348.089 2.247.089h3.83v1.5H10a.75.75 0 0 0 0 1.5h4a.75.75 0 0 0 0-1.5h-1.25v-1.5h3.83c.899 0 1.66 0 2.246-.09.62-.094 1.216-.312 1.602-.888.382-.57.37-1.206.24-1.826-.124-.594-.39-1.326-.707-2.2l-.758-2.09c-.16-.441-.3-.827-.45-1.133-.162-.33-.366-.633-.69-.866-.327-.233-.68-.327-1.043-.369-.333-.038-.735-.038-1.188-.038H8.207m0 1.5h3.043v2.5H5.814l.38-1.048c.176-.486.29-.794.4-1.017.101-.209.169-.274.217-.308.046-.033.123-.074.34-.099.237-.027.552-.028 1.056-.028m-2.936 4c-.233.65-.392 1.125-.47 1.502-.097.462-.035.609.016.685.047.069.143.174.582.24.46.07 1.105.073 2.082.073h3.769v-2.5zm7.479 0v2.5h3.769c.976 0 1.621-.002 2.081-.072.44-.067.536-.172.583-.241.05-.076.113-.223.017-.685-.08-.377-.238-.852-.471-1.502zm5.436-1.5-.38-1.048c-.177-.486-.29-.794-.4-1.017-.102-.209-.169-.274-.217-.308s-.124-.074-.34-.099c-.238-.027-.552-.028-1.056-.028H12.75v2.5zM16.75 8a.75.75 0 0 1 .75-.75h.5a.75.75 0 0 1 0 1.5h-.5a.75.75 0 0 1-.75-.75M6 8.75h.5a.75.75 0 0 0 0-1.5H6a.75.75 0 0 0 0 1.5m10.773-5.523a.75.75 0 0 1 0 1.061l-.354.354a.75.75 0 0 1-1.06-1.061l.353-.354a.75.75 0 0 1 1.06 0m-8.485 0a.75.75 0 0 0-1.06 1.061l.353.354a.75.75 0 0 0 1.06-1.061z" clip-rule="evenodd"/></svg>