<svg xmlns="http://www.w3.org/2000/svg" width="24" height="24" fill="none"><path fill="#141B34" fill-rule="evenodd" d="M9.225 3.173A9.3 9.3 0 0 1 12 2.75 9.25 9.25 0 0 1 21.25 12a9.2 9.2 0 0 1-1.154 4.477 2.75 2.75 0 1 0 1.173.97c.941-1.598 1.481-3.46 1.481-5.447 0-5.937-4.813-10.75-10.75-10.75-1.122 0-2.206.172-3.225.492a.75.75 0 1 0 .45 1.431m-5.321 4.35A9.2 9.2 0 0 0 2.75 12 9.25 9.25 0 0 0 12 21.25c.968 0 1.9-.148 2.775-.423a.75.75 0 1 1 .45 1.43c-1.02.32-2.103.493-3.225.493-5.937 0-10.75-4.813-10.75-10.75 0-1.986.54-3.849 1.48-5.447a2.75 2.75 0 1 1 1.173.97M3.75 5a1.25 1.25 0 1 1 2.5 0 1.25 1.25 0 0 1-2.5 0M19 17.75a1.25 1.25 0 1 0 0 2.5 1.25 1.25 0 0 0 0-2.5M6.75 15a1.25 1.25 0 1 1 2.5 0 1.25 1.25 0 0 1-2.5 0M8 12.25a3 3 0 0 0-.242.01A4.25 4.25 0 1 1 12 16.25a.75.75 0 0 0 0 1.5 5.75 5.75 0 1 0-5.69-4.92A2.75 2.75 0 1 0 8 12.25M12 11a1 1 0 1 0 0 2h.009a1 1 0 0 0 0-2z" clip-rule="evenodd"/></svg>