<svg xmlns="http://www.w3.org/2000/svg" width="24" height="24" fill="none"><path fill="#141B34" fill-rule="evenodd" d="M3.56 5.686c.131-.147.297-.377.449-.59l.035-.05.206-.284V9a.75.75 0 1 0 1.5 0V4.762l.206.285.035.05c.152.212.318.442.448.589a.75.75 0 0 0 1.122-.997 7 7 0 0 1-.351-.467l-.038-.053a24 24 0 0 0-.516-.7 6.3 6.3 0 0 0-.651-.738 2.3 2.3 0 0 0-.395-.302A1.2 1.2 0 0 0 5 2.25c-.257 0-.469.096-.61.179a2.3 2.3 0 0 0-.395.302 6.3 6.3 0 0 0-.65.737c-.186.24-.365.49-.517.7l-.038.054a7 7 0 0 1-.35.467.75.75 0 1 0 1.12.997M11 5.25a.75.75 0 0 0 0 1.5h10a.75.75 0 0 0 0-1.5zm0 4a.75.75 0 1 0 0 1.5h7a.75.75 0 0 0 0-1.5zm0 4a.75.75 0 0 0 0 1.5h5a.75.75 0 0 0 0-1.5zM10.25 18a.75.75 0 0 1 .75-.75h3a.75.75 0 0 1 0 1.5h-3a.75.75 0 0 1-.75-.75m-4.259.904c.152-.213.318-.443.448-.59a.75.75 0 1 1 1.122.997 7 7 0 0 0-.351.468l-.038.052c-.152.212-.332.462-.517.7a6.3 6.3 0 0 1-.65.738 2.3 2.3 0 0 1-.396.302c-.14.083-.352.179-.609.179s-.469-.096-.61-.179a2.3 2.3 0 0 1-.395-.302 6.3 6.3 0 0 1-.65-.737c-.186-.24-.365-.49-.517-.7l-.038-.053a7 7 0 0 0-.35-.468.75.75 0 1 1 1.12-.997c.131.147.297.377.449.59l.035.05.206.284V15a.75.75 0 0 1 1.5 0v4.238l.205-.285z" clip-rule="evenodd"/></svg>