<svg xmlns="http://www.w3.org/2000/svg" width="24" height="24" fill="none"><path fill="#141B34" fill-rule="evenodd" d="M18.478 1.388c1.16.142 2.102.439 2.852 1.119.761.689 1.103 1.572 1.264 2.657.141.956.153 2.151.154 3.62v2.022c0 1.659 0 2.987-.154 4.03-.16 1.085-.503 1.967-1.264 2.656-.716.65-1.609.951-2.703 1.1q-.014.123-.033.244c-.16 1.085-.502 1.968-1.263 2.657-.75.68-1.692.977-2.852 1.119-1.047.127-2.364.137-4.01.138h-.522c-1.842 0-3.293 0-4.428-.139-1.16-.142-2.102-.439-2.852-1.119-.76-.689-1.103-1.572-1.263-2.657-.129-.869-.15-1.936-.154-3.227v-3.217c.004-1.291.025-2.358.154-3.227.16-1.085.502-1.968 1.263-2.657.717-.651 1.611-.951 2.703-1.1.145-1.194.478-2.158 1.296-2.9.75-.68 1.692-.977 2.852-1.12.96-.116 2.148-.134 3.606-.137h1.749c1.458.003 2.645.02 3.605.138M10.733 6.75H9.266c-1.529.002-2.67.017-3.565.127-1.019.124-1.605.358-2.027.74-.41.373-.655.876-.787 1.766-.116.79-.134 1.796-.137 3.159v2.915c.003 1.363.02 2.37.137 3.159.132.89.376 1.393.787 1.765.422.383 1.008.617 2.027.741.896.11 2.036.125 3.565.127h1.467c1.528-.002 2.669-.017 3.564-.127 1.02-.123 1.605-.358 2.027-.74.411-.373.655-.876.787-1.767.127-.854.137-1.964.138-3.506v-1.855c0-1.733-.002-2.95-.138-3.87-.132-.89-.376-1.394-.787-1.767-.422-.382-1.008-.616-2.027-.74-.895-.11-2.036-.125-3.564-.127m3.999-4h-1.467c-1.529.002-2.67.017-3.565.127-1.019.124-1.605.358-2.026.74-.394.357-.636.836-.772 1.667.871-.035 1.88-.034 3.045-.034h.927c1.458.003 2.645.02 3.605.138 1.16.142 2.102.439 2.852 1.119.761.689 1.103 1.572 1.263 2.657.155 1.043.155 2.37.155 4.029v2.103c0 .639-.003 1.225-.019 1.762.758-.134 1.234-.352 1.593-.677.411-.372.655-.876.787-1.765.136-.92.138-2.137.138-3.87V8.89c0-1.542-.012-2.652-.138-3.507-.132-.89-.376-1.393-.787-1.766-.422-.382-1.008-.616-2.026-.74-.896-.11-2.037-.125-3.565-.127m-4.734 6.5c.671 0 1.121.503 1.364.995h.001l.695 1.403.006.005q.007.008.017.014l.018.013.008.004 1.255.21c.54.09 1.128.38 1.327 1.004.198.623-.112 1.199-.5 1.588l-.976.984-.012.032a.1.1 0 0 0-.007.037l.28 1.219c.125.55.137 1.317-.457 1.754-.598.44-1.326.192-1.81-.096l-1.178-.703-.008-.002h-.02l-.024.002h-.01l-1.176.703c-.487.29-1.213.534-1.81.095-.593-.437-.585-1.2-.458-1.755l.28-1.216a.28.28 0 0 0-.019-.069l-.978-.986c-.385-.388-.694-.964-.497-1.585.197-.625.785-.915 1.326-1.005l1.25-.21.008-.005q.007-.005.018-.011l.017-.014.006-.006.697-1.406c.245-.492.696-.993 1.367-.993m-.002 1.618-.023.043-.702 1.417a1.5 1.5 0 0 1-.462.542 1.55 1.55 0 0 1-.648.29h-.003l-1.275.213q-.029.006-.054.01.019.022.042.046l.992 1c.196.197.313.444.375.663.063.22.092.49.033.758l-.002.005-.284 1.238-.013.064.05-.03 1.201-.716c.251-.148.534-.2.777-.2.241 0 .526.052.778.203l1.196.712.05.03-.013-.063-.285-1.243a1.55 1.55 0 0 1 .032-.758c.062-.219.18-.466.375-.664l.992-1 .042-.045q-.024-.004-.053-.01l-1.276-.213a1.55 1.55 0 0 1-.653-.29 1.55 1.55 0 0 1-.464-.542l-.703-1.417z" clip-rule="evenodd"/></svg>