<svg xmlns="http://www.w3.org/2000/svg" width="24" height="24" fill="none"><path fill="#141B34" fill-rule="evenodd" d="M18.21 19.821H5.746c.034.665.124.895.303 1.096.28.322.953.335 2.45.335h6.95c1.497 0 2.17-.013 2.445-.328.186-.209.275-.432.314-1.103M4.24 19.758a2.03 2.03 0 0 1-1.03-.625 1.83 1.83 0 0 1-.454-1.454c.258-2.026 1.542-3.478 3.815-4.316l.254-.092c.723-.261 1.405-.508 1.713-1.019.484-.827.864-1.808-.294-3.784l-.016-.03-.006-.01c-1.213-2.396-.757-4.055-.161-5.025.914-1.487 2.638-2.153 3.94-2.153s3.002.681 3.916 2.201c.592.985 1.038 2.649-.204 4.99l-.016.028-.001.002c-1.15 1.946-.754 2.937-.251 3.785.298.507.98.753 1.7 1.013l.022.008.242.088c2.273.838 3.556 2.29 3.815 4.315a1.83 1.83 0 0 1-.454 1.455 2.04 2.04 0 0 1-1.056.631c-.04.907-.166 1.556-.695 2.149-.727.837-1.797.837-3.57.837H8.5c-1.772 0-2.842 0-3.576-.844-.524-.588-.65-1.26-.683-2.15m5.587-6.742c.695-1.187 1.204-2.743-.278-5.286-.703-1.398-.776-2.623-.211-3.542.607-.988 1.822-1.438 2.662-1.438s2.022.461 2.631 1.474c.561.933.48 2.143-.236 3.499-1.485 2.523-.955 4.094-.242 5.295.571.971 1.587 1.337 2.484 1.66l.253.092c2.305.85 2.728 2.175 2.845 3.096a.34.34 0 0 1-.091.274.56.56 0 0 1-.415.18H4.75a.56.56 0 0 1-.415-.18.34.34 0 0 1-.091-.273c.118-.922.541-2.247 2.846-3.097l.15-.055.094-.034h.001c.894-.323 1.907-.69 2.493-1.665" clip-rule="evenodd"/></svg>