<svg xmlns="http://www.w3.org/2000/svg" width="24" height="24" fill="none"><path fill="#141B34" fill-rule="evenodd" d="M16.168 14.767c-.4-.286-.831-.413-1.389-.47.065-1.091.363-3.057 1.727-5.68.746-1.427.94-3.134.547-4.797-.147-.655-.554-1.006-.965-1.282l-.1-.07a8 8 0 0 0-.714-.462 5.7 5.7 0 0 0-2.306-.714 11 11 0 0 0-1.932 0 5.7 5.7 0 0 0-2.306.714 8 8 0 0 0-.713.462l-.093.065c-.418.281-.826.632-.97 1.279-.395 1.671-.2 3.378.544 4.804 1.366 2.624 1.663 4.59 1.728 5.68-.558.058-.99.187-1.393.475-.679.492-.949 1.225-1.38 2.518q-.1.012-.198.032a3.41 3.41 0 0 0-2.152 1.414c-.173.256-.28.521-.46.96l-.145.364-.002.005c-.144.371-.24.62-.242.901-.014.766.477 1.446 1.23 1.694.282.091.576.091 1.11.091h12.82c.534 0 .828 0 1.115-.093a1.75 1.75 0 0 0 1.225-1.692c-.002-.282-.098-.53-.242-.9l-.002-.006-.145-.364c-.179-.439-.287-.704-.459-.958a3.42 3.42 0 0 0-2.352-1.448c-.432-1.294-.702-2.026-1.386-2.522m.248 3.983h-8.82c-.558 0-.838 0-1.047.041a1.9 1.9 0 0 0-1.202.783c-.087.128-.168.326-.314.686l-.136.341c-.06.155-.128.331-.142.395v-.001c0 .102.08.199.195.238.067.017.348.017.645.017h12.82c.297 0 .578 0 .652-.02.108-.036.188-.133.188-.235-.013-.06-.074-.22-.132-.369l-.01-.026-.136-.341c-.146-.36-.227-.558-.312-.683a1.9 1.9 0 0 0-1.208-.786c-.205-.04-.485-.04-1.041-.04M8.829 7.923c1.513 2.91 1.83 5.115 1.898 6.327h2.555c.067-1.212.384-3.417 1.897-6.326.743-1.421.636-2.833.415-3.768-.028-.123-.066-.189-.349-.379l-.11-.076c-.288-.2-.433-.3-.577-.378l-.012-.006a4.2 4.2 0 0 0-1.708-.53 9.7 9.7 0 0 0-1.668 0 4.2 4.2 0 0 0-1.708.53l-.012.006a7 7 0 0 0-.577.378l-.102.071c-.29.196-.329.261-.355.376-.222.943-.329 2.355.413 3.775M8.05 17.25h7.908c-.253-.723-.423-1.09-.664-1.265-.317-.226-.861-.235-2.17-.235h-2.24c-1.309 0-1.853.009-2.175.239-.238.173-.407.54-.659 1.261" clip-rule="evenodd"/></svg>