<svg xmlns="http://www.w3.org/2000/svg" width="24" height="24" fill="none"><path fill="#141B34" fill-rule="evenodd" d="M17.842 2.751c.098-.006.313.01.569.09.25.08.493.204.678.374.058.054.115.141.162.312.05.178.073.379.104.648l.003.027c.122 1.049.497 2.062 1.36 3.108.453.549.55 1.008.527 1.333-.025.34-.185.607-.358.76-.597.529-1.53 1.11-2.548.714-.61-.238-.94-.498-1.142-.782-.208-.29-.342-.685-.413-1.303a.75.75 0 0 0-1.474-.092c-.094.387-.362.856-.772 1.274-.407.415-.907.73-1.413.862-.554.146-1.475.218-2.345-.064-.832-.27-1.643-.866-2.08-2.138a.75.75 0 0 0-1.46.244c0 .872-.754 2.148-2.33 2.127a3.6 3.6 0 0 1-1.017-.267c-.387-.17-.665-.386-.801-.625-.301-.526-.352-.718-.337-.896.02-.215.153-.562.684-1.318.563-.801.887-1.448 1.068-1.996.185-.56.209-.985.209-1.313 0-.162.067-.45.26-.675.163-.191.477-.408 1.137-.376h.039l11.645-.027zm2.855.376c-.093-.334-.259-.71-.592-1.016-.74-.68-1.757-.887-2.33-.859L6.165 1.28c-1.067-.047-1.839.326-2.33.898a2.6 2.6 0 0 0-.62 1.652c0 .226-.014.481-.133.843-.123.373-.37.888-.872 1.604-.534.76-.893 1.397-.95 2.049-.06.689.229 1.247.529 1.772.122.213.272.399.438.56v4.407c0 1.366 0 2.467.116 3.333.121.9.38 1.657.983 2.258.603.6 1.361.86 2.262.98.868.117 1.971.117 3.34.117h4.06a.75.75 0 0 0 0-1.5H8.984c-1.437 0-2.44-.002-3.196-.104-.735-.098-1.124-.279-1.401-.555s-.458-.664-.556-1.396c-.102-.755-.103-1.754-.103-3.188v-3.493a5 5 0 0 0 1.124.227c1.608.035 2.712-.769 3.322-1.75a4.55 4.55 0 0 0 2.144 1.445c1.201.39 2.422.289 3.188.088.817-.215 1.545-.695 2.102-1.262q.122-.125.236-.257.063.102.133.2c.422.59 1.029 1 1.817 1.306 1.879.733 3.436-.411 4.088-.988.452-.4.805-1.025.859-1.775.055-.765-.205-1.594-.866-2.396-.673-.816-.938-1.556-1.027-2.325l-.007-.06a5.5 5.5 0 0 0-.144-.843M6.23 17.007a.75.75 0 0 1 .75-.75h4.005a.75.75 0 1 1 0 1.5H6.98a.75.75 0 0 1-.75-.75m9.508-.065c0-1.465 1.218-2.68 2.754-2.68s2.754 1.215 2.754 2.68c0 .792-.38 1.416-.994 2.102-.2.222-.398.425-.61.64-.128.132-.262.268-.403.417a10 10 0 0 0-.753.876c-.24-.306-.501-.591-.755-.858l-.314-.325c-.242-.25-.471-.486-.69-.737-.613-.7-.989-1.34-.989-2.115m2.754-4.18c-2.334 0-4.254 1.856-4.254 4.18 0 1.323.668 2.312 1.36 3.102.246.282.517.561.77.822l.277.289c.337.353.626.677.85 1.009.187.277.521.587 1.003.587.49 0 .823-.319 1.004-.607.213-.338.493-.662.824-1.01q.164-.17.35-.361c.23-.235.476-.485.693-.728.697-.778 1.377-1.753 1.377-3.103 0-2.324-1.92-4.18-4.254-4.18m-1 4.246a1 1 0 0 1 1-1h.01a1 1 0 0 1 0 2h-.01a1 1 0 0 1-1-1" clip-rule="evenodd"/></svg>