<svg xmlns="http://www.w3.org/2000/svg" width="25" height="24" fill="none"><path fill="#141B34" fill-rule="evenodd" d="M17.25 2.75a4.25 4.25 0 1 0 0 8.5 4.25 4.25 0 0 0 0-8.5M11.5 7A5.75 5.75 0 1 1 23 7a5.75 5.75 0 0 1-11.5 0m8.457-1.75a.75.75 0 0 1-.457.957c-.223.08-.504.26-.82.537-.308.27-.612.598-.883.924a14 14 0 0 0-.9 1.212l-.011.018-.003.004a.75.75 0 0 1-1.304-.067c-.205-.41-.377-.549-.433-.586l-.012-.008a.75.75 0 0 1 .116-1.491v.75c0-.75 0-.75.002-.75h.023a1 1 0 0 1 .097.008 1 1 0 0 1 .17.036c.129.037.278.101.437.207q.131.087.264.21c.12-.158.256-.329.402-.504.301-.361.66-.752 1.046-1.091.379-.332.826-.652 1.309-.823a.75.75 0 0 1 .957.457M4.747 7.742c0-.534.446-.992 1.027-.992h3.538a.75.75 0 0 0 0-1.5H5.774c-1.382 0-2.527 1.102-2.527 2.492 0 .472-.125.938-.366 1.35l-.867 1.488-.022.038c-.232.398-.43.738-.478 1.3-.019.224-.021.418.009.607.028.18.083.326.121.426l.006.016c.168.444.425.843.75 1.176v2.578c0 1.21 0 2.196.106 2.973.11.81.348 1.506.908 2.059.558.551 1.258.784 2.075.893.784.104 1.78.104 3.007.104h5.508c1.227 0 2.223 0 3.007-.104.817-.109 1.517-.342 2.075-.893.56-.553.798-1.248.908-2.06.106-.776.106-1.761.106-2.972v-2a.75.75 0 0 0-1.5 0v1.946c0 1.278-.002 2.16-.092 2.825-.087.64-.245.965-.476 1.193-.232.23-.564.387-1.218.474-.674.09-1.57.091-2.864.091h-5.4c-1.294 0-2.19-.002-2.864-.091-.654-.087-.986-.244-1.218-.474-.231-.228-.389-.552-.476-1.193-.09-.664-.092-1.547-.092-2.825v-1.618q.479.144 1.004.145c1.206 0 2.278-.609 2.9-1.54a4.57 4.57 0 0 0 3.446 1.54c.859 0 1.665-.231 2.351-.635a.75.75 0 0 0-.76-1.292 3.1 3.1 0 0 1-1.591.427c-1.421 0-2.58-.92-2.902-2.112a.75.75 0 0 0-1.474.196c0 1.044-.868 1.916-1.97 1.916-.489 0-.933-.172-1.276-.456a1.92 1.92 0 0 1-.624-.948 1 1 0 0 1 .005-.246c.017-.205.053-.283.3-.708l.868-1.489a4.2 4.2 0 0 0 .57-2.105" clip-rule="evenodd"/></svg>