<svg xmlns="http://www.w3.org/2000/svg" width="25" height="24" fill="none"><path fill="#141B34" fill-rule="evenodd" d="M21.781 3a.75.75 0 0 0-1.5 0v18a.75.75 0 1 0 1.5 0zm-4.75 1.25H8.976c-1.367 0-2.47 0-3.337.117-.9.12-1.657.38-2.26.981-.601.602-.86 1.36-.981 2.26-.117.867-.117 1.97-.117 3.337v2.11c0 1.367 0 2.47.117 3.337.12.9.38 1.658.982 2.26s1.36.86 2.26.982c.866.116 1.969.116 3.336.116h8.055a.75.75 0 0 0 0-1.5h-8c-1.435 0-2.436-.002-3.192-.103-.733-.099-1.122-.28-1.399-.556-.277-.277-.457-.665-.556-1.4-.101-.754-.103-1.756-.103-3.191v-2c0-1.435.002-2.437.103-3.192.1-.734.28-1.122.556-1.399.277-.277.666-.457 1.4-.556.755-.101 1.756-.103 3.191-.103h8a.75.75 0 0 0 0-1.5" clip-rule="evenodd"/></svg>