<svg xmlns="http://www.w3.org/2000/svg" width="25" height="24" fill="none"><path fill="#141B34" fill-rule="evenodd" d="M6.23 1.25h1.103c.899 0 1.648 0 2.243.08.627.084 1.194.27 1.65.725.455.456.64 1.023.725 1.65.08.595.08 1.345.08 2.243V9c0 .964.002 1.612.067 2.095.062.461.17.659.3.789s.327.237.789.3c.483.064 1.13.066 2.094.066h3.052c.899 0 1.648 0 2.243.08.627.084 1.194.27 1.65.726s.64 1.022.725 1.65c.08.594.08 1.343.08 2.242v1.104c0 .899 0 1.648-.08 2.242-.084.628-.27 1.195-.725 1.65-.456.456-1.023.642-1.65.726-.595.08-1.344.08-2.243.08H8.226c-1.367 0-2.47 0-3.337-.116-.9-.122-1.657-.38-2.26-.982-.601-.602-.86-1.36-.981-2.26-.117-.867-.117-1.97-.117-3.337V5.948c0-.898 0-1.648.08-2.242.085-.628.27-1.195.726-1.65.455-.456 1.022-.642 1.65-.726.595-.08 1.344-.08 2.242-.08m15.301 15.5h-7.25a.75.75 0 0 0 0 1.5h7.25c0 .828-.007 1.405-.066 1.845-.062.461-.17.659-.3.789s-.328.237-.79.3c-.482.064-1.13.066-2.094.066h-10c-1.435 0-2.436-.002-3.192-.103-.733-.099-1.122-.28-1.399-.556-.276-.277-.457-.665-.556-1.4-.101-.755-.103-1.756-.103-3.191V6c0-.964.002-1.612.067-2.095.062-.461.169-.659.3-.789s.327-.237.789-.3c.44-.059 1.016-.065 1.844-.066V10a.75.75 0 0 0 1.5 0V2.75c.828 0 1.405.007 1.845.067.461.062.659.169.79.3.13.13.237.327.299.788.065.483.066 1.131.066 2.095v3.052c0 .899 0 1.648.08 2.242.085.628.27 1.195.726 1.65.455.456 1.022.642 1.65.726.595.08 1.344.08 2.242.08h3.052c.964 0 1.612.002 2.095.066.461.063.659.17.79.3.13.13.237.328.299.79.059.44.066 1.016.066 1.844m-15.5-.25a1.75 1.75 0 1 1 3.5 0 1.75 1.75 0 0 1-3.5 0m1.75-3.25a3.25 3.25 0 1 0 0 6.5 3.25 3.25 0 0 0 0-6.5" clip-rule="evenodd"/></svg>