<svg xmlns="http://www.w3.org/2000/svg" width="25" height="24" fill="none"><path fill="#141B34" fill-rule="evenodd" d="M3.031 2.25a.75.75 0 0 0 0 1.5h18a.75.75 0 1 0 0-1.5zM5.781 7a.75.75 0 0 0-1.5 0v8.055c0 1.367 0 2.47.117 3.337.12.9.38 1.658.982 2.26s1.36.86 2.26.982c.866.116 1.969.116 3.336.116h2.11c1.368 0 2.47 0 3.337-.116.9-.122 1.658-.38 2.26-.982s.86-1.36.982-2.26c.116-.867.116-1.97.116-3.337V7a.75.75 0 1 0-1.5 0v8c0 1.435-.001 2.436-.103 3.192-.099.734-.279 1.122-.556 1.399-.276.277-.665.457-1.399.556-.755.101-1.756.103-3.192.103h-2c-1.435 0-2.436-.002-3.192-.103-.733-.099-1.122-.28-1.399-.556-.277-.277-.457-.665-.556-1.4-.101-.755-.103-1.756-.103-3.191z" clip-rule="evenodd"/></svg>