<svg xmlns="http://www.w3.org/2000/svg" width="25" height="24" fill="none"><path fill="#141B34" fill-rule="evenodd" d="M13.086 2.25h-2.11c-1.367 0-2.47 0-3.337.117-.9.12-1.657.38-2.26.981-.601.602-.86 1.36-.981 2.26-.117.867-.117 1.97-.117 3.337V17a.75.75 0 0 0 1.5 0V9c0-1.435.002-2.437.103-3.192.1-.734.28-1.122.556-1.399.277-.277.666-.457 1.4-.556.755-.101 1.756-.103 3.191-.103h2c1.436 0 2.437.002 3.192.103.734.099 1.123.28 1.4.556.276.277.456.665.555 1.4.102.754.103 1.756.103 3.191v8a.75.75 0 1 0 1.5 0V8.945c0-1.367 0-2.47-.116-3.337-.121-.9-.38-1.658-.982-2.26s-1.36-.86-2.26-.981c-.867-.117-1.97-.117-3.337-.117M3.031 21.75h18a.75.75 0 0 0 0-1.5h-18a.75.75 0 0 0 0 1.5" clip-rule="evenodd"/></svg>