<svg xmlns="http://www.w3.org/2000/svg" width="25" height="24" fill="none"><path fill="#141B34" fill-rule="evenodd" d="M7.281 2.75c.964 0 1.612.002 2.095.067.461.062.659.169.79.3.13.13.237.327.299.788.065.483.066 1.131.066 2.095a.75.75 0 1 0 1.5 0v-.052c0-.898 0-1.648-.08-2.242-.084-.628-.27-1.195-.725-1.65-.456-.456-1.023-.642-1.65-.726-.595-.08-1.344-.08-2.243-.08H6.23c-.898 0-1.647 0-2.242.08-.628.084-1.195.27-1.65.725-.456.456-.641 1.023-.726 1.65-.08.595-.08 1.345-.08 2.243v10.107c0 1.367 0 2.47.117 3.337.12.9.38 1.658.982 2.26s1.36.86 2.26.982c.866.116 1.969.116 3.336.116h10.107c.899 0 1.648 0 2.243-.08.627-.084 1.194-.27 1.65-.726s.64-1.022.725-1.65c.08-.594.08-1.343.08-2.242v-1.104c0-.899 0-1.648-.08-2.242-.084-.628-.27-1.195-.725-1.65-.456-.456-1.023-.642-1.65-.726-.595-.08-1.344-.08-2.243-.08h-.052a.75.75 0 1 0 0 1.5c.964 0 1.612.002 2.095.066.461.063.659.17.79.3.13.13.237.328.299.79.065.482.066 1.13.066 2.094v1c0 .964-.001 1.612-.066 2.095-.062.461-.17.659-.3.789s-.328.237-.79.3c-.482.064-1.13.066-2.094.066h-10c-1.435 0-2.436-.002-3.192-.103-.733-.099-1.122-.28-1.399-.556-.276-.277-.457-.665-.556-1.4-.101-.755-.103-1.756-.103-3.191V6c0-.964.002-1.612.067-2.095.062-.461.169-.659.3-.789s.327-.237.789-.3c.483-.064 1.13-.066 2.094-.066zm2.75 9.25a2.25 2.25 0 1 1 4.5 0 2.25 2.25 0 0 1-4.5 0m2.25-3.75a3.75 3.75 0 1 0 0 7.5 3.75 3.75 0 0 0 0-7.5" clip-rule="evenodd"/></svg>