<svg xmlns="http://www.w3.org/2000/svg" width="25" height="24" fill="none"><path fill="#141B34" fill-rule="evenodd" d="M3.781 3a.75.75 0 0 0-1.5 0v18a.75.75 0 0 0 1.5 0zm11.25 2.75c1.436 0 2.437.002 3.192.103.734.099 1.123.28 1.4.556.276.277.456.665.555 1.4.102.754.103 1.756.103 3.191v2c0 1.435-.001 2.437-.103 3.192-.099.734-.279 1.122-.556 1.399-.276.277-.665.457-1.399.556-.755.101-1.756.103-3.192.103h-8a.75.75 0 0 0 0 1.5h8.055c1.368 0 2.47 0 3.337-.116.9-.122 1.658-.38 2.26-.982s.86-1.36.982-2.26c.116-.867.116-1.97.116-3.337v-2.11c0-1.367 0-2.47-.116-3.337-.121-.9-.38-1.658-.982-2.26s-1.36-.86-2.26-.981c-.867-.117-1.97-.117-3.337-.117H7.031a.75.75 0 0 0 0 1.5z" clip-rule="evenodd"/></svg>