<svg xmlns="http://www.w3.org/2000/svg" width="24" height="24" fill="none"><path fill="#141B34" fill-rule="evenodd" d="M18.547 1.25h-.09c-.787 0-1.441 0-1.961.06-.54.062-1.049.2-1.47.56-.437.375-.62.853-.7 1.368-.074.467-.074 1.047-.074 1.707v.11c0 .66 0 1.24.073 1.707.08.515.264.993.701 1.368.421.36.93.498 1.47.56.52.06 1.174.06 1.961.06h.09c.787 0 1.441 0 1.961-.06.54-.062 1.049-.2 1.47-.56.437-.375.62-.853.7-1.368.074-.467.074-1.047.074-1.707v-.11c0-.66 0-1.24-.073-1.707-.08-.515-.264-.993-.701-1.368-.421-.36-.93-.498-1.47-.56-.52-.06-1.174-.06-1.961-.06m-2.544 1.759c.091-.079.252-.161.665-.209.423-.049.99-.05 1.834-.05.843 0 1.41.001 1.834.05.413.048.573.13.665.209.075.064.149.16.196.461.053.337.055.798.055 1.53s-.002 1.193-.055 1.53c-.047.302-.12.397-.196.461-.092.079-.252.162-.665.209-.423.049-.99.05-1.834.05-.843 0-1.41-.001-1.834-.05-.413-.048-.573-.13-.665-.209-.076-.064-.149-.16-.196-.461-.053-.337-.055-.798-.055-1.53s.002-1.193.055-1.53c.047-.302.12-.397.196-.461m4.505 12.3c-.52-.059-1.174-.059-1.961-.059h-.09c-.787 0-1.441 0-1.961.06-.54.062-1.049.2-1.47.56-.437.375-.62.853-.7 1.368-.074.467-.074 1.047-.074 1.707v.11c0 .66 0 1.24.073 1.707.08.515.264.993.701 1.368.421.36.93.498 1.47.56.52.06 1.174.06 1.961.06h.09c.787 0 1.441 0 1.961-.06.54-.062 1.049-.2 1.47-.56.437-.375.62-.853.7-1.368.074-.467.074-1.047.074-1.707v-.11c0-.66 0-1.24-.073-1.707-.08-.515-.264-.993-.701-1.368-.421-.36-.93-.498-1.47-.56m-4.505 1.7c.091-.079.252-.162.665-.209.423-.049.99-.05 1.834-.05.843 0 1.41.001 1.834.05.413.047.573.13.665.209.075.064.149.16.196.461.053.337.055.798.055 1.53s-.002 1.193-.055 1.53c-.047.302-.12.397-.196.461-.092.079-.252.162-.665.209-.423.049-.99.05-1.834.05-.843 0-1.41-.001-1.834-.05-.413-.047-.573-.13-.665-.209-.076-.064-.149-.16-.196-.461-.053-.337-.055-.798-.055-1.53s.002-1.193.055-1.53c.047-.302.12-.397.196-.461m-6.93-7.057a.75.75 0 0 1-.002 1.062l-.976.974.976.974a.75.75 0 0 1 .002 1.062.75.75 0 0 1-1.06.002l-.98-.978-.98.978a.75.75 0 0 1-1.06-.002.75.75 0 0 1 .002-1.062l.976-.974-.976-.974a.75.75 0 0 1-.002-1.062.75.75 0 0 1 1.06-.002l.98.978.98-.978a.75.75 0 0 1 1.06.002m.569-6.706H9.61c-.698.03-1.55.278-2.23.88-.565.499-.973 1.208-1.09 2.132-2.844.354-5.04 2.79-5.04 5.735 0 2.951 2.236 5.389 5.08 5.744.118.91.518 1.613 1.072 2.11a3.56 3.56 0 0 0 2.24.883h2.37a.75.75 0 1 0 0-1.5H9.657a2.06 2.06 0 0 1-1.253-.5 1.8 1.8 0 0 1-.556-1.004c2.803-.394 4.914-2.825 4.914-5.733A5.77 5.77 0 0 0 7.806 6.27c.098-.48.32-.8.567-1.02.37-.326.864-.482 1.286-.503h2.364a.75.75 0 0 0 0-1.5zM2.75 11.993c0-2.367 1.909-4.28 4.256-4.28s4.256 1.913 4.256 4.28c0 2.377-1.877 4.288-4.215 4.288-2.353 0-4.297-1.927-4.297-4.288" clip-rule="evenodd"/></svg>