<svg xmlns="http://www.w3.org/2000/svg" width="24" height="24" fill="none"><path fill="#141B34" fill-rule="evenodd" d="m14.703 1.968.039.023c.076.045.156.095.224.139l.037.023c.082.051.15.094.216.13.115.064.18.085.213.091.017-.003.075-.016.194-.057.187-.066.439-.17.814-.327a5.7 5.7 0 0 1 2.868-.401l.057.006c.33.04.699.083 1.008.202.401.155.7.427.899.842.221.462.197.904.056 1.323-.117.35-.334.732-.557 1.125l-.029.05-.166.292a2.81 2.81 0 0 1 .808 3.673 2.735 2.735 0 0 1-3.54 1.143l-.156.275-.029.05c-.222.393-.44.776-.678 1.055-.289.336-.659.584-1.174.62a1.58 1.58 0 0 1-1.176-.372c-.254-.212-.475-.513-.673-.784l-.034-.046a5.9 5.9 0 0 1-1.086-2.714l-.036-.266L7.5 11.85c.161.35.251.739.251 1.149 0 .778-.323 1.48-.842 1.98l4.478 6.27H14a.75.75 0 0 1 0 1.5H7a.75.75 0 0 1 0-1.5h2.543l-3.971-5.56a2.75 2.75 0 1 1 .948-4.983l5.455-3.896-.034-.02c-.376-.221-.72-.423-.978-.626-.285-.224-.551-.512-.663-.935-.11-.423-.022-.805.113-1.14.124-.307.322-.656.539-1.038l.022-.039.022-.039c.217-.382.415-.732.614-.994.218-.287.503-.562.928-.677.426-.117.81-.023 1.143.116.302.126.647.328 1.022.549M18.59 8.93c.55.195 1.18-.025 1.49-.57a1.31 1.31 0 0 0-.252-1.612zm-5.658-6.18h.01a.7.7 0 0 1 .16.052c.197.082.452.23.88.481.053.031.106.065.174.108l.045.029c.084.053.185.116.293.175.207.115.503.253.85.277.282.02.558-.064.778-.14.233-.082.525-.204.873-.349l.022-.009a4.2 4.2 0 0 1 2.113-.297c.195.023.341.041.466.062.123.021.194.04.238.057a.2.2 0 0 1 .042.022q0 0 .012.014.01.014.031.055l.003.006c.015.03.029.058-.016.19-.065.196-.206.45-.468.913L16.383 9.78c-.262.463-.408.713-.541.868-.085.1-.112.1-.134.1H15.7a.4.4 0 0 1-.058.001l-.014-.002-.006-.003-.032-.024a1.3 1.3 0 0 1-.17-.184c-.08-.099-.17-.22-.287-.38a4.4 4.4 0 0 1-.81-2.026l-.002-.022c-.051-.38-.094-.698-.14-.943-.045-.232-.11-.51-.264-.744a2.1 2.1 0 0 0-.657-.606 6 6 0 0 0-.296-.17l-.046-.025-.18-.1c-.427-.25-.681-.402-.85-.535a.7.7 0 0 1-.127-.119q-.013-.02-.011-.018-.001.002 0-.025a.8.8 0 0 1 .053-.172c.082-.202.228-.464.475-.898s.395-.694.526-.866a.7.7 0 0 1 .127-.137M5 11.75a1.25 1.25 0 1 0 0 2.5 1.25 1.25 0 0 0 0-2.5" clip-rule="evenodd"/></svg>