<svg xmlns="http://www.w3.org/2000/svg" width="24" height="24" fill="none"><path fill="#141B34" fill-rule="evenodd" d="M13.004 22.75h-2c-3.975 0-5.971 0-7.361-1.392-1.39-1.39-1.39-3.385-1.39-7.358v-4c0-3.973 0-5.967 1.39-7.358s3.385-1.392 7.36-1.392h2.001c3.975 0 5.97 0 7.36 1.392 1.39 1.39 1.39 3.385 1.39 7.358v4c0 3.973 0 5.967-1.39 7.358s-3.384 1.392-7.36 1.392m-2-20c-2.744 0-4.435 0-5.501.435l.957 1.538c.544.862.776 1.22 1.048 1.37.27.151.695.157 1.716.157h5.56c1.021 0 1.446-.006 1.715-.156.272-.15.504-.508 1.05-1.372l.957-1.536c-1.066-.436-2.758-.436-5.502-.436zM5.19 5.522 4.35 4.17c-.595 1.037-.595 2.785-.595 5.83v4c0 3.56 0 5.347.95 6.298.95.952 2.739.952 6.3.952h2c3.561 0 5.349 0 6.299-.952s.95-2.738.95-6.298v-4c0-3.044 0-4.792-.593-5.829l-.839 1.346c-.63 1-.975 1.545-1.592 1.888-.619.345-1.267.345-2.444.345h-5.56c-1.178 0-1.826 0-2.446-.346-.615-.341-.96-.888-1.586-1.879zM7.474 19.53a.748.748 0 0 0 1.06 0l3.23-3.23c.607.564 1.23 1.09 1.672 1.45a.75.75 0 0 0 1.238.78l.322-.32.039-.037 2.499-2.499a.75.75 0 0 0-.78-1.239 30 30 0 0 0-1.971-2.216 32 32 0 0 0-2.212-1.969.75.75 0 0 0-1.238-.78l-.322.321-.04.036-2.498 2.5a.75.75 0 0 0 .779 1.238c.36.442.885 1.067 1.45 1.675l-3.228 3.23a.75.75 0 0 0 0 1.06m6.972-2.892c-.547-.446-1.432-1.19-2.162-1.918h-.001l-.001-.002c-.73-.727-1.473-1.614-1.916-2.16l1.194-1.196c.548.446 1.433 1.191 2.163 1.92.73.727 1.473 1.613 1.917 2.161z" clip-rule="evenodd"/></svg>