<svg xmlns="http://www.w3.org/2000/svg" width="24" height="24" fill="none"><path fill="#141B34" fill-rule="evenodd" d="M10.721 2.573q-.106-.09-.238-.199a9 9 0 0 0-.813-.607c-.388-.249-.978-.557-1.61-.513L8 1.252c-.632 0-1.009.414-1.215.76-.184.309-.32.704-.432 1.034l-.018.052c-.267.778-.508 1.406-.987 1.767-.119.089-.292.155-.567.199-.203.032-.4.044-.634.06q-.157.009-.342.023c-.698.055-1.733.186-2.325 1.197-.228.39-.252.802-.217 1.19.033.36.128.793.235 1.282l1.999 9.13.095.456c.155.75.338 1.642.688 2.384.456.97 1.242 1.794 2.63 1.96q.045.006.09.006h10q.045 0 .09-.005c1.388-.167 2.174-.991 2.63-1.961.35-.742.533-1.634.688-2.384q.048-.24.095-.455l2-9.131c.106-.49.201-.923.234-1.283.035-.387.011-.799-.217-1.19-.592-1.01-1.627-1.141-2.325-1.196q-.185-.014-.342-.024a7 7 0 0 1-.634-.06c-.275-.043-.448-.109-.567-.198-.479-.361-.72-.99-.987-1.767l-.018-.052c-.112-.33-.248-.725-.432-1.034-.206-.346-.583-.76-1.215-.76q-.03 0-.06.002c-.632-.044-1.222.264-1.61.513-.299.191-.579.414-.813.607q-.133.11-.238.199c-.133.111-.24.2-.337.275l-.038.029c-.344.26-.656.497-.904.719-.248-.222-.56-.459-.904-.72l-.038-.028a9 9 0 0 1-.337-.275m6.981 3.453a8 8 0 0 1-.152.972c-.068.296-.16.587-.287.84-.119.238-.31.525-.62.699-.874.49-1.783.039-2.313-.3a9 9 0 0 1-.813-.608q-.133-.11-.238-.199a9 9 0 0 0-.337-.275l-.038-.029c-.344-.26-.656-.497-.904-.719-.248.222-.56.459-.904.72l-.038.028a9 9 0 0 0-.337.275q-.106.09-.238.199a9 9 0 0 1-.813.607c-.53.34-1.439.792-2.313.3-.31-.173-.501-.46-.62-.699a3.8 3.8 0 0 1-.287-.839c-.069-.3-.12-.63-.152-.972l-.047.036c-.397.3-.846.422-1.236.483-.276.044-.582.063-.842.08l-.251.017c-.689.054-.974.164-1.147.46-.006.01-.039.064-.018.295.023.255.096.596.216 1.14l1.989 9.09q.06.277.115.543c.155.743.294 1.412.56 1.977.29.616.685 1.005 1.41 1.105h9.905c.726-.1 1.121-.49 1.411-1.105.266-.565.405-1.234.56-1.977l.115-.544 1.99-9.088c.119-.545.192-.886.215-1.14.021-.232-.011-.286-.017-.296-.174-.295-.46-.406-1.148-.46l-.25-.017c-.261-.017-.567-.036-.843-.08-.39-.061-.838-.183-1.236-.483zm-6.601-1.218c.107.107.14.163.149.182v.023a.7.7 0 0 1-.15.182c-.186.185-.478.408-.948.765-.128.097-.283.227-.435.354l-.189.158c-.222.184-.446.36-.668.502-.446.286-.655.291-.74.267a1 1 0 0 1-.042-.075 2.4 2.4 0 0 1-.166-.505c-.105-.453-.162-1.046-.162-1.66s.057-1.206.162-1.66c.052-.227.111-.394.166-.504a1 1 0 0 1 .043-.075c.084-.024.293-.019.74.267.22.142.445.318.667.502l.19.158c.15.127.306.257.434.354.47.357.762.58.949.765m1.798.387a.7.7 0 0 1-.149-.182V4.99a.7.7 0 0 1 .15-.182c.186-.185.478-.408.948-.765.128-.097.283-.227.435-.354l.189-.158c.222-.184.446-.36.668-.502.446-.286.655-.291.74-.267q.014.021.042.075c.055.11.114.277.166.505.105.453.162 1.046.162 1.66s-.057 1.206-.162 1.66a2.4 2.4 0 0 1-.166.504 1 1 0 0 1-.043.075c-.084.024-.293.019-.74-.267a7 7 0 0 1-.667-.502l-.19-.158c-.15-.127-.306-.257-.434-.354-.47-.357-.762-.58-.949-.765M11 11.002a1 1 0 0 1 1-1h.009a1 1 0 1 1 0 2H12a1 1 0 0 1-1-1m0 3.5a1 1 0 0 1 1-1h.009a1 1 0 1 1 0 2H12a1 1 0 0 1-1-1m0 3.5a1 1 0 0 1 1-1h.009a1 1 0 1 1 0 2H12a1 1 0 0 1-1-1" clip-rule="evenodd"/></svg>