<svg xmlns="http://www.w3.org/2000/svg" width="24" height="24" fill="none"><path fill="#141B34" fill-rule="evenodd" d="M15.421 5.929c-4.557-2.536-8.394-1.988-9.877.24-.568.852-1.032 1.93-.66 3.494.29 1.225 1.084 2.696 2.616 4.58h-.036c-.437 0-.837 0-1.162.043-.337.046-.692.15-.99.422a2 2 0 0 1-.24-.107 7 7 0 0 1-.713-.463l-.087-.062a10 10 0 0 0-.731-.491c-.264-.154-.635-.337-1.045-.337-.235 0-.563.02-.87.192-.339.192-.529.498-.638.819-.104.302-.155.671-.186 1.093-.032.43-.045.97-.052 1.637-.006.625.102 1.296.454 1.834.384.584 1.004.925 1.796.925a.75.75 0 0 0 0-1.5c-.314 0-.45-.108-.542-.248-.123-.188-.212-.518-.208-.997.006-.662.02-1.16.048-1.54.028-.382.068-.595.107-.712l.093-.002c.013.003.098.021.287.131.182.107.378.247.616.417l.087.062c.26.186.567.4.882.568q.181.098.395.179c-.015.254-.015.538-.015.84v.09c0 .432 0 .828.043 1.15.048.356.16.731.469 1.04v.001c.31.308.685.42 1.04.469.325.044.725.044 1.162.044h2.012c.674.04 1.682-.055 2.557-.513a3.2 3.2 0 0 0 1.164-1.005l.076.133a2.75 2.75 0 0 0 2.388 1.385H19a.75.75 0 0 0 .71-.987l-.003-.013h.05a3.492 3.492 0 0 0 .437-6.954c-.26-1.745-1.494-4.032-4.774-5.857m-4.582 8.17 1.4 2.446c-.055.706-.423 1.102-.902 1.353-.57.298-1.296.376-1.787.343l-.05-.001H7.5c-.491 0-.786-.002-.996-.03a.7.7 0 0 1-.167-.038l-.011-.005-.002-.001-.001-.002-.002-.005-.003-.005a.7.7 0 0 1-.037-.167c-.028-.21-.03-.504-.03-.996s.002-.786.03-.996a.7.7 0 0 1 .042-.177v-.002l.003-.001.01-.005a.7.7 0 0 1 .168-.037c.21-.029.505-.03.996-.03h1.632a.75.75 0 0 0 .558-1.252c-2.197-2.445-3.082-4.062-3.346-5.175-.246-1.033.03-1.686.45-2.316.81-1.218 3.568-2.17 7.899.24 3.036 1.69 3.901 3.678 4.038 4.91l-.05.038-.189.147a6.4 6.4 0 0 1-.79.525c-.598.33-1.29.545-2.058.397a.75.75 0 0 0-.84 1.015l1 2.498c.09.224.282.39.515.449.152.038.565.262 1.023.685q.176.162.33.336h-2.01a1.25 1.25 0 0 1-1.086-.63l-2.433-4.256c-.357-.623-.101-1.304.435-1.515.866-.34 1.777-.594 2.48-.594a.75.75 0 1 0 0-1.5c-.99 0-2.113.338-3.03.698-1.516.596-1.926 2.364-1.188 3.655m8.858-.802.049-.038h.012a1.991 1.991 0 1 1 0 3.981h-.968a6 6 0 0 0-.431-.438c-.398-.367-.86-.7-1.285-.896l-.452-1.13a4.9 4.9 0 0 0 1.803-.602c.389-.214.719-.45.975-.646.128-.098.223-.173.297-.231" clip-rule="evenodd"/></svg>