<svg xmlns="http://www.w3.org/2000/svg" width="24" height="24" fill="none"><path fill="#141B34" fill-rule="evenodd" d="M3.256 14.574a4 4 0 0 1-.186.067c-.267.088-.672.183-1.068.02-.467-.192-.648-.616-.712-.957-.061-.33-.046-.728.003-1.157.228-1.994.863-4.327 2.506-6.169C5.464 4.512 8.074 3.25 12.04 3.25q.392 0 .767.016l.107-.012.002.017c3.477.173 5.812 1.382 7.336 3.11 1.626 1.843 2.24 4.178 2.458 6.17.046.428.06.825-.002 1.156-.065.339-.246.762-.713.954-.396.163-.802.066-1.07-.022a3 3 0 0 1-.181-.067c-.01.777-.038 1.445-.11 2.017-.12.942-.373 1.731-.967 2.362-.362.384-.858.672-1.395.894-.544.226-1.175.401-1.852.536-1.353.269-2.95.384-4.522.367s-3.15-.167-4.467-.443a10.4 10.4 0 0 1-1.783-.524c-.506-.207-.98-.475-1.315-.83-.594-.63-.848-1.42-.967-2.363-.073-.57-.1-1.238-.11-2.014m13.112-9.103c-.957-.377-2.109-.629-3.498-.7-2.15.3-3.393 1.463-4.13 2.845-.656 1.23-.912 2.644-.976 3.774a23 23 0 0 1 4.276-.374q1.176 0 2.242.097c.063-.881.227-1.91.575-2.93.319-.938.799-1.89 1.51-2.712m1.384.712c.54.355.994.758 1.375 1.19 1.336 1.515 1.89 3.497 2.092 5.34q.03.278.03.446a7 7 0 0 1-.591-.286c-1.36-.72-2.977-1.266-4.885-1.574.051-.795.195-1.725.504-2.634.312-.918.784-1.788 1.475-2.482M7.417 6.91c-.882 1.652-1.14 3.51-1.168 4.832a15 15 0 0 0-2.904 1.134c-.247.129-.441.223-.594.285q.002-.168.033-.443c.21-1.842.782-3.825 2.134-5.341.862-.967 2.079-1.785 3.816-2.24A7.2 7.2 0 0 0 7.417 6.91M4.75 13.862c1.857-.822 4.258-1.346 7.289-1.346 3.022 0 5.38.521 7.209 1.338-.004 1.082-.02 1.898-.103 2.546-.1.792-.286 1.22-.57 1.522-.16.17-.443.358-.877.537a8.5 8.5 0 0 1-1.571.45c-1.226.244-2.715.356-4.213.34-1.498-.017-2.975-.16-4.175-.412a9 9 0 0 1-1.523-.444c-.418-.172-.668-.34-.792-.471-.285-.302-.47-.73-.571-1.522-.082-.647-.1-1.46-.103-2.538" clip-rule="evenodd"/></svg>