<svg xmlns="http://www.w3.org/2000/svg" width="24" height="24" fill="none"><path fill="#141B34" fill-rule="evenodd" d="M15.266 11.047c-.6.183-1.233.457-1.89.833-.593.34-1.127.824-1.603 1.393.14 1.149.713 2.372 1.545 3.525a13.7 13.7 0 0 0 3.114 3.089 1 1 0 0 1 .075.06 5.5 5.5 0 0 0 1.27-.518 9.5 9.5 0 0 0 1.446-1.007c-2.253-1.758-3.787-4.432-3.957-7.375m1.488-.284q.62-.04 1.165.049c1.235.2 2.208.874 2.803 1.898s.697 2.194.255 3.352c-.16.422-.396.848-.713 1.267-2.06-1.55-3.423-3.963-3.51-6.566m-2.297 9.478a15.3 15.3 0 0 1-2.356-2.565c-.605-.84-1.125-1.764-1.46-2.725-.315.566-.591 1.158-.83 1.74a22 22 0 0 0-.92 2.793q.165.046.365.099c.643.168 1.535.37 2.536.507a15.6 15.6 0 0 0 2.665.151M8 19.998l-.736-.145zm-.24.71a.75.75 0 0 1-.496-.855v-.003l.002-.005.003-.017.013-.062.05-.227a23.197 23.197 0 0 1 1.09-3.416c.802-1.956 2.133-4.354 4.208-5.544 1.96-1.123 3.87-1.517 5.528-1.248 1.67.27 3.035 1.205 3.861 2.625s.96 3.065.36 4.64c-.597 1.565-1.897 3.012-3.856 4.135-2.075 1.189-4.83 1.134-6.935.845a23.6 23.6 0 0 1-3.745-.84l-.06-.02-.017-.006zm0 0c-.001 0-.002 0 .24-.71zM2.81 8.207c.14-.576.48-1.002.975-1.24.503-.24 1.24-.32 2.199-.037.83.246 1.656 1.094 2.321 2.036.299.422.542.83.716 1.144-.286.172-.665.38-1.094.573-.99.445-2.066.719-2.885.476-1.897-.56-2.494-1.864-2.232-2.952m7.871 1.85-.681.314zm-.243.923L10 10.37zm0 0-.004.002-.008.007-.031.021-.11.075a12.237 12.237 0 0 1-1.744.966c-1.047.471-2.557.951-3.924.547C2.14 11.866.86 9.897 1.352 7.855c.239-.99.861-1.796 1.784-2.24.913-.438 2.045-.486 3.273-.123 1.355.4 2.432 1.633 3.122 2.609a14 14 0 0 1 1.127 1.907l.016.035.005.01.001.003.001.001a.75.75 0 0 1-.243.923m3.312-5.814c0-.523.166-.866.371-1.076.207-.21.507-.34.879-.34.371 0 .672.13.879.34.205.21.37.553.37 1.076 0 .17-.062.389-.214.655a4.2 4.2 0 0 1-.583.768 7 7 0 0 1-.452.44 7 7 0 0 1-.452-.44 4.2 4.2 0 0 1-.583-.768c-.152-.266-.215-.486-.215-.655m.809 3.44.44-.606.442.606h.001l.002-.002.007-.005.021-.016.074-.056q.094-.072.25-.202c.203-.171.476-.417.752-.712.274-.294.566-.653.792-1.051.223-.394.41-.874.41-1.396 0-.857-.282-1.597-.8-2.126-.517-.527-1.217-.79-1.95-.79s-1.433.263-1.95.79c-.519.53-.8 1.27-.8 2.126 0 .522.187 1.002.41 1.396.226.398.518.757.792 1.05a9 9 0 0 0 1.076.971l.021.016.007.005.002.002m.44-.606-.44.607a.75.75 0 0 0 .882 0z" clip-rule="evenodd"/></svg>