<svg xmlns="http://www.w3.org/2000/svg" width="25" height="24" fill="none"><path fill="#141B34" fill-rule="evenodd" d="M7.836 1.25h-.11c-1.25 0-2.264 0-3.063.109-.834.113-1.544.356-2.11.927-.563.57-.803 1.284-.915 2.123-.107.806-.107 1.829-.107 3.093v9.113c0 2.47 1.492 4.58 3.63 5.556.796.372 1.684.579 2.62.579h8.998c1.264 0 2.287 0 3.092-.105.835-.109 1.549-.342 2.119-.895.573-.556.819-1.257.932-2.077.11-.785.11-1.78.11-3.002v-.062c0-.603 0-1.145-.012-1.627a.75.75 0 0 0-1.5.036c.011.462.011.987.011 1.597 0 1.291-.001 2.182-.094 2.852-.09.645-.251.973-.491 1.206-.244.236-.592.396-1.27.485-.696.09-1.62.092-2.95.092h-4.55q.213-.183.412-.386l6.439-6.586c.91-.931 1.647-1.685 2.148-2.357.522-.7.856-1.396.856-2.22s-.334-1.521-.856-2.22c-.501-.673-1.238-1.426-2.148-2.358l-.05-.05c-.62-.635-1.154-1.182-1.63-1.623a.75.75 0 0 0-1.02 1.1c.446.414.956.935 1.59 1.583.957.98 1.621 1.662 2.056 2.244.421.564.558.95.558 1.324s-.137.759-.558 1.323c-.434.583-1.1 1.265-2.057 2.244l-3.942 4.033q.057-.42.057-.857V7.502c0-1.264 0-2.287-.107-3.093-.112-.839-.351-1.553-.915-2.123s-1.276-.814-2.11-.927C10.1 1.25 9.087 1.25 7.837 1.25m4.695 6c0-1.168-.009-2.003-.094-2.643-.09-.675-.253-1.022-.494-1.266-.24-.243-.58-.406-1.245-.496-.687-.093-1.599-.095-2.917-.095s-2.23.002-2.916.095c-.665.09-1.005.253-1.245.496-.242.244-.405.59-.495 1.266-.085.64-.093 1.475-.094 2.643zm-9.5 1.5h9.5v3.5h-9.5zm0 5v2.694a4.81 4.81 0 0 0 2.945 4.447c.563.228 1.181.355 1.832.359 2.604-.015 4.723-2.154 4.723-4.806V13.75zm3.75 3.75a1 1 0 0 1 1-1h.01a1 1 0 1 1 0 2h-.01a1 1 0 0 1-1-1" clip-rule="evenodd"/></svg>