<svg xmlns="http://www.w3.org/2000/svg" width="24" height="24" fill="none"><path fill="#141B34" fill-rule="evenodd" d="M1.25 5.653c0-1.33 1.18-2.352 2.496-2.161l4.396.634.118.018c.675.096 1.207.173 1.664.434q.285.162.524.388c.382.361.61.848.899 1.466l.05.109.515 1.091c1.035 2.197 3.24 6.876 3.772 8.057A.75.75 0 0 1 15 16.747c-1.25 0-2.089-.34-2.892-.82a20 20 0 0 1-.833-.532 16 16 0 0 0-1.7-1.014c-.777-.393-1.745-.571-2.642-.62-.902-.05-1.642.035-1.923.106a.75.75 0 0 1-.603-1.349c.557-.376 2.964-2.095 3.014-2.13l.002-.002.003-.003q.097-.067.16-.114l-.06-.148-.01-.024-.009-.022-.419-1.055-.048-.122c-.056-.142-.089-.224-.121-.292-.029-.06-.04-.072-.047-.078l-.001-.001a.3.3 0 0 0-.041-.034l-.027-.017-.01-.002a2 2 0 0 0-.153-.034l-.337-.06-3.25-.577a2.16 2.16 0 0 1-1.803-2.15m2.281-.677a.684.684 0 0 0-.781.677c0 .345.218.611.564.673l3.25.577.044.007c.25.044.438.078.579.116.204.056.332.126.462.21q.156.103.288.236c.262.264.386.583.5.88l.045.114.42 1.058.002.005c.061.141.13.313.176.486.04.157.092.422.008.702a1.24 1.24 0 0 1-.374.57 4 4 0 0 1-.4.305l-.022.016-.95.678c.932.079 1.987.29 2.91.756.781.396 1.436.826 1.966 1.176.246.162.465.306.658.42.288.172.563.314.864.417-.876-1.883-2.367-5.047-3.173-6.758v-.001h-.001l-.527-1.119c-.365-.779-.473-.98-.621-1.12a1.3 1.3 0 0 0-.238-.177c-.177-.101-.401-.146-1.253-.269zM19 7.746a2.25 2.25 0 1 0 0 4.5 2.25 2.25 0 0 0 0-4.5m-3.75 2.25a3.75 3.75 0 1 1 7.5 0 3.75 3.75 0 0 1-7.5 0m-12.531 8.3c.21-.703.572-1.085 1.014-1.3.471-.228 1.116-.304 1.929-.211 1.635.186 3.645 1.015 5.496 1.963 1.877.96 3.861 1.802 5.673 1.968.918.084 1.825-.001 2.66-.358.844-.36 1.567-.977 2.141-1.873a.75.75 0 0 0-1.264-.809c-.426.667-.923 1.07-1.466 1.302-.55.235-1.194.312-1.934.244-1.505-.138-3.271-.86-5.126-1.81-1.88-.962-4.092-1.899-6.01-2.118-.964-.11-1.929-.048-2.754.353-.856.415-1.478 1.155-1.796 2.219a.75.75 0 1 0 1.437.43" clip-rule="evenodd"/></svg>