<svg xmlns="http://www.w3.org/2000/svg" width="25" height="24" fill="none"><path fill="#141B34" fill-rule="evenodd" d="M10.243 1.25A2.494 2.494 0 0 0 7.75 3.744v8.374l-.762-.806c-.905-.979-2.399-1.095-3.418-.179a2.47 2.47 0 0 0-.497 3.059q.03.073.077.141c.298.43.635.864 1.03 1.373l.364.47.939 1.245.24.329c.26.356.506.674.726.958l.103.133c.248.322.452.59.616.84.32.49.448.843.434 1.242v.04l.02 1.05a.75.75 0 1 0 1.499-.027l-.02-1.032c.024-.822-.274-1.479-.679-2.096a13 13 0 0 0-.568-.784l-.002-.003-1.166-1.546c-.356-.484-.67-.895-.949-1.258l-1.29-1.71a.973.973 0 0 1 .126-1.309c.383-.344.942-.321 1.316.084l2.066 2.186a.75.75 0 0 0 1.295-.515V3.743a.994.994 0 0 1 1.988 0v5.752a.75.75 0 0 0 .815.747c.595-.052 1.572.042 2.601.296 1.03.254 2.011.644 2.652 1.118.71.526 1.11.845 1.309 1.365s.238 1.396-.294 3.12c-.146.475-.44 1.078-.74 1.655-.065.126-.138.264-.208.396l-.199.38a4.6 4.6 0 0 0-.308.698c-.06.181-.135.408-.181.785-.05.407-.068.988-.042 1.954a.75.75 0 1 0 1.5-.041c-.026-.947-.005-1.438.03-1.731.028-.224.061-.325.115-.49l.033-.099.013-.032.038-.087q.052-.108.135-.269c.06-.118.121-.233.187-.357s.137-.258.218-.415c.297-.571.651-1.284.843-1.905.562-1.824.64-3.1.262-4.095-.368-.966-1.121-1.522-1.76-1.994l-.059-.044c-.867-.641-2.063-1.092-3.185-1.368a12 12 0 0 0-2.275-.346V3.744a2.494 2.494 0 0 0-2.494-2.494m8.285 1.288a.75.75 0 1 0-1.045-1.076 9 9 0 0 1-.545.447l-.06.047c-.242.19-.526.413-.797.643-.29.246-.592.522-.827.797a2.7 2.7 0 0 0-.323.46 1.4 1.4 0 0 0-.175.643c0 .258.089.48.175.642.09.168.206.323.323.461.235.275.537.55.827.797.271.23.555.453.797.643l.06.047c.272.213.454.358.545.447a.75.75 0 1 0 1.045-1.076 9 9 0 0 0-.663-.551l-.057-.045c-.246-.193-.509-.399-.757-.61l-.007-.005h4.46a.75.75 0 0 0 0-1.5h-4.46l.007-.005c.248-.211.511-.417.757-.61l.057-.045c.245-.192.502-.394.663-.551" clip-rule="evenodd"/></svg>