<svg xmlns="http://www.w3.org/2000/svg" width="25" height="24" fill="none"><path fill="#141B34" fill-rule="evenodd" d="M20.754 2a.75.75 0 1 0-1.5 0v4.449l-.004-.005a26 26 0 0 1-.61-.755l-.044-.057a9 9 0 0 0-.55-.662.75.75 0 0 0-1.076 1.045c.089.091.234.273.447.544l.047.06c.19.241.412.524.642.795.245.29.52.591.796.825.138.118.293.234.46.323.162.086.384.175.642.175s.48-.089.641-.175c.168-.09.323-.205.46-.323.276-.234.551-.535.797-.825.23-.27.452-.554.642-.796l.047-.06c.213-.27.358-.452.447-.543a.75.75 0 0 0-1.076-1.045 9 9 0 0 0-.55.662l-.045.056c-.193.246-.399.508-.61.756l-.003.005zm-13.211.24c-1.22 0-2.256.98-2.256 2.23v5.187a37 37 0 0 0-1.679 1.658c-.277.293-.524.566-.717.794a4 4 0 0 0-.424.578c-.463.709-.761 1.372-.71 2.146.05.737.414 1.453.907 2.275.432.72.934 1.475 1.335 2.055.2.29.377.54.508.723.115.158.227.312.275.366.159.18.27.315.365.43l.014.017c.089.108.177.216.278.323.222.238.479.45.973.812l.008.006.008.005c1.113.771 3.167 1.153 7.4.732l.02-.002.02-.003c1.951-.3 3.2-1.318 3.941-2.482.723-1.134.954-2.389.945-3.229v-3.51c.107-1.52-.132-2.62-.997-3.295-.404-.315-.881-.483-1.356-.593a13 13 0 0 0-1.23-.205 3 3 0 0 0-1.588-.982c-.457-.112-.969-.125-1.41.033a2.84 2.84 0 0 0-1.389-.955 2.6 2.6 0 0 0-1.023-.103V4.47c0-1.226-.974-2.231-2.218-2.231M4.697 12.346q.276-.291.59-.606v2.713a.75.75 0 0 0 1.5 0V4.47c0-.39.333-.731.756-.731.399 0 .718.316.718.73v6.522a.75.75 0 0 0 1.5 0v-2.21c.108-.049.296-.082.582.006a1.35 1.35 0 0 1 .931 1.097q.005.042.005.103v1a.75.75 0 0 0 1.5 0v-1q.001-.133-.016-.287c.103-.016.263-.017.462.032.538.133.993.519 1.038 1.133v1.12a.75.75 0 0 0 1.5 0v-1.123q.156.029.299.061c.379.088.615.192.773.315.251.196.524.623.421 2.031l-.002.028v3.578c.008.593-.165 1.554-.71 2.408-.525.824-1.404 1.57-2.885 1.803-4.188.414-5.74-.038-6.37-.47-.471-.346-.633-.49-.755-.62a6 6 0 0 1-.228-.268c-.1-.12-.223-.27-.4-.47q.011.013-.025-.035-.042-.057-.156-.215a44 44 0 0 1-1.774-2.672c-.497-.83-.674-1.265-.697-1.604-.02-.293.071-.622.485-1.251l.025-.039.019-.037s.015-.026.059-.084q.07-.096.196-.246c.168-.2.394-.45.66-.73" clip-rule="evenodd"/></svg>