<svg xmlns="http://www.w3.org/2000/svg" width="25" height="24" fill="none"><path fill="#141B34" fill-rule="evenodd" d="M19.523 1.462a.75.75 0 1 0-1.046 1.076c.162.157.419.36.664.551l.057.045c.245.193.508.4.757.61l.007.006H15.5a.75.75 0 0 0 0 1.5h4.462l-.007.006c-.249.21-.512.417-.757.61l-.057.045a9 9 0 0 0-.664.551.75.75 0 1 0 1.046 1.076c.091-.089.273-.235.544-.448l.06-.047c.242-.19.526-.413.797-.643.291-.246.593-.521.828-.797.117-.138.233-.293.323-.46.086-.162.175-.385.175-.643s-.089-.48-.175-.642a2.7 2.7 0 0 0-.323-.461 7.4 7.4 0 0 0-.828-.797c-.27-.23-.555-.453-.797-.643l-.06-.047a9 9 0 0 1-.544-.448m-10.781-.21a2.494 2.494 0 0 0-2.495 2.494v5.883l-1.599 1.42-.017.016c-1.319 1.247-1.666 2.057-1.805 2.648v.002c-.269 1.152.173 2.274 1.384 4.027l.01.015q.28.382.527.717c.372.503.691.934.95 1.334.37.568.526.94.55 1.207v.983a.75.75 0 0 0 1.5 0v-1.064c-.047-.677-.394-1.331-.792-1.944-.285-.439-.647-.928-1.034-1.451q-.238-.321-.482-.656c-1.187-1.722-1.262-2.356-1.153-2.828.056-.239.214-.8 1.368-1.892l.593-.528v2.397a.75.75 0 0 0 1.5 0V3.746a.994.994 0 0 1 1.989 0v5.753a.75.75 0 0 0 .815.747c.595-.051 1.572.043 2.601.297 1.03.254 2.011.644 2.653 1.118.71.526 1.11.846 1.308 1.366s.239 1.397-.293 3.121c-.147.476-.44 1.079-.74 1.656l-.208.397-.2.379a4.6 4.6 0 0 0-.307.698c-.06.182-.136.409-.182.785-.05.407-.067.989-.041 1.955a.75.75 0 0 0 1.5-.04c-.026-.948-.006-1.44.03-1.733.028-.224.061-.325.115-.489l.032-.1.013-.032.039-.086q.051-.109.134-.27l.188-.357.218-.415c.297-.571.65-1.285.842-1.906.563-1.825.64-3.1.262-4.096-.367-.966-1.12-1.523-1.759-1.995l-.06-.043c-.866-.642-2.063-1.093-3.185-1.37a12 12 0 0 0-2.275-.345V3.746a2.494 2.494 0 0 0-2.494-2.494" clip-rule="evenodd"/></svg>