<svg xmlns="http://www.w3.org/2000/svg" width="25" height="24" fill="none"><path fill="#141B34" fill-rule="evenodd" d="M19 1.25c-.258 0-.48.089-.642.175a2.7 2.7 0 0 0-.461.324 7.4 7.4 0 0 0-.797.826c-.23.272-.453.556-.643.798l-.047.06a9 9 0 0 1-.448.544.75.75 0 1 0 1.076 1.046c.157-.162.36-.419.551-.664l.045-.057c.193-.245.4-.508.61-.757l.006-.007V8a.75.75 0 0 0 1.5 0V3.538l.006.007c.21.249.417.512.61.757l.045.057c.192.245.394.502.551.664a.75.75 0 1 0 1.076-1.046 9 9 0 0 1-.448-.544l-.047-.06c-.19-.242-.413-.526-.642-.798a7.4 7.4 0 0 0-.798-.826 2.7 2.7 0 0 0-.46-.324A1.4 1.4 0 0 0 19 1.25m-10.5 0a2.24 2.24 0 0 0-2.239 2.238v5.175a35 35 0 0 0-1.726 1.727c-.287.31-.543.598-.743.838a4.3 4.3 0 0 0-.434.594c-.515.794-.72 1.584-.553 2.462.158.827.636 1.654 1.276 2.566.96 1.37 2.24 2.887 2.32 2.977.233.264.307.464.34.727.03.232.025.471.02.82-.004.174-.007.377-.007.619a.75.75 0 1 0 1.5 0q0-.235.005-.47c.007-.412.013-.814-.03-1.155-.069-.554-.265-1.037-.704-1.534l-.017-.02-.05-.058q-.061-.075-.168-.202c-.14-.17-.33-.402-.548-.673a39 39 0 0 1-1.433-1.892c-.625-.89-.937-1.495-1.03-1.987-.083-.43-.009-.838.352-1.386l.025-.038.02-.04-.002.002s.017-.027.064-.091q.075-.102.208-.262c.176-.212.412-.479.688-.775.194-.21.406-.431.627-.656v2.76a.75.75 0 0 0 1.5 0V3.489a.739.739 0 0 1 1.479 0v7.525a.75.75 0 0 0 1.5 0V8.975a.74.74 0 0 1 .698-.139c.309.088.672.382.81 1.008q.005.014.006.032a1 1 0 0 1 .008.13v1.003a.75.75 0 0 0 1.5 0v-1.002q0-.044-.002-.09c.1-.132.293-.21.612-.113.375.115.782.473.879 1.11v1.095a.75.75 0 1 0 1.5 0v-1.021c.026-.05.058-.063.098-.074.098-.028.29-.026.538.076.518.215.878.68.863 1.142v3.202c-.004 1.644-.278 2.654-1.1 3.478l-.022.023-.02.025c-.545.65-.797 1.214-.887 1.783-.044.27-.047.519-.044.736l.004.209c.004.136.006.257.003.396a.75.75 0 1 0 1.5.04c.004-.178 0-.36-.004-.51v-.001l-.003-.155c-.003-.189.002-.337.025-.479.04-.25.148-.564.536-1.032 1.21-1.23 1.508-2.715 1.511-4.51v-3.17c.036-1.273-.899-2.195-1.79-2.563-.457-.19-1.001-.278-1.512-.135q-.075.02-.147.047a2.73 2.73 0 0 0-1.49-1.146c-.492-.15-1.061-.144-1.547.074a2.54 2.54 0 0 0-1.414-1.05 2.3 2.3 0 0 0-1.11-.04V3.488A2.24 2.24 0 0 0 8.5 1.25" clip-rule="evenodd"/></svg>