<svg xmlns="http://www.w3.org/2000/svg" width="25" height="24" fill="none"><path fill="#141B34" fill-rule="evenodd" d="M20.003 1.25c-.258 0-.48.089-.642.175a2.7 2.7 0 0 0-.46.323c-.276.235-.551.536-.797.826-.23.271-.452.555-.642.797l-.047.06a9 9 0 0 1-.447.543.75.75 0 1 0 1.076 1.046c.157-.162.358-.419.55-.663l.045-.057c.193-.245.399-.508.61-.756l.004-.005v4.454a.75.75 0 0 0 1.5 0V3.539l.004.005c.21.248.417.51.61.756l.044.057c.192.244.394.501.551.663a.75.75 0 1 0 1.076-1.046 9 9 0 0 1-.447-.544l-.047-.06c-.19-.241-.413-.525-.642-.796a7.3 7.3 0 0 0-.797-.826 2.7 2.7 0 0 0-.46-.323 1.4 1.4 0 0 0-.642-.175M7.54 2.223c-1.22 0-2.256.982-2.256 2.232v5.192a37 37 0 0 0-1.68 1.66c-.278.293-.524.566-.717.795a4 4 0 0 0-.425.578c-.463.71-.76 1.373-.71 2.147.05.738.415 1.455.907 2.277a45.213 45.213 0 0 0 1.844 2.78c.115.16.227.313.275.367.16.18.27.315.366.431l.014.017c.088.108.177.215.277.323.222.238.48.45.974.812l.008.006.008.006c1.113.771 3.169 1.153 7.403.733l.02-.002.02-.003c1.952-.302 3.201-1.32 3.943-2.485.723-1.136.954-2.39.945-3.231v-3.513c.107-1.522-.132-2.624-.997-3.299-.404-.314-.882-.482-1.357-.593a13 13 0 0 0-1.23-.205 3 3 0 0 0-1.589-.983c-.458-.112-.97-.125-1.41.033a2.84 2.84 0 0 0-1.39-.956 2.6 2.6 0 0 0-1.024-.103V4.455a2.22 2.22 0 0 0-2.219-2.232M4.694 12.338q.276-.291.591-.608v2.717a.75.75 0 0 0 1.5 0V4.455a.75.75 0 0 1 .756-.732c.399 0 .72.317.72.732v6.528a.75.75 0 0 0 1.5 0V8.77c.107-.048.296-.081.581.007a1.35 1.35 0 0 1 .933 1.098q.003.043.004.103v1.002a.75.75 0 0 0 1.5 0V9.977q.001-.131-.016-.287c.104-.016.263-.017.463.032.538.133.993.52 1.039 1.135v1.12a.75.75 0 1 0 1.5 0v-1.124q.156.03.299.061c.379.088.616.192.773.315.252.197.524.625.422 2.035l-.002.027v3.581c.007.595-.166 1.556-.71 2.412-.526.824-1.406 1.57-2.887 1.804-4.19.414-5.742-.038-6.372-.47-.472-.346-.634-.49-.756-.62a6 6 0 0 1-.229-.269c-.098-.12-.223-.27-.4-.47q.011.012-.024-.036c-.028-.038-.08-.107-.157-.215a44 44 0 0 1-1.775-2.674c-.497-.83-.674-1.267-.697-1.607-.02-.293.071-.623.486-1.253l.025-.038.018-.038.002-.002q.006-.012.057-.082.07-.096.197-.246c.168-.2.394-.45.66-.73" clip-rule="evenodd"/></svg>