<svg xmlns="http://www.w3.org/2000/svg" width="24" height="24" fill="none"><path fill="#141B34" fill-rule="evenodd" d="M18.74 14.656c.163-.052.348-.106.54-.161h.002c.927-.27 2.08-.604 2.75-1.284 1.432-1.433.504-3.452-.863-5.943-.617-1.286-1.774-2.213-3.265-2.615l-.019-.016-1.309-1.963a1.2 1.2 0 0 0-.348-.348l-.014-.009-.014-.009c-.527-.318-1.992-1.058-4.207-1.058-2.423 0-4.006.881-4.299 1.058l-.014.009-.015.009a1.2 1.2 0 0 0-.355.359L6.05 4.654l-.006.002c-1.46.4-2.71 1.433-3.338 2.758v.001c-1.28 2.664-2.125 4.423-.738 5.811.678.686 1.822 1.01 2.743 1.27h.002l.05.014c.174.05.34.097.487.143v3.028c0 1.96 0 3.038.812 3.822 1.204 1.15 5.144 1.241 5.922 1.248h.2v.001c1.481 0 4.581-.14 5.733-1.247.824-.782.824-1.862.824-3.823v-3.026m0-1.567.12-.035h.002c.72-.21 1.705-.495 2.105-.901.575-.575.3-1.59-1.124-4.182l-.02-.04c-.47-.992-1.293-1.487-2-1.734l-4.151 3.229-.26.2c-.507.382-.893.623-1.412.623s-.904-.24-1.408-.62a53.89 53.89 0 0 1-.264-.202l-.055-.044L6.167 6.19c-.926.331-1.702 1.015-2.108 1.87-1.235 2.572-1.615 3.522-1.027 4.109.403.407 1.376.682 2.086.883l.002.001.012.003.118.034V12a.75.75 0 0 1 1.5 0v5.68c0 1.665.014 2.415.351 2.74.334.319 2.124.806 4.896.83 2.737.026 4.45-.414 4.884-.831.345-.328.36-1.077.36-2.739v-5.68a.75.75 0 0 1 1.5 0zm-7.077-4.534c.157.113.285.194.337.194.051 0 .18-.081.337-.194l1.402-5.61a8.124 8.124 0 0 0-3.482-.01zm-2.835-5.15.917 3.669-2.312-1.799 1.102-1.721q.095-.055.293-.148m6.333.042-.907 3.627 2.273-1.768-1.168-1.752a4 4 0 0 0-.198-.107" clip-rule="evenodd"/></svg>