<svg xmlns="http://www.w3.org/2000/svg" width="25" height="24" fill="none"><path fill="#141B34" fill-rule="evenodd" d="M12.279 1.75h.114c2.19 0 3.912 0 5.255.18 1.377.186 2.469.573 3.327 1.43.858.86 1.245 1.951 1.43 3.328.181 1.343.181 3.064.18 5.255v.114c.001 2.19.001 3.912-.18 5.255-.185 1.377-.572 2.469-1.43 3.327s-1.95 1.245-3.327 1.43c-1.343.181-3.064.181-5.255.181h-.114c-2.191 0-3.912 0-5.255-.18-1.377-.186-2.469-.573-3.327-1.43-.858-.86-1.245-1.951-1.43-3.328-.181-1.343-.181-3.064-.181-5.255v-.114c0-2.19 0-3.912.18-5.255.186-1.377.573-2.469 1.43-3.327.859-.858 1.951-1.245 3.328-1.43 1.343-.181 3.064-.181 5.255-.181m.807 19c1.875-.003 3.27-.02 4.362-.167 1.21-.163 1.933-.471 2.466-1.005.432-.432.717-.988.896-1.828h-7.724zm-1.5-3v3c-1.875-.003-3.271-.02-4.362-.167-1.21-.163-1.933-.471-2.466-1.005-.432-.432-.717-.988-.896-1.828zm1.5-1.5h7.92c.05-.71.07-1.533.076-2.5h-7.996zm-1.5-2.5v2.5h-7.92c-.05-.71-.07-1.533-.076-2.5zm1.5-1.5h8V12c0-.833 0-1.578-.009-2.25h-7.991zm-1.5-2.5v2.5h-8V12c0-.833 0-1.578.009-2.25zm.75-1.5h8.7a16 16 0 0 0-.117-1.362c-.163-1.21-.472-1.933-1.005-2.466s-1.256-.842-2.466-1.005c-1.232-.165-2.852-.167-5.112-.167s-3.88.002-5.112.167c-1.21.163-1.933.472-2.466 1.005s-.842 1.256-1.005 2.466q-.081.61-.116 1.362z" clip-rule="evenodd"/></svg>