<svg xmlns="http://www.w3.org/2000/svg" width="24" height="24" fill="none"><path fill="#141B34" fill-rule="evenodd" d="M7.347.254a1.7 1.7 0 0 0-.974.225L3.786 1.96a1.716 1.716 0 0 0-.806 1.968q.117.398.238.791c.256.842.51 1.673.653 2.509.186 1.081.161 2.04-.237 2.857a8 8 0 0 1-.388.688l-.075.121c-.12.195-.251.407-.37.622-.295.54-.551 1.172-.551 1.982 0 1.521.799 2.857 2 3.609V22a.75.75 0 0 0 1.5 0v-4.316q.365.065.75.066a.75.75 0 0 0 0-1.5 2.75 2.75 0 0 1-2.75-2.753c0-.466.139-.845.367-1.261a12 12 0 0 1 .323-.543l.084-.137a10 10 0 0 0 .458-.815c.596-1.222.578-2.545.367-3.769-.161-.938-.453-1.895-.714-2.752q-.114-.37-.215-.713a.216.216 0 0 1 .11-.246l1.808-1.034q-.04.286-.062.579l-.001.005a.75.75 0 0 0-.017.3 9 9 0 0 0-.008.389c0 1.946.606 3.735 1.62 5.053 1.015 1.32 2.468 2.197 4.13 2.197s3.115-.878 4.13-2.197 1.62-3.107 1.62-5.053q0-.195-.008-.388a.75.75 0 0 0-.018-.308 9 9 0 0 0-.062-.577l1.808 1.034a.216.216 0 0 1 .11.246q-.102.342-.215.713c-.261.857-.553 1.814-.714 2.752-.21 1.224-.229 2.547.367 3.77.146.3.309.571.458.814l.084.137c.12.194.226.365.323.543.228.416.367.795.367 1.26a2.75 2.75 0 0 1-2.75 2.754.75.75 0 1 0 0 1.5q.385 0 .75-.066V22a.75.75 0 0 0 1.5 0v-4.894a4.25 4.25 0 0 0 2-3.61c0-.809-.256-1.44-.552-1.981a14 14 0 0 0-.369-.622l-.075-.121a8 8 0 0 1-.388-.688c-.398-.817-.423-1.776-.237-2.857.144-.836.397-1.667.653-2.509q.12-.393.238-.79l-.72-.21.72.21a1.716 1.716 0 0 0-.806-1.969L17.627.479a1.7 1.7 0 0 0-.974-.225C15.192.36 13.355.695 12 1.901 10.645.695 8.808.359 7.347.254m8.837 2.232q-.045-.341-.12-.666c-1.365.177-2.664.615-3.478 1.634a.75.75 0 0 1-1.172 0C10.6 2.434 9.301 1.997 7.936 1.82q-.075.325-.12.666A4.79 4.79 0 0 1 10.75 6.91c0 .672-.138 1.312-.387 1.894A3.3 3.3 0 0 0 12 9.25c.57 0 1.124-.155 1.637-.448a4.8 4.8 0 0 1-.387-1.893 4.79 4.79 0 0 1 2.934-4.423m-1.328 5.26.085-.107c.688-.894 1.164-2.106 1.281-3.48a3.3 3.3 0 0 0-1.472 2.75q.001.436.106.837m-5.712 0q.105-.401.106-.837a3.3 3.3 0 0 0-1.472-2.75c.117 1.374.593 2.586 1.28 3.48zm2.94 7.255c.75.014 1.44.237 2.206.557a.75.75 0 1 1-.58 1.384c-.71-.297-1.19-.432-1.655-.442-.46-.009-.98.105-1.759.44a.75.75 0 0 1-.592-1.38c.883-.378 1.625-.574 2.38-.56" clip-rule="evenodd"/></svg>