<svg xmlns="http://www.w3.org/2000/svg" width="25" height="24" fill="none"><path fill="#141B34" fill-rule="evenodd" d="M9.44 3.166c.505-.307 1.938-.79 3.287.073 1.268.81 1.413 1.945 1.517 2.754l.016.12a.75.75 0 0 0 1.487-.196l-.017-.137c-.104-.836-.324-2.609-2.196-3.805-1.988-1.27-4.044-.58-4.843-.109-.944.472-1.57 1.252-1.947 2.019-.376.763-.539 1.58-.495 2.194a.75.75 0 0 0 1.496-.107c-.022-.305.066-.858.345-1.425.273-.555.698-1.058 1.29-1.348q.03-.015.06-.033m1.372 1.116c-.73 0-1.312.33-1.69.846-.36.49-.51 1.108-.51 1.704l.048 4.526-1.856 1.843-.012.013c-.644.67-.93 1.303-1.012 1.874-.068.464.015.884.044 1.03l.009.046a.8.8 0 0 0 .038.154l.044.121c.11.305.2.557.393.905.204.371.525.857 1.123 1.721l.126.183c.482.696.75 1.084.91 1.387.143.27.178.43.178.7v.67a.75.75 0 0 0 1.5 0v-.67a2.76 2.76 0 0 0-.352-1.402c-.205-.386-.528-.853-.975-1.5l-.153-.22c-.605-.875-.882-1.3-1.044-1.593a4 4 0 0 1-.295-.69l-.02-.054-.02-.121c-.029-.156-.049-.267-.022-.451.031-.216.148-.568.604-1.045l.796-.79v1.725a.75.75 0 0 0 1.5 0v-3.527l-.051-4.839c0-.364.095-.645.218-.813a.55.55 0 0 1 .481-.233c.272 0 .435.097.542.224.12.142.217.385.217.73v4.638a.75.75 0 0 0 .815.747c1.228-.107 2.68.223 4.158 1.137.666.412 1.004.81 1.136 1.335.144.572.082 1.438-.414 2.862a9 9 0 0 1-.587 1.282l-.09.167c-.166.306-.35.645-.437.916l-.023.069c-.023.069-.05.153-.067.214-.035.134-.046.25-.05.38a14 14 0 0 0-.002.352c0 .252-.001.624-.01 1.157a.75.75 0 0 0 1.5.024c.01-.607.01-.953.01-1.178a11 11 0 0 1 .004-.36l.014-.043c.01-.025.024-.067.052-.155.04-.127.138-.308.307-.622l.114-.213c.217-.404.479-.915.682-1.497.527-1.515.703-2.72.452-3.72-.263-1.047-.954-1.721-1.802-2.245-1.425-.882-2.89-1.331-4.262-1.378V6.737c0-.617-.175-1.226-.569-1.696-.406-.484-.998-.759-1.69-.759" clip-rule="evenodd"/></svg>