<svg xmlns="http://www.w3.org/2000/svg" width="25" height="24" fill="none"><path fill="#141B34" fill-rule="evenodd" d="M10.51 1.25c-2.615 0-4.723 2.138-4.723 4.76a.75.75 0 0 0 1.5 0c0-1.807 1.45-3.26 3.224-3.26 1.773 0 3.223 1.453 3.223 3.26a.75.75 0 0 0 1.5 0c0-2.622-2.108-4.76-4.723-4.76m-.338 4.518c-.006-.216.186-.467.562-.496a.52.52 0 0 1 .375.1c.073.062.182.198.21.512v5.326a.75.75 0 0 0 1.5 0v-.586c.257-.25.523-.312.67-.289a.36.36 0 0 1 .232.143c.082.103.184.302.229.66.029.235.033.528-.002.887a.75.75 0 1 0 1.492.148q.053-.546.02-1.008a.2.2 0 0 1 .084-.077c.045-.021.139-.04.282 0 .295.08.645.372.764.857.016.067.022.166.015.372l-.003.088c-.006.176-.015.41.003.655a.75.75 0 1 0 1.496-.11 4 4 0 0 1 0-.471l.004-.114q.004-.118.003-.261a1 1 0 0 1 .439.056c.179.067.346.19.466.4.122.212.226.57.174 1.149a1 1 0 0 0-.003.086l.065 2.49c-.049.71-.124 1.169-.232 1.518-.105.34-.25.604-.483.916a6 6 0 0 1-.195.244l-.026.03a10 10 0 0 0-.216.267 2.7 2.7 0 0 0-.466.842c-.153.488-.231 1.144-.14 1.977a.75.75 0 0 0 1.49-.162c-.07-.658 0-1.103.082-1.367.03-.1.095-.211.219-.37.055-.072.114-.142.183-.225l.025-.03c.076-.092.164-.198.248-.31.31-.417.546-.832.712-1.368.16-.52.246-1.121.298-1.897l.001-.07-.064-2.482c.064-.792-.068-1.457-.37-1.984a2.38 2.38 0 0 0-1.244-1.06 2.44 2.44 0 0 0-1.435-.085 2.57 2.57 0 0 0-1.41-1.028A1.93 1.93 0 0 0 15 9.69a1.85 1.85 0 0 0-1.276-.836 2 2 0 0 0-.905.066V5.853q0-.027-.002-.056c-.05-.666-.31-1.214-.75-1.579a2 2 0 0 0-1.45-.442c-.918.072-1.976.785-1.945 2.03.022.877.02 2.947.018 4.97v.001l-.002 1.747-.361-.363c-.24-.241-.575-.53-1.02-.68-.564-.193-1.106-.195-1.587-.02a2.16 2.16 0 0 0-1.07.866c-.444.684-.58 1.698-.09 2.429.448.669.94 1.243 1.37 1.721l.344.379c.28.308.5.548.659.76.334.445.612.769.849 1.045.6.7.935 1.092 1.248 2.359l.1 1.042a.75.75 0 0 0 1.492-.143l-.104-1.096a1 1 0 0 0-.018-.105c-.405-1.677-.992-2.361-1.678-3.16-.22-.257-.451-.525-.69-.843a14 14 0 0 0-.797-.923l-.29-.318a14 14 0 0 1-1.239-1.553c-.068-.101-.11-.45.102-.776a.67.67 0 0 1 .327-.275c.118-.043.305-.066.589.03.12.041.259.137.44.32l1.646 1.653a.75.75 0 0 0 1.282-.534c-.005-.906-.004-2.194-.002-3.513.002-2.045.004-4.165-.018-5.058m7.758 6.384q-.001 0 .014-.009z" clip-rule="evenodd"/></svg>