<svg xmlns="http://www.w3.org/2000/svg" width="25" height="24" fill="none"><path fill="#141B34" fill-rule="evenodd" d="M9.934 3.166c.506-.307 1.942-.79 3.294.074 1.27.81 1.417 1.947 1.52 2.755l.016.122a.75.75 0 0 0 1.487-.197l-.017-.138c-.104-.836-.325-2.61-2.199-3.807-1.991-1.27-4.05-.58-4.85-.109-.945.473-1.572 1.253-1.95 2.02-.376.763-.54 1.581-.496 2.196a.75.75 0 0 0 1.497-.107c-.022-.306.065-.859.345-1.426.274-.556.7-1.06 1.293-1.35zm1.475 1.112c-1.187 0-2.368.942-2.368 2.247v6.668l-.452-.392c-.828-.847-2.166-.94-3.085-.133a2.2 2.2 0 0 0-.46 2.757q.03.07.077.135c.262.37.56.744.906 1.18l.316.4.821 1.064.21.28c.228.306.444.58.637.822l.09.113c.217.275.393.502.534.712.274.409.37.687.36.992v.88a.75.75 0 0 0 1.5 0v-.841c.022-.741-.254-1.33-.615-1.867-.15-.223-.322-.449-.501-.677l-.002-.002-1.02-1.322a63 63 0 0 0-.83-1.076l-1.13-1.462a.7.7 0 0 1 .098-.96c.298-.263.738-.247 1.032.064l.054.052 1.72 1.491a.75.75 0 0 0 1.24-.567V6.525c0-.343.369-.747.868-.747.508 0 .882.413.882.747v4.838a.75.75 0 0 0 .813.748c.51-.043 1.326.033 2.19.245.864.213 1.685.54 2.236.938.628.454.95.71 1.109 1.12.158.406.203 1.12-.26 2.586-.124.396-.376.902-.639 1.396l-.181.338c-.065.12-.128.236-.175.326a4 4 0 0 0-.277.614c-.052.154-.12.352-.16.68-.042.349-.055.844-.032 1.67a.75.75 0 0 0 1.5-.042c-.023-.811-.006-1.215.022-1.448.02-.168.043-.235.088-.368q.014-.04.03-.092a6.939 6.939 0 0 1 .155-.313l.164-.305.19-.355c.26-.488.575-1.106.746-1.649.495-1.568.573-2.693.227-3.583-.334-.856-1.016-1.349-1.569-1.748l-.059-.042c-.768-.556-1.795-.943-2.756-1.18a10.4 10.4 0 0 0-1.862-.289V6.525c0-1.313-1.205-2.247-2.382-2.247" clip-rule="evenodd"/></svg>