<svg xmlns="http://www.w3.org/2000/svg" width="25" height="24" fill="none"><path fill="#141B34" fill-rule="evenodd" d="M9.527 1.25A4.755 4.755 0 0 0 4.767 6a.75.75 0 0 0 1.5 0 3.255 3.255 0 0 1 3.26-3.25A3.255 3.255 0 0 1 12.787 6a.75.75 0 0 0 1.5 0 4.755 4.755 0 0 0-4.76-4.75m-.083 2.506c-1.335 0-2.182 1.21-2.182 2.34v3.988a24.5 24.5 0 0 0-2.299 2.456l-.006.008a1 1 0 0 0-.046.063c-.508.771-.766 1.522-.62 2.387.133.798.6 1.592 1.233 2.496.934 1.33 1.795 2.3 1.915 2.435l.01.01c.26.295.341.49.382.716.046.25.045.537.043 1.038v.308a.75.75 0 0 0 1.5 0v-.271c.003-.492.005-.945-.067-1.342-.097-.538-.322-.975-.735-1.442l-.008-.01a27 27 0 0 1-1.812-2.304c-.63-.899-.91-1.449-.983-1.882-.06-.36.01-.72.374-1.283.176-.215.561-.683 1.119-1.271v2.157a.75.75 0 0 0 1.5 0V6.097c0-.513.371-.84.682-.84.475 0 .827.38.827.724v4.278l-.008 1.173a.75.75 0 1 0 1.5.01l.007-1.072c.1-.316.25-.467.37-.54a.67.67 0 0 1 .495-.073c.402.084.669.413.633.789l-.003.05v.02l-.001.035v.704h.75l-.75.003v-.002 1.14a.75.75 0 0 0 1.5 0V11.42a.805.805 0 0 1 .91-.655.66.66 0 0 1 .47.303c.12.186.232.536.15 1.137a1 1 0 0 0-.007.077l-.023.688a.75.75 0 0 0 1.5.05l.02-.608c.16-.578.546-.71.843-.672.334.043.646.303.627.814v3.715c-.002.743-.076 1.231-.215 1.624-.138.387-.357.733-.73 1.167a4.2 4.2 0 0 0-.522.727c-.26.481-.355.842-.375 1.226-.006.129-.004.265-.002.379l.001.079a5 5 0 0 1-.015.46.75.75 0 1 0 1.495.126c.02-.243.022-.44.02-.603l-.002-.116c-.001-.104-.002-.174.001-.248.007-.133.028-.278.197-.59.076-.14.186-.282.341-.463.442-.515.784-1.02 1.004-1.642.219-.614.3-1.291.302-2.124v-3.676c.041-1.333-.892-2.21-1.937-2.343a2.2 2.2 0 0 0-1.287.223 2 2 0 0 0-.127-.222 2.15 2.15 0 0 0-1.513-.973 2.34 2.34 0 0 0-1.349.215c-.325-.639-.953-1.07-1.6-1.205a2.2 2.2 0 0 0-1.17.067V5.98c0-1.3-1.156-2.225-2.327-2.225" clip-rule="evenodd"/></svg>