<svg xmlns="http://www.w3.org/2000/svg" width="25" height="24" fill="none"><path fill="#141B34" fill-rule="evenodd" d="M3.28 12.75a9.25 9.25 0 0 0 8.47 8.47V18a.75.75 0 0 1 1.5 0v3.22a9.25 9.25 0 0 0 8.47-8.47H18.5a.75.75 0 0 1 0-1.5h3.22a9.25 9.25 0 0 0-8.47-8.47V6a.75.75 0 0 1-1.5 0V2.78a9.25 9.25 0 0 0-8.47 8.47H6.5a.75.75 0 0 1 0 1.5zM1.75 12c0-5.937 4.813-10.75 10.75-10.75S23.25 6.063 23.25 12 18.437 22.75 12.5 22.75 1.75 17.937 1.75 12m10.746-1a1 1 0 1 0 0 2h.01a1 1 0 1 0 0-2z" clip-rule="evenodd"/></svg>