<svg xmlns="http://www.w3.org/2000/svg" width="25" height="24" fill="none"><path fill="#141B34" fill-rule="evenodd" d="M13.25 21.22V20a.75.75 0 0 0-1.5 0v1.22a9.25 9.25 0 0 1-8.47-8.47H4.5a.75.75 0 0 0 0-1.5H3.28a9.25 9.25 0 0 1 8.47-8.47V4a.75.75 0 0 0 1.5 0V2.78a9.25 9.25 0 0 1 8.47 8.47H20.5a.75.75 0 0 0 0 1.5h1.22a9.25 9.25 0 0 1-8.47 8.47m-.75 1.53C6.563 22.75 1.75 17.937 1.75 12S6.563 1.25 12.5 1.25 23.25 6.063 23.25 12 18.437 22.75 12.5 22.75M13.25 8a.75.75 0 0 0-1.5 0v.334a2.95 2.95 0 0 0-1.114.505c-.504.378-.886.958-.886 1.661s.382 1.283.886 1.66c.504.379 1.165.59 1.864.59.406 0 .744.124.964.29.22.164.286.335.286.46s-.066.296-.286.46c-.22.166-.558.29-.964.29-.668 0-1.09-.321-1.208-.57a.75.75 0 1 0-1.357.64c.33.7 1.026 1.165 1.815 1.345V16a.75.75 0 0 0 1.5 0v-.334a2.95 2.95 0 0 0 1.114-.505c.504-.378.886-.958.886-1.661s-.382-1.283-.886-1.66c-.504-.379-1.165-.59-1.864-.59-.406 0-.744-.124-.964-.29-.22-.164-.286-.335-.286-.46s.066-.296.286-.46c.22-.166.558-.29.964-.29.668 0 1.09.321 1.208.57a.75.75 0 1 0 1.357-.64c-.33-.7-1.026-1.165-1.815-1.345z" clip-rule="evenodd"/></svg>