<svg xmlns="http://www.w3.org/2000/svg" width="25" height="24" fill="none"><path fill="#141B34" fill-rule="evenodd" d="M1.75 12c0-5.937 4.813-10.75 10.75-10.75q1.104.002 2.15.215a.75.75 0 0 1-.3 1.47 9.25 9.25 0 1 0 7.214 7.214.75.75 0 1 1 1.471-.298A11 11 0 0 1 23.25 12c0 5.937-4.813 10.75-10.75 10.75S1.75 17.937 1.75 12M12.5 7.75A4.25 4.25 0 1 0 16.75 12a.75.75 0 0 1 1.5 0 5.75 5.75 0 1 1-5.75-5.75.75.75 0 0 1 0 1.5m7.903-5.616c-.25-.802-1.248-1.173-1.952-.598-.724.592-1.591 1.37-2.08 2.384-.449.933-.553 2.01-.086 3.227L12 11.432a.75.75 0 0 0 1.06 1.06l4.265-4.264c1.296.485 2.406.356 3.348-.125.985-.504 1.722-1.368 2.278-2.04.586-.707.212-1.734-.618-1.974l-.028-.007-1.46-.36-.435-1.566zm-.414 4.633c-.568.291-1.267.407-2.23.021-.41-.928-.318-1.631-.036-2.217s.778-1.105 1.355-1.604l.44 1.579a.75.75 0 0 0 .543.527l1.46.36c-.48.557-.965 1.045-1.532 1.334" clip-rule="evenodd"/></svg>