<svg xmlns="http://www.w3.org/2000/svg" width="25" height="24" fill="none"><path fill="#141B34" fill-rule="evenodd" d="M12.5 2.75A9.25 9.25 0 1 0 21.75 12c0-.968-.148-1.9-.423-2.775a.75.75 0 1 1 1.43-.45c.32 1.02.493 2.103.493 3.225 0 5.937-4.813 10.75-10.75 10.75S1.75 17.937 1.75 12 6.563 1.25 12.5 1.25c1.174 0 2.306.189 3.366.538a.75.75 0 0 1-.47 1.424A9.2 9.2 0 0 0 12.5 2.75m0 5A4.25 4.25 0 1 0 16.75 12a.75.75 0 0 1 1.5 0 5.75 5.75 0 1 1-5.75-5.75.75.75 0 0 1 0 1.5M20.75 2a.75.75 0 0 0-1.5 0v2.19l-7.28 7.28a.75.75 0 1 0 1.06 1.06l7.28-7.28h2.19a.75.75 0 0 0 0-1.5h-1.75z" clip-rule="evenodd"/></svg>