<svg xmlns="http://www.w3.org/2000/svg" width="24" height="24" fill="none"><path fill="#141B34" fill-rule="evenodd" d="M7.473 15.829c.183.271.418.504.69.685l-2.135 4.239a1.8 1.8 0 0 1-.279.426.4.4 0 0 1-.084.07l-.004.001-.027-.002a1 1 0 0 1-.152-.041 5.5 5.5 0 0 1-.973-.637l1.13-1.153a.75.75 0 0 0-1.07-1.05l-1.117 1.139a6 6 0 0 1-.594-.865l-.005-.01a.7.7 0 0 1-.102-.265c-.002-.024.001-.03.006-.04a.5.5 0 0 1 .124-.134q.123-.102.352-.227zm2.165 1.093-2.27 4.505c-.315.623-.705 1.07-1.23 1.246-.52.173-.98.011-1.202-.068a1 1 0 0 1-.08-.034c-.782-.387-1.44-.918-1.96-1.441-.656-.66-1.12-1.338-1.354-1.77-.317-.567-.406-1.168-.116-1.726.252-.483.72-.786 1.102-.993l.02-.01 4.505-2.27a2.48 2.48 0 0 1 .98-1.893q-.157.02-.316.02a2.48 2.48 0 1 1 .362-4.934 2.48 2.48 0 1 1 3.44-3.503 2.48 2.48 0 1 1 4.907.062 2.48 2.48 0 1 1 3.497 3.439q.168-.025.345-.025a2.48 2.48 0 1 1-.346 4.937 2.48 2.48 0 1 1-3.493 3.444q.03.188.03.383a2.48 2.48 0 1 1-4.928-.383 2.47 2.47 0 0 1-1.893 1.014m3.36-13.195a.98.98 0 1 1 1.958 0 .98.98 0 0 1-1.958 0m-.971 1.829q0-.165-.021-.324a2.47 2.47 0 0 0 1.97.975c.825 0 1.555-.402 2.006-1.022q-.03.189-.03.385a2.48 2.48 0 0 0 2.824 2.456 2.48 2.48 0 0 0-.987 1.982c0 .809.387 1.527.987 1.98a2.48 2.48 0 0 0-2.794 2.84 2.48 2.48 0 0 0-2.002-1.017c-.822 0-1.55.4-2 1.016q.029-.186.029-.383a2.48 2.48 0 0 0-2.795-2.46c.597-.453.981-1.17.981-1.976 0-.82-.397-1.547-1.01-1.998q.178.026.363.026a2.48 2.48 0 0 0 2.479-2.48m-3.458 0a.98.98 0 1 1 1.96-.002.98.98 0 0 1-1.96.002m8.883.014a.98.98 0 1 1 1.959-.001.98.98 0 0 1-1.96.001M6.738 10.008a.98.98 0 1 1 1.959-.002.98.98 0 0 1-1.959.002m12.551 0a.98.98 0 1 1 1.959-.002.98.98 0 0 1-1.959.002M8.551 14.444a.98.98 0 1 1 1.96-.001.98.98 0 0 1-1.96.001m8.9 0a.98.98 0 1 1 1.96-.001.98.98 0 0 1-1.96.001m-4.45 1.847a.98.98 0 1 1 1.96 0 .98.98 0 0 1-1.96 0" clip-rule="evenodd"/></svg>