<svg xmlns="http://www.w3.org/2000/svg" width="24" height="24" fill="none"><path fill="#141B34" fill-rule="evenodd" d="M3.393 9.819a.055.055 0 0 1 .07-.012l3.975 2.342c.508.3 1.109.188 1.499-.15.646-.558 2.185-1.523 5.6-1.523 2.028 0 3.92.323 5.14 1.442l.144.13c.297.264.595.53.862 1.066.315.633.603 1.697.562 3.586l-.06 2.791c-.01.464-.329.868-.784.988a23.65 23.65 0 0 1-11.75.058l-.248-.062a1.12 1.12 0 0 1-.848-1.042l-.09-2.384a1.05 1.05 0 0 0-.22-.604l-4.483-5.774a.05.05 0 0 1 0-.06zm.832-1.305a1.555 1.555 0 0 0-2.006.371l-.63.792c-.445.56-.45 1.35-.012 1.914l4.394 5.66.085 2.239a2.62 2.62 0 0 0 1.981 2.44l.248.062a25.15 25.15 0 0 0 12.496-.062 2.545 2.545 0 0 0 1.903-2.406l.06-2.792c.045-2.043-.262-3.37-.718-4.286-.404-.812-.912-1.26-1.22-1.53l-.115-.104a5.7 5.7 0 0 0-.942-.697 1 1 0 0 0 .008-.108V6.506c0-2.903-2.361-5.252-5.268-5.252S9.22 3.603 9.22 6.506v3.521a6.3 6.3 0 0 0-1.16.748zm6.496.935V6.506a3.76 3.76 0 0 1 3.768-3.752 3.76 3.76 0 0 1 3.768 3.751v2.953c-.978-.306-2.019-.432-3.019-.47V7.507a.75.75 0 0 0-1.5 0v1.487c-1.208.053-2.201.223-3.017.456" clip-rule="evenodd"/></svg>