<svg xmlns="http://www.w3.org/2000/svg" width="24" height="24" fill="none"><path fill="#141B34" fill-rule="evenodd" d="M18.404 3.194a.886.886 0 1 0-1.535.887l2.727 4.725a.886.886 0 1 0 1.535-.887zm-1.96-1.624a2.386 2.386 0 0 1 3.26.874L22.43 7.17a2.387 2.387 0 0 1-3.424 3.157l-4.24 2.506 4.89 8.803a.75.75 0 1 1-1.311.728L14 14.544l-4.344 7.82a.75.75 0 1 1-1.311-.728l4.141-7.456-1.997 1.18a2.78 2.78 0 0 1-3.84-1.046l-.016-.027-2.886 1.636.39.72a.75.75 0 1 1-1.32.713l-.739-1.367-.738-1.368a.75.75 0 1 1 1.32-.713l.375.694 2.862-1.622-.275-.487C4.858 11.14 5.305 9.4 6.645 8.607l8.608-5.087a2.38 2.38 0 0 1 1.19-1.95m-.769 3.443 2.384 4.131-8.333 4.926a1.28 1.28 0 0 1-1.77-.493l-1.027-1.82c-.37-.657-.144-1.49.48-1.858z" clip-rule="evenodd"/></svg>