<svg xmlns="http://www.w3.org/2000/svg" width="25" height="24" fill="none"><path fill="#141B34" fill-rule="evenodd" d="M8.281 9.251a.75.75 0 0 1-.689-.454L6.497 6.251H4.065L2.97 8.797a.75.75 0 1 1-1.378-.592l1.283-2.984.006-.014.006-.015L4 2.577l.02-.042.026-.057c.02-.042.046-.098.09-.164.191-.287.493-.482.833-.541.111-.023.204-.023.311-.023s.2 0 .311.023c.34.058.642.254.833.541.043.065.07.122.089.163l.005.01.022.047.02.042 1.112 2.615.006.014.006.015 1.283 2.984a.75.75 0 0 1-.689 1.046zm-3.575-4.5h1.15L5.281 3.4zm17.575-.001h-9a.75.75 0 0 1 0-1.5h9a.75.75 0 0 1 0 1.5m0 4h-9a.75.75 0 0 1 0-1.5h9a.75.75 0 0 1 0 1.5m-20 4h20a.75.75 0 0 0 0-1.5h-20a.75.75 0 0 0 0 1.5m20 8h-9a.75.75 0 0 1 0-1.5h9a.75.75 0 0 1 0 1.5m-9-4h9a.75.75 0 0 0 0-1.5h-9a.75.75 0 0 0 0 1.5m-5.689 5.047a.75.75 0 0 0 .69.454l-.004-.001a.749.749 0 0 0 .689-1.046L7.684 18.22l-.006-.014-.006-.015-1.113-2.615a1 1 0 0 0-.041-.089l-.005-.01a1 1 0 0 0-.089-.163 1.25 1.25 0 0 0-.833-.541c-.11-.023-.204-.023-.31-.023-.108 0-.2 0-.312.023a1.26 1.26 0 0 0-.923.705l-.027.057-.019.042-1.113 2.615-.006.014-.006.015-1.283 2.984a.751.751 0 0 0 1.378.592l1.095-2.546h2.432zm-1.736-4.046h-1.15l.575-1.351z" clip-rule="evenodd"/></svg>