<svg xmlns="http://www.w3.org/2000/svg" width="25" height="24" fill="none"><path fill="#141B34" fill-rule="evenodd" d="M16.03 5.992c0 .414.336.75.75.75h.002a.75.75 0 0 0 .75-.75v-.001c0-.675 0-1.048-.11-1.429a2.77 2.77 0 0 0-1.602-1.77c-.363-.151-.72-.188-1.366-.253h-.006c-1.922-.197-3.492-.297-4.666-.297s-2.744.1-4.666.296h-.005c-.648.066-1.005.103-1.359.25a2.77 2.77 0 0 0-1.61 1.777c-.11.377-.11.75-.11 1.426a.75.75 0 0 0 1.5 0c0-.539 0-.835.048-1.004.107-.36.387-.67.74-.812.152-.063.4-.09.947-.146a56 56 0 0 1 3.764-.275v16.488h-2.25a.75.75 0 0 0 0 1.5h6a.75.75 0 0 0 0-1.5h-2.25V3.754c1.02.032 2.303.126 3.764.275.547.056.795.083.956.15.343.14.623.448.73.805.05.173.05.47.05 1.008m3.751 15.746h2.001a.75.75 0 0 0 0-1.5h-2.249v-1.173a3 3 0 0 1 .006-.204c.057-.006.14-.012.258-.014.894-.017 1.47-.086 1.95-.394.785-.502.785-1.283.785-2.272 0-.583-.225-1.072-.652-1.414-1.032-.827-2.898-.466-3.26-.385a.75.75 0 0 0 .323 1.465c.621-.136 1.661-.18 1.998.091.037.03.09.073.09.242 0 .51 0 .95-.096 1.01-.19.122-.697.148-1.169.157-1.232.024-1.735.522-1.735 1.718v.944c0 .561 0 1.006.372 1.37.36.36.81.36 1.378.36" clip-rule="evenodd"/></svg>