<svg xmlns="http://www.w3.org/2000/svg" width="25" height="24" fill="none"><path fill="#141B34" fill-rule="evenodd" d="M16.281 6.797a.75.75 0 0 1-.75-.75c0-.57 0-.884-.053-1.073a1.34 1.34 0 0 0-.738-.858l-.01-.005c-.155-.067-.433-.097-.939-.151-1.125-.12-2.485-.153-3.76-.161v16.498h2.25a.75.75 0 0 1 0 1.5H9.344a1 1 0 0 1-.125 0H6.28a.75.75 0 0 1 0-1.5h2.25V3.799c-1.275.008-2.636.04-3.76.16-.507.055-.785.085-.939.152l-.01.005a1.34 1.34 0 0 0-.74.863c-.05.185-.05.499-.05 1.068a.75.75 0 0 1-1.5 0c0-.701 0-1.087.106-1.474.236-.83.832-1.515 1.597-1.838.362-.158.72-.197 1.363-.266l.013-.001c1.42-.151 3.157-.171 4.67-.171s3.251.02 4.67.17l.01.002c.645.07 1.003.108 1.365.266a2.84 2.84 0 0 1 1.596 1.833c.11.39.11.777.11 1.479a.75.75 0 0 1-.75.75m4.974 4.62a.75.75 0 0 0 .577.271h-.002a.749.749 0 0 0 .576-1.23l-1.17-1.408 1.353-.61a.749.749 0 1 0-.617-1.368l-1.191.539V5.938a.75.75 0 0 0-1.5 0V7.61l-1.191-.539a.751.751 0 0 0-.617 1.367l1.353.611-1.17 1.409a.75.75 0 0 0 1.152.959l1.224-1.472z" clip-rule="evenodd"/></svg>