<svg xmlns="http://www.w3.org/2000/svg" width="25" height="24" fill="none"><path fill="#141B34" fill-rule="evenodd" d="M3.281 2.25a.75.75 0 0 0 0 1.5h18a.75.75 0 1 0 0-1.5zm0 12a.75.75 0 0 0 0 1.5h6a.75.75 0 0 0 0-1.5zM2.531 21a.75.75 0 0 1 .75-.75h6a.75.75 0 0 1 0 1.5h-6a.75.75 0 0 1-.75-.75m.75-12.75a.75.75 0 0 0 0 1.5h13.5a3.75 3.75 0 1 1 0 7.5h-3.053q.146-.133.31-.272c.301-.254.619-.504.913-.735l.069-.054c.296-.232.597-.47.784-.651a.75.75 0 1 0-1.046-1.076c-.116.114-.342.294-.665.548l-.071.056c-.291.228-.63.494-.953.768a9 9 0 0 0-.975.94c-.137.16-.27.338-.37.526a1.5 1.5 0 0 0-.193.7c0 .276.095.518.193.7.1.188.233.366.37.527.273.32.628.645.975.94.323.273.662.539.952.767l.072.056c.323.254.549.434.665.548a.75.75 0 1 0 1.046-1.076 11 11 0 0 0-.784-.651l-.069-.054c-.294-.231-.612-.48-.912-.735a12 12 0 0 1-.311-.272h3.053a5.25 5.25 0 1 0 0-10.5z" clip-rule="evenodd"/></svg>