<svg xmlns="http://www.w3.org/2000/svg" width="25" height="24" fill="none"><path fill="#141B34" fill-rule="evenodd" d="M3.642 20.64c1.61 1.61 3.96 1.61 8.64 1.61s7.027 0 8.638-1.609c1.611-1.61 1.611-3.96 1.611-8.641s0-7.03-1.61-8.64-3.96-1.61-8.64-1.61-7.029 0-8.639 1.609c-1.61 1.61-1.61 3.96-1.61 8.64V12c0 4.681 0 7.03 1.61 8.64m8.64-17.39c4.265 0 6.407 0 7.578 1.171 1.171 1.17 1.171 3.312 1.171 7.579s0 6.409-1.17 7.579c-1.173 1.171-3.314 1.171-7.58 1.171s-6.408 0-7.579-1.171c-1.17-1.17-1.17-3.312-1.17-7.579s0-6.409 1.17-7.579C5.873 3.25 8.015 3.25 12.282 3.25m.017 3h-.037c-1.028.025-1.895.069-2.611.157-.708.086-1.321.22-1.813.453-.513.243-.916.603-1.14 1.124-.215.494-.23 1.047-.162 1.606a.75.75 0 0 0 1.489-.18c-.053-.438-.014-.685.05-.831.05-.12.148-.242.404-.363.277-.13.705-.241 1.354-.32.471-.058 1.032-.097 1.697-.123v8.477h-1.25a.75.75 0 1 0 0 1.5h4a.75.75 0 0 0 0-1.5h-1.25V7.775a20 20 0 0 1 1.721.134c.658.087 1.094.205 1.378.341.265.128.357.252.4.358.054.129.086.354.013.76a.75.75 0 1 0 1.476.264c.098-.545.106-1.095-.102-1.598-.218-.525-.624-.888-1.136-1.135-.494-.238-1.113-.382-1.833-.477-.728-.096-1.608-.146-2.648-.172" clip-rule="evenodd"/></svg>