<svg xmlns="http://www.w3.org/2000/svg" width="25" height="24" fill="none"><path fill="#141B34" fill-rule="evenodd" d="M16.406 6.71a.75.75 0 0 1-.75-.75c0-.538 0-.834-.05-1.007a1.28 1.28 0 0 0-.729-.804c-.167-.07-.447-.098-.956-.15a56 56 0 0 0-3.765-.275V20.21h2.25a.75.75 0 0 1 0 1.5h-6a.75.75 0 0 1 0-1.5h2.25V3.724c-1.02.032-2.302.126-3.764.275-.51.052-.79.08-.948.146a1.28 1.28 0 0 0-.739.812c-.049.168-.049.465-.049 1.004a.75.75 0 0 1-1.5 0c0-.676 0-1.05.11-1.427a2.78 2.78 0 0 1 1.611-1.777c.353-.147.712-.184 1.362-.25 1.925-.197 3.495-.296 4.667-.296s2.742.1 4.666.296l.014.001c.643.066.999.103 1.358.253a2.77 2.77 0 0 1 1.601 1.769c.111.382.111.755.111 1.43a.75.75 0 0 1-.75.75m4 5.997h2a.75.75 0 0 0 0-1.5h-2c-.084 0-.172 0-.25-.002v-1.172q0-.134.006-.204c.057-.006.14-.012.258-.014.872-.016 1.471-.086 1.95-.394.786-.503.786-1.284.786-2.273 0-.582-.226-1.07-.652-1.412-1.032-.827-2.898-.466-3.26-.385a.75.75 0 0 0 .323 1.465c.621-.136 1.661-.18 1.998.091.036.03.09.073.09.242 0 .51 0 .95-.095 1.011-.19.122-.698.148-1.169.157-1.232.024-1.735.521-1.735 1.717v.944c0 .561 0 1.006.373 1.37.36.36.81.36 1.377.36" clip-rule="evenodd"/></svg>