<svg xmlns="http://www.w3.org/2000/svg" width="25" height="24" fill="none"><path fill="#141B34" fill-rule="evenodd" d="M12.24 4.894c-.523.974-1.09 2.457-1.883 4.532l-.314.824h6.477l-.314-.824c-.792-2.075-1.36-3.558-1.883-4.532-.554-1.032-.88-1.144-1.042-1.144s-.487.112-1.041 1.144m4.853 6.856 2.488 6.517a.75.75 0 1 0 1.401-.534l-3.398-8.901c-.764-2.003-1.366-3.578-1.94-4.647-.547-1.02-1.25-1.935-2.363-1.935-1.111 0-1.815.914-2.363 1.935-.573 1.069-1.175 2.644-1.94 4.647l-3.397 8.9a.75.75 0 0 0 1.401.535L9.47 11.75zM3.53 21a.75.75 0 0 1 .75-.75h18a.75.75 0 1 1 0 1.5h-18a.75.75 0 0 1-.75-.75" clip-rule="evenodd"/></svg>