<svg xmlns="http://www.w3.org/2000/svg" width="25" height="24" fill="none"><path fill="#141B34" fill-rule="evenodd" d="M3.031 3a.25.25 0 0 1 .25-.25h2a.25.25 0 0 1 .25.25v2a.25.25 0 0 1-.25.25h-2a.25.25 0 0 1-.25-.25zm1.25 15.75h-1a.25.25 0 0 0-.25.25v2c0 .138.112.25.25.25h2a.25.25 0 0 0 .25-.25v-2a.25.25 0 0 0-.25-.25zm2.75 2h10.5V21c0 .966.784 1.75 1.75 1.75h2a1.75 1.75 0 0 0 1.75-1.75v-2a1.75 1.75 0 0 0-1.75-1.75h-.25V6.75h.25A1.75 1.75 0 0 0 23.031 5V3a1.75 1.75 0 0 0-1.75-1.75h-2A1.75 1.75 0 0 0 17.531 3v.25h-10.5V3a1.75 1.75 0 0 0-1.75-1.75h-2A1.75 1.75 0 0 0 1.531 3v2c0 .966.784 1.75 1.75 1.75h.25v10.5h-.25A1.75 1.75 0 0 0 1.531 19v2c0 .966.784 1.75 1.75 1.75h2A1.75 1.75 0 0 0 7.031 21zm-2-3.5V6.75h.25A1.75 1.75 0 0 0 7.031 5v-.25h10.5V5c0 .966.784 1.75 1.75 1.75h.25v10.5h-.25a1.75 1.75 0 0 0-1.75 1.75v.25h-10.5V19a1.75 1.75 0 0 0-1.75-1.75zm14 3.75v-2a.25.25 0 0 1 .25-.25h2a.25.25 0 0 1 .25.25v2a.25.25 0 0 1-.25.25h-2a.25.25 0 0 1-.25-.25m.25-18.25a.25.25 0 0 0-.25.25v2c0 .138.112.25.25.25h2a.25.25 0 0 0 .25-.25V3a.25.25 0 0 0-.25-.25zm-7.024 4.5h-.031c-.815.015-1.514.05-2.098.123-.576.071-1.09.185-1.508.384-.436.207-.797.523-.99.992-.183.445-.172.926-.085 1.39a.75.75 0 0 0 1.474-.277c-.06-.322-.03-.475-.002-.543.018-.044.06-.119.247-.208.206-.097.535-.186 1.049-.25q.498-.061 1.177-.089v6.478h-.734a.75.75 0 0 0 0 1.5h2.968a.75.75 0 1 0 0-1.5h-.734V8.773q.616.024 1.09.075c.506.055.846.134 1.068.23.207.09.265.172.29.225.034.072.074.233.019.577a.75.75 0 0 0 1.48.24c.082-.503.071-1.007-.143-1.46-.223-.469-.61-.768-1.052-.959-.426-.184-.94-.283-1.5-.344a24 24 0 0 0-1.985-.107" clip-rule="evenodd"/></svg>