<svg xmlns="http://www.w3.org/2000/svg" width="25" height="24" fill="none"><path fill="#141B34" fill-rule="evenodd" d="M12.281 3.75a.75.75 0 0 0 0 1.5h10a.75.75 0 1 0 0-1.5zm0 5a.75.75 0 0 0 0 1.5h7a.75.75 0 1 0 0-1.5zm-.75 5.75a.75.75 0 0 1 .75-.75h10a.75.75 0 1 1 0 1.5h-10a.75.75 0 0 1-.75-.75m.75 4.25a.75.75 0 0 0 0 1.5h7a.75.75 0 1 0 0-1.5zM4.891 7.44c-.248.194-.544.498-1.01.98L2.817 9.52A.75.75 0 1 1 1.738 8.48l1.065-1.102.035-.036c.42-.435.79-.817 1.13-1.082.368-.289.786-.509 1.31-.509.522 0 .94.22 1.31.509.34.265.708.647 1.13 1.082l.034.036L8.817 8.48A.75.75 0 1 1 7.738 9.52L6.673 8.42c-.466-.482-.762-.786-1.01-.98-.227-.177-.325-.19-.386-.19-.06 0-.159.013-.386.19M2.82 13.48a.75.75 0 0 0-1.079 1.042l1.065 1.102.034.036c.421.435.79.817 1.13 1.082.369.289.787.509 1.31.509s.942-.22 1.31-.509c.34-.265.71-.647 1.13-1.082l.035-.036L8.82 14.52a.75.75 0 0 0-1.078-1.042L6.677 14.58c-.466.482-.762.786-1.01.98-.227.177-.325.19-.386.19-.06 0-.159-.013-.386-.19-.248-.194-.544-.498-1.01-.98z" clip-rule="evenodd"/></svg>