<svg xmlns="http://www.w3.org/2000/svg" width="25" height="24" fill="none"><path fill="#141B34" fill-rule="evenodd" d="M8.281 2.25h-.05c-.664 0-1.237 0-1.696.062-.491.066-.962.215-1.345.597-.382.382-.531.854-.597 1.345-.062.459-.062 1.032-.062 1.697V18.05c0 .664 0 1.237.062 1.696.066.492.215.963.597 1.345.383.382.854.531 1.345.597.46.062 1.032.062 1.697.062h5.716c2.834 0 5.083-2.377 5.083-5.25 0-2.137-1.245-4-3.049-4.814a5.27 5.27 0 0 0 2.05-4.186c0-2.887-2.303-5.25-5.172-5.25zm4.585 9H6.03V6c0-.728.002-1.2.048-1.546.044-.325.115-.427.172-.484s.159-.128.484-.172c.347-.046.818-.048 1.546-.048h4.58c2.014 0 3.67 1.666 3.67 3.75 0 2.082-1.653 3.747-3.665 3.75m0 1.5h1.082c1.952 0 3.583 1.652 3.583 3.75s-1.63 3.75-3.583 3.75H8.28c-.728 0-1.199-.002-1.546-.048-.325-.044-.427-.115-.484-.172s-.128-.159-.172-.484c-.046-.347-.048-.818-.048-1.546v-5.25h6.835" clip-rule="evenodd"/></svg>