<svg xmlns="http://www.w3.org/2000/svg" width="25" height="24" fill="none"><path fill="#141B34" fill-rule="evenodd" d="M6.527 11.23V4.683a1.9 1.9 0 0 0-.382-.539 1.2 1.2 0 0 0-.52-.278c-.494-.14-1.162-.123-2.297-.097l-.033.001a.75.75 0 0 1-.035-1.5l.21-.004c.961-.024 1.843-.046 2.562.156a2.7 2.7 0 0 1 1.252.74 2.7 2.7 0 0 1 .955-.608c.762-.291 1.76-.34 3.071-.283a.75.75 0 1 1-.066 1.499c-1.3-.057-2.022.014-2.469.185-.332.127-.546.322-.748.726v6.549h2.25a.75.75 0 0 1 0 1.5h-2.25v6.167c.102.706.304.944.593 1.086.416.204 1.171.29 2.615.207a.75.75 0 1 1 .085 1.498c-1.421.08-2.55.04-3.36-.358a2.4 2.4 0 0 1-.693-.506 2.4 2.4 0 0 1-.73.547c-.821.406-1.938.432-3.322.315a.75.75 0 1 1 .125-1.494c1.39.116 2.122.037 2.532-.165.3-.149.522-.414.655-1.145V12.73h-2.25a.75.75 0 0 1 0-1.5zm12.055-.037c-.671-.08-1.347-.043-2.01.262-.657.302-1.223.831-1.746 1.59a.75.75 0 0 0 1.236.851c.423-.615.799-.923 1.137-1.079.333-.153.708-.194 1.203-.135 1.077.13 1.921.738 2.063 1.47.054.278.073.617.066 1.06h-2.12c-.451 0-.975.02-1.496.165-3.323.921-3.115 5.627.269 6.208.334.058.68.083 1.028.068.895-.04 1.666-.465 2.262-.924l.065-.051A.75.75 0 0 0 22 20.442v-4.458c.046-.814.053-1.513-.064-2.117-.323-1.67-1.996-2.51-3.355-2.674m-.17 5.52H20.5v1.24c0 .676-.386 1.158-.943 1.588-.476.367-.953.593-1.412.613a3.3 3.3 0 0 1-.708-.047c-1.769-.304-1.937-2.781-.123-3.284.32-.088.676-.11 1.096-.11" clip-rule="evenodd"/></svg>