<svg xmlns="http://www.w3.org/2000/svg" width="25" height="24" fill="none"><path fill="#141B34" fill-rule="evenodd" d="M4.031 4.25a.75.75 0 0 0 0 1.5h14a.75.75 0 0 0 0-1.5zm16.259 8.454a.75.75 0 0 0-.517-1.408c-.926.34-1.829.997-2.641 1.735-.82.746-1.592 1.617-2.251 2.437a34 34 0 0 0-1.523 2.05 5 5 0 0 0-1.014-1.103 4.3 4.3 0 0 0-.724-.473 3 3 0 0 0-.342-.15l-.01-.003a.75.75 0 0 0-.48 1.42c.024.01.09.039.147.068.114.058.282.157.472.309.376.301.85.82 1.172 1.678a.75.75 0 0 0 1.342.128l.002-.003.006-.01.029-.046.114-.18a33.051 33.051 0 0 1 1.977-2.745c.631-.784 1.35-1.591 2.092-2.267.752-.683 1.487-1.194 2.149-1.437M3.281 10a.75.75 0 0 1 .75-.75h11a.75.75 0 0 1 0 1.5h-11a.75.75 0 0 1-.75-.75m.75 4.25a.75.75 0 0 0 0 1.5h4a.75.75 0 0 0 0-1.5z" clip-rule="evenodd"/></svg>