<svg xmlns="http://www.w3.org/2000/svg" width="25" height="24" fill="none"><path fill="#141B34" fill-rule="evenodd" d="M3.752 2.416a.75.75 0 1 0-.941 1.168l1.542 1.242c.67.54 1.11.897 1.392 1.197.27.289.286.414.286.477s-.016.188-.286.477c-.282.3-.722.657-1.392 1.197L2.811 9.416a.75.75 0 1 0 .94 1.168l1.585-1.276c.617-.497 1.14-.919 1.503-1.305.382-.407.692-.885.692-1.503s-.31-1.096-.692-1.503c-.363-.386-.886-.808-1.503-1.305l-.042-.034zm7.53-.166a.75.75 0 0 0 0 1.5h10a.75.75 0 1 0 0-1.5zm0 6a.75.75 0 0 0 0 1.5h10a.75.75 0 1 0 0-1.5zm-8 6a.75.75 0 0 0 0 1.5h18a.75.75 0 1 0 0-1.5zM2.531 21a.75.75 0 0 1 .75-.75h18a.75.75 0 1 1 0 1.5h-18a.75.75 0 0 1-.75-.75" clip-rule="evenodd"/></svg>