<svg xmlns="http://www.w3.org/2000/svg" width="25" height="24" fill="none"><path fill="#141B34" fill-rule="evenodd" d="M15.482 2.77a.75.75 0 0 0-1.4-.539l-5 13a.75.75 0 1 0 1.4.538zm-9.2 11.48h.024c.086 0 .203 0 .318-.018.428-.07.793-.333 1.002-.703.056-.098.097-.207.129-.29l.009-.024 3.218-8.448a.75.75 0 1 0-1.401-.534L6.362 12.68l-.026.069h-.109l-.026-.069-3.219-8.448a.75.75 0 1 0-1.401.534l3.218 8.448.009.024c.032.083.073.191.129.29a1.42 1.42 0 0 0 1.32.721zm12-10.5h-.025c-.085 0-.203 0-.318.018-.428.07-.792.333-1.002.703-.056.099-.097.207-.129.29l-.009.024-3.218 8.448a.75.75 0 1 0 1.402.534l1.53-4.017h3.538l1.53 4.017a.75.75 0 1 0 1.402-.534l-3.219-8.448-.009-.024c-.031-.083-.072-.191-.128-.29a1.42 1.42 0 0 0-1.32-.721zm1.197 4.5h-2.395l1.117-2.931.026-.069h.109l.027.069zm.131 13.718a.75.75 0 0 1 .117-1.054l.83-.664h-8.275a.75.75 0 1 1 0-1.5h8.276l-.83-.664a.75.75 0 0 1 .936-1.172l1.086.869.035.028c.303.242.587.47.79.681.216.227.457.556.457 1.008s-.241.78-.458 1.008c-.202.211-.486.439-.789.68l-.035.029-1.086.869a.75.75 0 0 1-1.054-.117" clip-rule="evenodd"/></svg>