<svg xmlns="http://www.w3.org/2000/svg" width="25" height="24" fill="none"><path fill="#141B34" fill-rule="evenodd" d="M5.531 3.779a26 26 0 0 0-2.12.246l-.056.015c-.079.044-.232.213-.294.504-.026.117-.03.265-.03.79a.75.75 0 1 1-1.5 0v-.075c0-.416 0-.736.063-1.03.129-.597.483-1.196 1.036-1.502.278-.154.585-.196.859-.233l.067-.01c.816-.113 1.878-.234 2.725-.234s1.91.12 2.726.234l.067.01c.273.037.58.079.859.233.553.306.907.905 1.036 1.502.063.294.063.614.062 1.03v.074a.75.75 0 0 1-1.5 0c0-.524-.004-.672-.029-.789-.063-.291-.216-.46-.295-.504l-.056-.015a26.167 26.167 0 0 0-2.12-.246V14.25h.75a.75.75 0 0 1 0 1.5h-3a.75.75 0 0 1 0-1.5h.75zm12 0a26 26 0 0 0-2.12.246.4.4 0 0 0-.056.015c-.079.044-.232.213-.294.504-.026.117-.03.265-.03.79a.75.75 0 0 1-1.5 0v-.075c0-.416 0-.736.063-1.03.129-.597.483-1.196 1.036-1.502.278-.154.585-.196.858-.233l.068-.01c.816-.113 1.878-.234 2.725-.234s1.91.12 2.726.234l.067.01c.273.037.58.079.859.233.552.306.907.905 1.035 1.502.064.294.064.614.063 1.03v.074a.75.75 0 0 1-1.5 0c0-.524-.004-.672-.029-.789-.063-.291-.216-.46-.295-.504l-.056-.015a26.16 26.16 0 0 0-2.12-.246V14.25h.75a.75.75 0 0 1 0 1.5h-3a.75.75 0 0 1 0-1.5h.75zM2.281 18.25a.75.75 0 0 0 0 1.5h7.354a2.751 2.751 0 0 0 5.293 0h7.353a.75.75 0 1 0 0-1.5h-7.353a2.751 2.751 0 0 0-5.293 0zm11.25.75a1.25 1.25 0 1 0-2.5 0 1.25 1.25 0 0 0 2.5 0" clip-rule="evenodd"/></svg>