<svg xmlns="http://www.w3.org/2000/svg" width="25" height="24" fill="none"><path fill="#141B34" fill-rule="evenodd" d="M4.423 3.99c.962-.096 2.103-.19 3.108-.226V20.25H5.71a.75.75 0 0 0 0 1.5h5.143a.75.75 0 0 0 0-1.5H9.03V3.764c.385.014.79.036 1.2.064a.75.75 0 1 0 .101-1.497 31 31 0 0 0-2.05-.081c-1.229 0-2.787.126-4.008.247l-.082.008c-.433.043-.791.078-1.119.208-.68.27-1.23.854-1.44 1.556-.103.338-.102.707-.102 1.143V5.5a.75.75 0 1 0 1.5 0c0-.572.008-.7.038-.798a.97.97 0 0 1 .556-.594c.107-.043.24-.063.798-.118m9.91-.162c.41-.028.815-.05 1.2-.064V20.25H13.71a.75.75 0 0 0 0 1.5h5.143a.75.75 0 0 0 0-1.5h-1.822V3.764c1.006.035 2.147.13 3.11.226.557.055.69.075.797.118a.97.97 0 0 1 .556.594c.03.098.037.226.037.798a.75.75 0 0 0 1.5 0v-.088c0-.436.001-.805-.1-1.143a2.47 2.47 0 0 0-1.441-1.556c-.328-.13-.686-.165-1.12-.208l-.082-.008c-1.22-.121-2.778-.247-4.007-.247-.63 0-1.344.033-2.05.081a.75.75 0 1 0 .102 1.497" clip-rule="evenodd"/></svg>