<svg xmlns="http://www.w3.org/2000/svg" width="25" height="24" fill="none"><path fill="#141B34" fill-rule="evenodd" d="M3.562 2.47A.75.75 0 0 0 2.5 3.53l7.1 7.1-2.155 8.62H5.031a.75.75 0 0 0 0 1.5H7.99a1 1 0 0 0 .084 0h2.957a.75.75 0 1 0 0-1.5H8.992l1.846-7.383L20.5 21.53a.75.75 0 0 0 1.06-1.06L10.972 9.879l-.019-.019zM7.282 4a.75.75 0 0 1 .75-.75h3.999c1.391 0 3.206.03 4.665.18l.09.01c.512.052.916.093 1.284.244.765.313 1.37.99 1.6 1.783.066.225.09.469.1.703.011.235.011.511.011.816V7a.75.75 0 1 1-1.5 0c0-.322 0-.564-.009-.76-.01-.2-.026-.302-.041-.354a1.3 1.3 0 0 0-.73-.814c-.142-.058-.313-.083-.958-.15-1.19-.122-2.657-.162-3.926-.17l-.658 2.63a.75.75 0 0 1-1.455-.364l.567-2.268H8.03a.75.75 0 0 1-.75-.75" clip-rule="evenodd"/></svg>