<svg xmlns="http://www.w3.org/2000/svg" width="25" height="24" fill="none"><path fill="#141B34" fill-rule="evenodd" d="M8.281 4.25c-.524 0-.952.24-1.29.581-.321.325-.592.77-.841 1.274-.493 1-1.008 2.47-1.663 4.338l-2.913 8.309a.75.75 0 1 0 1.415.496l2.278-6.498h6.029l2.278 6.498a.75.75 0 0 0 1.415-.496l-2.913-8.31c-.655-1.867-1.17-3.338-1.663-4.337-.249-.505-.52-.949-.842-1.274-.337-.34-.765-.581-1.29-.581m2.489 7H5.793l.09-.254c.678-1.937 1.165-3.32 1.612-4.227.223-.453.41-.728.562-.882.136-.137.202-.137.224-.137h.001c.022 0 .088 0 .224.137.153.154.338.429.562.882.447.907.934 2.29 1.613 4.227zm8.81-2.096c-.673-.081-1.35-.043-2.014.263-.658.304-1.225.835-1.748 1.598a.75.75 0 1 0 1.237.849c.424-.62.8-.929 1.14-1.085.333-.154.709-.196 1.204-.136 1.077.131 1.924.741 2.067 1.48.054.28.074.622.066 1.07h-2.124c-.452 0-.976.02-1.499.165-3.324.924-3.119 5.645.27 6.229a4.8 4.8 0 0 0 1.03.068c.896-.04 1.669-.468 2.265-.929l.065-.05a.75.75 0 0 0 1.463-.234v-4.478c.047-.819.054-1.52-.063-2.126-.324-1.675-1.998-2.519-3.36-2.684m-.172 5.538h2.094v1.25c0 .681-.388 1.166-.946 1.598-.477.369-.955.596-1.414.616q-.35.015-.709-.047c-1.771-.306-1.943-2.8-.122-3.306.32-.089.677-.11 1.097-.11" clip-rule="evenodd"/></svg>