<svg xmlns="http://www.w3.org/2000/svg" width="25" height="24" fill="none"><path fill="#141B34" fill-rule="evenodd" d="M4.423 3.99c.962-.096 2.103-.19 3.108-.226V17.25H5.71a.75.75 0 0 0 0 1.5h5.143a.75.75 0 0 0 0-1.5H9.03V3.764c1.005.035 2.147.13 3.11.226.557.055.69.075.797.118a.97.97 0 0 1 .556.594c.03.098.037.226.037.798a.75.75 0 0 0 1.5 0v-.088c0-.436.001-.805-.1-1.143a2.47 2.47 0 0 0-1.441-1.556c-.328-.13-.686-.165-1.12-.208l-.082-.008c-1.22-.121-2.778-.247-4.007-.247s-2.786.126-4.007.247l-.082.008c-.433.043-.791.078-1.119.208-.68.27-1.23.854-1.44 1.556-.103.338-.102.707-.102 1.143V5.5a.75.75 0 1 0 1.5 0c0-.572.008-.7.038-.798a.97.97 0 0 1 .556-.594c.107-.043.24-.063.798-.118m11.31 8.919c.559-.056 1.204-.11 1.798-.139v7.48h-.964a.75.75 0 0 0 0 1.5h3.429a.75.75 0 0 0 0-1.5h-.965v-7.48c.595.029 1.24.083 1.798.139.387.038.433.05.465.062a.4.4 0 0 1 .223.236c.007.021.014.062.014.46a.75.75 0 0 0 1.5 0v-.069c.001-.278.002-.561-.078-.824a1.9 1.9 0 0 0-1.107-1.198c-.253-.1-.526-.127-.803-.154l-.066-.006c-.814-.081-1.864-.166-2.696-.166-.831 0-1.88.085-2.696.166l-.065.006c-.277.027-.55.054-.803.154a1.9 1.9 0 0 0-1.108 1.198c-.079.263-.078.546-.078.824v.069a.75.75 0 0 0 1.5 0c0-.398.008-.439.015-.46a.4.4 0 0 1 .223-.236c.032-.012.078-.024.465-.062" clip-rule="evenodd"/></svg>