<svg xmlns="http://www.w3.org/2000/svg" width="25" height="24" fill="none"><path fill="#141B34" fill-rule="evenodd" d="M12.84 20.788c-.965 0-1.415-.796-2.4-2.54l-.062-.11L3.88 6.677l-.005-.01c-.288-.51-.582-1.03-.82-1.396a42 42 0 0 0-.023 1.787v12.98a.75.75 0 0 1-1.5 0V7.06c0-.98 0-1.755.06-2.31.103-.969.483-1.46 1.13-1.46.964 0 1.433.83 2.46 2.646l.003.005 6.562 11.571.048.084c.26.46.509.899.713 1.22.023-.488.023-1.148.023-1.795V4.04a.75.75 0 0 1 1.5 0v12.98c0 .98 0 1.755-.059 2.31-.104.969-.484 1.46-1.13 1.46zm9.437-6.999h-6a.75.75 0 0 1 0-1.5h6a.75.75 0 0 1 0 1.5m-5.949-3.803c.72.72 2.303.797 2.95.797s2.231-.077 2.95-.797c.72-.719.797-2.303.797-2.95s-.078-2.23-.797-2.95c-.719-.719-2.303-.797-2.95-.797s-2.23.077-2.95.797c-.719.72-.797 2.303-.797 2.95s.078 2.231.797 2.95m1.06-4.84c.112-.112.744-.358 1.89-.358s1.778.246 1.89.358.358.744.358 1.89-.246 1.778-.358 1.89-.744.358-1.89.358-1.778-.246-1.89-.358-.358-.744-.358-1.89.246-1.778.358-1.89" clip-rule="evenodd"/></svg>