<svg xmlns="http://www.w3.org/2000/svg" width="25" height="24" fill="none"><path fill="#141B34" fill-rule="evenodd" d="M13.281 2.25a.75.75 0 0 1 .75.75v18a.75.75 0 1 1-1.5 0V3a.75.75 0 0 1 .75-.75m-9 1.5a.75.75 0 0 0 0 1.5h5a.75.75 0 0 0 0-1.5zm2 5a.75.75 0 0 0 0 1.5h3a.75.75 0 0 0 0-1.5zm-2.75 5.75a.75.75 0 0 1 .75-.75h5a.75.75 0 0 1 0 1.5h-5a.75.75 0 0 1-.75-.75m2.75 4.25a.75.75 0 0 0 0 1.5h3a.75.75 0 0 0 0-1.5zm13.53-10.834a.75.75 0 0 1 .94 1.168l-1.542 1.242c-.67.54-1.11.897-1.391 1.197-.27.289-.287.414-.287.477s.016.188.287.477c.282.3.721.657 1.391 1.197l1.543 1.242a.75.75 0 1 1-.941 1.168l-1.585-1.276c-.616-.497-1.14-.919-1.502-1.305-.382-.407-.693-.885-.693-1.503s.31-1.096.693-1.503c.362-.386.886-.808 1.502-1.305l.043-.034z" clip-rule="evenodd"/></svg>