<svg xmlns="http://www.w3.org/2000/svg" width="25" height="24" fill="none"><path fill="#141B34" fill-rule="evenodd" d="M22.281 14.735a.75.75 0 0 1-.707-.502L19.82 9.235h-4.077l-1.754 4.998a.749.749 0 1 1-1.415-.497l1.924-5.484.005-.014.006-.018 1.684-4.814.004-.01.004-.012.013-.036.023-.059c.028-.078.057-.158.105-.242a1.5 1.5 0 0 1 1.066-.793c.12-.02.22-.02.373-.02a2 2 0 0 1 .384.022c.447.081.84.376 1.055.791.044.08.072.155.099.227l.006.015.007.02q.011.034.029.075l.005.013.003.01 1.684 4.813.002.008.009.024 1.924 5.484a.75.75 0 0 1-.707 1m-6.012-7h3.026l-1.337-3.823-.021-.055-.03-.08-.007-.02-.01-.018-.002-.005h-.213q0 0-.002.003l-.001.002-.01.018-.006.019-.01.027-.017.045-.024.064-1.337 3.822m1.385-3.96-.008.015zm2.628 17.96a.75.75 0 0 1-.524-1.287c.135-.131.331-.285.58-.48l.01-.009.283-.224H3.933l.283.224.011.009c.248.195.444.349.58.48a.75.75 0 1 1-1.049 1.074 8 8 0 0 0-.445-.364l-.024-.019c-1.062-.834-1.758-1.434-1.758-2.154s.696-1.32 1.758-2.154l.024-.019c.184-.145.37-.29.445-.364a.751.751 0 0 1 1.048 1.074 8 8 0 0 1-.579.48l-.01.01c-.076.058-.175.136-.284.223h16.698l-.283-.224-.01-.009a8 8 0 0 1-.58-.48.75.75 0 1 1 1.048-1.074c.076.074.261.22.445.364l.024.02c1.062.833 1.758 1.433 1.758 2.153s-.696 1.32-1.758 2.154l-.023.019c-.185.145-.37.29-.446.364a.75.75 0 0 1-.524.213M6.41 14.714c.12.02.22.02.373.02s.253 0 .374-.02l.01-.002c.448-.082.84-.376 1.056-.791.048-.084.077-.164.105-.242l.022-.06.014-.035.004-.01q0-.006.004-.011l3.62-10.33a.75.75 0 1 0-1.416-.496l-3.616 10.32-.025.064-.016.045-.01.027-.007.019-.01.018-.001.002-.001.003h-.213q-.002-.002-.003-.005l-.01-.018-.007-.02-.01-.026-.02-.054-.02-.055L2.99 2.737a.75.75 0 0 0-1.416.496l3.62 10.33.004.01.004.01.028.075.008.02.005.015c.027.073.056.148.1.228a1.5 1.5 0 0 0 1.066.793m.51-1.535-.008.015z" clip-rule="evenodd"/></svg>