<svg xmlns="http://www.w3.org/2000/svg" width="25" height="24" fill="none"><path fill="#141B34" fill-rule="evenodd" d="M3.031 12a9.25 9.25 0 1 1 18.5 0 9.25 9.25 0 0 1-18.5 0m9.25-10.75C6.344 1.25 1.531 6.063 1.531 12s4.813 10.75 10.75 10.75 10.75-4.813 10.75-10.75-4.813-10.75-10.75-10.75M8.592 8.156a12.8 12.8 0 0 1 2.906-.421v8.492H10.6a.75.75 0 0 0 0 1.5h3.312a.75.75 0 0 0 0-1.5h-.914V7.76c.981.065 1.961.223 2.916.459.416.103.505.205.529.24.026.038.098.183.038.664a.75.75 0 0 0 1.488.185c.074-.595.052-1.196-.285-1.693-.34-.5-.883-.722-1.41-.852-2.599-.642-5.433-.766-8.071-.057-.559.15-1.094.403-1.416.926-.311.506-.319 1.103-.244 1.68a.75.75 0 1 0 1.488-.193c-.063-.48-.001-.644.034-.701.025-.04.113-.152.527-.263" clip-rule="evenodd"/></svg>