<svg xmlns="http://www.w3.org/2000/svg" width="25" height="24" fill="none"><path fill="#141B34" fill-rule="evenodd" d="M7.531 7.667c0-2.053 2.007-3.917 4.75-3.917 2.744 0 4.75 1.864 4.75 3.917a.75.75 0 0 0 1.5 0c0-3.103-2.918-5.417-6.25-5.417s-6.25 2.314-6.25 5.417c0 .54.06 1.055.195 1.537a.75.75 0 0 0 1.444-.408 4.2 4.2 0 0 1-.139-1.13m7.552 5.083H4.28a.75.75 0 0 1 0-1.5h16a.75.75 0 1 1 0 1.5H17.88q.123.142.236.296c.635.878.915 1.987.915 3.287 0 1.902-.783 3.304-2.08 4.2-1.259.87-2.93 1.217-4.67 1.217-3.541 0-6.75-2.26-6.75-5.417a.75.75 0 0 1 1.5 0c0 1.999 2.164 3.917 5.25 3.917 1.574 0 2.903-.32 3.817-.95.873-.604 1.433-1.535 1.433-2.967 0-1.092-.235-1.86-.63-2.407-.378-.522-.959-.919-1.818-1.176" clip-rule="evenodd"/></svg>