<svg xmlns="http://www.w3.org/2000/svg" width="25" height="24" fill="none"><path fill="#141B34" fill-rule="evenodd" d="M2.531 3a.75.75 0 0 1 .75-.75h18a.75.75 0 1 1 0 1.5h-18a.75.75 0 0 1-.75-.75m0 18a.75.75 0 0 1 .75-.75h18a.75.75 0 1 1 0 1.5h-18a.75.75 0 0 1-.75-.75m.75-12.75a.75.75 0 0 0 0 1.5h6a.75.75 0 0 0 0-1.5zM2.531 15a.75.75 0 0 1 .75-.75h6a.75.75 0 0 1 0 1.5h-6a.75.75 0 0 1-.75-.75m14.802-7.75h-.104c-.898 0-1.647 0-2.242.08-.628.084-1.195.27-1.65.725-.456.456-.641 1.023-.726 1.65-.08.595-.08 1.345-.08 2.243v.104c0 .899 0 1.648.08 2.242.085.628.27 1.195.726 1.65.455.456 1.022.642 1.65.726.595.08 1.344.08 2.242.08h.104c.899 0 1.648 0 2.243-.08.627-.084 1.194-.27 1.65-.726s.64-1.022.725-1.65c.08-.594.08-1.344.08-2.242v-.104c0-.899 0-1.648-.08-2.242-.084-.628-.27-1.195-.725-1.65-.456-.456-1.023-.642-1.65-.726-.595-.08-1.344-.08-2.243-.08m-2.936 1.866c.13-.13.328-.237.79-.3.483-.064 1.13-.066 2.094-.066s1.612.002 2.095.067c.461.062.659.169.79.3.13.13.237.327.299.788.065.483.066 1.131.066 2.095s-.001 1.612-.066 2.095c-.062.461-.17.659-.3.789s-.328.237-.79.3c-.482.064-1.13.066-2.094.066s-1.611-.002-2.094-.066c-.462-.063-.66-.17-.79-.3s-.237-.328-.3-.79c-.064-.482-.066-1.13-.066-2.094s.002-1.612.067-2.095c.062-.461.17-.659.3-.789" clip-rule="evenodd"/></svg>