<svg xmlns="http://www.w3.org/2000/svg" width="25" height="24" fill="none"><path fill="#141B34" d="M18.61 22.734a.75.75 0 0 1-.75-.75V20.82c0-.688.26-1.372.73-1.925.479-.567.822-1.073.94-1.384.27-.734.27-1.778.27-3.86v-1.473c0-.605-.428-1.135-.997-1.234l-.33-.057c-.006 0-.024-.004-.047.015a.1.1 0 0 0-.036.082v1a.75.75 0 0 1-1.5 0v-6.5c0-.414-.314-.75-.7-.75s-.71.336-.71.75v5.5a.75.75 0 0 1-1.5 0v-7.5c0-.414-.314-.75-.7-.75s-.71.336-.71.75v6.5a.75.75 0 0 1-1.5 0v-5c0-.413-.314-.749-.7-.749s-.71.336-.71.75v8.461a.75.75 0 0 1-1.29.521L6.8 12.341a.844.844 0 0 0-1.297.078.98.98 0 0 0-.02 1.167l3.485 4.591c.718.943 1.183 2.438 1.183 3.806a.75.75 0 0 1-1.5 0c0-1.045-.352-2.21-.877-2.899l-3.491-4.599-.01-.012a2.48 2.48 0 0 1 .046-2.975 2.37 2.37 0 0 1 1.739-.92 2.35 2.35 0 0 1 1.82.721l.282.291V4.985c0-1.24.99-2.25 2.21-2.25.275 0 .538.052.78.146.26-.949 1.117-1.647 2.13-1.647 1.17 0 2.13.94 2.196 2.12q.338-.119.714-.12c1.213 0 2.2 1.01 2.2 2.25v3.904q.169-.008.337.021l.33.057c1.299.225 2.242 1.366 2.242 2.712v1.473c0 2.26 0 3.394-.367 4.385-.185.49-.588 1.103-1.2 1.828a1.5 1.5 0 0 0-.373.955v1.165a.75.75 0 0 1-.75.75z"/></svg>