<svg xmlns="http://www.w3.org/2000/svg" width="25" height="24" fill="none"><path fill="#141B34" d="M12.254 22.254a8.4 8.4 0 0 1-1.871-.187c-.264-.051-2.377-.523-3.736-2.818-.198-.337-.483-.725-.785-1.135-1.123-1.527-2.66-3.617-1.374-5.659.805-1.285 2.284-2.65 3.024-3.308V5.985c0-1.262.971-2.251 2.21-2.251.275 0 .54.048.785.137a2.253 2.253 0 0 1 2.246-2.121c1.197 0 2.172.936 2.246 2.114a2.254 2.254 0 0 1 3.004 2.124v2.864c.657.039 1.395.227 1.971.67.581.446.934 1.096 1.023 1.879l.006.084v3.956c.008 1.36.017 3.052-1.221 4.548-.817 1.181-2.349 1.792-2.523 1.858l-.032.01c-1.293.428-2.488.4-3.363.38-.256-.006-.497-.012-.696-.004-.323.012-.623.02-.914.02m-4.742-11.06c-.627.615-1.319 1.364-1.754 2.06-.69 1.094.11 2.336 1.312 3.972.325.442.633.86.87 1.262 1.052 1.778 2.657 2.094 2.725 2.107l.03.006c.8.177 1.478.169 2.421.135.244-.01.506-.003.785.004.802.019 1.8.042 2.84-.298.366-.144 1.366-.646 1.82-1.322l.048-.064c.91-1.082.902-2.365.895-3.605v-3.918c-.049-.36-.194-.628-.442-.819-.299-.23-.702-.326-1.059-.356v1.124a.75.75 0 0 1-1.5 0V5.989a.75.75 0 0 0-.75-.754.75.75 0 0 0-.75.75v4.493a.75.75 0 0 1-1.5 0V4.005a.75.75 0 0 0-.75-.754.75.75 0 0 0-.75.751v6.483a.75.75 0 0 1-1.5 0V5.989c0-.409-.357-.754-.78-.754s-.71.323-.71.75v8.008a.75.75 0 0 1-1.5 0v-2.798"/></svg>