<svg xmlns="http://www.w3.org/2000/svg" width="24" height="24" fill="none"><path fill="#141B34" fill-rule="evenodd" d="M6.038 13.742h.34v.02c1.65 0 2.56 0 3.36-.45.08-.04.16-.09.23-.14.768-.503 1.139-1.276 1.808-2.674l.032-.066c.8-1.66 1.23-2.58.73-3.46-.06-.1-.12-.2-.2-.29-.63-.77-1.66-.77-3.55-.77h-.71c.03-.1.07-.22.11-.34l.18-.56.04-.128a3.144 3.144 0 0 0-.33-2.662 4 4 0 0 0-.21-.31l-.055-.077c-.045-.063-.073-.101-.095-.123a1.45 1.45 0 0 0-2-.13c-.05.04-.1.09-.2.2l-2.73 2.93c-.7.75-1.09 1.17-1.31 1.73-.23.56-.23 1.12-.23 2.12v.63c0 1.94 0 3.01.83 3.79.8.76 1.92.76 3.96.76m.55-11.027v.087l-2.71 2.93c-.64.68-.9.97-1.01 1.26s-.12.66-.12 1.57v.63c0 1.64.01 2.38.36 2.7.38.35 1.29.35 2.94.35h.34c1.44 0 2.17 0 2.63-.26.04-.02.09-.05.13-.08.42-.27.69-.82 1.31-2.13l.08-.17c.414-.873.813-1.713.7-1.91-.23-.29-1.26-.29-2.45-.29h-.27c-.6 0-.97 0-1.32-.21-.29-.18-.5-.45-.61-.77-.126-.397-.017-.747.144-1.268l.016-.052.18-.56c.04-.13.06-.19.08-.25.11-.43.04-.89-.21-1.28-.018-.031-.04-.062-.072-.105l-.068-.095zm11.374 7.547h-.34v-.02c-1.65 0-2.56 0-3.36.45-.08.04-.16.09-.23.14-.768.502-1.138 1.276-1.808 2.674l-.032.066c-.8 1.66-1.23 2.58-.73 3.46.06.1.12.2.2.29.63.77 1.66.77 3.55.77h.71c-.03.1-.07.22-.11.34l-.18.56-.04.128a3.144 3.144 0 0 0 .33 2.662c.038.066.084.132.19.28l.02.03.055.077c.046.063.073.101.095.123.51.57 1.41.63 2 .13.05-.04.1-.09.2-.2l2.73-2.93c.7-.75 1.09-1.17 1.31-1.73.23-.56.23-1.12.23-2.12v-.63c0-1.94 0-3.01-.83-3.79-.8-.76-1.92-.76-3.96-.76m-.55 11.026v-.086l2.71-2.93c.64-.68.9-.97 1.01-1.26s.12-.66.12-1.57v-.63c0-1.64-.01-2.38-.36-2.7-.38-.35-1.29-.35-2.94-.35h-.34c-1.44 0-2.17 0-2.63.26-.04.02-.09.05-.13.08-.42.27-.69.82-1.31 2.13l-.08.17c-.414.872-.812 1.713-.7 1.91.23.29 1.26.29 2.45.29h.27c.6 0 .97 0 1.32.21.29.18.5.45.61.77.126.397.018.747-.144 1.268l-.016.052-.18.56c-.04.13-.06.19-.08.25-.11.43-.04.89.21 1.28.019.031.041.062.072.105l.068.095z" clip-rule="evenodd"/></svg>