<svg xmlns="http://www.w3.org/2000/svg" width="24" height="24" fill="none"><path fill="#141B34" fill-rule="evenodd" d="M13.064 2.758h.51c2.49 0 3.74 0 4.87.65.11.06.22.13.32.2 1.065.726 1.615 1.909 2.606 4.04l.014.03c1.17 2.51 1.75 3.77 1.1 4.95-.08.13-.16.26-.26.38-.83 1.04-2.24 1.04-5.05 1.04h-.4c-.44 0-.89 0-.99.04a.25.25 0 0 0-.1.11c-.008.092.082.388.182.717l.058.193.27.86.047.161a4.539 4.539 0 0 1-.437 3.778c-.05.093-.115.186-.23.35l-.07.1c-.1.15-.16.23-.21.29-.65.73-1.77.8-2.5.16-.036-.028-.078-.073-.156-.157l-.104-.112-4.09-4.53-.037-.041c-1.025-1.133-1.547-1.709-1.853-2.5a4 4 0 0 1-.06-.165 3.74 3.74 0 0 1-2.5.956c-1.52 0-2.75-1.23-2.75-2.75v-6c0-1.52 1.23-2.75 2.75-2.75 1.226 0 2.316.59 3 1.5q.16-.228.37-.43c1.11-1.07 2.64-1.07 5.7-1.07m-6.82 7.59v-3.84c0-1.24-1.01-2.25-2.25-2.25-.69 0-1.25.56-1.25 1.25v6c0 .69.56 1.25 1.25 1.25 1.24 0 2.25-1.01 2.25-2.25zm7.54 9.34c.05.05.11.07.18.07l.01.02c.07 0 .15-.03.2-.09.024-.024.047-.06.085-.116l.035-.054.117-.172a3.05 3.05 0 0 0 .483-2.508c-.011-.058-.03-.116-.054-.194-.019-.058-.04-.127-.066-.216l-.27-.87-.007-.022c-.245-.806-.381-1.253-.233-1.748.12-.39.39-.74.74-.96.43-.27.91-.27 1.79-.27h.4c2.18 0 3.5 0 3.88-.48a1 1 0 0 0 .11-.17c.275-.51-.24-1.629-1.102-3.496l-.048-.104-.064-.138c-.877-1.878-1.323-2.834-2.046-3.322-.07-.05-.15-.1-.22-.14-.78-.45-1.9-.45-4.12-.45h-.51c-2.66 0-3.99 0-4.66.65-.63.62-.66 1.75-.66 4.48v.97c0 1.36 0 2.05.21 2.58.21.54.67 1.05 1.6 2.08l4.12 4.56q.045.046.072.078z" clip-rule="evenodd"/></svg>