<svg xmlns="http://www.w3.org/2000/svg" width="24" height="24" fill="none"><path fill="#141B34" fill-rule="evenodd" d="M12.794 3.187c.73-.64 1.85-.57 2.5.16.05.06.11.14.21.29q.04.055.071.102c.114.163.18.256.23.348a4.54 4.54 0 0 1 .437 3.779l-.048.161-.27.86-.058.193c-.1.33-.19.625-.182.717.01.03.05.08.1.11.1.04.55.04.99.04h1.002c2.414.006 3.68.077 4.448 1.04.1.12.18.25.26.38.65 1.18.07 2.44-1.1 4.95l-.014.03c-.99 2.132-1.54 3.314-2.606 4.04-.1.07-.21.14-.32.2-1.13.65-2.38.65-4.87.65h-.832c-2.847-.001-4.308-.038-5.378-1.07a3 3 0 0 1-.37-.43 3.75 3.75 0 0 1-3 1.5c-1.52 0-2.75-1.23-2.75-2.75v-6c0-1.52 1.23-2.75 2.75-2.75.96 0 1.837.362 2.5.956l.06-.166c.306-.79.828-1.366 1.853-2.498l.037-.042 4.09-4.53.104-.111c.078-.084.12-.13.156-.159m-8.8 8.05c-.69 0-1.25.56-1.25 1.25v6c0 .69.56 1.25 1.25 1.25 1.24 0 2.25-1.01 2.25-2.25v-4c0-1.24-1.01-2.25-2.25-2.25m9.98-7.02-.01.02a.24.24 0 0 0-.208.102q-.026.031-.072.078l-4.12 4.56c-.93 1.03-1.39 1.54-1.6 2.08-.21.53-.21 1.22-.21 2.58v.97c0 2.73.03 3.86.66 4.48.617.598 1.792.646 4.047.65h1.433c2.016 0 3.067-.021 3.81-.45.07-.04.15-.09.22-.14.723-.488 1.17-1.443 2.046-3.322l.064-.138.048-.104c.861-1.867 1.377-2.985 1.102-3.496a1 1 0 0 0-.11-.17c-.345-.436-1.468-.476-3.307-.48h-1.185c-.748-.002-1.184-.022-1.578-.27-.35-.22-.62-.57-.74-.96-.148-.495-.012-.941.233-1.747l.007-.023.27-.87c.026-.089.047-.158.066-.216.024-.078.043-.136.054-.194a3.05 3.05 0 0 0-.483-2.508l-.117-.172-.035-.053c-.038-.058-.06-.093-.085-.117a.27.27 0 0 0-.2-.09" clip-rule="evenodd"/></svg>