<svg xmlns="http://www.w3.org/2000/svg" width="24" height="24" fill="none"><path fill="#141B34" fill-rule="evenodd" d="M17.159 4.022c1.518-1.26 3.74-.927 4.897.625 1.09 1.462.881 3.535-.521 4.723-.875.742-1.703 1.429-2.497 2.086-2.552 2.116-4.748 3.936-7.016 6.362l-.035.038c-.812.869-1.47 1.572-2.041 2.051-.584.488-1.199.85-1.93.843-.722-.006-1.314-.352-1.871-.83-.54-.46-1.145-1.132-1.887-1.955l-2.1-2.329a3.54 3.54 0 0 1-.32-4.322 3.498 3.498 0 0 1 5.545-.387l1.29 1.46c2.485-2.87 5.112-5.566 8.486-8.365m3.694 1.521c-.667-.895-1.91-1.052-2.737-.366-3.309 2.745-5.883 5.387-8.332 8.22l-.028.032c-.093.109-.233.273-.402.379a1.27 1.27 0 0 1-1.346.007c-.17-.104-.312-.266-.404-.372l-.029-.033-1.316-1.49a1.998 1.998 0 0 0-3.17.222 2.04 2.04 0 0 0 .184 2.49l2.064 2.29c.786.871 1.327 1.469 1.783 1.859.446.382.703.468.909.47.194.001.463-.083.954-.494.493-.413 1.088-1.047 1.943-1.963 2.34-2.503 4.63-4.4 7.2-6.53.784-.65 1.594-1.321 2.44-2.038.784-.665.914-1.842.287-2.683" clip-rule="evenodd"/></svg>