<svg xmlns="http://www.w3.org/2000/svg" width="24" height="24" fill="none"><path fill="#141B34" fill-rule="evenodd" d="M9.948 2.75h4.106c1.607 0 2.876 0 3.886.113 1.036.115 1.886.357 2.618.9.504.372.94.834 1.288 1.362.646.976.836 2.158.904 3.721v6.308c-.068 1.563-.258 2.745-.904 3.72-.349.53-.784.99-1.288 1.364-.732.542-1.582.784-2.618.9-1.01.112-2.279.112-3.886.112H9.948q-1.003.002-1.837-.008a.8.8 0 0 1-.247-.004 20 20 0 0 1-1.802-.1c-1.036-.116-1.886-.358-2.618-.9a5.4 5.4 0 0 1-1.288-1.363c-.646-.976-.836-2.158-.904-3.72-.032-.747.597-1.249 1.214-1.249.932 0 1.76-.812 1.76-1.906s-.828-1.906-1.76-1.906c-.617 0-1.246-.502-1.214-1.248.068-1.563.258-2.745.904-3.72.349-.53.785-.99 1.288-1.364.732-.542 1.582-.784 2.618-.9a20 20 0 0 1 1.802-.1.8.8 0 0 1 .247-.004C8.67 2.75 9.28 2.75 9.948 2.75M7.25 4.28V7a.75.75 0 0 0 1.5 0V4.252q.572-.002 1.243-.002h4.014c1.663 0 2.848.001 3.766.103.901.101 1.457.292 1.891.614.36.267.675.6.93.986.404.61.589 1.432.656 2.942v6.21c-.067 1.51-.252 2.332-.656 2.942-.255.386-.57.719-.93.986-.434.322-.99.513-1.891.613-.918.103-2.103.104-3.766.104H9.994q-.67 0-1.243-.002V17a.75.75 0 0 0-1.5 0v2.72a15 15 0 0 1-1.023-.073c-.901-.101-1.457-.292-1.891-.614-.36-.267-.675-.6-.93-.986-.378-.57-.564-1.325-.641-2.655 1.692-.16 2.96-1.653 2.96-3.392s-1.268-3.233-2.96-3.392c.077-1.33.263-2.085.64-2.655.256-.386.57-.719.93-.986.435-.322.99-.513 1.892-.614.308-.034.646-.057 1.023-.072m6.872 6.55.375-.758.376.757c.102.21.26.368.404.475s.342.213.57.251l.643.108-.523.527a1.35 1.35 0 0 0-.33.579c-.052.186-.079.42-.026.659l.127.555-.558-.334a1.34 1.34 0 0 0-.68-.178 1.35 1.35 0 0 0-.678.176l-.563.336.126-.55v-.005a1.36 1.36 0 0 0-.026-.66 1.35 1.35 0 0 0-.329-.578l-.522-.527.642-.108h.002c.228-.04.424-.146.567-.252s.3-.265.402-.474m.376-2.58c.609 0 .996.455 1.192.85v.001l.49.989.872.146c.439.074.963.317 1.143.88s-.106 1.066-.42 1.38l-.001.002-.68.685.193.844c.099.429.129 1.11-.414 1.508-.545.401-1.187.163-1.565-.062l-.81-.483-.809.483c-.38.227-1.02.462-1.564.06-.541-.397-.514-1.076-.415-1.507l.193-.843-.682-.687c-.312-.315-.596-.816-.418-1.378.178-.564.703-.808 1.142-.882l.869-.146.49-.99.001-.001c.197-.395.585-.849 1.193-.849" clip-rule="evenodd"/></svg>