<svg xmlns="http://www.w3.org/2000/svg" width="24" height="24" fill="none"><path fill="#141B34" fill-rule="evenodd" d="M18.753 3.427c1.513-.54 3.226.19 3.807 1.694.289.746.243 1.45-.12 2.081-.332.58-.897 1.035-1.504 1.426q-.313.2-.642.402c-.815.505-1.706 1.057-2.656 1.895-1.199 1.057-2.379 2.34-3.437 3.616a54 54 0 0 0-2.583 3.39 54 54 0 0 0-.885 1.308l-.07.107-.022.033a3 3 0 0 1-2.568 1.37 2.99 2.99 0 0 1-2.536-1.44c-.958-1.61-1.658-2.179-1.896-2.34A6 6 0 0 0 3 16.612l-.01-.005a5.6 5.6 0 0 1-.757-.442 2.3 2.3 0 0 1-.709-.8c-.186-.356-.274-.764-.274-1.23 0-1.622 1.36-2.884 2.972-2.884h.028c1.048.039 1.987.45 2.776.98q.458.306.934.731a57 57 0 0 1 1.61-2.036c1.172-1.412 2.565-2.94 4.069-4.267 1.471-1.297 3.22-2.557 5.114-3.231M9.384 18.56l.026-.04.072-.11.247-.37c.197-.295.45-.67.662-.972.65-.926 1.57-2.178 2.655-3.486 1.088-1.311 2.323-2.657 3.6-3.783 1.054-.93 2.079-1.564 2.902-2.073q.31-.19.577-.36c.55-.355.865-.65 1.015-.911.12-.209.16-.436.021-.794-.273-.706-1.117-1.103-1.905-.822-1.635.582-3.216 1.7-4.625 2.943-1.426 1.258-2.764 2.723-3.907 4.1a57 57 0 0 0-2.07 2.658.75.75 0 0 1-1.15.07 7.8 7.8 0 0 0-1.315-1.136c-.633-.426-1.3-.697-1.98-.725-.836.007-1.459.652-1.459 1.383 0 .275.05.435.103.535.052.099.13.187.263.284.143.104.318.196.563.322l.032.016c.224.115.499.255.766.435.47.315 1.31 1.07 2.349 2.816.252.424.73.702 1.265.708a1.5 1.5 0 0 0 1.286-.677z" clip-rule="evenodd"/></svg>