<svg xmlns="http://www.w3.org/2000/svg" width="24" height="24" fill="none"><path fill="#141B34" fill-rule="evenodd" d="M12.057 1.75h-.114c-2.19 0-3.912 0-5.255.18-1.377.186-2.469.573-3.327 1.43-.858.86-1.245 1.951-1.43 3.328-.181 1.343-.181 3.064-.181 5.255v.114c0 2.19 0 3.912.18 5.255.186 1.377.573 2.469 1.43 3.327.86.858 1.951 1.245 3.328 1.43 1.343.181 3.064.181 5.255.181h.114c2.19 0 3.912 0 5.255-.18 1.377-.186 2.469-.573 3.327-1.43.858-.86 1.245-1.951 1.43-3.328.181-1.343.181-3.064.181-5.255v-.114c0-2.19 0-3.912-.18-5.255-.186-1.377-.573-2.469-1.43-3.327-.86-.858-1.951-1.245-3.328-1.43-1.343-.181-3.064-.181-5.255-.181M4.422 4.422c.533-.533 1.256-.842 2.466-1.005C8.12 3.252 9.74 3.25 12 3.25s3.88.002 5.112.167c1.21.163 1.933.472 2.466 1.005s.842 1.256 1.005 2.466c.165 1.232.167 2.852.167 5.112s-.002 3.88-.167 5.112c-.163 1.21-.471 1.933-1.005 2.466s-1.256.842-2.466 1.005c-1.232.165-2.852.167-5.112.167s-3.88-.002-5.112-.167c-1.21-.163-1.933-.471-2.466-1.005s-.842-1.256-1.005-2.466C3.252 15.88 3.25 14.26 3.25 12s.002-3.88.167-5.112c.163-1.21.472-1.933 1.005-2.466m9.802 1.553a.75.75 0 0 0-1.494-.093q-.032.247-.002.523l.073 8.302c-.31 1.01-.581 1.496-.782 1.752-.162.205-.283.276-.482.394q-.053.03-.113.067a2.45 2.45 0 0 1-2.051.266c-.615-.185-1.092-.553-1.297-.776a3.6 3.6 0 0 1-.687-1.37c-.154-.6-.147-1.262.2-1.905.703-1.299 2.171-1.48 2.842-1.385a.75.75 0 1 0 .21-1.485c-.97-.137-3.24.066-4.37 2.156-.57 1.052-.559 2.119-.336 2.992.22.86.655 1.57 1.01 1.983l.014.015c.367.405 1.076.938 1.98 1.211.933.281 2.09.289 3.26-.418l.082-.048c.219-.127.57-.33.916-.77.376-.475.725-1.192 1.074-2.355a.8.8 0 0 0 .031-.222l-.051-5.786c.755.629 1.799 1.11 3.161 1.23a.75.75 0 1 0 .132-1.494c-1.34-.119-2.194-.668-2.7-1.246-.406-.464-.572-.923-.617-1.212z" clip-rule="evenodd"/></svg>