<svg xmlns="http://www.w3.org/2000/svg" width="25" height="24" fill="none"><path fill="#141B34" fill-rule="evenodd" d="M13.75 2.75H15a.75.75 0 0 0 0-1.5h-4a.75.75 0 0 0 0 1.5h1.25v.58a9.8 9.8 0 0 0-4.578 1.836.8.8 0 0 0-.142-.196l-1-1a.75.75 0 0 0-1.06 1.06l1 1q.045.047.098.083a9.68 9.68 0 0 0-2.813 5.805.75.75 0 0 0 1.49.164C5.701 7.964 9.248 4.75 13.5 4.75a8.25 8.25 0 1 1 0 16.5h-11a.75.75 0 0 0 0 1.5h11c5.385 0 9.75-4.365 9.75-9.75a9.73 9.73 0 0 0-3.341-7.348l.621-.622a.75.75 0 0 0-1.06-1.06l-.777.776a9.7 9.7 0 0 0-4.943-1.493zm3.78 6.78a.75.75 0 0 0-1.06-1.06l-2.5 2.5a2.25 2.25 0 1 0 1.06 1.06zM12.25 13a.75.75 0 1 1 1.5 0 .75.75 0 0 1-1.5 0m-10.5 2a.75.75 0 0 1 .75-.75h3a.75.75 0 0 1 0 1.5h-3a.75.75 0 0 1-.75-.75m.75 3.25a.75.75 0 0 0 0 1.5h5a.75.75 0 0 0 0-1.5z" clip-rule="evenodd"/></svg>