<svg xmlns="http://www.w3.org/2000/svg" width="25" height="24" fill="none"><path fill="#141B34" fill-rule="evenodd" d="M3.25 12a9.25 9.25 0 1 1 18.315 1.85.75.75 0 1 0 1.47.3q.213-1.046.215-2.15c0-5.937-4.813-10.75-10.75-10.75S1.75 6.063 1.75 12 6.563 22.75 12.5 22.75q.558 0 1.102-.056a.75.75 0 0 0-.152-1.492q-.468.048-.95.048A9.25 9.25 0 0 1 3.25 12m9.25-4.75a.75.75 0 0 1 .75.75v3.69l1.28 1.28a.75.75 0 1 1-1.06 1.06l-1.5-1.5a.75.75 0 0 1-.22-.53V8a.75.75 0 0 1 .75-.75m6.742 7.917.046.025 1.114.601.055.03c.771.417 1.427.771 1.883 1.118.479.363.91.848.91 1.559 0 .71-.431 1.196-.91 1.56-.456.346-1.112.7-1.883 1.117l-.055.03-1.16.626c-.59.318-1.093.59-1.487.746a2.3 2.3 0 0 1-.67.168 1.15 1.15 0 0 1-.815-.246c-.416-.34-.533-.807-.519-1.21.014-.377.14-.747.269-1.047.134-.31.3-.606.44-.846l.149-.252c.074-.123.127-.212.164-.285.123-.239.131-.326.131-.363s-.01-.123-.13-.36c-.038-.072-.091-.16-.165-.284l-.149-.252a8 8 0 0 1-.44-.846c-.13-.3-.255-.67-.269-1.048-.014-.402.103-.869.519-1.209.26-.212.56-.262.814-.246.236.015.467.088.67.168.395.156.899.428 1.488.746m-1.958.683q.035.128.113.31c.097.225.226.46.358.685l.107.18v.002h.001c.091.154.185.311.245.427.16.313.295.65.296 1.04s-.132.731-.296 1.052c-.06.116-.154.274-.245.427l-.108.182c-.132.226-.261.46-.358.685a2.4 2.4 0 0 0-.113.31c.294-.125.699-.342 1.29-.662l1.115-.601c.842-.455 1.392-.755 1.743-1.022.326-.247.32-.346.318-.363v-.004c.001-.017.008-.116-.318-.363-.35-.268-.901-.567-1.743-1.022l-1.114-.601c-.592-.32-.997-.537-1.29-.662" clip-rule="evenodd"/></svg>