<svg xmlns="http://www.w3.org/2000/svg" width="25" height="24" fill="none"><path fill="#141B34" fill-rule="evenodd" d="m14.636 1.418-.05-.01c-.375-.076-.747-.152-1.071-.158-.391-.007-.774.083-1.124.37l.476.58-.476-.58c-.37.303-.521.693-.585 1.087-.056.342-.056.76-.056 1.2v1.055a.75.75 0 0 0 1.5 0V3.959c0-.511.002-.804.036-1.01a.5.5 0 0 1 .04-.148.1.1 0 0 1 .016-.021l.004-.004c.015-.012.033-.028.141-.026.171.003.406.048.852.138a9.27 9.27 0 0 1 7.411 9.09c0 5.122-4.143 9.272-9.25 9.272s-9.25-4.15-9.25-9.273a9.25 9.25 0 0 1 2.776-6.622.75.75 0 0 0-1.052-1.07 10.75 10.75 0 0 0-3.224 7.692c0 5.948 4.811 10.773 10.75 10.773s10.75-4.825 10.75-10.773c0-5.216-3.7-9.566-8.614-10.56M8.965 6.41a.75.75 0 0 0-1.136.925l3.081 6.152a2.297 2.297 0 0 0 3.486.758 2.268 2.268 0 0 0-.012-3.555zm3.287 6.405-1.573-3.14 2.776 2.192c.392.31.394.895.004 1.207a.797.797 0 0 1-1.207-.259" clip-rule="evenodd"/></svg>