<svg xmlns="http://www.w3.org/2000/svg" width="25" height="24" fill="none"><path fill="#141B34" fill-rule="evenodd" d="M1.75 12a.75.75 0 0 0 1.5 0 9.25 9.25 0 1 1 9.25 9.25.75.75 0 0 0 0 1.5c5.937 0 10.75-4.813 10.75-10.75S18.437 1.25 12.5 1.25 1.75 6.063 1.75 12m10.75-.75a.75.75 0 1 0 0 1.5.75.75 0 0 0 0-1.5m-2.122 0a2.251 2.251 0 1 1 2.872 2.872V16a.75.75 0 0 1-1.5 0v-1.878a2.26 2.26 0 0 1-1.372-1.372H6.5a.75.75 0 0 1 0-1.5zm-8.115 3.039a.75.75 0 0 1 .949.473q.2.6.467 1.162a.75.75 0 1 1-1.356.642 12 12 0 0 1-.534-1.328.75.75 0 0 1 .474-.95m1.874 3.889a.75.75 0 0 1 1.057.08q.443.514.947.964a.75.75 0 1 1-.999 1.119 12 12 0 0 1-1.085-1.106.75.75 0 0 1 .08-1.057m3.382 2.982a.75.75 0 0 1 1-.355q.586.28 1.211.481a.75.75 0 0 1-.46 1.428q-.72-.233-1.396-.555a.75.75 0 0 1-.355-1" clip-rule="evenodd"/></svg>