<svg xmlns="http://www.w3.org/2000/svg" width="24" height="24" fill="none"><path fill="#141B34" fill-rule="evenodd" d="M2.75 12a9.25 9.25 0 1 1 18.5 0 9.25 9.25 0 0 1-18.5 0M12 1.25C6.063 1.25 1.25 6.063 1.25 12S6.063 22.75 12 22.75 22.75 17.937 22.75 12 17.937 1.25 12 1.25M8 8a1 1 0 1 0 0 2h.009a1 1 0 1 0 0-2zm7.991 0a1 1 0 1 0 0 2H16a1 1 0 1 0 0-2zM7.55 13.4a.75.75 0 0 1 1.05.15 4.24 4.24 0 0 0 3.4 1.7c1.39 0 2.624-.666 3.4-1.7a.75.75 0 0 1 1.2.9 5.8 5.8 0 0 1-1.85 1.6v1.45a2.75 2.75 0 1 1-5.5 0v-1.45a5.8 5.8 0 0 1-1.85-1.6.75.75 0 0 1 .15-1.05m3.2 3.214a5.8 5.8 0 0 0 2.5 0v.886a1.25 1.25 0 1 1-2.5 0z" clip-rule="evenodd"/></svg>