<svg xmlns="http://www.w3.org/2000/svg" width="24" height="24" fill="none"><path fill="#141B34" fill-rule="evenodd" d="M19.105 12.517a.74.74 0 0 0 .544.234l.002-.001a.75.75 0 0 0 .516-.206c1.264-1.2 2.061-2.688 2.423-3.467q.161-.349.16-.787c0-.291-.052-.546-.16-.776-.574-1.235-2.744-5.264-6.55-5.264-1.092 0-2.13.464-3.088 1.378l-.008.008-.005.004c-.394.38-.708.682-.8.759l-.016.011-.123.087-.123-.087-.008-.006-.008-.005c-.091-.074-.397-.37-.782-.74l-.023-.023-.008-.008C10.09 2.713 9.051 2.25 7.96 2.25c-3.806 0-5.976 4.029-6.55 5.263-.108.231-.16.479-.16.777s.053.556.16.786c.363.78 1.16 2.269 2.424 3.468a.75.75 0 0 0 1.032-1.088c-.825-.783-1.43-1.743-1.795-2.416H5a.75.75 0 0 0 0-1.5H3.076c.74-1.363 2.406-3.79 4.884-3.79.692 0 1.383.324 2.055.966.721.695.879.846 1.01.93.77.546 1.179.546 1.949 0 .13-.084.289-.235 1.013-.933.669-.638 1.36-.962 2.052-.962 2.478 0 4.144 2.426 4.884 3.79h-1.924a.75.75 0 0 0 0 1.5h1.929c-.364.673-.97 1.633-1.795 2.416a.75.75 0 0 0-.028 1.06m-6.926-8.142.008-.005-.039.024zm-.329.019-.039-.024.008.005q.014.006.031.019M7.14 19.405A6.2 6.2 0 0 0 12 21.751v-.001c1.897 0 3.67-.855 4.86-2.346a6.35 6.35 0 0 0 1.231-5.391l-.97-4.263a3.2 3.2 0 0 0-3.122-2.5 3.14 3.14 0 0 0-2 .712 3.14 3.14 0 0 0-2-.712 3.2 3.2 0 0 0-3.12 2.504l-.97 4.26a6.35 6.35 0 0 0 1.23 5.391m1.2-9.314A1.706 1.706 0 0 1 10 8.751l-.002.001c.452 0 .876.179 1.2.51l.05.05v2.689a.75.75 0 0 0 1.5 0V9.312l.056-.056a1.66 1.66 0 0 1 1.194-.505c.794 0 1.477.551 1.66 1.337l.97 4.259a4.85 4.85 0 0 1-.94 4.122 4.7 4.7 0 0 1-3.689 1.782 4.7 4.7 0 0 1-3.688-1.782 4.85 4.85 0 0 1-.94-4.121z" clip-rule="evenodd"/></svg>