<svg xmlns="http://www.w3.org/2000/svg" width="24" height="24" fill="none"><path fill="#141B34" fill-rule="evenodd" d="M4.673 2.669C6.013 5.388 8.793 7.25 12 7.25s5.987-1.862 7.328-4.581a.75.75 0 1 1 1.345.663A9.77 9.77 0 0 1 17.16 7.25H21a.75.75 0 0 1 0 1.5h-2.25v2.5H21a.75.75 0 0 1 0 1.5h-2.25V21a.75.75 0 0 1-1.5 0v-8.25H6.75V21a.75.75 0 0 1-1.5 0v-8.25H3a.75.75 0 0 1 0-1.5h2.25v-2.5H3a.75.75 0 0 1 0-1.5h3.84a9.77 9.77 0 0 1-3.513-3.918.75.75 0 1 1 1.346-.663M13.25 8.75h-2.5v2.5h2.5zm-4 0h-2.5v2.5h2.5zm8 0h-2.5v2.5h2.5z" clip-rule="evenodd"/></svg>