<svg xmlns="http://www.w3.org/2000/svg" width="25" height="24" fill="none"><path fill="#141B34" fill-rule="evenodd" d="M17 8.75h1.32c1.644 0 2.551 0 3.222-.642.708-.663.708-1.583.708-3.108s0-2.445-.702-3.102c-.677-.648-1.583-.648-3.228-.648H6.68c-1.644 0-2.551 0-3.222.642C2.75 2.555 2.75 3.475 2.75 5s0 2.445.702 3.102c.677.648 1.583.648 3.228.648h.82a.75.75 0 0 0 0-1.5h-.82c-1.173 0-1.949 0-2.197-.238C4.25 6.795 4.25 6.119 4.25 5c0-1.12 0-1.795.238-2.018.243-.232 1.018-.232 2.192-.232h11.64c1.173 0 1.949 0 2.197.238.233.217.233.893.233 2.012 0 1.12 0 1.795-.238 2.018-.243.232-1.018.232-2.192.232H17a.75.75 0 0 0 0 1.5M9.28 22c0 .414.337.75.75.75l-.001.001a.75.75 0 0 0 .75-.75v-.929c.05-.976-.45-1.764-1.112-2.595a1 1 0 0 0-.06-.082l-1.052-1.281a1 1 0 0 0-.106-.132l-.134-.172-.01-.014q-.094-.12-.18-.235l-.026-.034a17 17 0 0 0-.477-.607l-1.11-1.438-.012-.015c-.253-.311-.304-.667-.144-1.004a.5.5 0 0 1 .182-.204l.01-.006c.316-.212.778-.285 1.05-.012l.044.04 1.97 1.68a.749.749 0 0 0 1.238-.571V6.64c0-.447.476-.87.99-.87s1 .423 1 .87v4.09a.75.75 0 0 0 .814.747c1.334-.113 3.588.385 4.899 1.387l.077.059c.602.463.923.724 1.056 1.134.169.521.046 1.39-.38 2.662-.18.56-.564 1.296-.847 1.838l-.005.011c-.228.437-.35.673-.413.859l-.012.033-.017.049c-.17.478-.278.911-.231 2.503a.756.756 0 0 0 .772.728.75.75 0 0 0 .728-.772c-.042-1.43.053-1.698.145-1.956l.023-.065.012-.034c.029-.084.171-.358.296-.597l.028-.054.001-.003c.308-.59.73-1.396.947-2.071.543-1.625.66-2.733.38-3.595-.283-.87-.908-1.35-1.568-1.858l-.001-.001-.078-.06c-1.373-1.05-3.504-1.637-5.125-1.705V6.64c0-1.285-1.15-2.37-2.5-2.37S9.35 5.355 9.35 6.64v6.125l-.713-.608c-.747-.723-1.97-.789-2.92-.152a1.97 1.97 0 0 0-.714.814c-.41.86-.286 1.827.329 2.587l1.11 1.439.008.009.68.874.199.255c.242.311.475.592.701.864l.02.023c.736.884 1.268 1.523 1.23 2.135V22" clip-rule="evenodd"/></svg>