<svg xmlns="http://www.w3.org/2000/svg" width="25" height="24" fill="none"><path fill="#141B34" d="M12.973 22.254c-2.037 0-3.433-.299-4.303-.907l-.011-.008c-.772-.562-.934-.744-1.256-1.139-.098-.12-.209-.256-.375-.443-.188-.222-1.322-1.81-2.121-3.143-.522-.879-.853-1.564-.901-2.275-.057-.843.306-1.532.711-2.15.333-.586 1.751-2.035 2.813-3.023V3.98c0-1.23 1.009-2.23 2.25-2.23 1.24 0 2.22 1 2.22 2.23v2.776a2.5 2.5 0 0 1 .659.021 2.8 2.8 0 0 1 1.748 1.041c.573-.205 1.326-.146 2.006.18.4.191.733.453.989.768 2.079.276 3.815.642 3.578 4.091v3.509c.022 1.714-.971 5.106-4.886 5.709l-.04.005a32 32 0 0 1-3.082.173zm-3.438-2.133c.918.637 3.054.795 6.35.469 2.883-.455 3.612-2.95 3.595-4.208v-.01l.002-3.593c.103-1.436-.188-1.843-.415-2.025-.233-.186-.605-.296-1.077-.382v1.121a.75.75 0 0 1-1.5 0v-1.119c-.039-.551-.387-.846-.674-.996a1.4 1.4 0 0 0-.817-.169c.011.108.01.207.01.287v1a.75.75 0 0 1-1.5 0V9.388l-.004-.017-.025-.071v-.054c-.177-.627-.66-.921-1.062-.986a.8.8 0 0 0-.418.03v2.212a.75.75 0 0 1-1.5 0V3.983a.717.717 0 0 0-.72-.73c-.404 0-.75.327-.75.73v9.979a.75.75 0 0 1-1.5 0v-2.708c-.788.791-1.391 1.469-1.501 1.665l-.021.042-.022.031c-.654.991-.703 1.319.209 2.856a40 40 0 0 0 1.963 2.925c.181.205.305.357.405.48.254.31.33.405.972.871zm-1.389-1.364.006.007zm-.008-.009.005.005z"/></svg>