<svg xmlns="http://www.w3.org/2000/svg" width="25" height="24" fill="none"><path fill="#141B34" fill-rule="evenodd" d="M10.433 2.753c-.492.036-.732.351-.726.6.026.966.022 3.565.02 6.018-.002 1.586-.004 3.111.002 4.095a.75.75 0 0 1-1.284.53l-1.856-1.882c-.204-.195-.373-.31-.532-.363-.34-.11-.57-.082-.722-.023a.84.84 0 0 0-.404.35c-.109.175-.17.384-.18.58-.01.2.039.327.078.382.45.644.917 1.2 1.347 1.688l.352.395c.292.327.568.637.78.906.28.357.553.654.814.94.762.83 1.425 1.552 1.875 3.333l.003.012.175.745q.014.062.018.125l.047.773a.75.75 0 1 1-1.497.092l-.044-.71-.158-.676c-.351-1.389-.73-1.802-1.398-2.528a19 19 0 0 1-1.016-1.18c-.18-.23-.405-.482-.68-.79q-.183-.203-.397-.446a21 21 0 0 1-1.45-1.818c-.277-.396-.368-.877-.347-1.314.02-.443.156-.903.405-1.302.251-.402.63-.762 1.139-.957.515-.198 1.103-.205 1.724-.003.479.156.845.455 1.114.714l.015.014.575.583c0-.72 0-1.515.002-2.322.003-2.43.006-4.972-.02-5.921-.034-1.333 1.14-2.064 2.115-2.136a2.22 2.22 0 0 1 1.554.454c.478.38.77.957.827 1.675l.002.059v4.152c.354-.124.729-.169 1.103-.112a2.02 2.02 0 0 1 1.423.939l.016-.007c.457-.198.959-.202 1.41-.088a2.86 2.86 0 0 1 1.631 1.146q.087-.024.173-.04a2.8 2.8 0 0 1 1.494.15 2.7 2.7 0 0 1 1.36 1.14c.34.57.495 1.293.419 2.16l-.035 2.67c0 .826-.055 1.488-.21 2.065a4.2 4.2 0 0 1-.775 1.529 8 8 0 0 1-.358.417l-.058.064c-.133.149-.237.27-.316.385-.104.15-.176.335-.208.533-.054.34-.066.857-.046 1.394A.75.75 0 0 1 18.23 22c-.022-.565-.015-1.2.064-1.69.064-.398.212-.794.45-1.142.14-.204.303-.389.437-.539l.07-.077a6 6 0 0 0 .278-.323c.256-.328.411-.623.512-.997.105-.392.158-.904.158-1.68v-.01l.035-2.706.003-.06c.06-.628-.059-1.03-.21-1.283a1.2 1.2 0 0 0-.61-.507 1.3 1.3 0 0 0-.656-.079c0 .14-.009.266-.016.37l-.007.09c-.016.218-.028.38-.015.545a.75.75 0 1 1-1.496.116c-.022-.288 0-.572.016-.78l.006-.08c.018-.25.014-.354 0-.41a1.36 1.36 0 0 0-.96-.974c-.199-.05-.352-.03-.446.01a.33.33 0 0 0-.15.128q.042.502-.02 1.095a.75.75 0 0 1-1.492-.154c.04-.39.036-.71.003-.966-.099-.76-.424-.902-.6-.928-.225-.034-.569.06-.879.358v.65a.75.75 0 1 1-1.5 0v-6.5c-.032-.344-.158-.507-.261-.59a.73.73 0 0 0-.51-.133" clip-rule="evenodd"/></svg>