<svg xmlns="http://www.w3.org/2000/svg" width="25" height="24" fill="none"><path fill="#141B34" fill-rule="evenodd" d="M7.997 3.744a2.494 2.494 0 1 1 4.989 0V8.74c.689.03 1.49.152 2.275.346 1.122.276 2.319.727 3.186 1.369l.06.044c.637.471 1.391 1.028 1.758 1.994.379.995.301 2.272-.262 4.097-.191.62-.545 1.334-.842 1.905l-.218.415-.188.358a8 8 0 0 0-.173.356l-.013.032-.032.1c-.054.163-.087.265-.115.489-.036.293-.056.784-.03 1.732a.75.75 0 0 1-1.5.04c-.026-.966-.009-1.547.041-1.954.046-.377.122-.604.182-.785l.026-.08c.057-.178.175-.412.282-.619l.199-.379.208-.397c.3-.577.593-1.18.74-1.655.532-1.725.491-2.6.293-3.122-.197-.52-.598-.84-1.308-1.365-.642-.475-1.622-.865-2.653-1.119s-2.006-.348-2.601-.296a.75.75 0 0 1-.815-.747V3.744a.994.994 0 0 0-1.989 0V14.03a.75.75 0 0 1-1.5 0v-2.396l-.593.527c-1.154 1.093-1.312 1.654-1.368 1.893-.11.471-.034 1.106 1.153 2.827q.245.336.482.656c.387.524.749 1.013 1.034 1.452.398.612.745 1.266.791 1.943l.002.052v1.013a.75.75 0 1 1-1.5 0v-.984c-.025-.266-.181-.638-.55-1.207-.26-.4-.579-.83-.951-1.334q-.248-.333-.527-.716l-.01-.015c-1.21-1.754-1.653-2.876-1.384-4.028v-.001c.139-.592.486-1.401 1.805-2.649l.017-.015 1.6-1.42z" clip-rule="evenodd"/></svg>