<svg xmlns="http://www.w3.org/2000/svg" width="25" height="24" fill="none"><path fill="#141B34" fill-rule="evenodd" d="M12.552 2.25h-.104c-2.313 0-4.118 0-5.524.17-1.432.173-2.565.534-3.461 1.34-.908.818-1.324 1.867-1.522 3.191-.191 1.281-.191 2.918-.191 4.987v.124c0 2.069 0 3.706.191 4.987.198 1.323.614 2.373 1.522 3.19.896.807 2.03 1.168 3.46 1.34 1.407.171 3.212.171 5.525.171h.104c2.313 0 4.118 0 5.525-.17 1.43-.173 2.564-.534 3.46-1.34.908-.818 1.324-1.867 1.522-3.191.191-1.281.191-2.918.191-4.986v-.126c0-2.068 0-3.705-.191-4.986-.198-1.324-.614-2.373-1.522-3.19-.896-.807-2.03-1.168-3.46-1.34-1.407-.171-3.212-.171-5.525-.171M4.466 4.875c.568-.51 1.346-.81 2.638-.966 1.306-.158 3.02-.159 5.396-.159s4.09.001 5.396.16c1.292.156 2.07.454 2.638.965.556.501.873 1.171 1.041 2.298.173 1.157.175 2.682.175 4.827s-.002 3.67-.175 4.827c-.168 1.127-.485 1.797-1.041 2.297-.568.512-1.346.81-2.638.967-1.306.158-3.02.159-5.396.159s-4.09-.001-5.396-.16c-1.292-.156-2.07-.454-2.638-.965-.556-.501-.873-1.171-1.041-2.298C3.252 15.67 3.25 14.145 3.25 12s.002-3.67.175-4.827c.168-1.127.485-1.797 1.041-2.298m9.652 3.2a.75.75 0 0 0-1.368.425v7a.75.75 0 0 0 1.5 0v-4.585l1.382 2.01a.75.75 0 0 0 1.236 0l1.382-2.01V15.5a.75.75 0 0 0 1.5 0v-7a.75.75 0 0 0-1.368-.425l-2.132 3.101zM6 7.75a.75.75 0 1 0 0 1.5h1.75v6.25a.75.75 0 0 0 1.5 0V9.25H11a.75.75 0 0 0 0-1.5z" clip-rule="evenodd"/></svg>