<svg xmlns="http://www.w3.org/2000/svg" width="24" height="24" fill="none"><path fill="#141B34" fill-rule="evenodd" d="M5 1.25a.75.75 0 0 0 0 1.5h7.599l-1 1.5c-1.443 0-2.61.01-3.54.135-1.036.14-1.89.435-2.564 1.11s-.97 1.528-1.11 2.565c-.135 1.003-.135 2.282-.135 3.884v1.112c0 1.602 0 2.881.135 3.884.14 1.037.435 1.89 1.11 2.565.422.422.914.696 1.476.876l-.642 1.284a.75.75 0 0 0 1.342.67l.835-1.67c.928.085 2.064.085 3.438.085h.112c1.374 0 2.51 0 3.438-.085l.835 1.67a.75.75 0 0 0 1.342-.67l-.642-1.284c.562-.18 1.054-.454 1.476-.876.675-.675.97-1.528 1.11-2.565.135-1.003.135-2.282.135-3.884v-1.112c0-1.602 0-2.881-.135-3.884-.14-1.037-.435-1.89-1.11-2.565s-1.528-.97-2.565-1.11c-.705-.095-1.546-.123-2.541-.131l1.002-1.504H19a.75.75 0 0 0 0-1.5zm6.988 4.5h.022c1.666 0 2.84.002 3.73.121.87.117 1.355.334 1.705.684.183.183.33.403.444.695H6.111a2 2 0 0 1 .444-.695c.35-.35.835-.567 1.704-.684.89-.12 2.064-.121 3.73-.121m-6.169 3h12.362c.068.824.069 1.869.069 3.25v1.427l-.005.001c-.352.09-.863.212-1.488.334-1.253.244-2.953.486-4.757.486s-3.503-.242-4.756-.486a26 26 0 0 1-1.488-.334l-.006-.001V12c0-1.381.001-2.426.07-3.25m11.225 6.485c.462-.09.865-.18 1.194-.26-.009.478-.026.9-.057 1.275H16.5a.75.75 0 0 0 0 1.5h1.389a2 2 0 0 1-.444.695c-.35.35-.835.567-1.704.683-.892.12-2.07.122-3.741.122s-2.849-.002-3.74-.122c-.87-.116-1.355-.334-1.705-.683a2 2 0 0 1-.444-.695H7.5a.75.75 0 0 0 0-1.5H5.82a21 21 0 0 1-.058-1.275c.33.08.733.17 1.195.26 1.313.256 3.114.514 5.044.514s3.73-.258 5.043-.514" clip-rule="evenodd"/></svg>