<svg xmlns="http://www.w3.org/2000/svg" width="25" height="24" fill="none"><path fill="#141B34" fill-rule="evenodd" d="M21.916 8c0-1.184 0-2.019-.064-2.666-.061-.635-.177-1.01-.358-1.297a2.75 2.75 0 0 0-.865-.865c-.287-.181-.662-.297-1.297-.358-.647-.063-1.482-.064-2.666-.064h-8c-1.184 0-2.019 0-2.666.064-.635.061-1.01.177-1.297.358a2.75 2.75 0 0 0-.865.865c-.181.287-.297.662-.358 1.297-.063.647-.064 1.482-.064 2.666a.75.75 0 0 1-1.5 0v-.04c0-1.135 0-2.043.07-2.77.073-.748.226-1.385.581-1.951A4.25 4.25 0 0 1 3.905 1.9c.566-.355 1.203-.508 1.95-.58.728-.071 1.636-.071 2.772-.071h8.078c1.136 0 2.044 0 2.771.07.748.073 1.385.226 1.951.581.54.34.998.797 1.338 1.338.355.566.508 1.203.58 1.95.071.728.071 1.636.071 2.772V8a.75.75 0 0 1-1.5 0M9.643 9.038a.75.75 0 0 1-.015-1.06 9 9 0 0 0 .448-.545l.047-.06c.19-.242.413-.526.643-.797a7.4 7.4 0 0 1 .797-.827c.138-.118.293-.234.46-.324a1.4 1.4 0 0 1 .643-.175c.258 0 .48.089.642.175.168.09.323.206.461.324.276.234.551.536.797.827.23.27.453.555.643.797l.047.06q.318.407.448.544a.75.75 0 1 1-1.076 1.046 9 9 0 0 1-.551-.664l-.045-.057c-.193-.245-.4-.508-.61-.757l-.006-.007v5.712h5.282c.673 0 1.224 0 1.671.037.463.037.882.118 1.273.317a3.25 3.25 0 0 1 1.42 1.42c.199.391.28.81.317 1.273.037.447.037.998.037 1.672v.062c0 .674 0 1.225-.037 1.672-.037.463-.118.882-.317 1.273a3.25 3.25 0 0 1-1.42 1.42c-.391.199-.81.28-1.273.317-.447.037-.998.037-1.671.037H6.634c-.674 0-1.224 0-1.672-.037-.463-.037-.882-.118-1.272-.317a3.25 3.25 0 0 1-1.42-1.42c-.2-.391-.28-.81-.318-1.273-.037-.447-.037-.998-.037-1.672v-.062c0-.674 0-1.225.037-1.672.037-.463.118-.882.317-1.273a3.25 3.25 0 0 1 1.42-1.42c.391-.199.81-.28 1.273-.317.447-.037.998-.037 1.672-.037h5.281V7.538l-.006.007c-.21.249-.417.512-.61.757l-.045.057a9 9 0 0 1-.551.664.75.75 0 0 1-1.06.015m3.023 5.712h6c.712 0 1.202 0 1.58.032.371.03.57.085.715.159.329.167.597.435.764.765.074.144.13.343.16.713.03.38.031.869.031 1.581s0 1.202-.032 1.58c-.03.371-.085.57-.159.715a1.75 1.75 0 0 1-.765.764c-.143.074-.343.13-.713.16-.38.03-.869.031-1.581.031h-12c-.712 0-1.202 0-1.58-.032-.371-.03-.57-.085-.714-.159a1.75 1.75 0 0 1-.765-.765c-.074-.144-.13-.343-.16-.713-.03-.38-.031-.869-.031-1.581s0-1.202.032-1.58c.03-.371.085-.57.159-.715a1.75 1.75 0 0 1 .765-.764c.144-.074.343-.13.713-.16.38-.03.869-.031 1.581-.031h6" clip-rule="evenodd"/></svg>