<svg xmlns="http://www.w3.org/2000/svg" width="25" height="24" fill="none"><path fill="#141B34" fill-rule="evenodd" d="M18.697 1.25h-.062c-.674 0-1.225 0-1.672.037-.463.037-.882.118-1.273.317a3.25 3.25 0 0 0-1.42 1.42c-.199.391-.28.81-.317 1.273-.037.447-.037.998-.037 1.672v5.281H8.204l.007-.006c.249-.21.512-.417.757-.61l.057-.045c.245-.192.502-.394.664-.551a.75.75 0 1 0-1.046-1.076 9 9 0 0 1-.544.448l-.06.047c-.242.19-.526.413-.797.643-.291.246-.593.521-.827.797a2.7 2.7 0 0 0-.324.46 1.4 1.4 0 0 0-.175.643c0 .258.089.48.175.642.09.168.206.323.324.461.234.276.536.551.827.797.27.23.555.453.797.643l.06.047q.407.318.544.448a.75.75 0 1 0 1.046-1.076 9 9 0 0 0-.664-.551l-.057-.045c-.245-.193-.508-.4-.757-.61l-.007-.006h5.712v5.281c0 .674 0 1.225.037 1.672.037.463.118.882.317 1.273a3.25 3.25 0 0 0 1.42 1.42c.391.199.81.28 1.273.317.447.037.998.037 1.672.037h.063c.673 0 1.224 0 1.671-.037.463-.037.882-.118 1.273-.317a3.25 3.25 0 0 0 1.42-1.42c.199-.391.28-.81.317-1.273.037-.447.037-.998.037-1.671V5.968c0-.674 0-1.225-.037-1.672-.037-.463-.118-.882-.317-1.272a3.25 3.25 0 0 0-1.42-1.42c-.391-.2-.81-.28-1.273-.318-.447-.037-.998-.037-1.672-.037M15.416 12V6c0-.712 0-1.202.032-1.58.03-.371.085-.57.159-.714a1.75 1.75 0 0 1 .765-.765c.144-.074.343-.13.713-.16.38-.03.869-.031 1.581-.031s1.202 0 1.58.032c.371.03.57.085.715.159.329.168.597.435.764.765.074.144.13.343.16.713.03.38.031.869.031 1.581v12c0 .712 0 1.202-.032 1.58-.03.371-.085.57-.159.715a1.75 1.75 0 0 1-.765.764c-.143.074-.343.13-.713.16-.38.03-.869.031-1.581.031s-1.202 0-1.58-.032c-.371-.03-.57-.085-.714-.159a1.75 1.75 0 0 1-.765-.765c-.074-.144-.13-.343-.16-.713-.03-.38-.031-.869-.031-1.581v-6m-6.75-9.25c-1.184 0-2.019 0-2.666.064-.635.061-1.01.177-1.297.358a2.75 2.75 0 0 0-.865.865c-.181.287-.297.662-.358 1.297-.063.647-.064 1.482-.064 2.666v8c0 1.184 0 2.019.064 2.666.061.635.177 1.01.358 1.297.22.35.515.646.865.865.287.181.662.297 1.297.358.647.063 1.482.064 2.666.064a.75.75 0 0 1 0 1.5h-.04c-1.135 0-2.043 0-2.77-.07-.748-.073-1.385-.226-1.951-.581a4.25 4.25 0 0 1-1.338-1.338c-.355-.566-.508-1.203-.58-1.95-.071-.728-.071-1.636-.071-2.772V7.961c0-1.136 0-2.044.07-2.771.073-.748.226-1.385.581-1.951A4.25 4.25 0 0 1 3.905 1.9c.566-.355 1.203-.508 1.95-.58.728-.071 1.636-.071 2.772-.071h.039a.75.75 0 0 1 0 1.5" clip-rule="evenodd"/></svg>