<svg xmlns="http://www.w3.org/2000/svg" width="25" height="24" fill="none"><path fill="#141B34" fill-rule="evenodd" d="M23.416 6.031c0 .674 0 1.225-.037 1.672-.037.463-.118.882-.317 1.272a3.25 3.25 0 0 1-1.42 1.42c-.391.2-.81.28-1.273.318-.447.037-.998.037-1.671.037h-5.282v5.712l.006-.007c.21-.249.417-.512.61-.757l.045-.057c.192-.245.394-.502.551-.664a.75.75 0 1 1 1.076 1.046 9 9 0 0 0-.448.544l-.047.06c-.19.242-.413.526-.643.797-.246.291-.521.593-.797.828a2.7 2.7 0 0 1-.46.323 1.4 1.4 0 0 1-.643.175 1.4 1.4 0 0 1-.642-.175 2.7 2.7 0 0 1-.461-.323 7.4 7.4 0 0 1-.797-.828 27 27 0 0 1-.643-.797l-.047-.06a9 9 0 0 0-.448-.544.75.75 0 1 1 1.076-1.046c.157.162.36.419.551.664l.045.057c.193.245.4.508.61.757l.006.007V10.75H6.635c-.674 0-1.224 0-1.672-.037-.463-.037-.882-.118-1.272-.317a3.25 3.25 0 0 1-1.42-1.42c-.2-.391-.28-.81-.318-1.273-.037-.447-.037-.998-.037-1.672V5.97c0-.674 0-1.225.037-1.672.037-.463.118-.882.317-1.272a3.25 3.25 0 0 1 1.42-1.42c.391-.2.81-.28 1.273-.318.447-.037.998-.037 1.672-.037h12.062c.674 0 1.225 0 1.672.037.463.037.882.118 1.273.317a3.25 3.25 0 0 1 1.42 1.42c.199.391.28.81.317 1.273.037.448.037.998.037 1.672zm-4.75 3.219h-12c-.712 0-1.202 0-1.58-.032-.371-.03-.57-.085-.714-.159a1.75 1.75 0 0 1-.765-.765c-.074-.144-.13-.343-.16-.713-.03-.38-.031-.869-.031-1.581s0-1.202.032-1.58c.03-.371.085-.57.159-.714a1.75 1.75 0 0 1 .765-.765c.144-.074.343-.13.713-.16.38-.03.869-.031 1.581-.031h12c.712 0 1.202 0 1.58.032.371.03.57.085.715.159.329.168.597.435.764.765.074.144.13.343.16.713.03.38.031.869.031 1.581s0 1.202-.032 1.58c-.03.371-.085.57-.159.714a1.75 1.75 0 0 1-.765.765c-.143.074-.343.13-.713.16-.38.03-.869.031-1.581.031m3.25 6.75c0 1.184 0 2.019-.064 2.666-.061.635-.177 1.01-.358 1.297a2.75 2.75 0 0 1-.865.865c-.287.181-.662.297-1.297.358-.647.063-1.482.064-2.666.064h-8c-1.184 0-2.019 0-2.666-.064-.635-.061-1.01-.177-1.297-.358a2.75 2.75 0 0 1-.865-.865c-.181-.287-.297-.662-.358-1.297-.063-.647-.064-1.482-.064-2.666a.75.75 0 0 0-1.5 0v.04c0 1.135 0 2.043.07 2.77.073.748.226 1.385.581 1.951.34.54.797.998 1.338 1.338.566.355 1.203.508 1.95.58.728.071 1.636.071 2.772.071h8.078c1.136 0 2.044 0 2.771-.07.748-.073 1.385-.226 1.951-.581a4.25 4.25 0 0 0 1.338-1.338c.355-.566.508-1.203.58-1.95.071-.728.071-1.636.071-2.772V16a.75.75 0 0 0-1.5 0" clip-rule="evenodd"/></svg>