<svg xmlns="http://www.w3.org/2000/svg" width="25" height="24" fill="none"><path fill="#141B34" fill-rule="evenodd" d="M13.031 2a.75.75 0 1 0-1.5 0v2.25c-.972.003-1.775.016-2.441.082-.842.084-1.55.26-2.168.67a4 4 0 0 0-.361.268c-.578.48-.902 1.088-1.13 1.828-.217.702-.365 1.591-.547 2.677l-.008.051-.379 2.27c-.256 1.535-.464 2.78-.466 3.768-.002 1.038.221 1.925.94 2.635.7.69 1.63.98 2.764 1.116.991.12 2.243.133 3.796.135V22a.75.75 0 1 0 1.5 0v-2.25c1.553-.002 2.805-.015 3.796-.135 1.134-.137 2.065-.426 2.764-1.116.72-.71.942-1.597.94-2.635-.002-.988-.21-2.233-.466-3.769l-.387-2.32c-.181-1.086-.33-1.975-.546-2.677-.228-.74-.552-1.347-1.13-1.828a4 4 0 0 0-.362-.268c-.617-.41-1.325-.586-2.167-.67-.667-.066-1.47-.08-2.442-.081zm-1.5 3.75c-.965.003-1.698.015-2.292.075-.727.072-1.16.21-1.488.428a3 3 0 0 0-.231.171c-.281.234-.48.547-.656 1.116-.183.595-.317 1.383-.508 2.533l-.368 2.202c-.27 1.62-.455 2.742-.457 3.592-.001.814.167 1.241.495 1.565.349.345.882.573 1.89.694.894.108 2.053.122 3.615.124zm1.5 12.5V5.75c.965.003 1.699.015 2.293.075.727.072 1.159.21 1.488.428q.122.08.23.171c.282.234.481.547.657 1.116.183.595.316 1.383.508 2.533l.367 2.202c.27 1.62.455 2.742.457 3.592.002.814-.166 1.241-.494 1.565-.35.345-.882.573-1.89.694-.894.108-2.053.122-3.616.124" clip-rule="evenodd"/></svg>