<svg xmlns="http://www.w3.org/2000/svg" width="25" height="24" fill="none"><path fill="#141B34" fill-rule="evenodd" d="M12.556 5.707c1.62-.27 2.743-.455 3.592-.457.814-.002 1.241.166 1.565.494.345.35.573.883.694 1.89.108.895.122 2.054.124 3.616h-12.5c.003-.965.016-1.699.075-2.292.073-.728.21-1.16.428-1.489q.08-.121.171-.23c.234-.282.548-.481 1.116-.656.595-.184 1.384-.317 2.533-.509zM4.532 11.25h-2.25a.75.75 0 0 0 0 1.5h2.25c.002.972.015 1.775.081 2.441.085.842.261 1.55.67 2.168q.125.189.269.361c.48.578 1.088.903 1.827 1.13.703.217 1.591.366 2.678.547l2.32.387c1.536.256 2.78.464 3.768.466 1.039.002 1.925-.22 2.636-.94.69-.7.979-1.63 1.116-2.764.12-.991.133-2.243.134-3.796h2.25a.75.75 0 1 0 0-1.5h-2.25c-.001-1.553-.015-2.805-.134-3.796-.137-1.134-.427-2.065-1.116-2.763-.71-.72-1.597-.943-2.636-.941-.987.002-2.232.21-3.768.466l-2.32.387c-1.087.181-1.975.33-2.678.546-.74.228-1.347.553-1.827 1.13a4 4 0 0 0-.269.362c-.409.618-.585 1.326-.67 2.168-.066.666-.079 1.47-.081 2.441m13.999 1.5c-.002 1.562-.016 2.721-.124 3.616-.121 1.007-.35 1.54-.694 1.89-.324.328-.751.496-1.565.494-.85-.002-1.972-.187-3.592-.457l-2.202-.367c-1.15-.192-1.938-.325-2.533-.509-.568-.175-.882-.374-1.116-.655a3 3 0 0 1-.171-.231c-.218-.33-.355-.761-.428-1.489-.06-.593-.072-1.327-.074-2.292z" clip-rule="evenodd"/></svg>