<svg xmlns="http://www.w3.org/2000/svg" width="24" height="24" fill="none"><path fill="#141B34" fill-rule="evenodd" d="M10.531 1.942a1.905 1.905 0 0 1 2.938 0l2.867 3.498c.605.739.565 1.922-.278 2.499l1.75 2.014c.663.764.586 1.977-.285 2.572l1.775 1.992c.698.784.609 2.095-.432 2.65-1.691.9-3.81 1.464-6.116 1.566v2.517H14a.75.75 0 0 1 0 1.5h-4a.75.75 0 0 1 0-1.5h1.25v-2.517c-2.305-.102-4.424-.667-6.115-1.567-1.041-.554-1.13-1.865-.432-2.65l1.774-1.991c-.87-.595-.947-1.808-.284-2.572l1.75-2.014c-.844-.577-.883-1.76-.278-2.499zm1.47 11.808c1.583 0 2.901-.216 4.069-.602l2.108 2.366a.26.26 0 0 1 .07.207.15.15 0 0 1-.087.12c-1.63.869-3.782 1.408-6.16 1.408-2.38 0-4.531-.54-6.162-1.407a.15.15 0 0 1-.087-.121.26.26 0 0 1 .071-.207l2.108-2.366c1.167.386 2.486.602 4.07.602M9.524 6.942a.8.8 0 0 0-.228-.064 7 7 0 0 1-.446-.148.16.16 0 0 1-.069-.044.13.13 0 0 1-.028-.06.29.29 0 0 1 .07-.235l2.867-3.499a.406.406 0 0 1 .618 0l2.866 3.499a.29.29 0 0 1 .07.235.13.13 0 0 1-.027.06.16.16 0 0 1-.069.044 7 7 0 0 1-.446.148.8.8 0 0 0-.227.064A9.7 9.7 0 0 1 12 7.25a9.7 9.7 0 0 1-2.475-.308m-.059 1.53-2.14 2.465a.28.28 0 0 0-.072.23c.01.06.043.11.114.144 1.24.582 2.683.939 4.632.939 1.95 0 3.392-.357 4.633-.94a.19.19 0 0 0 .114-.143.28.28 0 0 0-.072-.23l-2.14-2.465c-.787.18-1.643.278-2.535.278s-1.748-.098-2.534-.278" clip-rule="evenodd"/></svg>