<svg xmlns="http://www.w3.org/2000/svg" width="24" height="24" fill="none"><path fill="#141B34" fill-rule="evenodd" d="M14.142 1.613a1.25 1.25 0 0 0-.736-.338 5 5 0 0 0-.62-.025h-1.438c-.199 0-.403 0-.574.018-.186.02-.446.072-.68.259-.25.201-.353.475-.408.65-.055.177-.103.4-.152.63-.342 1.612-1.657 3.06-3.207 3.809l-.013.006c-.151.073-.305.147-.43.221-.132.08-.304.2-.434.399a1.2 1.2 0 0 0-.188.57c-.012.127-.012.277-.012.41v1.796c0 .225.011.457.059.671.05.224.15.47.359.676.208.204.455.3.676.347.213.046.443.056.667.056h.89q.164 0 .251.01.008.083.009.24v3.75c0 3.02 1.27 5.196 3.212 6.263 1.922 1.057 4.351.942 6.507-.297.286-.164.652-.412.803-.855.144-.423.023-.84-.07-1.125l-.582-1.769a3 3 0 0 0-.121-.323.95.95 0 0 0-.492-.486.98.98 0 0 0-.664-.014c-.12.038-.254.096-.361.144h-.002c-.52.231-1.011.207-1.333.041-.285-.146-.545-.456-.545-1.087v-4.242q0-.157.008-.24c.06-.006.141-.01.252-.01h1.86c.224 0 .454-.01.667-.056.22-.047.468-.143.676-.347.209-.205.309-.452.359-.675.048-.215.059-.447.059-.671V8.564c0-.225-.011-.457-.059-.671-.05-.223-.15-.47-.359-.676a1.35 1.35 0 0 0-.676-.347 3.2 3.2 0 0 0-.667-.056h-1.86q-.164 0-.252-.009a3 3 0 0 1-.008-.241v-3.6c0-.205 0-.427-.025-.615a1.24 1.24 0 0 0-.346-.737m-1.39 1.137.26.001v3.814c0 .225.012.457.06.671.05.223.15.47.359.676.208.204.455.3.676.347.213.045.443.056.667.056h1.86q.163 0 .252.009.008.084.008.24v1.454q0 .157-.009.241a3 3 0 0 1-.252.01h-1.86c-.223 0-.454.01-.666.055-.221.048-.469.143-.677.347a1.34 1.34 0 0 0-.358.676 3 3 0 0 0-.06.671v4.242c0 1.128.52 1.99 1.359 2.421.714.367 1.566.377 2.345.108l.472 1.434q.03.094.044.15l-.1.06c-1.775 1.021-3.644 1.05-5.036.284-1.374-.756-2.435-2.367-2.435-4.95v-3.749a3 3 0 0 0-.06-.671c-.05-.223-.15-.47-.358-.676a1.35 1.35 0 0 0-.676-.347 3.2 3.2 0 0 0-.667-.056h-.89a3 3 0 0 1-.252-.009 3 3 0 0 1-.008-.24v-1.94c.055-.028.127-.064.229-.113 1.862-.898 3.555-2.648 4.016-4.817.038-.178.065-.303.088-.397h.013c.077-.002.167-.002.282-.002z" clip-rule="evenodd"/></svg>