<svg xmlns="http://www.w3.org/2000/svg" width="24" height="24" fill="none"><path fill="#141B34" fill-rule="evenodd" d="M16.052 2.248H7.948c-.898 0-1.647 0-2.242.08-.627.084-1.194.269-1.65.722-.455.455-.641 1.02-.726 1.647-.08.592-.08 1.34-.08 2.234v6.686c0 .313 0 .554.034.77a2.75 2.75 0 0 0 2.286 2.279c.16.025.42.034.675.037l.005 1.387v.054c0 .545 0 1.03.049 1.391.042.315.167.936.788 1.153.62.217 1.105-.19 1.335-.408.264-.252.568-.63.91-1.056l1.953-2.431.018-.025.003-.002a.257.257 0 0 1 .175-.067h3.982c.7 0 1.252.001 1.76-.208a2.5 2.5 0 0 0 .55-.35c.17-.135.355-.299.539-.468.365-.336.755-.724 1.041-1.01l.005-.004.086-.085c.494-.492.885-.881 1.096-1.388.211-.508.21-1.06.21-1.755v-4.5c0-.895 0-1.642-.08-2.234-.084-.627-.27-1.192-.726-1.647-.456-.453-1.023-.638-1.65-.722-.594-.08-1.343-.08-2.242-.08M5.115 4.113c.13-.13.328-.237.79-.299.483-.064 1.131-.066 2.095-.066h8c.964 0 1.612.002 2.095.066.462.062.66.17.79.3.13.128.237.324.298.783.065.48.067 1.126.067 2.086v4.327c0 .876-.013 1.104-.095 1.3-.081.196-.234.367-.856.986-.29.29-.661.66-1.003.974a9 9 0 0 1-.456.396 2 2 0 0 1-.19.138c-.197.082-.428.095-1.307.095h-3.862c-.694 0-1.173.394-1.377.668l-1.908 2.376q-.26.324-.442.545c-.004-.191-.004-.42-.004-.698l-.006-1.649c0-.047 0-.113-.016-.208a1 1 0 0 0-.038-.17 1.25 1.25 0 0 0-.805-.803 1.252 1.252 0 0 0-.38-.055h-.003a16 16 0 0 1-.624-.014l-.053-.005-.015-.001-.006-.001a1.25 1.25 0 0 1-1.039-1.033c-.013-.082-.015-.194-.015-.593V6.983c0-.96.002-1.605.067-2.086.061-.459.168-.655.298-.784m7.635 2.885a.75.75 0 0 0-1.5 0v4a.75.75 0 1 0 1.5 0zm4 0a.75.75 0 0 0-1.5 0v4a.75.75 0 1 0 1.5 0z" clip-rule="evenodd"/></svg>