<svg xmlns="http://www.w3.org/2000/svg" width="25" height="24" fill="none"><path fill="#141B34" d="M12.607 22.25c-1.426 0-2.322-.228-2.903-.414a1 1 0 0 1-.134-.058l-.263-.146c-.596-.327-1.272-.697-1.788-1.288l-.01-.013a3 3 0 0 1-.118-.152c-.144-.187-.278-.37-.433-.581a37 37 0 0 0-.648-.869c-.197-.254-.383-.551-.563-.838a10 10 0 0 0-.477-.714c-.53-.686-.794-1.233-1.073-1.945l-.019-.05c-.295-.944-.208-1.788.27-2.657.212-.377.698-.955 1.364-1.711l.032-.034L7.47 9.156l.035-3.058c0-1.314.892-2.313 2.119-2.365a2.5 2.5 0 0 1 .89.117c.1-1.231 1.011-2.1 2.242-2.1 1.303 0 2.25.956 2.25 2.273l.002 3.715c.795-.062 1.784.288 2.409 1.054 2.238.125 3.346.966 3.572 2.697a1 1 0 0 1 .006.097v3.237q0 .27.003.539c.005.604.01 1.228-.047 1.816-.177 1.852-1.34 3.572-2.962 4.378l-.046.021-.291.122q-.033.014-.056.026l-.01.006c-.985.541-2.232.518-3.437.497a43 43 0 0 0-.611-.008q-.5.03-.932.03zm-2.373-1.82c.632.197 1.572.398 3.233.292l.048-.002q.326.001.66.008c1.007.018 2.049.036 2.683-.31.067-.038.133-.067.181-.089l.027-.012.277-.115c1.157-.586 1.988-1.827 2.116-3.169.05-.51.044-1.068.04-1.658l-.003-.553v-3.188c-.07-.517-.181-1.077-1.49-1.28v1.151a.75.75 0 0 1-1.5 0v-1.118a1.1 1.1 0 0 0-.134-.475l-.014-.024c-.216-.372-.623-.573-.93-.636a.84.84 0 0 0-.416 0v.104q.006.086.005.151v1.001a.75.75 0 0 1-1.5.002l-.003-1.08a.8.8 0 0 1-.018-.176q0-.11.016-.215l-.005-2.074V4.021c0-.673-.47-.773-.75-.773-.47 0-.75.307-.75.821l.03 6.391a.75.75 0 0 1-.747.754h-.003a.75.75 0 0 1-.75-.745l-.03-4.457c0-.183-.037-.429-.21-.595-.176-.169-.426-.194-.608-.187-.408.017-.682.369-.682.876l-.04 3.367v4.547a.75.75 0 0 1-1.5 0v-2.74l-.544.543c-.263.299-.992 1.129-1.163 1.431-.275.499-.32.911-.156 1.456.236.599.437 1.008.856 1.551.196.255.38.548.559.832.168.268.326.521.48.719.278.362.487.648.671.901.151.207.283.386.419.561l.022.03.045.061c.34.386.842.661 1.374.952z"/></svg>