<svg xmlns="http://www.w3.org/2000/svg" width="25" height="24" fill="none"><path fill="#141B34" fill-rule="evenodd" d="M10.608 2.87c.314-.91 1.107-1.62 2.142-1.62 1.35 0 2.289 1.208 2.289 2.495v.008L15 7.45l.003.774q.22-.017.431.003c.687.065 1.46.417 1.981 1.055 1.082.058 1.915.278 2.516.722.711.525.967 1.26 1.062 1.98a1 1 0 0 1 .007.099v3.248c-.003 1.796-.301 3.282-1.512 4.512-.387.47-.496.782-.536 1.033-.022.142-.027.29-.024.48l.003.154c.003.152.007.333.003.51a.75.75 0 0 1-1.5-.039c.004-.138.001-.26-.002-.396l-.004-.209c-.003-.217 0-.466.043-.736.09-.57.342-1.133.887-1.783l.043-.048c.822-.824 1.096-1.835 1.099-3.48v-3.195c-.07-.476-.211-.74-.46-.923-.195-.144-.512-.28-1.039-.364v1.155a.75.75 0 0 1-1.5 0v-1.129a1.1 1.1 0 0 0-.139-.484c-.217-.381-.671-.63-1.069-.668a.7.7 0 0 0-.285.023v.104q.004.08.004.151v1.004a.75.75 0 0 1-1.5.002v-.002l-.003-1.101-.001-.01-.003-.023-.002-.012-.002-.017-.001-.014a1 1 0 0 1-.002-.106q.001-.074.01-.145L13.5 7.44l.039-3.699c-.002-.638-.44-.991-.79-.991-.348 0-.786.352-.788.99l.1 6.244v.003a.75.75 0 0 1-1.5.028v-.004l-.1-4.95v-.015c0-.32-.1-.525-.211-.644-.108-.115-.272-.197-.505-.197-.35 0-.787.353-.789.992l.039 3.706v4.539a.75.75 0 0 1-1.5 0v-2.685l-.935.966c-.465.537-.73.922-.88 1.196-.247.45-.234 1.077.037 1.654.282.603.756 1.332 1.213 1.93q.456.593.92 1.187l.131.17c.175.224.33.407.478.584q.089.105.175.209c.196.235.392.484.55.77.33.599.331 1.27.331 1.714v.864a.75.75 0 0 1-1.5 0v-.864c0-.484-.026-.774-.144-.989a3.6 3.6 0 0 0-.391-.538l-.151-.18c-.154-.182-.337-.4-.531-.65l-.132-.168c-.308-.397-.62-.796-.927-1.198-.496-.648-1.038-1.47-1.381-2.205-.417-.891-.527-2.04.007-3.012.22-.4.56-.879 1.076-1.473l.027-.029 2.024-2.092L7.456 5.2c0-1.286.94-2.495 2.29-2.495.303 0 .594.056.862.165m2.9 6.893-.001.003-.002.035v.053l.001.008.001.014.001.008v.006z" clip-rule="evenodd"/></svg>