<svg xmlns="http://www.w3.org/2000/svg" width="24" height="24" fill="none"><path fill="#141B34" fill-rule="evenodd" d="M17.151 20.752c-1.103 0-1.72 0-2.283-.37a1 1 0 0 1-.159-.115c-.54-.424-.74-1.03-1.067-2.02l-.001-.004-.129-.367c-.498.235-1.015.376-1.51.377-.498 0-1.016-.142-1.516-.38l-.125.368c-.326.99-.527 1.598-1.068 2.024-.057.05-.114.088-.159.114-.563.371-1.18.371-2.283.371-2.41 0-3.738 0-4.687-.936l-.051-.056-.017-.017a2 2 0 0 1-.107-.115c-.876-1.002-.794-2.27-.646-4.563v-.001c.247-3.809.753-6.735 1.135-8.519l.008-.038c.283-1.269.454-2.036 1.2-2.646l.012-.009c.764-.6 1.633-.6 3.073-.6h10.46c1.44 0 2.309 0 3.073.6l.012.01c.746.609.917 1.376 1.2 2.645l.007.031c.383 1.79.89 4.716 1.136 8.525v.002c.148 2.293.23 3.56-.646 4.562-.041.05-.08.089-.107.115l-.017.017a1 1 0 0 1-.051.056c-.949.936-2.277.936-4.687.936zm-5.15-2.5h.001m3.058-.499-.255-.727c.587-.504 1.075-1.105 1.367-1.688a.75.75 0 1 0-1.34-.671c-.527 1.052-1.929 2.085-2.83 2.085-.9 0-2.303-1.033-2.829-2.085a.75.75 0 0 0-1.34.67c.29.582.776 1.181 1.36 1.684l-.253.745c-.256.777-.398 1.19-.58 1.327l-.009.007-.009.007-.023.015c-.189.13-.67.13-1.467.13-2.191 0-3.117-.019-3.613-.485q-.048-.053-.08-.084l-.002-.002-.017-.017-.01-.013-.006-.006c-.456-.516-.419-1.388-.284-3.485.167-2.584.457-4.748.742-6.407h16.84c.286 1.661.575 3.825.742 6.407.135 2.097.172 2.969-.284 3.485l-.012.014-.004.005-.017.017-.001.002q-.033.03-.081.084c-.497.465-1.422.484-3.613.484-.797 0-1.278 0-1.467-.129l-.023-.015-.009-.007-.009-.007c-.182-.138-.324-.55-.58-1.327zm5.081-10.5H3.862q.041-.202.081-.388l.007-.03c.258-1.156.356-1.539.68-1.808.339-.262.818-.275 2.141-.275h10.46c1.323 0 1.803.013 2.141.275.324.269.422.652.68 1.807l.006.025z" clip-rule="evenodd"/></svg>