<svg xmlns="http://www.w3.org/2000/svg" width="25" height="24" fill="none"><path fill="#141B34" fill-rule="evenodd" d="M3.031 4a1.25 1.25 0 1 1 2.5 0 1.25 1.25 0 0 1-2.5 0m1.25-2.75a2.75 2.75 0 1 0 0 5.5 2.75 2.75 0 0 0 0-5.5M19.031 4a1.25 1.25 0 1 1 2.5 0 1.25 1.25 0 0 1-2.5 0m1.25-2.75a2.75 2.75 0 1 0 0 5.5 2.75 2.75 0 0 0 0-5.5m0 17.5a1.25 1.25 0 1 0 0 2.5 1.25 1.25 0 0 0 0-2.5M17.531 20a2.75 2.75 0 1 1 5.5 0 2.75 2.75 0 0 1-5.5 0m-14.5 0a1.25 1.25 0 1 1 2.5 0 1.25 1.25 0 0 1-2.5 0m1.25-2.75a2.75 2.75 0 1 0 0 5.5 2.75 2.75 0 0 0 0-5.5m8-8.5c-.155 0-.305.054-1.02.404l-1.089.533c-.708.346-1.168.573-1.46.767l-.067.046q.03.021.066.046c.293.194.753.42 1.461.767l1.089.533c.715.35.865.404 1.02.404s.305-.054 1.02-.404l1.09-.533c.707-.346 1.168-.573 1.46-.767l.067-.046-.067-.046c-.292-.194-.753-.42-1.46-.767l-1.09-.533c-.715-.35-.864-.404-1.02-.404m-1.574-.995c.549-.27 1.028-.505 1.574-.505.547 0 1.026.235 1.574.505l.106.052 1.138.557c.645.315 1.197.585 1.582.84.363.241.85.641.85 1.296s-.487 1.055-.85 1.296c-.385.255-.937.525-1.582.84l-1.138.557-.106.052c-.548.27-1.027.505-1.574.505-.546 0-1.025-.235-1.574-.505l-.106-.052-1.138-.557c-.645-.315-1.196-.585-1.581-.84-.363-.241-.85-.641-.85-1.296s.487-1.055.85-1.296c.385-.255.936-.525 1.581-.84l.05-.024 1.088-.533zM7.781 12.75a.75.75 0 0 1 .744.653c.028.028.084.075.186.143.293.194.753.42 1.461.767l1.089.533c.715.35.865.404 1.02.404s.305-.054 1.02-.404l1.09-.533c.707-.346 1.168-.573 1.46-.767.102-.068.158-.115.186-.143a.75.75 0 0 1 1.494.097c0 .655-.487 1.055-.85 1.296-.385.255-.937.525-1.582.84l-1.138.557-.106.052c-.548.27-1.027.505-1.574.505-.546 0-1.025-.235-1.574-.505l-.106-.052-1.088-.533-.05-.024c-.645-.315-1.196-.585-1.581-.84-.363-.241-.85-.641-.85-1.296a.75.75 0 0 1 .75-.75" clip-rule="evenodd"/></svg>