<svg xmlns="http://www.w3.org/2000/svg" width="24" height="24" fill="none"><path fill="#141B34" fill-rule="evenodd" d="M17.748 3.264a1.754 1.754 0 0 0-2.481 0l-2.995 2.995c-.51.51-.761 1.436-.2 2.212a.75.75 0 0 1-1.215.88c-1.098-1.517-.54-3.258.354-4.153l2.995-2.995a3.254 3.254 0 0 1 4.603 0l2.985 2.986a3.256 3.256 0 0 1 0 4.604L18.8 12.788c-.529.528-1.185.882-1.917.968-.736.087-1.487-.104-2.185-.557a.75.75 0 0 1 .816-1.258c.442.286.846.366 1.193.326.35-.042.706-.214 1.032-.54l2.994-2.995a1.756 1.756 0 0 0 0-2.482zm-9.007-.282a.75.75 0 1 0-1.5 0v2.005a.75.75 0 0 0 1.5 0zm-5.76 4.26a.75.75 0 1 0 0 1.5h2.004a.75.75 0 0 0 0-1.5zm11.985 1.752a.75.75 0 0 1 0 1.06l-4.913 4.914a.75.75 0 0 1-1.06-1.06l4.912-4.914a.75.75 0 0 1 1.06 0m3.295 7.016a.75.75 0 0 1 .75-.75h2.003a.75.75 0 0 1 0 1.5h-2.003a.75.75 0 0 1-.75-.75m-2.256 2.256a.75.75 0 0 1 .75.75v2.004a.75.75 0 0 1-1.5 0v-2.004a.75.75 0 0 1 .75-.75m-9.747-5.991c.51-.51 1.436-.762 2.212-.2a.75.75 0 1 0 .88-1.215c-1.517-1.098-3.258-.54-4.152.354L2.203 14.21a3.256 3.256 0 0 0 0 4.604l2.986 2.986a3.254 3.254 0 0 0 4.602 0l2.995-2.995c.528-.53.882-1.185.968-1.918.087-.736-.104-1.486-.557-2.184a.75.75 0 0 0-1.259.816c.287.442.367.846.326 1.193-.041.35-.213.706-.539 1.032l-2.994 2.995a1.754 1.754 0 0 1-2.482 0l-2.985-2.986a1.756 1.756 0 0 1 0-2.482z" clip-rule="evenodd"/></svg>