<svg xmlns="http://www.w3.org/2000/svg" width="24" height="24" fill="none"><path fill="#141B34" fill-rule="evenodd" d="M9.358 3.764a.75.75 0 0 1 .838.458q.138.343.29.733c.515 1.314 1.163 2.969 2.009 4.506l.017-.095C12.902 7.226 14.644 5 17.625 5c2.797 0 5.125 2.328 5.125 5.125s-2.328 5.125-5.125 5.125c-1.74 0-3.157-.856-4.302-2.045l-.387 2.057-.573 3.048-.25 1.329-.738-.139-.737-.139.25-1.329 1.197-6.367a16 16 0 0 1-.39-.598A24 24 0 0 1 10.25 8.31v2.441c0 2.457-2.043 4.5-4.5 4.5s-4.5-2.043-4.5-4.5V4.5a.75.75 0 0 1 1.5 0v6.25c0 1.628 1.372 3 3 3s3-1.372 3-3V4.5a.75.75 0 0 1 .608-.736M11.375 19.5l-.737-.139a.75.75 0 1 0 1.474.278zm2.302-8.189c1.128 1.488 2.428 2.44 3.948 2.44 1.969 0 3.625-1.657 3.625-3.626S19.594 6.5 17.625 6.5c-2.086 0-3.344 1.525-3.637 3.134-.06.333-.172.932-.311 1.677" clip-rule="evenodd"/></svg>