<svg xmlns="http://www.w3.org/2000/svg" width="25" height="24" fill="none"><path fill="#141B34" d="M8.49 22.746h-.034a.75.75 0 0 1-.716-.783c.063-1.393-.132-1.772-.134-1.775a1 1 0 0 1-.039-.08c-.143-.243-.934-1.238-1.69-2.125l-.025-.033c-1.564-2.062-2.351-3.433-2.032-4.776.051-.206.124-.466.249-.73.4-.886 1.466-2.062 2.007-2.627l-.995-5.773-.002-.014C4.88 2.731 5.6 1.612 6.831 1.308a2.2 2.2 0 0 1 1.731.323c.517.341.871.85.973 1.4l.956 3.893.915-3.72a2.22 2.22 0 0 1 .96-1.486 2.39 2.39 0 0 1 1.882-.32c1.223.302 1.856 1.31 1.654 2.632l-.003.018-.574 3.23c.307-.016.63.016.954.113.526.157 1.216.535 1.677 1.435a1.7 1.7 0 0 1 .361.03c.994.18 2.569 1.33 2.846 3.753.276 1.568-.123 3.541-.361 4.255-.32.98-1.207 2.553-1.53 2.954-.599.817-.59 1.504-.583 2.007l.001.152a.75.75 0 0 1-1.5 0l-.001-.132c-.008-.596-.023-1.705.889-2.934l.037-.046c.157-.195.979-1.6 1.263-2.47.208-.626.52-2.356.305-3.544l-.008-.05c-.145-1.317-.8-1.966-1.075-2.184a1.7 1.7 0 0 0-.323-.205c-.001.257-.016.467-.024.586l-.003.048a.75.75 0 0 1-1.5-.017q0-.032.007-.134c.012-.17.039-.565 0-.969a3 3 0 0 0-.037-.167l-.016-.067c-.185-.458-.472-.749-.854-.863a1.4 1.4 0 0 0-.801.006l-.329 1.854a.75.75 0 1 1-1.477-.263l.38-2.139a.7.7 0 0 1 .029-.16l.77-4.33c.102-.687-.194-.858-.53-.94a.9.9 0 0 0-.696.113.72.72 0 0 0-.314.508l-.012.06-1.65 6.71a.75.75 0 0 1-1.456 0l-1.69-6.88-.011-.055c-.025-.146-.152-.314-.324-.427a.71.71 0 0 0-.548-.119c-.478.118-.707.494-.627 1.032l1.057 6.132.003.018.598 3.441a.75.75 0 1 1-1.477.257l-.339-1.95c-.441.52-.816 1.031-.967 1.368l-.007.014a2.4 2.4 0 0 0-.15.451c-.154.652.321 1.603 1.757 3.498 1.181 1.388 1.833 2.247 1.937 2.554a1 1 0 0 0-.045-.106c.262.487.367 1.346.313 2.556a.75.75 0 0 1-.749.716zm9.759-11.719v.012z"/></svg>