<svg xmlns="http://www.w3.org/2000/svg" width="25" height="24" fill="none"><path fill="#141B34" d="M8.497 22.756a.75.75 0 0 1-.75-.75c0-1.112-.213-1.39-.385-1.615a3 3 0 0 1-.16-.223l-.009-.016a9 9 0 0 0-.382-.444c-.225-.254-.505-.569-.814-.946-2.012-2.446-1.885-3.828-1.558-5.143.281-1.096 1.366-2.114 3.165-3.8l.04-.038L6.61 4.217a2.51 2.51 0 0 1 1.957-2.915 2.5 2.5 0 0 1 1.887.37c.558.371.937.937 1.068 1.592L12 5.661l.482-2.398c.13-.655.51-1.22 1.068-1.592a2.5 2.5 0 0 1 1.886-.371c1.32.267 2.15 1.551 1.888 2.924l-.906 5.109c1.638.58 3.375 1.64 3.995 2.924.596 1.23.402 2.906-.631 5.436a8.6 8.6 0 0 1-.802 1.485 5 5 0 0 0-.135.214l-.043.112c-.166.436-.355.93-.247 2.423a.75.75 0 0 1-1.496.108c-.132-1.824.142-2.542.34-3.065q.023-.058.044-.115c.056-.153.149-.296.278-.495.187-.288.443-.68.672-1.236.834-2.042 1.053-3.42.669-4.213-.291-.603-1.513-1.72-3.69-2.337a.74.74 0 0 1-.464-.383.75.75 0 0 1-.08-.489l1.02-5.749c.11-.574-.196-1.078-.709-1.182a1.005 1.005 0 0 0-1.186.786l-1.22 6.074a.75.75 0 0 1-1.47-.001l-1.21-6.073a1 1 0 0 0-.428-.637 1 1 0 0 0-.758-.149 1.005 1.005 0 0 0-.782 1.167l1.108 5.958.004.021.558 2.947a.75.75 0 1 1-1.473.279l-.306-1.615C6.833 12.61 6.04 13.42 5.895 13.984c-.215.861-.438 1.757 1.263 3.823.29.355.561.658.777.902.274.308.44.497.54.659q.03.042.081.11c.351.457.693 1.03.693 2.526a.75.75 0 0 1-.75.75zm10.355-3.384-.004.009z"/></svg>