<svg xmlns="http://www.w3.org/2000/svg" width="25" height="24" fill="none"><path fill="#141B34" fill-rule="evenodd" d="M22.48 22.75a.75.75 0 0 1-.53-.22l-4.195-4.199a3.4 3.4 0 0 1-.766 1.174c-1.237 1.244-2.995 1.244-6.499 1.244v.001h-1c-3.497 0-5.252 0-6.492-1.247-1.248-1.242-1.248-3-1.248-6.503v-2c0-3.503 0-5.262 1.251-6.507q.233-.235.51-.42L1.97 2.53a.75.75 0 1 1 1.06-1.06l2.282 2.283.037.037 17.662 17.68a.75.75 0 0 1-.53 1.28M4.609 5.17l11.94 11.953c-.12.61-.312 1.016-.62 1.321-.8.805-2.35.805-5.438.805h-1c-3.081 0-4.628 0-5.431-.808-.809-.805-.809-2.354-.809-5.441v-2c0-3.089 0-4.639.813-5.448a1.9 1.9 0 0 1 .545-.381M21.06 16.997a.75.75 0 0 0 .75.75v-.003c.181 0 .35-.065.48-.174.56-.438.83-.99.938-2.988l.001-.04c0-.557.005-1.088.01-1.603l.001-.21v-.005c.023-2.427.04-4.18-.363-5.326l-.027-.066a1.83 1.83 0 0 0-1.162-1.007c-.676-.189-1.452.006-2.307.581l-.01.008-.015.01-1.187.871c-.105-1.515-.393-2.51-1.18-3.302C15.74 3.25 13.985 3.25 10.491 3.25H8.736a.75.75 0 0 0 .003 1.5h1.75c3.083 0 4.63 0 5.438.804.802.806.802 2.356.802 5.446v1.757a.75.75 0 0 0 1.5 0V11q.001-.742-.004-1.386l2.004-1.47c.654-.436.972-.396 1.054-.373.1.028.16.108.192.166.301.91.285 2.705.265 4.78l-.002.21c-.004.512-.009 1.04-.009 1.595-.045.812-.12 1.373-.225 1.67-.045.126-.053.132-.15.207a.76.76 0 0 0-.295.598" clip-rule="evenodd"/></svg>