<svg xmlns="http://www.w3.org/2000/svg" width="25" height="24" fill="none"><path fill="#141B34" fill-rule="evenodd" d="M3.348 11.48c.66-.925 1.826-2.374 3.377-3.585C8.277 6.683 10.163 5.75 12.28 5.75c2.119 0 4.004.933 5.557 2.145 1.55 1.211 2.716 2.66 3.377 3.585.163.23.24.341.287.43.03.057.03.072.03.088v.004c0 .016 0 .031-.03.088a4 4 0 0 1-.287.43c-.66.925-1.826 2.374-3.377 3.585-1.553 1.212-3.438 2.145-5.557 2.145-2.118 0-4.004-.933-5.556-2.145-1.551-1.211-2.717-2.66-3.377-3.585a4 4 0 0 1-.287-.43c-.03-.057-.03-.072-.03-.088v-.004c0-.016 0-.031.03-.088.046-.089.124-.2.287-.43m8.933-7.23c-2.57 0-4.774 1.131-6.48 2.463S2.834 9.62 2.128 10.61l-.054.074c-.253.352-.542.754-.542 1.316s.29.964.542 1.316l.054.074c.706.99 1.967 2.564 3.675 3.897 1.705 1.332 3.909 2.463 6.48 2.463 2.57 0 4.773-1.131 6.479-2.463s2.969-2.907 3.675-3.896l.053-.075c.253-.352.542-.754.542-1.316s-.289-.964-.542-1.316l-.053-.074c-.706-.99-1.968-2.564-3.675-3.897S14.85 4.25 12.28 4.25M10.031 12a2.25 2.25 0 1 0 4.5 0 2.25 2.25 0 0 0-4.5 0m2.25 3.75a3.75 3.75 0 1 1 0-7.5 3.75 3.75 0 0 1 0 7.5" clip-rule="evenodd"/></svg>