<svg xmlns="http://www.w3.org/2000/svg" width="25" height="24" fill="none"><path fill="#141B34" fill-rule="evenodd" d="M3.562 2.47A.75.75 0 0 0 2.5 3.53l3.125 3.125C3.878 8.002 2.59 9.61 1.876 10.61l-.053.074c-.253.352-.542.754-.542 1.316s.29.964.542 1.316l.054.074c.706.99 1.967 2.564 3.675 3.897 1.705 1.332 3.909 2.463 6.48 2.463 1.945 0 3.682-.65 5.148-1.54l3.32 3.32a.75.75 0 0 0 1.062-1.06l-3.738-3.738-.02-.02L7.318 6.227l-.02-.02zm3.134 5.256c-1.659 1.24-2.904 2.782-3.598 3.754-.163.23-.241.341-.287.43-.03.057-.03.072-.03.088v.004c0 .016 0 .031.03.088.046.089.124.2.287.43.66.925 1.826 2.374 3.377 3.585 1.552 1.212 3.438 2.145 5.556 2.145 1.475 0 2.836-.452 4.053-1.137l-2.022-2.022A3.679 3.679 0 0 1 8.94 9.97zm3.334 3.333a2.179 2.179 0 0 0 2.942 2.942zM12.03 5.75c-.821 0-1.606.14-2.35.382a.75.75 0 1 1-.463-1.427 9 9 0 0 1 2.813-.455c2.57 0 4.774 1.131 6.48 2.463s2.969 2.907 3.675 3.897l.053.074c.253.352.542.754.542 1.316s-.289.964-.542 1.316l-.053.074a20 20 0 0 1-2.187 2.581.75.75 0 0 1-1.057-1.064 19 19 0 0 0 2.023-2.387 4 4 0 0 0 .287-.43c.03-.057.03-.072.03-.088v-.004c0-.016 0-.031-.03-.088a4 4 0 0 0-.287-.43c-.66-.925-1.826-2.374-3.377-3.585C16.035 6.683 14.15 5.75 12.03 5.75" clip-rule="evenodd"/></svg>