<svg xmlns="http://www.w3.org/2000/svg" width="25" height="24" fill="none"><path fill="#141B34" fill-rule="evenodd" d="M8.176 13.885c-1.363-.582-2.545-1.388-3.514-2.204l-1.85 1.85a.75.75 0 0 1-.53.22h-.001a.75.75 0 0 1-.53-1.28l1.804-1.806c-1.163-1.163-1.83-2.148-1.897-2.249a.75.75 0 1 1 1.247-.832c.038.056 3.858 5.666 9.376 5.666s9.338-5.61 9.376-5.667a.75.75 0 0 1 1.249.832c-.068.101-.735 1.086-1.899 2.25l1.805 1.805a.75.75 0 0 1-.53 1.28h-.001a.74.74 0 0 1-.53-.22l-1.85-1.85c-.97.816-2.152 1.623-3.515 2.204l1.038 1.73a.75.75 0 0 1-1.286.772l-1.198-1.997c-.834.227-1.722.36-2.659.36v.001c-.936 0-1.825-.133-2.659-.36l-1.198 1.996a.75.75 0 0 1-1.286-.772z" clip-rule="evenodd"/></svg>