<svg xmlns="http://www.w3.org/2000/svg" width="24" height="24" fill="none"><path fill="#141B34" fill-rule="evenodd" d="M18.83 6.75c-.022.093-.049.218-.086.396-.387 1.86-1.628 3.58-2.74 4.717l-.031.032c-.225.229-.47.48-.706.646-.264.187-.698.396-1.203.193-.471-.19-.666-.588-.743-.935-.067-.305-.071-.681-.071-1.05V7.053a3 3 0 0 0-.007-.243 3 3 0 0 0-.223-.007h-.017L10.66 6.75c-.157 0-.288 0-.402.002l.178.358c.208.413.36.795.36 1.362v2.715c0 .372 0 .745-.052 1.037-.06.338-.23.791-.746.992a1.14 1.14 0 0 1-.673.052 1.4 1.4 0 0 1-.52-.246c-.23-.168-.472-.425-.704-.672l-.038-.04c-1.43-1.52-2.149-3.394-2.608-5.336q-.03-.133-.054-.223h-2.63l.019.143c.245 1.828 1.186 4.293 2.83 6.366 1.636 2.063 3.923 3.685 6.858 3.967.544.053.66-.034.664-.038q0 .001.012-.016a.4.4 0 0 0 .037-.09 2 2 0 0 0 .058-.544v-.056c0-.33-.001-.863.13-1.341.146-.537.517-1.185 1.364-1.327a1.8 1.8 0 0 1 1.044.118c.308.131.586.343.853.567 1.028.862 1.554 1.906 1.89 2.622q.04.085.063.123.045.005.145.005h2.075q.15 0 .26-.008-.03-.07-.071-.16a8.2 8.2 0 0 0-2.009-2.647l-.024-.02a14 14 0 0 1-.735-.66 2.3 2.3 0 0 1-.274-.323 1.1 1.1 0 0 1-.195-.521c-.035-.392.174-.713.287-.878.133-.195.325-.43.54-.694l.02-.025c.882-1.078 2.034-2.718 2.563-4.414q.025-.08.04-.143a3 3 0 0 0-.228-.007H18.83m.219-1.5h1.939c.25 0 .505.014.736.067.232.052.514.161.732.41.228.26.295.568.294.84a2.7 2.7 0 0 1-.142.78c-.615 1.973-1.913 3.792-2.833 4.916-.182.223-.312.383-.404.505.135.128.328.294.602.53a9.7 9.7 0 0 1 2.385 3.141c.13.272.236.553.274.827.04.286.012.636-.223.941-.221.288-.534.41-.78.468-.25.059-.533.075-.815.075h-2.075c-.272 0-.628-.018-.95-.22-.327-.204-.498-.518-.616-.77-.318-.679-.731-1.47-1.496-2.11-.25-.21-.386-.298-.478-.338a.3.3 0 0 0-.206-.018c-.05.008-.062.021-.072.032a.55.55 0 0 0-.095.211c-.075.274-.076.623-.076 1.002 0 .664-.114 1.35-.638 1.795-.51.431-1.19.443-1.777.386-3.444-.331-6.073-2.236-7.89-4.528-1.81-2.282-2.86-5-3.141-7.098l-.005-.036c-.025-.185-.054-.405-.048-.6.008-.25.075-.532.297-.784.232-.262.52-.357.762-.394a4.4 4.4 0 0 1 .675-.03h2.228c.17 0 .357 0 .517.019.187.022.424.077.643.25.224.175.333.398.397.575.056.152.099.337.14.506q.002.015.006.029c.431 1.824 1.067 3.406 2.24 4.653l.14.147V8.472c0-.24-.043-.38-.198-.687l-.021-.041c-.146-.288-.29-.575-.371-.82-.09-.27-.168-.682.082-1.083.249-.4.652-.512.93-.553.258-.038.58-.038.906-.038h.062l2.342.053c.22 0 .446.01.655.057.221.048.47.147.676.359.204.21.295.46.34.676.042.21.05.437.05.658v3.696l.002.248.18-.183c1.016-1.038 2.04-2.51 2.345-3.974l.003-.017c.05-.236.096-.46.152-.64.057-.182.157-.44.388-.638.241-.209.516-.26.706-.28.156-.016.345-.015.524-.015" clip-rule="evenodd"/></svg>