<svg xmlns="http://www.w3.org/2000/svg" width="24" height="24" fill="none"><path fill="#141B34" fill-rule="evenodd" d="M21.47 22.53a.748.748 0 0 0 1.061 0 .75.75 0 0 0 0-1.06l-7.945-7.945a1 1 0 0 0-.11-.11L8.53 7.469a1 1 0 0 0-.078-.078L2.53 1.47A.75.75 0 0 0 1.47 2.53l5.123 5.124c-.268.021-.595.024-1.003.024h-.088l-.357-.003h-.001c-1.093-.015-2.59-.036-3.428 1.247-.465.702-.465 1.545-.465 3.077s0 2.377.462 3.076c.84 1.285 2.337 1.265 3.43 1.25l.123-.002.235-.001c1.417 0 1.869.188 2.844 1.182 2.014 2.055 3.192 3.257 4.333 3.257l.003-.003c.228 0 .453-.048.684-.146 1.15-.484 1.348-2.122 1.382-4.804zm-8.216-8.215L7.838 8.899c-.637.272-1.355.279-2.206.279h-.13q-.181 0-.373-.004h-.004c-1.065-.015-1.792.017-2.154.57-.218.33-.218 1.014-.218 2.255s0 1.924.216 2.25c.365.558 1.09.589 2.157.574q.192-.004.378-.004c1.817 0 2.659.35 3.915 1.632l.002.002c1.561 1.593 2.91 2.969 3.359 2.778.012-.01.252-.203.377-1.465.09-.913.096-2.091.097-3.451m4.318.4a.8.8 0 0 0 .228.036v-.001a.75.75 0 0 0 .714-.522 5 5 0 0 0 .236-1.51c0-1.157-.404-2.262-1.17-3.194a.75.75 0 1 0-1.16.952c.543.66.83 1.436.83 2.243q0 .537-.164 1.053a.75.75 0 0 0 .486.943m3.017 2.384a.75.75 0 0 1-.585-1.219c.815-1.017 1.245-2.185 1.245-3.38 0-1.45-.614-2.821-1.776-3.964a.75.75 0 0 1 1.053-1.07c1.434 1.41 2.224 3.199 2.224 5.035 0 1.538-.545 3.03-1.575 4.317a.75.75 0 0 1-.586.28M13.249 9.5c0 .414.337.75.75.75l.002-.001a.75.75 0 0 0 .75-.75v-.286c0-3.388 0-5.255-1.358-5.828-1.294-.548-2.397.556-3.923 2.084a.75.75 0 1 0 1.06 1.06c.809-.808 1.916-1.916 2.279-1.761.022.01.22.118.336 1.002.105.817.105 1.976.105 3.444z" clip-rule="evenodd"/></svg>