<svg xmlns="http://www.w3.org/2000/svg" width="24" height="24" fill="none"><path fill="#141B34" fill-rule="evenodd" d="M12 2.75a9.25 9.25 0 1 0 0 18.5 9.25 9.25 0 0 0 0-18.5M1.25 12C1.25 6.063 6.063 1.25 12 1.25S22.75 6.063 22.75 12 17.937 22.75 12 22.75 1.25 17.937 1.25 12m8.449-6.273a.75.75 0 0 1-.426.972 4.55 4.55 0 0 0-2.574 2.574.75.75 0 0 1-1.398-.546 6.05 6.05 0 0 1 3.426-3.426.75.75 0 0 1 .972.426M10.75 12a1.25 1.25 0 1 0 2.5 0 1.25 1.25 0 0 0-2.5 0M12 14.75a2.75 2.75 0 1 1 0-5.5 2.75 2.75 0 0 1 0 5.5" clip-rule="evenodd"/></svg>