<svg xmlns="http://www.w3.org/2000/svg" width="24" height="24" fill="none"><path fill="#141B34" fill-rule="evenodd" d="M5.49 22.753h10.362v.001c1.964 0 3.046 0 3.828-.819.78-.799.78-1.912.78-3.93V6.484c0-.327.148-.628.338-1.009q.06-.118.116-.235c.698-1.44 1.118-2.309.627-3.135-.51-.842-1.454-.842-3.02-.842H7.888q-.156 0-.323-.005l-.097-.002h-.001C6.42 1.234 4.99 1.203 4.139 2.302c-.588.754-.588 1.709-.588 3.442 0 1.102.826 1.95 1.373 2.51.077.077.168.17.244.253-.065.071-.14.15-.206.22l-.032.034-.003.003c-.549.578-1.376 1.45-1.376 2.58v6.19c0 .322-.147.622-.334 1.002l-.045.091-.077.161v.001c-.697 1.428-1.117 2.29-.632 3.122l.01.016c.51.826 1.453.826 3.016.826m-1.734-1.611c.193.111 1.01.111 1.733.111h10.363c1.67 0 2.42-.014 2.744-.356l.01-.009c.354-.36.354-1.257.354-2.884V6.484c0-.678.264-1.208.496-1.676h.001l.107-.219.006-.013c.338-.697.715-1.477.683-1.697-.161-.115-.995-.115-1.731-.115H7.888q-.218 0-.454-.007h-.002c-.846-.019-1.72-.039-2.11.466-.272.35-.272 1.12-.272 2.52v.001c0 .491.524 1.029.946 1.461.43.441.802.822.782 1.34-.02.47-.347.814-.762 1.25-.43.453-.966 1.017-.966 1.55v6.19c0 .67-.259 1.198-.487 1.663l-.03.062-.084.174-.004.01-.003.005c-.32.656-.715 1.467-.686 1.693m5.251-2.39h5.996a.75.75 0 0 0 0-1.5H9.007a.75.75 0 0 0 0 1.5m2.998-9a2.25 2.25 0 0 1-2.248-2.25 2.25 2.25 0 0 1 2.248-2.25 2.25 2.25 0 0 1 2.249 2.25 2.25 2.25 0 0 1-2.249 2.25m0-3a.75.75 0 1 0 .001 1.501.75.75 0 0 0 0-1.5m-1.708 8.001h3.417v.001c.962 0 1.613-.503 2.013-.875.494-.449.553-.91.515-1.22-.104-.852-1.005-1.34-1.601-1.662l-.088-.048-.062-.034a4.95 4.95 0 0 0-4.966-.003l-.155.084c-.597.324-1.497.81-1.6 1.662-.039.31.02.771.507 1.214.407.378 1.057.881 2.02.881m0-1.5c-.329 0-.62-.135-.973-.455.187-.173.605-.399.759-.482l.171-.094.01-.006.01-.005a3.5 3.5 0 0 1 3.472.005l.182.1.015.008c.165.09.562.306.744.474-.349.318-.642.455-.973.455z" clip-rule="evenodd"/></svg>