<svg xmlns="http://www.w3.org/2000/svg" width="24" height="24" fill="none"><path fill="#141B34" fill-rule="evenodd" d="M12 3.25c-.217 0-.438.078-1.261.425l-5.5 2.316c-.609.256-1.01.426-1.304.59-.279.154-.4.27-.476.385-.077.116-.137.272-.172.59-.036.334-.037.77-.037 1.43V20.75h1.5v-9.295c0-.433 0-.83.043-1.152.048-.356.16-.731.47-1.04s.684-.422 1.04-.47c.323-.043.72-.043 1.152-.043h9.09c.433 0 .83 0 1.152.043.356.048.731.16 1.04.47s.422.684.47 1.04c.043.323.043.72.043 1.152v9.295h1.5V8.986c0-.66-.001-1.096-.037-1.43-.035-.318-.095-.474-.172-.59s-.197-.231-.476-.386c-.295-.163-.696-.333-1.304-.59l-5.5-2.315c-.823-.347-1.044-.425-1.261-.425m-1.73-1.005c.654-.277 1.171-.495 1.73-.495s1.076.218 1.73.495l.113.047 5.536 2.331c.563.237 1.04.438 1.414.645.398.221.74.482.998.869.257.387.364.804.413 1.257.046.425.046.942.046 1.553V21.5a.75.75 0 0 1-.75.75h-3a.75.75 0 0 1-.75-.75v-10c0-.493-.002-.787-.03-.997a.7.7 0 0 0-.04-.174l-.002-.003-.001-.003-.003-.001-.01-.005a.7.7 0 0 0-.167-.037c-.21-.028-.504-.03-.997-.03h-9c-.493 0-.787.002-.997.03a.7.7 0 0 0-.177.042l-.003.001-.001.003-.005.01a.7.7 0 0 0-.037.167c-.028.21-.03.504-.03.997v10a.75.75 0 0 1-.75.75h-3a.75.75 0 0 1-.75-.75V8.947c0-.61 0-1.128.046-1.553.05-.453.156-.87.413-1.257s.6-.648.998-.869c.374-.207.851-.408 1.414-.645l.036-.015 5.5-2.316zM10.25 6.5a.75.75 0 0 1 .75-.75h2a.75.75 0 0 1 0 1.5h-2a.75.75 0 0 1-.75-.75m.75 8.25h-.045c-.433 0-.83 0-1.152.043-.356.048-.731.16-1.04.47s-.422.684-.47 1.04c-.043.323-.043.72-.043 1.152v2.09c0 .433 0 .83.043 1.152.048.356.16.731.47 1.04s.684.422 1.04.47c.323.043.72.043 1.152.043h2.09c.433 0 .83 0 1.152-.043.356-.048.731-.16 1.04-.47s.422-.684.47-1.04c.043-.323.043-.72.043-1.152v-2.09c0-.433 0-.83-.043-1.152-.048-.356-.16-.731-.47-1.04s-.684-.422-1.04-.47c-.323-.043-.72-.043-1.152-.043H11m-1.174 1.572-.003.001-.001.003-.005.01a.7.7 0 0 0-.037.167c-.028.21-.03.504-.03.997v2c0 .493.002.787.03.997a.7.7 0 0 0 .042.177l.001.003.003.001.01.005c.022.009.07.024.167.037.21.028.504.03.997.03h2c.493 0 .787-.002.997-.03a.7.7 0 0 0 .177-.042l.003-.001.001-.003.005-.01a.7.7 0 0 0 .037-.167c.028-.21.03-.504.03-.997v-2c0-.493-.002-.787-.03-.997a.7.7 0 0 0-.037-.167l-.004-.008v-.002l-.002-.003-.003-.001-.01-.005a.7.7 0 0 0-.167-.037c-.21-.028-.504-.03-.997-.03h-2c-.493 0-.787.002-.997.03a.7.7 0 0 0-.177.042" clip-rule="evenodd"/></svg>