<svg xmlns="http://www.w3.org/2000/svg" width="25" height="24" fill="none"><path fill="#141B34" fill-rule="evenodd" d="M12.28 3.307a1.25 1.25 0 0 1 1.04-.557h4.488a1.25 1.25 0 0 1 1.186.855l.215.645h-7.558zm8.137-.177.374 1.12h.959a.75.75 0 0 1 0 1.5h-.796l-.575 9.203v.002l-.062.922a.75.75 0 0 1-.09.307A3.75 3.75 0 1 1 15.2 21.75h-2.495c-1.254 0-2.245 0-3.041-.072-.815-.073-1.497-.227-2.11-.578a4.7 4.7 0 0 1-1.43-1.268c-.418-.567-.627-1.215-.756-1.988-.125-.75-.185-1.686-.26-2.859l-.003-.04v-.003L4.544 5.75H3.75a.75.75 0 0 1 0-1.5h5.43a1.25 1.25 0 0 0 1.04-.557l.812-1.218A2.75 2.75 0 0 1 13.32 1.25h4.488a2.75 2.75 0 0 1 2.61 1.88m-6.204 17.12a3.75 3.75 0 0 1 4.632-4.838l.037-.554v-.001l.57-9.107H6.047l.556 9.099c.079 1.223.135 2.083.246 2.748.109.652.26 1.041.483 1.343.254.344.584.637.97.859.347.2.787.321 1.497.385.721.065 1.645.066 2.944.066zM15.5 19a2.25 2.25 0 1 0 4.5 0 2.25 2.25 0 0 0-4.5 0" clip-rule="evenodd"/></svg>