<svg xmlns="http://www.w3.org/2000/svg" width="24" height="24" fill="none"><path fill="#141B34" fill-rule="evenodd" d="M21.099 12.236c.425-1.818.164-5.66-2.664-8.329-.959-.955-2.674-2.102-4.837-2.507-2.2-.412-4.821-.047-7.5 1.982l-.018.014c-1.115.898-3.09 3.298-3.317 6.484-.226 3.174 1.154 5.348 1.88 6.226l.027.031q.11.12.21.233a8 8 0 0 0 1.18 1.113l.134.107a.75.75 0 0 0 .442.165c.805.03 2.029-.139 3.302-.476 1.266-.336 2.653-.857 3.798-1.58.588-.288 1.834-1.11 2.865-2.516a8 8 0 0 1 1.58 1.994l.042.065c-.42.566-.833.97-1.097 1.2a.75.75 0 0 0 .985 1.132c.755-.657 2.523-2.487 2.988-5.338m-9.125-.674c.777-.09 2.078.014 3.406.749-.892 1.21-1.964 1.881-2.328 2.052a1 1 0 0 0-.085.047c-.98.625-2.225 1.104-3.414 1.419-1.052.279-2.002.415-2.624.428a7 7 0 0 1-.4-.339 6 6 0 0 1-.49-.505c-.072-.08-.152-.169-.253-.278a6.6 6.6 0 0 1-.83-1.33c1.666.33 4.323.221 6.875-2.15a1 1 0 0 0 .055-.057 1 1 0 0 0 .088-.036m-7.523.543-.064-.023a7.8 7.8 0 0 1-.128-2.095c.146-2.052 1.182-3.74 2.057-4.734a14.4 14.4 0 0 0-.267 2.758c-.002.932.085 1.878.284 2.732.138.593.337 1.17.617 1.67-1.107.114-2.01-.113-2.5-.308m3.898-8.247a.8.8 0 0 0 .076-.19 7.9 7.9 0 0 1 2.462-.832c-.539 1.199-.714 2.615-.704 3.915.01 1.431.247 2.838.568 3.859-.761.695-1.526 1.146-2.251 1.427-.293-.356-.538-.912-.706-1.634-.167-.717-.247-1.545-.245-2.389.003-1.722.34-3.348.8-4.156m3.386 1.703c.11-1.087.395-2.071.9-2.782q.353.032.687.096c1.824.341 3.28 1.32 4.06 2.101l.017.016c1.064 1.001 1.692 2.214 2.03 3.374a12.6 12.6 0 0 0-3.602-2.09c-1.567-.59-3.056-.793-4.092-.715M15.3 7.68a10.9 10.9 0 0 1 4.462 3.117 5.3 5.3 0 0 1-.139 1.174 7.2 7.2 0 0 1-.541 1.81c-2.117-3.157-5.123-3.828-6.934-3.736-.23-.772-.418-1.84-.457-2.973.73-.092 2.078.032 3.609.608M16.9 21.601c.54-.825.867-.857.974-.852.204.008.486.168.953.582.073.065.167.152.268.244.139.128.288.265.404.366.232.202.505.42.806.575.307.159.689.277 1.118.213.435-.064.807-.298 1.123-.634a.75.75 0 1 0-1.094-1.027c-.151.162-.235.175-.249.178-.018.002-.077.006-.21-.062a2.8 2.8 0 0 1-.509-.375c-.127-.11-.227-.203-.335-.302-.095-.088-.195-.181-.325-.297-.435-.386-1.085-.925-1.885-.96-.897-.04-1.644.537-2.292 1.527-.18.267-.302.338-.345.356-.023.01-.058.021-.155-.011-.116-.04-.271-.128-.485-.287-.15-.112-.295-.232-.457-.366l-.231-.19c-.46-.376-1.139-.908-1.942-.965-.922-.065-1.707.48-2.385 1.5l-.003.006c-.143.219-.235.257-.25.263h-.001c-.01.003-.05.018-.17-.023-.132-.046-.302-.14-.53-.297-.147-.102-.288-.208-.444-.324l-.285-.212c-.493-.36-1.189-.843-1.981-.891-.908-.055-1.687.45-2.336 1.44-.286.427-.483.452-.518.452-.031 0-.224-.022-.502-.447a.75.75 0 0 0-1.256.82c.408.625 1 1.127 1.758 1.127.755 0 1.351-.499 1.767-1.12L4.9 21.6c.478-.732.814-.778.993-.768.295.018.659.219 1.185.604l.238.177c.172.129.356.267.527.384.26.18.565.367.893.48.34.117.746.168 1.17.014.415-.15.737-.46.992-.85.537-.807.88-.842 1.028-.831.264.018.592.217 1.1.63l.19.157c.176.145.367.304.55.44.254.189.56.39.902.505.361.122.781.154 1.211-.026.411-.171.741-.498 1.017-.91z" clip-rule="evenodd"/></svg>