<svg xmlns="http://www.w3.org/2000/svg" width="24" height="24" fill="none"><path fill="#141B34" fill-rule="evenodd" d="M12.057 1.75h-.114c-2.19 0-3.912 0-5.255.18-1.377.186-2.469.573-3.327 1.43-.858.86-1.245 1.951-1.43 3.328-.181 1.343-.181 3.064-.181 5.255v.114c0 2.19 0 3.912.18 5.255.186 1.377.573 2.469 1.43 3.327.86.858 1.951 1.245 3.328 1.43 1.343.181 3.064.181 5.255.181h.114c2.19 0 3.912 0 5.255-.18 1.377-.186 2.469-.573 3.327-1.43.858-.86 1.245-1.951 1.43-3.328.181-1.343.181-3.064.181-5.255v-.114c0-2.19 0-3.912-.18-5.255-.186-1.377-.573-2.469-1.43-3.327-.86-.858-1.951-1.245-3.328-1.43-1.343-.181-3.064-.181-5.255-.181M4.422 4.422c.533-.533 1.256-.842 2.466-1.005C8.12 3.252 9.74 3.25 12 3.25s3.88.002 5.112.167c1.21.163 1.933.472 2.466 1.005s.842 1.256 1.005 2.466c.165 1.232.167 2.852.167 5.112s-.002 3.88-.167 5.112c-.163 1.21-.471 1.933-1.005 2.466s-1.256.842-2.466 1.005c-1.232.165-2.852.167-5.112.167s-3.88-.002-5.112-.167c-1.21-.163-1.933-.471-2.466-1.005s-.842-1.256-1.005-2.466C3.252 15.88 3.25 14.26 3.25 12s.002-3.88.167-5.112c.163-1.21.472-1.933 1.005-2.466m5.364 6.892c.27-.522.672-1.07 1.124-1.53.46-.467.924-.8 1.302-.95.38-.15.499-.063.543-.022.11.102.326.469.326 1.487a.75.75 0 0 0 1.385.398c.253-.404 1.045-1.332 2.04-1.71.276-.104.488-.112.616-.088.082.015.114.037.125.047.004.019.011.08-.035.209-.071.196-.255.495-.652.875l.486.508-.486-.508h-.001l-.002.002-.004.004-.012.011-.008.01-.03.03q-.049.049-.132.139a9 9 0 0 0-.444.525c-.362.46-.837 1.142-1.31 2.044-.188.359-.456.72-.754 1-.307.287-.59.44-.802.48-.162.032-.302.007-.467-.165-.203-.212-.458-.675-.638-1.59a.75.75 0 0 0-1.429-.14c-.506 1.225-1.004 1.99-1.436 2.422-.427.428-.718.466-.872.443-.176-.027-.436-.17-.715-.602-.273-.423-.508-1.045-.646-1.825-.277-1.564.024-2.535.388-3.026.366-.491.752-.5.954-.404.177.083.277.23.311.503.037.293-.026.625-.098.829a.75.75 0 0 0 1.373.594m3.994-3.597c.247.231.429.53.556.882.45-.395 1.004-.773 1.638-1.014.882-.335 2.05-.3 2.574.614.26.452.252.978.074 1.468-.176.483-.525.969-1.025 1.447l-.003.002-.005.005-.016.017-.097.101c-.086.094-.214.24-.37.44a12 12 0 0 0-1.16 1.812c-.261.499-.63.995-1.056 1.397-.42.393-.951.747-1.547.86-.645.124-1.304-.048-1.832-.6a3 3 0 0 1-.407-.548 6.4 6.4 0 0 1-.952 1.263c-.632.632-1.373.983-2.157.865-.762-.115-1.345-.642-1.75-1.27-.412-.638-.702-1.464-.864-2.379-.324-1.828-.024-3.259.661-4.181s1.8-1.337 2.797-.867c.424.199.706.495.888.82l.113-.118c.54-.55 1.176-1.038 1.821-1.293.644-.255 1.472-.33 2.12.277m3.817 3.397h-.001l-.518-.542z" clip-rule="evenodd"/></svg>