<svg xmlns="http://www.w3.org/2000/svg" width="24" height="24" fill="none"><path fill="#141B34" fill-rule="evenodd" d="M13.31 5.287c.325.041.668.138.965.4.298.263.436.591.518.909.062.24.103.528.142.84l.344-.692c.122-.245.237-.477.355-.663.131-.208.298-.413.548-.568.25-.156.508-.215.752-.24.219-.023.477-.023.749-.023h1.768c.689 0 1.29 0 1.75.069.485.072 1.023.25 1.34.782.317.53.22 1.088.057 1.55-.156.442-.437.975-.761 1.588l-4.267 8.077a8 8 0 0 1-.36.638c-.133.2-.3.396-.546.545a1.7 1.7 0 0 1-.737.23c-.213.021-.464.021-.729.021h-1.39c-.696 0-1.302 0-1.767-.07-.488-.072-1.03-.25-1.348-.789-.316-.536-.212-1.097-.043-1.56.15-.41.407-.896.708-1.452q-.256.164-.53.333c-1.837 1.134-4.338 2.482-6.7 3.19-.34.101-.697.208-1.02.235a1.62 1.62 0 0 1-1.153-.321c-.39-.29-.567-.674-.642-1.082-.063-.342-.063-.81-.063-1.234v-.534c0-.39 0-.734.027-1.012.028-.29.093-.618.301-.908.227-.315.584-.491.879-.616a21 21 0 0 1 1.27-.456c.786-.266 1.476-.716 2.08-1.285l-.11.017c-.323.044-.72.044-1.152.044h-.59c-.433 0-.83 0-1.152-.044-.356-.047-.731-.16-1.04-.469s-.422-.685-.47-1.04c-.043-.323-.043-.72-.043-1.153v-.59c0-.432 0-.829.043-1.152.048-.355.16-.73.47-1.04.309-.309.684-.421 1.04-.469.323-.043.72-.043 1.152-.043h.59c.433 0 .83 0 1.152.043.356.048.731.16 1.04.47.31.308.422.684.47 1.04.043.322.043.72.043 1.152v.59c0 .32 0 .62-.017.886.482-.76.882-1.582 1.211-2.392.127-.311.242-.594.36-.817.126-.24.295-.49.568-.674.268-.18.552-.245.817-.273.242-.025.532-.025.843-.025h1.244c.384 0 .74 0 1.034.037m-2.244 1.464c-.357 0-.566 0-.72.017a.27.27 0 0 0-.216.155c-.079.149-.166.36-.309.712-.954 2.345-2.64 5.256-5.615 6.26a19 19 0 0 0-1.164.417c-.244.095-.283.23-.272.287-.02.197-.02.468-.02.902v.5c0 .5.003.772.038.962 0 .236.651.117.961-.014 2.174-.65 4.492-1.902 6.29-3.013a47 47 0 0 0 3.006-2.032.75.75 0 0 1 1.114.954L12.782 15.4c-.37.682-.603 1.118-.723 1.445a1 1 0 0 0-.07.282s.112.046.274.07c.34.052.832.053 1.604.053h1.3c.307 0 .48 0 .608-.013a.16.16 0 0 0 .185-.113 7 7 0 0 0 .298-.535l4.226-8c.358-.678.585-1.112.7-1.436a1 1 0 0 0 .066-.277.9.9 0 0 0-.27-.073c-.337-.05-.823-.052-1.587-.052h-1.679c-.314 0-.493 0-.624.014-.037-.005-.127.012-.188.118a7 7 0 0 0-.293.557l-1.437 2.894a.75.75 0 0 1-1.416-.24l-.281-2.249c-.055-.437-.088-.693-.135-.876a.27.27 0 0 0-.22-.194c-.186-.023-.446-.025-.886-.025zM4 6.75c-.493 0-.787.001-.997.03-.067-.022-.223.058-.223.222-.028.211-.03.505-.03.998v.5c0 .492.002.786.03.997-.011.067.018.206.223.223.21.028.504.03.997.03h.5c.493 0 .787-.002.997-.03.068.002.207-.039.223-.223.028-.21.03-.505.03-.997V8c0-.493-.002-.787-.03-.998-.016-.19-.155-.228-.223-.222-.21-.029-.504-.03-.997-.03z" clip-rule="evenodd"/></svg>