<svg xmlns="http://www.w3.org/2000/svg" width="25" height="24" fill="none"><path fill="#141B34" fill-rule="evenodd" d="M9.42 5.75H7.86c-.946 0-1.468 0-1.988-.2a3.3 3.3 0 0 1-.48-.242l-.028-.018c-.464-.3-.755-.71-1.284-1.456-.466-.662-.772-1.097-.624-1.663l.005-.017a1.3 1.3 0 0 1 .255-.464l.03-.034c.382-.406.892-.406 1.735-.406h13.38c.845 0 1.355 0 1.736.406l.03.034c.08.096.194.248.256.464l.005.017c.148.566-.158 1.001-.622 1.66l-.002.002c-.531.748-.822 1.157-1.285 1.457l-.03.018-.005.003c-.135.08-.289.169-.473.239-.52.2-1.042.2-1.99.2h-1.56v2.004c2.92 1.112 5 3.94 5 7.246v3.89c0 2.706-1.154 3.86-3.86 3.86H8.28c-2.706 0-3.86-1.154-3.86-3.86V15c0-3.305 2.08-6.134 5-7.246zm1.5 0v1.6a7.8 7.8 0 0 1 2.5 0v-1.6zm3.25-1.5H7.86c-.792 0-1.19 0-1.45-.1a2 2 0 0 1-.244-.128v.001c-.208-.14-.418-.43-.862-1.055l-.152-.217H19.19l-.15.215c-.445.626-.655.915-.864 1.056-.09.053-.175.101-.244.128-.26.1-.659.1-1.451.1zm-2 4.5A6.257 6.257 0 0 0 5.92 15v3.89c0 1.875.486 2.36 2.36 2.36h7.78c1.876 0 2.36-.485 2.36-2.36V15a6.257 6.257 0 0 0-6.25-6.25m4 7a.75.75 0 0 1-.75-.75 3.254 3.254 0 0 0-3.25-3.25A3.254 3.254 0 0 0 8.92 15a.75.75 0 0 1-1.5 0 4.756 4.756 0 0 1 4.75-4.75A4.756 4.756 0 0 1 16.92 15a.75.75 0 0 1-.75.75m-4.335 1.92a.749.749 0 0 0 1.006-.335l1-1.999a.75.75 0 1 0-1.341-.671l-1 2a.75.75 0 0 0 .335 1.006" clip-rule="evenodd"/></svg>