<svg xmlns="http://www.w3.org/2000/svg" width="24" height="24" fill="none"><path fill="#141B34" fill-rule="evenodd" d="M11.976 12.749h.052c.224-.006 3.419-.133 5.51-2.264 2.116-2.157 2.21-5.469 2.214-5.609a.747.747 0 0 0-.767-.766h-.003a9.8 9.8 0 0 0-2.936.619.75.75 0 1 0 .532 1.402 8.5 8.5 0 0 1 1.58-.423c-.16.982-.58 2.594-1.692 3.727-.824.84-1.905 1.292-2.8 1.535.588-.997 1.186-2.398 1.186-3.97 0-3.022-2.21-5.413-2.303-5.513a.75.75 0 0 0-1.094 0c-.094.1-2.303 2.491-2.303 5.513 0 1.572.598 2.973 1.185 3.97-.894-.243-1.975-.695-2.8-1.535C6.426 8.301 6.005 6.69 5.847 5.708c.436.073.996.201 1.58.423a.75.75 0 0 0 .532-1.402 9.8 9.8 0 0 0-2.94-.619.751.751 0 0 0-.767.766c.003.14.098 3.452 2.215 5.61 2.09 2.13 5.285 2.257 5.51 2.263m-1.325-5.75c0-1.568.79-2.98 1.35-3.785.56.805 1.35 2.218 1.35 3.785s-.79 2.98-1.35 3.785c-.561-.805-1.35-2.217-1.35-3.785m-.774 12.754a2.5 2.5 0 0 1-1.491-.498l-1.99-1.461a.75.75 0 1 1 .888-1.21l1.988 1.46a1 1 0 0 0 1.032.108c.08-.038.2-.085.412-.17l.035-.013c.289-.114 1.052-.416 1.455-.624a1 1 0 0 0-.312-.503.74.74 0 0 0-.604-.182l-.17.026h-.004c-.724.113-1.626.254-2.48-.372l-1.762-1.29c-.464-.34-1.32-.287-2.075-.24l-.05.004c-.262.016-.51.03-.751.03a.75.75 0 0 1 0-1.5c.21 0 .452-.014.708-.03.959-.06 2.152-.135 3.054.526l1.763 1.29c.337.247.719.202 1.365.1l.174-.026c.64-.1 1.3.09 1.807.525q.195.167.35.37l3.556-1.643.064-.026a2.72 2.72 0 0 1 2.885.712l.666.696c.276.288.402.682.345 1.08a1.27 1.27 0 0 1-.627.93l-7.85 4.558c-.412.244-.888.37-1.371.37v-.001c-.255 0-.514-.036-.765-.108l-6.338-1.892a.749.749 0 1 1 .429-1.437l6.33 1.89c.327.094.669.053.956-.117l7.625-4.427-.487-.51a1.21 1.21 0 0 0-1.268-.341l-3.627 1.675q.006.088.006.177c0 .677-.634.988-2.446 1.704-.148.058-.315.125-.358.145a2.5 2.5 0 0 1-1.068.244m9.481-3.232h-.001z" clip-rule="evenodd"/></svg>