<svg xmlns="http://www.w3.org/2000/svg" width="24" height="24" fill="none"><path fill="#141B34" fill-rule="evenodd" d="M2.75 12A9.25 9.25 0 1 1 12 21.25a9.2 9.2 0 0 1-3.596-.725l-.017-.007c-.316-.133-.577-.244-.791-.322a2.5 2.5 0 0 0-.672-.164c-.378-.026-.77.08-1.221.2l-.098.027-2.545.681.681-2.545.026-.098c.121-.45.227-.843.2-1.22a2.5 2.5 0 0 0-.163-.673c-.078-.214-.189-.475-.322-.79l-.007-.018A9.2 9.2 0 0 1 2.75 12M12 1.25C6.063 1.25 1.25 6.063 1.25 12c0 1.48.3 2.894.843 4.18.142.337.238.565.303.74.065.178.074.243.075.26.007.094-.017.221-.18.827l-1.015 3.8a.75.75 0 0 0 .918.918l3.799-1.017c.606-.162.733-.186.827-.18.017.002.082.011.26.076.175.065.403.16.74.303a10.7 10.7 0 0 0 4.18.843c5.937 0 10.75-4.813 10.75-10.75S17.937 1.25 12 1.25m-3.027 5h-.092c-.48 0-.922-.001-1.358.197-.316.145-.585.39-.78.635a2.2 2.2 0 0 0-.448.902c-.098.466-.017.821.07 1.2l.011.053c.435 1.924 1.45 3.811 3.013 5.374s3.45 2.579 5.374 3.013l.053.012c.38.086.734.167 1.2.07.34-.072.657-.252.902-.448s.49-.465.635-.781c.199-.435.198-.878.197-1.357v-.093c0-.22-.007-.592-.15-.935a1.35 1.35 0 0 0-1.074-.834h-.006c-.683-.108-1.202-.189-1.57-.242a15 15 0 0 0-.456-.061 2 2 0 0 0-.346-.019c-.49.029-.879.227-1.18.434-.193.131-.401.308-.565.446q-.098.083-.169.14l-.682.55a10.2 10.2 0 0 1-2.058-2.058l.55-.682q.057-.071.14-.169c.139-.164.315-.372.446-.564.207-.302.406-.691.434-1.18a2 2 0 0 0-.018-.347q-.021-.18-.061-.456c-.054-.367-.135-.887-.242-1.57l-.001-.006A1.35 1.35 0 0 0 9.908 6.4c-.343-.143-.714-.15-.935-.15m6.12 9.911a9.1 9.1 0 0 1-2.198-.81l.28-.226c.11-.088.198-.163.277-.23.129-.11.233-.198.363-.288.168-.115.29-.162.404-.172h.005l.1.01c.097.01.23.029.41.055.348.05.839.127 1.498.23l.007.052q.011.1.011.245c0 .625-.014.724-.061.827a.8.8 0 0 1-.207.232.8.8 0 0 1-.273.15c-.121.026-.176.024-.615-.075m-6.218-5.336-.226.28a9.1 9.1 0 0 1-.81-2.198c-.1-.44-.101-.494-.076-.616a.8.8 0 0 1 .15-.272.8.8 0 0 1 .234-.207c.103-.047.202-.062.826-.062a2 2 0 0 1 .297.019c.103.658.18 1.15.23 1.497.026.18.044.314.055.41q.01.082.01.1v.005c-.01.113-.057.236-.172.404-.09.13-.178.234-.288.364-.067.078-.142.167-.23.277" clip-rule="evenodd"/></svg>