<svg xmlns="http://www.w3.org/2000/svg" width="25" height="24" fill="none"><path fill="#141B34" fill-rule="evenodd" d="m20.307 3.752.11.11q.003.064-.008.173c-.031.267-.151.646-.388 1.12-.47.94-1.324 2.102-2.461 3.24-1.137 1.137-2.3 1.99-3.24 2.46-.473.237-.852.357-1.12.388q-.109.012-.171.008l-.11-.11q-.005-.063.007-.172c.032-.268.152-.646.389-1.12.47-.94 1.323-2.102 2.46-3.24 1.138-1.137 2.3-1.99 3.24-2.46.474-.237.852-.357 1.12-.389q.11-.011.172-.008m.755-1.334c-2.355-1.94-6.04-1.372-8.445 1.033-2.335 2.335-2.94 5.877-1.196 8.237l-3.783 3.784-.01.01a2.295 2.295 0 0 0-2.626.442L2.09 18.836a2.294 2.294 0 1 0 3.244 3.244l2.912-2.912c.71-.71.857-1.77.442-2.625l.01-.01 3.784-3.785c2.36 1.744 5.902 1.14 8.237-1.195 2.405-2.405 2.973-6.09 1.032-8.446a1.45 1.45 0 0 0-.689-.689m.3 3.41c-.56 1.118-1.522 2.408-2.741 3.627s-2.508 2.18-3.627 2.74c1.492.24 3.262-.3 4.665-1.703C21.06 9.09 21.6 7.32 21.36 5.827m-9.388 3.348c.56-1.12 1.522-2.408 2.74-3.627 1.22-1.219 2.509-2.18 3.628-2.74-1.493-.24-3.262.3-4.665 1.702-1.402 1.403-1.941 3.172-1.703 4.665m-4.789 7.808a.794.794 0 0 0-1.123 0l-2.911 2.912a.794.794 0 1 0 1.123 1.123l2.911-2.911a.794.794 0 0 0 0-1.124" clip-rule="evenodd"/></svg>