<svg xmlns="http://www.w3.org/2000/svg" width="24" height="24" fill="none"><path fill="#141B34" fill-rule="evenodd" d="M12.73 7.844V2.883a2.25 2.25 0 0 0-1.46 2.119v2.843a2.74 2.74 0 0 1 1.46 0M9.77 8.89V5.002c0-2.069 1.664-3.752 3.71-3.752a.75.75 0 0 1 .75.75v6.888c.207.287.36.614.445.968l5.718 3.505a.75.75 0 0 1 .257 1.015 3.76 3.76 0 0 1-3.257 1.874v-.002a3.73 3.73 0 0 1-1.867-.5l-.013-.007-.012-.008-3.5-2.202L8.5 15.733l-.013.008-.012.007a3.73 3.73 0 0 1-1.867.5v.001a3.76 3.76 0 0 1-3.257-1.874.75.75 0 0 1 .258-1.015l5.716-3.5a2.7 2.7 0 0 1 .445-.97m2.355 2.854a1.254 1.254 0 0 0 1.117-1.392A1.25 1.25 0 0 0 12 9.246a1.252 1.252 0 1 0 .125 2.497m-1.701 1.008a2.77 2.77 0 0 1-.97-1.213L5.12 14.194a2.26 2.26 0 0 0 2.596.261zm5.863 1.705-2.71-1.705c.429-.302.768-.723.97-1.215l4.336 2.658a2.26 2.26 0 0 1-2.596.262m-4.407 8.299h.24c1.049 0 1.955 0 2.408-.966.36-.75.227-1.681-.014-3.367l-.001-.005-.002-.011-.32-2.023a.75.75 0 0 0-1.482.234l.319 2.018c.181 1.258.311 2.167.147 2.505l-.005.01-.019.036c-.112.068-.622.068-1.031.068h-.24c-.411 0-.923 0-1.027-.064a.1.1 0 0 1-.023-.04l-.002-.005-.003-.005c-.163-.338-.033-1.247.147-2.505l.319-2.018a.751.751 0 0 0-1.482-.234l-.32 2.023-.002.011v.005c-.242 1.686-.376 2.617-.015 3.367.453.966 1.359.966 2.408.966" clip-rule="evenodd"/></svg>