<svg xmlns="http://www.w3.org/2000/svg" width="24" height="24" fill="none"><path fill="#141B34" fill-rule="evenodd" d="M10.89 17.137c-.402.446-.9 1.146-1.56 2.076-.28.395-.436.619-.524.797-.067.137-.058.177-.052.204v.003c.009.04.017.054.02.057s.013.02.052.052c.104.084.27.173.627.356q.493.251 1.022.405c.18.052.318.09.437.12a1.4 1.4 0 0 0 .256.043zm-.337-1.677c.291-.168.7-.295 1.138-.122.42.166.64.52.759.82.12.302.184.66.223 1.028.077.728.077 1.713.077 2.847v.093c0 .438 0 .848-.05 1.182-.058.378-.195.765-.543 1.07a1.46 1.46 0 0 1-1.101.369c-.302-.02-.637-.116-.943-.204l-.052-.015a7 7 0 0 1-1.291-.51l-.045-.024c-.291-.149-.6-.307-.84-.5a1.63 1.63 0 0 1-.598-.966c-.094-.443 0-.827.172-1.177.148-.302.378-.626.62-.966l.028-.04.028-.04c.625-.88 1.173-1.653 1.642-2.172.236-.262.496-.51.776-.673m7.312-.316c-1.017-.373-1.86-.665-2.507-.784-.59-.108-1.398-.146-1.875.522l-.017.024-.015.025c-.396.657-.13 1.393.14 1.95.292.603.785 1.37 1.39 2.313l.03.046c.238.371.47.715.714.968.26.27.599.504 1.053.54l.025.001h.025c.438.006.774-.168 1.047-.415.22-.198.43-.475.632-.741l.03-.04q.349-.46.637-.968l.023-.04c.169-.299.34-.6.441-.886.122-.345.157-.702.041-1.098l-.005-.02-.007-.018c-.144-.413-.417-.693-.743-.9-.298-.19-.67-.336-1.06-.479m-2.778.692a2 2 0 0 0-.317-.038c.023.086.07.223.17.429.248.512.69 1.202 1.333 2.202.246.383.404.606.532.738a1 1 0 0 0 .06.058l.005-.004c.102-.092.226-.25.472-.575q.287-.379.527-.8c.202-.357.303-.541.355-.687.03-.084.03-.12.021-.157-.01-.022-.036-.057-.126-.114-.143-.09-.371-.189-.771-.336-1.041-.382-1.762-.625-2.261-.716m1.818 3.418.008.003zM6.7 10.754l.047.023.029.013c.92.424 1.847.851 2.54 1.26.349.204.68.428.93.671.226.22.53.596.502 1.097-.028.502-.37.841-.62 1.036-.275.214-.628.4-.996.564-.734.329-1.702.65-2.662.97l-.03.01-.05.016c-.4.133-.785.26-1.12.31-.395.06-.81.027-1.206-.243a1.6 1.6 0 0 1-.663-.96c-.081-.305-.105-.67-.129-1.025l-.003-.052a8.7 8.7 0 0 1 .113-2.079l.009-.05c.062-.35.126-.71.24-1.005.14-.363.37-.672.764-.881.424-.224.84-.21 1.226-.108.327.087.696.257 1.079.434m-1.59.996q0-.001-.013.005l-.024.015-.005.005a.3.3 0 0 0-.039.076c-.054.141-.095.352-.17.776a7 7 0 0 0-.093 1.718c.028.43.046.645.085.792a.3.3 0 0 0 .034.086q.004.005.023.018.013.009.012.007a.4.4 0 0 0 .128-.007c.19-.028.45-.112.92-.267.995-.331 1.894-.63 2.55-.925q.403-.181.607-.32a4 4 0 0 0-.57-.387c-.62-.366-1.481-.764-2.435-1.203-.449-.207-.698-.319-.885-.368a.4.4 0 0 0-.126-.021m14.054-3.403.034.038q.552.62.97 1.337l.027.046c.176.301.36.617.46.915.127.374.141.766-.048 1.179-.2.437-.544.68-.91.835-.316.135-.72.233-1.146.337l-.05.012-.04.01c-1.083.264-2.068.504-2.832.606-.386.051-.768.075-1.105.03-.328-.044-.745-.172-1.019-.55-.281-.388-.26-.829-.18-1.158s.249-.666.44-.989c.379-.64.973-1.422 1.623-2.277l.026-.035.032-.042c.256-.336.502-.661.753-.894.295-.275.651-.479 1.123-.496.442-.016.797.125 1.108.362.254.193.497.467.734.734m-4.34 3.867c.044-.112.118-.262.232-.455.33-.556.87-1.27 1.553-2.169.3-.394.467-.611.612-.745.102-.095.134-.095.151-.095h.004a.2.2 0 0 1 .062.006c.01.003.035.014.085.051.122.094.268.253.554.575q.454.51.795 1.095c.216.37.317.55.362.685a.3.3 0 0 1 .016.06l-.002.005-.005.011c-.003.007-.003.007-.006.009v.001a.5.5 0 0 1-.127.069c-.19.08-.47.151-.965.272-1.13.276-2.039.496-2.714.586a3.6 3.6 0 0 1-.607.039M10.035 2.89c.466-.09.724-.137.916-.14.147-.004.18.02.211.043h.001c.005.002.027.009.05.135.034.187.037.457.037.953v2.682c0 1.431-.002 2.424-.09 3.09-.042.31-.096.485-.14.575l-.015-.008c-.103-.061-.262-.196-.49-.462-.456-.534-1.022-1.39-1.83-2.614L7.26 4.98c-.257-.39-.398-.608-.472-.774a.5.5 0 0 1-.036-.1q.003-.008.006-.01a.4.4 0 0 1 .088-.07c.141-.094.355-.192.753-.37.763-.34 1.585-.603 2.437-.766m2.018-1.304c-.361-.267-.745-.345-1.136-.336-.333.007-.717.08-1.115.157l-.049.01c-.968.185-1.9.483-2.766.87l-.044.02c-.337.15-.667.297-.923.466-.303.199-.565.467-.698.876-.142.437-.056.829.096 1.17.13.291.342.612.56.944l.029.042 1.46 2.214c.767 1.164 1.383 2.1 1.909 2.714.267.312.552.593.867.778.334.198.732.303 1.163.195.437-.11.738-.399.926-.75.174-.322.261-.71.314-1.105.104-.777.104-1.871.104-3.224v-2.8c0-.42 0-.83-.061-1.168-.073-.402-.246-.785-.636-1.073" clip-rule="evenodd"/></svg>