<svg xmlns="http://www.w3.org/2000/svg" width="24" height="24" fill="none"><path fill="#141B34" fill-rule="evenodd" d="M2.73 3.326a.75.75 0 1 0-1.46.348c.385 1.613 1.987 5.128 5.48 7.003v2.073H5a.75.75 0 0 0 0 1.5h1.75v2.5H5a.75.75 0 0 0 0 1.5h1.75v2.25a.75.75 0 0 0 1.5 0v-2.25H10a.75.75 0 0 0 0-1.5H8.25v-2.5H10a.75.75 0 0 0 0-1.5H8.25v-2.073c3.493-1.875 5.096-5.39 5.48-7.003a.75.75 0 0 0-1.46-.348c-.322 1.354-1.743 4.445-4.77 6.05-3.027-1.605-4.448-4.696-4.77-6.05m17.293 6.636a.75.75 0 1 0-1.046 1.076c.162.157.419.36.664.551l.057.045c.245.193.508.4.757.61l.007.006H14.5a.75.75 0 0 0 0 1.5h5.962l-.007.006c-.249.21-.512.417-.757.61l-.057.045a10 10 0 0 0-.664.551.75.75 0 1 0 1.046 1.076c.091-.089.273-.234.544-.447l.06-.048c.242-.19.526-.413.797-.642.291-.247.593-.522.828-.798.117-.138.233-.293.323-.46.086-.162.175-.385.175-.643s-.089-.48-.175-.642a2.7 2.7 0 0 0-.323-.461 7.4 7.4 0 0 0-.828-.797c-.27-.23-.555-.453-.797-.643l-.06-.047a9 9 0 0 1-.544-.448" clip-rule="evenodd"/></svg>